MidiFile(type=1, ticks_per_beat=480, tracks=[
  MidiTrack([
    MetaMessage('set_tempo', tempo=428571, time=0),
    MetaMessage('key_signature', key='C', time=0),
    MetaMessage('time_signature', numerator=4, denominator=4, clocks_per_click=24, notated_32nd_notes_per_beat=8, time=0),
    MetaMessage('end_of_track', time=128640)]),
  MidiTrack([
    Message('control_change', channel=0, control=0, value=0, time=0),
    Message('control_change', channel=0, control=32, value=0, time=0),
    Message('program_change', channel=0, program=0, time=0),
    Message('control_change', channel=0, control=7, value=100, time=0),
    Message('control_change', channel=0, control=10, value=64, time=0),
    Message('note_on', channel=0, note=45, velocity=127, time=0),
    Message('note_on', channel=0, note=69, velocity=127, time=0),
    Message('note_on', channel=0, note=81, velocity=127, time=0),
    Message('note_on', channel=0, note=45, velocity=0, time=768),
    Message('note_on', channel=0, note=69, velocity=0, time=0),
    Message('note_on', channel=0, note=81, velocity=0, time=0),
    Message('note_on', channel=0, note=52, velocity=127, time=192),
    Message('note_on', channel=0, note=76, velocity=127, time=0),
    Message('note_on', channel=0, note=88, velocity=127, time=0),
    Message('note_on', channel=0, note=52, velocity=0, time=768),
    Message('note_on', channel=0, note=76, velocity=0, time=0),
    Message('note_on', channel=0, note=88, velocity=0, time=0),
    Message('note_on', channel=0, note=50, velocity=127, time=192),
    Message('note_on', channel=0, note=74, velocity=127, time=0),
    Message('note_on', channel=0, note=86, velocity=127, time=0),
    Message('note_on', channel=0, note=50, velocity=0, time=768),
    Message('note_on', channel=0, note=74, velocity=0, time=0),
    Message('note_on', channel=0, note=86, velocity=0, time=0),
    Message('note_on', channel=0, note=55, velocity=127, time=192),
    Message('note_on', channel=0, note=79, velocity=127, time=0),
    Message('note_on', channel=0, note=91, velocity=127, time=0),
    Message('note_on', channel=0, note=55, velocity=0, time=768),
    Message('note_on', channel=0, note=79, velocity=0, time=0),
    Message('note_on', channel=0, note=91, velocity=0, time=0),
    Message('note_on', channel=0, note=47, velocity=127, time=192),
    Message('note_on', channel=0, note=71, velocity=127, time=0),
    Message('note_on', channel=0, note=83, velocity=127, time=0),
    Message('note_on', channel=0, note=47, velocity=0, time=768),
    Message('note_on', channel=0, note=71, velocity=0, time=0),
    Message('note_on', channel=0, note=83, velocity=0, time=0),
    Message('note_on', channel=0, note=48, velocity=127, time=432),
    Message('note_on', channel=0, note=72, velocity=127, time=0),
    Message('note_on', channel=0, note=84, velocity=127, time=0),
    Message('note_on', channel=0, note=48, velocity=0, time=192),
    Message('note_on', channel=0, note=72, velocity=0, time=0),
    Message('note_on', channel=0, note=84, velocity=0, time=0),
    Message('note_on', channel=0, note=50, velocity=127, time=48),
    Message('note_on', channel=0, note=74, velocity=127, time=0),
    Message('note_on', channel=0, note=86, velocity=127, time=0),
    Message('note_on', channel=0, note=50, velocity=0, time=192),
    Message('note_on', channel=0, note=74, velocity=0, time=0),
    Message('note_on', channel=0, note=86, velocity=0, time=0),
    Message('note_on', channel=0, note=48, velocity=127, time=48),
    Message('note_on', channel=0, note=72, velocity=127, time=0),
    Message('note_on', channel=0, note=84, velocity=127, time=0),
    Message('note_on', channel=0, note=72, velocity=0, time=240),
    Message('note_on', channel=0, note=84, velocity=0, time=0),
    Message('note_on', channel=0, note=72, velocity=127, time=0),
    Message('note_on', channel=0, note=84, velocity=127, time=0),
    Message('note_on', channel=0, note=48, velocity=0, time=486),
    Message('note_on', channel=0, note=72, velocity=0, time=0),
    Message('note_on', channel=0, note=84, velocity=0, time=0),
    Message('note_on', channel=0, note=45, velocity=127, time=1434),
    Message('note_on', channel=0, note=69, velocity=127, time=0),
    Message('note_on', channel=0, note=81, velocity=127, time=0),
    Message('note_on', channel=0, note=45, velocity=0, time=768),
    Message('note_on', channel=0, note=69, velocity=0, time=0),
    Message('note_on', channel=0, note=81, velocity=0, time=0),
    Message('note_on', channel=0, note=52, velocity=127, time=192),
    Message('note_on', channel=0, note=76, velocity=127, time=0),
    Message('note_on', channel=0, note=88, velocity=127, time=0),
    Message('note_on', channel=0, note=52, velocity=0, time=768),
    Message('note_on', channel=0, note=76, velocity=0, time=0),
    Message('note_on', channel=0, note=88, velocity=0, time=0),
    Message('note_on', channel=0, note=50, velocity=127, time=192),
    Message('note_on', channel=0, note=74, velocity=127, time=0),
    Message('note_on', channel=0, note=86, velocity=127, time=0),
    Message('note_on', channel=0, note=50, velocity=0, time=768),
    Message('note_on', channel=0, note=74, velocity=0, time=0),
    Message('note_on', channel=0, note=86, velocity=0, time=0),
    Message('note_on', channel=0, note=57, velocity=127, time=192),
    Message('note_on', channel=0, note=81, velocity=127, time=0),
    Message('note_on', channel=0, note=93, velocity=127, time=0),
    Message('note_on', channel=0, note=57, velocity=0, time=768),
    Message('note_on', channel=0, note=81, velocity=0, time=0),
    Message('note_on', channel=0, note=93, velocity=0, time=0),
    Message('note_on', channel=0, note=55, velocity=127, time=192),
    Message('note_on', channel=0, note=91, velocity=127, time=0),
    Message('note_on', channel=0, note=79, velocity=127, time=0),
    Message('note_on', channel=0, note=55, velocity=0, time=768),
    Message('note_on', channel=0, note=91, velocity=0, time=0),
    Message('note_on', channel=0, note=79, velocity=0, time=0),
    Message('note_on', channel=0, note=52, velocity=127, time=432),
    Message('note_on', channel=0, note=76, velocity=127, time=0),
    Message('note_on', channel=0, note=88, velocity=127, time=0),
    Message('note_on', channel=0, note=52, velocity=0, time=192),
    Message('note_on', channel=0, note=76, velocity=0, time=0),
    Message('note_on', channel=0, note=88, velocity=0, time=0),
    Message('note_on', channel=0, note=47, velocity=127, time=48),
    Message('note_on', channel=0, note=71, velocity=127, time=0),
    Message('note_on', channel=0, note=83, velocity=127, time=0),
    Message('note_on', channel=0, note=47, velocity=0, time=192),
    Message('note_on', channel=0, note=71, velocity=0, time=0),
    Message('note_on', channel=0, note=83, velocity=0, time=0),
    Message('note_on', channel=0, note=48, velocity=127, time=48),
    Message('note_on', channel=0, note=72, velocity=127, time=0),
    Message('note_on', channel=0, note=84, velocity=127, time=0),
    Message('note_on', channel=0, note=72, velocity=0, time=240),
    Message('note_on', channel=0, note=84, velocity=0, time=0),
    Message('note_on', channel=0, note=72, velocity=127, time=0),
    Message('note_on', channel=0, note=84, velocity=127, time=0),
    Message('note_on', channel=0, note=48, velocity=0, time=486),
    Message('note_on', channel=0, note=72, velocity=0, time=0),
    Message('note_on', channel=0, note=84, velocity=0, time=0),
    Message('note_on', channel=0, note=48, velocity=127, time=954),
    Message('note_on', channel=0, note=72, velocity=127, time=0),
    Message('note_on', channel=0, note=84, velocity=127, time=0),
    Message('note_on', channel=0, note=48, velocity=0, time=192),
    Message('note_on', channel=0, note=72, velocity=0, time=0),
    Message('note_on', channel=0, note=84, velocity=0, time=0),
    Message('note_on', channel=0, note=50, velocity=127, time=48),
    Message('note_on', channel=0, note=74, velocity=127, time=0),
    Message('note_on', channel=0, note=86, velocity=127, time=0),
    Message('note_on', channel=0, note=50, velocity=0, time=192),
    Message('note_on', channel=0, note=74, velocity=0, time=0),
    Message('note_on', channel=0, note=86, velocity=0, time=0),
    Message('note_on', channel=0, note=52, velocity=127, time=48),
    Message('note_on', channel=0, note=76, velocity=127, time=0),
    Message('note_on', channel=0, note=88, velocity=127, time=0),
    Message('note_on', channel=0, note=52, velocity=0, time=384),
    Message('note_on', channel=0, note=76, velocity=0, time=0),
    Message('note_on', channel=0, note=88, velocity=0, time=0),
    Message('note_on', channel=0, note=50, velocity=127, time=336),
    Message('note_on', channel=0, note=74, velocity=127, time=0),
    Message('note_on', channel=0, note=86, velocity=127, time=0),
    Message('note_on', channel=0, note=50, velocity=0, time=768),
    Message('note_on', channel=0, note=74, velocity=0, time=0),
    Message('note_on', channel=0, note=86, velocity=0, time=0),
    Message('note_on', channel=0, note=43, velocity=127, time=1632),
    Message('note_on', channel=0, note=67, velocity=127, time=0),
    Message('note_on', channel=0, note=79, velocity=127, time=0),
    Message('note_on', channel=0, note=43, velocity=0, time=192),
    Message('note_on', channel=0, note=67, velocity=0, time=0),
    Message('note_on', channel=0, note=79, velocity=0, time=0),
    Message('note_on', channel=0, note=46, velocity=127, time=48),
    Message('note_on', channel=0, note=70, velocity=127, time=0),
    Message('note_on', channel=0, note=82, velocity=127, time=0),
    Message('note_on', channel=0, note=46, velocity=0, time=192),
    Message('note_on', channel=0, note=70, velocity=0, time=0),
    Message('note_on', channel=0, note=82, velocity=0, time=0),
    Message('note_on', channel=0, note=53, velocity=127, time=48),
    Message('note_on', channel=0, note=77, velocity=127, time=0),
    Message('note_on', channel=0, note=89, velocity=127, time=0),
    Message('note_on', channel=0, note=53, velocity=0, time=192),
    Message('note_on', channel=0, note=77, velocity=0, time=0),
    Message('note_on', channel=0, note=89, velocity=0, time=0),
    Message('note_on', channel=0, note=52, velocity=127, time=48),
    Message('note_on', channel=0, note=76, velocity=127, time=0),
    Message('note_on', channel=0, note=88, velocity=127, time=0),
    Message('note_on', channel=0, note=52, velocity=0, time=384),
    Message('note_on', channel=0, note=76, velocity=0, time=0),
    Message('note_on', channel=0, note=88, velocity=0, time=0),
    Message('note_on', channel=0, note=50, velocity=127, time=336),
    Message('note_on', channel=0, note=74, velocity=127, time=0),
    Message('note_on', channel=0, note=86, velocity=127, time=0),
    Message('note_on', channel=0, note=50, velocity=0, time=768),
    Message('note_on', channel=0, note=74, velocity=0, time=0),
    Message('note_on', channel=0, note=86, velocity=0, time=0),
    Message('note_on', channel=0, note=45, velocity=127, time=67632),
    Message('note_on', channel=0, note=69, velocity=127, time=0),
    Message('note_on', channel=0, note=81, velocity=127, time=0),
    Message('note_on', channel=0, note=45, velocity=0, time=768),
    Message('note_on', channel=0, note=69, velocity=0, time=0),
    Message('note_on', channel=0, note=81, velocity=0, time=0),
    Message('note_on', channel=0, note=52, velocity=127, time=192),
    Message('note_on', channel=0, note=76, velocity=127, time=0),
    Message('note_on', channel=0, note=88, velocity=127, time=0),
    Message('note_on', channel=0, note=52, velocity=0, time=768),
    Message('note_on', channel=0, note=76, velocity=0, time=0),
    Message('note_on', channel=0, note=88, velocity=0, time=0),
    Message('note_on', channel=0, note=50, velocity=127, time=192),
    Message('note_on', channel=0, note=74, velocity=127, time=0),
    Message('note_on', channel=0, note=86, velocity=127, time=0),
    Message('note_on', channel=0, note=50, velocity=0, time=768),
    Message('note_on', channel=0, note=74, velocity=0, time=0),
    Message('note_on', channel=0, note=86, velocity=0, time=0),
    Message('note_on', channel=0, note=55, velocity=127, time=192),
    Message('note_on', channel=0, note=79, velocity=127, time=0),
    Message('note_on', channel=0, note=91, velocity=127, time=0),
    Message('note_on', channel=0, note=55, velocity=0, time=768),
    Message('note_on', channel=0, note=79, velocity=0, time=0),
    Message('note_on', channel=0, note=91, velocity=0, time=0),
    Message('note_on', channel=0, note=47, velocity=127, time=192),
    Message('note_on', channel=0, note=83, velocity=127, time=0),
    Message('note_on', channel=0, note=71, velocity=127, time=0),
    Message('note_on', channel=0, note=47, velocity=0, time=768),
    Message('note_on', channel=0, note=83, velocity=0, time=0),
    Message('note_on', channel=0, note=71, velocity=0, time=0),
    Message('note_on', channel=0, note=48, velocity=127, time=432),
    Message('note_on', channel=0, note=72, velocity=127, time=0),
    Message('note_on', channel=0, note=84, velocity=127, time=0),
    Message('note_on', channel=0, note=48, velocity=0, time=192),
    Message('note_on', channel=0, note=72, velocity=0, time=0),
    Message('note_on', channel=0, note=84, velocity=0, time=0),
    Message('note_on', channel=0, note=50, velocity=127, time=48),
    Message('note_on', channel=0, note=74, velocity=127, time=0),
    Message('note_on', channel=0, note=86, velocity=127, time=0),
    Message('note_on', channel=0, note=50, velocity=0, time=192),
    Message('note_on', channel=0, note=74, velocity=0, time=0),
    Message('note_on', channel=0, note=86, velocity=0, time=0),
    Message('note_on', channel=0, note=48, velocity=127, time=48),
    Message('note_on', channel=0, note=72, velocity=127, time=0),
    Message('note_on', channel=0, note=84, velocity=127, time=0),
    Message('note_on', channel=0, note=72, velocity=0, time=240),
    Message('note_on', channel=0, note=84, velocity=0, time=0),
    Message('note_on', channel=0, note=72, velocity=127, time=0),
    Message('note_on', channel=0, note=84, velocity=127, time=0),
    Message('note_on', channel=0, note=48, velocity=0, time=486),
    Message('note_on', channel=0, note=72, velocity=0, time=0),
    Message('note_on', channel=0, note=84, velocity=0, time=0),
    Message('note_on', channel=0, note=45, velocity=127, time=1434),
    Message('note_on', channel=0, note=69, velocity=127, time=0),
    Message('note_on', channel=0, note=81, velocity=127, time=0),
    Message('note_on', channel=0, note=45, velocity=0, time=768),
    Message('note_on', channel=0, note=69, velocity=0, time=0),
    Message('note_on', channel=0, note=81, velocity=0, time=0),
    Message('note_on', channel=0, note=52, velocity=127, time=192),
    Message('note_on', channel=0, note=76, velocity=127, time=0),
    Message('note_on', channel=0, note=88, velocity=127, time=0),
    Message('note_on', channel=0, note=52, velocity=0, time=768),
    Message('note_on', channel=0, note=76, velocity=0, time=0),
    Message('note_on', channel=0, note=88, velocity=0, time=0),
    Message('note_on', channel=0, note=50, velocity=127, time=192),
    Message('note_on', channel=0, note=74, velocity=127, time=0),
    Message('note_on', channel=0, note=86, velocity=127, time=0),
    Message('note_on', channel=0, note=50, velocity=0, time=768),
    Message('note_on', channel=0, note=74, velocity=0, time=0),
    Message('note_on', channel=0, note=86, velocity=0, time=0),
    Message('note_on', channel=0, note=57, velocity=127, time=192),
    Message('note_on', channel=0, note=81, velocity=127, time=0),
    Message('note_on', channel=0, note=93, velocity=127, time=0),
    Message('note_on', channel=0, note=57, velocity=0, time=768),
    Message('note_on', channel=0, note=81, velocity=0, time=0),
    Message('note_on', channel=0, note=93, velocity=0, time=0),
    Message('note_on', channel=0, note=55, velocity=127, time=192),
    Message('note_on', channel=0, note=79, velocity=127, time=0),
    Message('note_on', channel=0, note=91, velocity=127, time=0),
    Message('note_on', channel=0, note=55, velocity=0, time=768),
    Message('note_on', channel=0, note=79, velocity=0, time=0),
    Message('note_on', channel=0, note=91, velocity=0, time=0),
    Message('note_on', channel=0, note=52, velocity=127, time=432),
    Message('note_on', channel=0, note=76, velocity=127, time=0),
    Message('note_on', channel=0, note=88, velocity=127, time=0),
    Message('note_on', channel=0, note=52, velocity=0, time=192),
    Message('note_on', channel=0, note=76, velocity=0, time=0),
    Message('note_on', channel=0, note=88, velocity=0, time=0),
    Message('note_on', channel=0, note=47, velocity=127, time=48),
    Message('note_on', channel=0, note=71, velocity=127, time=0),
    Message('note_on', channel=0, note=83, velocity=127, time=0),
    Message('note_on', channel=0, note=47, velocity=0, time=192),
    Message('note_on', channel=0, note=71, velocity=0, time=0),
    Message('note_on', channel=0, note=83, velocity=0, time=0),
    Message('note_on', channel=0, note=48, velocity=127, time=48),
    Message('note_on', channel=0, note=72, velocity=127, time=0),
    Message('note_on', channel=0, note=84, velocity=127, time=0),
    Message('note_on', channel=0, note=72, velocity=0, time=240),
    Message('note_on', channel=0, note=84, velocity=0, time=0),
    Message('note_on', channel=0, note=72, velocity=127, time=0),
    Message('note_on', channel=0, note=84, velocity=127, time=0),
    Message('note_on', channel=0, note=48, velocity=0, time=486),
    Message('note_on', channel=0, note=72, velocity=0, time=0),
    Message('note_on', channel=0, note=84, velocity=0, time=0),
    Message('note_on', channel=0, note=48, velocity=127, time=954),
    Message('note_on', channel=0, note=72, velocity=127, time=0),
    Message('note_on', channel=0, note=84, velocity=127, time=0),
    Message('note_on', channel=0, note=48, velocity=0, time=192),
    Message('note_on', channel=0, note=72, velocity=0, time=0),
    Message('note_on', channel=0, note=84, velocity=0, time=0),
    Message('note_on', channel=0, note=50, velocity=127, time=48),
    Message('note_on', channel=0, note=74, velocity=127, time=0),
    Message('note_on', channel=0, note=86, velocity=127, time=0),
    Message('note_on', channel=0, note=50, velocity=0, time=192),
    Message('note_on', channel=0, note=74, velocity=0, time=0),
    Message('note_on', channel=0, note=86, velocity=0, time=0),
    Message('note_on', channel=0, note=52, velocity=127, time=48),
    Message('note_on', channel=0, note=76, velocity=127, time=0),
    Message('note_on', channel=0, note=88, velocity=127, time=0),
    Message('note_on', channel=0, note=52, velocity=0, time=384),
    Message('note_on', channel=0, note=76, velocity=0, time=0),
    Message('note_on', channel=0, note=88, velocity=0, time=0),
    Message('note_on', channel=0, note=50, velocity=127, time=336),
    Message('note_on', channel=0, note=86, velocity=127, time=0),
    Message('note_on', channel=0, note=74, velocity=127, time=0),
    Message('note_on', channel=0, note=50, velocity=0, time=768),
    Message('note_on', channel=0, note=86, velocity=0, time=0),
    Message('note_on', channel=0, note=74, velocity=0, time=0),
    Message('note_on', channel=0, note=43, velocity=127, time=1632),
    Message('note_on', channel=0, note=67, velocity=127, time=0),
    Message('note_on', channel=0, note=79, velocity=127, time=0),
    Message('note_on', channel=0, note=43, velocity=0, time=192),
    Message('note_on', channel=0, note=67, velocity=0, time=0),
    Message('note_on', channel=0, note=79, velocity=0, time=0),
    Message('note_on', channel=0, note=46, velocity=127, time=48),
    Message('note_on', channel=0, note=70, velocity=127, time=0),
    Message('note_on', channel=0, note=82, velocity=127, time=0),
    Message('note_on', channel=0, note=46, velocity=0, time=192),
    Message('note_on', channel=0, note=70, velocity=0, time=0),
    Message('note_on', channel=0, note=82, velocity=0, time=0),
    Message('note_on', channel=0, note=53, velocity=127, time=48),
    Message('note_on', channel=0, note=77, velocity=127, time=0),
    Message('note_on', channel=0, note=89, velocity=127, time=0),
    Message('note_on', channel=0, note=53, velocity=0, time=192),
    Message('note_on', channel=0, note=77, velocity=0, time=0),
    Message('note_on', channel=0, note=89, velocity=0, time=0),
    Message('note_on', channel=0, note=52, velocity=127, time=48),
    Message('note_on', channel=0, note=76, velocity=127, time=0),
    Message('note_on', channel=0, note=88, velocity=127, time=0),
    Message('note_on', channel=0, note=52, velocity=0, time=384),
    Message('note_on', channel=0, note=76, velocity=0, time=0),
    Message('note_on', channel=0, note=88, velocity=0, time=0),
    Message('note_on', channel=0, note=50, velocity=127, time=336),
    Message('note_on', channel=0, note=74, velocity=127, time=0),
    Message('note_on', channel=0, note=86, velocity=127, time=0),
    Message('note_on', channel=0, note=50, velocity=0, time=768),
    Message('note_on', channel=0, note=74, velocity=0, time=0),
    Message('note_on', channel=0, note=86, velocity=0, time=0),
    Message('note_on', channel=0, note=50, velocity=127, time=2352),
    Message('note_on', channel=0, note=74, velocity=127, time=0),
    Message('note_on', channel=0, note=86, velocity=127, time=0),
    Message('note_on', channel=0, note=50, velocity=0, time=384),
    Message('note_on', channel=0, note=74, velocity=0, time=0),
    Message('note_on', channel=0, note=86, velocity=0, time=0),
    Message('note_on', channel=0, note=52, velocity=127, time=96),
    Message('note_on', channel=0, note=76, velocity=127, time=0),
    Message('note_on', channel=0, note=88, velocity=127, time=0),
    Message('note_on', channel=0, note=52, velocity=0, time=192),
    Message('note_on', channel=0, note=76, velocity=0, time=0),
    Message('note_on', channel=0, note=88, velocity=0, time=0),
    Message('note_on', channel=0, note=49, velocity=127, time=48),
    Message('note_on', channel=0, note=85, velocity=127, time=0),
    Message('note_on', channel=0, note=73, velocity=127, time=0),
    Message('note_on', channel=0, note=49, velocity=0, time=768),
    Message('note_on', channel=0, note=85, velocity=0, time=0),
    Message('note_on', channel=0, note=73, velocity=0, time=0),
    MetaMessage('end_of_track', time=15792)]),
  MidiTrack([
    Message('control_change', channel=9, control=0, value=0, time=0),
    Message('control_change', channel=9, control=32, value=0, time=0),
    Message('program_change', channel=9, program=0, time=0),
    Message('control_change', channel=9, control=7, value=100, time=0),
    Message('control_change', channel=9, control=10, value=64, time=0),
    Message('note_on', channel=9, note=46, velocity=100, time=240),
    Message('note_on', channel=9, note=46, velocity=0, time=192),
    Message('note_on', channel=9, note=46, velocity=100, time=288),
    Message('note_on', channel=9, note=46, velocity=0, time=192),
    Message('note_on', channel=9, note=46, velocity=100, time=288),
    Message('note_on', channel=9, note=46, velocity=0, time=192),
    Message('note_on', channel=9, note=46, velocity=100, time=288),
    Message('note_on', channel=9, note=46, velocity=0, time=192),
    Message('note_on', channel=9, note=46, velocity=100, time=288),
    Message('note_on', channel=9, note=46, velocity=0, time=192),
    Message('note_on', channel=9, note=46, velocity=100, time=288),
    Message('note_on', channel=9, note=46, velocity=0, time=192),
    Message('note_on', channel=9, note=46, velocity=100, time=288),
    Message('note_on', channel=9, note=46, velocity=0, time=192),
    Message('note_on', channel=9, note=46, velocity=100, time=288),
    Message('note_on', channel=9, note=46, velocity=0, time=192),
    Message('note_on', channel=9, note=46, velocity=100, time=288),
    Message('note_on', channel=9, note=46, velocity=0, time=192),
    Message('note_on', channel=9, note=46, velocity=100, time=288),
    Message('note_on', channel=9, note=46, velocity=0, time=192),
    Message('note_on', channel=9, note=46, velocity=100, time=288),
    Message('note_on', channel=9, note=46, velocity=0, time=192),
    Message('note_on', channel=9, note=46, velocity=100, time=288),
    Message('note_on', channel=9, note=46, velocity=0, time=192),
    Message('note_on', channel=9, note=46, velocity=100, time=288),
    Message('note_on', channel=9, note=46, velocity=0, time=192),
    Message('note_on', channel=9, note=46, velocity=100, time=288),
    Message('note_on', channel=9, note=46, velocity=0, time=192),
    Message('note_on', channel=9, note=46, velocity=100, time=288),
    Message('note_on', channel=9, note=46, velocity=0, time=192),
    Message('note_on', channel=9, note=46, velocity=100, time=288),
    Message('note_on', channel=9, note=46, velocity=0, time=192),
    Message('note_on', channel=9, note=46, velocity=100, time=288),
    Message('note_on', channel=9, note=46, velocity=0, time=192),
    Message('note_on', channel=9, note=46, velocity=100, time=288),
    Message('note_on', channel=9, note=46, velocity=0, time=192),
    Message('note_on', channel=9, note=46, velocity=100, time=288),
    Message('note_on', channel=9, note=46, velocity=0, time=192),
    Message('note_on', channel=9, note=46, velocity=100, time=288),
    Message('note_on', channel=9, note=46, velocity=0, time=192),
    Message('note_on', channel=9, note=46, velocity=100, time=288),
    Message('note_on', channel=9, note=46, velocity=0, time=192),
    Message('note_on', channel=9, note=46, velocity=100, time=288),
    Message('note_on', channel=9, note=46, velocity=0, time=192),
    Message('note_on', channel=9, note=46, velocity=100, time=288),
    Message('note_on', channel=9, note=46, velocity=0, time=192),
    Message('note_on', channel=9, note=46, velocity=100, time=288),
    Message('note_on', channel=9, note=46, velocity=0, time=192),
    Message('note_on', channel=9, note=46, velocity=100, time=288),
    Message('note_on', channel=9, note=46, velocity=0, time=192),
    Message('note_on', channel=9, note=46, velocity=100, time=288),
    Message('note_on', channel=9, note=46, velocity=0, time=192),
    Message('note_on', channel=9, note=46, velocity=100, time=288),
    Message('note_on', channel=9, note=46, velocity=0, time=192),
    Message('note_on', channel=9, note=46, velocity=100, time=288),
    Message('note_on', channel=9, note=46, velocity=0, time=192),
    Message('note_on', channel=9, note=46, velocity=100, time=288),
    Message('note_on', channel=9, note=46, velocity=0, time=192),
    Message('note_on', channel=9, note=46, velocity=100, time=288),
    Message('note_on', channel=9, note=46, velocity=0, time=192),
    Message('note_on', channel=9, note=46, velocity=100, time=288),
    Message('note_on', channel=9, note=46, velocity=0, time=192),
    Message('note_on', channel=9, note=46, velocity=100, time=288),
    Message('note_on', channel=9, note=46, velocity=0, time=192),
    Message('note_on', channel=9, note=46, velocity=100, time=288),
    Message('note_on', channel=9, note=46, velocity=0, time=192),
    Message('note_on', channel=9, note=46, velocity=100, time=288),
    Message('note_on', channel=9, note=46, velocity=0, time=192),
    Message('note_on', channel=9, note=46, velocity=100, time=288),
    Message('note_on', channel=9, note=46, velocity=0, time=192),
    Message('note_on', channel=9, note=46, velocity=100, time=288),
    Message('note_on', channel=9, note=46, velocity=0, time=192),
    Message('note_on', channel=9, note=46, velocity=100, time=288),
    Message('note_on', channel=9, note=46, velocity=0, time=192),
    Message('note_on', channel=9, note=46, velocity=100, time=288),
    Message('note_on', channel=9, note=46, velocity=0, time=192),
    Message('note_on', channel=9, note=46, velocity=100, time=288),
    Message('note_on', channel=9, note=46, velocity=0, time=192),
    Message('note_on', channel=9, note=46, velocity=100, time=288),
    Message('note_on', channel=9, note=46, velocity=0, time=192),
    Message('note_on', channel=9, note=46, velocity=100, time=288),
    Message('note_on', channel=9, note=46, velocity=0, time=192),
    Message('note_on', channel=9, note=46, velocity=100, time=288),
    Message('note_on', channel=9, note=46, velocity=0, time=192),
    Message('note_on', channel=9, note=46, velocity=100, time=288),
    Message('note_on', channel=9, note=46, velocity=0, time=192),
    Message('note_on', channel=9, note=46, velocity=100, time=288),
    Message('note_on', channel=9, note=46, velocity=0, time=192),
    Message('note_on', channel=9, note=44, velocity=100, time=34608),
    Message('note_on', channel=9, note=44, velocity=0, time=192),
    Message('note_on', channel=9, note=44, velocity=100, time=48),
    Message('note_on', channel=9, note=44, velocity=0, time=192),
    Message('note_on', channel=9, note=44, velocity=100, time=48),
    Message('note_on', channel=9, note=44, velocity=0, time=192),
    Message('note_on', channel=9, note=44, velocity=100, time=48),
    Message('note_on', channel=9, note=44, velocity=0, time=192),
    Message('note_on', channel=9, note=44, velocity=100, time=48),
    Message('note_on', channel=9, note=44, velocity=0, time=192),
    Message('note_on', channel=9, note=44, velocity=100, time=48),
    Message('note_on', channel=9, note=44, velocity=0, time=192),
    Message('note_on', channel=9, note=44, velocity=100, time=48),
    Message('note_on', channel=9, note=44, velocity=0, time=192),
    Message('note_on', channel=9, note=44, velocity=100, time=48),
    Message('note_on', channel=9, note=44, velocity=0, time=192),
    Message('note_on', channel=9, note=44, velocity=100, time=48),
    Message('note_on', channel=9, note=44, velocity=0, time=192),
    Message('note_on', channel=9, note=44, velocity=100, time=48),
    Message('note_on', channel=9, note=44, velocity=0, time=192),
    Message('note_on', channel=9, note=44, velocity=100, time=48),
    Message('note_on', channel=9, note=44, velocity=0, time=192),
    Message('note_on', channel=9, note=44, velocity=100, time=48),
    Message('note_on', channel=9, note=44, velocity=0, time=192),
    Message('note_on', channel=9, note=44, velocity=100, time=48),
    Message('note_on', channel=9, note=44, velocity=0, time=192),
    Message('note_on', channel=9, note=44, velocity=100, time=48),
    Message('note_on', channel=9, note=44, velocity=0, time=192),
    Message('note_on', channel=9, note=44, velocity=100, time=48),
    Message('note_on', channel=9, note=44, velocity=0, time=192),
    Message('note_on', channel=9, note=44, velocity=100, time=48),
    Message('note_on', channel=9, note=44, velocity=0, time=192),
    Message('note_on', channel=9, note=44, velocity=100, time=48),
    Message('note_on', channel=9, note=44, velocity=0, time=192),
    Message('note_on', channel=9, note=44, velocity=100, time=48),
    Message('note_on', channel=9, note=44, velocity=0, time=192),
    Message('note_on', channel=9, note=44, velocity=100, time=48),
    Message('note_on', channel=9, note=44, velocity=0, time=192),
    Message('note_on', channel=9, note=44, velocity=100, time=48),
    Message('note_on', channel=9, note=44, velocity=0, time=192),
    Message('note_on', channel=9, note=44, velocity=100, time=48),
    Message('note_on', channel=9, note=44, velocity=0, time=192),
    Message('note_on', channel=9, note=44, velocity=100, time=48),
    Message('note_on', channel=9, note=44, velocity=0, time=192),
    Message('note_on', channel=9, note=44, velocity=100, time=48),
    Message('note_on', channel=9, note=44, velocity=0, time=192),
    Message('note_on', channel=9, note=44, velocity=100, time=48),
    Message('note_on', channel=9, note=44, velocity=0, time=192),
    Message('note_on', channel=9, note=44, velocity=100, time=48),
    Message('note_on', channel=9, note=44, velocity=0, time=192),
    Message('note_on', channel=9, note=44, velocity=100, time=48),
    Message('note_on', channel=9, note=44, velocity=0, time=192),
    Message('note_on', channel=9, note=44, velocity=100, time=48),
    Message('note_on', channel=9, note=44, velocity=0, time=192),
    Message('note_on', channel=9, note=44, velocity=100, time=48),
    Message('note_on', channel=9, note=44, velocity=0, time=192),
    Message('note_on', channel=9, note=44, velocity=100, time=48),
    Message('note_on', channel=9, note=44, velocity=0, time=192),
    Message('note_on', channel=9, note=44, velocity=100, time=48),
    Message('note_on', channel=9, note=44, velocity=0, time=192),
    Message('note_on', channel=9, note=44, velocity=100, time=48),
    Message('note_on', channel=9, note=44, velocity=0, time=192),
    Message('note_on', channel=9, note=44, velocity=100, time=48),
    Message('note_on', channel=9, note=44, velocity=0, time=192),
    Message('note_on', channel=9, note=44, velocity=100, time=48),
    Message('note_on', channel=9, note=44, velocity=0, time=192),
    Message('note_on', channel=9, note=44, velocity=100, time=48),
    Message('note_on', channel=9, note=44, velocity=0, time=192),
    Message('note_on', channel=9, note=44, velocity=100, time=48),
    Message('note_on', channel=9, note=44, velocity=0, time=192),
    Message('note_on', channel=9, note=44, velocity=100, time=48),
    Message('note_on', channel=9, note=44, velocity=0, time=192),
    Message('note_on', channel=9, note=44, velocity=100, time=48),
    Message('note_on', channel=9, note=44, velocity=0, time=192),
    Message('note_on', channel=9, note=44, velocity=100, time=48),
    Message('note_on', channel=9, note=44, velocity=0, time=192),
    Message('note_on', channel=9, note=44, velocity=100, time=48),
    Message('note_on', channel=9, note=44, velocity=0, time=192),
    Message('note_on', channel=9, note=44, velocity=100, time=48),
    Message('note_on', channel=9, note=44, velocity=0, time=192),
    Message('note_on', channel=9, note=44, velocity=100, time=48),
    Message('note_on', channel=9, note=44, velocity=0, time=192),
    Message('note_on', channel=9, note=44, velocity=100, time=48),
    Message('note_on', channel=9, note=44, velocity=0, time=192),
    Message('note_on', channel=9, note=44, velocity=100, time=48),
    Message('note_on', channel=9, note=44, velocity=0, time=192),
    Message('note_on', channel=9, note=44, velocity=100, time=48),
    Message('note_on', channel=9, note=44, velocity=0, time=192),
    Message('note_on', channel=9, note=44, velocity=100, time=48),
    Message('note_on', channel=9, note=44, velocity=0, time=192),
    Message('note_on', channel=9, note=44, velocity=100, time=48),
    Message('note_on', channel=9, note=44, velocity=0, time=192),
    Message('note_on', channel=9, note=44, velocity=100, time=48),
    Message('note_on', channel=9, note=44, velocity=0, time=192),
    Message('note_on', channel=9, note=44, velocity=100, time=48),
    Message('note_on', channel=9, note=44, velocity=0, time=192),
    Message('note_on', channel=9, note=44, velocity=100, time=48),
    Message('note_on', channel=9, note=44, velocity=0, time=192),
    Message('note_on', channel=9, note=44, velocity=100, time=48),
    Message('note_on', channel=9, note=44, velocity=0, time=192),
    Message('note_on', channel=9, note=44, velocity=100, time=48),
    Message('note_on', channel=9, note=44, velocity=0, time=192),
    Message('note_on', channel=9, note=44, velocity=100, time=48),
    Message('note_on', channel=9, note=44, velocity=0, time=192),
    Message('note_on', channel=9, note=44, velocity=100, time=48),
    Message('note_on', channel=9, note=44, velocity=0, time=192),
    Message('note_on', channel=9, note=44, velocity=100, time=48),
    Message('note_on', channel=9, note=44, velocity=0, time=192),
    Message('note_on', channel=9, note=44, velocity=100, time=48),
    Message('note_on', channel=9, note=44, velocity=0, time=192),
    Message('note_on', channel=9, note=44, velocity=100, time=48),
    Message('note_on', channel=9, note=44, velocity=0, time=192),
    Message('note_on', channel=9, note=44, velocity=100, time=48),
    Message('note_on', channel=9, note=44, velocity=0, time=192),
    Message('note_on', channel=9, note=44, velocity=100, time=48),
    Message('note_on', channel=9, note=44, velocity=0, time=192),
    Message('note_on', channel=9, note=44, velocity=100, time=48),
    Message('note_on', channel=9, note=44, velocity=0, time=192),
    Message('note_on', channel=9, note=44, velocity=100, time=48),
    Message('note_on', channel=9, note=44, velocity=0, time=192),
    Message('note_on', channel=9, note=44, velocity=100, time=48),
    Message('note_on', channel=9, note=44, velocity=0, time=192),
    Message('note_on', channel=9, note=44, velocity=100, time=48),
    Message('note_on', channel=9, note=44, velocity=0, time=192),
    Message('note_on', channel=9, note=44, velocity=100, time=48),
    Message('note_on', channel=9, note=44, velocity=0, time=192),
    Message('note_on', channel=9, note=44, velocity=100, time=48),
    Message('note_on', channel=9, note=44, velocity=0, time=192),
    Message('note_on', channel=9, note=44, velocity=100, time=48),
    Message('note_on', channel=9, note=44, velocity=0, time=192),
    Message('note_on', channel=9, note=44, velocity=100, time=48),
    Message('note_on', channel=9, note=44, velocity=0, time=192),
    Message('note_on', channel=9, note=44, velocity=100, time=48),
    Message('note_on', channel=9, note=44, velocity=0, time=192),
    Message('note_on', channel=9, note=44, velocity=100, time=48),
    Message('note_on', channel=9, note=44, velocity=0, time=192),
    Message('note_on', channel=9, note=44, velocity=100, time=48),
    Message('note_on', channel=9, note=44, velocity=0, time=192),
    Message('note_on', channel=9, note=44, velocity=100, time=48),
    Message('note_on', channel=9, note=44, velocity=0, time=192),
    Message('note_on', channel=9, note=44, velocity=100, time=48),
    Message('note_on', channel=9, note=44, velocity=0, time=192),
    Message('note_on', channel=9, note=44, velocity=100, time=48),
    Message('note_on', channel=9, note=44, velocity=0, time=192),
    Message('note_on', channel=9, note=44, velocity=100, time=48),
    Message('note_on', channel=9, note=44, velocity=0, time=192),
    Message('note_on', channel=9, note=44, velocity=100, time=48),
    Message('note_on', channel=9, note=44, velocity=0, time=192),
    Message('note_on', channel=9, note=44, velocity=100, time=48),
    Message('note_on', channel=9, note=44, velocity=0, time=192),
    Message('note_on', channel=9, note=44, velocity=100, time=48),
    Message('note_on', channel=9, note=44, velocity=0, time=192),
    Message('note_on', channel=9, note=44, velocity=100, time=48),
    Message('note_on', channel=9, note=44, velocity=0, time=192),
    Message('note_on', channel=9, note=44, velocity=100, time=48),
    Message('note_on', channel=9, note=44, velocity=0, time=192),
    Message('note_on', channel=9, note=44, velocity=100, time=48),
    Message('note_on', channel=9, note=44, velocity=0, time=192),
    Message('note_on', channel=9, note=44, velocity=100, time=48),
    Message('note_on', channel=9, note=44, velocity=0, time=192),
    Message('note_on', channel=9, note=44, velocity=100, time=48),
    Message('note_on', channel=9, note=44, velocity=0, time=192),
    Message('note_on', channel=9, note=44, velocity=100, time=48),
    Message('note_on', channel=9, note=44, velocity=0, time=192),
    Message('note_on', channel=9, note=44, velocity=100, time=48),
    Message('note_on', channel=9, note=44, velocity=0, time=192),
    Message('note_on', channel=9, note=44, velocity=100, time=48),
    Message('note_on', channel=9, note=44, velocity=0, time=192),
    Message('note_on', channel=9, note=44, velocity=100, time=48),
    Message('note_on', channel=9, note=44, velocity=0, time=192),
    Message('note_on', channel=9, note=44, velocity=100, time=48),
    Message('note_on', channel=9, note=44, velocity=0, time=192),
    Message('note_on', channel=9, note=44, velocity=100, time=48),
    Message('note_on', channel=9, note=44, velocity=0, time=192),
    Message('note_on', channel=9, note=44, velocity=100, time=48),
    Message('note_on', channel=9, note=44, velocity=0, time=192),
    Message('note_on', channel=9, note=44, velocity=100, time=48),
    Message('note_on', channel=9, note=44, velocity=0, time=192),
    Message('note_on', channel=9, note=44, velocity=100, time=48),
    Message('note_on', channel=9, note=44, velocity=0, time=192),
    Message('note_on', channel=9, note=44, velocity=100, time=48),
    Message('note_on', channel=9, note=44, velocity=0, time=192),
    Message('note_on', channel=9, note=44, velocity=100, time=48),
    Message('note_on', channel=9, note=44, velocity=0, time=192),
    Message('note_on', channel=9, note=44, velocity=100, time=48),
    Message('note_on', channel=9, note=44, velocity=0, time=192),
    Message('note_on', channel=9, note=44, velocity=100, time=48),
    Message('note_on', channel=9, note=44, velocity=0, time=192),
    Message('note_on', channel=9, note=44, velocity=100, time=48),
    Message('note_on', channel=9, note=44, velocity=0, time=192),
    Message('note_on', channel=9, note=44, velocity=100, time=48),
    Message('note_on', channel=9, note=44, velocity=0, time=192),
    Message('note_on', channel=9, note=44, velocity=100, time=48),
    Message('note_on', channel=9, note=44, velocity=0, time=192),
    Message('note_on', channel=9, note=44, velocity=100, time=48),
    Message('note_on', channel=9, note=44, velocity=0, time=192),
    Message('note_on', channel=9, note=44, velocity=100, time=48),
    Message('note_on', channel=9, note=44, velocity=0, time=192),
    Message('note_on', channel=9, note=44, velocity=100, time=48),
    Message('note_on', channel=9, note=44, velocity=0, time=192),
    Message('note_on', channel=9, note=44, velocity=100, time=48),
    Message('note_on', channel=9, note=44, velocity=0, time=192),
    Message('note_on', channel=9, note=44, velocity=100, time=48),
    Message('note_on', channel=9, note=44, velocity=0, time=192),
    Message('note_on', channel=9, note=44, velocity=100, time=48),
    Message('note_on', channel=9, note=44, velocity=0, time=192),
    Message('note_on', channel=9, note=44, velocity=100, time=48),
    Message('note_on', channel=9, note=44, velocity=0, time=192),
    Message('note_on', channel=9, note=44, velocity=100, time=48),
    Message('note_on', channel=9, note=44, velocity=0, time=192),
    Message('note_on', channel=9, note=44, velocity=100, time=48),
    Message('note_on', channel=9, note=44, velocity=0, time=192),
    Message('note_on', channel=9, note=44, velocity=100, time=48),
    Message('note_on', channel=9, note=44, velocity=0, time=192),
    Message('note_on', channel=9, note=44, velocity=100, time=48),
    Message('note_on', channel=9, note=44, velocity=0, time=192),
    Message('note_on', channel=9, note=44, velocity=100, time=48),
    Message('note_on', channel=9, note=44, velocity=0, time=192),
    Message('note_on', channel=9, note=44, velocity=100, time=48),
    Message('note_on', channel=9, note=44, velocity=0, time=192),
    Message('note_on', channel=9, note=44, velocity=100, time=48),
    Message('note_on', channel=9, note=44, velocity=0, time=192),
    Message('note_on', channel=9, note=44, velocity=100, time=48),
    Message('note_on', channel=9, note=44, velocity=0, time=192),
    Message('note_on', channel=9, note=44, velocity=100, time=48),
    Message('note_on', channel=9, note=44, velocity=0, time=192),
    Message('note_on', channel=9, note=44, velocity=100, time=48),
    Message('note_on', channel=9, note=44, velocity=0, time=192),
    Message('note_on', channel=9, note=44, velocity=100, time=48),
    Message('note_on', channel=9, note=44, velocity=0, time=192),
    Message('note_on', channel=9, note=44, velocity=100, time=48),
    Message('note_on', channel=9, note=44, velocity=0, time=192),
    Message('note_on', channel=9, note=44, velocity=100, time=48),
    Message('note_on', channel=9, note=44, velocity=0, time=192),
    Message('note_on', channel=9, note=44, velocity=100, time=48),
    Message('note_on', channel=9, note=44, velocity=0, time=192),
    Message('note_on', channel=9, note=44, velocity=100, time=48),
    Message('note_on', channel=9, note=44, velocity=0, time=192),
    Message('note_on', channel=9, note=44, velocity=100, time=48),
    Message('note_on', channel=9, note=44, velocity=0, time=192),
    Message('note_on', channel=9, note=44, velocity=100, time=48),
    Message('note_on', channel=9, note=44, velocity=0, time=192),
    Message('note_on', channel=9, note=44, velocity=100, time=48),
    Message('note_on', channel=9, note=44, velocity=0, time=192),
    Message('note_on', channel=9, note=44, velocity=100, time=48),
    Message('note_on', channel=9, note=44, velocity=0, time=192),
    Message('note_on', channel=9, note=44, velocity=100, time=48),
    Message('note_on', channel=9, note=44, velocity=0, time=192),
    Message('note_on', channel=9, note=44, velocity=100, time=48),
    Message('note_on', channel=9, note=44, velocity=0, time=192),
    Message('note_on', channel=9, note=44, velocity=100, time=48),
    Message('note_on', channel=9, note=44, velocity=0, time=192),
    Message('note_on', channel=9, note=44, velocity=100, time=48),
    Message('note_on', channel=9, note=44, velocity=0, time=192),
    Message('note_on', channel=9, note=44, velocity=100, time=48),
    Message('note_on', channel=9, note=44, velocity=0, time=192),
    Message('note_on', channel=9, note=44, velocity=100, time=48),
    Message('note_on', channel=9, note=44, velocity=0, time=192),
    Message('note_on', channel=9, note=44, velocity=100, time=48),
    Message('note_on', channel=9, note=44, velocity=0, time=192),
    Message('note_on', channel=9, note=44, velocity=100, time=48),
    Message('note_on', channel=9, note=44, velocity=0, time=192),
    Message('note_on', channel=9, note=44, velocity=100, time=48),
    Message('note_on', channel=9, note=44, velocity=0, time=192),
    Message('note_on', channel=9, note=44, velocity=100, time=48),
    Message('note_on', channel=9, note=44, velocity=0, time=192),
    Message('note_on', channel=9, note=44, velocity=100, time=48),
    Message('note_on', channel=9, note=44, velocity=0, time=192),
    Message('note_on', channel=9, note=44, velocity=100, time=48),
    Message('note_on', channel=9, note=44, velocity=0, time=192),
    Message('note_on', channel=9, note=44, velocity=100, time=48),
    Message('note_on', channel=9, note=44, velocity=0, time=192),
    Message('note_on', channel=9, note=46, velocity=100, time=288),
    Message('note_on', channel=9, note=46, velocity=0, time=192),
    Message('note_on', channel=9, note=46, velocity=100, time=288),
    Message('note_on', channel=9, note=46, velocity=0, time=192),
    Message('note_on', channel=9, note=46, velocity=100, time=288),
    Message('note_on', channel=9, note=46, velocity=0, time=192),
    Message('note_on', channel=9, note=46, velocity=100, time=288),
    Message('note_on', channel=9, note=46, velocity=0, time=192),
    Message('note_on', channel=9, note=46, velocity=100, time=288),
    Message('note_on', channel=9, note=46, velocity=0, time=192),
    Message('note_on', channel=9, note=46, velocity=100, time=288),
    Message('note_on', channel=9, note=46, velocity=0, time=192),
    Message('note_on', channel=9, note=46, velocity=100, time=288),
    Message('note_on', channel=9, note=46, velocity=0, time=192),
    Message('note_on', channel=9, note=46, velocity=100, time=288),
    Message('note_on', channel=9, note=46, velocity=0, time=192),
    Message('note_on', channel=9, note=46, velocity=100, time=288),
    Message('note_on', channel=9, note=46, velocity=0, time=192),
    Message('note_on', channel=9, note=46, velocity=100, time=288),
    Message('note_on', channel=9, note=46, velocity=0, time=192),
    Message('note_on', channel=9, note=46, velocity=100, time=288),
    Message('note_on', channel=9, note=46, velocity=0, time=192),
    Message('note_on', channel=9, note=46, velocity=100, time=288),
    Message('note_on', channel=9, note=46, velocity=0, time=192),
    Message('note_on', channel=9, note=46, velocity=100, time=288),
    Message('note_on', channel=9, note=46, velocity=0, time=192),
    Message('note_on', channel=9, note=46, velocity=100, time=288),
    Message('note_on', channel=9, note=46, velocity=0, time=192),
    Message('note_on', channel=9, note=46, velocity=100, time=288),
    Message('note_on', channel=9, note=46, velocity=0, time=192),
    Message('note_on', channel=9, note=46, velocity=100, time=288),
    Message('note_on', channel=9, note=46, velocity=0, time=192),
    Message('note_on', channel=9, note=46, velocity=100, time=288),
    Message('note_on', channel=9, note=46, velocity=0, time=192),
    Message('note_on', channel=9, note=46, velocity=100, time=288),
    Message('note_on', channel=9, note=46, velocity=0, time=192),
    Message('note_on', channel=9, note=46, velocity=100, time=288),
    Message('note_on', channel=9, note=46, velocity=0, time=192),
    Message('note_on', channel=9, note=46, velocity=100, time=288),
    Message('note_on', channel=9, note=46, velocity=0, time=192),
    Message('note_on', channel=9, note=46, velocity=100, time=288),
    Message('note_on', channel=9, note=46, velocity=0, time=192),
    Message('note_on', channel=9, note=46, velocity=100, time=288),
    Message('note_on', channel=9, note=46, velocity=0, time=192),
    Message('note_on', channel=9, note=46, velocity=100, time=288),
    Message('note_on', channel=9, note=46, velocity=0, time=192),
    Message('note_on', channel=9, note=46, velocity=100, time=288),
    Message('note_on', channel=9, note=46, velocity=0, time=192),
    Message('note_on', channel=9, note=46, velocity=100, time=288),
    Message('note_on', channel=9, note=46, velocity=0, time=192),
    Message('note_on', channel=9, note=46, velocity=100, time=288),
    Message('note_on', channel=9, note=46, velocity=0, time=192),
    Message('note_on', channel=9, note=46, velocity=100, time=288),
    Message('note_on', channel=9, note=46, velocity=0, time=192),
    Message('note_on', channel=9, note=46, velocity=100, time=288),
    Message('note_on', channel=9, note=46, velocity=0, time=192),
    Message('note_on', channel=9, note=46, velocity=100, time=288),
    Message('note_on', channel=9, note=46, velocity=0, time=192),
    Message('note_on', channel=9, note=46, velocity=100, time=288),
    Message('note_on', channel=9, note=46, velocity=0, time=192),
    Message('note_on', channel=9, note=46, velocity=100, time=288),
    Message('note_on', channel=9, note=46, velocity=0, time=192),
    Message('note_on', channel=9, note=46, velocity=100, time=288),
    Message('note_on', channel=9, note=46, velocity=0, time=192),
    Message('note_on', channel=9, note=46, velocity=100, time=288),
    Message('note_on', channel=9, note=46, velocity=0, time=192),
    Message('note_on', channel=9, note=46, velocity=100, time=288),
    Message('note_on', channel=9, note=46, velocity=0, time=192),
    Message('note_on', channel=9, note=46, velocity=100, time=288),
    Message('note_on', channel=9, note=46, velocity=0, time=192),
    Message('note_on', channel=9, note=46, velocity=100, time=288),
    Message('note_on', channel=9, note=46, velocity=0, time=192),
    Message('note_on', channel=9, note=46, velocity=100, time=288),
    Message('note_on', channel=9, note=46, velocity=0, time=192),
    Message('note_on', channel=9, note=46, velocity=100, time=288),
    Message('note_on', channel=9, note=46, velocity=0, time=192),
    Message('note_on', channel=9, note=46, velocity=100, time=288),
    Message('note_on', channel=9, note=46, velocity=0, time=192),
    Message('note_on', channel=9, note=46, velocity=100, time=288),
    Message('note_on', channel=9, note=46, velocity=0, time=192),
    Message('note_on', channel=9, note=46, velocity=100, time=288),
    Message('note_on', channel=9, note=46, velocity=0, time=192),
    Message('note_on', channel=9, note=46, velocity=100, time=288),
    Message('note_on', channel=9, note=46, velocity=0, time=192),
    Message('note_on', channel=9, note=46, velocity=100, time=288),
    Message('note_on', channel=9, note=46, velocity=0, time=192),
    Message('note_on', channel=9, note=46, velocity=100, time=288),
    Message('note_on', channel=9, note=46, velocity=0, time=192),
    Message('note_on', channel=9, note=46, velocity=100, time=288),
    Message('note_on', channel=9, note=46, velocity=0, time=192),
    Message('note_on', channel=9, note=46, velocity=100, time=288),
    Message('note_on', channel=9, note=46, velocity=0, time=192),
    Message('note_on', channel=9, note=46, velocity=100, time=288),
    Message('note_on', channel=9, note=46, velocity=0, time=192),
    Message('note_on', channel=9, note=46, velocity=100, time=288),
    Message('note_on', channel=9, note=46, velocity=0, time=192),
    MetaMessage('end_of_track', time=17328)]),
  MidiTrack([
    Message('control_change', channel=9, control=0, value=0, time=0),
    Message('control_change', channel=9, control=32, value=0, time=0),
    Message('program_change', channel=9, program=0, time=0),
    Message('control_change', channel=9, control=7, value=100, time=0),
    Message('control_change', channel=9, control=10, value=64, time=0),
    Message('note_on', channel=9, note=30, velocity=100, time=0),
    Message('note_on', channel=9, note=30, velocity=0, time=96),
    Message('note_on', channel=9, note=30, velocity=100, time=24),
    Message('note_on', channel=9, note=30, velocity=0, time=96),
    Message('note_on', channel=9, note=30, velocity=100, time=24),
    Message('note_on', channel=9, note=30, velocity=0, time=96),
    Message('note_on', channel=9, note=30, velocity=100, time=24),
    Message('note_on', channel=9, note=30, velocity=0, time=96),
    Message('note_on', channel=9, note=30, velocity=100, time=144),
    Message('note_on', channel=9, note=30, velocity=0, time=96),
    Message('note_on', channel=9, note=30, velocity=100, time=144),
    Message('note_on', channel=9, note=30, velocity=0, time=96),
    Message('note_on', channel=9, note=30, velocity=100, time=24),
    Message('note_on', channel=9, note=30, velocity=0, time=96),
    Message('note_on', channel=9, note=30, velocity=100, time=24),
    Message('note_on', channel=9, note=30, velocity=0, time=96),
    Message('note_on', channel=9, note=30, velocity=100, time=24),
    Message('note_on', channel=9, note=30, velocity=0, time=96),
    Message('note_on', channel=9, note=30, velocity=100, time=24),
    Message('note_on', channel=9, note=30, velocity=0, time=96),
    Message('note_on', channel=9, note=30, velocity=100, time=264),
    Message('note_on', channel=9, note=30, velocity=0, time=96),
    Message('note_on', channel=9, note=30, velocity=100, time=24),
    Message('note_on', channel=9, note=30, velocity=0, time=96),
    Message('note_on', channel=9, note=30, velocity=100, time=24),
    Message('note_on', channel=9, note=30, velocity=0, time=96),
    Message('note_on', channel=9, note=30, velocity=100, time=24),
    Message('note_on', channel=9, note=30, velocity=0, time=96),
    Message('note_on', channel=9, note=30, velocity=100, time=24),
    Message('note_on', channel=9, note=30, velocity=0, time=96),
    Message('note_on', channel=9, note=30, velocity=100, time=24),
    Message('note_on', channel=9, note=30, velocity=0, time=96),
    Message('note_on', channel=9, note=30, velocity=100, time=144),
    Message('note_on', channel=9, note=30, velocity=0, time=96),
    Message('note_on', channel=9, note=30, velocity=100, time=144),
    Message('note_on', channel=9, note=30, velocity=0, time=96),
    Message('note_on', channel=9, note=30, velocity=100, time=24),
    Message('note_on', channel=9, note=30, velocity=0, time=96),
    Message('note_on', channel=9, note=30, velocity=100, time=24),
    Message('note_on', channel=9, note=30, velocity=0, time=96),
    Message('note_on', channel=9, note=30, velocity=100, time=24),
    Message('note_on', channel=9, note=30, velocity=0, time=96),
    Message('note_on', channel=9, note=30, velocity=100, time=24),
    Message('note_on', channel=9, note=30, velocity=0, time=96),
    Message('note_on', channel=9, note=30, velocity=100, time=264),
    Message('note_on', channel=9, note=30, velocity=0, time=96),
    Message('note_on', channel=9, note=30, velocity=100, time=24),
    Message('note_on', channel=9, note=30, velocity=0, time=96),
    Message('note_on', channel=9, note=30, velocity=100, time=24),
    Message('note_on', channel=9, note=30, velocity=0, time=96),
    Message('note_on', channel=9, note=30, velocity=100, time=24),
    Message('note_on', channel=9, note=30, velocity=0, time=96),
    Message('note_on', channel=9, note=30, velocity=100, time=24),
    Message('note_on', channel=9, note=30, velocity=0, time=96),
    Message('note_on', channel=9, note=30, velocity=100, time=24),
    Message('note_on', channel=9, note=30, velocity=0, time=96),
    Message('note_on', channel=9, note=30, velocity=100, time=144),
    Message('note_on', channel=9, note=30, velocity=0, time=96),
    Message('note_on', channel=9, note=30, velocity=100, time=144),
    Message('note_on', channel=9, note=30, velocity=0, time=96),
    Message('note_on', channel=9, note=30, velocity=100, time=24),
    Message('note_on', channel=9, note=30, velocity=0, time=96),
    Message('note_on', channel=9, note=30, velocity=100, time=24),
    Message('note_on', channel=9, note=30, velocity=0, time=96),
    Message('note_on', channel=9, note=30, velocity=100, time=24),
    Message('note_on', channel=9, note=30, velocity=0, time=96),
    Message('note_on', channel=9, note=30, velocity=100, time=24),
    Message('note_on', channel=9, note=30, velocity=0, time=96),
    Message('note_on', channel=9, note=30, velocity=100, time=264),
    Message('note_on', channel=9, note=30, velocity=0, time=96),
    Message('note_on', channel=9, note=30, velocity=100, time=24),
    Message('note_on', channel=9, note=30, velocity=0, time=96),
    Message('note_on', channel=9, note=30, velocity=100, time=24),
    Message('note_on', channel=9, note=30, velocity=0, time=96),
    Message('note_on', channel=9, note=30, velocity=100, time=24),
    Message('note_on', channel=9, note=30, velocity=0, time=96),
    Message('note_on', channel=9, note=30, velocity=100, time=24),
    Message('note_on', channel=9, note=30, velocity=0, time=96),
    Message('note_on', channel=9, note=30, velocity=100, time=24),
    Message('note_on', channel=9, note=30, velocity=0, time=96),
    Message('note_on', channel=9, note=30, velocity=100, time=144),
    Message('note_on', channel=9, note=30, velocity=0, time=96),
    Message('note_on', channel=9, note=30, velocity=100, time=144),
    Message('note_on', channel=9, note=30, velocity=0, time=96),
    Message('note_on', channel=9, note=30, velocity=100, time=24),
    Message('note_on', channel=9, note=30, velocity=0, time=96),
    Message('note_on', channel=9, note=30, velocity=100, time=24),
    Message('note_on', channel=9, note=30, velocity=0, time=96),
    Message('note_on', channel=9, note=30, velocity=100, time=24),
    Message('note_on', channel=9, note=30, velocity=0, time=96),
    Message('note_on', channel=9, note=30, velocity=100, time=24),
    Message('note_on', channel=9, note=30, velocity=0, time=96),
    Message('note_on', channel=9, note=30, velocity=100, time=264),
    Message('note_on', channel=9, note=30, velocity=0, time=96),
    Message('note_on', channel=9, note=30, velocity=100, time=24),
    Message('note_on', channel=9, note=30, velocity=0, time=96),
    Message('note_on', channel=9, note=30, velocity=100, time=24),
    Message('note_on', channel=9, note=30, velocity=0, time=96),
    Message('note_on', channel=9, note=30, velocity=100, time=24),
    Message('note_on', channel=9, note=30, velocity=0, time=96),
    Message('note_on', channel=9, note=30, velocity=100, time=24),
    Message('note_on', channel=9, note=30, velocity=0, time=96),
    Message('note_on', channel=9, note=30, velocity=100, time=24),
    Message('note_on', channel=9, note=30, velocity=0, time=96),
    Message('note_on', channel=9, note=30, velocity=100, time=144),
    Message('note_on', channel=9, note=30, velocity=0, time=96),
    Message('note_on', channel=9, note=30, velocity=100, time=144),
    Message('note_on', channel=9, note=30, velocity=0, time=96),
    Message('note_on', channel=9, note=30, velocity=100, time=24),
    Message('note_on', channel=9, note=30, velocity=0, time=96),
    Message('note_on', channel=9, note=30, velocity=100, time=24),
    Message('note_on', channel=9, note=30, velocity=0, time=96),
    Message('note_on', channel=9, note=30, velocity=100, time=24),
    Message('note_on', channel=9, note=30, velocity=0, time=96),
    Message('note_on', channel=9, note=30, velocity=100, time=24),
    Message('note_on', channel=9, note=30, velocity=0, time=96),
    Message('note_on', channel=9, note=30, velocity=100, time=264),
    Message('note_on', channel=9, note=30, velocity=0, time=96),
    Message('note_on', channel=9, note=30, velocity=100, time=24),
    Message('note_on', channel=9, note=30, velocity=0, time=96),
    Message('note_on', channel=9, note=30, velocity=100, time=24),
    Message('note_on', channel=9, note=30, velocity=0, time=96),
    Message('note_on', channel=9, note=30, velocity=100, time=24),
    Message('note_on', channel=9, note=30, velocity=0, time=96),
    Message('note_on', channel=9, note=30, velocity=100, time=24),
    Message('note_on', channel=9, note=30, velocity=0, time=96),
    Message('note_on', channel=9, note=30, velocity=100, time=24),
    Message('note_on', channel=9, note=30, velocity=0, time=96),
    Message('note_on', channel=9, note=30, velocity=100, time=144),
    Message('note_on', channel=9, note=30, velocity=0, time=96),
    Message('note_on', channel=9, note=30, velocity=100, time=144),
    Message('note_on', channel=9, note=30, velocity=0, time=96),
    Message('note_on', channel=9, note=30, velocity=100, time=24),
    Message('note_on', channel=9, note=30, velocity=0, time=96),
    Message('note_on', channel=9, note=30, velocity=100, time=24),
    Message('note_on', channel=9, note=30, velocity=0, time=96),
    Message('note_on', channel=9, note=30, velocity=100, time=24),
    Message('note_on', channel=9, note=30, velocity=0, time=96),
    Message('note_on', channel=9, note=30, velocity=100, time=24),
    Message('note_on', channel=9, note=30, velocity=0, time=96),
    Message('note_on', channel=9, note=30, velocity=100, time=264),
    Message('note_on', channel=9, note=30, velocity=0, time=96),
    Message('note_on', channel=9, note=30, velocity=100, time=24),
    Message('note_on', channel=9, note=30, velocity=0, time=96),
    Message('note_on', channel=9, note=30, velocity=100, time=24),
    Message('note_on', channel=9, note=30, velocity=0, time=96),
    Message('note_on', channel=9, note=30, velocity=100, time=24),
    Message('note_on', channel=9, note=30, velocity=0, time=96),
    Message('note_on', channel=9, note=30, velocity=100, time=24),
    Message('note_on', channel=9, note=30, velocity=0, time=96),
    Message('note_on', channel=9, note=30, velocity=100, time=24),
    Message('note_on', channel=9, note=30, velocity=0, time=96),
    Message('note_on', channel=9, note=30, velocity=100, time=144),
    Message('note_on', channel=9, note=30, velocity=0, time=96),
    Message('note_on', channel=9, note=30, velocity=100, time=144),
    Message('note_on', channel=9, note=30, velocity=0, time=96),
    Message('note_on', channel=9, note=30, velocity=100, time=24),
    Message('note_on', channel=9, note=30, velocity=0, time=96),
    Message('note_on', channel=9, note=30, velocity=100, time=24),
    Message('note_on', channel=9, note=30, velocity=0, time=96),
    Message('note_on', channel=9, note=30, velocity=100, time=24),
    Message('note_on', channel=9, note=30, velocity=0, time=96),
    Message('note_on', channel=9, note=30, velocity=100, time=24),
    Message('note_on', channel=9, note=30, velocity=0, time=96),
    Message('note_on', channel=9, note=30, velocity=100, time=264),
    Message('note_on', channel=9, note=30, velocity=0, time=96),
    Message('note_on', channel=9, note=30, velocity=100, time=24),
    Message('note_on', channel=9, note=30, velocity=0, time=96),
    Message('note_on', channel=9, note=30, velocity=100, time=24),
    Message('note_on', channel=9, note=30, velocity=0, time=96),
    Message('note_on', channel=9, note=30, velocity=100, time=24),
    Message('note_on', channel=9, note=30, velocity=0, time=96),
    Message('note_on', channel=9, note=30, velocity=100, time=24),
    Message('note_on', channel=9, note=30, velocity=0, time=96),
    Message('note_on', channel=9, note=30, velocity=100, time=24),
    Message('note_on', channel=9, note=30, velocity=0, time=96),
    Message('note_on', channel=9, note=30, velocity=100, time=144),
    Message('note_on', channel=9, note=30, velocity=0, time=96),
    Message('note_on', channel=9, note=30, velocity=100, time=144),
    Message('note_on', channel=9, note=30, velocity=0, time=96),
    Message('note_on', channel=9, note=30, velocity=100, time=24),
    Message('note_on', channel=9, note=30, velocity=0, time=96),
    Message('note_on', channel=9, note=30, velocity=100, time=24),
    Message('note_on', channel=9, note=30, velocity=0, time=96),
    Message('note_on', channel=9, note=30, velocity=100, time=24),
    Message('note_on', channel=9, note=30, velocity=0, time=96),
    Message('note_on', channel=9, note=30, velocity=100, time=24),
    Message('note_on', channel=9, note=30, velocity=0, time=96),
    Message('note_on', channel=9, note=30, velocity=100, time=264),
    Message('note_on', channel=9, note=30, velocity=0, time=96),
    Message('note_on', channel=9, note=30, velocity=100, time=24),
    Message('note_on', channel=9, note=30, velocity=0, time=96),
    Message('note_on', channel=9, note=30, velocity=100, time=24),
    Message('note_on', channel=9, note=30, velocity=0, time=96),
    Message('note_on', channel=9, note=30, velocity=100, time=24),
    Message('note_on', channel=9, note=30, velocity=0, time=96),
    Message('note_on', channel=9, note=30, velocity=100, time=24),
    Message('note_on', channel=9, note=30, velocity=0, time=96),
    Message('note_on', channel=9, note=30, velocity=100, time=24),
    Message('note_on', channel=9, note=30, velocity=0, time=96),
    Message('note_on', channel=9, note=30, velocity=100, time=144),
    Message('note_on', channel=9, note=30, velocity=0, time=96),
    Message('note_on', channel=9, note=30, velocity=100, time=144),
    Message('note_on', channel=9, note=30, velocity=0, time=96),
    Message('note_on', channel=9, note=30, velocity=100, time=24),
    Message('note_on', channel=9, note=30, velocity=0, time=96),
    Message('note_on', channel=9, note=30, velocity=100, time=24),
    Message('note_on', channel=9, note=30, velocity=0, time=96),
    Message('note_on', channel=9, note=30, velocity=100, time=24),
    Message('note_on', channel=9, note=30, velocity=0, time=96),
    Message('note_on', channel=9, note=30, velocity=100, time=24),
    Message('note_on', channel=9, note=30, velocity=0, time=96),
    Message('note_on', channel=9, note=30, velocity=100, time=264),
    Message('note_on', channel=9, note=30, velocity=0, time=96),
    Message('note_on', channel=9, note=30, velocity=100, time=24),
    Message('note_on', channel=9, note=30, velocity=0, time=96),
    Message('note_on', channel=9, note=30, velocity=100, time=24),
    Message('note_on', channel=9, note=30, velocity=0, time=96),
    Message('note_on', channel=9, note=30, velocity=100, time=24),
    Message('note_on', channel=9, note=30, velocity=0, time=96),
    Message('note_on', channel=9, note=30, velocity=100, time=24),
    Message('note_on', channel=9, note=30, velocity=0, time=96),
    Message('note_on', channel=9, note=30, velocity=100, time=24),
    Message('note_on', channel=9, note=30, velocity=0, time=96),
    Message('note_on', channel=9, note=30, velocity=100, time=144),
    Message('note_on', channel=9, note=30, velocity=0, time=96),
    Message('note_on', channel=9, note=30, velocity=100, time=144),
    Message('note_on', channel=9, note=30, velocity=0, time=96),
    Message('note_on', channel=9, note=30, velocity=100, time=24),
    Message('note_on', channel=9, note=30, velocity=0, time=96),
    Message('note_on', channel=9, note=30, velocity=100, time=24),
    Message('note_on', channel=9, note=30, velocity=0, time=96),
    Message('note_on', channel=9, note=30, velocity=100, time=24),
    Message('note_on', channel=9, note=30, velocity=0, time=96),
    Message('note_on', channel=9, note=30, velocity=100, time=24),
    Message('note_on', channel=9, note=30, velocity=0, time=96),
    Message('note_on', channel=9, note=30, velocity=100, time=264),
    Message('note_on', channel=9, note=30, velocity=0, time=96),
    Message('note_on', channel=9, note=30, velocity=100, time=24),
    Message('note_on', channel=9, note=30, velocity=0, time=96),
    Message('note_on', channel=9, note=30, velocity=100, time=24),
    Message('note_on', channel=9, note=30, velocity=0, time=96),
    Message('note_on', channel=9, note=30, velocity=100, time=24),
    Message('note_on', channel=9, note=30, velocity=0, time=96),
    Message('note_on', channel=9, note=30, velocity=100, time=24),
    Message('note_on', channel=9, note=30, velocity=0, time=96),
    Message('note_on', channel=9, note=30, velocity=100, time=24),
    Message('note_on', channel=9, note=30, velocity=0, time=96),
    Message('note_on', channel=9, note=30, velocity=100, time=144),
    Message('note_on', channel=9, note=30, velocity=0, time=96),
    Message('note_on', channel=9, note=30, velocity=100, time=144),
    Message('note_on', channel=9, note=30, velocity=0, time=96),
    Message('note_on', channel=9, note=30, velocity=100, time=24),
    Message('note_on', channel=9, note=30, velocity=0, time=96),
    Message('note_on', channel=9, note=30, velocity=100, time=24),
    Message('note_on', channel=9, note=30, velocity=0, time=96),
    Message('note_on', channel=9, note=30, velocity=100, time=24),
    Message('note_on', channel=9, note=30, velocity=0, time=96),
    Message('note_on', channel=9, note=30, velocity=100, time=24),
    Message('note_on', channel=9, note=30, velocity=0, time=96),
    Message('note_on', channel=9, note=30, velocity=100, time=264),
    Message('note_on', channel=9, note=30, velocity=0, time=96),
    Message('note_on', channel=9, note=30, velocity=100, time=24),
    Message('note_on', channel=9, note=30, velocity=0, time=96),
    Message('note_on', channel=9, note=30, velocity=100, time=67224),
    Message('note_on', channel=9, note=30, velocity=0, time=96),
    Message('note_on', channel=9, note=30, velocity=100, time=24),
    Message('note_on', channel=9, note=30, velocity=0, time=96),
    Message('note_on', channel=9, note=30, velocity=100, time=24),
    Message('note_on', channel=9, note=30, velocity=0, time=96),
    Message('note_on', channel=9, note=30, velocity=100, time=24),
    Message('note_on', channel=9, note=30, velocity=0, time=96),
    Message('note_on', channel=9, note=30, velocity=100, time=144),
    Message('note_on', channel=9, note=30, velocity=0, time=96),
    Message('note_on', channel=9, note=30, velocity=100, time=144),
    Message('note_on', channel=9, note=30, velocity=0, time=96),
    Message('note_on', channel=9, note=30, velocity=100, time=24),
    Message('note_on', channel=9, note=30, velocity=0, time=96),
    Message('note_on', channel=9, note=30, velocity=100, time=24),
    Message('note_on', channel=9, note=30, velocity=0, time=96),
    Message('note_on', channel=9, note=30, velocity=100, time=24),
    Message('note_on', channel=9, note=30, velocity=0, time=96),
    Message('note_on', channel=9, note=30, velocity=100, time=24),
    Message('note_on', channel=9, note=30, velocity=0, time=96),
    Message('note_on', channel=9, note=30, velocity=100, time=264),
    Message('note_on', channel=9, note=30, velocity=0, time=96),
    Message('note_on', channel=9, note=30, velocity=100, time=24),
    Message('note_on', channel=9, note=30, velocity=0, time=96),
    Message('note_on', channel=9, note=30, velocity=100, time=24),
    Message('note_on', channel=9, note=30, velocity=0, time=96),
    Message('note_on', channel=9, note=30, velocity=100, time=24),
    Message('note_on', channel=9, note=30, velocity=0, time=96),
    Message('note_on', channel=9, note=30, velocity=100, time=24),
    Message('note_on', channel=9, note=30, velocity=0, time=96),
    Message('note_on', channel=9, note=30, velocity=100, time=24),
    Message('note_on', channel=9, note=30, velocity=0, time=96),
    Message('note_on', channel=9, note=30, velocity=100, time=144),
    Message('note_on', channel=9, note=30, velocity=0, time=96),
    Message('note_on', channel=9, note=30, velocity=100, time=144),
    Message('note_on', channel=9, note=30, velocity=0, time=96),
    Message('note_on', channel=9, note=30, velocity=100, time=24),
    Message('note_on', channel=9, note=30, velocity=0, time=96),
    Message('note_on', channel=9, note=30, velocity=100, time=24),
    Message('note_on', channel=9, note=30, velocity=0, time=96),
    Message('note_on', channel=9, note=30, velocity=100, time=24),
    Message('note_on', channel=9, note=30, velocity=0, time=96),
    Message('note_on', channel=9, note=30, velocity=100, time=24),
    Message('note_on', channel=9, note=30, velocity=0, time=96),
    Message('note_on', channel=9, note=30, velocity=100, time=264),
    Message('note_on', channel=9, note=30, velocity=0, time=96),
    Message('note_on', channel=9, note=30, velocity=100, time=24),
    Message('note_on', channel=9, note=30, velocity=0, time=96),
    Message('note_on', channel=9, note=30, velocity=100, time=24),
    Message('note_on', channel=9, note=30, velocity=0, time=96),
    Message('note_on', channel=9, note=30, velocity=100, time=24),
    Message('note_on', channel=9, note=30, velocity=0, time=96),
    Message('note_on', channel=9, note=30, velocity=100, time=24),
    Message('note_on', channel=9, note=30, velocity=0, time=96),
    Message('note_on', channel=9, note=30, velocity=100, time=24),
    Message('note_on', channel=9, note=30, velocity=0, time=96),
    Message('note_on', channel=9, note=30, velocity=100, time=144),
    Message('note_on', channel=9, note=30, velocity=0, time=96),
    Message('note_on', channel=9, note=30, velocity=100, time=144),
    Message('note_on', channel=9, note=30, velocity=0, time=96),
    Message('note_on', channel=9, note=30, velocity=100, time=24),
    Message('note_on', channel=9, note=30, velocity=0, time=96),
    Message('note_on', channel=9, note=30, velocity=100, time=24),
    Message('note_on', channel=9, note=30, velocity=0, time=96),
    Message('note_on', channel=9, note=30, velocity=100, time=24),
    Message('note_on', channel=9, note=30, velocity=0, time=96),
    Message('note_on', channel=9, note=30, velocity=100, time=24),
    Message('note_on', channel=9, note=30, velocity=0, time=96),
    Message('note_on', channel=9, note=30, velocity=100, time=264),
    Message('note_on', channel=9, note=30, velocity=0, time=96),
    Message('note_on', channel=9, note=30, velocity=100, time=24),
    Message('note_on', channel=9, note=30, velocity=0, time=96),
    Message('note_on', channel=9, note=30, velocity=100, time=24),
    Message('note_on', channel=9, note=30, velocity=0, time=96),
    Message('note_on', channel=9, note=30, velocity=100, time=24),
    Message('note_on', channel=9, note=30, velocity=0, time=96),
    Message('note_on', channel=9, note=30, velocity=100, time=24),
    Message('note_on', channel=9, note=30, velocity=0, time=96),
    Message('note_on', channel=9, note=30, velocity=100, time=24),
    Message('note_on', channel=9, note=30, velocity=0, time=96),
    Message('note_on', channel=9, note=30, velocity=100, time=144),
    Message('note_on', channel=9, note=30, velocity=0, time=96),
    Message('note_on', channel=9, note=30, velocity=100, time=144),
    Message('note_on', channel=9, note=30, velocity=0, time=96),
    Message('note_on', channel=9, note=30, velocity=100, time=24),
    Message('note_on', channel=9, note=30, velocity=0, time=96),
    Message('note_on', channel=9, note=30, velocity=100, time=24),
    Message('note_on', channel=9, note=30, velocity=0, time=96),
    Message('note_on', channel=9, note=30, velocity=100, time=24),
    Message('note_on', channel=9, note=30, velocity=0, time=96),
    Message('note_on', channel=9, note=30, velocity=100, time=24),
    Message('note_on', channel=9, note=30, velocity=0, time=96),
    Message('note_on', channel=9, note=30, velocity=100, time=264),
    Message('note_on', channel=9, note=30, velocity=0, time=96),
    Message('note_on', channel=9, note=30, velocity=100, time=24),
    Message('note_on', channel=9, note=30, velocity=0, time=96),
    Message('note_on', channel=9, note=30, velocity=100, time=24),
    Message('note_on', channel=9, note=30, velocity=0, time=96),
    Message('note_on', channel=9, note=30, velocity=100, time=24),
    Message('note_on', channel=9, note=30, velocity=0, time=96),
    Message('note_on', channel=9, note=30, velocity=100, time=24),
    Message('note_on', channel=9, note=30, velocity=0, time=96),
    Message('note_on', channel=9, note=30, velocity=100, time=24),
    Message('note_on', channel=9, note=30, velocity=0, time=96),
    Message('note_on', channel=9, note=30, velocity=100, time=144),
    Message('note_on', channel=9, note=30, velocity=0, time=96),
    Message('note_on', channel=9, note=30, velocity=100, time=144),
    Message('note_on', channel=9, note=30, velocity=0, time=96),
    Message('note_on', channel=9, note=30, velocity=100, time=24),
    Message('note_on', channel=9, note=30, velocity=0, time=96),
    Message('note_on', channel=9, note=30, velocity=100, time=24),
    Message('note_on', channel=9, note=30, velocity=0, time=96),
    Message('note_on', channel=9, note=30, velocity=100, time=24),
    Message('note_on', channel=9, note=30, velocity=0, time=96),
    Message('note_on', channel=9, note=30, velocity=100, time=24),
    Message('note_on', channel=9, note=30, velocity=0, time=96),
    Message('note_on', channel=9, note=30, velocity=100, time=264),
    Message('note_on', channel=9, note=30, velocity=0, time=96),
    Message('note_on', channel=9, note=30, velocity=100, time=24),
    Message('note_on', channel=9, note=30, velocity=0, time=96),
    Message('note_on', channel=9, note=30, velocity=100, time=24),
    Message('note_on', channel=9, note=30, velocity=0, time=96),
    Message('note_on', channel=9, note=30, velocity=100, time=24),
    Message('note_on', channel=9, note=30, velocity=0, time=96),
    Message('note_on', channel=9, note=30, velocity=100, time=24),
    Message('note_on', channel=9, note=30, velocity=0, time=96),
    Message('note_on', channel=9, note=30, velocity=100, time=24),
    Message('note_on', channel=9, note=30, velocity=0, time=96),
    Message('note_on', channel=9, note=30, velocity=100, time=144),
    Message('note_on', channel=9, note=30, velocity=0, time=96),
    Message('note_on', channel=9, note=30, velocity=100, time=144),
    Message('note_on', channel=9, note=30, velocity=0, time=96),
    Message('note_on', channel=9, note=30, velocity=100, time=24),
    Message('note_on', channel=9, note=30, velocity=0, time=96),
    Message('note_on', channel=9, note=30, velocity=100, time=24),
    Message('note_on', channel=9, note=30, velocity=0, time=96),
    Message('note_on', channel=9, note=30, velocity=100, time=24),
    Message('note_on', channel=9, note=30, velocity=0, time=96),
    Message('note_on', channel=9, note=30, velocity=100, time=24),
    Message('note_on', channel=9, note=30, velocity=0, time=96),
    Message('note_on', channel=9, note=30, velocity=100, time=264),
    Message('note_on', channel=9, note=30, velocity=0, time=96),
    Message('note_on', channel=9, note=30, velocity=100, time=24),
    Message('note_on', channel=9, note=30, velocity=0, time=96),
    Message('note_on', channel=9, note=30, velocity=100, time=24),
    Message('note_on', channel=9, note=30, velocity=0, time=96),
    Message('note_on', channel=9, note=30, velocity=100, time=24),
    Message('note_on', channel=9, note=30, velocity=0, time=96),
    Message('note_on', channel=9, note=30, velocity=100, time=24),
    Message('note_on', channel=9, note=30, velocity=0, time=96),
    Message('note_on', channel=9, note=30, velocity=100, time=24),
    Message('note_on', channel=9, note=30, velocity=0, time=96),
    Message('note_on', channel=9, note=30, velocity=100, time=144),
    Message('note_on', channel=9, note=30, velocity=0, time=96),
    Message('note_on', channel=9, note=30, velocity=100, time=144),
    Message('note_on', channel=9, note=30, velocity=0, time=96),
    Message('note_on', channel=9, note=30, velocity=100, time=24),
    Message('note_on', channel=9, note=30, velocity=0, time=96),
    Message('note_on', channel=9, note=30, velocity=100, time=24),
    Message('note_on', channel=9, note=30, velocity=0, time=96),
    Message('note_on', channel=9, note=30, velocity=100, time=24),
    Message('note_on', channel=9, note=30, velocity=0, time=96),
    Message('note_on', channel=9, note=30, velocity=100, time=24),
    Message('note_on', channel=9, note=30, velocity=0, time=96),
    Message('note_on', channel=9, note=30, velocity=100, time=264),
    Message('note_on', channel=9, note=30, velocity=0, time=96),
    Message('note_on', channel=9, note=30, velocity=100, time=24),
    Message('note_on', channel=9, note=30, velocity=0, time=96),
    Message('note_on', channel=9, note=30, velocity=100, time=24),
    Message('note_on', channel=9, note=30, velocity=0, time=96),
    Message('note_on', channel=9, note=30, velocity=100, time=24),
    Message('note_on', channel=9, note=30, velocity=0, time=96),
    Message('note_on', channel=9, note=30, velocity=100, time=24),
    Message('note_on', channel=9, note=30, velocity=0, time=96),
    Message('note_on', channel=9, note=30, velocity=100, time=24),
    Message('note_on', channel=9, note=30, velocity=0, time=96),
    Message('note_on', channel=9, note=30, velocity=100, time=144),
    Message('note_on', channel=9, note=30, velocity=0, time=96),
    Message('note_on', channel=9, note=30, velocity=100, time=144),
    Message('note_on', channel=9, note=30, velocity=0, time=96),
    Message('note_on', channel=9, note=30, velocity=100, time=24),
    Message('note_on', channel=9, note=30, velocity=0, time=96),
    Message('note_on', channel=9, note=30, velocity=100, time=24),
    Message('note_on', channel=9, note=30, velocity=0, time=96),
    Message('note_on', channel=9, note=30, velocity=100, time=24),
    Message('note_on', channel=9, note=30, velocity=0, time=96),
    Message('note_on', channel=9, note=30, velocity=100, time=24),
    Message('note_on', channel=9, note=30, velocity=0, time=96),
    Message('note_on', channel=9, note=30, velocity=100, time=264),
    Message('note_on', channel=9, note=30, velocity=0, time=96),
    Message('note_on', channel=9, note=30, velocity=100, time=24),
    Message('note_on', channel=9, note=30, velocity=0, time=96),
    Message('note_on', channel=9, note=30, velocity=100, time=24),
    Message('note_on', channel=9, note=30, velocity=0, time=96),
    Message('note_on', channel=9, note=30, velocity=100, time=24),
    Message('note_on', channel=9, note=30, velocity=0, time=96),
    Message('note_on', channel=9, note=30, velocity=100, time=24),
    Message('note_on', channel=9, note=30, velocity=0, time=96),
    Message('note_on', channel=9, note=30, velocity=100, time=24),
    Message('note_on', channel=9, note=30, velocity=0, time=96),
    Message('note_on', channel=9, note=30, velocity=100, time=144),
    Message('note_on', channel=9, note=30, velocity=0, time=96),
    Message('note_on', channel=9, note=30, velocity=100, time=144),
    Message('note_on', channel=9, note=30, velocity=0, time=96),
    Message('note_on', channel=9, note=30, velocity=100, time=24),
    Message('note_on', channel=9, note=30, velocity=0, time=96),
    Message('note_on', channel=9, note=30, velocity=100, time=24),
    Message('note_on', channel=9, note=30, velocity=0, time=96),
    Message('note_on', channel=9, note=30, velocity=100, time=24),
    Message('note_on', channel=9, note=30, velocity=0, time=96),
    Message('note_on', channel=9, note=30, velocity=100, time=24),
    Message('note_on', channel=9, note=30, velocity=0, time=96),
    Message('note_on', channel=9, note=30, velocity=100, time=264),
    Message('note_on', channel=9, note=30, velocity=0, time=96),
    Message('note_on', channel=9, note=30, velocity=100, time=24),
    Message('note_on', channel=9, note=30, velocity=0, time=96),
    Message('note_on', channel=9, note=30, velocity=100, time=24),
    Message('note_on', channel=9, note=30, velocity=0, time=96),
    Message('note_on', channel=9, note=30, velocity=100, time=24),
    Message('note_on', channel=9, note=30, velocity=0, time=96),
    Message('note_on', channel=9, note=30, velocity=100, time=24),
    Message('note_on', channel=9, note=30, velocity=0, time=96),
    Message('note_on', channel=9, note=30, velocity=100, time=24),
    Message('note_on', channel=9, note=30, velocity=0, time=96),
    Message('note_on', channel=9, note=30, velocity=100, time=144),
    Message('note_on', channel=9, note=30, velocity=0, time=96),
    Message('note_on', channel=9, note=30, velocity=100, time=144),
    Message('note_on', channel=9, note=30, velocity=0, time=96),
    Message('note_on', channel=9, note=30, velocity=100, time=24),
    Message('note_on', channel=9, note=30, velocity=0, time=96),
    Message('note_on', channel=9, note=30, velocity=100, time=24),
    Message('note_on', channel=9, note=30, velocity=0, time=96),
    Message('note_on', channel=9, note=30, velocity=100, time=24),
    Message('note_on', channel=9, note=30, velocity=0, time=96),
    Message('note_on', channel=9, note=30, velocity=100, time=24),
    Message('note_on', channel=9, note=30, velocity=0, time=96),
    Message('note_on', channel=9, note=30, velocity=100, time=264),
    Message('note_on', channel=9, note=30, velocity=0, time=96),
    Message('note_on', channel=9, note=30, velocity=100, time=24),
    Message('note_on', channel=9, note=30, velocity=0, time=96),
    Message('note_on', channel=9, note=30, velocity=100, time=24),
    Message('note_on', channel=9, note=30, velocity=0, time=96),
    Message('note_on', channel=9, note=30, velocity=100, time=24),
    Message('note_on', channel=9, note=30, velocity=0, time=96),
    Message('note_on', channel=9, note=30, velocity=100, time=24),
    Message('note_on', channel=9, note=30, velocity=0, time=96),
    Message('note_on', channel=9, note=30, velocity=100, time=24),
    Message('note_on', channel=9, note=30, velocity=0, time=96),
    Message('note_on', channel=9, note=30, velocity=100, time=144),
    Message('note_on', channel=9, note=30, velocity=0, time=96),
    Message('note_on', channel=9, note=30, velocity=100, time=144),
    Message('note_on', channel=9, note=30, velocity=0, time=96),
    Message('note_on', channel=9, note=30, velocity=100, time=24),
    Message('note_on', channel=9, note=30, velocity=0, time=96),
    Message('note_on', channel=9, note=30, velocity=100, time=24),
    Message('note_on', channel=9, note=30, velocity=0, time=96),
    Message('note_on', channel=9, note=30, velocity=100, time=24),
    Message('note_on', channel=9, note=30, velocity=0, time=96),
    Message('note_on', channel=9, note=30, velocity=100, time=24),
    Message('note_on', channel=9, note=30, velocity=0, time=96),
    Message('note_on', channel=9, note=30, velocity=100, time=264),
    Message('note_on', channel=9, note=30, velocity=0, time=96),
    Message('note_on', channel=9, note=30, velocity=100, time=24),
    Message('note_on', channel=9, note=30, velocity=0, time=96),
    Message('note_on', channel=9, note=30, velocity=100, time=24),
    Message('note_on', channel=9, note=30, velocity=0, time=96),
    Message('note_on', channel=9, note=30, velocity=100, time=24),
    Message('note_on', channel=9, note=30, velocity=0, time=96),
    Message('note_on', channel=9, note=30, velocity=100, time=24),
    Message('note_on', channel=9, note=30, velocity=0, time=96),
    Message('note_on', channel=9, note=30, velocity=100, time=24),
    Message('note_on', channel=9, note=30, velocity=0, time=96),
    Message('note_on', channel=9, note=30, velocity=100, time=144),
    Message('note_on', channel=9, note=30, velocity=0, time=96),
    Message('note_on', channel=9, note=30, velocity=100, time=144),
    Message('note_on', channel=9, note=30, velocity=0, time=96),
    Message('note_on', channel=9, note=30, velocity=100, time=24),
    Message('note_on', channel=9, note=30, velocity=0, time=96),
    Message('note_on', channel=9, note=30, velocity=100, time=24),
    Message('note_on', channel=9, note=30, velocity=0, time=96),
    Message('note_on', channel=9, note=30, velocity=100, time=24),
    Message('note_on', channel=9, note=30, velocity=0, time=96),
    Message('note_on', channel=9, note=30, velocity=100, time=24),
    Message('note_on', channel=9, note=30, velocity=0, time=96),
    Message('note_on', channel=9, note=30, velocity=100, time=264),
    Message('note_on', channel=9, note=30, velocity=0, time=96),
    Message('note_on', channel=9, note=30, velocity=100, time=24),
    Message('note_on', channel=9, note=30, velocity=0, time=96),
    Message('note_on', channel=9, note=30, velocity=100, time=24),
    Message('note_on', channel=9, note=30, velocity=0, time=96),
    Message('note_on', channel=9, note=30, velocity=100, time=24),
    Message('note_on', channel=9, note=30, velocity=0, time=96),
    Message('note_on', channel=9, note=30, velocity=100, time=24),
    Message('note_on', channel=9, note=30, velocity=0, time=96),
    Message('note_on', channel=9, note=30, velocity=100, time=24),
    Message('note_on', channel=9, note=30, velocity=0, time=96),
    Message('note_on', channel=9, note=30, velocity=100, time=144),
    Message('note_on', channel=9, note=30, velocity=0, time=96),
    Message('note_on', channel=9, note=30, velocity=100, time=144),
    Message('note_on', channel=9, note=30, velocity=0, time=96),
    Message('note_on', channel=9, note=30, velocity=100, time=24),
    Message('note_on', channel=9, note=30, velocity=0, time=96),
    Message('note_on', channel=9, note=30, velocity=100, time=24),
    Message('note_on', channel=9, note=30, velocity=0, time=96),
    Message('note_on', channel=9, note=30, velocity=100, time=24),
    Message('note_on', channel=9, note=30, velocity=0, time=96),
    Message('note_on', channel=9, note=30, velocity=100, time=24),
    Message('note_on', channel=9, note=30, velocity=0, time=96),
    Message('note_on', channel=9, note=30, velocity=100, time=264),
    Message('note_on', channel=9, note=30, velocity=0, time=96),
    Message('note_on', channel=9, note=30, velocity=100, time=24),
    Message('note_on', channel=9, note=30, velocity=0, time=96),
    Message('note_on', channel=9, note=30, velocity=100, time=24),
    Message('note_on', channel=9, note=30, velocity=0, time=96),
    Message('note_on', channel=9, note=30, velocity=100, time=24),
    Message('note_on', channel=9, note=30, velocity=0, time=96),
    Message('note_on', channel=9, note=30, velocity=100, time=24),
    Message('note_on', channel=9, note=30, velocity=0, time=96),
    Message('note_on', channel=9, note=30, velocity=100, time=24),
    Message('note_on', channel=9, note=30, velocity=0, time=96),
    Message('note_on', channel=9, note=30, velocity=100, time=144),
    Message('note_on', channel=9, note=30, velocity=0, time=96),
    Message('note_on', channel=9, note=30, velocity=100, time=144),
    Message('note_on', channel=9, note=30, velocity=0, time=96),
    Message('note_on', channel=9, note=30, velocity=100, time=24),
    Message('note_on', channel=9, note=30, velocity=0, time=96),
    Message('note_on', channel=9, note=30, velocity=100, time=24),
    Message('note_on', channel=9, note=30, velocity=0, time=96),
    Message('note_on', channel=9, note=30, velocity=100, time=24),
    Message('note_on', channel=9, note=30, velocity=0, time=96),
    Message('note_on', channel=9, note=30, velocity=100, time=24),
    Message('note_on', channel=9, note=30, velocity=0, time=96),
    Message('note_on', channel=9, note=30, velocity=100, time=264),
    Message('note_on', channel=9, note=30, velocity=0, time=96),
    Message('note_on', channel=9, note=30, velocity=100, time=24),
    Message('note_on', channel=9, note=30, velocity=0, time=96),
    Message('note_on', channel=9, note=30, velocity=100, time=24),
    Message('note_on', channel=9, note=30, velocity=0, time=96),
    Message('note_on', channel=9, note=30, velocity=100, time=24),
    Message('note_on', channel=9, note=30, velocity=0, time=96),
    Message('note_on', channel=9, note=30, velocity=100, time=24),
    Message('note_on', channel=9, note=30, velocity=0, time=96),
    Message('note_on', channel=9, note=30, velocity=100, time=24),
    Message('note_on', channel=9, note=30, velocity=0, time=96),
    Message('note_on', channel=9, note=30, velocity=100, time=144),
    Message('note_on', channel=9, note=30, velocity=0, time=96),
    Message('note_on', channel=9, note=30, velocity=100, time=144),
    Message('note_on', channel=9, note=30, velocity=0, time=96),
    Message('note_on', channel=9, note=30, velocity=100, time=24),
    Message('note_on', channel=9, note=30, velocity=0, time=96),
    Message('note_on', channel=9, note=30, velocity=100, time=24),
    Message('note_on', channel=9, note=30, velocity=0, time=96),
    Message('note_on', channel=9, note=30, velocity=100, time=24),
    Message('note_on', channel=9, note=30, velocity=0, time=96),
    Message('note_on', channel=9, note=30, velocity=100, time=24),
    Message('note_on', channel=9, note=30, velocity=0, time=96),
    Message('note_on', channel=9, note=30, velocity=100, time=264),
    Message('note_on', channel=9, note=30, velocity=0, time=96),
    Message('note_on', channel=9, note=30, velocity=100, time=24),
    Message('note_on', channel=9, note=30, velocity=0, time=96),
    Message('note_on', channel=9, note=30, velocity=100, time=24),
    Message('note_on', channel=9, note=30, velocity=0, time=96),
    Message('note_on', channel=9, note=30, velocity=100, time=24),
    Message('note_on', channel=9, note=30, velocity=0, time=96),
    Message('note_on', channel=9, note=30, velocity=100, time=24),
    Message('note_on', channel=9, note=30, velocity=0, time=96),
    Message('note_on', channel=9, note=30, velocity=100, time=24),
    Message('note_on', channel=9, note=30, velocity=0, time=96),
    Message('note_on', channel=9, note=30, velocity=100, time=144),
    Message('note_on', channel=9, note=30, velocity=0, time=96),
    Message('note_on', channel=9, note=30, velocity=100, time=144),
    Message('note_on', channel=9, note=30, velocity=0, time=96),
    Message('note_on', channel=9, note=30, velocity=100, time=24),
    Message('note_on', channel=9, note=30, velocity=0, time=96),
    Message('note_on', channel=9, note=30, velocity=100, time=24),
    Message('note_on', channel=9, note=30, velocity=0, time=96),
    Message('note_on', channel=9, note=30, velocity=100, time=24),
    Message('note_on', channel=9, note=30, velocity=0, time=96),
    Message('note_on', channel=9, note=30, velocity=100, time=24),
    Message('note_on', channel=9, note=30, velocity=0, time=96),
    Message('note_on', channel=9, note=30, velocity=100, time=264),
    Message('note_on', channel=9, note=30, velocity=0, time=96),
    Message('note_on', channel=9, note=30, velocity=100, time=24),
    Message('note_on', channel=9, note=30, velocity=0, time=96),
    Message('note_on', channel=9, note=30, velocity=100, time=24),
    Message('note_on', channel=9, note=30, velocity=0, time=96),
    Message('note_on', channel=9, note=30, velocity=100, time=24),
    Message('note_on', channel=9, note=30, velocity=0, time=96),
    Message('note_on', channel=9, note=30, velocity=100, time=24),
    Message('note_on', channel=9, note=30, velocity=0, time=96),
    Message('note_on', channel=9, note=30, velocity=100, time=24),
    Message('note_on', channel=9, note=30, velocity=0, time=96),
    Message('note_on', channel=9, note=30, velocity=100, time=144),
    Message('note_on', channel=9, note=30, velocity=0, time=96),
    Message('note_on', channel=9, note=30, velocity=100, time=144),
    Message('note_on', channel=9, note=30, velocity=0, time=96),
    Message('note_on', channel=9, note=30, velocity=100, time=24),
    Message('note_on', channel=9, note=30, velocity=0, time=96),
    Message('note_on', channel=9, note=30, velocity=100, time=24),
    Message('note_on', channel=9, note=30, velocity=0, time=96),
    Message('note_on', channel=9, note=30, velocity=100, time=24),
    Message('note_on', channel=9, note=30, velocity=0, time=96),
    Message('note_on', channel=9, note=30, velocity=100, time=24),
    Message('note_on', channel=9, note=30, velocity=0, time=96),
    Message('note_on', channel=9, note=30, velocity=100, time=264),
    Message('note_on', channel=9, note=30, velocity=0, time=96),
    Message('note_on', channel=9, note=30, velocity=100, time=24),
    Message('note_on', channel=9, note=30, velocity=0, time=96),
    Message('note_on', channel=9, note=0, velocity=100, time=24),
    Message('note_on', channel=9, note=0, velocity=0, time=1536),
    Message('note_on', channel=9, note=0, velocity=100, time=384),
    Message('note_on', channel=9, note=0, velocity=0, time=1536),
    Message('note_on', channel=9, note=0, velocity=100, time=384),
    Message('note_on', channel=9, note=0, velocity=0, time=1536),
    Message('note_on', channel=9, note=0, velocity=100, time=384),
    Message('note_on', channel=9, note=0, velocity=0, time=1536),
    MetaMessage('end_of_track', time=384)]),
  MidiTrack([MetaMessage('end_of_track', time=128640)]),
  MidiTrack([
    Message('control_change', channel=4, control=0, value=0, time=0),
    Message('control_change', channel=4, control=32, value=0, time=0),
    Message('program_change', channel=4, program=31, time=0),
    Message('control_change', channel=4, control=7, value=100, time=0),
    Message('control_change', channel=4, control=10, value=64, time=0),
    Message('pitchwheel', channel=4, pitch=0, time=29256),
    Message('note_on', channel=4, note=81, velocity=100, time=24),
    Message('note_on', channel=4, note=81, velocity=0, time=240),
    Message('note_on', channel=4, note=79, velocity=100, time=0),
    Message('note_on', channel=4, note=79, velocity=0, time=240),
    Message('note_on', channel=4, note=72, velocity=100, time=0),
    Message('note_on', channel=4, note=76, velocity=100, time=0),
    Message('note_on', channel=4, note=72, velocity=0, time=240),
    Message('note_on', channel=4, note=76, velocity=0, time=0),
    Message('note_on', channel=4, note=74, velocity=100, time=0),
    Message('note_on', channel=4, note=74, velocity=0, time=120),
    Message('note_on', channel=4, note=72, velocity=100, time=0),
    Message('note_on', channel=4, note=72, velocity=0, time=120),
    Message('note_on', channel=4, note=69, velocity=100, time=0),
    Message('note_on', channel=4, note=69, velocity=0, time=240),
    Message('note_on', channel=4, note=69, velocity=100, time=0),
    Message('note_on', channel=4, note=65, velocity=100, time=0),
    Message('note_on', channel=4, note=69, velocity=0, time=240),
    Message('note_on', channel=4, note=65, velocity=0, time=0),
    Message('pitchwheel', channel=4, pitch=0, time=23040),
    MetaMessage('end_of_track', time=74880)]),
  MidiTrack([
    Message('control_change', channel=9, control=0, value=0, time=0),
    Message('control_change', channel=9, control=32, value=0, time=0),
    Message('program_change', channel=9, program=0, time=0),
    Message('control_change', channel=9, control=7, value=100, time=0),
    Message('control_change', channel=9, control=10, value=64, time=0),
    Message('note_on', channel=9, note=34, velocity=100, time=53760),
    Message('note_on', channel=9, note=40, velocity=100, time=0),
    Message('note_on', channel=9, note=41, velocity=100, time=0),
    Message('note_on', channel=9, note=34, velocity=0, time=96),
    Message('note_on', channel=9, note=40, velocity=0, time=0),
    Message('note_on', channel=9, note=41, velocity=0, time=0),
    Message('note_on', channel=9, note=34, velocity=100, time=24),
    Message('note_on', channel=9, note=40, velocity=100, time=0),
    Message('note_on', channel=9, note=41, velocity=100, time=0),
    Message('note_on', channel=9, note=34, velocity=0, time=96),
    Message('note_on', channel=9, note=40, velocity=0, time=0),
    Message('note_on', channel=9, note=41, velocity=0, time=0),
    Message('note_on', channel=9, note=41, velocity=100, time=24),
    Message('note_on', channel=9, note=41, velocity=0, time=96),
    Message('note_on', channel=9, note=41, velocity=100, time=24),
    Message('note_on', channel=9, note=41, velocity=0, time=96),
    Message('note_on', channel=9, note=41, velocity=100, time=24),
    Message('note_on', channel=9, note=41, velocity=0, time=96),
    Message('note_on', channel=9, note=41, velocity=100, time=24),
    Message('note_on', channel=9, note=41, velocity=0, time=96),
    Message('note_on', channel=9, note=40, velocity=100, time=24),
    Message('note_on', channel=9, note=41, velocity=100, time=0),
    Message('note_on', channel=9, note=34, velocity=100, time=0),
    Message('note_on', channel=9, note=40, velocity=0, time=96),
    Message('note_on', channel=9, note=41, velocity=0, time=0),
    Message('note_on', channel=9, note=34, velocity=0, time=0),
    Message('note_on', channel=9, note=40, velocity=100, time=24),
    Message('note_on', channel=9, note=41, velocity=100, time=0),
    Message('note_on', channel=9, note=34, velocity=100, time=0),
    Message('note_on', channel=9, note=40, velocity=0, time=96),
    Message('note_on', channel=9, note=41, velocity=0, time=0),
    Message('note_on', channel=9, note=34, velocity=0, time=0),
    Message('note_on', channel=9, note=41, velocity=100, time=24),
    Message('note_on', channel=9, note=41, velocity=0, time=96),
    Message('note_on', channel=9, note=41, velocity=100, time=24),
    Message('note_on', channel=9, note=41, velocity=0, time=96),
    Message('note_on', channel=9, note=41, velocity=100, time=24),
    Message('note_on', channel=9, note=41, velocity=0, time=96),
    Message('note_on', channel=9, note=41, velocity=100, time=24),
    Message('note_on', channel=9, note=41, velocity=0, time=96),
    Message('note_on', channel=9, note=34, velocity=100, time=24),
    Message('note_on', channel=9, note=40, velocity=100, time=0),
    Message('note_on', channel=9, note=41, velocity=100, time=0),
    Message('note_on', channel=9, note=34, velocity=0, time=96),
    Message('note_on', channel=9, note=40, velocity=0, time=0),
    Message('note_on', channel=9, note=41, velocity=0, time=0),
    Message('note_on', channel=9, note=34, velocity=100, time=24),
    Message('note_on', channel=9, note=40, velocity=100, time=0),
    Message('note_on', channel=9, note=41, velocity=100, time=0),
    Message('note_on', channel=9, note=34, velocity=0, time=96),
    Message('note_on', channel=9, note=40, velocity=0, time=0),
    Message('note_on', channel=9, note=41, velocity=0, time=0),
    Message('note_on', channel=9, note=30, velocity=100, time=24),
    Message('note_on', channel=9, note=41, velocity=100, time=0),
    Message('note_on', channel=9, note=52, velocity=100, time=0),
    Message('note_on', channel=9, note=57, velocity=100, time=0),
    Message('note_on', channel=9, note=49, velocity=100, time=0),
    Message('note_on', channel=9, note=30, velocity=0, time=96),
    Message('note_on', channel=9, note=41, velocity=0, time=0),
    Message('note_on', channel=9, note=52, velocity=0, time=0),
    Message('note_on', channel=9, note=57, velocity=0, time=0),
    Message('note_on', channel=9, note=49, velocity=0, time=0),
    Message('note_on', channel=9, note=30, velocity=100, time=24),
    Message('note_on', channel=9, note=41, velocity=100, time=0),
    Message('note_on', channel=9, note=52, velocity=100, time=0),
    Message('note_on', channel=9, note=57, velocity=100, time=0),
    Message('note_on', channel=9, note=49, velocity=100, time=0),
    Message('note_on', channel=9, note=30, velocity=0, time=96),
    Message('note_on', channel=9, note=41, velocity=0, time=0),
    Message('note_on', channel=9, note=52, velocity=0, time=0),
    Message('note_on', channel=9, note=57, velocity=0, time=0),
    Message('note_on', channel=9, note=49, velocity=0, time=0),
    Message('note_on', channel=9, note=30, velocity=100, time=24),
    Message('note_on', channel=9, note=41, velocity=100, time=0),
    Message('note_on', channel=9, note=52, velocity=100, time=0),
    Message('note_on', channel=9, note=57, velocity=100, time=0),
    Message('note_on', channel=9, note=49, velocity=100, time=0),
    Message('note_on', channel=9, note=30, velocity=0, time=96),
    Message('note_on', channel=9, note=41, velocity=0, time=0),
    Message('note_on', channel=9, note=52, velocity=0, time=0),
    Message('note_on', channel=9, note=57, velocity=0, time=0),
    Message('note_on', channel=9, note=49, velocity=0, time=0),
    MetaMessage('end_of_track', time=72864)]),
  MidiTrack([
    Message('control_change', channel=6, control=0, value=0, time=0),
    Message('control_change', channel=6, control=32, value=0, time=0),
    Message('program_change', channel=6, program=113, time=0),
    Message('control_change', channel=6, control=7, value=100, time=0),
    Message('control_change', channel=6, control=10, value=64, time=0),
    Message('note_on', channel=6, note=96, velocity=100, time=0),
    Message('note_on', channel=6, note=96, velocity=0, time=240),
    Message('note_on', channel=6, note=95, velocity=100, time=0),
    Message('note_on', channel=6, note=95, velocity=0, time=240),
    Message('note_on', channel=6, note=93, velocity=100, time=0),
    Message('note_on', channel=6, note=93, velocity=0, time=240),
    Message('note_on', channel=6, note=91, velocity=100, time=0),
    Message('note_on', channel=6, note=91, velocity=0, time=240),
    Message('note_on', channel=6, note=96, velocity=100, time=0),
    Message('note_on', channel=6, note=96, velocity=0, time=240),
    Message('note_on', channel=6, note=95, velocity=100, time=0),
    Message('note_on', channel=6, note=95, velocity=0, time=240),
    Message('note_on', channel=6, note=93, velocity=100, time=0),
    Message('note_on', channel=6, note=93, velocity=0, time=240),
    Message('note_on', channel=6, note=91, velocity=100, time=0),
    Message('note_on', channel=6, note=91, velocity=0, time=240),
    Message('note_on', channel=6, note=96, velocity=100, time=0),
    Message('note_on', channel=6, note=96, velocity=0, time=240),
    Message('note_on', channel=6, note=95, velocity=100, time=0),
    Message('note_on', channel=6, note=95, velocity=0, time=240),
    Message('note_on', channel=6, note=93, velocity=100, time=0),
    Message('note_on', channel=6, note=93, velocity=0, time=240),
    Message('note_on', channel=6, note=91, velocity=100, time=0),
    Message('note_on', channel=6, note=91, velocity=0, time=240),
    Message('note_on', channel=6, note=96, velocity=100, time=0),
    Message('note_on', channel=6, note=96, velocity=0, time=240),
    Message('note_on', channel=6, note=95, velocity=100, time=0),
    Message('note_on', channel=6, note=95, velocity=0, time=240),
    Message('note_on', channel=6, note=93, velocity=100, time=0),
    Message('note_on', channel=6, note=93, velocity=0, time=240),
    Message('note_on', channel=6, note=91, velocity=100, time=0),
    Message('note_on', channel=6, note=91, velocity=0, time=240),
    Message('note_on', channel=6, note=96, velocity=100, time=0),
    Message('note_on', channel=6, note=96, velocity=0, time=240),
    Message('note_on', channel=6, note=95, velocity=100, time=0),
    Message('note_on', channel=6, note=95, velocity=0, time=240),
    Message('note_on', channel=6, note=93, velocity=100, time=0),
    Message('note_on', channel=6, note=93, velocity=0, time=240),
    Message('note_on', channel=6, note=91, velocity=100, time=0),
    Message('note_on', channel=6, note=91, velocity=0, time=240),
    Message('note_on', channel=6, note=96, velocity=100, time=0),
    Message('note_on', channel=6, note=96, velocity=0, time=240),
    Message('note_on', channel=6, note=95, velocity=100, time=0),
    Message('note_on', channel=6, note=95, velocity=0, time=240),
    Message('note_on', channel=6, note=93, velocity=100, time=0),
    Message('note_on', channel=6, note=93, velocity=0, time=240),
    Message('note_on', channel=6, note=91, velocity=100, time=0),
    Message('note_on', channel=6, note=91, velocity=0, time=240),
    Message('note_on', channel=6, note=96, velocity=100, time=0),
    Message('note_on', channel=6, note=96, velocity=0, time=240),
    Message('note_on', channel=6, note=95, velocity=100, time=0),
    Message('note_on', channel=6, note=95, velocity=0, time=240),
    Message('note_on', channel=6, note=93, velocity=100, time=0),
    Message('note_on', channel=6, note=93, velocity=0, time=240),
    Message('note_on', channel=6, note=91, velocity=100, time=0),
    Message('note_on', channel=6, note=91, velocity=0, time=240),
    Message('note_on', channel=6, note=96, velocity=100, time=0),
    Message('note_on', channel=6, note=96, velocity=0, time=240),
    Message('note_on', channel=6, note=95, velocity=100, time=0),
    Message('note_on', channel=6, note=95, velocity=0, time=240),
    Message('note_on', channel=6, note=93, velocity=100, time=0),
    Message('note_on', channel=6, note=93, velocity=0, time=240),
    Message('note_on', channel=6, note=91, velocity=100, time=0),
    Message('note_on', channel=6, note=91, velocity=0, time=240),
    Message('note_on', channel=6, note=96, velocity=100, time=0),
    Message('note_on', channel=6, note=96, velocity=0, time=240),
    Message('note_on', channel=6, note=95, velocity=100, time=0),
    Message('note_on', channel=6, note=95, velocity=0, time=240),
    Message('note_on', channel=6, note=93, velocity=100, time=0),
    Message('note_on', channel=6, note=93, velocity=0, time=240),
    Message('note_on', channel=6, note=91, velocity=100, time=0),
    Message('note_on', channel=6, note=91, velocity=0, time=240),
    Message('note_on', channel=6, note=96, velocity=100, time=0),
    Message('note_on', channel=6, note=96, velocity=0, time=240),
    Message('note_on', channel=6, note=95, velocity=100, time=0),
    Message('note_on', channel=6, note=95, velocity=0, time=240),
    Message('note_on', channel=6, note=93, velocity=100, time=0),
    Message('note_on', channel=6, note=93, velocity=0, time=240),
    Message('note_on', channel=6, note=91, velocity=100, time=0),
    Message('note_on', channel=6, note=91, velocity=0, time=240),
    Message('note_on', channel=6, note=96, velocity=100, time=0),
    Message('note_on', channel=6, note=96, velocity=0, time=240),
    Message('note_on', channel=6, note=95, velocity=100, time=0),
    Message('note_on', channel=6, note=95, velocity=0, time=240),
    Message('note_on', channel=6, note=93, velocity=100, time=0),
    Message('note_on', channel=6, note=93, velocity=0, time=240),
    Message('note_on', channel=6, note=91, velocity=100, time=0),
    Message('note_on', channel=6, note=91, velocity=0, time=240),
    Message('note_on', channel=6, note=96, velocity=100, time=0),
    Message('note_on', channel=6, note=96, velocity=0, time=240),
    Message('note_on', channel=6, note=95, velocity=100, time=0),
    Message('note_on', channel=6, note=95, velocity=0, time=240),
    Message('note_on', channel=6, note=93, velocity=100, time=0),
    Message('note_on', channel=6, note=93, velocity=0, time=240),
    Message('note_on', channel=6, note=91, velocity=100, time=0),
    Message('note_on', channel=6, note=91, velocity=0, time=240),
    Message('note_on', channel=6, note=96, velocity=100, time=0),
    Message('note_on', channel=6, note=96, velocity=0, time=240),
    Message('note_on', channel=6, note=95, velocity=100, time=0),
    Message('note_on', channel=6, note=95, velocity=0, time=240),
    Message('note_on', channel=6, note=93, velocity=100, time=0),
    Message('note_on', channel=6, note=93, velocity=0, time=240),
    Message('note_on', channel=6, note=91, velocity=100, time=0),
    Message('note_on', channel=6, note=91, velocity=0, time=240),
    Message('note_on', channel=6, note=96, velocity=100, time=0),
    Message('note_on', channel=6, note=96, velocity=0, time=240),
    Message('note_on', channel=6, note=95, velocity=100, time=0),
    Message('note_on', channel=6, note=95, velocity=0, time=240),
    Message('note_on', channel=6, note=93, velocity=100, time=0),
    Message('note_on', channel=6, note=93, velocity=0, time=240),
    Message('note_on', channel=6, note=91, velocity=100, time=0),
    Message('note_on', channel=6, note=91, velocity=0, time=240),
    Message('note_on', channel=6, note=96, velocity=100, time=0),
    Message('note_on', channel=6, note=96, velocity=0, time=240),
    Message('note_on', channel=6, note=95, velocity=100, time=0),
    Message('note_on', channel=6, note=95, velocity=0, time=240),
    Message('note_on', channel=6, note=93, velocity=100, time=0),
    Message('note_on', channel=6, note=93, velocity=0, time=240),
    Message('note_on', channel=6, note=91, velocity=100, time=0),
    Message('note_on', channel=6, note=91, velocity=0, time=240),
    Message('note_on', channel=6, note=96, velocity=100, time=0),
    Message('note_on', channel=6, note=96, velocity=0, time=240),
    Message('note_on', channel=6, note=95, velocity=100, time=0),
    Message('note_on', channel=6, note=95, velocity=0, time=240),
    Message('note_on', channel=6, note=93, velocity=100, time=0),
    Message('note_on', channel=6, note=93, velocity=0, time=240),
    Message('note_on', channel=6, note=91, velocity=100, time=0),
    Message('note_on', channel=6, note=91, velocity=0, time=240),
    Message('note_on', channel=6, note=88, velocity=127, time=0),
    Message('note_on', channel=6, note=100, velocity=127, time=0),
    Message('note_on', channel=6, note=88, velocity=0, time=480),
    Message('note_on', channel=6, note=100, velocity=0, time=0),
    Message('note_on', channel=6, note=86, velocity=127, time=240),
    Message('note_on', channel=6, note=98, velocity=127, time=0),
    Message('note_on', channel=6, note=86, velocity=0, time=480),
    Message('note_on', channel=6, note=98, velocity=0, time=0),
    Message('note_on', channel=6, note=79, velocity=127, time=1920),
    Message('note_on', channel=6, note=91, velocity=127, time=0),
    Message('note_on', channel=6, note=79, velocity=0, time=240),
    Message('note_on', channel=6, note=91, velocity=0, time=0),
    Message('note_on', channel=6, note=82, velocity=127, time=0),
    Message('note_on', channel=6, note=94, velocity=127, time=0),
    Message('note_on', channel=6, note=82, velocity=0, time=240),
    Message('note_on', channel=6, note=94, velocity=0, time=0),
    Message('note_on', channel=6, note=89, velocity=127, time=0),
    Message('note_on', channel=6, note=101, velocity=127, time=0),
    Message('note_on', channel=6, note=89, velocity=0, time=240),
    Message('note_on', channel=6, note=101, velocity=0, time=0),
    Message('note_on', channel=6, note=88, velocity=127, time=0),
    Message('note_on', channel=6, note=100, velocity=127, time=0),
    Message('note_on', channel=6, note=88, velocity=0, time=480),
    Message('note_on', channel=6, note=100, velocity=0, time=0),
    Message('note_on', channel=6, note=86, velocity=127, time=240),
    Message('note_on', channel=6, note=98, velocity=127, time=0),
    Message('note_on', channel=6, note=86, velocity=0, time=480),
    Message('note_on', channel=6, note=98, velocity=0, time=0),
    Message('note_on', channel=6, note=76, velocity=127, time=35280),
    Message('note_on', channel=6, note=88, velocity=127, time=0),
    Message('note_on', channel=6, note=76, velocity=0, time=768),
    Message('note_on', channel=6, note=88, velocity=0, time=0),
    Message('note_on', channel=6, note=72, velocity=127, time=192),
    Message('note_on', channel=6, note=84, velocity=127, time=0),
    Message('note_on', channel=6, note=72, velocity=0, time=768),
    Message('note_on', channel=6, note=84, velocity=0, time=0),
    Message('note_on', channel=6, note=74, velocity=127, time=192),
    Message('note_on', channel=6, note=86, velocity=127, time=0),
    Message('note_on', channel=6, note=74, velocity=0, time=768),
    Message('note_on', channel=6, note=86, velocity=0, time=0),
    Message('note_on', channel=6, note=67, velocity=127, time=192),
    Message('note_on', channel=6, note=79, velocity=127, time=0),
    Message('note_on', channel=6, note=91, velocity=127, time=0),
    Message('note_on', channel=6, note=67, velocity=0, time=768),
    Message('note_on', channel=6, note=79, velocity=0, time=0),
    Message('note_on', channel=6, note=91, velocity=0, time=0),
    Message('note_on', channel=6, note=74, velocity=127, time=192),
    Message('note_on', channel=6, note=86, velocity=127, time=0),
    Message('note_on', channel=6, note=74, velocity=0, time=768),
    Message('note_on', channel=6, note=86, velocity=0, time=0),
    Message('note_on', channel=6, note=71, velocity=127, time=192),
    Message('note_on', channel=6, note=83, velocity=127, time=0),
    Message('note_on', channel=6, note=71, velocity=0, time=768),
    Message('note_on', channel=6, note=83, velocity=0, time=0),
    Message('note_on', channel=6, note=72, velocity=127, time=192),
    Message('note_on', channel=6, note=84, velocity=127, time=0),
    Message('note_on', channel=6, note=72, velocity=0, time=768),
    Message('note_on', channel=6, note=84, velocity=0, time=0),
    Message('note_on', channel=6, note=64, velocity=127, time=192),
    Message('note_on', channel=6, note=76, velocity=127, time=0),
    Message('note_on', channel=6, note=88, velocity=127, time=0),
    Message('note_on', channel=6, note=64, velocity=0, time=768),
    Message('note_on', channel=6, note=76, velocity=0, time=0),
    Message('note_on', channel=6, note=88, velocity=0, time=0),
    Message('note_on', channel=6, note=57, velocity=100, time=192),
    Message('note_on', channel=6, note=69, velocity=100, time=0),
    Message('note_on', channel=6, note=81, velocity=100, time=0),
    Message('note_on', channel=6, note=93, velocity=100, time=0),
    Message('note_on', channel=6, note=57, velocity=0, time=768),
    Message('note_on', channel=6, note=69, velocity=0, time=0),
    Message('note_on', channel=6, note=81, velocity=0, time=0),
    Message('note_on', channel=6, note=93, velocity=0, time=0),
    Message('note_on', channel=6, note=50, velocity=98, time=4992),
    Message('note_on', channel=6, note=62, velocity=98, time=0),
    Message('note_on', channel=6, note=74, velocity=98, time=0),
    Message('note_on', channel=6, note=86, velocity=98, time=0),
    Message('note_on', channel=6, note=50, velocity=0, time=192),
    Message('note_on', channel=6, note=62, velocity=0, time=0),
    Message('note_on', channel=6, note=74, velocity=0, time=0),
    Message('note_on', channel=6, note=86, velocity=0, time=0),
    Message('note_on', channel=6, note=50, velocity=127, time=48),
    Message('note_on', channel=6, note=62, velocity=127, time=0),
    Message('note_on', channel=6, note=74, velocity=127, time=0),
    Message('note_on', channel=6, note=86, velocity=127, time=0),
    Message('note_on', channel=6, note=50, velocity=0, time=192),
    Message('note_on', channel=6, note=62, velocity=0, time=0),
    Message('note_on', channel=6, note=74, velocity=0, time=0),
    Message('note_on', channel=6, note=86, velocity=0, time=0),
    Message('note_on', channel=6, note=52, velocity=127, time=48),
    Message('note_on', channel=6, note=64, velocity=127, time=0),
    Message('note_on', channel=6, note=76, velocity=127, time=0),
    Message('note_on', channel=6, note=88, velocity=127, time=0),
    Message('note_on', channel=6, note=52, velocity=0, time=288),
    Message('note_on', channel=6, note=64, velocity=0, time=0),
    Message('note_on', channel=6, note=76, velocity=0, time=0),
    Message('note_on', channel=6, note=88, velocity=0, time=0),
    Message('note_on', channel=6, note=53, velocity=127, time=192),
    Message('note_on', channel=6, note=65, velocity=127, time=0),
    Message('note_on', channel=6, note=77, velocity=127, time=0),
    Message('note_on', channel=6, note=89, velocity=127, time=0),
    Message('note_on', channel=6, note=53, velocity=0, time=288),
    Message('note_on', channel=6, note=65, velocity=0, time=0),
    Message('note_on', channel=6, note=77, velocity=0, time=0),
    Message('note_on', channel=6, note=89, velocity=0, time=0),
    Message('note_on', channel=6, note=55, velocity=127, time=192),
    Message('note_on', channel=6, note=67, velocity=127, time=0),
    Message('note_on', channel=6, note=79, velocity=127, time=0),
    Message('note_on', channel=6, note=91, velocity=127, time=0),
    Message('note_on', channel=6, note=55, velocity=0, time=384),
    Message('note_on', channel=6, note=67, velocity=0, time=0),
    Message('note_on', channel=6, note=79, velocity=0, time=0),
    Message('note_on', channel=6, note=91, velocity=0, time=0),
    Message('note_on', channel=6, note=64, velocity=100, time=96),
    Message('note_on', channel=6, note=76, velocity=100, time=0),
    Message('note_on', channel=6, note=88, velocity=100, time=0),
    Message('note_on', channel=6, note=100, velocity=100, time=0),
    Message('note_on', channel=6, note=64, velocity=0, time=768),
    Message('note_on', channel=6, note=76, velocity=0, time=0),
    Message('note_on', channel=6, note=88, velocity=0, time=0),
    Message('note_on', channel=6, note=100, velocity=0, time=0),
    Message('note_on', channel=6, note=60, velocity=100, time=192),
    Message('note_on', channel=6, note=72, velocity=100, time=0),
    Message('note_on', channel=6, note=84, velocity=100, time=0),
    Message('note_on', channel=6, note=96, velocity=100, time=0),
    Message('note_on', channel=6, note=60, velocity=0, time=768),
    Message('note_on', channel=6, note=72, velocity=0, time=0),
    Message('note_on', channel=6, note=84, velocity=0, time=0),
    Message('note_on', channel=6, note=96, velocity=0, time=0),
    Message('note_on', channel=6, note=62, velocity=100, time=192),
    Message('note_on', channel=6, note=74, velocity=100, time=0),
    Message('note_on', channel=6, note=86, velocity=100, time=0),
    Message('note_on', channel=6, note=98, velocity=100, time=0),
    Message('note_on', channel=6, note=62, velocity=0, time=768),
    Message('note_on', channel=6, note=74, velocity=0, time=0),
    Message('note_on', channel=6, note=86, velocity=0, time=0),
    Message('note_on', channel=6, note=98, velocity=0, time=0),
    Message('note_on', channel=6, note=55, velocity=100, time=192),
    Message('note_on', channel=6, note=67, velocity=100, time=0),
    Message('note_on', channel=6, note=79, velocity=100, time=0),
    Message('note_on', channel=6, note=91, velocity=100, time=0),
    Message('note_on', channel=6, note=103, velocity=100, time=0),
    Message('note_on', channel=6, note=55, velocity=0, time=768),
    Message('note_on', channel=6, note=67, velocity=0, time=0),
    Message('note_on', channel=6, note=79, velocity=0, time=0),
    Message('note_on', channel=6, note=91, velocity=0, time=0),
    Message('note_on', channel=6, note=103, velocity=0, time=0),
    Message('note_on', channel=6, note=56, velocity=100, time=192),
    Message('note_on', channel=6, note=68, velocity=100, time=0),
    Message('note_on', channel=6, note=80, velocity=100, time=0),
    Message('note_on', channel=6, note=92, velocity=100, time=0),
    Message('note_on', channel=6, note=56, velocity=0, time=768),
    Message('note_on', channel=6, note=68, velocity=0, time=0),
    Message('note_on', channel=6, note=80, velocity=0, time=0),
    Message('note_on', channel=6, note=92, velocity=0, time=0),
    Message('note_on', channel=6, note=59, velocity=100, time=192),
    Message('note_on', channel=6, note=71, velocity=100, time=0),
    Message('note_on', channel=6, note=83, velocity=100, time=0),
    Message('note_on', channel=6, note=95, velocity=100, time=0),
    Message('note_on', channel=6, note=59, velocity=0, time=768),
    Message('note_on', channel=6, note=71, velocity=0, time=0),
    Message('note_on', channel=6, note=83, velocity=0, time=0),
    Message('note_on', channel=6, note=95, velocity=0, time=0),
    Message('note_on', channel=6, note=57, velocity=100, time=192),
    Message('note_on', channel=6, note=69, velocity=100, time=0),
    Message('note_on', channel=6, note=81, velocity=100, time=0),
    Message('note_on', channel=6, note=93, velocity=100, time=0),
    Message('note_on', channel=6, note=57, velocity=0, time=768),
    Message('note_on', channel=6, note=69, velocity=0, time=0),
    Message('note_on', channel=6, note=81, velocity=0, time=0),
    Message('note_on', channel=6, note=93, velocity=0, time=0),
    Message('note_on', channel=6, note=64, velocity=100, time=192),
    Message('note_on', channel=6, note=76, velocity=100, time=0),
    Message('note_on', channel=6, note=88, velocity=100, time=0),
    Message('note_on', channel=6, note=100, velocity=100, time=0),
    Message('note_on', channel=6, note=64, velocity=0, time=768),
    Message('note_on', channel=6, note=76, velocity=0, time=0),
    Message('note_on', channel=6, note=88, velocity=0, time=0),
    Message('note_on', channel=6, note=100, velocity=0, time=0),
    Message('note_on', channel=6, note=96, velocity=100, time=9792),
    Message('note_on', channel=6, note=96, velocity=0, time=240),
    Message('note_on', channel=6, note=95, velocity=100, time=0),
    Message('note_on', channel=6, note=95, velocity=0, time=240),
    Message('note_on', channel=6, note=93, velocity=100, time=0),
    Message('note_on', channel=6, note=93, velocity=0, time=240),
    Message('note_on', channel=6, note=91, velocity=100, time=0),
    Message('note_on', channel=6, note=91, velocity=0, time=240),
    Message('note_on', channel=6, note=96, velocity=100, time=0),
    Message('note_on', channel=6, note=96, velocity=0, time=240),
    Message('note_on', channel=6, note=95, velocity=100, time=0),
    Message('note_on', channel=6, note=95, velocity=0, time=240),
    Message('note_on', channel=6, note=93, velocity=100, time=0),
    Message('note_on', channel=6, note=93, velocity=0, time=240),
    Message('note_on', channel=6, note=91, velocity=100, time=0),
    Message('note_on', channel=6, note=91, velocity=0, time=240),
    Message('note_on', channel=6, note=96, velocity=100, time=0),
    Message('note_on', channel=6, note=96, velocity=0, time=240),
    Message('note_on', channel=6, note=95, velocity=100, time=0),
    Message('note_on', channel=6, note=95, velocity=0, time=240),
    Message('note_on', channel=6, note=93, velocity=100, time=0),
    Message('note_on', channel=6, note=93, velocity=0, time=240),
    Message('note_on', channel=6, note=91, velocity=100, time=0),
    Message('note_on', channel=6, note=91, velocity=0, time=240),
    Message('note_on', channel=6, note=96, velocity=100, time=0),
    Message('note_on', channel=6, note=96, velocity=0, time=240),
    Message('note_on', channel=6, note=95, velocity=100, time=0),
    Message('note_on', channel=6, note=95, velocity=0, time=240),
    Message('note_on', channel=6, note=93, velocity=100, time=0),
    Message('note_on', channel=6, note=93, velocity=0, time=240),
    Message('note_on', channel=6, note=91, velocity=100, time=0),
    Message('note_on', channel=6, note=91, velocity=0, time=240),
    Message('note_on', channel=6, note=96, velocity=100, time=0),
    Message('note_on', channel=6, note=96, velocity=0, time=240),
    Message('note_on', channel=6, note=95, velocity=100, time=0),
    Message('note_on', channel=6, note=95, velocity=0, time=240),
    Message('note_on', channel=6, note=93, velocity=100, time=0),
    Message('note_on', channel=6, note=93, velocity=0, time=240),
    Message('note_on', channel=6, note=91, velocity=100, time=0),
    Message('note_on', channel=6, note=91, velocity=0, time=240),
    Message('note_on', channel=6, note=96, velocity=100, time=0),
    Message('note_on', channel=6, note=96, velocity=0, time=240),
    Message('note_on', channel=6, note=95, velocity=100, time=0),
    Message('note_on', channel=6, note=95, velocity=0, time=240),
    Message('note_on', channel=6, note=93, velocity=100, time=0),
    Message('note_on', channel=6, note=93, velocity=0, time=240),
    Message('note_on', channel=6, note=91, velocity=100, time=0),
    Message('note_on', channel=6, note=91, velocity=0, time=240),
    Message('note_on', channel=6, note=96, velocity=100, time=0),
    Message('note_on', channel=6, note=96, velocity=0, time=240),
    Message('note_on', channel=6, note=95, velocity=100, time=0),
    Message('note_on', channel=6, note=95, velocity=0, time=240),
    Message('note_on', channel=6, note=93, velocity=100, time=0),
    Message('note_on', channel=6, note=93, velocity=0, time=240),
    Message('note_on', channel=6, note=91, velocity=100, time=0),
    Message('note_on', channel=6, note=91, velocity=0, time=240),
    Message('note_on', channel=6, note=96, velocity=100, time=0),
    Message('note_on', channel=6, note=96, velocity=0, time=240),
    Message('note_on', channel=6, note=95, velocity=100, time=0),
    Message('note_on', channel=6, note=95, velocity=0, time=240),
    Message('note_on', channel=6, note=93, velocity=100, time=0),
    Message('note_on', channel=6, note=93, velocity=0, time=240),
    Message('note_on', channel=6, note=91, velocity=100, time=0),
    Message('note_on', channel=6, note=91, velocity=0, time=240),
    Message('note_on', channel=6, note=96, velocity=100, time=0),
    Message('note_on', channel=6, note=96, velocity=0, time=240),
    Message('note_on', channel=6, note=95, velocity=100, time=0),
    Message('note_on', channel=6, note=95, velocity=0, time=240),
    Message('note_on', channel=6, note=93, velocity=100, time=0),
    Message('note_on', channel=6, note=93, velocity=0, time=240),
    Message('note_on', channel=6, note=91, velocity=100, time=0),
    Message('note_on', channel=6, note=91, velocity=0, time=240),
    Message('note_on', channel=6, note=96, velocity=100, time=0),
    Message('note_on', channel=6, note=96, velocity=0, time=240),
    Message('note_on', channel=6, note=95, velocity=100, time=0),
    Message('note_on', channel=6, note=95, velocity=0, time=240),
    Message('note_on', channel=6, note=93, velocity=100, time=0),
    Message('note_on', channel=6, note=93, velocity=0, time=240),
    Message('note_on', channel=6, note=91, velocity=100, time=0),
    Message('note_on', channel=6, note=91, velocity=0, time=240),
    Message('note_on', channel=6, note=96, velocity=100, time=0),
    Message('note_on', channel=6, note=96, velocity=0, time=240),
    Message('note_on', channel=6, note=95, velocity=100, time=0),
    Message('note_on', channel=6, note=95, velocity=0, time=240),
    Message('note_on', channel=6, note=93, velocity=100, time=0),
    Message('note_on', channel=6, note=93, velocity=0, time=240),
    Message('note_on', channel=6, note=91, velocity=100, time=0),
    Message('note_on', channel=6, note=91, velocity=0, time=240),
    Message('note_on', channel=6, note=96, velocity=100, time=0),
    Message('note_on', channel=6, note=96, velocity=0, time=240),
    Message('note_on', channel=6, note=95, velocity=100, time=0),
    Message('note_on', channel=6, note=95, velocity=0, time=240),
    Message('note_on', channel=6, note=93, velocity=100, time=0),
    Message('note_on', channel=6, note=93, velocity=0, time=240),
    Message('note_on', channel=6, note=91, velocity=100, time=0),
    Message('note_on', channel=6, note=91, velocity=0, time=240),
    Message('note_on', channel=6, note=96, velocity=100, time=0),
    Message('note_on', channel=6, note=96, velocity=0, time=240),
    Message('note_on', channel=6, note=95, velocity=100, time=0),
    Message('note_on', channel=6, note=95, velocity=0, time=240),
    Message('note_on', channel=6, note=93, velocity=100, time=0),
    Message('note_on', channel=6, note=93, velocity=0, time=240),
    Message('note_on', channel=6, note=91, velocity=100, time=0),
    Message('note_on', channel=6, note=91, velocity=0, time=240),
    Message('note_on', channel=6, note=96, velocity=100, time=0),
    Message('note_on', channel=6, note=96, velocity=0, time=240),
    Message('note_on', channel=6, note=95, velocity=100, time=0),
    Message('note_on', channel=6, note=95, velocity=0, time=240),
    Message('note_on', channel=6, note=93, velocity=100, time=0),
    Message('note_on', channel=6, note=93, velocity=0, time=240),
    Message('note_on', channel=6, note=91, velocity=100, time=0),
    Message('note_on', channel=6, note=91, velocity=0, time=240),
    Message('note_on', channel=6, note=96, velocity=100, time=0),
    Message('note_on', channel=6, note=96, velocity=0, time=240),
    Message('note_on', channel=6, note=95, velocity=100, time=0),
    Message('note_on', channel=6, note=95, velocity=0, time=240),
    Message('note_on', channel=6, note=93, velocity=100, time=0),
    Message('note_on', channel=6, note=93, velocity=0, time=240),
    Message('note_on', channel=6, note=91, velocity=100, time=0),
    Message('note_on', channel=6, note=91, velocity=0, time=240),
    Message('note_on', channel=6, note=96, velocity=100, time=0),
    Message('note_on', channel=6, note=96, velocity=0, time=240),
    Message('note_on', channel=6, note=95, velocity=100, time=0),
    Message('note_on', channel=6, note=95, velocity=0, time=240),
    Message('note_on', channel=6, note=93, velocity=100, time=0),
    Message('note_on', channel=6, note=93, velocity=0, time=240),
    Message('note_on', channel=6, note=91, velocity=100, time=0),
    Message('note_on', channel=6, note=91, velocity=0, time=240),
    Message('note_on', channel=6, note=88, velocity=127, time=0),
    Message('note_on', channel=6, note=100, velocity=127, time=0),
    Message('note_on', channel=6, note=88, velocity=0, time=480),
    Message('note_on', channel=6, note=100, velocity=0, time=0),
    Message('note_on', channel=6, note=86, velocity=127, time=240),
    Message('note_on', channel=6, note=98, velocity=127, time=0),
    Message('note_on', channel=6, note=86, velocity=0, time=480),
    Message('note_on', channel=6, note=98, velocity=0, time=0),
    Message('note_on', channel=6, note=79, velocity=127, time=1920),
    Message('note_on', channel=6, note=91, velocity=127, time=0),
    Message('note_on', channel=6, note=79, velocity=0, time=240),
    Message('note_on', channel=6, note=91, velocity=0, time=0),
    Message('note_on', channel=6, note=82, velocity=127, time=0),
    Message('note_on', channel=6, note=94, velocity=127, time=0),
    Message('note_on', channel=6, note=82, velocity=0, time=240),
    Message('note_on', channel=6, note=94, velocity=0, time=0),
    Message('note_on', channel=6, note=89, velocity=127, time=0),
    Message('note_on', channel=6, note=101, velocity=127, time=0),
    Message('note_on', channel=6, note=89, velocity=0, time=240),
    Message('note_on', channel=6, note=101, velocity=0, time=0),
    Message('note_on', channel=6, note=88, velocity=127, time=0),
    Message('note_on', channel=6, note=100, velocity=127, time=0),
    Message('note_on', channel=6, note=88, velocity=0, time=480),
    Message('note_on', channel=6, note=100, velocity=0, time=0),
    Message('note_on', channel=6, note=86, velocity=127, time=240),
    Message('note_on', channel=6, note=98, velocity=127, time=0),
    Message('note_on', channel=6, note=86, velocity=0, time=480),
    Message('note_on', channel=6, note=98, velocity=0, time=0),
    Message('note_on', channel=6, note=74, velocity=127, time=2640),
    Message('note_on', channel=6, note=86, velocity=127, time=0),
    Message('note_on', channel=6, note=74, velocity=0, time=384),
    Message('note_on', channel=6, note=86, velocity=0, time=0),
    Message('note_on', channel=6, note=76, velocity=127, time=96),
    Message('note_on', channel=6, note=88, velocity=127, time=0),
    Message('note_on', channel=6, note=76, velocity=0, time=192),
    Message('note_on', channel=6, note=88, velocity=0, time=0),
    Message('note_on', channel=6, note=73, velocity=127, time=48),
    Message('note_on', channel=6, note=85, velocity=127, time=0),
    Message('note_on', channel=6, note=73, velocity=0, time=768),
    Message('note_on', channel=6, note=85, velocity=0, time=0),
    MetaMessage('end_of_track', time=15792)]),
  MidiTrack([
    Message('control_change', channel=7, control=0, value=0, time=0),
    Message('control_change', channel=7, control=32, value=0, time=0),
    Message('program_change', channel=7, program=0, time=0),
    Message('control_change', channel=7, control=7, value=100, time=0),
    Message('control_change', channel=7, control=10, value=64, time=0),
    Message('note_on', channel=7, note=29, velocity=127, time=0),
    Message('note_on', channel=7, note=41, velocity=127, time=0),
    Message('note_on', channel=7, note=53, velocity=127, time=0),
    Message('note_on', channel=7, note=65, velocity=127, time=0),
    Message('note_on', channel=7, note=29, velocity=0, time=768),
    Message('note_on', channel=7, note=41, velocity=0, time=0),
    Message('note_on', channel=7, note=53, velocity=0, time=0),
    Message('note_on', channel=7, note=65, velocity=0, time=0),
    Message('note_on', channel=7, note=31, velocity=100, time=1152),
    Message('note_on', channel=7, note=43, velocity=100, time=0),
    Message('note_on', channel=7, note=55, velocity=100, time=0),
    Message('note_on', channel=7, note=31, velocity=0, time=1536),
    Message('note_on', channel=7, note=43, velocity=0, time=0),
    Message('note_on', channel=7, note=55, velocity=0, time=0),
    Message('note_on', channel=7, note=28, velocity=100, time=384),
    Message('note_on', channel=7, note=40, velocity=100, time=0),
    Message('note_on', channel=7, note=52, velocity=100, time=0),
    Message('note_on', channel=7, note=28, velocity=0, time=1536),
    Message('note_on', channel=7, note=40, velocity=0, time=0),
    Message('note_on', channel=7, note=52, velocity=0, time=0),
    Message('note_on', channel=7, note=33, velocity=100, time=384),
    Message('note_on', channel=7, note=45, velocity=100, time=0),
    Message('note_on', channel=7, note=57, velocity=100, time=0),
    Message('note_on', channel=7, note=33, velocity=0, time=1536),
    Message('note_on', channel=7, note=45, velocity=0, time=0),
    Message('note_on', channel=7, note=57, velocity=0, time=0),
    Message('note_on', channel=7, note=29, velocity=127, time=384),
    Message('note_on', channel=7, note=41, velocity=127, time=0),
    Message('note_on', channel=7, note=53, velocity=127, time=0),
    Message('note_on', channel=7, note=65, velocity=127, time=0),
    Message('note_on', channel=7, note=29, velocity=0, time=768),
    Message('note_on', channel=7, note=41, velocity=0, time=0),
    Message('note_on', channel=7, note=53, velocity=0, time=0),
    Message('note_on', channel=7, note=65, velocity=0, time=0),
    Message('note_on', channel=7, note=55, velocity=100, time=1152),
    Message('note_on', channel=7, note=43, velocity=100, time=0),
    Message('note_on', channel=7, note=31, velocity=100, time=0),
    Message('note_on', channel=7, note=55, velocity=0, time=1536),
    Message('note_on', channel=7, note=43, velocity=0, time=0),
    Message('note_on', channel=7, note=31, velocity=0, time=0),
    Message('note_on', channel=7, note=28, velocity=100, time=384),
    Message('note_on', channel=7, note=40, velocity=100, time=0),
    Message('note_on', channel=7, note=52, velocity=100, time=0),
    Message('note_on', channel=7, note=28, velocity=0, time=1536),
    Message('note_on', channel=7, note=40, velocity=0, time=0),
    Message('note_on', channel=7, note=52, velocity=0, time=0),
    Message('note_on', channel=7, note=33, velocity=100, time=384),
    Message('note_on', channel=7, note=57, velocity=100, time=0),
    Message('note_on', channel=7, note=45, velocity=100, time=0),
    Message('note_on', channel=7, note=33, velocity=0, time=1536),
    Message('note_on', channel=7, note=57, velocity=0, time=0),
    Message('note_on', channel=7, note=45, velocity=0, time=0),
    Message('note_on', channel=7, note=76, velocity=127, time=40704),
    Message('note_on', channel=7, note=88, velocity=127, time=0),
    Message('note_on', channel=7, note=76, velocity=0, time=768),
    Message('note_on', channel=7, note=88, velocity=0, time=0),
    Message('note_on', channel=7, note=72, velocity=127, time=192),
    Message('note_on', channel=7, note=84, velocity=127, time=0),
    Message('note_on', channel=7, note=72, velocity=0, time=768),
    Message('note_on', channel=7, note=84, velocity=0, time=0),
    Message('note_on', channel=7, note=74, velocity=127, time=192),
    Message('note_on', channel=7, note=86, velocity=127, time=0),
    Message('note_on', channel=7, note=74, velocity=0, time=768),
    Message('note_on', channel=7, note=86, velocity=0, time=0),
    Message('note_on', channel=7, note=67, velocity=127, time=192),
    Message('note_on', channel=7, note=79, velocity=127, time=0),
    Message('note_on', channel=7, note=91, velocity=127, time=0),
    Message('note_on', channel=7, note=67, velocity=0, time=768),
    Message('note_on', channel=7, note=79, velocity=0, time=0),
    Message('note_on', channel=7, note=91, velocity=0, time=0),
    Message('note_on', channel=7, note=74, velocity=127, time=192),
    Message('note_on', channel=7, note=86, velocity=127, time=0),
    Message('note_on', channel=7, note=74, velocity=0, time=768),
    Message('note_on', channel=7, note=86, velocity=0, time=0),
    Message('note_on', channel=7, note=71, velocity=127, time=192),
    Message('note_on', channel=7, note=83, velocity=127, time=0),
    Message('note_on', channel=7, note=71, velocity=0, time=768),
    Message('note_on', channel=7, note=83, velocity=0, time=0),
    Message('note_on', channel=7, note=72, velocity=127, time=192),
    Message('note_on', channel=7, note=84, velocity=127, time=0),
    Message('note_on', channel=7, note=72, velocity=0, time=768),
    Message('note_on', channel=7, note=84, velocity=0, time=0),
    Message('note_on', channel=7, note=64, velocity=127, time=192),
    Message('note_on', channel=7, note=76, velocity=127, time=0),
    Message('note_on', channel=7, note=88, velocity=127, time=0),
    Message('note_on', channel=7, note=64, velocity=0, time=768),
    Message('note_on', channel=7, note=76, velocity=0, time=0),
    Message('note_on', channel=7, note=88, velocity=0, time=0),
    Message('note_on', channel=7, note=57, velocity=100, time=192),
    Message('note_on', channel=7, note=69, velocity=100, time=0),
    Message('note_on', channel=7, note=81, velocity=100, time=0),
    Message('note_on', channel=7, note=93, velocity=100, time=0),
    Message('note_on', channel=7, note=57, velocity=0, time=768),
    Message('note_on', channel=7, note=69, velocity=0, time=0),
    Message('note_on', channel=7, note=81, velocity=0, time=0),
    Message('note_on', channel=7, note=93, velocity=0, time=0),
    Message('note_on', channel=7, note=50, velocity=127, time=4752),
    Message('note_on', channel=7, note=62, velocity=127, time=0),
    Message('note_on', channel=7, note=74, velocity=127, time=0),
    Message('note_on', channel=7, note=86, velocity=127, time=0),
    Message('note_on', channel=7, note=62, velocity=0, time=240),
    Message('note_on', channel=7, note=74, velocity=0, time=0),
    Message('note_on', channel=7, note=86, velocity=0, time=0),
    Message('note_on', channel=7, note=62, velocity=98, time=0),
    Message('note_on', channel=7, note=74, velocity=98, time=0),
    Message('note_on', channel=7, note=86, velocity=98, time=0),
    Message('note_on', channel=7, note=50, velocity=0, time=192),
    Message('note_on', channel=7, note=62, velocity=0, time=0),
    Message('note_on', channel=7, note=74, velocity=0, time=0),
    Message('note_on', channel=7, note=86, velocity=0, time=0),
    Message('note_on', channel=7, note=50, velocity=127, time=48),
    Message('note_on', channel=7, note=62, velocity=127, time=0),
    Message('note_on', channel=7, note=74, velocity=127, time=0),
    Message('note_on', channel=7, note=86, velocity=127, time=0),
    Message('note_on', channel=7, note=50, velocity=0, time=192),
    Message('note_on', channel=7, note=62, velocity=0, time=0),
    Message('note_on', channel=7, note=74, velocity=0, time=0),
    Message('note_on', channel=7, note=86, velocity=0, time=0),
    Message('note_on', channel=7, note=52, velocity=127, time=48),
    Message('note_on', channel=7, note=64, velocity=127, time=0),
    Message('note_on', channel=7, note=76, velocity=127, time=0),
    Message('note_on', channel=7, note=88, velocity=127, time=0),
    Message('note_on', channel=7, note=52, velocity=0, time=288),
    Message('note_on', channel=7, note=64, velocity=0, time=0),
    Message('note_on', channel=7, note=76, velocity=0, time=0),
    Message('note_on', channel=7, note=88, velocity=0, time=0),
    Message('note_on', channel=7, note=53, velocity=127, time=192),
    Message('note_on', channel=7, note=65, velocity=127, time=0),
    Message('note_on', channel=7, note=77, velocity=127, time=0),
    Message('note_on', channel=7, note=89, velocity=127, time=0),
    Message('note_on', channel=7, note=53, velocity=0, time=288),
    Message('note_on', channel=7, note=65, velocity=0, time=0),
    Message('note_on', channel=7, note=77, velocity=0, time=0),
    Message('note_on', channel=7, note=89, velocity=0, time=0),
    Message('note_on', channel=7, note=55, velocity=127, time=192),
    Message('note_on', channel=7, note=67, velocity=127, time=0),
    Message('note_on', channel=7, note=79, velocity=127, time=0),
    Message('note_on', channel=7, note=91, velocity=127, time=0),
    Message('note_on', channel=7, note=55, velocity=0, time=384),
    Message('note_on', channel=7, note=67, velocity=0, time=0),
    Message('note_on', channel=7, note=79, velocity=0, time=0),
    Message('note_on', channel=7, note=91, velocity=0, time=0),
    Message('note_on', channel=7, note=64, velocity=100, time=96),
    Message('note_on', channel=7, note=76, velocity=100, time=0),
    Message('note_on', channel=7, note=88, velocity=100, time=0),
    Message('note_on', channel=7, note=100, velocity=100, time=0),
    Message('note_on', channel=7, note=64, velocity=0, time=768),
    Message('note_on', channel=7, note=76, velocity=0, time=0),
    Message('note_on', channel=7, note=88, velocity=0, time=0),
    Message('note_on', channel=7, note=100, velocity=0, time=0),
    Message('note_on', channel=7, note=60, velocity=100, time=192),
    Message('note_on', channel=7, note=72, velocity=100, time=0),
    Message('note_on', channel=7, note=84, velocity=100, time=0),
    Message('note_on', channel=7, note=96, velocity=100, time=0),
    Message('note_on', channel=7, note=60, velocity=0, time=768),
    Message('note_on', channel=7, note=72, velocity=0, time=0),
    Message('note_on', channel=7, note=84, velocity=0, time=0),
    Message('note_on', channel=7, note=96, velocity=0, time=0),
    Message('note_on', channel=7, note=62, velocity=100, time=192),
    Message('note_on', channel=7, note=74, velocity=100, time=0),
    Message('note_on', channel=7, note=86, velocity=100, time=0),
    Message('note_on', channel=7, note=98, velocity=100, time=0),
    Message('note_on', channel=7, note=62, velocity=0, time=768),
    Message('note_on', channel=7, note=74, velocity=0, time=0),
    Message('note_on', channel=7, note=86, velocity=0, time=0),
    Message('note_on', channel=7, note=98, velocity=0, time=0),
    Message('note_on', channel=7, note=55, velocity=100, time=192),
    Message('note_on', channel=7, note=67, velocity=100, time=0),
    Message('note_on', channel=7, note=79, velocity=100, time=0),
    Message('note_on', channel=7, note=91, velocity=100, time=0),
    Message('note_on', channel=7, note=103, velocity=100, time=0),
    Message('note_on', channel=7, note=55, velocity=0, time=768),
    Message('note_on', channel=7, note=67, velocity=0, time=0),
    Message('note_on', channel=7, note=79, velocity=0, time=0),
    Message('note_on', channel=7, note=91, velocity=0, time=0),
    Message('note_on', channel=7, note=103, velocity=0, time=0),
    Message('note_on', channel=7, note=56, velocity=100, time=192),
    Message('note_on', channel=7, note=68, velocity=100, time=0),
    Message('note_on', channel=7, note=80, velocity=100, time=0),
    Message('note_on', channel=7, note=92, velocity=100, time=0),
    Message('note_on', channel=7, note=56, velocity=0, time=768),
    Message('note_on', channel=7, note=68, velocity=0, time=0),
    Message('note_on', channel=7, note=80, velocity=0, time=0),
    Message('note_on', channel=7, note=92, velocity=0, time=0),
    Message('note_on', channel=7, note=59, velocity=100, time=192),
    Message('note_on', channel=7, note=71, velocity=100, time=0),
    Message('note_on', channel=7, note=83, velocity=100, time=0),
    Message('note_on', channel=7, note=95, velocity=100, time=0),
    Message('note_on', channel=7, note=59, velocity=0, time=768),
    Message('note_on', channel=7, note=71, velocity=0, time=0),
    Message('note_on', channel=7, note=83, velocity=0, time=0),
    Message('note_on', channel=7, note=95, velocity=0, time=0),
    Message('note_on', channel=7, note=57, velocity=100, time=192),
    Message('note_on', channel=7, note=69, velocity=100, time=0),
    Message('note_on', channel=7, note=81, velocity=100, time=0),
    Message('note_on', channel=7, note=93, velocity=100, time=0),
    Message('note_on', channel=7, note=57, velocity=0, time=768),
    Message('note_on', channel=7, note=69, velocity=0, time=0),
    Message('note_on', channel=7, note=81, velocity=0, time=0),
    Message('note_on', channel=7, note=93, velocity=0, time=0),
    Message('note_on', channel=7, note=64, velocity=100, time=192),
    Message('note_on', channel=7, note=76, velocity=100, time=0),
    Message('note_on', channel=7, note=88, velocity=100, time=0),
    Message('note_on', channel=7, note=100, velocity=100, time=0),
    Message('note_on', channel=7, note=64, velocity=0, time=768),
    Message('note_on', channel=7, note=76, velocity=0, time=0),
    Message('note_on', channel=7, note=88, velocity=0, time=0),
    Message('note_on', channel=7, note=100, velocity=0, time=0),
    Message('note_on', channel=7, note=29, velocity=127, time=9792),
    Message('note_on', channel=7, note=41, velocity=127, time=0),
    Message('note_on', channel=7, note=53, velocity=127, time=0),
    Message('note_on', channel=7, note=65, velocity=127, time=0),
    Message('note_on', channel=7, note=29, velocity=0, time=768),
    Message('note_on', channel=7, note=41, velocity=0, time=0),
    Message('note_on', channel=7, note=53, velocity=0, time=0),
    Message('note_on', channel=7, note=65, velocity=0, time=0),
    Message('note_on', channel=7, note=31, velocity=100, time=1152),
    Message('note_on', channel=7, note=43, velocity=100, time=0),
    Message('note_on', channel=7, note=55, velocity=100, time=0),
    Message('note_on', channel=7, note=31, velocity=0, time=1536),
    Message('note_on', channel=7, note=43, velocity=0, time=0),
    Message('note_on', channel=7, note=55, velocity=0, time=0),
    Message('note_on', channel=7, note=28, velocity=100, time=384),
    Message('note_on', channel=7, note=40, velocity=100, time=0),
    Message('note_on', channel=7, note=52, velocity=100, time=0),
    Message('note_on', channel=7, note=28, velocity=0, time=1536),
    Message('note_on', channel=7, note=40, velocity=0, time=0),
    Message('note_on', channel=7, note=52, velocity=0, time=0),
    Message('note_on', channel=7, note=33, velocity=100, time=384),
    Message('note_on', channel=7, note=45, velocity=100, time=0),
    Message('note_on', channel=7, note=57, velocity=100, time=0),
    Message('note_on', channel=7, note=33, velocity=0, time=1536),
    Message('note_on', channel=7, note=45, velocity=0, time=0),
    Message('note_on', channel=7, note=57, velocity=0, time=0),
    Message('note_on', channel=7, note=29, velocity=127, time=384),
    Message('note_on', channel=7, note=41, velocity=127, time=0),
    Message('note_on', channel=7, note=53, velocity=127, time=0),
    Message('note_on', channel=7, note=65, velocity=127, time=0),
    Message('note_on', channel=7, note=29, velocity=0, time=768),
    Message('note_on', channel=7, note=41, velocity=0, time=0),
    Message('note_on', channel=7, note=53, velocity=0, time=0),
    Message('note_on', channel=7, note=65, velocity=0, time=0),
    Message('note_on', channel=7, note=55, velocity=100, time=1152),
    Message('note_on', channel=7, note=43, velocity=100, time=0),
    Message('note_on', channel=7, note=31, velocity=100, time=0),
    Message('note_on', channel=7, note=55, velocity=0, time=1536),
    Message('note_on', channel=7, note=43, velocity=0, time=0),
    Message('note_on', channel=7, note=31, velocity=0, time=0),
    Message('note_on', channel=7, note=28, velocity=100, time=384),
    Message('note_on', channel=7, note=40, velocity=100, time=0),
    Message('note_on', channel=7, note=52, velocity=100, time=0),
    Message('note_on', channel=7, note=28, velocity=0, time=1536),
    Message('note_on', channel=7, note=40, velocity=0, time=0),
    Message('note_on', channel=7, note=52, velocity=0, time=0),
    Message('note_on', channel=7, note=33, velocity=100, time=384),
    Message('note_on', channel=7, note=57, velocity=100, time=0),
    Message('note_on', channel=7, note=45, velocity=100, time=0),
    Message('note_on', channel=7, note=33, velocity=0, time=1536),
    Message('note_on', channel=7, note=57, velocity=0, time=0),
    Message('note_on', channel=7, note=45, velocity=0, time=0),
    MetaMessage('end_of_track', time=25344)]),
  MidiTrack([
    Message('control_change', channel=8, control=0, value=0, time=0),
    Message('control_change', channel=8, control=32, value=0, time=0),
    Message('program_change', channel=8, program=30, time=0),
    Message('control_change', channel=8, control=7, value=100, time=0),
    Message('control_change', channel=8, control=10, value=64, time=0),
    Message('note_on', channel=8, note=38, velocity=100, time=0),
    Message('note_on', channel=8, note=41, velocity=100, time=0),
    Message('note_on', channel=8, note=50, velocity=100, time=0),
    Message('note_on', channel=8, note=53, velocity=100, time=0),
    Message('note_on', channel=8, note=38, velocity=0, time=1920),
    Message('note_on', channel=8, note=41, velocity=0, time=0),
    Message('note_on', channel=8, note=50, velocity=0, time=0),
    Message('note_on', channel=8, note=53, velocity=0, time=0),
    Message('note_on', channel=8, note=40, velocity=100, time=0),
    Message('note_on', channel=8, note=43, velocity=100, time=0),
    Message('note_on', channel=8, note=55, velocity=100, time=0),
    Message('note_on', channel=8, note=40, velocity=0, time=1920),
    Message('note_on', channel=8, note=43, velocity=0, time=0),
    Message('note_on', channel=8, note=55, velocity=0, time=0),
    Message('note_on', channel=8, note=36, velocity=100, time=0),
    Message('note_on', channel=8, note=40, velocity=100, time=0),
    Message('note_on', channel=8, note=52, velocity=100, time=0),
    Message('note_on', channel=8, note=36, velocity=0, time=1920),
    Message('note_on', channel=8, note=40, velocity=0, time=0),
    Message('note_on', channel=8, note=52, velocity=0, time=0),
    Message('note_on', channel=8, note=41, velocity=100, time=0),
    Message('note_on', channel=8, note=45, velocity=100, time=0),
    Message('note_on', channel=8, note=57, velocity=100, time=0),
    Message('note_on', channel=8, note=41, velocity=0, time=1920),
    Message('note_on', channel=8, note=45, velocity=0, time=0),
    Message('note_on', channel=8, note=57, velocity=0, time=0),
    Message('note_on', channel=8, note=38, velocity=100, time=0),
    Message('note_on', channel=8, note=41, velocity=100, time=0),
    Message('note_on', channel=8, note=50, velocity=100, time=0),
    Message('note_on', channel=8, note=53, velocity=100, time=0),
    Message('note_on', channel=8, note=38, velocity=0, time=1920),
    Message('note_on', channel=8, note=41, velocity=0, time=0),
    Message('note_on', channel=8, note=50, velocity=0, time=0),
    Message('note_on', channel=8, note=53, velocity=0, time=0),
    Message('note_on', channel=8, note=40, velocity=100, time=0),
    Message('note_on', channel=8, note=43, velocity=100, time=0),
    Message('note_on', channel=8, note=55, velocity=100, time=0),
    Message('note_on', channel=8, note=40, velocity=0, time=1920),
    Message('note_on', channel=8, note=43, velocity=0, time=0),
    Message('note_on', channel=8, note=55, velocity=0, time=0),
    Message('note_on', channel=8, note=36, velocity=100, time=0),
    Message('note_on', channel=8, note=40, velocity=100, time=0),
    Message('note_on', channel=8, note=52, velocity=100, time=0),
    Message('note_on', channel=8, note=36, velocity=0, time=1920),
    Message('note_on', channel=8, note=40, velocity=0, time=0),
    Message('note_on', channel=8, note=52, velocity=0, time=0),
    Message('note_on', channel=8, note=45, velocity=100, time=0),
    Message('note_on', channel=8, note=48, velocity=100, time=0),
    Message('note_on', channel=8, note=57, velocity=100, time=0),
    Message('note_on', channel=8, note=45, velocity=0, time=1920),
    Message('note_on', channel=8, note=48, velocity=0, time=0),
    Message('note_on', channel=8, note=57, velocity=0, time=0),
    Message('note_on', channel=8, note=41, velocity=100, time=7680),
    Message('note_on', channel=8, note=41, velocity=0, time=192),
    Message('note_on', channel=8, note=41, velocity=100, time=48),
    Message('note_on', channel=8, note=41, velocity=0, time=192),
    Message('note_on', channel=8, note=41, velocity=100, time=48),
    Message('note_on', channel=8, note=41, velocity=0, time=192),
    Message('note_on', channel=8, note=41, velocity=100, time=48),
    Message('note_on', channel=8, note=41, velocity=0, time=192),
    Message('note_on', channel=8, note=43, velocity=100, time=288),
    Message('note_on', channel=8, note=43, velocity=0, time=192),
    Message('note_on', channel=8, note=43, velocity=100, time=48),
    Message('note_on', channel=8, note=43, velocity=0, time=192),
    Message('note_on', channel=8, note=45, velocity=100, time=48),
    Message('note_on', channel=8, note=45, velocity=0, time=432),
    Message('note_on', channel=8, note=45, velocity=100, time=48),
    Message('note_on', channel=8, note=45, velocity=0, time=192),
    Message('note_on', channel=8, note=45, velocity=100, time=48),
    Message('note_on', channel=8, note=45, velocity=0, time=192),
    Message('note_on', channel=8, note=45, velocity=100, time=48),
    Message('note_on', channel=8, note=45, velocity=0, time=192),
    Message('note_on', channel=8, note=43, velocity=100, time=48),
    Message('note_on', channel=8, note=43, velocity=0, time=192),
    Message('note_on', channel=8, note=43, velocity=100, time=48),
    Message('note_on', channel=8, note=43, velocity=0, time=192),
    Message('note_on', channel=8, note=43, velocity=100, time=48),
    Message('note_on', channel=8, note=43, velocity=0, time=192),
    Message('note_on', channel=8, note=43, velocity=100, time=48),
    Message('note_on', channel=8, note=43, velocity=0, time=192),
    Message('note_on', channel=8, note=41, velocity=100, time=48),
    Message('note_on', channel=8, note=41, velocity=0, time=192),
    Message('note_on', channel=8, note=41, velocity=100, time=48),
    Message('note_on', channel=8, note=41, velocity=0, time=192),
    Message('note_on', channel=8, note=41, velocity=100, time=48),
    Message('note_on', channel=8, note=41, velocity=0, time=192),
    Message('note_on', channel=8, note=41, velocity=100, time=48),
    Message('note_on', channel=8, note=41, velocity=0, time=192),
    Message('note_on', channel=8, note=41, velocity=100, time=48),
    Message('note_on', channel=8, note=41, velocity=0, time=192),
    Message('note_on', channel=8, note=41, velocity=100, time=48),
    Message('note_on', channel=8, note=41, velocity=0, time=192),
    Message('note_on', channel=8, note=41, velocity=100, time=48),
    Message('note_on', channel=8, note=41, velocity=0, time=192),
    Message('note_on', channel=8, note=41, velocity=100, time=48),
    Message('note_on', channel=8, note=41, velocity=0, time=192),
    Message('note_on', channel=8, note=48, velocity=100, time=48),
    Message('note_on', channel=8, note=48, velocity=0, time=192),
    Message('note_on', channel=8, note=48, velocity=100, time=48),
    Message('note_on', channel=8, note=48, velocity=0, time=192),
    Message('note_on', channel=8, note=48, velocity=100, time=48),
    Message('note_on', channel=8, note=48, velocity=0, time=192),
    Message('note_on', channel=8, note=48, velocity=100, time=48),
    Message('note_on', channel=8, note=48, velocity=0, time=192),
    Message('note_on', channel=8, note=48, velocity=100, time=48),
    Message('note_on', channel=8, note=48, velocity=0, time=192),
    Message('note_on', channel=8, note=48, velocity=100, time=48),
    Message('note_on', channel=8, note=48, velocity=0, time=192),
    Message('note_on', channel=8, note=48, velocity=100, time=48),
    Message('note_on', channel=8, note=48, velocity=0, time=192),
    Message('note_on', channel=8, note=48, velocity=100, time=48),
    Message('note_on', channel=8, note=48, velocity=0, time=192),
    Message('note_on', channel=8, note=41, velocity=100, time=48),
    Message('note_on', channel=8, note=41, velocity=0, time=192),
    Message('note_on', channel=8, note=41, velocity=100, time=48),
    Message('note_on', channel=8, note=41, velocity=0, time=192),
    Message('note_on', channel=8, note=41, velocity=100, time=48),
    Message('note_on', channel=8, note=41, velocity=0, time=192),
    Message('note_on', channel=8, note=41, velocity=100, time=48),
    Message('note_on', channel=8, note=41, velocity=0, time=192),
    Message('note_on', channel=8, note=43, velocity=100, time=288),
    Message('note_on', channel=8, note=43, velocity=0, time=192),
    Message('note_on', channel=8, note=43, velocity=100, time=48),
    Message('note_on', channel=8, note=43, velocity=0, time=192),
    Message('note_on', channel=8, note=45, velocity=100, time=48),
    Message('note_on', channel=8, note=45, velocity=0, time=432),
    Message('note_on', channel=8, note=45, velocity=100, time=48),
    Message('note_on', channel=8, note=45, velocity=0, time=192),
    Message('note_on', channel=8, note=45, velocity=100, time=48),
    Message('note_on', channel=8, note=45, velocity=0, time=192),
    Message('note_on', channel=8, note=45, velocity=100, time=48),
    Message('note_on', channel=8, note=45, velocity=0, time=192),
    Message('note_on', channel=8, note=43, velocity=100, time=48),
    Message('note_on', channel=8, note=43, velocity=0, time=192),
    Message('note_on', channel=8, note=43, velocity=100, time=48),
    Message('note_on', channel=8, note=43, velocity=0, time=192),
    Message('note_on', channel=8, note=43, velocity=100, time=48),
    Message('note_on', channel=8, note=43, velocity=0, time=192),
    Message('note_on', channel=8, note=43, velocity=100, time=48),
    Message('note_on', channel=8, note=43, velocity=0, time=192),
    Message('note_on', channel=8, note=41, velocity=100, time=48),
    Message('note_on', channel=8, note=41, velocity=0, time=192),
    Message('note_on', channel=8, note=41, velocity=100, time=48),
    Message('note_on', channel=8, note=41, velocity=0, time=192),
    Message('note_on', channel=8, note=41, velocity=100, time=48),
    Message('note_on', channel=8, note=41, velocity=0, time=192),
    Message('note_on', channel=8, note=41, velocity=100, time=48),
    Message('note_on', channel=8, note=41, velocity=0, time=192),
    Message('note_on', channel=8, note=41, velocity=100, time=48),
    Message('note_on', channel=8, note=41, velocity=0, time=192),
    Message('note_on', channel=8, note=41, velocity=100, time=48),
    Message('note_on', channel=8, note=41, velocity=0, time=192),
    Message('note_on', channel=8, note=41, velocity=100, time=48),
    Message('note_on', channel=8, note=41, velocity=0, time=192),
    Message('note_on', channel=8, note=48, velocity=100, time=48),
    Message('note_on', channel=8, note=48, velocity=0, time=192),
    Message('note_on', channel=8, note=48, velocity=100, time=48),
    Message('note_on', channel=8, note=48, velocity=0, time=192),
    Message('note_on', channel=8, note=48, velocity=100, time=48),
    Message('note_on', channel=8, note=48, velocity=0, time=192),
    Message('note_on', channel=8, note=48, velocity=100, time=48),
    Message('note_on', channel=8, note=48, velocity=0, time=192),
    Message('note_on', channel=8, note=48, velocity=100, time=48),
    Message('note_on', channel=8, note=48, velocity=0, time=192),
    Message('note_on', channel=8, note=50, velocity=100, time=48),
    Message('note_on', channel=8, note=50, velocity=0, time=384),
    Message('note_on', channel=8, note=43, velocity=100, time=96),
    Message('note_on', channel=8, note=43, velocity=0, time=384),
    Message('note_on', channel=8, note=44, velocity=127, time=46176),
    Message('note_on', channel=8, note=44, velocity=0, time=48),
    Message('note_on', channel=8, note=44, velocity=127, time=192),
    Message('note_on', channel=8, note=44, velocity=0, time=48),
    Message('note_on', channel=8, note=44, velocity=127, time=192),
    Message('note_on', channel=8, note=44, velocity=0, time=48),
    Message('note_on', channel=8, note=44, velocity=127, time=192),
    Message('note_on', channel=8, note=44, velocity=0, time=48),
    Message('note_on', channel=8, note=44, velocity=127, time=192),
    Message('note_on', channel=8, note=44, velocity=0, time=48),
    Message('note_on', channel=8, note=44, velocity=127, time=192),
    Message('note_on', channel=8, note=44, velocity=0, time=48),
    Message('note_on', channel=8, note=44, velocity=127, time=192),
    Message('note_on', channel=8, note=44, velocity=0, time=48),
    Message('note_on', channel=8, note=44, velocity=127, time=192),
    Message('note_on', channel=8, note=44, velocity=0, time=48),
    Message('note_on', channel=8, note=46, velocity=127, time=192),
    Message('note_on', channel=8, note=46, velocity=0, time=48),
    Message('note_on', channel=8, note=46, velocity=127, time=192),
    Message('note_on', channel=8, note=46, velocity=0, time=48),
    Message('note_on', channel=8, note=46, velocity=127, time=192),
    Message('note_on', channel=8, note=46, velocity=0, time=48),
    Message('note_on', channel=8, note=46, velocity=127, time=192),
    Message('note_on', channel=8, note=46, velocity=0, time=48),
    Message('note_on', channel=8, note=46, velocity=127, time=192),
    Message('note_on', channel=8, note=46, velocity=0, time=48),
    Message('note_on', channel=8, note=46, velocity=127, time=192),
    Message('note_on', channel=8, note=46, velocity=0, time=48),
    Message('note_on', channel=8, note=46, velocity=127, time=192),
    Message('note_on', channel=8, note=46, velocity=0, time=48),
    Message('note_on', channel=8, note=46, velocity=127, time=192),
    Message('note_on', channel=8, note=46, velocity=0, time=48),
    Message('note_on', channel=8, note=38, velocity=100, time=192),
    Message('note_on', channel=8, note=41, velocity=100, time=0),
    Message('note_on', channel=8, note=50, velocity=100, time=0),
    Message('note_on', channel=8, note=53, velocity=100, time=0),
    Message('note_on', channel=8, note=38, velocity=0, time=1920),
    Message('note_on', channel=8, note=41, velocity=0, time=0),
    Message('note_on', channel=8, note=50, velocity=0, time=0),
    Message('note_on', channel=8, note=53, velocity=0, time=0),
    Message('note_on', channel=8, note=40, velocity=100, time=0),
    Message('note_on', channel=8, note=43, velocity=100, time=0),
    Message('note_on', channel=8, note=55, velocity=100, time=0),
    Message('note_on', channel=8, note=40, velocity=0, time=1920),
    Message('note_on', channel=8, note=43, velocity=0, time=0),
    Message('note_on', channel=8, note=55, velocity=0, time=0),
    Message('note_on', channel=8, note=36, velocity=100, time=0),
    Message('note_on', channel=8, note=40, velocity=100, time=0),
    Message('note_on', channel=8, note=52, velocity=100, time=0),
    Message('note_on', channel=8, note=36, velocity=0, time=1920),
    Message('note_on', channel=8, note=40, velocity=0, time=0),
    Message('note_on', channel=8, note=52, velocity=0, time=0),
    Message('note_on', channel=8, note=41, velocity=100, time=0),
    Message('note_on', channel=8, note=45, velocity=100, time=0),
    Message('note_on', channel=8, note=57, velocity=100, time=0),
    Message('note_on', channel=8, note=41, velocity=0, time=1920),
    Message('note_on', channel=8, note=45, velocity=0, time=0),
    Message('note_on', channel=8, note=57, velocity=0, time=0),
    Message('note_on', channel=8, note=38, velocity=100, time=0),
    Message('note_on', channel=8, note=41, velocity=100, time=0),
    Message('note_on', channel=8, note=50, velocity=100, time=0),
    Message('note_on', channel=8, note=53, velocity=100, time=0),
    Message('note_on', channel=8, note=38, velocity=0, time=1920),
    Message('note_on', channel=8, note=41, velocity=0, time=0),
    Message('note_on', channel=8, note=50, velocity=0, time=0),
    Message('note_on', channel=8, note=53, velocity=0, time=0),
    Message('note_on', channel=8, note=40, velocity=100, time=0),
    Message('note_on', channel=8, note=43, velocity=100, time=0),
    Message('note_on', channel=8, note=55, velocity=100, time=0),
    Message('note_on', channel=8, note=40, velocity=0, time=1920),
    Message('note_on', channel=8, note=43, velocity=0, time=0),
    Message('note_on', channel=8, note=55, velocity=0, time=0),
    Message('note_on', channel=8, note=36, velocity=100, time=0),
    Message('note_on', channel=8, note=40, velocity=100, time=0),
    Message('note_on', channel=8, note=52, velocity=100, time=0),
    Message('note_on', channel=8, note=36, velocity=0, time=1920),
    Message('note_on', channel=8, note=40, velocity=0, time=0),
    Message('note_on', channel=8, note=52, velocity=0, time=0),
    Message('note_on', channel=8, note=45, velocity=100, time=0),
    Message('note_on', channel=8, note=48, velocity=100, time=0),
    Message('note_on', channel=8, note=57, velocity=100, time=0),
    Message('note_on', channel=8, note=45, velocity=0, time=1920),
    Message('note_on', channel=8, note=48, velocity=0, time=0),
    Message('note_on', channel=8, note=57, velocity=0, time=0),
    MetaMessage('end_of_track', time=24960)]),
  MidiTrack([
    Message('control_change', channel=9, control=0, value=0, time=0),
    Message('control_change', channel=9, control=32, value=0, time=0),
    Message('program_change', channel=9, program=0, time=0),
    Message('control_change', channel=9, control=7, value=100, time=0),
    Message('control_change', channel=9, control=10, value=64, time=0),
    Message('note_on', channel=9, note=41, velocity=100, time=0),
    Message('note_on', channel=9, note=41, velocity=0, time=384),
    Message('note_on', channel=9, note=41, velocity=100, time=96),
    Message('note_on', channel=9, note=41, velocity=0, time=384),
    Message('note_on', channel=9, note=41, velocity=100, time=96),
    Message('note_on', channel=9, note=41, velocity=0, time=384),
    Message('note_on', channel=9, note=34, velocity=100, time=96),
    Message('note_on', channel=9, note=40, velocity=100, time=0),
    Message('note_on', channel=9, note=41, velocity=100, time=0),
    Message('note_on', channel=9, note=34, velocity=0, time=384),
    Message('note_on', channel=9, note=40, velocity=0, time=0),
    Message('note_on', channel=9, note=41, velocity=0, time=0),
    Message('note_on', channel=9, note=41, velocity=100, time=96),
    Message('note_on', channel=9, note=41, velocity=0, time=384),
    Message('note_on', channel=9, note=41, velocity=100, time=96),
    Message('note_on', channel=9, note=41, velocity=0, time=384),
    Message('note_on', channel=9, note=41, velocity=100, time=96),
    Message('note_on', channel=9, note=41, velocity=0, time=384),
    Message('note_on', channel=9, note=40, velocity=100, time=96),
    Message('note_on', channel=9, note=34, velocity=100, time=0),
    Message('note_on', channel=9, note=41, velocity=100, time=0),
    Message('note_on', channel=9, note=40, velocity=0, time=384),
    Message('note_on', channel=9, note=34, velocity=0, time=0),
    Message('note_on', channel=9, note=41, velocity=0, time=0),
    Message('note_on', channel=9, note=41, velocity=100, time=96),
    Message('note_on', channel=9, note=41, velocity=0, time=384),
    Message('note_on', channel=9, note=41, velocity=100, time=96),
    Message('note_on', channel=9, note=41, velocity=0, time=384),
    Message('note_on', channel=9, note=41, velocity=100, time=96),
    Message('note_on', channel=9, note=41, velocity=0, time=384),
    Message('note_on', channel=9, note=41, velocity=100, time=96),
    Message('note_on', channel=9, note=40, velocity=100, time=0),
    Message('note_on', channel=9, note=34, velocity=100, time=0),
    Message('note_on', channel=9, note=41, velocity=0, time=384),
    Message('note_on', channel=9, note=40, velocity=0, time=0),
    Message('note_on', channel=9, note=34, velocity=0, time=0),
    Message('note_on', channel=9, note=41, velocity=100, time=96),
    Message('note_on', channel=9, note=41, velocity=0, time=384),
    Message('note_on', channel=9, note=41, velocity=100, time=96),
    Message('note_on', channel=9, note=41, velocity=0, time=384),
    Message('note_on', channel=9, note=41, velocity=100, time=96),
    Message('note_on', channel=9, note=41, velocity=0, time=384),
    Message('note_on', channel=9, note=41, velocity=100, time=96),
    Message('note_on', channel=9, note=34, velocity=100, time=0),
    Message('note_on', channel=9, note=40, velocity=100, time=0),
    Message('note_on', channel=9, note=41, velocity=0, time=384),
    Message('note_on', channel=9, note=34, velocity=0, time=0),
    Message('note_on', channel=9, note=40, velocity=0, time=0),
    Message('note_on', channel=9, note=41, velocity=100, time=96),
    Message('note_on', channel=9, note=41, velocity=0, time=384),
    Message('note_on', channel=9, note=41, velocity=100, time=96),
    Message('note_on', channel=9, note=41, velocity=0, time=384),
    Message('note_on', channel=9, note=41, velocity=100, time=96),
    Message('note_on', channel=9, note=41, velocity=0, time=384),
    Message('note_on', channel=9, note=34, velocity=100, time=96),
    Message('note_on', channel=9, note=40, velocity=100, time=0),
    Message('note_on', channel=9, note=41, velocity=100, time=0),
    Message('note_on', channel=9, note=34, velocity=0, time=384),
    Message('note_on', channel=9, note=40, velocity=0, time=0),
    Message('note_on', channel=9, note=41, velocity=0, time=0),
    Message('note_on', channel=9, note=41, velocity=100, time=96),
    Message('note_on', channel=9, note=41, velocity=0, time=384),
    Message('note_on', channel=9, note=41, velocity=100, time=96),
    Message('note_on', channel=9, note=41, velocity=0, time=384),
    Message('note_on', channel=9, note=41, velocity=100, time=96),
    Message('note_on', channel=9, note=41, velocity=0, time=384),
    Message('note_on', channel=9, note=40, velocity=100, time=96),
    Message('note_on', channel=9, note=34, velocity=100, time=0),
    Message('note_on', channel=9, note=41, velocity=100, time=0),
    Message('note_on', channel=9, note=40, velocity=0, time=384),
    Message('note_on', channel=9, note=34, velocity=0, time=0),
    Message('note_on', channel=9, note=41, velocity=0, time=0),
    Message('note_on', channel=9, note=41, velocity=100, time=96),
    Message('note_on', channel=9, note=41, velocity=0, time=384),
    Message('note_on', channel=9, note=41, velocity=100, time=96),
    Message('note_on', channel=9, note=41, velocity=0, time=384),
    Message('note_on', channel=9, note=41, velocity=100, time=96),
    Message('note_on', channel=9, note=41, velocity=0, time=384),
    Message('note_on', channel=9, note=41, velocity=100, time=96),
    Message('note_on', channel=9, note=40, velocity=100, time=0),
    Message('note_on', channel=9, note=34, velocity=100, time=0),
    Message('note_on', channel=9, note=41, velocity=0, time=384),
    Message('note_on', channel=9, note=40, velocity=0, time=0),
    Message('note_on', channel=9, note=34, velocity=0, time=0),
    Message('note_on', channel=9, note=41, velocity=100, time=96),
    Message('note_on', channel=9, note=41, velocity=0, time=384),
    Message('note_on', channel=9, note=41, velocity=100, time=96),
    Message('note_on', channel=9, note=41, velocity=0, time=384),
    Message('note_on', channel=9, note=41, velocity=100, time=96),
    Message('note_on', channel=9, note=41, velocity=0, time=384),
    Message('note_on', channel=9, note=34, velocity=100, time=96),
    Message('note_on', channel=9, note=40, velocity=100, time=0),
    Message('note_on', channel=9, note=41, velocity=100, time=0),
    Message('note_on', channel=9, note=34, velocity=0, time=192),
    Message('note_on', channel=9, note=40, velocity=0, time=0),
    Message('note_on', channel=9, note=41, velocity=0, time=0),
    Message('note_on', channel=9, note=34, velocity=100, time=48),
    Message('note_on', channel=9, note=40, velocity=100, time=0),
    Message('note_on', channel=9, note=41, velocity=100, time=0),
    Message('note_on', channel=9, note=34, velocity=0, time=96),
    Message('note_on', channel=9, note=40, velocity=0, time=0),
    Message('note_on', channel=9, note=41, velocity=0, time=0),
    Message('note_on', channel=9, note=34, velocity=100, time=24),
    Message('note_on', channel=9, note=40, velocity=100, time=0),
    Message('note_on', channel=9, note=41, velocity=100, time=0),
    Message('note_on', channel=9, note=34, velocity=0, time=96),
    Message('note_on', channel=9, note=40, velocity=0, time=0),
    Message('note_on', channel=9, note=41, velocity=0, time=0),
    Message('note_on', channel=9, note=41, velocity=100, time=24),
    Message('note_on', channel=9, note=41, velocity=0, time=384),
    Message('note_on', channel=9, note=34, velocity=100, time=96),
    Message('note_on', channel=9, note=40, velocity=100, time=0),
    Message('note_on', channel=9, note=41, velocity=100, time=0),
    Message('note_on', channel=9, note=34, velocity=0, time=384),
    Message('note_on', channel=9, note=40, velocity=0, time=0),
    Message('note_on', channel=9, note=41, velocity=0, time=0),
    Message('note_on', channel=9, note=41, velocity=100, time=96),
    Message('note_on', channel=9, note=41, velocity=0, time=384),
    Message('note_on', channel=9, note=40, velocity=100, time=96),
    Message('note_on', channel=9, note=41, velocity=100, time=0),
    Message('note_on', channel=9, note=34, velocity=100, time=0),
    Message('note_on', channel=9, note=40, velocity=0, time=384),
    Message('note_on', channel=9, note=41, velocity=0, time=0),
    Message('note_on', channel=9, note=34, velocity=0, time=0),
    Message('note_on', channel=9, note=41, velocity=100, time=96),
    Message('note_on', channel=9, note=41, velocity=0, time=384),
    Message('note_on', channel=9, note=34, velocity=100, time=96),
    Message('note_on', channel=9, note=41, velocity=100, time=0),
    Message('note_on', channel=9, note=40, velocity=100, time=0),
    Message('note_on', channel=9, note=34, velocity=0, time=384),
    Message('note_on', channel=9, note=41, velocity=0, time=0),
    Message('note_on', channel=9, note=40, velocity=0, time=0),
    Message('note_on', channel=9, note=41, velocity=100, time=96),
    Message('note_on', channel=9, note=41, velocity=0, time=384),
    Message('note_on', channel=9, note=41, velocity=100, time=96),
    Message('note_on', channel=9, note=34, velocity=100, time=0),
    Message('note_on', channel=9, note=40, velocity=100, time=0),
    Message('note_on', channel=9, note=41, velocity=0, time=384),
    Message('note_on', channel=9, note=34, velocity=0, time=0),
    Message('note_on', channel=9, note=40, velocity=0, time=0),
    Message('note_on', channel=9, note=41, velocity=100, time=96),
    Message('note_on', channel=9, note=41, velocity=0, time=384),
    Message('note_on', channel=9, note=40, velocity=100, time=96),
    Message('note_on', channel=9, note=41, velocity=100, time=0),
    Message('note_on', channel=9, note=34, velocity=100, time=0),
    Message('note_on', channel=9, note=40, velocity=0, time=384),
    Message('note_on', channel=9, note=41, velocity=0, time=0),
    Message('note_on', channel=9, note=34, velocity=0, time=0),
    Message('note_on', channel=9, note=41, velocity=100, time=96),
    Message('note_on', channel=9, note=41, velocity=0, time=384),
    Message('note_on', channel=9, note=40, velocity=100, time=96),
    Message('note_on', channel=9, note=41, velocity=100, time=0),
    Message('note_on', channel=9, note=34, velocity=100, time=0),
    Message('note_on', channel=9, note=40, velocity=0, time=384),
    Message('note_on', channel=9, note=41, velocity=0, time=0),
    Message('note_on', channel=9, note=34, velocity=0, time=0),
    Message('note_on', channel=9, note=41, velocity=100, time=96),
    Message('note_on', channel=9, note=41, velocity=0, time=384),
    Message('note_on', channel=9, note=34, velocity=100, time=96),
    Message('note_on', channel=9, note=40, velocity=100, time=0),
    Message('note_on', channel=9, note=41, velocity=100, time=0),
    Message('note_on', channel=9, note=34, velocity=0, time=384),
    Message('note_on', channel=9, note=40, velocity=0, time=0),
    Message('note_on', channel=9, note=41, velocity=0, time=0),
    Message('note_on', channel=9, note=41, velocity=100, time=96),
    Message('note_on', channel=9, note=41, velocity=0, time=384),
    Message('note_on', channel=9, note=34, velocity=100, time=96),
    Message('note_on', channel=9, note=40, velocity=100, time=0),
    Message('note_on', channel=9, note=41, velocity=100, time=0),
    Message('note_on', channel=9, note=34, velocity=0, time=96),
    Message('note_on', channel=9, note=40, velocity=0, time=0),
    Message('note_on', channel=9, note=41, velocity=0, time=0),
    Message('note_on', channel=9, note=34, velocity=100, time=24),
    Message('note_on', channel=9, note=40, velocity=100, time=0),
    Message('note_on', channel=9, note=41, velocity=100, time=0),
    Message('note_on', channel=9, note=34, velocity=0, time=96),
    Message('note_on', channel=9, note=40, velocity=0, time=0),
    Message('note_on', channel=9, note=41, velocity=0, time=0),
    Message('note_on', channel=9, note=38, velocity=100, time=24),
    Message('note_on', channel=9, note=40, velocity=100, time=0),
    Message('note_on', channel=9, note=41, velocity=100, time=0),
    Message('note_on', channel=9, note=43, velocity=100, time=0),
    Message('note_on', channel=9, note=45, velocity=100, time=0),
    Message('note_on', channel=9, note=47, velocity=100, time=0),
    Message('note_on', channel=9, note=38, velocity=0, time=192),
    Message('note_on', channel=9, note=40, velocity=0, time=0),
    Message('note_on', channel=9, note=41, velocity=0, time=0),
    Message('note_on', channel=9, note=43, velocity=0, time=0),
    Message('note_on', channel=9, note=45, velocity=0, time=0),
    Message('note_on', channel=9, note=47, velocity=0, time=0),
    Message('note_on', channel=9, note=41, velocity=100, time=48),
    Message('note_on', channel=9, note=41, velocity=0, time=384),
    Message('note_on', channel=9, note=34, velocity=100, time=96),
    Message('note_on', channel=9, note=41, velocity=100, time=0),
    Message('note_on', channel=9, note=40, velocity=100, time=0),
    Message('note_on', channel=9, note=34, velocity=0, time=384),
    Message('note_on', channel=9, note=41, velocity=0, time=0),
    Message('note_on', channel=9, note=40, velocity=0, time=0),
    Message('note_on', channel=9, note=41, velocity=100, time=96),
    Message('note_on', channel=9, note=41, velocity=0, time=384),
    Message('note_on', channel=9, note=41, velocity=100, time=96),
    Message('note_on', channel=9, note=34, velocity=100, time=0),
    Message('note_on', channel=9, note=40, velocity=100, time=0),
    Message('note_on', channel=9, note=41, velocity=0, time=384),
    Message('note_on', channel=9, note=34, velocity=0, time=0),
    Message('note_on', channel=9, note=40, velocity=0, time=0),
    Message('note_on', channel=9, note=41, velocity=100, time=96),
    Message('note_on', channel=9, note=41, velocity=0, time=384),
    Message('note_on', channel=9, note=40, velocity=100, time=96),
    Message('note_on', channel=9, note=41, velocity=100, time=0),
    Message('note_on', channel=9, note=34, velocity=100, time=0),
    Message('note_on', channel=9, note=40, velocity=0, time=384),
    Message('note_on', channel=9, note=41, velocity=0, time=0),
    Message('note_on', channel=9, note=34, velocity=0, time=0),
    Message('note_on', channel=9, note=41, velocity=100, time=96),
    Message('note_on', channel=9, note=41, velocity=0, time=384),
    Message('note_on', channel=9, note=40, velocity=100, time=96),
    Message('note_on', channel=9, note=41, velocity=100, time=0),
    Message('note_on', channel=9, note=34, velocity=100, time=0),
    Message('note_on', channel=9, note=40, velocity=0, time=384),
    Message('note_on', channel=9, note=41, velocity=0, time=0),
    Message('note_on', channel=9, note=34, velocity=0, time=0),
    Message('note_on', channel=9, note=41, velocity=100, time=96),
    Message('note_on', channel=9, note=41, velocity=0, time=384),
    Message('note_on', channel=9, note=34, velocity=100, time=96),
    Message('note_on', channel=9, note=41, velocity=100, time=0),
    Message('note_on', channel=9, note=40, velocity=100, time=0),
    Message('note_on', channel=9, note=34, velocity=0, time=384),
    Message('note_on', channel=9, note=41, velocity=0, time=0),
    Message('note_on', channel=9, note=40, velocity=0, time=0),
    Message('note_on', channel=9, note=41, velocity=100, time=96),
    Message('note_on', channel=9, note=41, velocity=0, time=384),
    Message('note_on', channel=9, note=41, velocity=100, time=96),
    Message('note_on', channel=9, note=34, velocity=100, time=0),
    Message('note_on', channel=9, note=40, velocity=100, time=0),
    Message('note_on', channel=9, note=41, velocity=0, time=384),
    Message('note_on', channel=9, note=34, velocity=0, time=0),
    Message('note_on', channel=9, note=40, velocity=0, time=0),
    Message('note_on', channel=9, note=41, velocity=100, time=96),
    Message('note_on', channel=9, note=41, velocity=0, time=384),
    Message('note_on', channel=9, note=40, velocity=100, time=96),
    Message('note_on', channel=9, note=41, velocity=100, time=0),
    Message('note_on', channel=9, note=34, velocity=100, time=0),
    Message('note_on', channel=9, note=40, velocity=0, time=384),
    Message('note_on', channel=9, note=41, velocity=0, time=0),
    Message('note_on', channel=9, note=34, velocity=0, time=0),
    Message('note_on', channel=9, note=41, velocity=100, time=96),
    Message('note_on', channel=9, note=41, velocity=0, time=384),
    Message('note_on', channel=9, note=40, velocity=100, time=96),
    Message('note_on', channel=9, note=41, velocity=100, time=0),
    Message('note_on', channel=9, note=34, velocity=100, time=0),
    Message('note_on', channel=9, note=40, velocity=0, time=384),
    Message('note_on', channel=9, note=41, velocity=0, time=0),
    Message('note_on', channel=9, note=34, velocity=0, time=0),
    Message('note_on', channel=9, note=41, velocity=100, time=96),
    Message('note_on', channel=9, note=41, velocity=0, time=384),
    Message('note_on', channel=9, note=34, velocity=100, time=96),
    Message('note_on', channel=9, note=41, velocity=100, time=0),
    Message('note_on', channel=9, note=40, velocity=100, time=0),
    Message('note_on', channel=9, note=34, velocity=0, time=384),
    Message('note_on', channel=9, note=41, velocity=0, time=0),
    Message('note_on', channel=9, note=40, velocity=0, time=0),
    Message('note_on', channel=9, note=41, velocity=100, time=96),
    Message('note_on', channel=9, note=41, velocity=0, time=384),
    Message('note_on', channel=9, note=41, velocity=100, time=96),
    Message('note_on', channel=9, note=34, velocity=100, time=0),
    Message('note_on', channel=9, note=40, velocity=100, time=0),
    Message('note_on', channel=9, note=41, velocity=0, time=384),
    Message('note_on', channel=9, note=34, velocity=0, time=0),
    Message('note_on', channel=9, note=40, velocity=0, time=0),
    Message('note_on', channel=9, note=41, velocity=100, time=96),
    Message('note_on', channel=9, note=41, velocity=0, time=384),
    Message('note_on', channel=9, note=40, velocity=100, time=96),
    Message('note_on', channel=9, note=41, velocity=100, time=0),
    Message('note_on', channel=9, note=34, velocity=100, time=0),
    Message('note_on', channel=9, note=40, velocity=0, time=384),
    Message('note_on', channel=9, note=41, velocity=0, time=0),
    Message('note_on', channel=9, note=34, velocity=0, time=0),
    Message('note_on', channel=9, note=41, velocity=100, time=96),
    Message('note_on', channel=9, note=41, velocity=0, time=384),
    Message('note_on', channel=9, note=40, velocity=100, time=96),
    Message('note_on', channel=9, note=41, velocity=100, time=0),
    Message('note_on', channel=9, note=34, velocity=100, time=0),
    Message('note_on', channel=9, note=40, velocity=0, time=384),
    Message('note_on', channel=9, note=41, velocity=0, time=0),
    Message('note_on', channel=9, note=34, velocity=0, time=0),
    Message('note_on', channel=9, note=41, velocity=100, time=96),
    Message('note_on', channel=9, note=41, velocity=0, time=384),
    Message('note_on', channel=9, note=34, velocity=100, time=96),
    Message('note_on', channel=9, note=41, velocity=100, time=0),
    Message('note_on', channel=9, note=40, velocity=100, time=0),
    Message('note_on', channel=9, note=34, velocity=0, time=384),
    Message('note_on', channel=9, note=41, velocity=0, time=0),
    Message('note_on', channel=9, note=40, velocity=0, time=0),
    Message('note_on', channel=9, note=41, velocity=100, time=96),
    Message('note_on', channel=9, note=41, velocity=0, time=384),
    Message('note_on', channel=9, note=34, velocity=100, time=96),
    Message('note_on', channel=9, note=40, velocity=100, time=0),
    Message('note_on', channel=9, note=41, velocity=100, time=0),
    Message('note_on', channel=9, note=34, velocity=0, time=192),
    Message('note_on', channel=9, note=40, velocity=0, time=0),
    Message('note_on', channel=9, note=41, velocity=0, time=0),
    Message('note_on', channel=9, note=34, velocity=100, time=48),
    Message('note_on', channel=9, note=40, velocity=100, time=0),
    Message('note_on', channel=9, note=41, velocity=100, time=0),
    Message('note_on', channel=9, note=34, velocity=0, time=192),
    Message('note_on', channel=9, note=40, velocity=0, time=0),
    Message('note_on', channel=9, note=41, velocity=0, time=0),
    Message('note_on', channel=9, note=41, velocity=100, time=288),
    Message('note_on', channel=9, note=41, velocity=0, time=192),
    Message('note_on', channel=9, note=41, velocity=100, time=48),
    Message('note_on', channel=9, note=40, velocity=100, time=0),
    Message('note_on', channel=9, note=34, velocity=100, time=0),
    Message('note_on', channel=9, note=41, velocity=0, time=192),
    Message('note_on', channel=9, note=40, velocity=0, time=0),
    Message('note_on', channel=9, note=34, velocity=0, time=0),
    Message('note_on', channel=9, note=41, velocity=100, time=48),
    Message('note_on', channel=9, note=41, velocity=0, time=192),
    Message('note_on', channel=9, note=41, velocity=100, time=48),
    Message('note_on', channel=9, note=40, velocity=100, time=0),
    Message('note_on', channel=9, note=34, velocity=100, time=0),
    Message('note_on', channel=9, note=41, velocity=0, time=192),
    Message('note_on', channel=9, note=40, velocity=0, time=0),
    Message('note_on', channel=9, note=34, velocity=0, time=0),
    Message('note_on', channel=9, note=41, velocity=100, time=48),
    Message('note_on', channel=9, note=41, velocity=0, time=192),
    Message('note_on', channel=9, note=34, velocity=100, time=48),
    Message('note_on', channel=9, note=40, velocity=100, time=0),
    Message('note_on', channel=9, note=41, velocity=100, time=0),
    Message('note_on', channel=9, note=34, velocity=0, time=96),
    Message('note_on', channel=9, note=40, velocity=0, time=0),
    Message('note_on', channel=9, note=41, velocity=0, time=0),
    Message('note_on', channel=9, note=34, velocity=100, time=24),
    Message('note_on', channel=9, note=40, velocity=100, time=0),
    Message('note_on', channel=9, note=41, velocity=100, time=0),
    Message('note_on', channel=9, note=34, velocity=0, time=96),
    Message('note_on', channel=9, note=40, velocity=0, time=0),
    Message('note_on', channel=9, note=41, velocity=0, time=0),
    Message('note_on', channel=9, note=41, velocity=100, time=24),
    Message('note_on', channel=9, note=41, velocity=0, time=96),
    Message('note_on', channel=9, note=41, velocity=100, time=144),
    Message('note_on', channel=9, note=41, velocity=0, time=384),
    Message('note_on', channel=9, note=40, velocity=100, time=96),
    Message('note_on', channel=9, note=41, velocity=100, time=0),
    Message('note_on', channel=9, note=34, velocity=100, time=0),
    Message('note_on', channel=9, note=40, velocity=0, time=384),
    Message('note_on', channel=9, note=41, velocity=0, time=0),
    Message('note_on', channel=9, note=34, velocity=0, time=0),
    Message('note_on', channel=9, note=41, velocity=100, time=96),
    Message('note_on', channel=9, note=41, velocity=0, time=192),
    Message('note_on', channel=9, note=41, velocity=100, time=48),
    Message('note_on', channel=9, note=41, velocity=0, time=192),
    Message('note_on', channel=9, note=40, velocity=100, time=48),
    Message('note_on', channel=9, note=41, velocity=100, time=0),
    Message('note_on', channel=9, note=34, velocity=100, time=0),
    Message('note_on', channel=9, note=40, velocity=0, time=384),
    Message('note_on', channel=9, note=41, velocity=0, time=0),
    Message('note_on', channel=9, note=34, velocity=0, time=0),
    Message('note_on', channel=9, note=41, velocity=100, time=96),
    Message('note_on', channel=9, note=41, velocity=0, time=384),
    Message('note_on', channel=9, note=40, velocity=100, time=96),
    Message('note_on', channel=9, note=41, velocity=100, time=0),
    Message('note_on', channel=9, note=34, velocity=100, time=0),
    Message('note_on', channel=9, note=40, velocity=0, time=384),
    Message('note_on', channel=9, note=41, velocity=0, time=0),
    Message('note_on', channel=9, note=34, velocity=0, time=0),
    Message('note_on', channel=9, note=41, velocity=100, time=96),
    Message('note_on', channel=9, note=41, velocity=0, time=192),
    Message('note_on', channel=9, note=41, velocity=100, time=48),
    Message('note_on', channel=9, note=41, velocity=0, time=192),
    Message('note_on', channel=9, note=40, velocity=100, time=48),
    Message('note_on', channel=9, note=41, velocity=100, time=0),
    Message('note_on', channel=9, note=34, velocity=100, time=0),
    Message('note_on', channel=9, note=40, velocity=0, time=384),
    Message('note_on', channel=9, note=41, velocity=0, time=0),
    Message('note_on', channel=9, note=34, velocity=0, time=0),
    Message('note_on', channel=9, note=41, velocity=100, time=96),
    Message('note_on', channel=9, note=41, velocity=0, time=384),
    Message('note_on', channel=9, note=40, velocity=100, time=96),
    Message('note_on', channel=9, note=41, velocity=100, time=0),
    Message('note_on', channel=9, note=34, velocity=100, time=0),
    Message('note_on', channel=9, note=40, velocity=0, time=384),
    Message('note_on', channel=9, note=41, velocity=0, time=0),
    Message('note_on', channel=9, note=34, velocity=0, time=0),
    Message('note_on', channel=9, note=41, velocity=100, time=96),
    Message('note_on', channel=9, note=41, velocity=0, time=192),
    Message('note_on', channel=9, note=41, velocity=100, time=48),
    Message('note_on', channel=9, note=41, velocity=0, time=192),
    Message('note_on', channel=9, note=40, velocity=100, time=48),
    Message('note_on', channel=9, note=41, velocity=100, time=0),
    Message('note_on', channel=9, note=34, velocity=100, time=0),
    Message('note_on', channel=9, note=40, velocity=0, time=384),
    Message('note_on', channel=9, note=41, velocity=0, time=0),
    Message('note_on', channel=9, note=34, velocity=0, time=0),
    Message('note_on', channel=9, note=41, velocity=100, time=96),
    Message('note_on', channel=9, note=41, velocity=0, time=384),
    Message('note_on', channel=9, note=40, velocity=100, time=96),
    Message('note_on', channel=9, note=41, velocity=100, time=0),
    Message('note_on', channel=9, note=34, velocity=100, time=0),
    Message('note_on', channel=9, note=40, velocity=0, time=384),
    Message('note_on', channel=9, note=41, velocity=0, time=0),
    Message('note_on', channel=9, note=34, velocity=0, time=0),
    Message('note_on', channel=9, note=41, velocity=100, time=96),
    Message('note_on', channel=9, note=41, velocity=0, time=192),
    Message('note_on', channel=9, note=41, velocity=100, time=48),
    Message('note_on', channel=9, note=41, velocity=0, time=192),
    Message('note_on', channel=9, note=40, velocity=100, time=48),
    Message('note_on', channel=9, note=41, velocity=100, time=0),
    Message('note_on', channel=9, note=34, velocity=100, time=0),
    Message('note_on', channel=9, note=40, velocity=0, time=384),
    Message('note_on', channel=9, note=41, velocity=0, time=0),
    Message('note_on', channel=9, note=34, velocity=0, time=0),
    Message('note_on', channel=9, note=41, velocity=100, time=96),
    Message('note_on', channel=9, note=41, velocity=0, time=384),
    Message('note_on', channel=9, note=40, velocity=100, time=96),
    Message('note_on', channel=9, note=41, velocity=100, time=0),
    Message('note_on', channel=9, note=34, velocity=100, time=0),
    Message('note_on', channel=9, note=40, velocity=0, time=384),
    Message('note_on', channel=9, note=41, velocity=0, time=0),
    Message('note_on', channel=9, note=34, velocity=0, time=0),
    Message('note_on', channel=9, note=41, velocity=100, time=96),
    Message('note_on', channel=9, note=41, velocity=0, time=192),
    Message('note_on', channel=9, note=41, velocity=100, time=48),
    Message('note_on', channel=9, note=41, velocity=0, time=192),
    Message('note_on', channel=9, note=40, velocity=100, time=48),
    Message('note_on', channel=9, note=41, velocity=100, time=0),
    Message('note_on', channel=9, note=34, velocity=100, time=0),
    Message('note_on', channel=9, note=40, velocity=0, time=384),
    Message('note_on', channel=9, note=41, velocity=0, time=0),
    Message('note_on', channel=9, note=34, velocity=0, time=0),
    Message('note_on', channel=9, note=41, velocity=100, time=96),
    Message('note_on', channel=9, note=41, velocity=0, time=384),
    Message('note_on', channel=9, note=40, velocity=100, time=96),
    Message('note_on', channel=9, note=41, velocity=100, time=0),
    Message('note_on', channel=9, note=34, velocity=100, time=0),
    Message('note_on', channel=9, note=40, velocity=0, time=384),
    Message('note_on', channel=9, note=41, velocity=0, time=0),
    Message('note_on', channel=9, note=34, velocity=0, time=0),
    Message('note_on', channel=9, note=41, velocity=100, time=96),
    Message('note_on', channel=9, note=41, velocity=0, time=192),
    Message('note_on', channel=9, note=41, velocity=100, time=48),
    Message('note_on', channel=9, note=41, velocity=0, time=192),
    Message('note_on', channel=9, note=40, velocity=100, time=48),
    Message('note_on', channel=9, note=41, velocity=100, time=0),
    Message('note_on', channel=9, note=34, velocity=100, time=0),
    Message('note_on', channel=9, note=40, velocity=0, time=384),
    Message('note_on', channel=9, note=41, velocity=0, time=0),
    Message('note_on', channel=9, note=34, velocity=0, time=0),
    Message('note_on', channel=9, note=41, velocity=100, time=96),
    Message('note_on', channel=9, note=41, velocity=0, time=384),
    Message('note_on', channel=9, note=41, velocity=100, time=96),
    Message('note_on', channel=9, note=40, velocity=100, time=0),
    Message('note_on', channel=9, note=34, velocity=100, time=0),
    Message('note_on', channel=9, note=41, velocity=0, time=384),
    Message('note_on', channel=9, note=40, velocity=0, time=0),
    Message('note_on', channel=9, note=34, velocity=0, time=0),
    Message('note_on', channel=9, note=41, velocity=100, time=96),
    Message('note_on', channel=9, note=41, velocity=0, time=192),
    Message('note_on', channel=9, note=41, velocity=100, time=48),
    Message('note_on', channel=9, note=41, velocity=0, time=192),
    Message('note_on', channel=9, note=40, velocity=100, time=48),
    Message('note_on', channel=9, note=41, velocity=100, time=0),
    Message('note_on', channel=9, note=34, velocity=100, time=0),
    Message('note_on', channel=9, note=40, velocity=0, time=384),
    Message('note_on', channel=9, note=41, velocity=0, time=0),
    Message('note_on', channel=9, note=34, velocity=0, time=0),
    Message('note_on', channel=9, note=41, velocity=100, time=96),
    Message('note_on', channel=9, note=41, velocity=0, time=384),
    Message('note_on', channel=9, note=41, velocity=100, time=96),
    Message('note_on', channel=9, note=40, velocity=100, time=0),
    Message('note_on', channel=9, note=34, velocity=100, time=0),
    Message('note_on', channel=9, note=41, velocity=0, time=384),
    Message('note_on', channel=9, note=40, velocity=0, time=0),
    Message('note_on', channel=9, note=34, velocity=0, time=0),
    Message('note_on', channel=9, note=41, velocity=100, time=96),
    Message('note_on', channel=9, note=41, velocity=0, time=192),
    Message('note_on', channel=9, note=41, velocity=100, time=48),
    Message('note_on', channel=9, note=41, velocity=0, time=192),
    Message('note_on', channel=9, note=40, velocity=100, time=48),
    Message('note_on', channel=9, note=41, velocity=100, time=0),
    Message('note_on', channel=9, note=34, velocity=100, time=0),
    Message('note_on', channel=9, note=40, velocity=0, time=384),
    Message('note_on', channel=9, note=41, velocity=0, time=0),
    Message('note_on', channel=9, note=34, velocity=0, time=0),
    Message('note_on', channel=9, note=41, velocity=100, time=2016),
    Message('note_on', channel=9, note=41, velocity=0, time=384),
    Message('note_on', channel=9, note=40, velocity=100, time=96),
    Message('note_on', channel=9, note=41, velocity=100, time=0),
    Message('note_on', channel=9, note=34, velocity=100, time=0),
    Message('note_on', channel=9, note=40, velocity=0, time=384),
    Message('note_on', channel=9, note=41, velocity=0, time=0),
    Message('note_on', channel=9, note=34, velocity=0, time=0),
    Message('note_on', channel=9, note=41, velocity=100, time=96),
    Message('note_on', channel=9, note=41, velocity=0, time=192),
    Message('note_on', channel=9, note=41, velocity=100, time=48),
    Message('note_on', channel=9, note=41, velocity=0, time=192),
    Message('note_on', channel=9, note=40, velocity=100, time=48),
    Message('note_on', channel=9, note=41, velocity=100, time=0),
    Message('note_on', channel=9, note=34, velocity=100, time=0),
    Message('note_on', channel=9, note=40, velocity=0, time=384),
    Message('note_on', channel=9, note=41, velocity=0, time=0),
    Message('note_on', channel=9, note=34, velocity=0, time=0),
    Message('note_on', channel=9, note=41, velocity=100, time=96),
    Message('note_on', channel=9, note=41, velocity=0, time=384),
    Message('note_on', channel=9, note=41, velocity=100, time=96),
    Message('note_on', channel=9, note=34, velocity=100, time=0),
    Message('note_on', channel=9, note=40, velocity=100, time=0),
    Message('note_on', channel=9, note=41, velocity=0, time=384),
    Message('note_on', channel=9, note=34, velocity=0, time=0),
    Message('note_on', channel=9, note=40, velocity=0, time=0),
    Message('note_on', channel=9, note=41, velocity=100, time=96),
    Message('note_on', channel=9, note=41, velocity=0, time=192),
    Message('note_on', channel=9, note=41, velocity=100, time=48),
    Message('note_on', channel=9, note=41, velocity=0, time=192),
    Message('note_on', channel=9, note=40, velocity=100, time=48),
    Message('note_on', channel=9, note=41, velocity=100, time=0),
    Message('note_on', channel=9, note=34, velocity=100, time=0),
    Message('note_on', channel=9, note=40, velocity=0, time=384),
    Message('note_on', channel=9, note=41, velocity=0, time=0),
    Message('note_on', channel=9, note=34, velocity=0, time=0),
    Message('note_on', channel=9, note=41, velocity=100, time=96),
    Message('note_on', channel=9, note=41, velocity=0, time=384),
    Message('note_on', channel=9, note=40, velocity=100, time=96),
    Message('note_on', channel=9, note=41, velocity=100, time=0),
    Message('note_on', channel=9, note=34, velocity=100, time=0),
    Message('note_on', channel=9, note=40, velocity=0, time=384),
    Message('note_on', channel=9, note=41, velocity=0, time=0),
    Message('note_on', channel=9, note=34, velocity=0, time=0),
    Message('note_on', channel=9, note=41, velocity=100, time=96),
    Message('note_on', channel=9, note=41, velocity=0, time=192),
    Message('note_on', channel=9, note=41, velocity=100, time=48),
    Message('note_on', channel=9, note=41, velocity=0, time=192),
    Message('note_on', channel=9, note=40, velocity=100, time=48),
    Message('note_on', channel=9, note=41, velocity=100, time=0),
    Message('note_on', channel=9, note=34, velocity=100, time=0),
    Message('note_on', channel=9, note=40, velocity=0, time=384),
    Message('note_on', channel=9, note=41, velocity=0, time=0),
    Message('note_on', channel=9, note=34, velocity=0, time=0),
    Message('note_on', channel=9, note=41, velocity=100, time=96),
    Message('note_on', channel=9, note=41, velocity=0, time=384),
    Message('note_on', channel=9, note=40, velocity=100, time=96),
    Message('note_on', channel=9, note=41, velocity=100, time=0),
    Message('note_on', channel=9, note=34, velocity=100, time=0),
    Message('note_on', channel=9, note=40, velocity=0, time=384),
    Message('note_on', channel=9, note=41, velocity=0, time=0),
    Message('note_on', channel=9, note=34, velocity=0, time=0),
    Message('note_on', channel=9, note=41, velocity=100, time=96),
    Message('note_on', channel=9, note=41, velocity=0, time=192),
    Message('note_on', channel=9, note=41, velocity=100, time=48),
    Message('note_on', channel=9, note=41, velocity=0, time=192),
    Message('note_on', channel=9, note=34, velocity=100, time=48),
    Message('note_on', channel=9, note=41, velocity=100, time=0),
    Message('note_on', channel=9, note=40, velocity=100, time=0),
    Message('note_on', channel=9, note=34, velocity=0, time=384),
    Message('note_on', channel=9, note=41, velocity=0, time=0),
    Message('note_on', channel=9, note=40, velocity=0, time=0),
    Message('note_on', channel=9, note=41, velocity=100, time=96),
    Message('note_on', channel=9, note=41, velocity=0, time=384),
    Message('note_on', channel=9, note=40, velocity=100, time=96),
    Message('note_on', channel=9, note=41, velocity=100, time=0),
    Message('note_on', channel=9, note=34, velocity=100, time=0),
    Message('note_on', channel=9, note=40, velocity=0, time=384),
    Message('note_on', channel=9, note=41, velocity=0, time=0),
    Message('note_on', channel=9, note=34, velocity=0, time=0),
    Message('note_on', channel=9, note=41, velocity=100, time=96),
    Message('note_on', channel=9, note=41, velocity=0, time=192),
    Message('note_on', channel=9, note=41, velocity=100, time=48),
    Message('note_on', channel=9, note=41, velocity=0, time=192),
    Message('note_on', channel=9, note=40, velocity=100, time=48),
    Message('note_on', channel=9, note=41, velocity=100, time=0),
    Message('note_on', channel=9, note=34, velocity=100, time=0),
    Message('note_on', channel=9, note=40, velocity=0, time=384),
    Message('note_on', channel=9, note=41, velocity=0, time=0),
    Message('note_on', channel=9, note=34, velocity=0, time=0),
    Message('note_on', channel=9, note=41, velocity=100, time=96),
    Message('note_on', channel=9, note=41, velocity=0, time=384),
    Message('note_on', channel=9, note=40, velocity=100, time=96),
    Message('note_on', channel=9, note=41, velocity=100, time=0),
    Message('note_on', channel=9, note=34, velocity=100, time=0),
    Message('note_on', channel=9, note=40, velocity=0, time=384),
    Message('note_on', channel=9, note=41, velocity=0, time=0),
    Message('note_on', channel=9, note=34, velocity=0, time=0),
    Message('note_on', channel=9, note=41, velocity=100, time=96),
    Message('note_on', channel=9, note=41, velocity=0, time=192),
    Message('note_on', channel=9, note=41, velocity=100, time=48),
    Message('note_on', channel=9, note=41, velocity=0, time=192),
    Message('note_on', channel=9, note=40, velocity=100, time=48),
    Message('note_on', channel=9, note=41, velocity=100, time=0),
    Message('note_on', channel=9, note=34, velocity=100, time=0),
    Message('note_on', channel=9, note=40, velocity=0, time=384),
    Message('note_on', channel=9, note=41, velocity=0, time=0),
    Message('note_on', channel=9, note=34, velocity=0, time=0),
    Message('note_on', channel=9, note=41, velocity=100, time=96),
    Message('note_on', channel=9, note=41, velocity=0, time=384),
    Message('note_on', channel=9, note=40, velocity=100, time=96),
    Message('note_on', channel=9, note=34, velocity=100, time=0),
    Message('note_on', channel=9, note=41, velocity=100, time=0),
    Message('note_on', channel=9, note=40, velocity=0, time=384),
    Message('note_on', channel=9, note=34, velocity=0, time=0),
    Message('note_on', channel=9, note=41, velocity=0, time=0),
    Message('note_on', channel=9, note=41, velocity=100, time=96),
    Message('note_on', channel=9, note=41, velocity=0, time=192),
    Message('note_on', channel=9, note=41, velocity=100, time=48),
    Message('note_on', channel=9, note=41, velocity=0, time=192),
    Message('note_on', channel=9, note=34, velocity=100, time=48),
    Message('note_on', channel=9, note=40, velocity=100, time=0),
    Message('note_on', channel=9, note=41, velocity=100, time=0),
    Message('note_on', channel=9, note=34, velocity=0, time=192),
    Message('note_on', channel=9, note=40, velocity=0, time=0),
    Message('note_on', channel=9, note=41, velocity=0, time=0),
    Message('note_on', channel=9, note=41, velocity=100, time=48),
    Message('note_on', channel=9, note=41, velocity=0, time=192),
    Message('note_on', channel=9, note=41, velocity=100, time=288),
    Message('note_on', channel=9, note=41, velocity=0, time=192),
    Message('note_on', channel=9, note=40, velocity=100, time=48),
    Message('note_on', channel=9, note=41, velocity=100, time=0),
    Message('note_on', channel=9, note=37, velocity=100, time=0),
    Message('note_on', channel=9, note=40, velocity=0, time=192),
    Message('note_on', channel=9, note=41, velocity=0, time=0),
    Message('note_on', channel=9, note=37, velocity=0, time=0),
    Message('note_on', channel=9, note=41, velocity=100, time=48),
    Message('note_on', channel=9, note=41, velocity=0, time=192),
    Message('note_on', channel=9, note=40, velocity=100, time=48),
    Message('note_on', channel=9, note=41, velocity=100, time=0),
    Message('note_on', channel=9, note=37, velocity=100, time=0),
    Message('note_on', channel=9, note=40, velocity=0, time=192),
    Message('note_on', channel=9, note=41, velocity=0, time=0),
    Message('note_on', channel=9, note=37, velocity=0, time=0),
    Message('note_on', channel=9, note=41, velocity=100, time=48),
    Message('note_on', channel=9, note=41, velocity=0, time=192),
    Message('note_on', channel=9, note=40, velocity=100, time=48),
    Message('note_on', channel=9, note=41, velocity=100, time=0),
    Message('note_on', channel=9, note=37, velocity=100, time=0),
    Message('note_on', channel=9, note=40, velocity=0, time=192),
    Message('note_on', channel=9, note=41, velocity=0, time=0),
    Message('note_on', channel=9, note=37, velocity=0, time=0),
    Message('note_on', channel=9, note=41, velocity=100, time=48),
    Message('note_on', channel=9, note=41, velocity=0, time=192),
    Message('note_on', channel=9, note=41, velocity=100, time=48),
    Message('note_on', channel=9, note=41, velocity=0, time=384),
    Message('note_on', channel=9, note=34, velocity=100, time=96),
    Message('note_on', channel=9, note=40, velocity=100, time=0),
    Message('note_on', channel=9, note=41, velocity=100, time=0),
    Message('note_on', channel=9, note=34, velocity=0, time=384),
    Message('note_on', channel=9, note=40, velocity=0, time=0),
    Message('note_on', channel=9, note=41, velocity=0, time=0),
    Message('note_on', channel=9, note=41, velocity=100, time=96),
    Message('note_on', channel=9, note=41, velocity=0, time=192),
    Message('note_on', channel=9, note=41, velocity=100, time=48),
    Message('note_on', channel=9, note=41, velocity=0, time=192),
    Message('note_on', channel=9, note=34, velocity=100, time=48),
    Message('note_on', channel=9, note=40, velocity=100, time=0),
    Message('note_on', channel=9, note=41, velocity=100, time=0),
    Message('note_on', channel=9, note=34, velocity=0, time=384),
    Message('note_on', channel=9, note=40, velocity=0, time=0),
    Message('note_on', channel=9, note=41, velocity=0, time=0),
    Message('note_on', channel=9, note=41, velocity=100, time=96),
    Message('note_on', channel=9, note=41, velocity=0, time=384),
    Message('note_on', channel=9, note=34, velocity=100, time=96),
    Message('note_on', channel=9, note=40, velocity=100, time=0),
    Message('note_on', channel=9, note=41, velocity=100, time=0),
    Message('note_on', channel=9, note=34, velocity=0, time=384),
    Message('note_on', channel=9, note=40, velocity=0, time=0),
    Message('note_on', channel=9, note=41, velocity=0, time=0),
    Message('note_on', channel=9, note=41, velocity=100, time=96),
    Message('note_on', channel=9, note=41, velocity=0, time=192),
    Message('note_on', channel=9, note=41, velocity=100, time=48),
    Message('note_on', channel=9, note=41, velocity=0, time=192),
    Message('note_on', channel=9, note=41, velocity=100, time=48),
    Message('note_on', channel=9, note=40, velocity=100, time=0),
    Message('note_on', channel=9, note=34, velocity=100, time=0),
    Message('note_on', channel=9, note=41, velocity=0, time=384),
    Message('note_on', channel=9, note=40, velocity=0, time=0),
    Message('note_on', channel=9, note=34, velocity=0, time=0),
    Message('note_on', channel=9, note=41, velocity=100, time=96),
    Message('note_on', channel=9, note=41, velocity=0, time=384),
    Message('note_on', channel=9, note=40, velocity=100, time=96),
    Message('note_on', channel=9, note=41, velocity=100, time=0),
    Message('note_on', channel=9, note=34, velocity=100, time=0),
    Message('note_on', channel=9, note=40, velocity=0, time=384),
    Message('note_on', channel=9, note=41, velocity=0, time=0),
    Message('note_on', channel=9, note=34, velocity=0, time=0),
    Message('note_on', channel=9, note=41, velocity=100, time=96),
    Message('note_on', channel=9, note=41, velocity=0, time=192),
    Message('note_on', channel=9, note=41, velocity=100, time=48),
    Message('note_on', channel=9, note=41, velocity=0, time=192),
    Message('note_on', channel=9, note=40, velocity=100, time=48),
    Message('note_on', channel=9, note=41, velocity=100, time=0),
    Message('note_on', channel=9, note=34, velocity=100, time=0),
    Message('note_on', channel=9, note=40, velocity=0, time=384),
    Message('note_on', channel=9, note=41, velocity=0, time=0),
    Message('note_on', channel=9, note=34, velocity=0, time=0),
    Message('note_on', channel=9, note=41, velocity=100, time=96),
    Message('note_on', channel=9, note=41, velocity=0, time=384),
    Message('note_on', channel=9, note=40, velocity=100, time=96),
    Message('note_on', channel=9, note=41, velocity=100, time=0),
    Message('note_on', channel=9, note=34, velocity=100, time=0),
    Message('note_on', channel=9, note=40, velocity=0, time=384),
    Message('note_on', channel=9, note=41, velocity=0, time=0),
    Message('note_on', channel=9, note=34, velocity=0, time=0),
    Message('note_on', channel=9, note=41, velocity=100, time=96),
    Message('note_on', channel=9, note=41, velocity=0, time=192),
    Message('note_on', channel=9, note=41, velocity=100, time=48),
    Message('note_on', channel=9, note=41, velocity=0, time=192),
    Message('note_on', channel=9, note=40, velocity=100, time=48),
    Message('note_on', channel=9, note=41, velocity=100, time=0),
    Message('note_on', channel=9, note=34, velocity=100, time=0),
    Message('note_on', channel=9, note=40, velocity=0, time=384),
    Message('note_on', channel=9, note=41, velocity=0, time=0),
    Message('note_on', channel=9, note=34, velocity=0, time=0),
    Message('note_on', channel=9, note=41, velocity=100, time=96),
    Message('note_on', channel=9, note=41, velocity=0, time=384),
    Message('note_on', channel=9, note=40, velocity=100, time=96),
    Message('note_on', channel=9, note=41, velocity=100, time=0),
    Message('note_on', channel=9, note=34, velocity=100, time=0),
    Message('note_on', channel=9, note=40, velocity=0, time=384),
    Message('note_on', channel=9, note=41, velocity=0, time=0),
    Message('note_on', channel=9, note=34, velocity=0, time=0),
    Message('note_on', channel=9, note=41, velocity=100, time=96),
    Message('note_on', channel=9, note=41, velocity=0, time=192),
    Message('note_on', channel=9, note=41, velocity=100, time=48),
    Message('note_on', channel=9, note=41, velocity=0, time=192),
    Message('note_on', channel=9, note=41, velocity=100, time=48),
    Message('note_on', channel=9, note=34, velocity=100, time=0),
    Message('note_on', channel=9, note=40, velocity=100, time=0),
    Message('note_on', channel=9, note=41, velocity=0, time=384),
    Message('note_on', channel=9, note=34, velocity=0, time=0),
    Message('note_on', channel=9, note=40, velocity=0, time=0),
    Message('note_on', channel=9, note=41, velocity=100, time=96),
    Message('note_on', channel=9, note=41, velocity=0, time=384),
    Message('note_on', channel=9, note=40, velocity=100, time=96),
    Message('note_on', channel=9, note=41, velocity=100, time=0),
    Message('note_on', channel=9, note=34, velocity=100, time=0),
    Message('note_on', channel=9, note=40, velocity=0, time=384),
    Message('note_on', channel=9, note=41, velocity=0, time=0),
    Message('note_on', channel=9, note=34, velocity=0, time=0),
    Message('note_on', channel=9, note=41, velocity=100, time=96),
    Message('note_on', channel=9, note=41, velocity=0, time=192),
    Message('note_on', channel=9, note=41, velocity=100, time=48),
    Message('note_on', channel=9, note=41, velocity=0, time=192),
    Message('note_on', channel=9, note=40, velocity=100, time=48),
    Message('note_on', channel=9, note=41, velocity=100, time=0),
    Message('note_on', channel=9, note=34, velocity=100, time=0),
    Message('note_on', channel=9, note=40, velocity=0, time=384),
    Message('note_on', channel=9, note=41, velocity=0, time=0),
    Message('note_on', channel=9, note=34, velocity=0, time=0),
    Message('note_on', channel=9, note=41, velocity=100, time=96),
    Message('note_on', channel=9, note=41, velocity=0, time=384),
    Message('note_on', channel=9, note=40, velocity=100, time=96),
    Message('note_on', channel=9, note=41, velocity=100, time=0),
    Message('note_on', channel=9, note=34, velocity=100, time=0),
    Message('note_on', channel=9, note=40, velocity=0, time=384),
    Message('note_on', channel=9, note=41, velocity=0, time=0),
    Message('note_on', channel=9, note=34, velocity=0, time=0),
    Message('note_on', channel=9, note=41, velocity=100, time=96),
    Message('note_on', channel=9, note=41, velocity=0, time=192),
    Message('note_on', channel=9, note=41, velocity=100, time=48),
    Message('note_on', channel=9, note=41, velocity=0, time=192),
    Message('note_on', channel=9, note=34, velocity=100, time=48),
    Message('note_on', channel=9, note=40, velocity=100, time=0),
    Message('note_on', channel=9, note=41, velocity=100, time=0),
    Message('note_on', channel=9, note=34, velocity=0, time=192),
    Message('note_on', channel=9, note=40, velocity=0, time=0),
    Message('note_on', channel=9, note=41, velocity=0, time=0),
    Message('note_on', channel=9, note=34, velocity=100, time=48),
    Message('note_on', channel=9, note=40, velocity=100, time=0),
    Message('note_on', channel=9, note=41, velocity=100, time=0),
    Message('note_on', channel=9, note=34, velocity=0, time=96),
    Message('note_on', channel=9, note=40, velocity=0, time=0),
    Message('note_on', channel=9, note=41, velocity=0, time=0),
    Message('note_on', channel=9, note=34, velocity=100, time=24),
    Message('note_on', channel=9, note=40, velocity=100, time=0),
    Message('note_on', channel=9, note=41, velocity=100, time=0),
    Message('note_on', channel=9, note=34, velocity=0, time=96),
    Message('note_on', channel=9, note=40, velocity=0, time=0),
    Message('note_on', channel=9, note=41, velocity=0, time=0),
    Message('note_on', channel=9, note=41, velocity=100, time=24),
    Message('note_on', channel=9, note=41, velocity=0, time=384),
    Message('note_on', channel=9, note=41, velocity=100, time=336),
    Message('note_on', channel=9, note=41, velocity=0, time=192),
    Message('note_on', channel=9, note=41, velocity=100, time=48),
    Message('note_on', channel=9, note=41, velocity=0, time=192),
    Message('note_on', channel=9, note=34, velocity=100, time=288),
    Message('note_on', channel=9, note=40, velocity=100, time=0),
    Message('note_on', channel=9, note=41, velocity=100, time=0),
    Message('note_on', channel=9, note=34, velocity=0, time=384),
    Message('note_on', channel=9, note=40, velocity=0, time=0),
    Message('note_on', channel=9, note=41, velocity=0, time=0),
    Message('note_on', channel=9, note=41, velocity=100, time=96),
    Message('note_on', channel=9, note=41, velocity=0, time=384),
    Message('note_on', channel=9, note=41, velocity=100, time=336),
    Message('note_on', channel=9, note=41, velocity=0, time=192),
    Message('note_on', channel=9, note=41, velocity=100, time=48),
    Message('note_on', channel=9, note=41, velocity=0, time=192),
    Message('note_on', channel=9, note=34, velocity=100, time=48),
    Message('note_on', channel=9, note=40, velocity=100, time=0),
    Message('note_on', channel=9, note=41, velocity=100, time=0),
    Message('note_on', channel=9, note=34, velocity=0, time=192),
    Message('note_on', channel=9, note=40, velocity=0, time=0),
    Message('note_on', channel=9, note=41, velocity=0, time=0),
    Message('note_on', channel=9, note=34, velocity=100, time=48),
    Message('note_on', channel=9, note=40, velocity=100, time=0),
    Message('note_on', channel=9, note=41, velocity=100, time=0),
    Message('note_on', channel=9, note=34, velocity=0, time=192),
    Message('note_on', channel=9, note=40, velocity=0, time=0),
    Message('note_on', channel=9, note=41, velocity=0, time=0),
    Message('note_on', channel=9, note=34, velocity=100, time=48),
    Message('note_on', channel=9, note=40, velocity=100, time=0),
    Message('note_on', channel=9, note=41, velocity=100, time=0),
    Message('note_on', channel=9, note=34, velocity=0, time=192),
    Message('note_on', channel=9, note=40, velocity=0, time=0),
    Message('note_on', channel=9, note=41, velocity=0, time=0),
    Message('note_on', channel=9, note=41, velocity=100, time=48),
    Message('note_on', channel=9, note=41, velocity=0, time=384),
    Message('note_on', channel=9, note=41, velocity=100, time=96),
    Message('note_on', channel=9, note=41, velocity=0, time=384),
    Message('note_on', channel=9, note=41, velocity=100, time=96),
    Message('note_on', channel=9, note=41, velocity=0, time=384),
    Message('note_on', channel=9, note=34, velocity=100, time=96),
    Message('note_on', channel=9, note=40, velocity=100, time=0),
    Message('note_on', channel=9, note=41, velocity=100, time=0),
    Message('note_on', channel=9, note=34, velocity=0, time=384),
    Message('note_on', channel=9, note=40, velocity=0, time=0),
    Message('note_on', channel=9, note=41, velocity=0, time=0),
    Message('note_on', channel=9, note=41, velocity=100, time=96),
    Message('note_on', channel=9, note=41, velocity=0, time=384),
    Message('note_on', channel=9, note=41, velocity=100, time=96),
    Message('note_on', channel=9, note=41, velocity=0, time=384),
    Message('note_on', channel=9, note=41, velocity=100, time=96),
    Message('note_on', channel=9, note=41, velocity=0, time=384),
    Message('note_on', channel=9, note=40, velocity=100, time=96),
    Message('note_on', channel=9, note=34, velocity=100, time=0),
    Message('note_on', channel=9, note=41, velocity=100, time=0),
    Message('note_on', channel=9, note=40, velocity=0, time=384),
    Message('note_on', channel=9, note=34, velocity=0, time=0),
    Message('note_on', channel=9, note=41, velocity=0, time=0),
    Message('note_on', channel=9, note=41, velocity=100, time=96),
    Message('note_on', channel=9, note=41, velocity=0, time=384),
    Message('note_on', channel=9, note=41, velocity=100, time=96),
    Message('note_on', channel=9, note=41, velocity=0, time=384),
    Message('note_on', channel=9, note=41, velocity=100, time=96),
    Message('note_on', channel=9, note=41, velocity=0, time=384),
    Message('note_on', channel=9, note=41, velocity=100, time=96),
    Message('note_on', channel=9, note=40, velocity=100, time=0),
    Message('note_on', channel=9, note=34, velocity=100, time=0),
    Message('note_on', channel=9, note=41, velocity=0, time=384),
    Message('note_on', channel=9, note=40, velocity=0, time=0),
    Message('note_on', channel=9, note=34, velocity=0, time=0),
    Message('note_on', channel=9, note=41, velocity=100, time=96),
    Message('note_on', channel=9, note=41, velocity=0, time=384),
    Message('note_on', channel=9, note=41, velocity=100, time=96),
    Message('note_on', channel=9, note=41, velocity=0, time=384),
    Message('note_on', channel=9, note=41, velocity=100, time=96),
    Message('note_on', channel=9, note=41, velocity=0, time=384),
    Message('note_on', channel=9, note=41, velocity=100, time=96),
    Message('note_on', channel=9, note=34, velocity=100, time=0),
    Message('note_on', channel=9, note=40, velocity=100, time=0),
    Message('note_on', channel=9, note=41, velocity=0, time=384),
    Message('note_on', channel=9, note=34, velocity=0, time=0),
    Message('note_on', channel=9, note=40, velocity=0, time=0),
    Message('note_on', channel=9, note=41, velocity=100, time=96),
    Message('note_on', channel=9, note=41, velocity=0, time=384),
    Message('note_on', channel=9, note=41, velocity=100, time=96),
    Message('note_on', channel=9, note=41, velocity=0, time=384),
    Message('note_on', channel=9, note=41, velocity=100, time=96),
    Message('note_on', channel=9, note=41, velocity=0, time=384),
    Message('note_on', channel=9, note=34, velocity=100, time=96),
    Message('note_on', channel=9, note=40, velocity=100, time=0),
    Message('note_on', channel=9, note=41, velocity=100, time=0),
    Message('note_on', channel=9, note=34, velocity=0, time=384),
    Message('note_on', channel=9, note=40, velocity=0, time=0),
    Message('note_on', channel=9, note=41, velocity=0, time=0),
    Message('note_on', channel=9, note=41, velocity=100, time=96),
    Message('note_on', channel=9, note=41, velocity=0, time=384),
    Message('note_on', channel=9, note=41, velocity=100, time=96),
    Message('note_on', channel=9, note=41, velocity=0, time=384),
    Message('note_on', channel=9, note=41, velocity=100, time=96),
    Message('note_on', channel=9, note=41, velocity=0, time=384),
    Message('note_on', channel=9, note=40, velocity=100, time=96),
    Message('note_on', channel=9, note=34, velocity=100, time=0),
    Message('note_on', channel=9, note=41, velocity=100, time=0),
    Message('note_on', channel=9, note=40, velocity=0, time=384),
    Message('note_on', channel=9, note=34, velocity=0, time=0),
    Message('note_on', channel=9, note=41, velocity=0, time=0),
    Message('note_on', channel=9, note=41, velocity=100, time=96),
    Message('note_on', channel=9, note=41, velocity=0, time=384),
    Message('note_on', channel=9, note=41, velocity=100, time=96),
    Message('note_on', channel=9, note=41, velocity=0, time=384),
    Message('note_on', channel=9, note=41, velocity=100, time=96),
    Message('note_on', channel=9, note=41, velocity=0, time=384),
    Message('note_on', channel=9, note=41, velocity=100, time=96),
    Message('note_on', channel=9, note=40, velocity=100, time=0),
    Message('note_on', channel=9, note=34, velocity=100, time=0),
    Message('note_on', channel=9, note=41, velocity=0, time=384),
    Message('note_on', channel=9, note=40, velocity=0, time=0),
    Message('note_on', channel=9, note=34, velocity=0, time=0),
    Message('note_on', channel=9, note=41, velocity=100, time=96),
    Message('note_on', channel=9, note=41, velocity=0, time=384),
    Message('note_on', channel=9, note=41, velocity=100, time=96),
    Message('note_on', channel=9, note=41, velocity=0, time=384),
    Message('note_on', channel=9, note=41, velocity=100, time=96),
    Message('note_on', channel=9, note=41, velocity=0, time=384),
    Message('note_on', channel=9, note=34, velocity=100, time=96),
    Message('note_on', channel=9, note=40, velocity=100, time=0),
    Message('note_on', channel=9, note=41, velocity=100, time=0),
    Message('note_on', channel=9, note=34, velocity=0, time=192),
    Message('note_on', channel=9, note=40, velocity=0, time=0),
    Message('note_on', channel=9, note=41, velocity=0, time=0),
    Message('note_on', channel=9, note=34, velocity=100, time=48),
    Message('note_on', channel=9, note=40, velocity=100, time=0),
    Message('note_on', channel=9, note=41, velocity=100, time=0),
    Message('note_on', channel=9, note=34, velocity=0, time=96),
    Message('note_on', channel=9, note=40, velocity=0, time=0),
    Message('note_on', channel=9, note=41, velocity=0, time=0),
    Message('note_on', channel=9, note=34, velocity=100, time=24),
    Message('note_on', channel=9, note=40, velocity=100, time=0),
    Message('note_on', channel=9, note=41, velocity=100, time=0),
    Message('note_on', channel=9, note=34, velocity=0, time=96),
    Message('note_on', channel=9, note=40, velocity=0, time=0),
    Message('note_on', channel=9, note=41, velocity=0, time=0),
    Message('note_on', channel=9, note=41, velocity=100, time=24),
    Message('note_on', channel=9, note=41, velocity=0, time=384),
    Message('note_on', channel=9, note=34, velocity=100, time=96),
    Message('note_on', channel=9, note=40, velocity=100, time=0),
    Message('note_on', channel=9, note=41, velocity=100, time=0),
    Message('note_on', channel=9, note=34, velocity=0, time=384),
    Message('note_on', channel=9, note=40, velocity=0, time=0),
    Message('note_on', channel=9, note=41, velocity=0, time=0),
    Message('note_on', channel=9, note=41, velocity=100, time=96),
    Message('note_on', channel=9, note=41, velocity=0, time=384),
    Message('note_on', channel=9, note=40, velocity=100, time=96),
    Message('note_on', channel=9, note=41, velocity=100, time=0),
    Message('note_on', channel=9, note=34, velocity=100, time=0),
    Message('note_on', channel=9, note=40, velocity=0, time=384),
    Message('note_on', channel=9, note=41, velocity=0, time=0),
    Message('note_on', channel=9, note=34, velocity=0, time=0),
    Message('note_on', channel=9, note=41, velocity=100, time=96),
    Message('note_on', channel=9, note=41, velocity=0, time=384),
    Message('note_on', channel=9, note=34, velocity=100, time=96),
    Message('note_on', channel=9, note=41, velocity=100, time=0),
    Message('note_on', channel=9, note=40, velocity=100, time=0),
    Message('note_on', channel=9, note=34, velocity=0, time=384),
    Message('note_on', channel=9, note=41, velocity=0, time=0),
    Message('note_on', channel=9, note=40, velocity=0, time=0),
    Message('note_on', channel=9, note=41, velocity=100, time=96),
    Message('note_on', channel=9, note=41, velocity=0, time=384),
    Message('note_on', channel=9, note=41, velocity=100, time=96),
    Message('note_on', channel=9, note=34, velocity=100, time=0),
    Message('note_on', channel=9, note=40, velocity=100, time=0),
    Message('note_on', channel=9, note=41, velocity=0, time=384),
    Message('note_on', channel=9, note=34, velocity=0, time=0),
    Message('note_on', channel=9, note=40, velocity=0, time=0),
    Message('note_on', channel=9, note=41, velocity=100, time=96),
    Message('note_on', channel=9, note=41, velocity=0, time=384),
    Message('note_on', channel=9, note=40, velocity=100, time=96),
    Message('note_on', channel=9, note=41, velocity=100, time=0),
    Message('note_on', channel=9, note=34, velocity=100, time=0),
    Message('note_on', channel=9, note=40, velocity=0, time=384),
    Message('note_on', channel=9, note=41, velocity=0, time=0),
    Message('note_on', channel=9, note=34, velocity=0, time=0),
    Message('note_on', channel=9, note=41, velocity=100, time=96),
    Message('note_on', channel=9, note=41, velocity=0, time=384),
    Message('note_on', channel=9, note=40, velocity=100, time=96),
    Message('note_on', channel=9, note=41, velocity=100, time=0),
    Message('note_on', channel=9, note=34, velocity=100, time=0),
    Message('note_on', channel=9, note=40, velocity=0, time=384),
    Message('note_on', channel=9, note=41, velocity=0, time=0),
    Message('note_on', channel=9, note=34, velocity=0, time=0),
    Message('note_on', channel=9, note=41, velocity=100, time=96),
    Message('note_on', channel=9, note=41, velocity=0, time=192),
    Message('note_on', channel=9, note=34, velocity=100, time=48),
    Message('note_on', channel=9, note=40, velocity=100, time=0),
    Message('note_on', channel=9, note=41, velocity=100, time=0),
    Message('note_on', channel=9, note=34, velocity=0, time=192),
    Message('note_on', channel=9, note=40, velocity=0, time=0),
    Message('note_on', channel=9, note=41, velocity=0, time=0),
    Message('note_on', channel=9, note=34, velocity=100, time=48),
    Message('note_on', channel=9, note=40, velocity=100, time=0),
    Message('note_on', channel=9, note=41, velocity=100, time=0),
    Message('note_on', channel=9, note=34, velocity=0, time=192),
    Message('note_on', channel=9, note=40, velocity=0, time=0),
    Message('note_on', channel=9, note=41, velocity=0, time=0),
    Message('note_on', channel=9, note=41, velocity=100, time=48),
    Message('note_on', channel=9, note=41, velocity=0, time=192),
    Message('note_on', channel=9, note=34, velocity=100, time=48),
    Message('note_on', channel=9, note=40, velocity=100, time=0),
    Message('note_on', channel=9, note=41, velocity=100, time=0),
    Message('note_on', channel=9, note=34, velocity=0, time=192),
    Message('note_on', channel=9, note=40, velocity=0, time=0),
    Message('note_on', channel=9, note=41, velocity=0, time=0),
    Message('note_on', channel=9, note=34, velocity=100, time=48),
    Message('note_on', channel=9, note=40, velocity=100, time=0),
    Message('note_on', channel=9, note=41, velocity=100, time=0),
    Message('note_on', channel=9, note=34, velocity=0, time=96),
    Message('note_on', channel=9, note=40, velocity=0, time=0),
    Message('note_on', channel=9, note=41, velocity=0, time=0),
    Message('note_on', channel=9, note=34, velocity=100, time=24),
    Message('note_on', channel=9, note=40, velocity=100, time=0),
    Message('note_on', channel=9, note=41, velocity=100, time=0),
    Message('note_on', channel=9, note=34, velocity=0, time=96),
    Message('note_on', channel=9, note=40, velocity=0, time=0),
    Message('note_on', channel=9, note=41, velocity=0, time=0),
    Message('note_on', channel=9, note=34, velocity=100, time=144),
    Message('note_on', channel=9, note=40, velocity=100, time=0),
    Message('note_on', channel=9, note=41, velocity=100, time=0),
    Message('note_on', channel=9, note=34, velocity=0, time=96),
    Message('note_on', channel=9, note=40, velocity=0, time=0),
    Message('note_on', channel=9, note=41, velocity=0, time=0),
    Message('note_on', channel=9, note=41, velocity=100, time=24),
    Message('note_on', channel=9, note=41, velocity=0, time=96),
    MetaMessage('end_of_track', time=17424)]),
  MidiTrack([
    Message('control_change', channel=10, control=0, value=0, time=0),
    Message('control_change', channel=10, control=32, value=0, time=0),
    Message('program_change', channel=10, program=27, time=0),
    Message('control_change', channel=10, control=7, value=100, time=0),
    Message('control_change', channel=10, control=10, value=64, time=0),
    Message('note_on', channel=10, note=46, velocity=58, time=15360),
    Message('note_on', channel=10, note=58, velocity=58, time=0),
    Message('note_on', channel=10, note=46, velocity=0, time=384),
    Message('note_on', channel=10, note=58, velocity=0, time=0),
    Message('note_on', channel=10, note=43, velocity=100, time=96),
    Message('note_on', channel=10, note=46, velocity=100, time=0),
    Message('note_on', channel=10, note=58, velocity=100, time=0),
    Message('note_on', channel=10, note=43, velocity=0, time=384),
    Message('note_on', channel=10, note=46, velocity=0, time=0),
    Message('note_on', channel=10, note=58, velocity=0, time=0),
    Message('note_on', channel=10, note=43, velocity=100, time=336),
    Message('note_on', channel=10, note=46, velocity=100, time=0),
    Message('note_on', channel=10, note=58, velocity=100, time=0),
    Message('note_on', channel=10, note=43, velocity=0, time=384),
    Message('note_on', channel=10, note=46, velocity=0, time=0),
    Message('note_on', channel=10, note=58, velocity=0, time=0),
    Message('note_on', channel=10, note=43, velocity=100, time=96),
    Message('note_on', channel=10, note=46, velocity=100, time=0),
    Message('note_on', channel=10, note=58, velocity=100, time=0),
    Message('note_on', channel=10, note=43, velocity=0, time=192),
    Message('note_on', channel=10, note=46, velocity=0, time=0),
    Message('note_on', channel=10, note=58, velocity=0, time=0),
    Message('note_on', channel=10, note=45, velocity=100, time=48),
    Message('note_on', channel=10, note=48, velocity=100, time=0),
    Message('note_on', channel=10, note=60, velocity=100, time=0),
    Message('pitchwheel', channel=10, pitch=-1152, time=88),
    Message('pitchwheel', channel=10, pitch=-1792, time=8),
    Message('pitchwheel', channel=10, pitch=-2944, time=8),
    Message('pitchwheel', channel=10, pitch=-3584, time=16),
    Message('pitchwheel', channel=10, pitch=-3840, time=8),
    Message('pitchwheel', channel=10, pitch=-3584, time=8),
    Message('pitchwheel', channel=10, pitch=-3328, time=8),
    Message('pitchwheel', channel=10, pitch=-2560, time=8),
    Message('pitchwheel', channel=10, pitch=-1024, time=8),
    Message('pitchwheel', channel=10, pitch=128, time=8),
    Message('pitchwheel', channel=10, pitch=384, time=16),
    Message('pitchwheel', channel=10, pitch=1280, time=8),
    Message('pitchwheel', channel=10, pitch=1664, time=24),
    Message('pitchwheel', channel=10, pitch=1792, time=8),
    Message('pitchwheel', channel=10, pitch=1664, time=16),
    Message('pitchwheel', channel=10, pitch=384, time=8),
    Message('pitchwheel', channel=10, pitch=-2688, time=8),
    Message('pitchwheel', channel=10, pitch=-2944, time=8),
    Message('pitchwheel', channel=10, pitch=-2688, time=16),
    Message('pitchwheel', channel=10, pitch=-2176, time=8),
    Message('pitchwheel', channel=10, pitch=-1408, time=8),
    Message('pitchwheel', channel=10, pitch=-512, time=16),
    Message('pitchwheel', channel=10, pitch=384, time=16),
    Message('pitchwheel', channel=10, pitch=1152, time=8),
    Message('pitchwheel', channel=10, pitch=1792, time=16),
    Message('pitchwheel', channel=10, pitch=2048, time=24),
    Message('pitchwheel', channel=10, pitch=1920, time=16),
    Message('pitchwheel', channel=10, pitch=896, time=8),
    Message('pitchwheel', channel=10, pitch=-1280, time=8),
    Message('pitchwheel', channel=10, pitch=-2176, time=8),
    Message('pitchwheel', channel=10, pitch=-2944, time=8),
    Message('pitchwheel', channel=10, pitch=-2688, time=16),
    Message('pitchwheel', channel=10, pitch=-1792, time=8),
    Message('pitchwheel', channel=10, pitch=-768, time=16),
    Message('pitchwheel', channel=10, pitch=384, time=8),
    Message('pitchwheel', channel=10, pitch=1536, time=16),
    Message('pitchwheel', channel=10, pitch=1920, time=16),
    Message('pitchwheel', channel=10, pitch=1792, time=24),
    Message('pitchwheel', channel=10, pitch=1152, time=8),
    Message('pitchwheel', channel=10, pitch=256, time=8),
    Message('pitchwheel', channel=10, pitch=-1920, time=8),
    Message('pitchwheel', channel=10, pitch=-2432, time=8),
    Message('pitchwheel', channel=10, pitch=-2688, time=8),
    Message('note_on', channel=10, note=45, velocity=0, time=8),
    Message('note_on', channel=10, note=48, velocity=0, time=0),
    Message('note_on', channel=10, note=60, velocity=0, time=0),
    Message('pitchwheel', channel=10, pitch=-2432, time=0),
    Message('pitchwheel', channel=10, pitch=-1792, time=8),
    Message('pitchwheel', channel=10, pitch=-1280, time=8),
    Message('pitchwheel', channel=10, pitch=-512, time=8),
    Message('pitchwheel', channel=10, pitch=128, time=8),
    Message('pitchwheel', channel=10, pitch=640, time=16),
    Message('pitchwheel', channel=10, pitch=768, time=8),
    Message('pitchwheel', channel=10, pitch=512, time=8),
    Message('pitchwheel', channel=10, pitch=0, time=8),
    Message('pitchwheel', channel=10, pitch=-2176, time=8),
    Message('pitchwheel', channel=10, pitch=-2432, time=8),
    Message('pitchwheel', channel=10, pitch=-2304, time=8),
    Message('pitchwheel', channel=10, pitch=-1792, time=8),
    Message('pitchwheel', channel=10, pitch=-1152, time=8),
    Message('pitchwheel', channel=10, pitch=-384, time=8),
    Message('pitchwheel', channel=10, pitch=256, time=8),
    Message('pitchwheel', channel=10, pitch=384, time=8),
    Message('pitchwheel', channel=10, pitch=-512, time=8),
    Message('note_on', channel=10, note=43, velocity=100, time=0),
    Message('note_on', channel=10, note=58, velocity=100, time=0),
    Message('note_on', channel=10, note=46, velocity=100, time=0),
    Message('pitchwheel', channel=10, pitch=-1024, time=8),
    Message('pitchwheel', channel=10, pitch=-1536, time=8),
    Message('pitchwheel', channel=10, pitch=-1792, time=8),
    Message('pitchwheel', channel=10, pitch=-1280, time=8),
    Message('pitchwheel', channel=10, pitch=0, time=8),
    Message('note_on', channel=10, note=43, velocity=0, time=728),
    Message('note_on', channel=10, note=58, velocity=0, time=0),
    Message('note_on', channel=10, note=46, velocity=0, time=0),
    Message('note_on', channel=10, note=46, velocity=58, time=432),
    Message('note_on', channel=10, note=58, velocity=58, time=0),
    Message('note_on', channel=10, note=46, velocity=0, time=384),
    Message('note_on', channel=10, note=58, velocity=0, time=0),
    Message('note_on', channel=10, note=43, velocity=100, time=96),
    Message('note_on', channel=10, note=58, velocity=100, time=0),
    Message('note_on', channel=10, note=46, velocity=100, time=0),
    Message('note_on', channel=10, note=43, velocity=0, time=384),
    Message('note_on', channel=10, note=58, velocity=0, time=0),
    Message('note_on', channel=10, note=46, velocity=0, time=0),
    Message('note_on', channel=10, note=58, velocity=100, time=336),
    Message('note_on', channel=10, note=46, velocity=100, time=0),
    Message('note_on', channel=10, note=43, velocity=100, time=0),
    Message('note_on', channel=10, note=58, velocity=0, time=384),
    Message('note_on', channel=10, note=46, velocity=0, time=0),
    Message('note_on', channel=10, note=43, velocity=0, time=0),
    Message('note_on', channel=10, note=58, velocity=100, time=96),
    Message('note_on', channel=10, note=46, velocity=100, time=0),
    Message('note_on', channel=10, note=43, velocity=100, time=0),
    Message('note_on', channel=10, note=58, velocity=0, time=192),
    Message('note_on', channel=10, note=46, velocity=0, time=0),
    Message('note_on', channel=10, note=43, velocity=0, time=0),
    Message('note_on', channel=10, note=60, velocity=100, time=48),
    Message('note_on', channel=10, note=48, velocity=100, time=0),
    Message('note_on', channel=10, note=45, velocity=100, time=0),
    Message('pitchwheel', channel=10, pitch=-1152, time=88),
    Message('pitchwheel', channel=10, pitch=-1792, time=8),
    Message('pitchwheel', channel=10, pitch=-2944, time=8),
    Message('pitchwheel', channel=10, pitch=-3584, time=16),
    Message('pitchwheel', channel=10, pitch=-3840, time=8),
    Message('pitchwheel', channel=10, pitch=-3584, time=8),
    Message('pitchwheel', channel=10, pitch=-3328, time=8),
    Message('pitchwheel', channel=10, pitch=-2560, time=8),
    Message('pitchwheel', channel=10, pitch=-1024, time=8),
    Message('pitchwheel', channel=10, pitch=128, time=8),
    Message('pitchwheel', channel=10, pitch=384, time=16),
    Message('pitchwheel', channel=10, pitch=1280, time=8),
    Message('pitchwheel', channel=10, pitch=1664, time=24),
    Message('pitchwheel', channel=10, pitch=1792, time=8),
    Message('pitchwheel', channel=10, pitch=1664, time=16),
    Message('pitchwheel', channel=10, pitch=384, time=8),
    Message('pitchwheel', channel=10, pitch=-2688, time=8),
    Message('pitchwheel', channel=10, pitch=-2944, time=8),
    Message('pitchwheel', channel=10, pitch=-2688, time=16),
    Message('pitchwheel', channel=10, pitch=-2176, time=8),
    Message('pitchwheel', channel=10, pitch=-1408, time=8),
    Message('pitchwheel', channel=10, pitch=-512, time=16),
    Message('pitchwheel', channel=10, pitch=384, time=16),
    Message('pitchwheel', channel=10, pitch=1152, time=8),
    Message('pitchwheel', channel=10, pitch=1792, time=16),
    Message('pitchwheel', channel=10, pitch=2048, time=24),
    Message('pitchwheel', channel=10, pitch=1920, time=16),
    Message('pitchwheel', channel=10, pitch=896, time=8),
    Message('pitchwheel', channel=10, pitch=-1280, time=8),
    Message('pitchwheel', channel=10, pitch=-2176, time=8),
    Message('pitchwheel', channel=10, pitch=-2944, time=8),
    Message('pitchwheel', channel=10, pitch=-2688, time=16),
    Message('pitchwheel', channel=10, pitch=-1792, time=8),
    Message('pitchwheel', channel=10, pitch=-768, time=16),
    Message('pitchwheel', channel=10, pitch=384, time=8),
    Message('pitchwheel', channel=10, pitch=1536, time=16),
    Message('pitchwheel', channel=10, pitch=1920, time=16),
    Message('pitchwheel', channel=10, pitch=1792, time=24),
    Message('pitchwheel', channel=10, pitch=1152, time=8),
    Message('pitchwheel', channel=10, pitch=256, time=8),
    Message('pitchwheel', channel=10, pitch=-1920, time=8),
    Message('pitchwheel', channel=10, pitch=-2432, time=8),
    Message('pitchwheel', channel=10, pitch=-2688, time=8),
    Message('note_on', channel=10, note=60, velocity=0, time=8),
    Message('note_on', channel=10, note=48, velocity=0, time=0),
    Message('note_on', channel=10, note=45, velocity=0, time=0),
    Message('pitchwheel', channel=10, pitch=-2432, time=0),
    Message('pitchwheel', channel=10, pitch=-1792, time=8),
    Message('pitchwheel', channel=10, pitch=-1280, time=8),
    Message('pitchwheel', channel=10, pitch=-512, time=8),
    Message('pitchwheel', channel=10, pitch=128, time=8),
    Message('pitchwheel', channel=10, pitch=640, time=16),
    Message('pitchwheel', channel=10, pitch=768, time=8),
    Message('pitchwheel', channel=10, pitch=512, time=8),
    Message('pitchwheel', channel=10, pitch=0, time=8),
    Message('pitchwheel', channel=10, pitch=-2176, time=8),
    Message('pitchwheel', channel=10, pitch=-2432, time=8),
    Message('pitchwheel', channel=10, pitch=-2304, time=8),
    Message('pitchwheel', channel=10, pitch=-1792, time=8),
    Message('pitchwheel', channel=10, pitch=-1152, time=8),
    Message('pitchwheel', channel=10, pitch=-384, time=8),
    Message('pitchwheel', channel=10, pitch=256, time=8),
    Message('pitchwheel', channel=10, pitch=384, time=8),
    Message('pitchwheel', channel=10, pitch=-512, time=8),
    Message('note_on', channel=10, note=43, velocity=100, time=0),
    Message('note_on', channel=10, note=58, velocity=100, time=0),
    Message('note_on', channel=10, note=46, velocity=100, time=0),
    Message('pitchwheel', channel=10, pitch=-1024, time=8),
    Message('pitchwheel', channel=10, pitch=-1536, time=8),
    Message('pitchwheel', channel=10, pitch=-1792, time=8),
    Message('pitchwheel', channel=10, pitch=-1280, time=8),
    Message('pitchwheel', channel=10, pitch=0, time=8),
    Message('note_on', channel=10, note=43, velocity=0, time=728),
    Message('note_on', channel=10, note=58, velocity=0, time=0),
    Message('note_on', channel=10, note=46, velocity=0, time=0),
    Message('note_on', channel=10, note=41, velocity=100, time=432),
    Message('note_on', channel=10, note=41, velocity=0, time=768),
    Message('note_on', channel=10, note=43, velocity=100, time=432),
    Message('note_on', channel=10, note=43, velocity=0, time=384),
    Message('note_on', channel=10, note=45, velocity=100, time=96),
    Message('note_on', channel=10, note=43, velocity=100, time=1200),
    Message('note_on', channel=10, note=45, velocity=0, time=6),
    Message('note_on', channel=10, note=41, velocity=100, time=954),
    Message('note_on', channel=10, note=43, velocity=0, time=6),
    Message('note_on', channel=10, note=41, velocity=0, time=960),
    Message('note_on', channel=10, note=48, velocity=100, time=954),
    Message('note_on', channel=10, note=41, velocity=100, time=1920),
    Message('note_on', channel=10, note=48, velocity=0, time=6),
    Message('note_on', channel=10, note=41, velocity=0, time=762),
    Message('note_on', channel=10, note=43, velocity=100, time=432),
    Message('note_on', channel=10, note=43, velocity=0, time=384),
    Message('note_on', channel=10, note=45, velocity=100, time=96),
    Message('note_on', channel=10, note=43, velocity=100, time=1200),
    Message('note_on', channel=10, note=45, velocity=0, time=6),
    Message('note_on', channel=10, note=41, velocity=100, time=954),
    Message('note_on', channel=10, note=43, velocity=0, time=6),
    Message('note_on', channel=10, note=41, velocity=0, time=960),
    Message('note_on', channel=10, note=48, velocity=100, time=714),
    Message('note_on', channel=10, note=48, velocity=0, time=192),
    Message('note_on', channel=10, note=48, velocity=100, time=48),
    Message('note_on', channel=10, note=48, velocity=0, time=768),
    Message('note_on', channel=10, note=50, velocity=100, time=192),
    Message('note_on', channel=10, note=50, velocity=0, time=384),
    Message('note_on', channel=10, note=43, velocity=100, time=96),
    Message('note_on', channel=10, note=43, velocity=0, time=384),
    Message('pitchwheel', channel=10, pitch=0, time=15456),
    Message('note_on', channel=10, note=48, velocity=100, time=2400),
    Message('note_on', channel=10, note=48, velocity=0, time=384),
    Message('note_on', channel=10, note=48, velocity=100, time=336),
    Message('note_on', channel=10, note=48, velocity=0, time=384),
    Message('note_on', channel=10, note=47, velocity=100, time=816),
    Message('note_on', channel=10, note=47, velocity=0, time=384),
    Message('note_on', channel=10, note=47, velocity=100, time=336),
    Message('note_on', channel=10, note=47, velocity=0, time=384),
    Message('note_on', channel=10, note=44, velocity=100, time=816),
    Message('note_on', channel=10, note=44, velocity=0, time=384),
    Message('note_on', channel=10, note=44, velocity=100, time=336),
    Message('note_on', channel=10, note=44, velocity=0, time=384),
    Message('note_on', channel=10, note=45, velocity=100, time=816),
    Message('note_on', channel=10, note=45, velocity=0, time=384),
    Message('note_on', channel=10, note=45, velocity=100, time=336),
    Message('note_on', channel=10, note=45, velocity=0, time=384),
    Message('note_on', channel=10, note=41, velocity=100, time=816),
    Message('note_on', channel=10, note=41, velocity=0, time=384),
    Message('note_on', channel=10, note=41, velocity=100, time=336),
    Message('note_on', channel=10, note=41, velocity=0, time=384),
    Message('note_on', channel=10, note=41, velocity=100, time=96),
    Message('note_on', channel=10, note=41, velocity=0, time=192),
    Message('note_on', channel=10, note=43, velocity=100, time=528),
    Message('note_on', channel=10, note=43, velocity=0, time=384),
    Message('note_on', channel=10, note=43, velocity=100, time=336),
    Message('note_on', channel=10, note=43, velocity=0, time=384),
    Message('note_on', channel=10, note=43, velocity=100, time=96),
    Message('note_on', channel=10, note=43, velocity=0, time=192),
    Message('note_on', channel=10, note=48, velocity=100, time=48),
    Message('note_on', channel=10, note=48, velocity=0, time=1920),
    Message('note_on', channel=10, note=50, velocity=100, time=0),
    Message('note_on', channel=10, note=50, velocity=0, time=1920),
    Message('note_on', channel=10, note=48, velocity=100, time=480),
    Message('note_on', channel=10, note=48, velocity=0, time=384),
    Message('note_on', channel=10, note=48, velocity=100, time=336),
    Message('note_on', channel=10, note=48, velocity=0, time=384),
    Message('note_on', channel=10, note=47, velocity=100, time=816),
    Message('note_on', channel=10, note=47, velocity=0, time=384),
    Message('note_on', channel=10, note=47, velocity=100, time=336),
    Message('note_on', channel=10, note=47, velocity=0, time=384),
    Message('note_on', channel=10, note=44, velocity=100, time=816),
    Message('note_on', channel=10, note=44, velocity=0, time=384),
    Message('note_on', channel=10, note=44, velocity=100, time=336),
    Message('note_on', channel=10, note=44, velocity=0, time=384),
    Message('note_on', channel=10, note=45, velocity=100, time=816),
    Message('note_on', channel=10, note=45, velocity=0, time=384),
    Message('note_on', channel=10, note=45, velocity=100, time=336),
    Message('note_on', channel=10, note=45, velocity=0, time=384),
    Message('note_on', channel=10, note=45, velocity=100, time=96),
    Message('note_on', channel=10, note=45, velocity=0, time=192),
    Message('note_on', channel=10, note=41, velocity=100, time=528),
    Message('note_on', channel=10, note=41, velocity=0, time=384),
    Message('note_on', channel=10, note=43, velocity=100, time=336),
    Message('note_on', channel=10, note=43, velocity=0, time=384),
    Message('note_on', channel=10, note=40, velocity=100, time=816),
    Message('note_on', channel=10, note=40, velocity=0, time=384),
    Message('note_on', channel=10, note=45, velocity=100, time=336),
    Message('note_on', channel=10, note=45, velocity=0, time=384),
    Message('note_on', channel=10, note=50, velocity=100, time=336),
    Message('note_on', channel=10, note=50, velocity=0, time=768),
    Message('note_on', channel=10, note=48, velocity=100, time=192),
    Message('note_on', channel=10, note=48, velocity=0, time=768),
    Message('note_on', channel=10, note=44, velocity=100, time=192),
    Message('note_on', channel=10, note=44, velocity=0, time=576),
    Message('note_on', channel=10, note=44, velocity=100, time=144),
    Message('note_on', channel=10, note=44, velocity=0, time=192),
    Message('note_on', channel=10, note=44, velocity=100, time=48),
    Message('note_on', channel=10, note=44, velocity=0, time=192),
    Message('note_on', channel=10, note=44, velocity=100, time=288),
    Message('note_on', channel=10, note=44, velocity=0, time=192),
    Message('note_on', channel=10, note=46, velocity=100, time=288),
    Message('note_on', channel=10, note=46, velocity=0, time=576),
    Message('note_on', channel=10, note=46, velocity=100, time=144),
    Message('note_on', channel=10, note=46, velocity=0, time=192),
    Message('note_on', channel=10, note=46, velocity=100, time=48),
    Message('note_on', channel=10, note=46, velocity=0, time=192),
    Message('note_on', channel=10, note=46, velocity=100, time=288),
    Message('note_on', channel=10, note=46, velocity=0, time=192),
    Message('note_on', channel=10, note=46, velocity=58, time=15648),
    Message('note_on', channel=10, note=58, velocity=58, time=0),
    Message('note_on', channel=10, note=46, velocity=0, time=384),
    Message('note_on', channel=10, note=58, velocity=0, time=0),
    Message('note_on', channel=10, note=43, velocity=100, time=96),
    Message('note_on', channel=10, note=58, velocity=100, time=0),
    Message('note_on', channel=10, note=46, velocity=100, time=0),
    Message('note_on', channel=10, note=43, velocity=0, time=384),
    Message('note_on', channel=10, note=58, velocity=0, time=0),
    Message('note_on', channel=10, note=46, velocity=0, time=0),
    Message('note_on', channel=10, note=43, velocity=100, time=336),
    Message('note_on', channel=10, note=46, velocity=100, time=0),
    Message('note_on', channel=10, note=58, velocity=100, time=0),
    Message('note_on', channel=10, note=43, velocity=0, time=384),
    Message('note_on', channel=10, note=46, velocity=0, time=0),
    Message('note_on', channel=10, note=58, velocity=0, time=0),
    Message('note_on', channel=10, note=46, velocity=100, time=96),
    Message('note_on', channel=10, note=43, velocity=100, time=0),
    Message('note_on', channel=10, note=58, velocity=100, time=0),
    Message('note_on', channel=10, note=46, velocity=0, time=192),
    Message('note_on', channel=10, note=43, velocity=0, time=0),
    Message('note_on', channel=10, note=58, velocity=0, time=0),
    Message('note_on', channel=10, note=45, velocity=100, time=48),
    Message('note_on', channel=10, note=48, velocity=100, time=0),
    Message('note_on', channel=10, note=60, velocity=100, time=0),
    Message('pitchwheel', channel=10, pitch=-256, time=16),
    Message('pitchwheel', channel=10, pitch=384, time=16),
    Message('pitchwheel', channel=10, pitch=0, time=8),
    Message('pitchwheel', channel=10, pitch=-384, time=8),
    Message('pitchwheel', channel=10, pitch=-256, time=16),
    Message('pitchwheel', channel=10, pitch=-512, time=8),
    Message('pitchwheel', channel=10, pitch=-896, time=8),
    Message('pitchwheel', channel=10, pitch=-1280, time=16),
    Message('pitchwheel', channel=10, pitch=-1536, time=8),
    Message('pitchwheel', channel=10, pitch=-1792, time=16),
    Message('pitchwheel', channel=10, pitch=-2048, time=16),
    Message('pitchwheel', channel=10, pitch=-2176, time=8),
    Message('pitchwheel', channel=10, pitch=1408, time=8),
    Message('pitchwheel', channel=10, pitch=1536, time=8),
    Message('pitchwheel', channel=10, pitch=-128, time=8),
    Message('pitchwheel', channel=10, pitch=-768, time=16),
    Message('pitchwheel', channel=10, pitch=-1536, time=8),
    Message('pitchwheel', channel=10, pitch=-2176, time=16),
    Message('pitchwheel', channel=10, pitch=-2432, time=16),
    Message('pitchwheel', channel=10, pitch=1024, time=16),
    Message('pitchwheel', channel=10, pitch=-256, time=16),
    Message('pitchwheel', channel=10, pitch=-896, time=16),
    Message('pitchwheel', channel=10, pitch=-1664, time=8),
    Message('pitchwheel', channel=10, pitch=-2176, time=16),
    Message('pitchwheel', channel=10, pitch=-2432, time=16),
    Message('pitchwheel', channel=10, pitch=-2304, time=8),
    Message('pitchwheel', channel=10, pitch=-1920, time=8),
    Message('pitchwheel', channel=10, pitch=2176, time=8),
    Message('pitchwheel', channel=10, pitch=2048, time=8),
    Message('pitchwheel', channel=10, pitch=640, time=8),
    Message('pitchwheel', channel=10, pitch=0, time=8),
    Message('pitchwheel', channel=10, pitch=-640, time=8),
    Message('pitchwheel', channel=10, pitch=-1408, time=8),
    Message('pitchwheel', channel=10, pitch=-1664, time=8),
    Message('pitchwheel', channel=10, pitch=-1280, time=16),
    Message('pitchwheel', channel=10, pitch=-640, time=8),
    Message('pitchwheel', channel=10, pitch=384, time=8),
    Message('pitchwheel', channel=10, pitch=2816, time=8),
    Message('pitchwheel', channel=10, pitch=2944, time=8),
    Message('pitchwheel', channel=10, pitch=1792, time=8),
    Message('pitchwheel', channel=10, pitch=512, time=16),
    Message('pitchwheel', channel=10, pitch=-1024, time=16),
    Message('pitchwheel', channel=10, pitch=-1792, time=8),
    Message('pitchwheel', channel=10, pitch=-1920, time=8),
    Message('pitchwheel', channel=10, pitch=-1536, time=16),
    Message('pitchwheel', channel=10, pitch=384, time=8),
    Message('pitchwheel', channel=10, pitch=2048, time=8),
    Message('pitchwheel', channel=10, pitch=2304, time=8),
    Message('pitchwheel', channel=10, pitch=1152, time=8),
    Message('pitchwheel', channel=10, pitch=128, time=8),
    Message('pitchwheel', channel=10, pitch=-640, time=16),
    Message('pitchwheel', channel=10, pitch=-1152, time=8),
    Message('note_on', channel=10, note=45, velocity=0, time=8),
    Message('note_on', channel=10, note=48, velocity=0, time=0),
    Message('note_on', channel=10, note=60, velocity=0, time=0),
    Message('pitchwheel', channel=10, pitch=-640, time=8),
    Message('pitchwheel', channel=10, pitch=256, time=8),
    Message('pitchwheel', channel=10, pitch=768, time=8),
    Message('pitchwheel', channel=10, pitch=1024, time=8),
    Message('pitchwheel', channel=10, pitch=640, time=8),
    Message('pitchwheel', channel=10, pitch=128, time=8),
    Message('pitchwheel', channel=10, pitch=-512, time=8),
    Message('pitchwheel', channel=10, pitch=-1024, time=16),
    Message('pitchwheel', channel=10, pitch=-768, time=16),
    Message('pitchwheel', channel=10, pitch=0, time=8),
    Message('pitchwheel', channel=10, pitch=128, time=8),
    Message('pitchwheel', channel=10, pitch=0, time=8),
    Message('note_on', channel=10, note=58, velocity=100, time=32),
    Message('note_on', channel=10, note=43, velocity=100, time=0),
    Message('note_on', channel=10, note=46, velocity=100, time=0),
    Message('note_on', channel=10, note=58, velocity=0, time=768),
    Message('note_on', channel=10, note=43, velocity=0, time=0),
    Message('note_on', channel=10, note=46, velocity=0, time=0),
    Message('note_on', channel=10, note=58, velocity=58, time=432),
    Message('note_on', channel=10, note=46, velocity=58, time=0),
    Message('note_on', channel=10, note=58, velocity=0, time=384),
    Message('note_on', channel=10, note=46, velocity=0, time=0),
    Message('note_on', channel=10, note=46, velocity=100, time=96),
    Message('note_on', channel=10, note=58, velocity=100, time=0),
    Message('note_on', channel=10, note=43, velocity=100, time=0),
    Message('note_on', channel=10, note=46, velocity=0, time=384),
    Message('note_on', channel=10, note=58, velocity=0, time=0),
    Message('note_on', channel=10, note=43, velocity=0, time=0),
    Message('note_on', channel=10, note=58, velocity=100, time=336),
    Message('note_on', channel=10, note=43, velocity=100, time=0),
    Message('note_on', channel=10, note=46, velocity=100, time=0),
    Message('note_on', channel=10, note=58, velocity=0, time=384),
    Message('note_on', channel=10, note=43, velocity=0, time=0),
    Message('note_on', channel=10, note=46, velocity=0, time=0),
    Message('note_on', channel=10, note=58, velocity=100, time=96),
    Message('note_on', channel=10, note=43, velocity=100, time=0),
    Message('note_on', channel=10, note=46, velocity=100, time=0),
    Message('note_on', channel=10, note=58, velocity=0, time=192),
    Message('note_on', channel=10, note=43, velocity=0, time=0),
    Message('note_on', channel=10, note=46, velocity=0, time=0),
    Message('note_on', channel=10, note=48, velocity=100, time=48),
    Message('note_on', channel=10, note=45, velocity=100, time=0),
    Message('note_on', channel=10, note=60, velocity=100, time=0),
    Message('pitchwheel', channel=10, pitch=-256, time=16),
    Message('pitchwheel', channel=10, pitch=384, time=16),
    Message('pitchwheel', channel=10, pitch=0, time=8),
    Message('pitchwheel', channel=10, pitch=-384, time=8),
    Message('pitchwheel', channel=10, pitch=-256, time=16),
    Message('pitchwheel', channel=10, pitch=-512, time=8),
    Message('pitchwheel', channel=10, pitch=-896, time=8),
    Message('pitchwheel', channel=10, pitch=-1280, time=16),
    Message('pitchwheel', channel=10, pitch=-1536, time=8),
    Message('pitchwheel', channel=10, pitch=-1792, time=16),
    Message('pitchwheel', channel=10, pitch=-2048, time=16),
    Message('pitchwheel', channel=10, pitch=-2176, time=8),
    Message('pitchwheel', channel=10, pitch=1408, time=8),
    Message('pitchwheel', channel=10, pitch=1536, time=8),
    Message('pitchwheel', channel=10, pitch=-128, time=8),
    Message('pitchwheel', channel=10, pitch=-768, time=16),
    Message('pitchwheel', channel=10, pitch=-1536, time=8),
    Message('pitchwheel', channel=10, pitch=-2176, time=16),
    Message('pitchwheel', channel=10, pitch=-2432, time=16),
    Message('pitchwheel', channel=10, pitch=1024, time=16),
    Message('pitchwheel', channel=10, pitch=-256, time=16),
    Message('pitchwheel', channel=10, pitch=-896, time=16),
    Message('pitchwheel', channel=10, pitch=-1664, time=8),
    Message('pitchwheel', channel=10, pitch=-2176, time=16),
    Message('pitchwheel', channel=10, pitch=-2432, time=16),
    Message('pitchwheel', channel=10, pitch=-2304, time=8),
    Message('pitchwheel', channel=10, pitch=-1920, time=8),
    Message('pitchwheel', channel=10, pitch=2176, time=8),
    Message('pitchwheel', channel=10, pitch=2048, time=8),
    Message('pitchwheel', channel=10, pitch=640, time=8),
    Message('pitchwheel', channel=10, pitch=0, time=8),
    Message('pitchwheel', channel=10, pitch=-640, time=8),
    Message('pitchwheel', channel=10, pitch=-1408, time=8),
    Message('pitchwheel', channel=10, pitch=-1664, time=8),
    Message('pitchwheel', channel=10, pitch=-1280, time=16),
    Message('pitchwheel', channel=10, pitch=-640, time=8),
    Message('pitchwheel', channel=10, pitch=384, time=8),
    Message('pitchwheel', channel=10, pitch=2816, time=8),
    Message('pitchwheel', channel=10, pitch=2944, time=8),
    Message('pitchwheel', channel=10, pitch=1792, time=8),
    Message('pitchwheel', channel=10, pitch=512, time=16),
    Message('pitchwheel', channel=10, pitch=-1024, time=16),
    Message('pitchwheel', channel=10, pitch=-1792, time=8),
    Message('pitchwheel', channel=10, pitch=-1920, time=8),
    Message('pitchwheel', channel=10, pitch=-1536, time=16),
    Message('pitchwheel', channel=10, pitch=384, time=8),
    Message('pitchwheel', channel=10, pitch=2048, time=8),
    Message('pitchwheel', channel=10, pitch=2304, time=8),
    Message('pitchwheel', channel=10, pitch=1152, time=8),
    Message('pitchwheel', channel=10, pitch=128, time=8),
    Message('pitchwheel', channel=10, pitch=-640, time=16),
    Message('pitchwheel', channel=10, pitch=-1152, time=8),
    Message('note_on', channel=10, note=48, velocity=0, time=8),
    Message('note_on', channel=10, note=45, velocity=0, time=0),
    Message('note_on', channel=10, note=60, velocity=0, time=0),
    Message('pitchwheel', channel=10, pitch=-640, time=8),
    Message('pitchwheel', channel=10, pitch=256, time=8),
    Message('pitchwheel', channel=10, pitch=768, time=8),
    Message('pitchwheel', channel=10, pitch=1024, time=8),
    Message('pitchwheel', channel=10, pitch=640, time=8),
    Message('pitchwheel', channel=10, pitch=128, time=8),
    Message('pitchwheel', channel=10, pitch=-512, time=8),
    Message('pitchwheel', channel=10, pitch=-1024, time=16),
    Message('pitchwheel', channel=10, pitch=-768, time=16),
    Message('pitchwheel', channel=10, pitch=0, time=8),
    Message('pitchwheel', channel=10, pitch=128, time=8),
    Message('pitchwheel', channel=10, pitch=0, time=8),
    Message('note_on', channel=10, note=58, velocity=100, time=32),
    Message('note_on', channel=10, note=43, velocity=100, time=0),
    Message('note_on', channel=10, note=46, velocity=100, time=0),
    Message('note_on', channel=10, note=58, velocity=0, time=768),
    Message('note_on', channel=10, note=43, velocity=0, time=0),
    Message('note_on', channel=10, note=46, velocity=0, time=0),
    Message('note_on', channel=10, note=45, velocity=100, time=432),
    Message('note_on', channel=10, note=33, velocity=100, time=0),
    Message('note_on', channel=10, note=45, velocity=0, time=480),
    Message('note_on', channel=10, note=33, velocity=0, time=0),
    Message('note_on', channel=10, note=33, velocity=100, time=0),
    Message('note_on', channel=10, note=45, velocity=100, time=0),
    Message('note_on', channel=10, note=33, velocity=0, time=240),
    Message('note_on', channel=10, note=45, velocity=0, time=0),
    Message('note_on', channel=10, note=33, velocity=127, time=0),
    Message('note_on', channel=10, note=45, velocity=127, time=0),
    Message('note_on', channel=10, note=45, velocity=0, time=960),
    Message('note_on', channel=10, note=45, velocity=84, time=0),
    Message('note_on', channel=10, note=45, velocity=0, time=240),
    Message('note_on', channel=10, note=45, velocity=62, time=0),
    Message('note_on', channel=10, note=33, velocity=0, time=966),
    Message('note_on', channel=10, note=45, velocity=0, time=0),
    MetaMessage('end_of_track', time=14394)]),
  MidiTrack([
    Message('control_change', channel=11, control=0, value=0, time=0),
    Message('control_change', channel=11, control=32, value=0, time=0),
    Message('program_change', channel=11, program=3, time=0),
    Message('control_change', channel=11, control=7, value=100, time=0),
    Message('control_change', channel=11, control=10, value=64, time=0),
    Message('note_on', channel=11, note=57, velocity=127, time=23520),
    Message('note_on', channel=11, note=69, velocity=127, time=0),
    Message('note_on', channel=11, note=57, velocity=0, time=192),
    Message('note_on', channel=11, note=69, velocity=0, time=0),
    Message('note_on', channel=11, note=55, velocity=127, time=48),
    Message('note_on', channel=11, note=67, velocity=127, time=0),
    Message('note_on', channel=11, note=55, velocity=0, time=192),
    Message('note_on', channel=11, note=67, velocity=0, time=0),
    Message('note_on', channel=11, note=57, velocity=127, time=48),
    Message('note_on', channel=11, note=69, velocity=127, time=0),
    Message('note_on', channel=11, note=57, velocity=0, time=192),
    Message('note_on', channel=11, note=69, velocity=0, time=0),
    Message('note_on', channel=11, note=59, velocity=127, time=48),
    Message('note_on', channel=11, note=71, velocity=127, time=0),
    Message('note_on', channel=11, note=59, velocity=0, time=384),
    Message('note_on', channel=11, note=71, velocity=0, time=0),
    Message('note_on', channel=11, note=60, velocity=127, time=96),
    Message('note_on', channel=11, note=72, velocity=127, time=0),
    Message('note_on', channel=11, note=60, velocity=0, time=192),
    Message('note_on', channel=11, note=72, velocity=0, time=0),
    Message('note_on', channel=11, note=60, velocity=127, time=288),
    Message('note_on', channel=11, note=72, velocity=127, time=0),
    Message('note_on', channel=11, note=60, velocity=0, time=192),
    Message('note_on', channel=11, note=72, velocity=0, time=0),
    Message('note_on', channel=11, note=60, velocity=127, time=48),
    Message('note_on', channel=11, note=72, velocity=127, time=0),
    Message('note_on', channel=11, note=60, velocity=0, time=192),
    Message('note_on', channel=11, note=72, velocity=0, time=0),
    Message('note_on', channel=11, note=62, velocity=127, time=48),
    Message('note_on', channel=11, note=74, velocity=127, time=0),
    Message('note_on', channel=11, note=62, velocity=0, time=192),
    Message('note_on', channel=11, note=74, velocity=0, time=0),
    Message('note_on', channel=11, note=59, velocity=127, time=48),
    Message('note_on', channel=11, note=71, velocity=127, time=0),
    Message('note_on', channel=11, note=59, velocity=0, time=192),
    Message('note_on', channel=11, note=71, velocity=0, time=0),
    Message('note_on', channel=11, note=57, velocity=127, time=48),
    Message('note_on', channel=11, note=69, velocity=127, time=0),
    Message('note_on', channel=11, note=57, velocity=0, time=192),
    Message('note_on', channel=11, note=69, velocity=0, time=0),
    Message('note_on', channel=11, note=55, velocity=127, time=48),
    Message('note_on', channel=11, note=67, velocity=127, time=0),
    Message('note_on', channel=11, note=55, velocity=0, time=192),
    Message('note_on', channel=11, note=67, velocity=0, time=0),
    Message('note_on', channel=11, note=57, velocity=127, time=48),
    Message('note_on', channel=11, note=69, velocity=127, time=0),
    Message('note_on', channel=11, note=69, velocity=0, time=240),
    Message('note_on', channel=11, note=69, velocity=127, time=0),
    Message('note_on', channel=11, note=57, velocity=0, time=192),
    Message('note_on', channel=11, note=69, velocity=0, time=0),
    Message('note_on', channel=11, note=57, velocity=127, time=768),
    Message('note_on', channel=11, note=69, velocity=127, time=0),
    Message('note_on', channel=11, note=57, velocity=0, time=192),
    Message('note_on', channel=11, note=69, velocity=0, time=0),
    Message('note_on', channel=11, note=55, velocity=127, time=48),
    Message('note_on', channel=11, note=67, velocity=127, time=0),
    Message('note_on', channel=11, note=55, velocity=0, time=384),
    Message('note_on', channel=11, note=67, velocity=0, time=0),
    Message('note_on', channel=11, note=52, velocity=127, time=96),
    Message('note_on', channel=11, note=64, velocity=127, time=0),
    Message('note_on', channel=11, note=64, velocity=0, time=240),
    Message('note_on', channel=11, note=64, velocity=127, time=0),
    Message('note_on', channel=11, note=52, velocity=0, time=192),
    Message('note_on', channel=11, note=64, velocity=0, time=0),
    Message('note_on', channel=11, note=57, velocity=127, time=2208),
    Message('note_on', channel=11, note=69, velocity=127, time=0),
    Message('note_on', channel=11, note=57, velocity=0, time=192),
    Message('note_on', channel=11, note=69, velocity=0, time=0),
    Message('note_on', channel=11, note=57, velocity=127, time=288),
    Message('note_on', channel=11, note=69, velocity=127, time=0),
    Message('note_on', channel=11, note=57, velocity=0, time=192),
    Message('note_on', channel=11, note=69, velocity=0, time=0),
    Message('note_on', channel=11, note=59, velocity=127, time=48),
    Message('note_on', channel=11, note=71, velocity=127, time=0),
    Message('note_on', channel=11, note=59, velocity=0, time=384),
    Message('note_on', channel=11, note=71, velocity=0, time=0),
    Message('note_on', channel=11, note=60, velocity=127, time=96),
    Message('note_on', channel=11, note=72, velocity=127, time=0),
    Message('note_on', channel=11, note=72, velocity=0, time=240),
    Message('note_on', channel=11, note=72, velocity=127, time=0),
    Message('note_on', channel=11, note=60, velocity=0, time=192),
    Message('note_on', channel=11, note=72, velocity=0, time=0),
    Message('note_on', channel=11, note=60, velocity=127, time=48),
    Message('note_on', channel=11, note=72, velocity=127, time=0),
    Message('note_on', channel=11, note=60, velocity=0, time=192),
    Message('note_on', channel=11, note=72, velocity=0, time=0),
    Message('note_on', channel=11, note=60, velocity=127, time=48),
    Message('note_on', channel=11, note=72, velocity=127, time=0),
    Message('note_on', channel=11, note=60, velocity=0, time=192),
    Message('note_on', channel=11, note=72, velocity=0, time=0),
    Message('note_on', channel=11, note=62, velocity=127, time=48),
    Message('note_on', channel=11, note=74, velocity=127, time=0),
    Message('note_on', channel=11, note=62, velocity=0, time=192),
    Message('note_on', channel=11, note=74, velocity=0, time=0),
    Message('note_on', channel=11, note=59, velocity=127, time=48),
    Message('note_on', channel=11, note=71, velocity=127, time=0),
    Message('note_on', channel=11, note=59, velocity=0, time=192),
    Message('note_on', channel=11, note=71, velocity=0, time=0),
    Message('note_on', channel=11, note=57, velocity=127, time=48),
    Message('note_on', channel=11, note=69, velocity=127, time=0),
    Message('note_on', channel=11, note=57, velocity=0, time=192),
    Message('note_on', channel=11, note=69, velocity=0, time=0),
    Message('note_on', channel=11, note=55, velocity=127, time=48),
    Message('note_on', channel=11, note=67, velocity=127, time=0),
    Message('note_on', channel=11, note=55, velocity=0, time=192),
    Message('note_on', channel=11, note=67, velocity=0, time=0),
    Message('note_on', channel=11, note=57, velocity=127, time=48),
    Message('note_on', channel=11, note=69, velocity=127, time=0),
    Message('note_on', channel=11, note=57, velocity=0, time=246),
    Message('note_on', channel=11, note=69, velocity=0, time=0),
    Message('note_on', channel=11, note=57, velocity=127, time=714),
    Message('note_on', channel=11, note=69, velocity=127, time=0),
    Message('note_on', channel=11, note=57, velocity=0, time=192),
    Message('note_on', channel=11, note=69, velocity=0, time=0),
    Message('note_on', channel=11, note=57, velocity=127, time=48),
    Message('note_on', channel=11, note=69, velocity=127, time=0),
    Message('note_on', channel=11, note=57, velocity=0, time=192),
    Message('note_on', channel=11, note=69, velocity=0, time=0),
    Message('note_on', channel=11, note=59, velocity=127, time=48),
    Message('note_on', channel=11, note=71, velocity=127, time=0),
    Message('note_on', channel=11, note=59, velocity=0, time=384),
    Message('note_on', channel=11, note=71, velocity=0, time=0),
    Message('note_on', channel=11, note=60, velocity=127, time=96),
    Message('note_on', channel=11, note=72, velocity=127, time=0),
    Message('note_on', channel=11, note=72, velocity=0, time=240),
    Message('note_on', channel=11, note=72, velocity=127, time=0),
    Message('note_on', channel=11, note=60, velocity=0, time=192),
    Message('note_on', channel=11, note=72, velocity=0, time=0),
    Message('note_on', channel=11, note=59, velocity=127, time=48),
    Message('note_on', channel=11, note=71, velocity=127, time=0),
    Message('note_on', channel=11, note=59, velocity=0, time=192),
    Message('note_on', channel=11, note=71, velocity=0, time=0),
    Message('note_on', channel=11, note=60, velocity=127, time=48),
    Message('note_on', channel=11, note=72, velocity=127, time=0),
    Message('note_on', channel=11, note=60, velocity=0, time=192),
    Message('note_on', channel=11, note=72, velocity=0, time=0),
    Message('note_on', channel=11, note=62, velocity=127, time=48),
    Message('note_on', channel=11, note=74, velocity=127, time=0),
    Message('note_on', channel=11, note=62, velocity=0, time=480),
    Message('note_on', channel=11, note=74, velocity=0, time=0),
    Message('note_on', channel=11, note=67, velocity=127, time=240),
    Message('note_on', channel=11, note=79, velocity=127, time=0),
    Message('note_on', channel=11, note=67, velocity=0, time=384),
    Message('note_on', channel=11, note=79, velocity=0, time=0),
    Message('note_on', channel=11, note=77, velocity=127, time=96),
    Message('note_on', channel=11, note=89, velocity=127, time=0),
    Message('note_on', channel=11, note=77, velocity=0, time=576),
    Message('note_on', channel=11, note=89, velocity=0, time=0),
    Message('note_on', channel=11, note=76, velocity=127, time=144),
    Message('note_on', channel=11, note=88, velocity=127, time=0),
    Message('note_on', channel=11, note=76, velocity=0, time=192),
    Message('note_on', channel=11, note=88, velocity=0, time=0),
    Message('note_on', channel=11, note=76, velocity=127, time=48),
    Message('note_on', channel=11, note=88, velocity=127, time=0),
    Message('note_on', channel=11, note=76, velocity=0, time=384),
    Message('note_on', channel=11, note=88, velocity=0, time=0),
    Message('note_on', channel=11, note=72, velocity=127, time=336),
    Message('note_on', channel=11, note=84, velocity=127, time=0),
    Message('note_on', channel=11, note=72, velocity=0, time=192),
    Message('note_on', channel=11, note=84, velocity=0, time=0),
    Message('note_on', channel=11, note=74, velocity=127, time=48),
    Message('note_on', channel=11, note=86, velocity=127, time=0),
    Message('note_on', channel=11, note=74, velocity=0, time=384),
    Message('note_on', channel=11, note=86, velocity=0, time=0),
    Message('note_on', channel=11, note=74, velocity=127, time=96),
    Message('note_on', channel=11, note=86, velocity=127, time=0),
    Message('note_on', channel=11, note=74, velocity=0, time=192),
    Message('note_on', channel=11, note=86, velocity=0, time=0),
    Message('note_on', channel=11, note=79, velocity=127, time=48),
    Message('note_on', channel=11, note=91, velocity=127, time=0),
    Message('note_on', channel=11, note=79, velocity=0, time=384),
    Message('note_on', channel=11, note=91, velocity=0, time=0),
    Message('note_on', channel=11, note=74, velocity=127, time=336),
    Message('note_on', channel=11, note=86, velocity=127, time=0),
    Message('note_on', channel=11, note=74, velocity=0, time=192),
    Message('note_on', channel=11, note=86, velocity=0, time=0),
    Message('note_on', channel=11, note=76, velocity=127, time=48),
    Message('note_on', channel=11, note=88, velocity=127, time=0),
    Message('note_on', channel=11, note=76, velocity=0, time=192),
    Message('note_on', channel=11, note=88, velocity=0, time=0),
    Message('note_on', channel=11, note=74, velocity=127, time=48),
    Message('note_on', channel=11, note=86, velocity=127, time=0),
    Message('note_on', channel=11, note=74, velocity=0, time=384),
    Message('note_on', channel=11, note=86, velocity=0, time=0),
    Message('note_on', channel=11, note=72, velocity=127, time=336),
    Message('note_on', channel=11, note=84, velocity=127, time=0),
    Message('note_on', channel=11, note=72, velocity=0, time=192),
    Message('note_on', channel=11, note=84, velocity=0, time=0),
    Message('note_on', channel=11, note=72, velocity=127, time=48),
    Message('note_on', channel=11, note=84, velocity=127, time=0),
    Message('note_on', channel=11, note=72, velocity=0, time=384),
    Message('note_on', channel=11, note=84, velocity=0, time=0),
    Message('note_on', channel=11, note=69, velocity=127, time=336),
    Message('note_on', channel=11, note=81, velocity=127, time=0),
    Message('note_on', channel=11, note=69, velocity=0, time=192),
    Message('note_on', channel=11, note=81, velocity=0, time=0),
    Message('note_on', channel=11, note=71, velocity=127, time=48),
    Message('note_on', channel=11, note=83, velocity=127, time=0),
    Message('note_on', channel=11, note=71, velocity=0, time=384),
    Message('note_on', channel=11, note=83, velocity=0, time=0),
    Message('note_on', channel=11, note=71, velocity=127, time=96),
    Message('note_on', channel=11, note=83, velocity=127, time=0),
    Message('note_on', channel=11, note=71, velocity=0, time=192),
    Message('note_on', channel=11, note=83, velocity=0, time=0),
    Message('note_on', channel=11, note=76, velocity=127, time=48),
    Message('note_on', channel=11, note=88, velocity=127, time=0),
    Message('note_on', channel=11, note=76, velocity=0, time=384),
    Message('note_on', channel=11, note=88, velocity=0, time=0),
    Message('note_on', channel=11, note=71, velocity=127, time=336),
    Message('note_on', channel=11, note=83, velocity=127, time=0),
    Message('note_on', channel=11, note=71, velocity=0, time=384),
    Message('note_on', channel=11, note=83, velocity=0, time=0),
    Message('note_on', channel=11, note=69, velocity=127, time=96),
    Message('note_on', channel=11, note=81, velocity=127, time=0),
    Message('note_on', channel=11, note=69, velocity=0, time=384),
    Message('note_on', channel=11, note=81, velocity=0, time=0),
    Message('note_on', channel=11, note=69, velocity=127, time=576),
    Message('note_on', channel=11, note=81, velocity=127, time=0),
    Message('note_on', channel=11, note=69, velocity=0, time=288),
    Message('note_on', channel=11, note=81, velocity=0, time=0),
    Message('note_on', channel=11, note=71, velocity=127, time=72),
    Message('note_on', channel=11, note=83, velocity=127, time=0),
    Message('note_on', channel=11, note=71, velocity=0, time=288),
    Message('note_on', channel=11, note=83, velocity=0, time=0),
    Message('note_on', channel=11, note=72, velocity=127, time=72),
    Message('note_on', channel=11, note=84, velocity=127, time=0),
    Message('note_on', channel=11, note=72, velocity=0, time=192),
    Message('note_on', channel=11, note=84, velocity=0, time=0),
    Message('note_on', channel=11, note=74, velocity=127, time=48),
    Message('note_on', channel=11, note=86, velocity=127, time=0),
    Message('note_on', channel=11, note=74, velocity=0, time=384),
    Message('note_on', channel=11, note=86, velocity=0, time=0),
    Message('note_on', channel=11, note=69, velocity=127, time=96),
    Message('note_on', channel=11, note=81, velocity=127, time=0),
    Message('note_on', channel=11, note=69, velocity=0, time=384),
    Message('note_on', channel=11, note=81, velocity=0, time=0),
    Message('note_on', channel=11, note=71, velocity=127, time=96),
    Message('note_on', channel=11, note=83, velocity=127, time=0),
    Message('note_on', channel=11, note=71, velocity=0, time=384),
    Message('note_on', channel=11, note=83, velocity=0, time=0),
    Message('note_on', channel=11, note=72, velocity=127, time=96),
    Message('note_on', channel=11, note=84, velocity=127, time=0),
    Message('note_on', channel=11, note=72, velocity=0, time=384),
    Message('note_on', channel=11, note=84, velocity=0, time=0),
    Message('note_on', channel=11, note=71, velocity=127, time=96),
    Message('note_on', channel=11, note=83, velocity=127, time=0),
    Message('note_on', channel=11, note=71, velocity=0, time=384),
    Message('note_on', channel=11, note=83, velocity=0, time=0),
    Message('note_on', channel=11, note=72, velocity=127, time=576),
    Message('note_on', channel=11, note=84, velocity=127, time=0),
    Message('note_on', channel=11, note=72, velocity=0, time=384),
    Message('note_on', channel=11, note=84, velocity=0, time=0),
    Message('note_on', channel=11, note=74, velocity=127, time=336),
    Message('note_on', channel=11, note=86, velocity=127, time=0),
    Message('note_on', channel=11, note=74, velocity=0, time=192),
    Message('note_on', channel=11, note=86, velocity=0, time=0),
    Message('note_on', channel=11, note=74, velocity=127, time=48),
    Message('note_on', channel=11, note=86, velocity=127, time=0),
    Message('note_on', channel=11, note=74, velocity=0, time=768),
    Message('note_on', channel=11, note=86, velocity=0, time=0),
    Message('note_on', channel=11, note=60, velocity=127, time=2832),
    Message('note_on', channel=11, note=72, velocity=127, time=0),
    Message('note_on', channel=11, note=84, velocity=127, time=0),
    Message('note_on', channel=11, note=60, velocity=0, time=96),
    Message('note_on', channel=11, note=72, velocity=0, time=0),
    Message('note_on', channel=11, note=84, velocity=0, time=0),
    Message('note_on', channel=11, note=62, velocity=127, time=24),
    Message('note_on', channel=11, note=74, velocity=127, time=0),
    Message('note_on', channel=11, note=86, velocity=127, time=0),
    Message('note_on', channel=11, note=62, velocity=0, time=96),
    Message('note_on', channel=11, note=74, velocity=0, time=0),
    Message('note_on', channel=11, note=86, velocity=0, time=0),
    Message('note_on', channel=11, note=64, velocity=127, time=24),
    Message('note_on', channel=11, note=76, velocity=127, time=0),
    Message('note_on', channel=11, note=88, velocity=127, time=0),
    Message('note_on', channel=11, note=64, velocity=0, time=384),
    Message('note_on', channel=11, note=76, velocity=0, time=0),
    Message('note_on', channel=11, note=88, velocity=0, time=0),
    Message('note_on', channel=11, note=64, velocity=127, time=336),
    Message('note_on', channel=11, note=76, velocity=127, time=0),
    Message('note_on', channel=11, note=88, velocity=127, time=0),
    Message('note_on', channel=11, note=64, velocity=0, time=192),
    Message('note_on', channel=11, note=76, velocity=0, time=0),
    Message('note_on', channel=11, note=88, velocity=0, time=0),
    Message('note_on', channel=11, note=67, velocity=127, time=48),
    Message('note_on', channel=11, note=79, velocity=127, time=0),
    Message('note_on', channel=11, note=91, velocity=127, time=0),
    Message('note_on', channel=11, note=67, velocity=0, time=288),
    Message('note_on', channel=11, note=79, velocity=0, time=0),
    Message('note_on', channel=11, note=91, velocity=0, time=0),
    Message('note_on', channel=11, note=65, velocity=127, time=72),
    Message('note_on', channel=11, note=77, velocity=127, time=0),
    Message('note_on', channel=11, note=89, velocity=127, time=0),
    Message('note_on', channel=11, note=65, velocity=0, time=288),
    Message('note_on', channel=11, note=77, velocity=0, time=0),
    Message('note_on', channel=11, note=89, velocity=0, time=0),
    Message('note_on', channel=11, note=64, velocity=127, time=72),
    Message('note_on', channel=11, note=76, velocity=127, time=0),
    Message('note_on', channel=11, note=88, velocity=127, time=0),
    Message('note_on', channel=11, note=64, velocity=0, time=192),
    Message('note_on', channel=11, note=76, velocity=0, time=0),
    Message('note_on', channel=11, note=88, velocity=0, time=0),
    Message('note_on', channel=11, note=62, velocity=127, time=48),
    Message('note_on', channel=11, note=74, velocity=127, time=0),
    Message('note_on', channel=11, note=86, velocity=127, time=0),
    Message('note_on', channel=11, note=62, velocity=0, time=384),
    Message('note_on', channel=11, note=74, velocity=0, time=0),
    Message('note_on', channel=11, note=86, velocity=0, time=0),
    Message('note_on', channel=11, note=55, velocity=127, time=336),
    Message('note_on', channel=11, note=67, velocity=127, time=0),
    Message('note_on', channel=11, note=79, velocity=127, time=0),
    Message('note_on', channel=11, note=55, velocity=0, time=192),
    Message('note_on', channel=11, note=67, velocity=0, time=0),
    Message('note_on', channel=11, note=79, velocity=0, time=0),
    Message('note_on', channel=11, note=55, velocity=127, time=48),
    Message('note_on', channel=11, note=67, velocity=127, time=0),
    Message('note_on', channel=11, note=79, velocity=127, time=0),
    Message('note_on', channel=11, note=55, velocity=0, time=384),
    Message('note_on', channel=11, note=67, velocity=0, time=0),
    Message('note_on', channel=11, note=79, velocity=0, time=0),
    Message('note_on', channel=11, note=59, velocity=127, time=336),
    Message('note_on', channel=11, note=71, velocity=127, time=0),
    Message('note_on', channel=11, note=83, velocity=127, time=0),
    Message('note_on', channel=11, note=59, velocity=0, time=96),
    Message('note_on', channel=11, note=71, velocity=0, time=0),
    Message('note_on', channel=11, note=83, velocity=0, time=0),
    Message('note_on', channel=11, note=60, velocity=127, time=24),
    Message('note_on', channel=11, note=72, velocity=127, time=0),
    Message('note_on', channel=11, note=84, velocity=127, time=0),
    Message('note_on', channel=11, note=60, velocity=0, time=96),
    Message('note_on', channel=11, note=72, velocity=0, time=0),
    Message('note_on', channel=11, note=84, velocity=0, time=0),
    Message('note_on', channel=11, note=62, velocity=127, time=24),
    Message('note_on', channel=11, note=74, velocity=127, time=0),
    Message('note_on', channel=11, note=86, velocity=127, time=0),
    Message('note_on', channel=11, note=62, velocity=0, time=384),
    Message('note_on', channel=11, note=74, velocity=0, time=0),
    Message('note_on', channel=11, note=86, velocity=0, time=0),
    Message('note_on', channel=11, note=62, velocity=127, time=336),
    Message('note_on', channel=11, note=74, velocity=127, time=0),
    Message('note_on', channel=11, note=86, velocity=127, time=0),
    Message('note_on', channel=11, note=62, velocity=0, time=192),
    Message('note_on', channel=11, note=74, velocity=0, time=0),
    Message('note_on', channel=11, note=86, velocity=0, time=0),
    Message('note_on', channel=11, note=65, velocity=127, time=48),
    Message('note_on', channel=11, note=77, velocity=127, time=0),
    Message('note_on', channel=11, note=89, velocity=127, time=0),
    Message('note_on', channel=11, note=65, velocity=0, time=288),
    Message('note_on', channel=11, note=77, velocity=0, time=0),
    Message('note_on', channel=11, note=89, velocity=0, time=0),
    Message('note_on', channel=11, note=64, velocity=127, time=72),
    Message('note_on', channel=11, note=76, velocity=127, time=0),
    Message('note_on', channel=11, note=88, velocity=127, time=0),
    Message('note_on', channel=11, note=64, velocity=0, time=288),
    Message('note_on', channel=11, note=76, velocity=0, time=0),
    Message('note_on', channel=11, note=88, velocity=0, time=0),
    Message('note_on', channel=11, note=62, velocity=127, time=72),
    Message('note_on', channel=11, note=74, velocity=127, time=0),
    Message('note_on', channel=11, note=86, velocity=127, time=0),
    Message('note_on', channel=11, note=62, velocity=0, time=192),
    Message('note_on', channel=11, note=74, velocity=0, time=0),
    Message('note_on', channel=11, note=86, velocity=0, time=0),
    Message('note_on', channel=11, note=62, velocity=127, time=48),
    Message('note_on', channel=11, note=74, velocity=127, time=0),
    Message('note_on', channel=11, note=86, velocity=127, time=0),
    Message('note_on', channel=11, note=62, velocity=0, time=384),
    Message('note_on', channel=11, note=74, velocity=0, time=0),
    Message('note_on', channel=11, note=86, velocity=0, time=0),
    Message('note_on', channel=11, note=60, velocity=127, time=336),
    Message('note_on', channel=11, note=72, velocity=127, time=0),
    Message('note_on', channel=11, note=84, velocity=127, time=0),
    Message('note_on', channel=11, note=60, velocity=0, time=192),
    Message('note_on', channel=11, note=72, velocity=0, time=0),
    Message('note_on', channel=11, note=84, velocity=0, time=0),
    Message('note_on', channel=11, note=60, velocity=127, time=48),
    Message('note_on', channel=11, note=72, velocity=127, time=0),
    Message('note_on', channel=11, note=84, velocity=127, time=0),
    Message('note_on', channel=11, note=60, velocity=0, time=480),
    Message('note_on', channel=11, note=72, velocity=0, time=0),
    Message('note_on', channel=11, note=84, velocity=0, time=0),
    Message('note_on', channel=11, note=57, velocity=127, time=960),
    Message('note_on', channel=11, note=69, velocity=127, time=0),
    Message('note_on', channel=11, note=81, velocity=127, time=0),
    Message('note_on', channel=11, note=57, velocity=0, time=384),
    Message('note_on', channel=11, note=69, velocity=0, time=0),
    Message('note_on', channel=11, note=81, velocity=0, time=0),
    Message('note_on', channel=11, note=59, velocity=127, time=96),
    Message('note_on', channel=11, note=71, velocity=127, time=0),
    Message('note_on', channel=11, note=83, velocity=127, time=0),
    Message('note_on', channel=11, note=59, velocity=0, time=384),
    Message('note_on', channel=11, note=71, velocity=0, time=0),
    Message('note_on', channel=11, note=83, velocity=0, time=0),
    Message('note_on', channel=11, note=60, velocity=127, time=96),
    Message('note_on', channel=11, note=72, velocity=127, time=0),
    Message('note_on', channel=11, note=84, velocity=127, time=0),
    Message('note_on', channel=11, note=60, velocity=0, time=384),
    Message('note_on', channel=11, note=72, velocity=0, time=0),
    Message('note_on', channel=11, note=84, velocity=0, time=0),
    Message('note_on', channel=11, note=65, velocity=127, time=96),
    Message('note_on', channel=11, note=77, velocity=127, time=0),
    Message('note_on', channel=11, note=89, velocity=127, time=0),
    Message('note_on', channel=11, note=65, velocity=0, time=384),
    Message('note_on', channel=11, note=77, velocity=0, time=0),
    Message('note_on', channel=11, note=89, velocity=0, time=0),
    Message('note_on', channel=11, note=64, velocity=127, time=96),
    Message('note_on', channel=11, note=76, velocity=127, time=0),
    Message('note_on', channel=11, note=88, velocity=127, time=0),
    Message('note_on', channel=11, note=64, velocity=0, time=192),
    Message('note_on', channel=11, note=76, velocity=0, time=0),
    Message('note_on', channel=11, note=88, velocity=0, time=0),
    Message('note_on', channel=11, note=62, velocity=127, time=48),
    Message('note_on', channel=11, note=74, velocity=127, time=0),
    Message('note_on', channel=11, note=86, velocity=127, time=0),
    Message('note_on', channel=11, note=62, velocity=0, time=384),
    Message('note_on', channel=11, note=74, velocity=0, time=0),
    Message('note_on', channel=11, note=86, velocity=0, time=0),
    Message('note_on', channel=11, note=60, velocity=127, time=96),
    Message('note_on', channel=11, note=72, velocity=127, time=0),
    Message('note_on', channel=11, note=84, velocity=127, time=0),
    Message('note_on', channel=11, note=60, velocity=0, time=384),
    Message('note_on', channel=11, note=72, velocity=0, time=0),
    Message('note_on', channel=11, note=84, velocity=0, time=0),
    Message('note_on', channel=11, note=64, velocity=127, time=96),
    Message('note_on', channel=11, note=76, velocity=127, time=0),
    Message('note_on', channel=11, note=88, velocity=127, time=0),
    Message('note_on', channel=11, note=76, velocity=0, time=240),
    Message('note_on', channel=11, note=88, velocity=0, time=0),
    Message('note_on', channel=11, note=76, velocity=127, time=0),
    Message('note_on', channel=11, note=88, velocity=127, time=0),
    Message('note_on', channel=11, note=64, velocity=0, time=192),
    Message('note_on', channel=11, note=76, velocity=0, time=0),
    Message('note_on', channel=11, note=88, velocity=0, time=0),
    Message('note_on', channel=11, note=64, velocity=127, time=768),
    Message('note_on', channel=11, note=76, velocity=127, time=0),
    Message('note_on', channel=11, note=88, velocity=127, time=0),
    Message('note_on', channel=11, note=64, velocity=0, time=192),
    Message('note_on', channel=11, note=76, velocity=0, time=0),
    Message('note_on', channel=11, note=88, velocity=0, time=0),
    Message('note_on', channel=11, note=62, velocity=127, time=48),
    Message('note_on', channel=11, note=74, velocity=127, time=0),
    Message('note_on', channel=11, note=86, velocity=127, time=0),
    Message('note_on', channel=11, note=62, velocity=0, time=192),
    Message('note_on', channel=11, note=74, velocity=0, time=0),
    Message('note_on', channel=11, note=86, velocity=0, time=0),
    Message('note_on', channel=11, note=60, velocity=127, time=48),
    Message('note_on', channel=11, note=72, velocity=127, time=0),
    Message('note_on', channel=11, note=84, velocity=127, time=0),
    Message('note_on', channel=11, note=60, velocity=0, time=192),
    Message('note_on', channel=11, note=72, velocity=0, time=0),
    Message('note_on', channel=11, note=84, velocity=0, time=0),
    Message('note_on', channel=11, note=62, velocity=127, time=48),
    Message('note_on', channel=11, note=74, velocity=127, time=0),
    Message('note_on', channel=11, note=86, velocity=127, time=0),
    Message('note_on', channel=11, note=74, velocity=0, time=240),
    Message('note_on', channel=11, note=86, velocity=0, time=0),
    Message('note_on', channel=11, note=74, velocity=127, time=0),
    Message('note_on', channel=11, note=86, velocity=127, time=0),
    Message('note_on', channel=11, note=62, velocity=0, time=1344),
    Message('note_on', channel=11, note=74, velocity=0, time=0),
    Message('note_on', channel=11, note=86, velocity=0, time=0),
    Message('note_on', channel=11, note=60, velocity=127, time=336),
    Message('note_on', channel=11, note=72, velocity=127, time=0),
    Message('note_on', channel=11, note=84, velocity=127, time=0),
    Message('note_on', channel=11, note=60, velocity=0, time=96),
    Message('note_on', channel=11, note=72, velocity=0, time=0),
    Message('note_on', channel=11, note=84, velocity=0, time=0),
    Message('note_on', channel=11, note=62, velocity=127, time=24),
    Message('note_on', channel=11, note=74, velocity=127, time=0),
    Message('note_on', channel=11, note=86, velocity=127, time=0),
    Message('note_on', channel=11, note=62, velocity=0, time=96),
    Message('note_on', channel=11, note=74, velocity=0, time=0),
    Message('note_on', channel=11, note=86, velocity=0, time=0),
    Message('note_on', channel=11, note=64, velocity=127, time=24),
    Message('note_on', channel=11, note=76, velocity=127, time=0),
    Message('note_on', channel=11, note=88, velocity=127, time=0),
    Message('note_on', channel=11, note=64, velocity=0, time=384),
    Message('note_on', channel=11, note=76, velocity=0, time=0),
    Message('note_on', channel=11, note=88, velocity=0, time=0),
    Message('note_on', channel=11, note=64, velocity=127, time=336),
    Message('note_on', channel=11, note=76, velocity=127, time=0),
    Message('note_on', channel=11, note=88, velocity=127, time=0),
    Message('note_on', channel=11, note=64, velocity=0, time=192),
    Message('note_on', channel=11, note=76, velocity=0, time=0),
    Message('note_on', channel=11, note=88, velocity=0, time=0),
    Message('note_on', channel=11, note=67, velocity=127, time=48),
    Message('note_on', channel=11, note=79, velocity=127, time=0),
    Message('note_on', channel=11, note=91, velocity=127, time=0),
    Message('note_on', channel=11, note=67, velocity=0, time=288),
    Message('note_on', channel=11, note=79, velocity=0, time=0),
    Message('note_on', channel=11, note=91, velocity=0, time=0),
    Message('note_on', channel=11, note=65, velocity=127, time=72),
    Message('note_on', channel=11, note=77, velocity=127, time=0),
    Message('note_on', channel=11, note=89, velocity=127, time=0),
    Message('note_on', channel=11, note=65, velocity=0, time=288),
    Message('note_on', channel=11, note=77, velocity=0, time=0),
    Message('note_on', channel=11, note=89, velocity=0, time=0),
    Message('note_on', channel=11, note=64, velocity=127, time=72),
    Message('note_on', channel=11, note=76, velocity=127, time=0),
    Message('note_on', channel=11, note=88, velocity=127, time=0),
    Message('note_on', channel=11, note=64, velocity=0, time=192),
    Message('note_on', channel=11, note=76, velocity=0, time=0),
    Message('note_on', channel=11, note=88, velocity=0, time=0),
    Message('note_on', channel=11, note=62, velocity=127, time=48),
    Message('note_on', channel=11, note=74, velocity=127, time=0),
    Message('note_on', channel=11, note=86, velocity=127, time=0),
    Message('note_on', channel=11, note=62, velocity=0, time=384),
    Message('note_on', channel=11, note=74, velocity=0, time=0),
    Message('note_on', channel=11, note=86, velocity=0, time=0),
    Message('note_on', channel=11, note=55, velocity=127, time=336),
    Message('note_on', channel=11, note=67, velocity=127, time=0),
    Message('note_on', channel=11, note=79, velocity=127, time=0),
    Message('note_on', channel=11, note=55, velocity=0, time=192),
    Message('note_on', channel=11, note=67, velocity=0, time=0),
    Message('note_on', channel=11, note=79, velocity=0, time=0),
    Message('note_on', channel=11, note=55, velocity=127, time=48),
    Message('note_on', channel=11, note=67, velocity=127, time=0),
    Message('note_on', channel=11, note=79, velocity=127, time=0),
    Message('note_on', channel=11, note=55, velocity=0, time=384),
    Message('note_on', channel=11, note=67, velocity=0, time=0),
    Message('note_on', channel=11, note=79, velocity=0, time=0),
    Message('note_on', channel=11, note=59, velocity=127, time=336),
    Message('note_on', channel=11, note=71, velocity=127, time=0),
    Message('note_on', channel=11, note=83, velocity=127, time=0),
    Message('note_on', channel=11, note=59, velocity=0, time=96),
    Message('note_on', channel=11, note=71, velocity=0, time=0),
    Message('note_on', channel=11, note=83, velocity=0, time=0),
    Message('note_on', channel=11, note=60, velocity=127, time=24),
    Message('note_on', channel=11, note=72, velocity=127, time=0),
    Message('note_on', channel=11, note=84, velocity=127, time=0),
    Message('note_on', channel=11, note=60, velocity=0, time=96),
    Message('note_on', channel=11, note=72, velocity=0, time=0),
    Message('note_on', channel=11, note=84, velocity=0, time=0),
    Message('note_on', channel=11, note=62, velocity=127, time=24),
    Message('note_on', channel=11, note=74, velocity=127, time=0),
    Message('note_on', channel=11, note=86, velocity=127, time=0),
    Message('note_on', channel=11, note=62, velocity=0, time=384),
    Message('note_on', channel=11, note=74, velocity=0, time=0),
    Message('note_on', channel=11, note=86, velocity=0, time=0),
    Message('note_on', channel=11, note=62, velocity=127, time=336),
    Message('note_on', channel=11, note=74, velocity=127, time=0),
    Message('note_on', channel=11, note=86, velocity=127, time=0),
    Message('note_on', channel=11, note=62, velocity=0, time=192),
    Message('note_on', channel=11, note=74, velocity=0, time=0),
    Message('note_on', channel=11, note=86, velocity=0, time=0),
    Message('note_on', channel=11, note=65, velocity=127, time=48),
    Message('note_on', channel=11, note=77, velocity=127, time=0),
    Message('note_on', channel=11, note=89, velocity=127, time=0),
    Message('note_on', channel=11, note=65, velocity=0, time=288),
    Message('note_on', channel=11, note=77, velocity=0, time=0),
    Message('note_on', channel=11, note=89, velocity=0, time=0),
    Message('note_on', channel=11, note=64, velocity=127, time=72),
    Message('note_on', channel=11, note=76, velocity=127, time=0),
    Message('note_on', channel=11, note=88, velocity=127, time=0),
    Message('note_on', channel=11, note=64, velocity=0, time=288),
    Message('note_on', channel=11, note=76, velocity=0, time=0),
    Message('note_on', channel=11, note=88, velocity=0, time=0),
    Message('note_on', channel=11, note=62, velocity=127, time=72),
    Message('note_on', channel=11, note=74, velocity=127, time=0),
    Message('note_on', channel=11, note=86, velocity=127, time=0),
    Message('note_on', channel=11, note=62, velocity=0, time=192),
    Message('note_on', channel=11, note=74, velocity=0, time=0),
    Message('note_on', channel=11, note=86, velocity=0, time=0),
    Message('note_on', channel=11, note=62, velocity=127, time=48),
    Message('note_on', channel=11, note=74, velocity=127, time=0),
    Message('note_on', channel=11, note=86, velocity=127, time=0),
    Message('note_on', channel=11, note=62, velocity=0, time=384),
    Message('note_on', channel=11, note=74, velocity=0, time=0),
    Message('note_on', channel=11, note=86, velocity=0, time=0),
    Message('note_on', channel=11, note=60, velocity=127, time=336),
    Message('note_on', channel=11, note=72, velocity=127, time=0),
    Message('note_on', channel=11, note=84, velocity=127, time=0),
    Message('note_on', channel=11, note=60, velocity=0, time=192),
    Message('note_on', channel=11, note=72, velocity=0, time=0),
    Message('note_on', channel=11, note=84, velocity=0, time=0),
    Message('note_on', channel=11, note=60, velocity=127, time=48),
    Message('note_on', channel=11, note=72, velocity=127, time=0),
    Message('note_on', channel=11, note=84, velocity=127, time=0),
    Message('note_on', channel=11, note=60, velocity=0, time=384),
    Message('note_on', channel=11, note=72, velocity=0, time=0),
    Message('note_on', channel=11, note=84, velocity=0, time=0),
    Message('note_on', channel=11, note=57, velocity=127, time=336),
    Message('note_on', channel=11, note=69, velocity=127, time=0),
    Message('note_on', channel=11, note=81, velocity=127, time=0),
    Message('note_on', channel=11, note=57, velocity=0, time=192),
    Message('note_on', channel=11, note=69, velocity=0, time=0),
    Message('note_on', channel=11, note=81, velocity=0, time=0),
    Message('note_on', channel=11, note=65, velocity=127, time=48),
    Message('note_on', channel=11, note=77, velocity=127, time=0),
    Message('note_on', channel=11, note=89, velocity=127, time=0),
    Message('note_on', channel=11, note=65, velocity=0, time=288),
    Message('note_on', channel=11, note=77, velocity=0, time=0),
    Message('note_on', channel=11, note=89, velocity=0, time=0),
    Message('note_on', channel=11, note=64, velocity=127, time=72),
    Message('note_on', channel=11, note=76, velocity=127, time=0),
    Message('note_on', channel=11, note=88, velocity=127, time=0),
    Message('note_on', channel=11, note=64, velocity=0, time=288),
    Message('note_on', channel=11, note=76, velocity=0, time=0),
    Message('note_on', channel=11, note=88, velocity=0, time=0),
    Message('note_on', channel=11, note=62, velocity=127, time=72),
    Message('note_on', channel=11, note=74, velocity=127, time=0),
    Message('note_on', channel=11, note=86, velocity=127, time=0),
    Message('note_on', channel=11, note=62, velocity=0, time=192),
    Message('note_on', channel=11, note=74, velocity=0, time=0),
    Message('note_on', channel=11, note=86, velocity=0, time=0),
    Message('note_on', channel=11, note=60, velocity=127, time=48),
    Message('note_on', channel=11, note=72, velocity=127, time=0),
    Message('note_on', channel=11, note=84, velocity=127, time=0),
    Message('note_on', channel=11, note=60, velocity=0, time=192),
    Message('note_on', channel=11, note=72, velocity=0, time=0),
    Message('note_on', channel=11, note=84, velocity=0, time=0),
    Message('note_on', channel=11, note=59, velocity=127, time=48),
    Message('note_on', channel=11, note=71, velocity=127, time=0),
    Message('note_on', channel=11, note=83, velocity=127, time=0),
    Message('note_on', channel=11, note=59, velocity=0, time=384),
    Message('note_on', channel=11, note=71, velocity=0, time=0),
    Message('note_on', channel=11, note=83, velocity=0, time=0),
    Message('note_on', channel=11, note=67, velocity=127, time=336),
    Message('note_on', channel=11, note=79, velocity=127, time=0),
    Message('note_on', channel=11, note=91, velocity=127, time=0),
    Message('note_on', channel=11, note=67, velocity=0, time=288),
    Message('note_on', channel=11, note=79, velocity=0, time=0),
    Message('note_on', channel=11, note=91, velocity=0, time=0),
    Message('note_on', channel=11, note=65, velocity=127, time=72),
    Message('note_on', channel=11, note=89, velocity=127, time=0),
    Message('note_on', channel=11, note=77, velocity=127, time=0),
    Message('note_on', channel=11, note=65, velocity=0, time=288),
    Message('note_on', channel=11, note=89, velocity=0, time=0),
    Message('note_on', channel=11, note=77, velocity=0, time=0),
    Message('note_on', channel=11, note=64, velocity=127, time=72),
    Message('note_on', channel=11, note=76, velocity=127, time=0),
    Message('note_on', channel=11, note=88, velocity=127, time=0),
    Message('note_on', channel=11, note=64, velocity=0, time=192),
    Message('note_on', channel=11, note=76, velocity=0, time=0),
    Message('note_on', channel=11, note=88, velocity=0, time=0),
    Message('note_on', channel=11, note=62, velocity=127, time=48),
    Message('note_on', channel=11, note=74, velocity=127, time=0),
    Message('note_on', channel=11, note=86, velocity=127, time=0),
    Message('note_on', channel=11, note=62, velocity=0, time=192),
    Message('note_on', channel=11, note=74, velocity=0, time=0),
    Message('note_on', channel=11, note=86, velocity=0, time=0),
    Message('note_on', channel=11, note=60, velocity=127, time=48),
    Message('note_on', channel=11, note=72, velocity=127, time=0),
    Message('note_on', channel=11, note=84, velocity=127, time=0),
    Message('note_on', channel=11, note=60, velocity=0, time=384),
    Message('note_on', channel=11, note=72, velocity=0, time=0),
    Message('note_on', channel=11, note=84, velocity=0, time=0),
    Message('note_on', channel=11, note=60, velocity=127, time=96),
    Message('note_on', channel=11, note=72, velocity=127, time=0),
    Message('note_on', channel=11, note=84, velocity=127, time=0),
    Message('note_on', channel=11, note=60, velocity=0, time=96),
    Message('note_on', channel=11, note=72, velocity=0, time=0),
    Message('note_on', channel=11, note=84, velocity=0, time=0),
    Message('note_on', channel=11, note=62, velocity=127, time=24),
    Message('note_on', channel=11, note=74, velocity=127, time=0),
    Message('note_on', channel=11, note=86, velocity=127, time=0),
    Message('note_on', channel=11, note=62, velocity=0, time=96),
    Message('note_on', channel=11, note=74, velocity=0, time=0),
    Message('note_on', channel=11, note=86, velocity=0, time=0),
    Message('note_on', channel=11, note=65, velocity=127, time=24),
    Message('note_on', channel=11, note=77, velocity=127, time=0),
    Message('note_on', channel=11, note=89, velocity=127, time=0),
    Message('note_on', channel=11, note=65, velocity=0, time=288),
    Message('note_on', channel=11, note=77, velocity=0, time=0),
    Message('note_on', channel=11, note=89, velocity=0, time=0),
    Message('note_on', channel=11, note=64, velocity=127, time=72),
    Message('note_on', channel=11, note=88, velocity=127, time=0),
    Message('note_on', channel=11, note=76, velocity=127, time=0),
    Message('note_on', channel=11, note=64, velocity=0, time=288),
    Message('note_on', channel=11, note=88, velocity=0, time=0),
    Message('note_on', channel=11, note=76, velocity=0, time=0),
    Message('note_on', channel=11, note=62, velocity=127, time=72),
    Message('note_on', channel=11, note=74, velocity=127, time=0),
    Message('note_on', channel=11, note=86, velocity=127, time=0),
    Message('note_on', channel=11, note=62, velocity=0, time=192),
    Message('note_on', channel=11, note=74, velocity=0, time=0),
    Message('note_on', channel=11, note=86, velocity=0, time=0),
    Message('note_on', channel=11, note=60, velocity=127, time=48),
    Message('note_on', channel=11, note=72, velocity=127, time=0),
    Message('note_on', channel=11, note=84, velocity=127, time=0),
    Message('note_on', channel=11, note=60, velocity=0, time=192),
    Message('note_on', channel=11, note=72, velocity=0, time=0),
    Message('note_on', channel=11, note=84, velocity=0, time=0),
    Message('note_on', channel=11, note=59, velocity=127, time=48),
    Message('note_on', channel=11, note=71, velocity=127, time=0),
    Message('note_on', channel=11, note=83, velocity=127, time=0),
    Message('note_on', channel=11, note=59, velocity=0, time=192),
    Message('note_on', channel=11, note=71, velocity=0, time=0),
    Message('note_on', channel=11, note=83, velocity=0, time=0),
    Message('note_on', channel=11, note=59, velocity=127, time=48),
    Message('note_on', channel=11, note=71, velocity=127, time=0),
    Message('note_on', channel=11, note=83, velocity=127, time=0),
    Message('note_on', channel=11, note=59, velocity=0, time=192),
    Message('note_on', channel=11, note=71, velocity=0, time=0),
    Message('note_on', channel=11, note=83, velocity=0, time=0),
    Message('note_on', channel=11, note=60, velocity=127, time=48),
    Message('note_on', channel=11, note=72, velocity=127, time=0),
    Message('note_on', channel=11, note=84, velocity=127, time=0),
    Message('note_on', channel=11, note=60, velocity=0, time=192),
    Message('note_on', channel=11, note=72, velocity=0, time=0),
    Message('note_on', channel=11, note=84, velocity=0, time=0),
    Message('note_on', channel=11, note=60, velocity=127, time=48),
    Message('note_on', channel=11, note=72, velocity=127, time=0),
    Message('note_on', channel=11, note=84, velocity=127, time=0),
    Message('note_on', channel=11, note=60, velocity=0, time=1536),
    Message('note_on', channel=11, note=72, velocity=0, time=0),
    Message('note_on', channel=11, note=84, velocity=0, time=0),
    Message('note_on', channel=11, note=58, velocity=127, time=1104),
    Message('note_on', channel=11, note=70, velocity=127, time=0),
    Message('note_on', channel=11, note=82, velocity=127, time=0),
    Message('note_on', channel=11, note=58, velocity=0, time=192),
    Message('note_on', channel=11, note=70, velocity=0, time=0),
    Message('note_on', channel=11, note=82, velocity=0, time=0),
    Message('note_on', channel=11, note=58, velocity=127, time=48),
    Message('note_on', channel=11, note=70, velocity=127, time=0),
    Message('note_on', channel=11, note=82, velocity=127, time=0),
    Message('note_on', channel=11, note=58, velocity=0, time=192),
    Message('note_on', channel=11, note=70, velocity=0, time=0),
    Message('note_on', channel=11, note=82, velocity=0, time=0),
    Message('note_on', channel=11, note=58, velocity=127, time=48),
    Message('note_on', channel=11, note=70, velocity=127, time=0),
    Message('note_on', channel=11, note=82, velocity=127, time=0),
    Message('note_on', channel=11, note=58, velocity=0, time=192),
    Message('note_on', channel=11, note=70, velocity=0, time=0),
    Message('note_on', channel=11, note=82, velocity=0, time=0),
    Message('note_on', channel=11, note=58, velocity=127, time=48),
    Message('note_on', channel=11, note=70, velocity=127, time=0),
    Message('note_on', channel=11, note=82, velocity=127, time=0),
    Message('note_on', channel=11, note=58, velocity=0, time=192),
    Message('note_on', channel=11, note=70, velocity=0, time=0),
    Message('note_on', channel=11, note=82, velocity=0, time=0),
    Message('note_on', channel=11, note=60, velocity=127, time=48),
    Message('note_on', channel=11, note=72, velocity=127, time=0),
    Message('note_on', channel=11, note=84, velocity=127, time=0),
    Message('note_on', channel=11, note=60, velocity=0, time=192),
    Message('note_on', channel=11, note=72, velocity=0, time=0),
    Message('note_on', channel=11, note=84, velocity=0, time=0),
    Message('note_on', channel=11, note=60, velocity=127, time=48),
    Message('note_on', channel=11, note=72, velocity=127, time=0),
    Message('note_on', channel=11, note=84, velocity=127, time=0),
    Message('note_on', channel=11, note=60, velocity=0, time=384),
    Message('note_on', channel=11, note=72, velocity=0, time=0),
    Message('note_on', channel=11, note=84, velocity=0, time=0),
    MetaMessage('end_of_track', time=39936)]),
  MidiTrack([
    Message('control_change', channel=10, control=0, value=0, time=0),
    Message('control_change', channel=10, control=32, value=0, time=0),
    Message('program_change', channel=10, program=27, time=0),
    Message('control_change', channel=10, control=7, value=100, time=0),
    Message('control_change', channel=10, control=10, value=64, time=0),
    Message('note_on', channel=10, note=60, velocity=100, time=28800),
    Message('pitchwheel', channel=10, pitch=0, time=456),
    Message('note_on', channel=10, note=60, velocity=0, time=24),
    Message('note_on', channel=10, note=81, velocity=100, time=0),
    Message('note_on', channel=10, note=81, velocity=0, time=240),
    Message('note_on', channel=10, note=79, velocity=100, time=0),
    Message('note_on', channel=10, note=79, velocity=0, time=240),
    Message('note_on', channel=10, note=72, velocity=100, time=0),
    Message('note_on', channel=10, note=76, velocity=100, time=0),
    Message('note_on', channel=10, note=72, velocity=0, time=240),
    Message('note_on', channel=10, note=76, velocity=0, time=0),
    Message('note_on', channel=10, note=74, velocity=100, time=0),
    Message('note_on', channel=10, note=74, velocity=0, time=120),
    Message('note_on', channel=10, note=72, velocity=100, time=0),
    Message('note_on', channel=10, note=72, velocity=0, time=120),
    Message('note_on', channel=10, note=69, velocity=100, time=0),
    Message('note_on', channel=10, note=69, velocity=0, time=240),
    Message('note_on', channel=10, note=69, velocity=100, time=0),
    Message('note_on', channel=10, note=65, velocity=100, time=0),
    Message('note_on', channel=10, note=69, velocity=0, time=240),
    Message('note_on', channel=10, note=65, velocity=0, time=0),
    Message('note_on', channel=10, note=48, velocity=100, time=7680),
    Message('note_on', channel=10, note=48, velocity=0, time=576),
    Message('note_on', channel=10, note=48, velocity=100, time=144),
    Message('note_on', channel=10, note=48, velocity=0, time=384),
    Message('note_on', channel=10, note=48, velocity=100, time=96),
    Message('note_on', channel=10, note=48, velocity=0, time=384),
    Message('note_on', channel=10, note=47, velocity=100, time=336),
    Message('note_on', channel=10, note=47, velocity=0, time=576),
    Message('note_on', channel=10, note=47, velocity=100, time=144),
    Message('note_on', channel=10, note=47, velocity=0, time=384),
    Message('note_on', channel=10, note=47, velocity=100, time=96),
    Message('note_on', channel=10, note=47, velocity=0, time=384),
    Message('note_on', channel=10, note=45, velocity=100, time=336),
    Message('note_on', channel=10, note=45, velocity=0, time=576),
    Message('note_on', channel=10, note=45, velocity=100, time=144),
    Message('note_on', channel=10, note=45, velocity=0, time=384),
    Message('note_on', channel=10, note=45, velocity=100, time=96),
    Message('note_on', channel=10, note=45, velocity=0, time=384),
    Message('note_on', channel=10, note=43, velocity=100, time=336),
    Message('note_on', channel=10, note=43, velocity=0, time=576),
    Message('note_on', channel=10, note=43, velocity=100, time=144),
    Message('note_on', channel=10, note=43, velocity=0, time=384),
    Message('note_on', channel=10, note=43, velocity=100, time=96),
    Message('note_on', channel=10, note=43, velocity=0, time=384),
    Message('note_on', channel=10, note=41, velocity=100, time=336),
    Message('note_on', channel=10, note=41, velocity=0, time=576),
    Message('note_on', channel=10, note=41, velocity=100, time=144),
    Message('note_on', channel=10, note=41, velocity=0, time=384),
    Message('note_on', channel=10, note=41, velocity=100, time=96),
    Message('note_on', channel=10, note=41, velocity=0, time=384),
    Message('note_on', channel=10, note=41, velocity=100, time=576),
    Message('note_on', channel=10, note=41, velocity=0, time=384),
    Message('note_on', channel=10, note=41, velocity=100, time=96),
    Message('note_on', channel=10, note=41, velocity=0, time=384),
    Message('note_on', channel=10, note=41, velocity=100, time=96),
    Message('note_on', channel=10, note=41, velocity=0, time=384),
    Message('note_on', channel=10, note=41, velocity=100, time=96),
    Message('note_on', channel=10, note=41, velocity=0, time=192),
    Message('note_on', channel=10, note=43, velocity=100, time=288),
    Message('note_on', channel=10, note=43, velocity=0, time=384),
    Message('note_on', channel=10, note=43, velocity=100, time=96),
    Message('note_on', channel=10, note=43, velocity=0, time=384),
    Message('note_on', channel=10, note=43, velocity=100, time=96),
    Message('note_on', channel=10, note=43, velocity=0, time=384),
    Message('note_on', channel=10, note=43, velocity=100, time=96),
    Message('note_on', channel=10, note=43, velocity=0, time=192),
    Message('note_on', channel=10, note=40, velocity=100, time=48),
    Message('note_on', channel=10, note=40, velocity=0, time=1536),
    MetaMessage('end_of_track', time=75264)]),
  MidiTrack([
    Message('control_change', channel=13, control=0, value=0, time=0),
    Message('control_change', channel=13, control=32, value=0, time=0),
    Message('program_change', channel=13, program=0, time=0),
    Message('control_change', channel=13, control=7, value=100, time=0),
    Message('control_change', channel=13, control=10, value=64, time=0),
    Message('note_on', channel=13, note=65, velocity=127, time=39600),
    Message('note_on', channel=13, note=77, velocity=127, time=0),
    Message('note_on', channel=13, note=65, velocity=0, time=192),
    Message('note_on', channel=13, note=77, velocity=0, time=0),
    Message('note_on', channel=13, note=72, velocity=127, time=48),
    Message('note_on', channel=13, note=84, velocity=127, time=0),
    Message('note_on', channel=13, note=72, velocity=0, time=192),
    Message('note_on', channel=13, note=84, velocity=0, time=0),
    Message('note_on', channel=13, note=76, velocity=127, time=48),
    Message('note_on', channel=13, note=88, velocity=127, time=0),
    Message('note_on', channel=13, note=76, velocity=0, time=192),
    Message('note_on', channel=13, note=88, velocity=0, time=0),
    Message('note_on', channel=13, note=74, velocity=127, time=48),
    Message('note_on', channel=13, note=86, velocity=127, time=0),
    Message('note_on', channel=13, note=74, velocity=0, time=170),
    Message('note_on', channel=13, note=86, velocity=0, time=0),
    Message('note_on', channel=13, note=69, velocity=127, time=2950),
    Message('note_on', channel=13, note=81, velocity=127, time=0),
    Message('note_on', channel=13, note=69, velocity=0, time=192),
    Message('note_on', channel=13, note=81, velocity=0, time=0),
    Message('note_on', channel=13, note=76, velocity=127, time=48),
    Message('note_on', channel=13, note=88, velocity=127, time=0),
    Message('note_on', channel=13, note=76, velocity=0, time=192),
    Message('note_on', channel=13, note=88, velocity=0, time=0),
    Message('note_on', channel=13, note=72, velocity=127, time=48),
    Message('note_on', channel=13, note=84, velocity=127, time=0),
    Message('note_on', channel=13, note=72, velocity=0, time=192),
    Message('note_on', channel=13, note=84, velocity=0, time=0),
    Message('note_on', channel=13, note=71, velocity=127, time=48),
    Message('note_on', channel=13, note=83, velocity=127, time=0),
    Message('note_on', channel=13, note=71, velocity=0, time=192),
    Message('note_on', channel=13, note=83, velocity=0, time=0),
    Message('note_on', channel=13, note=64, velocity=127, time=7488),
    Message('note_on', channel=13, note=76, velocity=127, time=0),
    Message('note_on', channel=13, note=64, velocity=0, time=384),
    Message('note_on', channel=13, note=76, velocity=0, time=0),
    Message('note_on', channel=13, note=68, velocity=127, time=96),
    Message('note_on', channel=13, note=80, velocity=127, time=0),
    Message('note_on', channel=13, note=68, velocity=0, time=384),
    Message('note_on', channel=13, note=80, velocity=0, time=0),
    Message('note_on', channel=13, note=71, velocity=127, time=96),
    Message('note_on', channel=13, note=83, velocity=127, time=0),
    Message('note_on', channel=13, note=71, velocity=0, time=384),
    Message('note_on', channel=13, note=83, velocity=0, time=0),
    Message('note_on', channel=13, note=76, velocity=127, time=96),
    Message('note_on', channel=13, note=88, velocity=127, time=0),
    Message('note_on', channel=13, note=76, velocity=0, time=384),
    Message('note_on', channel=13, note=88, velocity=0, time=0),
    MetaMessage('end_of_track', time=74976)]),
  MidiTrack([
    Message('control_change', channel=14, control=0, value=0, time=0),
    Message('control_change', channel=14, control=32, value=0, time=0),
    Message('program_change', channel=14, program=112, time=0),
    Message('control_change', channel=14, control=7, value=100, time=0),
    Message('control_change', channel=14, control=10, value=64, time=0),
    Message('note_on', channel=14, note=89, velocity=100, time=38400),
    Message('note_on', channel=14, note=89, velocity=0, time=384),
    Message('note_on', channel=14, note=76, velocity=100, time=336),
    Message('note_on', channel=14, note=88, velocity=100, time=0),
    Message('note_on', channel=14, note=76, velocity=0, time=192),
    Message('note_on', channel=14, note=88, velocity=0, time=0),
    Message('note_on', channel=14, note=76, velocity=100, time=48),
    Message('note_on', channel=14, note=88, velocity=100, time=0),
    Message('note_on', channel=14, note=76, velocity=0, time=192),
    Message('note_on', channel=14, note=88, velocity=0, time=0),
    Message('note_on', channel=14, note=74, velocity=100, time=2688),
    Message('note_on', channel=14, note=86, velocity=100, time=0),
    Message('note_on', channel=14, note=74, velocity=0, time=384),
    Message('note_on', channel=14, note=86, velocity=0, time=0),
    Message('note_on', channel=14, note=72, velocity=100, time=336),
    Message('note_on', channel=14, note=84, velocity=100, time=0),
    Message('note_on', channel=14, note=72, velocity=0, time=192),
    Message('note_on', channel=14, note=84, velocity=0, time=0),
    Message('note_on', channel=14, note=72, velocity=100, time=48),
    Message('note_on', channel=14, note=84, velocity=100, time=0),
    Message('note_on', channel=14, note=72, velocity=0, time=192),
    Message('note_on', channel=14, note=84, velocity=0, time=0),
    Message('note_on', channel=14, note=96, velocity=100, time=2688),
    Message('note_on', channel=14, note=96, velocity=0, time=192),
    Message('note_on', channel=14, note=98, velocity=100, time=1728),
    Message('note_on', channel=14, note=98, velocity=0, time=384),
    Message('note_on', channel=14, note=86, velocity=100, time=336),
    Message('note_on', channel=14, note=93, velocity=100, time=0),
    Message('note_on', channel=14, note=86, velocity=0, time=384),
    Message('note_on', channel=14, note=93, velocity=0, time=0),
    Message('note_on', channel=14, note=96, velocity=100, time=336),
    Message('note_on', channel=14, note=86, velocity=100, time=0),
    Message('note_on', channel=14, note=96, velocity=0, time=384),
    Message('note_on', channel=14, note=86, velocity=0, time=0),
    Message('note_on', channel=14, note=95, velocity=100, time=96),
    Message('note_on', channel=14, note=91, velocity=100, time=0),
    Message('note_on', channel=14, note=95, velocity=0, time=384),
    Message('note_on', channel=14, note=91, velocity=0, time=0),
    Message('note_on', channel=14, note=76, velocity=127, time=1536),
    Message('note_on', channel=14, note=76, velocity=0, time=384),
    Message('note_on', channel=14, note=80, velocity=127, time=96),
    Message('note_on', channel=14, note=80, velocity=0, time=384),
    Message('note_on', channel=14, note=83, velocity=127, time=96),
    Message('note_on', channel=14, note=83, velocity=0, time=384),
    Message('note_on', channel=14, note=88, velocity=127, time=96),
    Message('note_on', channel=14, note=88, velocity=0, time=384),
    MetaMessage('end_of_track', time=74976)]),
  MidiTrack([
    Message('control_change', channel=12, control=0, value=0, time=0),
    Message('control_change', channel=12, control=32, value=0, time=0),
    Message('program_change', channel=12, program=52, time=0),
    Message('control_change', channel=12, control=7, value=100, time=0),
    Message('control_change', channel=12, control=10, value=64, time=0),
    Message('note_on', channel=12, note=60, velocity=100, time=55680),
    Message('note_on', channel=12, note=72, velocity=100, time=0),
    Message('note_on', channel=12, note=60, velocity=0, time=1920),
    Message('note_on', channel=12, note=72, velocity=0, time=0),
    Message('note_on', channel=12, note=59, velocity=100, time=0),
    Message('note_on', channel=12, note=71, velocity=100, time=0),
    Message('note_on', channel=12, note=59, velocity=0, time=1920),
    Message('note_on', channel=12, note=71, velocity=0, time=0),
    Message('note_on', channel=12, note=59, velocity=100, time=0),
    Message('note_on', channel=12, note=71, velocity=100, time=0),
    Message('note_on', channel=12, note=59, velocity=0, time=960),
    Message('note_on', channel=12, note=71, velocity=0, time=0),
    Message('note_on', channel=12, note=62, velocity=100, time=0),
    Message('note_on', channel=12, note=74, velocity=100, time=0),
    Message('note_on', channel=12, note=62, velocity=0, time=960),
    Message('note_on', channel=12, note=74, velocity=0, time=0),
    Message('note_on', channel=12, note=60, velocity=100, time=0),
    Message('note_on', channel=12, note=72, velocity=100, time=0),
    Message('note_on', channel=12, note=60, velocity=0, time=1920),
    Message('note_on', channel=12, note=72, velocity=0, time=0),
    Message('note_on', channel=12, note=60, velocity=100, time=7680),
    Message('note_on', channel=12, note=72, velocity=100, time=0),
    Message('note_on', channel=12, note=60, velocity=0, time=1920),
    Message('note_on', channel=12, note=72, velocity=0, time=0),
    Message('note_on', channel=12, note=59, velocity=100, time=0),
    Message('note_on', channel=12, note=71, velocity=100, time=0),
    Message('note_on', channel=12, note=59, velocity=0, time=1920),
    Message('note_on', channel=12, note=71, velocity=0, time=0),
    Message('note_on', channel=12, note=59, velocity=100, time=0),
    Message('note_on', channel=12, note=71, velocity=100, time=0),
    Message('note_on', channel=12, note=59, velocity=0, time=960),
    Message('note_on', channel=12, note=71, velocity=0, time=0),
    Message('note_on', channel=12, note=62, velocity=100, time=0),
    Message('note_on', channel=12, note=74, velocity=100, time=0),
    Message('note_on', channel=12, note=62, velocity=0, time=960),
    Message('note_on', channel=12, note=74, velocity=0, time=0),
    Message('note_on', channel=12, note=60, velocity=100, time=0),
    Message('note_on', channel=12, note=72, velocity=100, time=0),
    Message('note_on', channel=12, note=60, velocity=0, time=1920),
    Message('note_on', channel=12, note=72, velocity=0, time=0),
    MetaMessage('end_of_track', time=49920)]),
  MidiTrack([
    Message('control_change', channel=11, control=0, value=0, time=0),
    Message('control_change', channel=11, control=32, value=0, time=0),
    Message('program_change', channel=11, program=3, time=0),
    Message('control_change', channel=11, control=7, value=100, time=0),
    Message('control_change', channel=11, control=10, value=64, time=0),
    Message('note_on', channel=11, note=60, velocity=127, time=55440),
    Message('note_on', channel=11, note=60, velocity=0, time=96),
    Message('note_on', channel=11, note=60, velocity=127, time=24),
    Message('note_on', channel=11, note=60, velocity=0, time=96),
    Message('note_on', channel=11, note=60, velocity=127, time=24),
    Message('note_on', channel=11, note=60, velocity=0, time=384),
    Message('note_on', channel=11, note=60, velocity=127, time=336),
    Message('note_on', channel=11, note=60, velocity=0, time=192),
    Message('note_on', channel=11, note=60, velocity=127, time=48),
    Message('note_on', channel=11, note=60, velocity=0, time=288),
    Message('note_on', channel=11, note=60, velocity=127, time=72),
    Message('note_on', channel=11, note=60, velocity=0, time=288),
    Message('note_on', channel=11, note=60, velocity=127, time=72),
    Message('note_on', channel=11, note=60, velocity=0, time=192),
    Message('note_on', channel=11, note=59, velocity=127, time=48),
    Message('note_on', channel=11, note=59, velocity=0, time=384),
    Message('note_on', channel=11, note=59, velocity=127, time=336),
    Message('note_on', channel=11, note=59, velocity=0, time=192),
    Message('note_on', channel=11, note=59, velocity=127, time=48),
    Message('note_on', channel=11, note=59, velocity=0, time=384),
    Message('note_on', channel=11, note=59, velocity=127, time=336),
    Message('note_on', channel=11, note=59, velocity=0, time=96),
    Message('note_on', channel=11, note=59, velocity=127, time=24),
    Message('note_on', channel=11, note=59, velocity=0, time=96),
    Message('note_on', channel=11, note=59, velocity=127, time=24),
    Message('note_on', channel=11, note=59, velocity=0, time=384),
    Message('note_on', channel=11, note=59, velocity=127, time=336),
    Message('note_on', channel=11, note=59, velocity=0, time=192),
    Message('note_on', channel=11, note=59, velocity=127, time=48),
    Message('note_on', channel=11, note=59, velocity=0, time=288),
    Message('note_on', channel=11, note=59, velocity=127, time=72),
    Message('note_on', channel=11, note=59, velocity=0, time=288),
    Message('note_on', channel=11, note=59, velocity=127, time=72),
    Message('note_on', channel=11, note=59, velocity=0, time=192),
    Message('note_on', channel=11, note=57, velocity=127, time=48),
    Message('note_on', channel=11, note=57, velocity=0, time=384),
    Message('note_on', channel=11, note=57, velocity=127, time=336),
    Message('note_on', channel=11, note=57, velocity=0, time=192),
    Message('note_on', channel=11, note=57, velocity=127, time=48),
    Message('note_on', channel=11, note=57, velocity=0, time=384),
    Message('note_on', channel=11, note=60, velocity=127, time=8016),
    Message('note_on', channel=11, note=60, velocity=0, time=96),
    Message('note_on', channel=11, note=60, velocity=127, time=24),
    Message('note_on', channel=11, note=60, velocity=0, time=96),
    Message('note_on', channel=11, note=60, velocity=127, time=24),
    Message('note_on', channel=11, note=60, velocity=0, time=384),
    Message('note_on', channel=11, note=60, velocity=127, time=336),
    Message('note_on', channel=11, note=60, velocity=0, time=192),
    Message('note_on', channel=11, note=60, velocity=127, time=48),
    Message('note_on', channel=11, note=60, velocity=0, time=288),
    Message('note_on', channel=11, note=60, velocity=127, time=72),
    Message('note_on', channel=11, note=60, velocity=0, time=288),
    Message('note_on', channel=11, note=60, velocity=127, time=72),
    Message('note_on', channel=11, note=60, velocity=0, time=192),
    Message('note_on', channel=11, note=59, velocity=127, time=48),
    Message('note_on', channel=11, note=59, velocity=0, time=384),
    Message('note_on', channel=11, note=59, velocity=127, time=336),
    Message('note_on', channel=11, note=59, velocity=0, time=192),
    Message('note_on', channel=11, note=59, velocity=127, time=48),
    Message('note_on', channel=11, note=59, velocity=0, time=384),
    Message('note_on', channel=11, note=59, velocity=127, time=336),
    Message('note_on', channel=11, note=59, velocity=0, time=96),
    Message('note_on', channel=11, note=59, velocity=127, time=24),
    Message('note_on', channel=11, note=59, velocity=0, time=96),
    Message('note_on', channel=11, note=59, velocity=127, time=24),
    Message('note_on', channel=11, note=59, velocity=0, time=384),
    Message('note_on', channel=11, note=59, velocity=127, time=336),
    Message('note_on', channel=11, note=59, velocity=0, time=192),
    Message('note_on', channel=11, note=59, velocity=127, time=48),
    Message('note_on', channel=11, note=59, velocity=0, time=288),
    Message('note_on', channel=11, note=59, velocity=127, time=72),
    Message('note_on', channel=11, note=59, velocity=0, time=288),
    Message('note_on', channel=11, note=59, velocity=127, time=72),
    Message('note_on', channel=11, note=59, velocity=0, time=192),
    Message('note_on', channel=11, note=57, velocity=127, time=48),
    Message('note_on', channel=11, note=57, velocity=0, time=384),
    Message('note_on', channel=11, note=57, velocity=127, time=336),
    Message('note_on', channel=11, note=57, velocity=0, time=192),
    Message('note_on', channel=11, note=57, velocity=127, time=48),
    Message('note_on', channel=11, note=57, velocity=0, time=384),
    Message('note_on', channel=11, note=74, velocity=100, time=8976),
    Message('note_on', channel=11, note=74, velocity=0, time=192),
    Message('note_on', channel=11, note=74, velocity=100, time=48),
    Message('note_on', channel=11, note=74, velocity=0, time=192),
    Message('note_on', channel=11, note=74, velocity=100, time=48),
    Message('note_on', channel=11, note=74, velocity=0, time=192),
    Message('note_on', channel=11, note=74, velocity=100, time=48),
    Message('note_on', channel=11, note=74, velocity=0, time=192),
    Message('note_on', channel=11, note=76, velocity=100, time=48),
    Message('note_on', channel=11, note=76, velocity=0, time=192),
    Message('note_on', channel=11, note=76, velocity=100, time=48),
    Message('note_on', channel=11, note=76, velocity=0, time=384),
    MetaMessage('end_of_track', time=39936)]),
  MidiTrack([
    Message('control_change', channel=1, control=0, value=0, time=0),
    Message('control_change', channel=1, control=32, value=0, time=0),
    Message('program_change', channel=1, program=48, time=0),
    Message('control_change', channel=1, control=7, value=100, time=0),
    Message('control_change', channel=1, control=10, value=64, time=0),
    Message('note_on', channel=1, note=64, velocity=100, time=0),
    Message('note_on', channel=1, note=64, velocity=0, time=1920),
    Message('note_on', channel=1, note=62, velocity=100, time=0),
    Message('note_on', channel=1, note=62, velocity=0, time=1920),
    Message('note_on', channel=1, note=62, velocity=100, time=0),
    Message('note_on', channel=1, note=62, velocity=0, time=1920),
    Message('note_on', channel=1, note=60, velocity=100, time=0),
    Message('note_on', channel=1, note=60, velocity=0, time=1920),
    Message('note_on', channel=1, note=64, velocity=100, time=0),
    Message('note_on', channel=1, note=64, velocity=0, time=1920),
    Message('note_on', channel=1, note=62, velocity=100, time=0),
    Message('note_on', channel=1, note=62, velocity=0, time=1920),
    Message('note_on', channel=1, note=62, velocity=100, time=0),
    Message('note_on', channel=1, note=62, velocity=0, time=1920),
    Message('note_on', channel=1, note=69, velocity=100, time=0),
    Message('note_on', channel=1, note=69, velocity=0, time=1920),
    Message('note_on', channel=1, note=62, velocity=127, time=0),
    Message('note_on', channel=1, note=62, velocity=0, time=1920),
    Message('note_on', channel=1, note=64, velocity=127, time=0),
    Message('note_on', channel=1, note=64, velocity=0, time=720),
    Message('note_on', channel=1, note=62, velocity=127, time=0),
    Message('note_on', channel=1, note=62, velocity=0, time=960),
    Message('note_on', channel=1, note=62, velocity=127, time=240),
    Message('note_on', channel=1, note=62, velocity=0, time=1920),
    Message('note_on', channel=1, note=64, velocity=127, time=0),
    Message('note_on', channel=1, note=64, velocity=0, time=720),
    Message('note_on', channel=1, note=62, velocity=127, time=0),
    Message('note_on', channel=1, note=62, velocity=0, time=960),
    Message('note_on', channel=1, note=64, velocity=100, time=65520),
    Message('note_on', channel=1, note=64, velocity=0, time=1920),
    Message('note_on', channel=1, note=62, velocity=100, time=0),
    Message('note_on', channel=1, note=62, velocity=0, time=1920),
    Message('note_on', channel=1, note=62, velocity=100, time=0),
    Message('note_on', channel=1, note=62, velocity=0, time=1920),
    Message('note_on', channel=1, note=60, velocity=100, time=0),
    Message('note_on', channel=1, note=60, velocity=0, time=1920),
    Message('note_on', channel=1, note=64, velocity=100, time=0),
    Message('note_on', channel=1, note=64, velocity=0, time=1920),
    Message('note_on', channel=1, note=62, velocity=100, time=0),
    Message('note_on', channel=1, note=62, velocity=0, time=1920),
    Message('note_on', channel=1, note=62, velocity=100, time=0),
    Message('note_on', channel=1, note=62, velocity=0, time=1920),
    Message('note_on', channel=1, note=69, velocity=100, time=0),
    Message('note_on', channel=1, note=69, velocity=0, time=1920),
    Message('note_on', channel=1, note=62, velocity=127, time=0),
    Message('note_on', channel=1, note=62, velocity=0, time=1920),
    Message('note_on', channel=1, note=64, velocity=127, time=0),
    Message('note_on', channel=1, note=64, velocity=0, time=720),
    Message('note_on', channel=1, note=62, velocity=127, time=0),
    Message('note_on', channel=1, note=62, velocity=0, time=960),
    Message('note_on', channel=1, note=62, velocity=127, time=240),
    Message('note_on', channel=1, note=62, velocity=0, time=1920),
    Message('note_on', channel=1, note=64, velocity=127, time=0),
    Message('note_on', channel=1, note=64, velocity=0, time=720),
    Message('note_on', channel=1, note=62, velocity=127, time=0),
    Message('note_on', channel=1, note=62, velocity=0, time=960),
    Message('note_on', channel=1, note=62, velocity=100, time=240),
    Message('note_on', channel=1, note=62, velocity=0, time=576),
    Message('note_on', channel=1, note=61, velocity=100, time=144),
    Message('note_on', channel=1, note=61, velocity=0, time=768),
    MetaMessage('end_of_track', time=15792)]),
  MidiTrack([
    Message('control_change', channel=0, control=0, value=0, time=0),
    Message('control_change', channel=0, control=32, value=0, time=0),
    Message('program_change', channel=0, program=0, time=0),
    Message('control_change', channel=0, control=7, value=100, time=0),
    Message('control_change', channel=0, control=10, value=64, time=0),
    Message('note_on', channel=0, note=48, velocity=127, time=5760),
    Message('note_on', channel=0, note=72, velocity=127, time=0),
    Message('note_on', channel=0, note=84, velocity=127, time=0),
    Message('note_on', channel=0, note=48, velocity=0, time=384),
    Message('note_on', channel=0, note=72, velocity=0, time=0),
    Message('note_on', channel=0, note=84, velocity=0, time=0),
    Message('note_on', channel=0, note=47, velocity=127, time=96),
    Message('note_on', channel=0, note=71, velocity=127, time=0),
    Message('note_on', channel=0, note=83, velocity=127, time=0),
    Message('note_on', channel=0, note=47, velocity=0, time=384),
    Message('note_on', channel=0, note=71, velocity=0, time=0),
    Message('note_on', channel=0, note=83, velocity=0, time=0),
    Message('note_on', channel=0, note=48, velocity=127, time=96),
    Message('note_on', channel=0, note=72, velocity=127, time=0),
    Message('note_on', channel=0, note=84, velocity=127, time=0),
    Message('note_on', channel=0, note=48, velocity=0, time=384),
    Message('note_on', channel=0, note=72, velocity=0, time=0),
    Message('note_on', channel=0, note=84, velocity=0, time=0),
    Message('note_on', channel=0, note=43, velocity=127, time=96),
    Message('note_on', channel=0, note=67, velocity=127, time=0),
    Message('note_on', channel=0, note=79, velocity=127, time=0),
    Message('note_on', channel=0, note=43, velocity=0, time=384),
    Message('note_on', channel=0, note=67, velocity=0, time=0),
    Message('note_on', channel=0, note=79, velocity=0, time=0),
    Message('note_on', channel=0, note=45, velocity=127, time=96),
    Message('note_on', channel=0, note=69, velocity=127, time=0),
    Message('note_on', channel=0, note=81, velocity=127, time=0),
    Message('note_on', channel=0, note=45, velocity=0, time=768),
    Message('note_on', channel=0, note=69, velocity=0, time=0),
    Message('note_on', channel=0, note=81, velocity=0, time=0),
    Message('note_on', channel=0, note=48, velocity=127, time=4992),
    Message('note_on', channel=0, note=72, velocity=127, time=0),
    Message('note_on', channel=0, note=84, velocity=127, time=0),
    Message('note_on', channel=0, note=48, velocity=0, time=384),
    Message('note_on', channel=0, note=72, velocity=0, time=0),
    Message('note_on', channel=0, note=84, velocity=0, time=0),
    Message('note_on', channel=0, note=47, velocity=127, time=96),
    Message('note_on', channel=0, note=71, velocity=127, time=0),
    Message('note_on', channel=0, note=83, velocity=127, time=0),
    Message('note_on', channel=0, note=47, velocity=0, time=384),
    Message('note_on', channel=0, note=71, velocity=0, time=0),
    Message('note_on', channel=0, note=83, velocity=0, time=0),
    Message('note_on', channel=0, note=48, velocity=127, time=96),
    Message('note_on', channel=0, note=72, velocity=127, time=0),
    Message('note_on', channel=0, note=84, velocity=127, time=0),
    Message('note_on', channel=0, note=48, velocity=0, time=384),
    Message('note_on', channel=0, note=72, velocity=0, time=0),
    Message('note_on', channel=0, note=84, velocity=0, time=0),
    Message('note_on', channel=0, note=43, velocity=127, time=96),
    Message('note_on', channel=0, note=67, velocity=127, time=0),
    Message('note_on', channel=0, note=79, velocity=127, time=0),
    Message('note_on', channel=0, note=43, velocity=0, time=384),
    Message('note_on', channel=0, note=67, velocity=0, time=0),
    Message('note_on', channel=0, note=79, velocity=0, time=0),
    Message('note_on', channel=0, note=48, velocity=127, time=78816),
    Message('note_on', channel=0, note=72, velocity=127, time=0),
    Message('note_on', channel=0, note=84, velocity=127, time=0),
    Message('note_on', channel=0, note=48, velocity=0, time=384),
    Message('note_on', channel=0, note=72, velocity=0, time=0),
    Message('note_on', channel=0, note=84, velocity=0, time=0),
    Message('note_on', channel=0, note=47, velocity=127, time=96),
    Message('note_on', channel=0, note=71, velocity=127, time=0),
    Message('note_on', channel=0, note=83, velocity=127, time=0),
    Message('note_on', channel=0, note=47, velocity=0, time=384),
    Message('note_on', channel=0, note=71, velocity=0, time=0),
    Message('note_on', channel=0, note=83, velocity=0, time=0),
    Message('note_on', channel=0, note=48, velocity=127, time=96),
    Message('note_on', channel=0, note=72, velocity=127, time=0),
    Message('note_on', channel=0, note=84, velocity=127, time=0),
    Message('note_on', channel=0, note=48, velocity=0, time=384),
    Message('note_on', channel=0, note=72, velocity=0, time=0),
    Message('note_on', channel=0, note=84, velocity=0, time=0),
    Message('note_on', channel=0, note=43, velocity=127, time=96),
    Message('note_on', channel=0, note=67, velocity=127, time=0),
    Message('note_on', channel=0, note=79, velocity=127, time=0),
    Message('note_on', channel=0, note=43, velocity=0, time=384),
    Message('note_on', channel=0, note=67, velocity=0, time=0),
    Message('note_on', channel=0, note=79, velocity=0, time=0),
    Message('note_on', channel=0, note=45, velocity=127, time=96),
    Message('note_on', channel=0, note=69, velocity=127, time=0),
    Message('note_on', channel=0, note=81, velocity=127, time=0),
    Message('note_on', channel=0, note=45, velocity=0, time=768),
    Message('note_on', channel=0, note=69, velocity=0, time=0),
    Message('note_on', channel=0, note=81, velocity=0, time=0),
    Message('note_on', channel=0, note=48, velocity=127, time=4992),
    Message('note_on', channel=0, note=72, velocity=127, time=0),
    Message('note_on', channel=0, note=84, velocity=127, time=0),
    Message('note_on', channel=0, note=48, velocity=0, time=384),
    Message('note_on', channel=0, note=72, velocity=0, time=0),
    Message('note_on', channel=0, note=84, velocity=0, time=0),
    Message('note_on', channel=0, note=47, velocity=127, time=96),
    Message('note_on', channel=0, note=71, velocity=127, time=0),
    Message('note_on', channel=0, note=83, velocity=127, time=0),
    Message('note_on', channel=0, note=47, velocity=0, time=384),
    Message('note_on', channel=0, note=71, velocity=0, time=0),
    Message('note_on', channel=0, note=83, velocity=0, time=0),
    Message('note_on', channel=0, note=48, velocity=127, time=96),
    Message('note_on', channel=0, note=72, velocity=127, time=0),
    Message('note_on', channel=0, note=84, velocity=127, time=0),
    Message('note_on', channel=0, note=48, velocity=0, time=384),
    Message('note_on', channel=0, note=72, velocity=0, time=0),
    Message('note_on', channel=0, note=84, velocity=0, time=0),
    Message('note_on', channel=0, note=43, velocity=127, time=96),
    Message('note_on', channel=0, note=67, velocity=127, time=0),
    Message('note_on', channel=0, note=79, velocity=127, time=0),
    Message('note_on', channel=0, note=43, velocity=0, time=384),
    Message('note_on', channel=0, note=67, velocity=0, time=0),
    Message('note_on', channel=0, note=79, velocity=0, time=0),
    MetaMessage('end_of_track', time=25056)]),
  MidiTrack([MetaMessage('end_of_track', time=128640)]),
  MidiTrack([MetaMessage('end_of_track', time=128640)]),
  MidiTrack([MetaMessage('end_of_track', time=128640)]),
  MidiTrack([MetaMessage('end_of_track', time=128640)]),
  MidiTrack([MetaMessage('end_of_track', time=128640)]),
  MidiTrack([MetaMessage('end_of_track', time=128640)]),
  MidiTrack([MetaMessage('end_of_track', time=128640)]),
  MidiTrack([MetaMessage('end_of_track', time=128640)]),
  MidiTrack([MetaMessage('end_of_track', time=128640)]),
  MidiTrack([MetaMessage('end_of_track', time=128640)]),
  MidiTrack([MetaMessage('end_of_track', time=128640)]),
  MidiTrack([MetaMessage('end_of_track', time=128640)]),
  MidiTrack([MetaMessage('end_of_track', time=128640)])
])