{
    "tickes_per_beat": 480,
    "notes": {
        "0": [
            {
                "note": 70,
                "velocity": 59,
                "time": 220
            },
            {
                "note": 71,
                "velocity": 100,
                "time": 20
            },
            {
                "note": 70,
                "velocity": 0,
                "time": 8
            },
            {
                "note": 71,
                "velocity": 0,
                "time": 472
            },
            {
                "note": 73,
                "velocity": 89,
                "time": 0
            },
            {
                "note": 73,
                "velocity": 0,
                "time": 240
            },
            {
                "note": 74,
                "velocity": 102,
                "time": 0
            },
            {
                "note": 74,
                "velocity": 0,
                "time": 240
            },
            {
                "note": 81,
                "velocity": 85,
                "time": 0
            },
            {
                "note": 81,
                "velocity": 0,
                "time": 11
            },
            {
                "note": 67,
                "velocity": 58,
                "time": 9
            },
            {
                "note": 71,
                "velocity": 99,
                "time": 5
            },
            {
                "note": 74,
                "velocity": 97,
                "time": 1
            },
            {
                "note": 78,
                "velocity": 103,
                "time": 12
            },
            {
                "note": 78,
                "velocity": 0,
                "time": 360
            },
            {
                "note": 78,
                "velocity": 111,
                "time": 80
            },
            {
                "note": 78,
                "velocity": 0,
                "time": 240
            },
            {
                "note": 76,
                "velocity": 102,
                "time": 0
            },
            {
                "note": 76,
                "velocity": 0,
                "time": 120
            },
            {
                "note": 78,
                "velocity": 109,
                "time": 0
            },
            {
                "note": 71,
                "velocity": 0,
                "time": 1
            },
            {
                "note": 74,
                "velocity": 0,
                "time": 1
            },
            {
                "note": 67,
                "velocity": 0,
                "time": 5
            },
            {
                "note": 78,
                "velocity": 0,
                "time": 417
            },
            {
                "note": 76,
                "velocity": 111,
                "time": 12
            },
            {
                "note": 78,
                "velocity": 102,
                "time": 228
            },
            {
                "note": 76,
                "velocity": 0,
                "time": 4
            },
            {
                "note": 78,
                "velocity": 0,
                "time": 236
            },
            {
                "note": 81,
                "velocity": 100,
                "time": 0
            },
            {
                "note": 81,
                "velocity": 0,
                "time": 240
            },
            {
                "note": 74,
                "velocity": 107,
                "time": 0
            },
            {
                "note": 74,
                "velocity": 0,
                "time": 240
            },
            {
                "note": 73,
                "velocity": 98,
                "time": 0
            },
            {
                "note": 73,
                "velocity": 0,
                "time": 240
            },
            {
                "note": 74,
                "velocity": 105,
                "time": 0
            },
            {
                "note": 74,
                "velocity": 0,
                "time": 37
            },
            {
                "note": 62,
                "velocity": 66,
                "time": 37
            },
            {
                "note": 66,
                "velocity": 97,
                "time": 5
            },
            {
                "note": 73,
                "velocity": 108,
                "time": 0
            },
            {
                "note": 66,
                "velocity": 0,
                "time": 425
            },
            {
                "note": 62,
                "velocity": 0,
                "time": 9
            },
            {
                "note": 73,
                "velocity": 0,
                "time": 1
            },
            {
                "note": 73,
                "velocity": 107,
                "time": 9
            },
            {
                "note": 73,
                "velocity": 0,
                "time": 240
            },
            {
                "note": 71,
                "velocity": 107,
                "time": 0
            },
            {
                "note": 71,
                "velocity": 0,
                "time": 256
            },
            {
                "note": 66,
                "velocity": 109,
                "time": 0
            },
            {
                "note": 71,
                "velocity": 105,
                "time": 658
            },
            {
                "note": 66,
                "velocity": 0,
                "time": 16
            },
            {
                "note": 71,
                "velocity": 0,
                "time": 464
            },
            {
                "note": 73,
                "velocity": 96,
                "time": 0
            },
            {
                "note": 73,
                "velocity": 0,
                "time": 240
            },
            {
                "note": 74,
                "velocity": 102,
                "time": 0
            },
            {
                "note": 74,
                "velocity": 0,
                "time": 240
            },
            {
                "note": 81,
                "velocity": 100,
                "time": 0
            },
            {
                "note": 81,
                "velocity": 0,
                "time": 10
            },
            {
                "note": 67,
                "velocity": 78,
                "time": 7
            },
            {
                "note": 71,
                "velocity": 108,
                "time": 1
            },
            {
                "note": 78,
                "velocity": 95,
                "time": 6
            },
            {
                "note": 78,
                "velocity": 0,
                "time": 381
            },
            {
                "note": 78,
                "velocity": 109,
                "time": 25
            },
            {
                "note": 78,
                "velocity": 0,
                "time": 240
            },
            {
                "note": 76,
                "velocity": 111,
                "time": 0
            },
            {
                "note": 76,
                "velocity": 0,
                "time": 120
            },
            {
                "note": 78,
                "velocity": 100,
                "time": 0
            },
            {
                "note": 71,
                "velocity": 0,
                "time": 348
            },
            {
                "note": 67,
                "velocity": 0,
                "time": 2
            },
            {
                "note": 75,
                "velocity": 98,
                "time": 37
            },
            {
                "note": 78,
                "velocity": 0,
                "time": 19
            },
            {
                "note": 76,
                "velocity": 108,
                "time": 17
            },
            {
                "note": 75,
                "velocity": 0,
                "time": 35
            },
            {
                "note": 78,
                "velocity": 107,
                "time": 188
            },
            {
                "note": 76,
                "velocity": 0,
                "time": 17
            },
            {
                "note": 78,
                "velocity": 0,
                "time": 223
            },
            {
                "note": 81,
                "velocity": 75,
                "time": 0
            },
            {
                "note": 81,
                "velocity": 0,
                "time": 240
            },
            {
                "note": 78,
                "velocity": 98,
                "time": 0
            },
            {
                "note": 78,
                "velocity": 0,
                "time": 240
            },
            {
                "note": 81,
                "velocity": 107,
                "time": 0
            },
            {
                "note": 81,
                "velocity": 0,
                "time": 240
            },
            {
                "note": 86,
                "velocity": 109,
                "time": 0
            },
            {
                "note": 78,
                "velocity": 101,
                "time": 32
            },
            {
                "note": 86,
                "velocity": 0,
                "time": 2
            },
            {
                "note": 85,
                "velocity": 111,
                "time": 4
            },
            {
                "note": 78,
                "velocity": 0,
                "time": 207
            },
            {
                "note": 78,
                "velocity": 82,
                "time": 89
            },
            {
                "note": 83,
                "velocity": 111,
                "time": 2
            },
            {
                "note": 85,
                "velocity": 0,
                "time": 3
            },
            {
                "note": 78,
                "velocity": 0,
                "time": 335
            },
            {
                "note": 74,
                "velocity": 77,
                "time": 17
            },
            {
                "note": 83,
                "velocity": 0,
                "time": 5
            },
            {
                "note": 78,
                "velocity": 107,
                "time": 1
            },
            {
                "note": 76,
                "velocity": 107,
                "time": 958
            },
            {
                "note": 78,
                "velocity": 0,
                "time": 2
            },
            {
                "note": 74,
                "velocity": 0,
                "time": 14
            },
            {
                "note": 78,
                "velocity": 100,
                "time": 38
            },
            {
                "note": 74,
                "velocity": 91,
                "time": 3
            },
            {
                "note": 76,
                "velocity": 0,
                "time": 5
            },
            {
                "note": 74,
                "velocity": 0,
                "time": 320
            },
            {
                "note": 78,
                "velocity": 0,
                "time": 22
            },
            {
                "note": 74,
                "velocity": 91,
                "time": 70
            },
            {
                "note": 81,
                "velocity": 106,
                "time": 5
            },
            {
                "note": 74,
                "velocity": 0,
                "time": 359
            },
            {
                "note": 81,
                "velocity": 0,
                "time": 28
            },
            {
                "note": 78,
                "velocity": 106,
                "time": 81
            },
            {
                "note": 83,
                "velocity": 115,
                "time": 3
            },
            {
                "note": 78,
                "velocity": 0,
                "time": 348
            },
            {
                "note": 83,
                "velocity": 0,
                "time": 33
            },
            {
                "note": 78,
                "velocity": 97,
                "time": 91
            },
            {
                "note": 81,
                "velocity": 100,
                "time": 3
            },
            {
                "note": 85,
                "velocity": 111,
                "time": 1
            },
            {
                "note": 78,
                "velocity": 0,
                "time": 149
            },
            {
                "note": 81,
                "velocity": 0,
                "time": 3
            },
            {
                "note": 67,
                "velocity": 62,
                "time": 7
            },
            {
                "note": 85,
                "velocity": 0,
                "time": 5
            },
            {
                "note": 71,
                "velocity": 106,
                "time": 20
            },
            {
                "note": 78,
                "velocity": 102,
                "time": 9
            },
            {
                "note": 78,
                "velocity": 0,
                "time": 365
            },
            {
                "note": 78,
                "velocity": 111,
                "time": 63
            },
            {
                "note": 78,
                "velocity": 0,
                "time": 240
            },
            {
                "note": 76,
                "velocity": 100,
                "time": 0
            },
            {
                "note": 76,
                "velocity": 0,
                "time": 120
            },
            {
                "note": 78,
                "velocity": 111,
                "time": 0
            },
            {
                "note": 71,
                "velocity": 0,
                "time": 363
            },
            {
                "note": 67,
                "velocity": 0,
                "time": 12
            },
            {
                "note": 78,
                "velocity": 0,
                "time": 24
            },
            {
                "note": 76,
                "velocity": 83,
                "time": 0
            },
            {
                "note": 78,
                "velocity": 89,
                "time": 240
            },
            {
                "note": 76,
                "velocity": 0,
                "time": 120
            },
            {
                "note": 78,
                "velocity": 0,
                "time": 120
            },
            {
                "note": 81,
                "velocity": 107,
                "time": 0
            },
            {
                "note": 74,
                "velocity": 102,
                "time": 240
            },
            {
                "note": 81,
                "velocity": 0,
                "time": 120
            },
            {
                "note": 74,
                "velocity": 0,
                "time": 120
            },
            {
                "note": 73,
                "velocity": 100,
                "time": 0
            },
            {
                "note": 73,
                "velocity": 0,
                "time": 240
            },
            {
                "note": 74,
                "velocity": 100,
                "time": 0
            },
            {
                "note": 74,
                "velocity": 0,
                "time": 7
            },
            {
                "note": 66,
                "velocity": 98,
                "time": 10
            },
            {
                "note": 62,
                "velocity": 88,
                "time": 0
            },
            {
                "note": 73,
                "velocity": 95,
                "time": 0
            },
            {
                "note": 73,
                "velocity": 0,
                "time": 399
            },
            {
                "note": 73,
                "velocity": 100,
                "time": 50
            },
            {
                "note": 71,
                "velocity": 100,
                "time": 217
            },
            {
                "note": 66,
                "velocity": 0,
                "time": 22
            },
            {
                "note": 73,
                "velocity": 0,
                "time": 23
            },
            {
                "note": 66,
                "velocity": 108,
                "time": 195
            },
            {
                "note": 71,
                "velocity": 0,
                "time": 33
            },
            {
                "note": 66,
                "velocity": 0,
                "time": 576
            },
            {
                "note": 62,
                "velocity": 0,
                "time": 2
            },
            {
                "note": 71,
                "velocity": 105,
                "time": 74
            },
            {
                "note": 73,
                "velocity": 87,
                "time": 480
            },
            {
                "note": 71,
                "velocity": 0,
                "time": 120
            },
            {
                "note": 74,
                "velocity": 94,
                "time": 120
            },
            {
                "note": 73,
                "velocity": 0,
                "time": 120
            },
            {
                "note": 74,
                "velocity": 0,
                "time": 3
            },
            {
                "note": 81,
                "velocity": 91,
                "time": 0
            },
            {
                "note": 81,
                "velocity": 0,
                "time": 157
            },
            {
                "note": 67,
                "velocity": 69,
                "time": 18
            },
            {
                "note": 71,
                "velocity": 94,
                "time": 48
            },
            {
                "note": 78,
                "velocity": 107,
                "time": 8
            },
            {
                "note": 78,
                "velocity": 0,
                "time": 367
            },
            {
                "note": 78,
                "velocity": 108,
                "time": 43
            },
            {
                "note": 76,
                "velocity": 100,
                "time": 245
            },
            {
                "note": 78,
                "velocity": 0,
                "time": 17
            },
            {
                "note": 78,
                "velocity": 102,
                "time": 88
            },
            {
                "note": 76,
                "velocity": 0,
                "time": 5
            },
            {
                "note": 71,
                "velocity": 0,
                "time": 363
            },
            {
                "note": 67,
                "velocity": 0,
                "time": 14
            },
            {
                "note": 78,
                "velocity": 0,
                "time": 5
            },
            {
                "note": 76,
                "velocity": 83,
                "time": 60
            },
            {
                "note": 76,
                "velocity": 0,
                "time": 240
            },
            {
                "note": 78,
                "velocity": 94,
                "time": 0
            },
            {
                "note": 78,
                "velocity": 0,
                "time": 240
            },
            {
                "note": 81,
                "velocity": 102,
                "time": 4
            },
            {
                "note": 78,
                "velocity": 91,
                "time": 236
            },
            {
                "note": 81,
                "velocity": 0,
                "time": 4
            },
            {
                "note": 81,
                "velocity": 98,
                "time": 236
            },
            {
                "note": 78,
                "velocity": 0,
                "time": 120
            },
            {
                "note": 86,
                "velocity": 96,
                "time": 120
            },
            {
                "note": 81,
                "velocity": 0,
                "time": 120
            },
            {
                "note": 86,
                "velocity": 0,
                "time": 3
            },
            {
                "note": 78,
                "velocity": 92,
                "time": 0
            },
            {
                "note": 81,
                "velocity": 89,
                "time": 0
            },
            {
                "note": 85,
                "velocity": 97,
                "time": 0
            },
            {
                "note": 85,
                "velocity": 0,
                "time": 4
            },
            {
                "note": 81,
                "velocity": 0,
                "time": 0
            },
            {
                "note": 78,
                "velocity": 0,
                "time": 0
            },
            {
                "note": 78,
                "velocity": 90,
                "time": 15
            },
            {
                "note": 74,
                "velocity": 74,
                "time": 0
            },
            {
                "note": 83,
                "velocity": 104,
                "time": 0
            },
            {
                "note": 83,
                "velocity": 0,
                "time": 1292
            },
            {
                "note": 74,
                "velocity": 0,
                "time": 0
            },
            {
                "note": 78,
                "velocity": 0,
                "time": 0
            },
            {
                "note": 78,
                "velocity": 98,
                "time": 120
            },
            {
                "note": 83,
                "velocity": 95,
                "time": 0
            },
            {
                "note": 74,
                "velocity": 80,
                "time": 0
            },
            {
                "note": 74,
                "velocity": 0,
                "time": 360
            },
            {
                "note": 83,
                "velocity": 0,
                "time": 0
            },
            {
                "note": 78,
                "velocity": 0,
                "time": 0
            },
            {
                "note": 81,
                "velocity": 93,
                "time": 19
            },
            {
                "note": 76,
                "velocity": 89,
                "time": 0
            },
            {
                "note": 85,
                "velocity": 89,
                "time": 0
            },
            {
                "note": 81,
                "velocity": 0,
                "time": 1613
            },
            {
                "note": 83,
                "velocity": 102,
                "time": 0
            },
            {
                "note": 83,
                "velocity": 0,
                "time": 5
            },
            {
                "note": 85,
                "velocity": 0,
                "time": 0
            },
            {
                "note": 76,
                "velocity": 0,
                "time": 0
            },
            {
                "note": 83,
                "velocity": 93,
                "time": 58
            },
            {
                "note": 75,
                "velocity": 77,
                "time": 0
            },
            {
                "note": 78,
                "velocity": 97,
                "time": 0
            },
            {
                "note": 78,
                "velocity": 0,
                "time": 620
            },
            {
                "note": 83,
                "velocity": 0,
                "time": 0
            },
            {
                "note": 75,
                "velocity": 0,
                "time": 14
            },
            {
                "note": 79,
                "velocity": 79,
                "time": 561
            },
            {
                "note": 80,
                "velocity": 97,
                "time": 32
            },
            {
                "note": 79,
                "velocity": 0,
                "time": 17
            },
            {
                "note": 80,
                "velocity": 0,
                "time": 174
            },
            {
                "note": 80,
                "velocity": 95,
                "time": 60
            },
            {
                "note": 80,
                "velocity": 0,
                "time": 290
            },
            {
                "note": 79,
                "velocity": 49,
                "time": 63
            },
            {
                "note": 80,
                "velocity": 102,
                "time": 22
            },
            {
                "note": 79,
                "velocity": 0,
                "time": 25
            },
            {
                "note": 80,
                "velocity": 0,
                "time": 238
            },
            {
                "note": 80,
                "velocity": 100,
                "time": 56
            },
            {
                "note": 80,
                "velocity": 0,
                "time": 10
            },
            {
                "note": 79,
                "velocity": 42,
                "time": 15
            },
            {
                "note": 80,
                "velocity": 108,
                "time": 29
            },
            {
                "note": 79,
                "velocity": 0,
                "time": 13
            },
            {
                "note": 78,
                "velocity": 89,
                "time": 381
            },
            {
                "note": 80,
                "velocity": 0,
                "time": 4
            },
            {
                "note": 78,
                "velocity": 0,
                "time": 206
            },
            {
                "note": 78,
                "velocity": 102,
                "time": 41
            },
            {
                "note": 80,
                "velocity": 99,
                "time": 477
            },
            {
                "note": 78,
                "velocity": 0,
                "time": 16
            },
            {
                "note": 82,
                "velocity": 84,
                "time": 464
            },
            {
                "note": 80,
                "velocity": 0,
                "time": 36
            },
            {
                "note": 82,
                "velocity": 0,
                "time": 12
            },
            {
                "note": 71,
                "velocity": 64,
                "time": 7
            },
            {
                "note": 75,
                "velocity": 89,
                "time": 16
            },
            {
                "note": 80,
                "velocity": 95,
                "time": 15
            },
            {
                "note": 83,
                "velocity": 89,
                "time": 35
            },
            {
                "note": 83,
                "velocity": 0,
                "time": 431
            },
            {
                "note": 82,
                "velocity": 99,
                "time": 16
            },
            {
                "note": 80,
                "velocity": 0,
                "time": 176
            },
            {
                "note": 80,
                "velocity": 88,
                "time": 64
            },
            {
                "note": 82,
                "velocity": 0,
                "time": 40
            },
            {
                "note": 75,
                "velocity": 0,
                "time": 184
            },
            {
                "note": 71,
                "velocity": 0,
                "time": 224
            },
            {
                "note": 75,
                "velocity": 88,
                "time": 32
            },
            {
                "note": 80,
                "velocity": 0,
                "time": 80
            },
            {
                "note": 75,
                "velocity": 0,
                "time": 20
            },
            {
                "note": 63,
                "velocity": 86,
                "time": 133
            },
            {
                "note": 68,
                "velocity": 99,
                "time": 4
            },
            {
                "note": 75,
                "velocity": 99,
                "time": 3
            },
            {
                "note": 68,
                "velocity": 0,
                "time": 9
            },
            {
                "note": 73,
                "velocity": 97,
                "time": 7
            },
            {
                "note": 70,
                "velocity": 95,
                "time": 0
            },
            {
                "note": 63,
                "velocity": 0,
                "time": 1
            },
            {
                "note": 75,
                "velocity": 0,
                "time": 3
            },
            {
                "note": 70,
                "velocity": 0,
                "time": 340
            },
            {
                "note": 71,
                "velocity": 101,
                "time": 52
            },
            {
                "note": 73,
                "velocity": 0,
                "time": 16
            },
            {
                "note": 71,
                "velocity": 0,
                "time": 400
            },
            {
                "note": 79,
                "velocity": 41,
                "time": 197
            },
            {
                "note": 80,
                "velocity": 95,
                "time": 31
            },
            {
                "note": 79,
                "velocity": 0,
                "time": 39
            },
            {
                "note": 80,
                "velocity": 0,
                "time": 147
            },
            {
                "note": 80,
                "velocity": 91,
                "time": 70
            },
            {
                "note": 80,
                "velocity": 0,
                "time": 251
            },
            {
                "note": 79,
                "velocity": 52,
                "time": 59
            },
            {
                "note": 80,
                "velocity": 102,
                "time": 28
            },
            {
                "note": 79,
                "velocity": 0,
                "time": 15
            },
            {
                "note": 80,
                "velocity": 0,
                "time": 211
            },
            {
                "note": 80,
                "velocity": 82,
                "time": 141
            },
            {
                "note": 80,
                "velocity": 0,
                "time": 48
            },
            {
                "note": 79,
                "velocity": 51,
                "time": 9
            },
            {
                "note": 80,
                "velocity": 100,
                "time": 1
            },
            {
                "note": 79,
                "velocity": 0,
                "time": 7
            },
            {
                "note": 80,
                "velocity": 0,
                "time": 444
            },
            {
                "note": 78,
                "velocity": 72,
                "time": 7
            },
            {
                "note": 78,
                "velocity": 0,
                "time": 194
            },
            {
                "note": 78,
                "velocity": 97,
                "time": 64
            },
            {
                "note": 78,
                "velocity": 0,
                "time": 457
            },
            {
                "note": 75,
                "velocity": 93,
                "time": 6
            },
            {
                "note": 78,
                "velocity": 97,
                "time": 480
            },
            {
                "note": 75,
                "velocity": 0,
                "time": 16
            },
            {
                "note": 78,
                "velocity": 0,
                "time": 11
            },
            {
                "note": 80,
                "velocity": 102,
                "time": 13
            },
            {
                "note": 71,
                "velocity": 89,
                "time": 1
            },
            {
                "note": 75,
                "velocity": 95,
                "time": 2
            },
            {
                "note": 82,
                "velocity": 93,
                "time": 455
            },
            {
                "note": 71,
                "velocity": 0,
                "time": 4
            },
            {
                "note": 75,
                "velocity": 0,
                "time": 7
            },
            {
                "note": 80,
                "velocity": 0,
                "time": 7
            },
            {
                "note": 82,
                "velocity": 0,
                "time": 159
            },
            {
                "note": 75,
                "velocity": 84,
                "time": 64
            },
            {
                "note": 80,
                "velocity": 102,
                "time": 4
            },
            {
                "note": 83,
                "velocity": 97,
                "time": 5
            },
            {
                "note": 83,
                "velocity": 0,
                "time": 127
            },
            {
                "note": 80,
                "velocity": 0,
                "time": 4
            },
            {
                "note": 75,
                "velocity": 0,
                "time": 13
            },
            {
                "note": 79,
                "velocity": 71,
                "time": 590
            },
            {
                "note": 80,
                "velocity": 104,
                "time": 21
            },
            {
                "note": 79,
                "velocity": 0,
                "time": 49
            },
            {
                "note": 80,
                "velocity": 0,
                "time": 141
            },
            {
                "note": 80,
                "velocity": 97,
                "time": 48
            },
            {
                "note": 80,
                "velocity": 0,
                "time": 287
            },
            {
                "note": 79,
                "velocity": 62,
                "time": 17
            },
            {
                "note": 80,
                "velocity": 106,
                "time": 47
            },
            {
                "note": 79,
                "velocity": 0,
                "time": 30
            },
            {
                "note": 80,
                "velocity": 0,
                "time": 279
            },
            {
                "note": 80,
                "velocity": 89,
                "time": 52
            },
            {
                "note": 80,
                "velocity": 0,
                "time": 6
            },
            {
                "note": 79,
                "velocity": 70,
                "time": 11
            },
            {
                "note": 80,
                "velocity": 108,
                "time": 13
            },
            {
                "note": 79,
                "velocity": 0,
                "time": 25
            },
            {
                "note": 78,
                "velocity": 80,
                "time": 460
            },
            {
                "note": 80,
                "velocity": 0,
                "time": 4
            },
            {
                "note": 78,
                "velocity": 0,
                "time": 184
            },
            {
                "note": 78,
                "velocity": 108,
                "time": 53
            },
            {
                "note": 78,
                "velocity": 0,
                "time": 422
            },
            {
                "note": 80,
                "velocity": 104,
                "time": 45
            },
            {
                "note": 82,
                "velocity": 88,
                "time": 480
            },
            {
                "note": 80,
                "velocity": 0,
                "time": 20
            },
            {
                "note": 82,
                "velocity": 0,
                "time": 8
            },
            {
                "note": 83,
                "velocity": 93,
                "time": 2
            },
            {
                "note": 71,
                "velocity": 82,
                "time": 5
            },
            {
                "note": 75,
                "velocity": 97,
                "time": 4
            },
            {
                "note": 80,
                "velocity": 93,
                "time": 5
            },
            {
                "note": 83,
                "velocity": 0,
                "time": 382
            },
            {
                "note": 82,
                "velocity": 101,
                "time": 58
            },
            {
                "note": 80,
                "velocity": 0,
                "time": 182
            },
            {
                "note": 80,
                "velocity": 97,
                "time": 58
            },
            {
                "note": 82,
                "velocity": 0,
                "time": 36
            },
            {
                "note": 75,
                "velocity": 0,
                "time": 178
            },
            {
                "note": 75,
                "velocity": 86,
                "time": 266
            },
            {
                "note": 80,
                "velocity": 0,
                "time": 4
            },
            {
                "note": 71,
                "velocity": 0,
                "time": 47
            },
            {
                "note": 75,
                "velocity": 0,
                "time": 53
            },
            {
                "note": 75,
                "velocity": 99,
                "time": 136
            },
            {
                "note": 63,
                "velocity": 80,
                "time": 0
            },
            {
                "note": 68,
                "velocity": 99,
                "time": 0
            },
            {
                "note": 68,
                "velocity": 0,
                "time": 10
            },
            {
                "note": 63,
                "velocity": 0,
                "time": 7
            },
            {
                "note": 75,
                "velocity": 0,
                "time": 23
            },
            {
                "note": 73,
                "velocity": 86,
                "time": 3
            },
            {
                "note": 70,
                "velocity": 82,
                "time": 0
            },
            {
                "note": 70,
                "velocity": 0,
                "time": 395
            },
            {
                "note": 73,
                "velocity": 0,
                "time": 12
            },
            {
                "note": 71,
                "velocity": 95,
                "time": 24
            },
            {
                "note": 71,
                "velocity": 0,
                "time": 547
            },
            {
                "note": 74,
                "velocity": 55,
                "time": 105
            },
            {
                "note": 75,
                "velocity": 108,
                "time": 9
            },
            {
                "note": 74,
                "velocity": 0,
                "time": 20
            },
            {
                "note": 75,
                "velocity": 0,
                "time": 147
            },
            {
                "note": 75,
                "velocity": 101,
                "time": 48
            },
            {
                "note": 75,
                "velocity": 0,
                "time": 337
            },
            {
                "note": 75,
                "velocity": 97,
                "time": 38
            },
            {
                "note": 75,
                "velocity": 0,
                "time": 307
            },
            {
                "note": 75,
                "velocity": 100,
                "time": 52
            },
            {
                "note": 75,
                "velocity": 0,
                "time": 5
            },
            {
                "note": 73,
                "velocity": 72,
                "time": 6
            },
            {
                "note": 73,
                "velocity": 0,
                "time": 6
            },
            {
                "note": 75,
                "velocity": 79,
                "time": 3
            },
            {
                "note": 73,
                "velocity": 101,
                "time": 7
            },
            {
                "note": 75,
                "velocity": 0,
                "time": 2
            },
            {
                "note": 73,
                "velocity": 0,
                "time": 439
            },
            {
                "note": 71,
                "velocity": 84,
                "time": 0
            },
            {
                "note": 78,
                "velocity": 104,
                "time": 237
            },
            {
                "note": 71,
                "velocity": 0,
                "time": 15
            },
            {
                "note": 78,
                "velocity": 0,
                "time": 442
            },
            {
                "note": 75,
                "velocity": 93,
                "time": 32
            },
            {
                "note": 75,
                "velocity": 0,
                "time": 464
            },
            {
                "note": 78,
                "velocity": 106,
                "time": 16
            },
            {
                "note": 78,
                "velocity": 0,
                "time": 9
            },
            {
                "note": 71,
                "velocity": 99,
                "time": 1
            },
            {
                "note": 75,
                "velocity": 95,
                "time": 1
            },
            {
                "note": 80,
                "velocity": 108,
                "time": 3
            },
            {
                "note": 75,
                "velocity": 0,
                "time": 830
            },
            {
                "note": 71,
                "velocity": 0,
                "time": 23
            },
            {
                "note": 80,
                "velocity": 0,
                "time": 40
            },
            {
                "note": 75,
                "velocity": 93,
                "time": 28
            },
            {
                "note": 80,
                "velocity": 97,
                "time": 3
            },
            {
                "note": 83,
                "velocity": 101,
                "time": 9
            },
            {
                "note": 82,
                "velocity": 93,
                "time": 471
            },
            {
                "note": 83,
                "velocity": 0,
                "time": 25
            },
            {
                "note": 80,
                "velocity": 0,
                "time": 39
            },
            {
                "note": 80,
                "velocity": 97,
                "time": 176
            },
            {
                "note": 82,
                "velocity": 0,
                "time": 12
            },
            {
                "note": 75,
                "velocity": 0,
                "time": 93
            },
            {
                "note": 82,
                "velocity": 78,
                "time": 0
            },
            {
                "note": 72,
                "velocity": 97,
                "time": 0
            },
            {
                "note": 75,
                "velocity": 97,
                "time": 0
            },
            {
                "note": 80,
                "velocity": 0,
                "time": 5
            },
            {
                "note": 82,
                "velocity": 0,
                "time": 169
            },
            {
                "note": 80,
                "velocity": 90,
                "time": 16
            },
            {
                "note": 80,
                "velocity": 0,
                "time": 7
            },
            {
                "note": 78,
                "velocity": 98,
                "time": 0
            },
            {
                "note": 75,
                "velocity": 0,
                "time": 9
            },
            {
                "note": 72,
                "velocity": 0,
                "time": 2
            },
            {
                "note": 78,
                "velocity": 0,
                "time": 396
            },
            {
                "note": 77,
                "velocity": 96,
                "time": 21
            },
            {
                "note": 77,
                "velocity": 0,
                "time": 68
            },
            {
                "note": 77,
                "velocity": 98,
                "time": 68
            },
            {
                "note": 77,
                "velocity": 0,
                "time": 128
            },
            {
                "note": 77,
                "velocity": 105,
                "time": 112
            },
            {
                "note": 77,
                "velocity": 0,
                "time": 220
            },
            {
                "note": 75,
                "velocity": 107,
                "time": 20
            },
            {
                "note": 77,
                "velocity": 105,
                "time": 120
            },
            {
                "note": 75,
                "velocity": 0,
                "time": 4
            },
            {
                "note": 77,
                "velocity": 0,
                "time": 323
            },
            {
                "note": 77,
                "velocity": 103,
                "time": 140
            },
            {
                "note": 78,
                "velocity": 85,
                "time": 480
            },
            {
                "note": 77,
                "velocity": 0,
                "time": 60
            },
            {
                "note": 80,
                "velocity": 103,
                "time": 420
            },
            {
                "note": 78,
                "velocity": 0,
                "time": 16
            },
            {
                "note": 80,
                "velocity": 0,
                "time": 24
            },
            {
                "note": 75,
                "velocity": 105,
                "time": 0
            },
            {
                "note": 72,
                "velocity": 101,
                "time": 671
            },
            {
                "note": 75,
                "velocity": 0,
                "time": 24
            },
            {
                "note": 72,
                "velocity": 0,
                "time": 120
            },
            {
                "note": 72,
                "velocity": 98,
                "time": 96
            },
            {
                "note": 72,
                "velocity": 0,
                "time": 529
            },
            {
                "note": 72,
                "velocity": 96,
                "time": 140
            },
            {
                "note": 73,
                "velocity": 90,
                "time": 240
            },
            {
                "note": 72,
                "velocity": 0,
                "time": 32
            },
            {
                "note": 75,
                "velocity": 101,
                "time": 208
            },
            {
                "note": 73,
                "velocity": 0,
                "time": 40
            },
            {
                "note": 75,
                "velocity": 0,
                "time": 2
            },
            {
                "note": 77,
                "velocity": 101,
                "time": 13
            },
            {
                "note": 77,
                "velocity": 0,
                "time": 107
            },
            {
                "note": 77,
                "velocity": 92,
                "time": 60
            },
            {
                "note": 77,
                "velocity": 0,
                "time": 144
            },
            {
                "note": 77,
                "velocity": 96,
                "time": 96
            },
            {
                "note": 77,
                "velocity": 0,
                "time": 224
            },
            {
                "note": 70,
                "velocity": 96,
                "time": 16
            },
            {
                "note": 77,
                "velocity": 96,
                "time": 120
            },
            {
                "note": 70,
                "velocity": 0,
                "time": 32
            },
            {
                "note": 77,
                "velocity": 0,
                "time": 1398
            },
            {
                "note": 75,
                "velocity": 96,
                "time": 8
            },
            {
                "note": 73,
                "velocity": 90,
                "time": 240
            },
            {
                "note": 75,
                "velocity": 0,
                "time": 12
            },
            {
                "note": 75,
                "velocity": 85,
                "time": 1
            },
            {
                "note": 73,
                "velocity": 0,
                "time": 8
            },
            {
                "note": 75,
                "velocity": 0,
                "time": 384
            },
            {
                "note": 75,
                "velocity": 103,
                "time": 88
            },
            {
                "note": 73,
                "velocity": 90,
                "time": 240
            },
            {
                "note": 75,
                "velocity": 0,
                "time": 28
            },
            {
                "note": 73,
                "velocity": 0,
                "time": 204
            },
            {
                "note": 75,
                "velocity": 101,
                "time": 8
            },
            {
                "note": 80,
                "velocity": 92,
                "time": 240
            },
            {
                "note": 75,
                "velocity": 0,
                "time": 16
            },
            {
                "note": 80,
                "velocity": 0,
                "time": 348
            },
            {
                "note": 80,
                "velocity": 105,
                "time": 116
            },
            {
                "note": 56,
                "velocity": 89,
                "time": 205
            },
            {
                "note": 58,
                "velocity": 82,
                "time": 120
            },
            {
                "note": 56,
                "velocity": 0,
                "time": 3
            },
            {
                "note": 61,
                "velocity": 86,
                "time": 11
            },
            {
                "note": 58,
                "velocity": 0,
                "time": 3
            },
            {
                "note": 61,
                "velocity": 0,
                "time": 78
            },
            {
                "note": 63,
                "velocity": 82,
                "time": 0
            },
            {
                "note": 61,
                "velocity": 93,
                "time": 120
            },
            {
                "note": 63,
                "velocity": 0,
                "time": 8
            },
            {
                "note": 63,
                "velocity": 106,
                "time": 0
            },
            {
                "note": 61,
                "velocity": 0,
                "time": 2
            },
            {
                "note": 68,
                "velocity": 95,
                "time": 10
            },
            {
                "note": 63,
                "velocity": 0,
                "time": 7
            },
            {
                "note": 68,
                "velocity": 0,
                "time": 112
            },
            {
                "note": 70,
                "velocity": 111,
                "time": 0
            },
            {
                "note": 80,
                "velocity": 0,
                "time": 84
            },
            {
                "note": 68,
                "velocity": 106,
                "time": 36
            },
            {
                "note": 70,
                "velocity": 0,
                "time": 8
            },
            {
                "note": 68,
                "velocity": 0,
                "time": 112
            },
            {
                "note": 70,
                "velocity": 111,
                "time": 0
            },
            {
                "note": 73,
                "velocity": 97,
                "time": 120
            },
            {
                "note": 70,
                "velocity": 0,
                "time": 4
            },
            {
                "note": 75,
                "velocity": 100,
                "time": 116
            },
            {
                "note": 73,
                "velocity": 0,
                "time": 4
            },
            {
                "note": 77,
                "velocity": 103,
                "time": 5
            },
            {
                "note": 75,
                "velocity": 0,
                "time": 4
            },
            {
                "note": 70,
                "velocity": 97,
                "time": 4
            },
            {
                "note": 66,
                "velocity": 95,
                "time": 4
            },
            {
                "note": 77,
                "velocity": 0,
                "time": 25
            },
            {
                "note": 77,
                "velocity": 103,
                "time": 84
            },
            {
                "note": 77,
                "velocity": 0,
                "time": 120
            },
            {
                "note": 77,
                "velocity": 105,
                "time": 120
            },
            {
                "note": 77,
                "velocity": 0,
                "time": 204
            },
            {
                "note": 75,
                "velocity": 109,
                "time": 36
            },
            {
                "note": 75,
                "velocity": 0,
                "time": 116
            },
            {
                "note": 77,
                "velocity": 105,
                "time": 4
            },
            {
                "note": 66,
                "velocity": 0,
                "time": 212
            },
            {
                "note": 70,
                "velocity": 0,
                "time": 28
            },
            {
                "note": 77,
                "velocity": 0,
                "time": 278
            },
            {
                "note": 77,
                "velocity": 105,
                "time": 80
            },
            {
                "note": 70,
                "velocity": 100,
                "time": 232
            },
            {
                "note": 77,
                "velocity": 0,
                "time": 220
            },
            {
                "note": 70,
                "velocity": 0,
                "time": 8
            },
            {
                "note": 78,
                "velocity": 105,
                "time": 20
            },
            {
                "note": 70,
                "velocity": 93,
                "time": 240
            },
            {
                "note": 78,
                "velocity": 0,
                "time": 232
            },
            {
                "note": 80,
                "velocity": 103,
                "time": 8
            },
            {
                "note": 70,
                "velocity": 0,
                "time": 16
            },
            {
                "note": 70,
                "velocity": 104,
                "time": 208
            },
            {
                "note": 70,
                "velocity": 0,
                "time": 62
            },
            {
                "note": 75,
                "velocity": 107,
                "time": 8
            },
            {
                "note": 65,
                "velocity": 86,
                "time": 0
            },
            {
                "note": 68,
                "velocity": 93,
                "time": 0
            },
            {
                "note": 80,
                "velocity": 0,
                "time": 4
            },
            {
                "note": 65,
                "velocity": 0,
                "time": 586
            },
            {
                "note": 68,
                "velocity": 0,
                "time": 12
            },
            {
                "note": 75,
                "velocity": 0,
                "time": 52
            },
            {
                "note": 72,
                "velocity": 101,
                "time": 0
            },
            {
                "note": 68,
                "velocity": 74,
                "time": 0
            },
            {
                "note": 68,
                "velocity": 0,
                "time": 168
            },
            {
                "note": 72,
                "velocity": 0,
                "time": 4
            },
            {
                "note": 72,
                "velocity": 96,
                "time": 68
            },
            {
                "note": 68,
                "velocity": 97,
                "time": 0
            },
            {
                "note": 65,
                "velocity": 89,
                "time": 0
            },
            {
                "note": 80,
                "velocity": 99,
                "time": 0
            },
            {
                "note": 80,
                "velocity": 0,
                "time": 14
            },
            {
                "note": 65,
                "velocity": 0,
                "time": 3
            },
            {
                "note": 72,
                "velocity": 0,
                "time": 0
            },
            {
                "note": 68,
                "velocity": 0,
                "time": 6
            },
            {
                "note": 87,
                "velocity": 99,
                "time": 0
            },
            {
                "note": 80,
                "velocity": 99,
                "time": 0
            },
            {
                "note": 77,
                "velocity": 99,
                "time": 0
            },
            {
                "note": 77,
                "velocity": 0,
                "time": 240
            },
            {
                "note": 80,
                "velocity": 0,
                "time": 4
            },
            {
                "note": 87,
                "velocity": 0,
                "time": 40
            },
            {
                "note": 84,
                "velocity": 85,
                "time": 40
            },
            {
                "note": 80,
                "velocity": 85,
                "time": 0
            },
            {
                "note": 77,
                "velocity": 85,
                "time": 0
            },
            {
                "note": 72,
                "velocity": 85,
                "time": 0
            },
            {
                "note": 77,
                "velocity": 0,
                "time": 64
            },
            {
                "note": 80,
                "velocity": 0,
                "time": 0
            },
            {
                "note": 84,
                "velocity": 0,
                "time": 28
            },
            {
                "note": 72,
                "velocity": 0,
                "time": 0
            },
            {
                "note": 77,
                "velocity": 97,
                "time": 268
            },
            {
                "note": 80,
                "velocity": 97,
                "time": 0
            },
            {
                "note": 84,
                "velocity": 97,
                "time": 0
            },
            {
                "note": 72,
                "velocity": 97,
                "time": 0
            },
            {
                "note": 68,
                "velocity": 92,
                "time": 581
            },
            {
                "note": 80,
                "velocity": 0,
                "time": 175
            },
            {
                "note": 84,
                "velocity": 0,
                "time": 4
            },
            {
                "note": 77,
                "velocity": 0,
                "time": 4
            },
            {
                "note": 72,
                "velocity": 0,
                "time": 0
            },
            {
                "note": 70,
                "velocity": 95,
                "time": 79
            },
            {
                "note": 68,
                "velocity": 0,
                "time": 44
            },
            {
                "note": 73,
                "velocity": 102,
                "time": 2
            },
            {
                "note": 70,
                "velocity": 0,
                "time": 11
            },
            {
                "note": 75,
                "velocity": 108,
                "time": 41
            },
            {
                "note": 73,
                "velocity": 0,
                "time": 63
            },
            {
                "note": 75,
                "velocity": 0,
                "time": 3
            },
            {
                "note": 80,
                "velocity": 94,
                "time": 3
            },
            {
                "note": 73,
                "velocity": 102,
                "time": 0
            },
            {
                "note": 73,
                "velocity": 0,
                "time": 101
            },
            {
                "note": 80,
                "velocity": 0,
                "time": 56
            },
            {
                "note": 80,
                "velocity": 94,
                "time": 64
            },
            {
                "note": 73,
                "velocity": 91,
                "time": 0
            },
            {
                "note": 73,
                "velocity": 0,
                "time": 104
            },
            {
                "note": 80,
                "velocity": 0,
                "time": 44
            },
            {
                "note": 80,
                "velocity": 101,
                "time": 92
            },
            {
                "note": 73,
                "velocity": 104,
                "time": 0
            },
            {
                "note": 78,
                "velocity": 103,
                "time": 240
            },
            {
                "note": 80,
                "velocity": 0,
                "time": 8
            },
            {
                "note": 73,
                "velocity": 0,
                "time": 20
            },
            {
                "note": 78,
                "velocity": 0,
                "time": 92
            },
            {
                "note": 80,
                "velocity": 90,
                "time": 0
            },
            {
                "note": 73,
                "velocity": 102,
                "time": 0
            },
            {
                "note": 80,
                "velocity": 94,
                "time": 41
            },
            {
                "note": 92,
                "velocity": 94,
                "time": 0
            },
            {
                "note": 73,
                "velocity": 0,
                "time": 16
            },
            {
                "note": 80,
                "velocity": 0,
                "time": 0
            },
            {
                "note": 80,
                "velocity": 0,
                "time": 81
            },
            {
                "note": 92,
                "velocity": 0,
                "time": 0
            },
            {
                "note": 80,
                "velocity": 94,
                "time": 64
            },
            {
                "note": 92,
                "velocity": 94,
                "time": 0
            },
            {
                "note": 92,
                "velocity": 0,
                "time": 148
            },
            {
                "note": 80,
                "velocity": 0,
                "time": 0
            },
            {
                "note": 80,
                "velocity": 101,
                "time": 92
            },
            {
                "note": 92,
                "velocity": 101,
                "time": 0
            },
            {
                "note": 78,
                "velocity": 103,
                "time": 240
            },
            {
                "note": 90,
                "velocity": 103,
                "time": 0
            },
            {
                "note": 92,
                "velocity": 0,
                "time": 8
            },
            {
                "note": 80,
                "velocity": 0,
                "time": 0
            },
            {
                "note": 78,
                "velocity": 0,
                "time": 112
            },
            {
                "note": 90,
                "velocity": 0,
                "time": 0
            },
            {
                "note": 80,
                "velocity": 90,
                "time": 0
            },
            {
                "note": 92,
                "velocity": 90,
                "time": 0
            },
            {
                "note": 80,
                "velocity": 0,
                "time": 584
            },
            {
                "note": 92,
                "velocity": 0,
                "time": 16
            },
            {
                "note": 78,
                "velocity": 98,
                "time": 0
            },
            {
                "note": 76,
                "velocity": 101,
                "time": 240
            },
            {
                "note": 78,
                "velocity": 0,
                "time": 16
            },
            {
                "note": 78,
                "velocity": 101,
                "time": 6
            },
            {
                "note": 75,
                "velocity": 94,
                "time": 0
            },
            {
                "note": 76,
                "velocity": 0,
                "time": 4
            },
            {
                "note": 75,
                "velocity": 0,
                "time": 320
            },
            {
                "note": 78,
                "velocity": 0,
                "time": 40
            },
            {
                "note": 78,
                "velocity": 105,
                "time": 80
            },
            {
                "note": 75,
                "velocity": 97,
                "time": 0
            },
            {
                "note": 78,
                "velocity": 0,
                "time": 236
            },
            {
                "note": 76,
                "velocity": 94,
                "time": 4
            },
            {
                "note": 78,
                "velocity": 99,
                "time": 240
            },
            {
                "note": 76,
                "velocity": 0,
                "time": 4
            },
            {
                "note": 80,
                "velocity": 101,
                "time": 236
            },
            {
                "note": 78,
                "velocity": 0,
                "time": 24
            },
            {
                "note": 75,
                "velocity": 0,
                "time": 312
            },
            {
                "note": 80,
                "velocity": 0,
                "time": 48
            },
            {
                "note": 80,
                "velocity": 105,
                "time": 96
            },
            {
                "note": 75,
                "velocity": 95,
                "time": 0
            },
            {
                "note": 72,
                "velocity": 89,
                "time": 0
            },
            {
                "note": 80,
                "velocity": 0,
                "time": 618
            },
            {
                "note": 72,
                "velocity": 0,
                "time": 112
            },
            {
                "note": 75,
                "velocity": 0,
                "time": 8
            },
            {
                "note": 71,
                "velocity": 100,
                "time": 0
            },
            {
                "note": 71,
                "velocity": 0,
                "time": 480
            },
            {
                "note": 73,
                "velocity": 89,
                "time": 0
            },
            {
                "note": 73,
                "velocity": 0,
                "time": 240
            },
            {
                "note": 74,
                "velocity": 110,
                "time": 0
            },
            {
                "note": 62,
                "velocity": 76,
                "time": 1
            },
            {
                "note": 69,
                "velocity": 100,
                "time": 231
            },
            {
                "note": 74,
                "velocity": 0,
                "time": 8
            },
            {
                "note": 81,
                "velocity": 105,
                "time": 0
            },
            {
                "note": 62,
                "velocity": 0,
                "time": 25
            },
            {
                "note": 69,
                "velocity": 0,
                "time": 51
            },
            {
                "note": 81,
                "velocity": 0,
                "time": 16
            },
            {
                "note": 71,
                "velocity": 84,
                "time": 8
            },
            {
                "note": 78,
                "velocity": 118,
                "time": 0
            },
            {
                "note": 74,
                "velocity": 99,
                "time": 5
            },
            {
                "note": 78,
                "velocity": 0,
                "time": 380
            },
            {
                "note": 78,
                "velocity": 111,
                "time": 22
            },
            {
                "note": 78,
                "velocity": 0,
                "time": 240
            },
            {
                "note": 76,
                "velocity": 102,
                "time": 0
            },
            {
                "note": 76,
                "velocity": 0,
                "time": 120
            },
            {
                "note": 78,
                "velocity": 109,
                "time": 0
            },
            {
                "note": 74,
                "velocity": 0,
                "time": 357
            },
            {
                "note": 71,
                "velocity": 0,
                "time": 5
            },
            {
                "note": 78,
                "velocity": 0,
                "time": 70
            },
            {
                "note": 76,
                "velocity": 102,
                "time": 0
            },
            {
                "note": 76,
                "velocity": 0,
                "time": 240
            },
            {
                "note": 78,
                "velocity": 102,
                "time": 0
            },
            {
                "note": 78,
                "velocity": 0,
                "time": 220
            },
            {
                "note": 81,
                "velocity": 100,
                "time": 20
            },
            {
                "note": 81,
                "velocity": 0,
                "time": 240
            },
            {
                "note": 74,
                "velocity": 107,
                "time": 0
            },
            {
                "note": 74,
                "velocity": 0,
                "time": 240
            },
            {
                "note": 73,
                "velocity": 98,
                "time": 0
            },
            {
                "note": 73,
                "velocity": 0,
                "time": 240
            },
            {
                "note": 74,
                "velocity": 105,
                "time": 0
            },
            {
                "note": 74,
                "velocity": 0,
                "time": 4
            },
            {
                "note": 73,
                "velocity": 105,
                "time": 0
            },
            {
                "note": 62,
                "velocity": 68,
                "time": 0
            },
            {
                "note": 66,
                "velocity": 87,
                "time": 0
            },
            {
                "note": 73,
                "velocity": 0,
                "time": 295
            },
            {
                "note": 66,
                "velocity": 0,
                "time": 92
            },
            {
                "note": 73,
                "velocity": 107,
                "time": 28
            },
            {
                "note": 62,
                "velocity": 0,
                "time": 4
            },
            {
                "note": 73,
                "velocity": 0,
                "time": 236
            },
            {
                "note": 71,
                "velocity": 107,
                "time": 0
            },
            {
                "note": 66,
                "velocity": 109,
                "time": 240
            },
            {
                "note": 71,
                "velocity": 0,
                "time": 16
            },
            {
                "note": 66,
                "velocity": 0,
                "time": 612
            },
            {
                "note": 71,
                "velocity": 105,
                "time": 0
            },
            {
                "note": 59,
                "velocity": 93,
                "time": 0
            },
            {
                "note": 71,
                "velocity": 0,
                "time": 480
            },
            {
                "note": 73,
                "velocity": 96,
                "time": 0
            },
            {
                "note": 61,
                "velocity": 89,
                "time": 1
            },
            {
                "note": 59,
                "velocity": 0,
                "time": 34
            },
            {
                "note": 73,
                "velocity": 0,
                "time": 205
            },
            {
                "note": 74,
                "velocity": 102,
                "time": 0
            },
            {
                "note": 62,
                "velocity": 100,
                "time": 2
            },
            {
                "note": 61,
                "velocity": 0,
                "time": 24
            },
            {
                "note": 69,
                "velocity": 104,
                "time": 213
            },
            {
                "note": 74,
                "velocity": 0,
                "time": 1
            },
            {
                "note": 81,
                "velocity": 100,
                "time": 0
            },
            {
                "note": 62,
                "velocity": 0,
                "time": 1
            },
            {
                "note": 81,
                "velocity": 0,
                "time": 167
            },
            {
                "note": 78,
                "velocity": 111,
                "time": 0
            },
            {
                "note": 67,
                "velocity": 97,
                "time": 0
            },
            {
                "note": 71,
                "velocity": 110,
                "time": 0
            },
            {
                "note": 69,
                "velocity": 0,
                "time": 1
            },
            {
                "note": 78,
                "velocity": 0,
                "time": 276
            },
            {
                "note": 78,
                "velocity": 109,
                "time": 120
            },
            {
                "note": 78,
                "velocity": 0,
                "time": 240
            },
            {
                "note": 76,
                "velocity": 111,
                "time": 0
            },
            {
                "note": 76,
                "velocity": 0,
                "time": 120
            },
            {
                "note": 78,
                "velocity": 100,
                "time": 0
            },
            {
                "note": 71,
                "velocity": 0,
                "time": 195
            },
            {
                "note": 67,
                "velocity": 0,
                "time": 4
            },
            {
                "note": 78,
                "velocity": 0,
                "time": 208
            },
            {
                "note": 69,
                "velocity": 82,
                "time": 2
            },
            {
                "note": 73,
                "velocity": 76,
                "time": 3
            },
            {
                "note": 76,
                "velocity": 93,
                "time": 1
            },
            {
                "note": 76,
                "velocity": 0,
                "time": 161
            },
            {
                "note": 73,
                "velocity": 0,
                "time": 8
            },
            {
                "note": 69,
                "velocity": 0,
                "time": 8
            },
            {
                "note": 69,
                "velocity": 73,
                "time": 65
            },
            {
                "note": 78,
                "velocity": 96,
                "time": 0
            },
            {
                "note": 73,
                "velocity": 72,
                "time": 1
            },
            {
                "note": 78,
                "velocity": 0,
                "time": 142
            },
            {
                "note": 69,
                "velocity": 0,
                "time": 0
            },
            {
                "note": 73,
                "velocity": 0,
                "time": 1
            },
            {
                "note": 81,
                "velocity": 106,
                "time": 89
            },
            {
                "note": 69,
                "velocity": 75,
                "time": 1
            },
            {
                "note": 69,
                "velocity": 0,
                "time": 120
            },
            {
                "note": 81,
                "velocity": 0,
                "time": 7
            },
            {
                "note": 78,
                "velocity": 119,
                "time": 110
            },
            {
                "note": 69,
                "velocity": 100,
                "time": 3
            },
            {
                "note": 69,
                "velocity": 0,
                "time": 113
            },
            {
                "note": 78,
                "velocity": 0,
                "time": 19
            },
            {
                "note": 69,
                "velocity": 104,
                "time": 106
            },
            {
                "note": 81,
                "velocity": 127,
                "time": 0
            },
            {
                "note": 78,
                "velocity": 101,
                "time": 2
            },
            {
                "note": 69,
                "velocity": 0,
                "time": 133
            },
            {
                "note": 78,
                "velocity": 0,
                "time": 10
            },
            {
                "note": 81,
                "velocity": 0,
                "time": 5
            },
            {
                "note": 86,
                "velocity": 119,
                "time": 88
            },
            {
                "note": 81,
                "velocity": 108,
                "time": 2
            },
            {
                "note": 74,
                "velocity": 104,
                "time": 1
            },
            {
                "note": 74,
                "velocity": 0,
                "time": 5
            },
            {
                "note": 81,
                "velocity": 0,
                "time": 9
            },
            {
                "note": 86,
                "velocity": 0,
                "time": 5
            },
            {
                "note": 85,
                "velocity": 111,
                "time": 19
            },
            {
                "note": 78,
                "velocity": 101,
                "time": 0
            },
            {
                "note": 74,
                "velocity": 101,
                "time": 5
            },
            {
                "note": 74,
                "velocity": 0,
                "time": 194
            },
            {
                "note": 78,
                "velocity": 0,
                "time": 3
            },
            {
                "note": 85,
                "velocity": 0,
                "time": 88
            },
            {
                "note": 83,
                "velocity": 111,
                "time": 0
            },
            {
                "note": 78,
                "velocity": 82,
                "time": 0
            },
            {
                "note": 74,
                "velocity": 99,
                "time": 2
            },
            {
                "note": 74,
                "velocity": 0,
                "time": 304
            },
            {
                "note": 78,
                "velocity": 0,
                "time": 34
            },
            {
                "note": 71,
                "velocity": 101,
                "time": 19
            },
            {
                "note": 83,
                "velocity": 0,
                "time": 1
            },
            {
                "note": 78,
                "velocity": 107,
                "time": 0
            },
            {
                "note": 74,
                "velocity": 77,
                "time": 0
            },
            {
                "note": 71,
                "velocity": 0,
                "time": 13
            },
            {
                "note": 78,
                "velocity": 0,
                "time": 8
            },
            {
                "note": 76,
                "velocity": 107,
                "time": 0
            },
            {
                "note": 74,
                "velocity": 0,
                "time": 2
            },
            {
                "note": 71,
                "velocity": 109,
                "time": 8
            },
            {
                "note": 76,
                "velocity": 0,
                "time": 1
            },
            {
                "note": 78,
                "velocity": 111,
                "time": 0
            },
            {
                "note": 74,
                "velocity": 86,
                "time": 0
            },
            {
                "note": 74,
                "velocity": 0,
                "time": 362
            },
            {
                "note": 71,
                "velocity": 0,
                "time": 6
            },
            {
                "note": 78,
                "velocity": 0,
                "time": 66
            },
            {
                "note": 81,
                "velocity": 113,
                "time": 0
            },
            {
                "note": 74,
                "velocity": 90,
                "time": 0
            },
            {
                "note": 71,
                "velocity": 112,
                "time": 2
            },
            {
                "note": 71,
                "velocity": 0,
                "time": 5
            },
            {
                "note": 81,
                "velocity": 0,
                "time": 1
            },
            {
                "note": 83,
                "velocity": 109,
                "time": 0
            },
            {
                "note": 78,
                "velocity": 86,
                "time": 0
            },
            {
                "note": 74,
                "velocity": 103,
                "time": 3
            },
            {
                "note": 71,
                "velocity": 101,
                "time": 0
            },
            {
                "note": 74,
                "velocity": 0,
                "time": 23
            },
            {
                "note": 74,
                "velocity": 0,
                "time": 347
            },
            {
                "note": 71,
                "velocity": 0,
                "time": 6
            },
            {
                "note": 78,
                "velocity": 0,
                "time": 15
            },
            {
                "note": 83,
                "velocity": 0,
                "time": 44
            },
            {
                "note": 85,
                "velocity": 105,
                "time": 0
            },
            {
                "note": 81,
                "velocity": 97,
                "time": 0
            },
            {
                "note": 74,
                "velocity": 109,
                "time": 6
            },
            {
                "note": 71,
                "velocity": 112,
                "time": 0
            },
            {
                "note": 74,
                "velocity": 0,
                "time": 4
            },
            {
                "note": 71,
                "velocity": 0,
                "time": 2
            },
            {
                "note": 85,
                "velocity": 0,
                "time": 32
            },
            {
                "note": 81,
                "velocity": 0,
                "time": 4
            },
            {
                "note": 67,
                "velocity": 105,
                "time": 3
            },
            {
                "note": 71,
                "velocity": 114,
                "time": 0
            },
            {
                "note": 78,
                "velocity": 105,
                "time": 2
            },
            {
                "note": 67,
                "velocity": 0,
                "time": 357
            },
            {
                "note": 71,
                "velocity": 0,
                "time": 5
            },
            {
                "note": 78,
                "velocity": 0,
                "time": 10
            },
            {
                "note": 67,
                "velocity": 103,
                "time": 57
            },
            {
                "note": 71,
                "velocity": 109,
                "time": 3
            },
            {
                "note": 78,
                "velocity": 105,
                "time": 0
            },
            {
                "note": 76,
                "velocity": 92,
                "time": 230
            },
            {
                "note": 78,
                "velocity": 0,
                "time": 25
            },
            {
                "note": 71,
                "velocity": 0,
                "time": 24
            },
            {
                "note": 67,
                "velocity": 0,
                "time": 9
            },
            {
                "note": 76,
                "velocity": 0,
                "time": 38
            },
            {
                "note": 67,
                "velocity": 107,
                "time": 24
            },
            {
                "note": 71,
                "velocity": 109,
                "time": 4
            },
            {
                "note": 78,
                "velocity": 112,
                "time": 3
            },
            {
                "note": 67,
                "velocity": 0,
                "time": 379
            },
            {
                "note": 71,
                "velocity": 0,
                "time": 2
            },
            {
                "note": 78,
                "velocity": 0,
                "time": 5
            },
            {
                "note": 76,
                "velocity": 83,
                "time": 15
            },
            {
                "note": 69,
                "velocity": 90,
                "time": 5
            },
            {
                "note": 69,
                "velocity": 0,
                "time": 147
            },
            {
                "note": 76,
                "velocity": 0,
                "time": 24
            },
            {
                "note": 78,
                "velocity": 89,
                "time": 64
            },
            {
                "note": 69,
                "velocity": 84,
                "time": 0
            },
            {
                "note": 78,
                "velocity": 0,
                "time": 160
            },
            {
                "note": 69,
                "velocity": 0,
                "time": 17
            },
            {
                "note": 81,
                "velocity": 107,
                "time": 63
            },
            {
                "note": 69,
                "velocity": 86,
                "time": 2
            },
            {
                "note": 73,
                "velocity": 103,
                "time": 3
            },
            {
                "note": 69,
                "velocity": 0,
                "time": 169
            },
            {
                "note": 73,
                "velocity": 0,
                "time": 2
            },
            {
                "note": 81,
                "velocity": 0,
                "time": 0
            },
            {
                "note": 64,
                "velocity": 96,
                "time": 62
            },
            {
                "note": 69,
                "velocity": 92,
                "time": 1
            },
            {
                "note": 74,
                "velocity": 102,
                "time": 1
            },
            {
                "note": 64,
                "velocity": 0,
                "time": 175
            },
            {
                "note": 74,
                "velocity": 0,
                "time": 1
            },
            {
                "note": 69,
                "velocity": 0,
                "time": 5
            },
            {
                "note": 69,
                "velocity": 96,
                "time": 58
            },
            {
                "note": 64,
                "velocity": 105,
                "time": 0
            },
            {
                "note": 73,
                "velocity": 100,
                "time": 1
            },
            {
                "note": 64,
                "velocity": 0,
                "time": 169
            },
            {
                "note": 73,
                "velocity": 0,
                "time": 32
            },
            {
                "note": 69,
                "velocity": 0,
                "time": 7
            },
            {
                "note": 64,
                "velocity": 118,
                "time": 29
            },
            {
                "note": 74,
                "velocity": 100,
                "time": 3
            },
            {
                "note": 69,
                "velocity": 102,
                "time": 1
            },
            {
                "note": 74,
                "velocity": 0,
                "time": 12
            },
            {
                "note": 64,
                "velocity": 0,
                "time": 16
            },
            {
                "note": 69,
                "velocity": 0,
                "time": 10
            },
            {
                "note": 62,
                "velocity": 101,
                "time": 3
            },
            {
                "note": 66,
                "velocity": 103,
                "time": 0
            },
            {
                "note": 73,
                "velocity": 94,
                "time": 0
            },
            {
                "note": 62,
                "velocity": 0,
                "time": 342
            },
            {
                "note": 66,
                "velocity": 0,
                "time": 14
            },
            {
                "note": 73,
                "velocity": 0,
                "time": 1
            },
            {
                "note": 73,
                "velocity": 92,
                "time": 58
            },
            {
                "note": 62,
                "velocity": 103,
                "time": 1
            },
            {
                "note": 66,
                "velocity": 98,
                "time": 0
            },
            {
                "note": 71,
                "velocity": 90,
                "time": 238
            },
            {
                "note": 73,
                "velocity": 0,
                "time": 21
            },
            {
                "note": 66,
                "velocity": 0,
                "time": 7
            },
            {
                "note": 62,
                "velocity": 0,
                "time": 35
            },
            {
                "note": 66,
                "velocity": 101,
                "time": 180
            },
            {
                "note": 62,
                "velocity": 98,
                "time": 0
            },
            {
                "note": 71,
                "velocity": 0,
                "time": 23
            },
            {
                "note": 62,
                "velocity": 0,
                "time": 597
            },
            {
                "note": 66,
                "velocity": 0,
                "time": 0
            },
            {
                "note": 59,
                "velocity": 90,
                "time": 97
            },
            {
                "note": 71,
                "velocity": 101,
                "time": 0
            },
            {
                "note": 59,
                "velocity": 0,
                "time": 360
            },
            {
                "note": 71,
                "velocity": 0,
                "time": 13
            },
            {
                "note": 61,
                "velocity": 98,
                "time": 103
            },
            {
                "note": 73,
                "velocity": 105,
                "time": 2
            },
            {
                "note": 61,
                "velocity": 0,
                "time": 158
            },
            {
                "note": 73,
                "velocity": 0,
                "time": 2
            },
            {
                "note": 62,
                "velocity": 102,
                "time": 81
            },
            {
                "note": 74,
                "velocity": 100,
                "time": 1
            },
            {
                "note": 62,
                "velocity": 0,
                "time": 159
            },
            {
                "note": 74,
                "velocity": 0,
                "time": 4
            },
            {
                "note": 69,
                "velocity": 104,
                "time": 77
            },
            {
                "note": 81,
                "velocity": 108,
                "time": 1
            },
            {
                "note": 81,
                "velocity": 0,
                "time": 139
            },
            {
                "note": 69,
                "velocity": 0,
                "time": 3
            },
            {
                "note": 78,
                "velocity": 112,
                "time": 4
            },
            {
                "note": 71,
                "velocity": 106,
                "time": 1
            },
            {
                "note": 67,
                "velocity": 96,
                "time": 1
            },
            {
                "note": 67,
                "velocity": 0,
                "time": 319
            },
            {
                "note": 71,
                "velocity": 0,
                "time": 9
            },
            {
                "note": 78,
                "velocity": 0,
                "time": 12
            },
            {
                "note": 78,
                "velocity": 118,
                "time": 57
            },
            {
                "note": 67,
                "velocity": 102,
                "time": 1
            },
            {
                "note": 71,
                "velocity": 108,
                "time": 1
            },
            {
                "note": 76,
                "velocity": 88,
                "time": 235
            },
            {
                "note": 78,
                "velocity": 0,
                "time": 5
            },
            {
                "note": 67,
                "velocity": 0,
                "time": 52
            },
            {
                "note": 71,
                "velocity": 0,
                "time": 1
            },
            {
                "note": 76,
                "velocity": 0,
                "time": 52
            },
            {
                "note": 67,
                "velocity": 100,
                "time": 19
            },
            {
                "note": 71,
                "velocity": 106,
                "time": 1
            },
            {
                "note": 78,
                "velocity": 114,
                "time": 1
            },
            {
                "note": 71,
                "velocity": 0,
                "time": 354
            },
            {
                "note": 78,
                "velocity": 0,
                "time": 7
            },
            {
                "note": 67,
                "velocity": 0,
                "time": 0
            },
            {
                "note": 64,
                "velocity": 103,
                "time": 27
            },
            {
                "note": 76,
                "velocity": 106,
                "time": 2
            },
            {
                "note": 64,
                "velocity": 0,
                "time": 159
            },
            {
                "note": 76,
                "velocity": 0,
                "time": 9
            },
            {
                "note": 66,
                "velocity": 91,
                "time": 74
            },
            {
                "note": 78,
                "velocity": 110,
                "time": 1
            },
            {
                "note": 66,
                "velocity": 0,
                "time": 130
            },
            {
                "note": 78,
                "velocity": 0,
                "time": 8
            },
            {
                "note": 81,
                "velocity": 108,
                "time": 101
            },
            {
                "note": 69,
                "velocity": 108,
                "time": 1
            },
            {
                "note": 81,
                "velocity": 0,
                "time": 126
            },
            {
                "note": 69,
                "velocity": 0,
                "time": 8
            },
            {
                "note": 78,
                "velocity": 108,
                "time": 107
            },
            {
                "note": 66,
                "velocity": 110,
                "time": 0
            },
            {
                "note": 66,
                "velocity": 0,
                "time": 126
            },
            {
                "note": 78,
                "velocity": 0,
                "time": 6
            },
            {
                "note": 69,
                "velocity": 110,
                "time": 103
            },
            {
                "note": 81,
                "velocity": 116,
                "time": 1
            },
            {
                "note": 69,
                "velocity": 0,
                "time": 135
            },
            {
                "note": 81,
                "velocity": 0,
                "time": 10
            },
            {
                "note": 74,
                "velocity": 114,
                "time": 97
            },
            {
                "note": 86,
                "velocity": 116,
                "time": 0
            },
            {
                "note": 86,
                "velocity": 0,
                "time": 37
            },
            {
                "note": 74,
                "velocity": 0,
                "time": 8
            },
            {
                "note": 73,
                "velocity": 96,
                "time": 1
            },
            {
                "note": 76,
                "velocity": 107,
                "time": 0
            },
            {
                "note": 85,
                "velocity": 96,
                "time": 1
            },
            {
                "note": 81,
                "velocity": 102,
                "time": 2
            },
            {
                "note": 81,
                "velocity": 0,
                "time": 1573
            },
            {
                "note": 85,
                "velocity": 0,
                "time": 7
            },
            {
                "note": 76,
                "velocity": 0,
                "time": 6
            },
            {
                "note": 73,
                "velocity": 0,
                "time": 26
            },
            {
                "note": 71,
                "velocity": 102,
                "time": 6
            },
            {
                "note": 74,
                "velocity": 104,
                "time": 0
            },
            {
                "note": 78,
                "velocity": 98,
                "time": 3
            },
            {
                "note": 83,
                "velocity": 102,
                "time": 0
            },
            {
                "note": 83,
                "velocity": 0,
                "time": 1041
            },
            {
                "note": 66,
                "velocity": 80,
                "time": 13
            },
            {
                "note": 71,
                "velocity": 0,
                "time": 1
            },
            {
                "note": 74,
                "velocity": 0,
                "time": 0
            },
            {
                "note": 78,
                "velocity": 0,
                "time": 14
            },
            {
                "note": 71,
                "velocity": 93,
                "time": 110
            },
            {
                "note": 66,
                "velocity": 0,
                "time": 11
            },
            {
                "note": 74,
                "velocity": 95,
                "time": 108
            },
            {
                "note": 71,
                "velocity": 0,
                "time": 11
            },
            {
                "note": 78,
                "velocity": 102,
                "time": 108
            },
            {
                "note": 74,
                "velocity": 0,
                "time": 14
            },
            {
                "note": 78,
                "velocity": 0,
                "time": 146
            },
            {
                "note": 83,
                "velocity": 100,
                "time": 0
            },
            {
                "note": 83,
                "velocity": 0,
                "time": 8
            },
            {
                "note": 86,
                "velocity": 97,
                "time": 0
            },
            {
                "note": 86,
                "velocity": 0,
                "time": 3
            },
            {
                "note": 73,
                "velocity": 96,
                "time": 4
            },
            {
                "note": 78,
                "velocity": 93,
                "time": 0
            },
            {
                "note": 85,
                "velocity": 98,
                "time": 0
            },
            {
                "note": 81,
                "velocity": 96,
                "time": 1
            },
            {
                "note": 85,
                "velocity": 0,
                "time": 1524
            },
            {
                "note": 83,
                "velocity": 91,
                "time": 100
            },
            {
                "note": 78,
                "velocity": 0,
                "time": 10
            },
            {
                "note": 81,
                "velocity": 0,
                "time": 52
            },
            {
                "note": 73,
                "velocity": 0,
                "time": 8
            },
            {
                "note": 83,
                "velocity": 0,
                "time": 24
            },
            {
                "note": 75,
                "velocity": 102,
                "time": 10
            },
            {
                "note": 71,
                "velocity": 104,
                "time": 0
            },
            {
                "note": 78,
                "velocity": 111,
                "time": 1
            },
            {
                "note": 83,
                "velocity": 93,
                "time": 0
            },
            {
                "note": 78,
                "velocity": 0,
                "time": 149
            },
            {
                "note": 78,
                "velocity": 100,
                "time": 69
            },
            {
                "note": 75,
                "velocity": 0,
                "time": 39
            },
            {
                "note": 75,
                "velocity": 93,
                "time": 205
            },
            {
                "note": 83,
                "velocity": 0,
                "time": 49
            },
            {
                "note": 78,
                "velocity": 0,
                "time": 9
            },
            {
                "note": 83,
                "velocity": 91,
                "time": 166
            },
            {
                "note": 75,
                "velocity": 0,
                "time": 444
            },
            {
                "note": 71,
                "velocity": 0,
                "time": 33
            },
            {
                "note": 85,
                "velocity": 86,
                "time": 9
            },
            {
                "note": 83,
                "velocity": 0,
                "time": 20
            },
            {
                "note": 86,
                "velocity": 78,
                "time": 227
            },
            {
                "note": 85,
                "velocity": 0,
                "time": 3
            },
            {
                "note": 93,
                "velocity": 80,
                "time": 263
            },
            {
                "note": 93,
                "velocity": 0,
                "time": 1
            },
            {
                "note": 86,
                "velocity": 0,
                "time": 9
            },
            {
                "note": 79,
                "velocity": 66,
                "time": 28
            },
            {
                "note": 83,
                "velocity": 84,
                "time": 14
            },
            {
                "note": 90,
                "velocity": 95,
                "time": 10
            },
            {
                "note": 90,
                "velocity": 0,
                "time": 421
            },
            {
                "note": 90,
                "velocity": 89,
                "time": 9
            },
            {
                "note": 88,
                "velocity": 66,
                "time": 239
            },
            {
                "note": 90,
                "velocity": 0,
                "time": 16
            },
            {
                "note": 90,
                "velocity": 100,
                "time": 108
            },
            {
                "note": 88,
                "velocity": 0,
                "time": 10
            },
            {
                "note": 83,
                "velocity": 0,
                "time": 21
            },
            {
                "note": 79,
                "velocity": 0,
                "time": 3
            },
            {
                "note": 88,
                "velocity": 80,
                "time": 424
            },
            {
                "note": 90,
                "velocity": 0,
                "time": 14
            },
            {
                "note": 90,
                "velocity": 84,
                "time": 235
            },
            {
                "note": 88,
                "velocity": 0,
                "time": 32
            },
            {
                "note": 93,
                "velocity": 93,
                "time": 204
            },
            {
                "note": 90,
                "velocity": 0,
                "time": 27
            },
            {
                "note": 86,
                "velocity": 80,
                "time": 222
            },
            {
                "note": 93,
                "velocity": 0,
                "time": 25
            },
            {
                "note": 85,
                "velocity": 78,
                "time": 206
            },
            {
                "note": 86,
                "velocity": 0,
                "time": 10
            },
            {
                "note": 86,
                "velocity": 80,
                "time": 227
            },
            {
                "note": 85,
                "velocity": 0,
                "time": 21
            },
            {
                "note": 85,
                "velocity": 82,
                "time": 9
            },
            {
                "note": 86,
                "velocity": 0,
                "time": 11
            },
            {
                "note": 85,
                "velocity": 0,
                "time": 375
            },
            {
                "note": 85,
                "velocity": 82,
                "time": 52
            },
            {
                "note": 83,
                "velocity": 80,
                "time": 249
            },
            {
                "note": 85,
                "velocity": 0,
                "time": 15
            },
            {
                "note": 78,
                "velocity": 63,
                "time": 225
            },
            {
                "note": 83,
                "velocity": 0,
                "time": 5
            },
            {
                "note": 78,
                "velocity": 0,
                "time": 589
            },
            {
                "note": 83,
                "velocity": 84,
                "time": 62
            },
            {
                "note": 85,
                "velocity": 74,
                "time": 492
            },
            {
                "note": 83,
                "velocity": 0,
                "time": 17
            },
            {
                "note": 86,
                "velocity": 78,
                "time": 215
            },
            {
                "note": 85,
                "velocity": 0,
                "time": 2
            },
            {
                "note": 93,
                "velocity": 84,
                "time": 237
            },
            {
                "note": 86,
                "velocity": 0,
                "time": 12
            },
            {
                "note": 93,
                "velocity": 0,
                "time": 18
            },
            {
                "note": 79,
                "velocity": 70,
                "time": 113
            },
            {
                "note": 83,
                "velocity": 72,
                "time": 1
            },
            {
                "note": 90,
                "velocity": 89,
                "time": 4
            },
            {
                "note": 90,
                "velocity": 0,
                "time": 355
            },
            {
                "note": 90,
                "velocity": 89,
                "time": 52
            },
            {
                "note": 88,
                "velocity": 71,
                "time": 251
            },
            {
                "note": 90,
                "velocity": 0,
                "time": 19
            },
            {
                "note": 90,
                "velocity": 86,
                "time": 108
            },
            {
                "note": 88,
                "velocity": 0,
                "time": 17
            },
            {
                "note": 83,
                "velocity": 0,
                "time": 385
            },
            {
                "note": 79,
                "velocity": 0,
                "time": 5
            },
            {
                "note": 90,
                "velocity": 0,
                "time": 8
            },
            {
                "note": 88,
                "velocity": 82,
                "time": 19
            },
            {
                "note": 90,
                "velocity": 78,
                "time": 245
            },
            {
                "note": 88,
                "velocity": 0,
                "time": 38
            },
            {
                "note": 93,
                "velocity": 86,
                "time": 201
            },
            {
                "note": 90,
                "velocity": 0,
                "time": 9
            },
            {
                "note": 93,
                "velocity": 0,
                "time": 221
            },
            {
                "note": 90,
                "velocity": 74,
                "time": 8
            },
            {
                "note": 90,
                "velocity": 0,
                "time": 226
            },
            {
                "note": 93,
                "velocity": 82,
                "time": 11
            },
            {
                "note": 98,
                "velocity": 82,
                "time": 250
            },
            {
                "note": 93,
                "velocity": 0,
                "time": 2
            },
            {
                "note": 98,
                "velocity": 0,
                "time": 121
            },
            {
                "note": 97,
                "velocity": 81,
                "time": 6
            },
            {
                "note": 95,
                "velocity": 87,
                "time": 68
            },
            {
                "note": 97,
                "velocity": 0,
                "time": 62
            },
            {
                "note": 90,
                "velocity": 85,
                "time": 56
            },
            {
                "note": 95,
                "velocity": 0,
                "time": 21
            },
            {
                "note": 86,
                "velocity": 73,
                "time": 100
            },
            {
                "note": 90,
                "velocity": 0,
                "time": 14
            },
            {
                "note": 85,
                "velocity": 76,
                "time": 106
            },
            {
                "note": 86,
                "velocity": 0,
                "time": 11
            },
            {
                "note": 83,
                "velocity": 76,
                "time": 110
            },
            {
                "note": 85,
                "velocity": 0,
                "time": 40
            },
            {
                "note": 78,
                "velocity": 83,
                "time": 82
            },
            {
                "note": 83,
                "velocity": 0,
                "time": 23
            },
            {
                "note": 74,
                "velocity": 83,
                "time": 96
            },
            {
                "note": 78,
                "velocity": 0,
                "time": 9
            },
            {
                "note": 73,
                "velocity": 87,
                "time": 110
            },
            {
                "note": 74,
                "velocity": 0,
                "time": 9
            },
            {
                "note": 71,
                "velocity": 81,
                "time": 109
            },
            {
                "note": 73,
                "velocity": 0,
                "time": 36
            },
            {
                "note": 66,
                "velocity": 78,
                "time": 84
            },
            {
                "note": 71,
                "velocity": 0,
                "time": 22
            },
            {
                "note": 66,
                "velocity": 0,
                "time": 91
            },
            {
                "note": 62,
                "velocity": 66,
                "time": 4
            },
            {
                "note": 61,
                "velocity": 74,
                "time": 118
            },
            {
                "note": 62,
                "velocity": 0,
                "time": 10
            },
            {
                "note": 59,
                "velocity": 78,
                "time": 109
            },
            {
                "note": 61,
                "velocity": 0,
                "time": 27
            },
            {
                "note": 54,
                "velocity": 93,
                "time": 92
            },
            {
                "note": 59,
                "velocity": 0,
                "time": 14
            },
            {
                "note": 50,
                "velocity": 93,
                "time": 105
            },
            {
                "note": 54,
                "velocity": 0,
                "time": 12
            },
            {
                "note": 47,
                "velocity": 45,
                "time": 104
            },
            {
                "note": 50,
                "velocity": 78,
                "time": 27
            },
            {
                "note": 50,
                "velocity": 0,
                "time": 2
            },
            {
                "note": 54,
                "velocity": 73,
                "time": 3
            },
            {
                "note": 59,
                "velocity": 87,
                "time": 10
            },
            {
                "note": 50,
                "velocity": 0,
                "time": 1827
            },
            {
                "note": 47,
                "velocity": 0,
                "time": 2
            },
            {
                "note": 54,
                "velocity": 0,
                "time": 4
            },
            {
                "note": 59,
                "velocity": 0,
                "time": 9
            }
        ],
        "1": [
            {
                "note": 43,
                "velocity": 96,
                "time": 2
            },
            {
                "note": 50,
                "velocity": 89,
                "time": 200
            },
            {
                "note": 55,
                "velocity": 79,
                "time": 240
            },
            {
                "note": 59,
                "velocity": 105,
                "time": 240
            },
            {
                "note": 50,
                "velocity": 0,
                "time": 240
            },
            {
                "note": 55,
                "velocity": 0,
                "time": 240
            },
            {
                "note": 50,
                "velocity": 89,
                "time": 0
            },
            {
                "note": 55,
                "velocity": 87,
                "time": 240
            },
            {
                "note": 59,
                "velocity": 0,
                "time": 120
            },
            {
                "note": 43,
                "velocity": 0,
                "time": 120
            },
            {
                "note": 59,
                "velocity": 98,
                "time": 0
            },
            {
                "note": 50,
                "velocity": 0,
                "time": 120
            },
            {
                "note": 59,
                "velocity": 0,
                "time": 5
            },
            {
                "note": 55,
                "velocity": 0,
                "time": 0
            },
            {
                "note": 45,
                "velocity": 94,
                "time": 0
            },
            {
                "note": 52,
                "velocity": 83,
                "time": 177
            },
            {
                "note": 57,
                "velocity": 91,
                "time": 240
            },
            {
                "note": 61,
                "velocity": 102,
                "time": 240
            },
            {
                "note": 52,
                "velocity": 0,
                "time": 240
            },
            {
                "note": 57,
                "velocity": 0,
                "time": 240
            },
            {
                "note": 52,
                "velocity": 87,
                "time": 0
            },
            {
                "note": 57,
                "velocity": 91,
                "time": 240
            },
            {
                "note": 61,
                "velocity": 0,
                "time": 120
            },
            {
                "note": 45,
                "velocity": 0,
                "time": 120
            },
            {
                "note": 52,
                "velocity": 0,
                "time": 4
            },
            {
                "note": 57,
                "velocity": 0,
                "time": 0
            },
            {
                "note": 47,
                "velocity": 94,
                "time": 0
            },
            {
                "note": 50,
                "velocity": 94,
                "time": 204
            },
            {
                "note": 54,
                "velocity": 85,
                "time": 240
            },
            {
                "note": 59,
                "velocity": 102,
                "time": 240
            },
            {
                "note": 50,
                "velocity": 0,
                "time": 240
            },
            {
                "note": 54,
                "velocity": 0,
                "time": 240
            },
            {
                "note": 50,
                "velocity": 83,
                "time": 0
            },
            {
                "note": 59,
                "velocity": 0,
                "time": 240
            },
            {
                "note": 54,
                "velocity": 91,
                "time": 0
            },
            {
                "note": 47,
                "velocity": 0,
                "time": 240
            },
            {
                "note": 59,
                "velocity": 96,
                "time": 0
            },
            {
                "note": 50,
                "velocity": 0,
                "time": 11
            },
            {
                "note": 54,
                "velocity": 0,
                "time": 3
            },
            {
                "note": 59,
                "velocity": 0,
                "time": 21
            },
            {
                "note": 47,
                "velocity": 100,
                "time": 16
            },
            {
                "note": 54,
                "velocity": 89,
                "time": 178
            },
            {
                "note": 59,
                "velocity": 100,
                "time": 240
            },
            {
                "note": 59,
                "velocity": 0,
                "time": 240
            },
            {
                "note": 62,
                "velocity": 94,
                "time": 0
            },
            {
                "note": 62,
                "velocity": 0,
                "time": 240
            },
            {
                "note": 61,
                "velocity": 87,
                "time": 0
            },
            {
                "note": 61,
                "velocity": 0,
                "time": 240
            },
            {
                "note": 59,
                "velocity": 87,
                "time": 0
            },
            {
                "note": 54,
                "velocity": 0,
                "time": 120
            },
            {
                "note": 54,
                "velocity": 85,
                "time": 120
            },
            {
                "note": 47,
                "velocity": 0,
                "time": 120
            },
            {
                "note": 59,
                "velocity": 0,
                "time": 120
            },
            {
                "note": 54,
                "velocity": 0,
                "time": 120
            },
            {
                "note": 43,
                "velocity": 94,
                "time": 7
            },
            {
                "note": 50,
                "velocity": 94,
                "time": 166
            },
            {
                "note": 55,
                "velocity": 79,
                "time": 240
            },
            {
                "note": 59,
                "velocity": 105,
                "time": 240
            },
            {
                "note": 50,
                "velocity": 0,
                "time": 240
            },
            {
                "note": 55,
                "velocity": 0,
                "time": 240
            },
            {
                "note": 50,
                "velocity": 89,
                "time": 0
            },
            {
                "note": 55,
                "velocity": 87,
                "time": 240
            },
            {
                "note": 59,
                "velocity": 0,
                "time": 120
            },
            {
                "note": 43,
                "velocity": 0,
                "time": 120
            },
            {
                "note": 59,
                "velocity": 94,
                "time": 0
            },
            {
                "note": 50,
                "velocity": 0,
                "time": 120
            },
            {
                "note": 59,
                "velocity": 0,
                "time": 15
            },
            {
                "note": 55,
                "velocity": 0,
                "time": 20
            },
            {
                "note": 45,
                "velocity": 98,
                "time": 32
            },
            {
                "note": 52,
                "velocity": 91,
                "time": 166
            },
            {
                "note": 57,
                "velocity": 96,
                "time": 240
            },
            {
                "note": 61,
                "velocity": 100,
                "time": 240
            },
            {
                "note": 52,
                "velocity": 0,
                "time": 360
            },
            {
                "note": 57,
                "velocity": 0,
                "time": 120
            },
            {
                "note": 52,
                "velocity": 94,
                "time": 0
            },
            {
                "note": 57,
                "velocity": 91,
                "time": 240
            },
            {
                "note": 61,
                "velocity": 0,
                "time": 120
            },
            {
                "note": 45,
                "velocity": 0,
                "time": 120
            },
            {
                "note": 52,
                "velocity": 0,
                "time": 120
            },
            {
                "note": 57,
                "velocity": 0,
                "time": 15
            },
            {
                "note": 47,
                "velocity": 94,
                "time": 34
            },
            {
                "note": 54,
                "velocity": 81,
                "time": 177
            },
            {
                "note": 59,
                "velocity": 81,
                "time": 240
            },
            {
                "note": 62,
                "velocity": 96,
                "time": 240
            },
            {
                "note": 54,
                "velocity": 0,
                "time": 240
            },
            {
                "note": 59,
                "velocity": 0,
                "time": 240
            },
            {
                "note": 54,
                "velocity": 89,
                "time": 0
            },
            {
                "note": 62,
                "velocity": 0,
                "time": 120
            },
            {
                "note": 59,
                "velocity": 91,
                "time": 120
            },
            {
                "note": 47,
                "velocity": 0,
                "time": 240
            },
            {
                "note": 62,
                "velocity": 100,
                "time": 0
            },
            {
                "note": 62,
                "velocity": 0,
                "time": 14
            },
            {
                "note": 59,
                "velocity": 0,
                "time": 14
            },
            {
                "note": 54,
                "velocity": 0,
                "time": 0
            },
            {
                "note": 47,
                "velocity": 94,
                "time": 32
            },
            {
                "note": 54,
                "velocity": 85,
                "time": 163
            },
            {
                "note": 59,
                "velocity": 100,
                "time": 240
            },
            {
                "note": 61,
                "velocity": 94,
                "time": 240
            },
            {
                "note": 61,
                "velocity": 0,
                "time": 240
            },
            {
                "note": 62,
                "velocity": 94,
                "time": 0
            },
            {
                "note": 62,
                "velocity": 0,
                "time": 240
            },
            {
                "note": 66,
                "velocity": 85,
                "time": 0
            },
            {
                "note": 66,
                "velocity": 0,
                "time": 240
            },
            {
                "note": 71,
                "velocity": 81,
                "time": 0
            },
            {
                "note": 47,
                "velocity": 0,
                "time": 112
            },
            {
                "note": 59,
                "velocity": 0,
                "time": 96
            },
            {
                "note": 54,
                "velocity": 0,
                "time": 16
            },
            {
                "note": 71,
                "velocity": 0,
                "time": 0
            },
            {
                "note": 42,
                "velocity": 100,
                "time": 7
            },
            {
                "note": 42,
                "velocity": 0,
                "time": 11
            },
            {
                "note": 43,
                "velocity": 96,
                "time": 0
            },
            {
                "note": 50,
                "velocity": 89,
                "time": 188
            },
            {
                "note": 55,
                "velocity": 79,
                "time": 240
            },
            {
                "note": 59,
                "velocity": 105,
                "time": 240
            },
            {
                "note": 50,
                "velocity": 0,
                "time": 240
            },
            {
                "note": 55,
                "velocity": 0,
                "time": 240
            },
            {
                "note": 50,
                "velocity": 89,
                "time": 0
            },
            {
                "note": 55,
                "velocity": 87,
                "time": 240
            },
            {
                "note": 59,
                "velocity": 0,
                "time": 120
            },
            {
                "note": 43,
                "velocity": 0,
                "time": 120
            },
            {
                "note": 59,
                "velocity": 98,
                "time": 0
            },
            {
                "note": 50,
                "velocity": 0,
                "time": 120
            },
            {
                "note": 55,
                "velocity": 0,
                "time": 9
            },
            {
                "note": 59,
                "velocity": 0,
                "time": 13
            },
            {
                "note": 45,
                "velocity": 94,
                "time": 16
            },
            {
                "note": 52,
                "velocity": 83,
                "time": 159
            },
            {
                "note": 57,
                "velocity": 91,
                "time": 240
            },
            {
                "note": 61,
                "velocity": 102,
                "time": 240
            },
            {
                "note": 52,
                "velocity": 0,
                "time": 240
            },
            {
                "note": 57,
                "velocity": 0,
                "time": 240
            },
            {
                "note": 52,
                "velocity": 87,
                "time": 0
            },
            {
                "note": 57,
                "velocity": 91,
                "time": 240
            },
            {
                "note": 61,
                "velocity": 0,
                "time": 120
            },
            {
                "note": 45,
                "velocity": 0,
                "time": 120
            },
            {
                "note": 52,
                "velocity": 0,
                "time": 8
            },
            {
                "note": 57,
                "velocity": 0,
                "time": 9
            },
            {
                "note": 47,
                "velocity": 94,
                "time": 13
            },
            {
                "note": 50,
                "velocity": 94,
                "time": 199
            },
            {
                "note": 54,
                "velocity": 85,
                "time": 240
            },
            {
                "note": 59,
                "velocity": 102,
                "time": 240
            },
            {
                "note": 50,
                "velocity": 0,
                "time": 240
            },
            {
                "note": 54,
                "velocity": 0,
                "time": 240
            },
            {
                "note": 50,
                "velocity": 83,
                "time": 0
            },
            {
                "note": 59,
                "velocity": 0,
                "time": 240
            },
            {
                "note": 54,
                "velocity": 91,
                "time": 0
            },
            {
                "note": 47,
                "velocity": 0,
                "time": 240
            },
            {
                "note": 59,
                "velocity": 96,
                "time": 0
            },
            {
                "note": 54,
                "velocity": 0,
                "time": 8
            },
            {
                "note": 50,
                "velocity": 0,
                "time": 0
            },
            {
                "note": 59,
                "velocity": 0,
                "time": 11
            },
            {
                "note": 47,
                "velocity": 100,
                "time": 1
            },
            {
                "note": 54,
                "velocity": 89,
                "time": 172
            },
            {
                "note": 59,
                "velocity": 100,
                "time": 240
            },
            {
                "note": 59,
                "velocity": 0,
                "time": 240
            },
            {
                "note": 62,
                "velocity": 94,
                "time": 0
            },
            {
                "note": 62,
                "velocity": 0,
                "time": 240
            },
            {
                "note": 61,
                "velocity": 87,
                "time": 0
            },
            {
                "note": 61,
                "velocity": 0,
                "time": 240
            },
            {
                "note": 59,
                "velocity": 87,
                "time": 0
            },
            {
                "note": 54,
                "velocity": 0,
                "time": 120
            },
            {
                "note": 54,
                "velocity": 85,
                "time": 120
            },
            {
                "note": 47,
                "velocity": 0,
                "time": 120
            },
            {
                "note": 59,
                "velocity": 0,
                "time": 3
            },
            {
                "note": 54,
                "velocity": 0,
                "time": 100
            },
            {
                "note": 43,
                "velocity": 94,
                "time": 120
            },
            {
                "note": 50,
                "velocity": 94,
                "time": 151
            },
            {
                "note": 55,
                "velocity": 79,
                "time": 240
            },
            {
                "note": 59,
                "velocity": 105,
                "time": 240
            },
            {
                "note": 50,
                "velocity": 0,
                "time": 240
            },
            {
                "note": 55,
                "velocity": 0,
                "time": 240
            },
            {
                "note": 50,
                "velocity": 89,
                "time": 0
            },
            {
                "note": 55,
                "velocity": 87,
                "time": 240
            },
            {
                "note": 59,
                "velocity": 0,
                "time": 120
            },
            {
                "note": 43,
                "velocity": 0,
                "time": 120
            },
            {
                "note": 59,
                "velocity": 94,
                "time": 0
            },
            {
                "note": 50,
                "velocity": 0,
                "time": 120
            },
            {
                "note": 55,
                "velocity": 0,
                "time": 11
            },
            {
                "note": 59,
                "velocity": 0,
                "time": 13
            },
            {
                "note": 45,
                "velocity": 98,
                "time": 0
            },
            {
                "note": 52,
                "velocity": 91,
                "time": 202
            },
            {
                "note": 57,
                "velocity": 96,
                "time": 240
            },
            {
                "note": 61,
                "velocity": 100,
                "time": 240
            },
            {
                "note": 52,
                "velocity": 0,
                "time": 360
            },
            {
                "note": 57,
                "velocity": 0,
                "time": 120
            },
            {
                "note": 52,
                "velocity": 94,
                "time": 0
            },
            {
                "note": 57,
                "velocity": 91,
                "time": 240
            },
            {
                "note": 61,
                "velocity": 0,
                "time": 120
            },
            {
                "note": 45,
                "velocity": 0,
                "time": 120
            },
            {
                "note": 52,
                "velocity": 0,
                "time": 120
            },
            {
                "note": 57,
                "velocity": 0,
                "time": 9
            },
            {
                "note": 47,
                "velocity": 94,
                "time": 3
            },
            {
                "note": 54,
                "velocity": 81,
                "time": 184
            },
            {
                "note": 59,
                "velocity": 81,
                "time": 240
            },
            {
                "note": 62,
                "velocity": 96,
                "time": 240
            },
            {
                "note": 54,
                "velocity": 0,
                "time": 240
            },
            {
                "note": 59,
                "velocity": 0,
                "time": 240
            },
            {
                "note": 54,
                "velocity": 89,
                "time": 0
            },
            {
                "note": 62,
                "velocity": 0,
                "time": 120
            },
            {
                "note": 59,
                "velocity": 91,
                "time": 120
            },
            {
                "note": 47,
                "velocity": 0,
                "time": 240
            },
            {
                "note": 62,
                "velocity": 100,
                "time": 0
            },
            {
                "note": 59,
                "velocity": 0,
                "time": 33
            },
            {
                "note": 54,
                "velocity": 0,
                "time": 16
            },
            {
                "note": 62,
                "velocity": 0,
                "time": 10
            },
            {
                "note": 47,
                "velocity": 94,
                "time": 15
            },
            {
                "note": 54,
                "velocity": 85,
                "time": 212
            },
            {
                "note": 59,
                "velocity": 100,
                "time": 240
            },
            {
                "note": 61,
                "velocity": 94,
                "time": 240
            },
            {
                "note": 61,
                "velocity": 0,
                "time": 240
            },
            {
                "note": 62,
                "velocity": 94,
                "time": 0
            },
            {
                "note": 62,
                "velocity": 0,
                "time": 240
            },
            {
                "note": 66,
                "velocity": 85,
                "time": 0
            },
            {
                "note": 66,
                "velocity": 0,
                "time": 240
            },
            {
                "note": 71,
                "velocity": 81,
                "time": 0
            },
            {
                "note": 71,
                "velocity": 0,
                "time": 240
            },
            {
                "note": 73,
                "velocity": 102,
                "time": 0
            },
            {
                "note": 47,
                "velocity": 0,
                "time": 112
            },
            {
                "note": 54,
                "velocity": 0,
                "time": 8
            },
            {
                "note": 59,
                "velocity": 0,
                "time": 0
            },
            {
                "note": 73,
                "velocity": 0,
                "time": 19
            },
            {
                "note": 47,
                "velocity": 94,
                "time": 0
            },
            {
                "note": 54,
                "velocity": 81,
                "time": 173
            },
            {
                "note": 59,
                "velocity": 81,
                "time": 240
            },
            {
                "note": 64,
                "velocity": 96,
                "time": 240
            },
            {
                "note": 54,
                "velocity": 0,
                "time": 240
            },
            {
                "note": 59,
                "velocity": 0,
                "time": 240
            },
            {
                "note": 54,
                "velocity": 89,
                "time": 0
            },
            {
                "note": 64,
                "velocity": 0,
                "time": 120
            },
            {
                "note": 59,
                "velocity": 91,
                "time": 120
            },
            {
                "note": 47,
                "velocity": 0,
                "time": 240
            },
            {
                "note": 64,
                "velocity": 100,
                "time": 0
            },
            {
                "note": 59,
                "velocity": 0,
                "time": 10
            },
            {
                "note": 54,
                "velocity": 0,
                "time": 0
            },
            {
                "note": 64,
                "velocity": 0,
                "time": 32
            },
            {
                "note": 35,
                "velocity": 80,
                "time": 16
            },
            {
                "note": 47,
                "velocity": 80,
                "time": 0
            },
            {
                "note": 54,
                "velocity": 84,
                "time": 148
            },
            {
                "note": 59,
                "velocity": 78,
                "time": 240
            },
            {
                "note": 64,
                "velocity": 93,
                "time": 240
            },
            {
                "note": 54,
                "velocity": 0,
                "time": 25
            },
            {
                "note": 35,
                "velocity": 0,
                "time": 16
            },
            {
                "note": 47,
                "velocity": 0,
                "time": 0
            },
            {
                "note": 59,
                "velocity": 0,
                "time": 24
            },
            {
                "note": 47,
                "velocity": 81,
                "time": 62
            },
            {
                "note": 64,
                "velocity": 0,
                "time": 3
            },
            {
                "note": 59,
                "velocity": 76,
                "time": 6
            },
            {
                "note": 63,
                "velocity": 92,
                "time": 2
            },
            {
                "note": 66,
                "velocity": 67,
                "time": 9
            },
            {
                "note": 66,
                "velocity": 0,
                "time": 6
            },
            {
                "note": 63,
                "velocity": 0,
                "time": 0
            },
            {
                "note": 59,
                "velocity": 0,
                "time": 0
            },
            {
                "note": 47,
                "velocity": 0,
                "time": 14
            },
            {
                "note": 52,
                "velocity": 74,
                "time": 7
            },
            {
                "note": 59,
                "velocity": 78,
                "time": 98
            },
            {
                "note": 64,
                "velocity": 70,
                "time": 240
            },
            {
                "note": 68,
                "velocity": 74,
                "time": 240
            },
            {
                "note": 59,
                "velocity": 0,
                "time": 260
            },
            {
                "note": 59,
                "velocity": 80,
                "time": 220
            },
            {
                "note": 64,
                "velocity": 0,
                "time": 52
            },
            {
                "note": 64,
                "velocity": 63,
                "time": 188
            },
            {
                "note": 68,
                "velocity": 0,
                "time": 64
            },
            {
                "note": 52,
                "velocity": 0,
                "time": 148
            },
            {
                "note": 59,
                "velocity": 0,
                "time": 28
            },
            {
                "note": 68,
                "velocity": 78,
                "time": 0
            },
            {
                "note": 64,
                "velocity": 0,
                "time": 8
            },
            {
                "note": 68,
                "velocity": 0,
                "time": 11
            },
            {
                "note": 54,
                "velocity": 93,
                "time": 32
            },
            {
                "note": 61,
                "velocity": 86,
                "time": 149
            },
            {
                "note": 66,
                "velocity": 84,
                "time": 240
            },
            {
                "note": 70,
                "velocity": 70,
                "time": 240
            },
            {
                "note": 61,
                "velocity": 0,
                "time": 280
            },
            {
                "note": 61,
                "velocity": 84,
                "time": 200
            },
            {
                "note": 66,
                "velocity": 0,
                "time": 40
            },
            {
                "note": 66,
                "velocity": 63,
                "time": 200
            },
            {
                "note": 70,
                "velocity": 0,
                "time": 80
            },
            {
                "note": 54,
                "velocity": 0,
                "time": 168
            },
            {
                "note": 61,
                "velocity": 0,
                "time": 24
            },
            {
                "note": 66,
                "velocity": 0,
                "time": 11
            },
            {
                "note": 56,
                "velocity": 82,
                "time": 33
            },
            {
                "note": 63,
                "velocity": 88,
                "time": 240
            },
            {
                "note": 68,
                "velocity": 78,
                "time": 240
            },
            {
                "note": 71,
                "velocity": 93,
                "time": 240
            },
            {
                "note": 63,
                "velocity": 0,
                "time": 248
            },
            {
                "note": 63,
                "velocity": 82,
                "time": 232
            },
            {
                "note": 68,
                "velocity": 0,
                "time": 4
            },
            {
                "note": 68,
                "velocity": 93,
                "time": 236
            },
            {
                "note": 71,
                "velocity": 0,
                "time": 60
            },
            {
                "note": 68,
                "velocity": 0,
                "time": 172
            },
            {
                "note": 71,
                "velocity": 93,
                "time": 8
            },
            {
                "note": 63,
                "velocity": 0,
                "time": 16
            },
            {
                "note": 56,
                "velocity": 0,
                "time": 12
            },
            {
                "note": 71,
                "velocity": 0,
                "time": 16
            },
            {
                "note": 44,
                "velocity": 87,
                "time": 16
            },
            {
                "note": 56,
                "velocity": 86,
                "time": 145
            },
            {
                "note": 63,
                "velocity": 74,
                "time": 240
            },
            {
                "note": 68,
                "velocity": 74,
                "time": 240
            },
            {
                "note": 56,
                "velocity": 0,
                "time": 52
            },
            {
                "note": 44,
                "velocity": 0,
                "time": 8
            },
            {
                "note": 63,
                "velocity": 0,
                "time": 8
            },
            {
                "note": 68,
                "velocity": 0,
                "time": 0
            },
            {
                "note": 42,
                "velocity": 85,
                "time": 7
            },
            {
                "note": 54,
                "velocity": 90,
                "time": 152
            },
            {
                "note": 61,
                "velocity": 74,
                "time": 240
            },
            {
                "note": 42,
                "velocity": 0,
                "time": 220
            },
            {
                "note": 66,
                "velocity": 84,
                "time": 20
            },
            {
                "note": 54,
                "velocity": 0,
                "time": 128
            },
            {
                "note": 61,
                "velocity": 0,
                "time": 16
            },
            {
                "note": 66,
                "velocity": 0,
                "time": 2
            },
            {
                "note": 52,
                "velocity": 77,
                "time": 7
            },
            {
                "note": 59,
                "velocity": 77,
                "time": 152
            },
            {
                "note": 64,
                "velocity": 80,
                "time": 240
            },
            {
                "note": 68,
                "velocity": 99,
                "time": 240
            },
            {
                "note": 59,
                "velocity": 0,
                "time": 316
            },
            {
                "note": 59,
                "velocity": 59,
                "time": 164
            },
            {
                "note": 64,
                "velocity": 0,
                "time": 80
            },
            {
                "note": 64,
                "velocity": 73,
                "time": 160
            },
            {
                "note": 68,
                "velocity": 0,
                "time": 84
            },
            {
                "note": 68,
                "velocity": 82,
                "time": 156
            },
            {
                "note": 52,
                "velocity": 0,
                "time": 28
            },
            {
                "note": 59,
                "velocity": 0,
                "time": 20
            },
            {
                "note": 64,
                "velocity": 0,
                "time": 1
            },
            {
                "note": 68,
                "velocity": 0,
                "time": 7
            },
            {
                "note": 54,
                "velocity": 93,
                "time": 8
            },
            {
                "note": 61,
                "velocity": 84,
                "time": 220
            },
            {
                "note": 66,
                "velocity": 71,
                "time": 240
            },
            {
                "note": 70,
                "velocity": 84,
                "time": 240
            },
            {
                "note": 61,
                "velocity": 0,
                "time": 260
            },
            {
                "note": 61,
                "velocity": 74,
                "time": 220
            },
            {
                "note": 66,
                "velocity": 0,
                "time": 8
            },
            {
                "note": 66,
                "velocity": 63,
                "time": 232
            },
            {
                "note": 70,
                "velocity": 0,
                "time": 76
            },
            {
                "note": 54,
                "velocity": 0,
                "time": 180
            },
            {
                "note": 61,
                "velocity": 0,
                "time": 36
            },
            {
                "note": 66,
                "velocity": 0,
                "time": 14
            },
            {
                "note": 56,
                "velocity": 93,
                "time": 8
            },
            {
                "note": 63,
                "velocity": 80,
                "time": 217
            },
            {
                "note": 68,
                "velocity": 75,
                "time": 240
            },
            {
                "note": 71,
                "velocity": 75,
                "time": 240
            },
            {
                "note": 63,
                "velocity": 0,
                "time": 236
            },
            {
                "note": 68,
                "velocity": 0,
                "time": 240
            },
            {
                "note": 63,
                "velocity": 58,
                "time": 4
            },
            {
                "note": 68,
                "velocity": 63,
                "time": 240
            },
            {
                "note": 71,
                "velocity": 0,
                "time": 124
            },
            {
                "note": 71,
                "velocity": 75,
                "time": 116
            },
            {
                "note": 56,
                "velocity": 0,
                "time": 10
            },
            {
                "note": 68,
                "velocity": 0,
                "time": 38
            },
            {
                "note": 63,
                "velocity": 0,
                "time": 16
            },
            {
                "note": 71,
                "velocity": 0,
                "time": 0
            },
            {
                "note": 44,
                "velocity": 74,
                "time": 3
            },
            {
                "note": 51,
                "velocity": 88,
                "time": 231
            },
            {
                "note": 56,
                "velocity": 99,
                "time": 240
            },
            {
                "note": 63,
                "velocity": 115,
                "time": 240
            },
            {
                "note": 68,
                "velocity": 78,
                "time": 240
            },
            {
                "note": 59,
                "velocity": 82,
                "time": 240
            },
            {
                "note": 56,
                "velocity": 0,
                "time": 128
            },
            {
                "note": 56,
                "velocity": 68,
                "time": 112
            },
            {
                "note": 44,
                "velocity": 0,
                "time": 128
            },
            {
                "note": 42,
                "velocity": 73,
                "time": 7
            },
            {
                "note": 63,
                "velocity": 0,
                "time": 18
            },
            {
                "note": 68,
                "velocity": 0,
                "time": 32
            },
            {
                "note": 59,
                "velocity": 0,
                "time": 16
            },
            {
                "note": 51,
                "velocity": 0,
                "time": 16
            },
            {
                "note": 56,
                "velocity": 0,
                "time": 32
            },
            {
                "note": 42,
                "velocity": 0,
                "time": 48
            },
            {
                "note": 40,
                "velocity": 88,
                "time": 0
            },
            {
                "note": 59,
                "velocity": 68,
                "time": 120
            },
            {
                "note": 64,
                "velocity": 74,
                "time": 240
            },
            {
                "note": 68,
                "velocity": 90,
                "time": 240
            },
            {
                "note": 59,
                "velocity": 0,
                "time": 264
            },
            {
                "note": 59,
                "velocity": 61,
                "time": 216
            },
            {
                "note": 64,
                "velocity": 0,
                "time": 12
            },
            {
                "note": 64,
                "velocity": 82,
                "time": 228
            },
            {
                "note": 68,
                "velocity": 0,
                "time": 40
            },
            {
                "note": 40,
                "velocity": 0,
                "time": 132
            },
            {
                "note": 68,
                "velocity": 80,
                "time": 68
            },
            {
                "note": 59,
                "velocity": 0,
                "time": 44
            },
            {
                "note": 64,
                "velocity": 0,
                "time": 11
            },
            {
                "note": 68,
                "velocity": 0,
                "time": 1
            },
            {
                "note": 42,
                "velocity": 84,
                "time": 6
            },
            {
                "note": 61,
                "velocity": 82,
                "time": 240
            },
            {
                "note": 66,
                "velocity": 75,
                "time": 240
            },
            {
                "note": 70,
                "velocity": 80,
                "time": 240
            },
            {
                "note": 61,
                "velocity": 0,
                "time": 252
            },
            {
                "note": 66,
                "velocity": 0,
                "time": 180
            },
            {
                "note": 61,
                "velocity": 70,
                "time": 48
            },
            {
                "note": 66,
                "velocity": 77,
                "time": 240
            },
            {
                "note": 70,
                "velocity": 0,
                "time": 72
            },
            {
                "note": 70,
                "velocity": 80,
                "time": 168
            },
            {
                "note": 42,
                "velocity": 0,
                "time": 8
            },
            {
                "note": 61,
                "velocity": 0,
                "time": 64
            },
            {
                "note": 66,
                "velocity": 0,
                "time": 5
            },
            {
                "note": 70,
                "velocity": 0,
                "time": 11
            },
            {
                "note": 44,
                "velocity": 90,
                "time": 1
            },
            {
                "note": 63,
                "velocity": 80,
                "time": 200
            },
            {
                "note": 68,
                "velocity": 71,
                "time": 240
            },
            {
                "note": 71,
                "velocity": 80,
                "time": 240
            },
            {
                "note": 63,
                "velocity": 0,
                "time": 284
            },
            {
                "note": 68,
                "velocity": 0,
                "time": 188
            },
            {
                "note": 63,
                "velocity": 75,
                "time": 8
            },
            {
                "note": 68,
                "velocity": 77,
                "time": 240
            },
            {
                "note": 71,
                "velocity": 0,
                "time": 28
            },
            {
                "note": 68,
                "velocity": 0,
                "time": 200
            },
            {
                "note": 63,
                "velocity": 0,
                "time": 0
            },
            {
                "note": 71,
                "velocity": 95,
                "time": 12
            },
            {
                "note": 44,
                "velocity": 0,
                "time": 28
            },
            {
                "note": 71,
                "velocity": 0,
                "time": 9
            },
            {
                "note": 44,
                "velocity": 86,
                "time": 12
            },
            {
                "note": 56,
                "velocity": 73,
                "time": 198
            },
            {
                "note": 63,
                "velocity": 74,
                "time": 240
            },
            {
                "note": 68,
                "velocity": 77,
                "time": 240
            },
            {
                "note": 56,
                "velocity": 0,
                "time": 48
            },
            {
                "note": 44,
                "velocity": 0,
                "time": 20
            },
            {
                "note": 42,
                "velocity": 86,
                "time": 3
            },
            {
                "note": 54,
                "velocity": 58,
                "time": 191
            },
            {
                "note": 63,
                "velocity": 0,
                "time": 12
            },
            {
                "note": 68,
                "velocity": 0,
                "time": 160
            },
            {
                "note": 61,
                "velocity": 78,
                "time": 68
            },
            {
                "note": 42,
                "velocity": 0,
                "time": 168
            },
            {
                "note": 66,
                "velocity": 95,
                "time": 72
            },
            {
                "note": 61,
                "velocity": 0,
                "time": 44
            },
            {
                "note": 66,
                "velocity": 0,
                "time": 13
            },
            {
                "note": 54,
                "velocity": 0,
                "time": 9
            },
            {
                "note": 40,
                "velocity": 78,
                "time": 5
            },
            {
                "note": 59,
                "velocity": 66,
                "time": 163
            },
            {
                "note": 64,
                "velocity": 80,
                "time": 240
            },
            {
                "note": 68,
                "velocity": 95,
                "time": 240
            },
            {
                "note": 59,
                "velocity": 0,
                "time": 288
            },
            {
                "note": 59,
                "velocity": 60,
                "time": 192
            },
            {
                "note": 64,
                "velocity": 0,
                "time": 88
            },
            {
                "note": 64,
                "velocity": 84,
                "time": 152
            },
            {
                "note": 68,
                "velocity": 0,
                "time": 144
            },
            {
                "note": 68,
                "velocity": 84,
                "time": 96
            },
            {
                "note": 59,
                "velocity": 0,
                "time": 32
            },
            {
                "note": 40,
                "velocity": 0,
                "time": 24
            },
            {
                "note": 64,
                "velocity": 0,
                "time": 16
            },
            {
                "note": 68,
                "velocity": 0,
                "time": 4
            },
            {
                "note": 42,
                "velocity": 93,
                "time": 7
            },
            {
                "note": 61,
                "velocity": 86,
                "time": 205
            },
            {
                "note": 66,
                "velocity": 77,
                "time": 240
            },
            {
                "note": 70,
                "velocity": 75,
                "time": 240
            },
            {
                "note": 61,
                "velocity": 0,
                "time": 320
            },
            {
                "note": 66,
                "velocity": 0,
                "time": 152
            },
            {
                "note": 61,
                "velocity": 84,
                "time": 8
            },
            {
                "note": 70,
                "velocity": 0,
                "time": 236
            },
            {
                "note": 66,
                "velocity": 70,
                "time": 4
            },
            {
                "note": 66,
                "velocity": 0,
                "time": 184
            },
            {
                "note": 61,
                "velocity": 0,
                "time": 40
            },
            {
                "note": 42,
                "velocity": 0,
                "time": 0
            },
            {
                "note": 70,
                "velocity": 80,
                "time": 16
            },
            {
                "note": 70,
                "velocity": 0,
                "time": 31
            },
            {
                "note": 44,
                "velocity": 74,
                "time": 4
            },
            {
                "note": 51,
                "velocity": 60,
                "time": 204
            },
            {
                "note": 56,
                "velocity": 88,
                "time": 240
            },
            {
                "note": 63,
                "velocity": 77,
                "time": 240
            },
            {
                "note": 68,
                "velocity": 95,
                "time": 240
            },
            {
                "note": 71,
                "velocity": 82,
                "time": 240
            },
            {
                "note": 75,
                "velocity": 108,
                "time": 240
            },
            {
                "note": 63,
                "velocity": 0,
                "time": 12
            },
            {
                "note": 68,
                "velocity": 0,
                "time": 4
            },
            {
                "note": 71,
                "velocity": 0,
                "time": 12
            },
            {
                "note": 56,
                "velocity": 0,
                "time": 8
            },
            {
                "note": 44,
                "velocity": 0,
                "time": 13
            },
            {
                "note": 51,
                "velocity": 0,
                "time": 0
            },
            {
                "note": 75,
                "velocity": 0,
                "time": 16
            },
            {
                "note": 56,
                "velocity": 90,
                "time": 0
            },
            {
                "note": 44,
                "velocity": 90,
                "time": 0
            },
            {
                "note": 60,
                "velocity": 95,
                "time": 185
            },
            {
                "note": 63,
                "velocity": 101,
                "time": 240
            },
            {
                "note": 68,
                "velocity": 107,
                "time": 240
            },
            {
                "note": 68,
                "velocity": 0,
                "time": 240
            },
            {
                "note": 75,
                "velocity": 95,
                "time": 0
            },
            {
                "note": 68,
                "velocity": 97,
                "time": 240
            },
            {
                "note": 75,
                "velocity": 0,
                "time": 32
            },
            {
                "note": 68,
                "velocity": 0,
                "time": 3
            },
            {
                "note": 72,
                "velocity": 81,
                "time": 0
            },
            {
                "note": 66,
                "velocity": 85,
                "time": 177
            },
            {
                "note": 72,
                "velocity": 0,
                "time": 40
            },
            {
                "note": 63,
                "velocity": 0,
                "time": 152
            },
            {
                "note": 60,
                "velocity": 0,
                "time": 16
            },
            {
                "note": 56,
                "velocity": 0,
                "time": 0
            },
            {
                "note": 44,
                "velocity": 0,
                "time": 0
            },
            {
                "note": 66,
                "velocity": 0,
                "time": 32
            },
            {
                "note": 42,
                "velocity": 99,
                "time": 0
            },
            {
                "note": 54,
                "velocity": 86,
                "time": 136
            },
            {
                "note": 58,
                "velocity": 92,
                "time": 240
            },
            {
                "note": 61,
                "velocity": 86,
                "time": 240
            },
            {
                "note": 65,
                "velocity": 92,
                "time": 240
            },
            {
                "note": 61,
                "velocity": 0,
                "time": 32
            },
            {
                "note": 58,
                "velocity": 0,
                "time": 24
            },
            {
                "note": 58,
                "velocity": 73,
                "time": 184
            },
            {
                "note": 65,
                "velocity": 0,
                "time": 60
            },
            {
                "note": 61,
                "velocity": 86,
                "time": 180
            },
            {
                "note": 58,
                "velocity": 0,
                "time": 84
            },
            {
                "note": 58,
                "velocity": 79,
                "time": 156
            },
            {
                "note": 61,
                "velocity": 0,
                "time": 36
            },
            {
                "note": 42,
                "velocity": 0,
                "time": 48
            },
            {
                "note": 58,
                "velocity": 0,
                "time": 9
            },
            {
                "note": 54,
                "velocity": 0,
                "time": 8
            },
            {
                "note": 42,
                "velocity": 90,
                "time": 8
            },
            {
                "note": 54,
                "velocity": 90,
                "time": 223
            },
            {
                "note": 58,
                "velocity": 84,
                "time": 240
            },
            {
                "note": 61,
                "velocity": 90,
                "time": 240
            },
            {
                "note": 65,
                "velocity": 92,
                "time": 240
            },
            {
                "note": 61,
                "velocity": 0,
                "time": 44
            },
            {
                "note": 58,
                "velocity": 0,
                "time": 40
            },
            {
                "note": 58,
                "velocity": 77,
                "time": 156
            },
            {
                "note": 65,
                "velocity": 0,
                "time": 72
            },
            {
                "note": 61,
                "velocity": 84,
                "time": 168
            },
            {
                "note": 58,
                "velocity": 0,
                "time": 56
            },
            {
                "note": 58,
                "velocity": 95,
                "time": 184
            },
            {
                "note": 54,
                "velocity": 0,
                "time": 32
            },
            {
                "note": 42,
                "velocity": 0,
                "time": 4
            },
            {
                "note": 61,
                "velocity": 0,
                "time": 4
            },
            {
                "note": 58,
                "velocity": 0,
                "time": 7
            },
            {
                "note": 41,
                "velocity": 88,
                "time": 24
            },
            {
                "note": 53,
                "velocity": 95,
                "time": 191
            },
            {
                "note": 56,
                "velocity": 82,
                "time": 240
            },
            {
                "note": 60,
                "velocity": 86,
                "time": 240
            },
            {
                "note": 63,
                "velocity": 92,
                "time": 240
            },
            {
                "note": 60,
                "velocity": 0,
                "time": 24
            },
            {
                "note": 56,
                "velocity": 0,
                "time": 20
            },
            {
                "note": 56,
                "velocity": 84,
                "time": 196
            },
            {
                "note": 63,
                "velocity": 0,
                "time": 4
            },
            {
                "note": 60,
                "velocity": 84,
                "time": 236
            },
            {
                "note": 56,
                "velocity": 0,
                "time": 64
            },
            {
                "note": 56,
                "velocity": 84,
                "time": 176
            },
            {
                "note": 60,
                "velocity": 0,
                "time": 28
            },
            {
                "note": 41,
                "velocity": 0,
                "time": 52
            },
            {
                "note": 56,
                "velocity": 0,
                "time": 12
            },
            {
                "note": 41,
                "velocity": 97,
                "time": 31
            },
            {
                "note": 53,
                "velocity": 0,
                "time": 8
            },
            {
                "note": 53,
                "velocity": 69,
                "time": 189
            },
            {
                "note": 56,
                "velocity": 84,
                "time": 240
            },
            {
                "note": 60,
                "velocity": 86,
                "time": 240
            },
            {
                "note": 63,
                "velocity": 99,
                "time": 240
            },
            {
                "note": 60,
                "velocity": 0,
                "time": 20
            },
            {
                "note": 56,
                "velocity": 0,
                "time": 28
            },
            {
                "note": 56,
                "velocity": 84,
                "time": 192
            },
            {
                "note": 63,
                "velocity": 0,
                "time": 8
            },
            {
                "note": 60,
                "velocity": 88,
                "time": 232
            },
            {
                "note": 56,
                "velocity": 0,
                "time": 56
            },
            {
                "note": 56,
                "velocity": 84,
                "time": 184
            },
            {
                "note": 41,
                "velocity": 0,
                "time": 52
            },
            {
                "note": 60,
                "velocity": 0,
                "time": 12
            },
            {
                "note": 53,
                "velocity": 0,
                "time": 64
            },
            {
                "note": 56,
                "velocity": 0,
                "time": 9
            },
            {
                "note": 39,
                "velocity": 92,
                "time": 13
            },
            {
                "note": 51,
                "velocity": 92,
                "time": 167
            },
            {
                "note": 58,
                "velocity": 90,
                "time": 240
            },
            {
                "note": 61,
                "velocity": 75,
                "time": 240
            },
            {
                "note": 65,
                "velocity": 92,
                "time": 240
            },
            {
                "note": 61,
                "velocity": 0,
                "time": 32
            },
            {
                "note": 58,
                "velocity": 0,
                "time": 32
            },
            {
                "note": 58,
                "velocity": 75,
                "time": 176
            },
            {
                "note": 65,
                "velocity": 0,
                "time": 12
            },
            {
                "note": 61,
                "velocity": 84,
                "time": 228
            },
            {
                "note": 58,
                "velocity": 0,
                "time": 60
            },
            {
                "note": 58,
                "velocity": 86,
                "time": 180
            },
            {
                "note": 39,
                "velocity": 0,
                "time": 52
            },
            {
                "note": 61,
                "velocity": 0,
                "time": 32
            },
            {
                "note": 51,
                "velocity": 0,
                "time": 17
            },
            {
                "note": 58,
                "velocity": 0,
                "time": 16
            },
            {
                "note": 39,
                "velocity": 90,
                "time": 8
            },
            {
                "note": 51,
                "velocity": 76,
                "time": 206
            },
            {
                "note": 58,
                "velocity": 90,
                "time": 240
            },
            {
                "note": 61,
                "velocity": 76,
                "time": 240
            },
            {
                "note": 65,
                "velocity": 90,
                "time": 240
            },
            {
                "note": 61,
                "velocity": 0,
                "time": 44
            },
            {
                "note": 58,
                "velocity": 0,
                "time": 16
            },
            {
                "note": 65,
                "velocity": 0,
                "time": 172
            },
            {
                "note": 58,
                "velocity": 82,
                "time": 8
            },
            {
                "note": 61,
                "velocity": 88,
                "time": 240
            },
            {
                "note": 58,
                "velocity": 0,
                "time": 52
            },
            {
                "note": 58,
                "velocity": 84,
                "time": 188
            },
            {
                "note": 61,
                "velocity": 0,
                "time": 28
            },
            {
                "note": 39,
                "velocity": 0,
                "time": 36
            },
            {
                "note": 51,
                "velocity": 0,
                "time": 9
            },
            {
                "note": 58,
                "velocity": 0,
                "time": 1
            },
            {
                "note": 41,
                "velocity": 95,
                "time": 1
            },
            {
                "note": 53,
                "velocity": 58,
                "time": 240
            },
            {
                "note": 56,
                "velocity": 79,
                "time": 240
            },
            {
                "note": 60,
                "velocity": 82,
                "time": 240
            },
            {
                "note": 56,
                "velocity": 0,
                "time": 232
            },
            {
                "note": 63,
                "velocity": 84,
                "time": 8
            },
            {
                "note": 60,
                "velocity": 0,
                "time": 24
            },
            {
                "note": 63,
                "velocity": 0,
                "time": 200
            },
            {
                "note": 56,
                "velocity": 79,
                "time": 16
            },
            {
                "note": 60,
                "velocity": 86,
                "time": 240
            },
            {
                "note": 56,
                "velocity": 0,
                "time": 44
            },
            {
                "note": 56,
                "velocity": 76,
                "time": 196
            },
            {
                "note": 60,
                "velocity": 0,
                "time": 24
            },
            {
                "note": 41,
                "velocity": 0,
                "time": 68
            },
            {
                "note": 53,
                "velocity": 0,
                "time": 124
            },
            {
                "note": 56,
                "velocity": 0,
                "time": 8
            },
            {
                "note": 53,
                "velocity": 100,
                "time": 16
            },
            {
                "note": 46,
                "velocity": 104,
                "time": 0
            },
            {
                "note": 46,
                "velocity": 0,
                "time": 4
            },
            {
                "note": 53,
                "velocity": 0,
                "time": 0
            },
            {
                "note": 49,
                "velocity": 89,
                "time": 205
            },
            {
                "note": 44,
                "velocity": 93,
                "time": 0
            },
            {
                "note": 49,
                "velocity": 0,
                "time": 2
            },
            {
                "note": 44,
                "velocity": 0,
                "time": 9
            },
            {
                "note": 42,
                "velocity": 95,
                "time": 198
            },
            {
                "note": 51,
                "velocity": 95,
                "time": 0
            },
            {
                "note": 51,
                "velocity": 0,
                "time": 6
            },
            {
                "note": 42,
                "velocity": 0,
                "time": 3
            },
            {
                "note": 53,
                "velocity": 106,
                "time": 239
            },
            {
                "note": 41,
                "velocity": 97,
                "time": 0
            },
            {
                "note": 41,
                "velocity": 0,
                "time": 448
            },
            {
                "note": 53,
                "velocity": 0,
                "time": 0
            },
            {
                "note": 42,
                "velocity": 92,
                "time": 5
            },
            {
                "note": 54,
                "velocity": 92,
                "time": 109
            },
            {
                "note": 58,
                "velocity": 79,
                "time": 240
            },
            {
                "note": 61,
                "velocity": 82,
                "time": 240
            },
            {
                "note": 65,
                "velocity": 88,
                "time": 240
            },
            {
                "note": 61,
                "velocity": 0,
                "time": 12
            },
            {
                "note": 58,
                "velocity": 0,
                "time": 40
            },
            {
                "note": 65,
                "velocity": 0,
                "time": 176
            },
            {
                "note": 58,
                "velocity": 68,
                "time": 12
            },
            {
                "note": 61,
                "velocity": 84,
                "time": 240
            },
            {
                "note": 58,
                "velocity": 0,
                "time": 48
            },
            {
                "note": 42,
                "velocity": 0,
                "time": 180
            },
            {
                "note": 58,
                "velocity": 84,
                "time": 12
            },
            {
                "note": 61,
                "velocity": 0,
                "time": 20
            },
            {
                "note": 54,
                "velocity": 0,
                "time": 16
            },
            {
                "note": 58,
                "velocity": 0,
                "time": 9
            },
            {
                "note": 42,
                "velocity": 92,
                "time": 16
            },
            {
                "note": 54,
                "velocity": 88,
                "time": 118
            },
            {
                "note": 58,
                "velocity": 86,
                "time": 240
            },
            {
                "note": 61,
                "velocity": 92,
                "time": 240
            },
            {
                "note": 65,
                "velocity": 97,
                "time": 240
            },
            {
                "note": 61,
                "velocity": 0,
                "time": 24
            },
            {
                "note": 58,
                "velocity": 0,
                "time": 32
            },
            {
                "note": 65,
                "velocity": 0,
                "time": 184
            },
            {
                "note": 58,
                "velocity": 79,
                "time": 0
            },
            {
                "note": 61,
                "velocity": 88,
                "time": 240
            },
            {
                "note": 58,
                "velocity": 0,
                "time": 60
            },
            {
                "note": 58,
                "velocity": 84,
                "time": 180
            },
            {
                "note": 61,
                "velocity": 0,
                "time": 20
            },
            {
                "note": 42,
                "velocity": 0,
                "time": 60
            },
            {
                "note": 54,
                "velocity": 0,
                "time": 50
            },
            {
                "note": 58,
                "velocity": 0,
                "time": 4
            },
            {
                "note": 41,
                "velocity": 88,
                "time": 16
            },
            {
                "note": 53,
                "velocity": 65,
                "time": 170
            },
            {
                "note": 56,
                "velocity": 84,
                "time": 240
            },
            {
                "note": 60,
                "velocity": 88,
                "time": 240
            },
            {
                "note": 63,
                "velocity": 92,
                "time": 240
            },
            {
                "note": 60,
                "velocity": 0,
                "time": 24
            },
            {
                "note": 56,
                "velocity": 0,
                "time": 16
            },
            {
                "note": 63,
                "velocity": 0,
                "time": 196
            },
            {
                "note": 56,
                "velocity": 86,
                "time": 4
            },
            {
                "note": 60,
                "velocity": 88,
                "time": 240
            },
            {
                "note": 56,
                "velocity": 0,
                "time": 48
            },
            {
                "note": 56,
                "velocity": 80,
                "time": 1
            },
            {
                "note": 60,
                "velocity": 0,
                "time": 12
            },
            {
                "note": 41,
                "velocity": 0,
                "time": 74
            },
            {
                "note": 53,
                "velocity": 0,
                "time": 48
            },
            {
                "note": 56,
                "velocity": 0,
                "time": 2
            },
            {
                "note": 41,
                "velocity": 92,
                "time": 6
            },
            {
                "note": 53,
                "velocity": 80,
                "time": 204
            },
            {
                "note": 56,
                "velocity": 88,
                "time": 240
            },
            {
                "note": 60,
                "velocity": 88,
                "time": 240
            },
            {
                "note": 63,
                "velocity": 95,
                "time": 240
            },
            {
                "note": 60,
                "velocity": 0,
                "time": 28
            },
            {
                "note": 56,
                "velocity": 0,
                "time": 16
            },
            {
                "note": 63,
                "velocity": 0,
                "time": 196
            },
            {
                "note": 56,
                "velocity": 84,
                "time": 0
            },
            {
                "note": 60,
                "velocity": 92,
                "time": 230
            },
            {
                "note": 56,
                "velocity": 0,
                "time": 58
            },
            {
                "note": 56,
                "velocity": 86,
                "time": 11
            },
            {
                "note": 60,
                "velocity": 0,
                "time": 24
            },
            {
                "note": 56,
                "velocity": 0,
                "time": 129
            },
            {
                "note": 53,
                "velocity": 0,
                "time": 3
            },
            {
                "note": 41,
                "velocity": 0,
                "time": 8
            },
            {
                "note": 45,
                "velocity": 101,
                "time": 6
            },
            {
                "note": 57,
                "velocity": 104,
                "time": 221
            },
            {
                "note": 61,
                "velocity": 82,
                "time": 240
            },
            {
                "note": 64,
                "velocity": 81,
                "time": 240
            },
            {
                "note": 69,
                "velocity": 81,
                "time": 240
            },
            {
                "note": 64,
                "velocity": 0,
                "time": 60
            },
            {
                "note": 61,
                "velocity": 0,
                "time": 8
            },
            {
                "note": 61,
                "velocity": 69,
                "time": 172
            },
            {
                "note": 69,
                "velocity": 0,
                "time": 152
            },
            {
                "note": 64,
                "velocity": 85,
                "time": 88
            },
            {
                "note": 61,
                "velocity": 0,
                "time": 48
            },
            {
                "note": 61,
                "velocity": 92,
                "time": 192
            },
            {
                "note": 64,
                "velocity": 0,
                "time": 32
            },
            {
                "note": 45,
                "velocity": 0,
                "time": 4
            },
            {
                "note": 61,
                "velocity": 0,
                "time": 41
            },
            {
                "note": 45,
                "velocity": 90,
                "time": 0
            },
            {
                "note": 57,
                "velocity": 0,
                "time": 4
            },
            {
                "note": 57,
                "velocity": 104,
                "time": 145
            },
            {
                "note": 61,
                "velocity": 80,
                "time": 240
            },
            {
                "note": 64,
                "velocity": 90,
                "time": 240
            },
            {
                "note": 69,
                "velocity": 87,
                "time": 240
            },
            {
                "note": 61,
                "velocity": 0,
                "time": 32
            },
            {
                "note": 64,
                "velocity": 0,
                "time": 8
            },
            {
                "note": 61,
                "velocity": 73,
                "time": 200
            },
            {
                "note": 69,
                "velocity": 0,
                "time": 180
            },
            {
                "note": 64,
                "velocity": 81,
                "time": 60
            },
            {
                "note": 61,
                "velocity": 0,
                "time": 52
            },
            {
                "note": 64,
                "velocity": 0,
                "time": 184
            },
            {
                "note": 45,
                "velocity": 0,
                "time": 4
            },
            {
                "note": 61,
                "velocity": 95,
                "time": 0
            },
            {
                "note": 57,
                "velocity": 0,
                "time": 12
            },
            {
                "note": 61,
                "velocity": 0,
                "time": 32
            },
            {
                "note": 47,
                "velocity": 97,
                "time": 6
            },
            {
                "note": 59,
                "velocity": 101,
                "time": 204
            },
            {
                "note": 63,
                "velocity": 88,
                "time": 240
            },
            {
                "note": 66,
                "velocity": 56,
                "time": 240
            },
            {
                "note": 71,
                "velocity": 74,
                "time": 240
            },
            {
                "note": 66,
                "velocity": 0,
                "time": 32
            },
            {
                "note": 63,
                "velocity": 0,
                "time": 16
            },
            {
                "note": 63,
                "velocity": 65,
                "time": 192
            },
            {
                "note": 66,
                "velocity": 79,
                "time": 240
            },
            {
                "note": 63,
                "velocity": 0,
                "time": 64
            },
            {
                "note": 71,
                "velocity": 0,
                "time": 120
            },
            {
                "note": 47,
                "velocity": 0,
                "time": 44
            },
            {
                "note": 63,
                "velocity": 88,
                "time": 12
            },
            {
                "note": 71,
                "velocity": 50,
                "time": 0
            },
            {
                "note": 66,
                "velocity": 0,
                "time": 40
            },
            {
                "note": 59,
                "velocity": 0,
                "time": 8
            },
            {
                "note": 71,
                "velocity": 0,
                "time": 11
            },
            {
                "note": 63,
                "velocity": 0,
                "time": 2
            },
            {
                "note": 48,
                "velocity": 88,
                "time": 16
            },
            {
                "note": 60,
                "velocity": 61,
                "time": 240
            },
            {
                "note": 63,
                "velocity": 77,
                "time": 240
            },
            {
                "note": 68,
                "velocity": 92,
                "time": 240
            },
            {
                "note": 68,
                "velocity": 0,
                "time": 936
            },
            {
                "note": 60,
                "velocity": 0,
                "time": 12
            },
            {
                "note": 63,
                "velocity": 0,
                "time": 19
            },
            {
                "note": 48,
                "velocity": 0,
                "time": 0
            },
            {
                "note": 43,
                "velocity": 96,
                "time": 48
            },
            {
                "note": 50,
                "velocity": 89,
                "time": 162
            },
            {
                "note": 55,
                "velocity": 79,
                "time": 240
            },
            {
                "note": 59,
                "velocity": 105,
                "time": 240
            },
            {
                "note": 50,
                "velocity": 0,
                "time": 240
            },
            {
                "note": 55,
                "velocity": 0,
                "time": 240
            },
            {
                "note": 50,
                "velocity": 89,
                "time": 0
            },
            {
                "note": 55,
                "velocity": 87,
                "time": 240
            },
            {
                "note": 59,
                "velocity": 0,
                "time": 120
            },
            {
                "note": 43,
                "velocity": 0,
                "time": 120
            },
            {
                "note": 59,
                "velocity": 98,
                "time": 0
            },
            {
                "note": 50,
                "velocity": 0,
                "time": 12
            },
            {
                "note": 55,
                "velocity": 0,
                "time": 29
            },
            {
                "note": 59,
                "velocity": 0,
                "time": 16
            },
            {
                "note": 45,
                "velocity": 94,
                "time": 7
            },
            {
                "note": 52,
                "velocity": 83,
                "time": 192
            },
            {
                "note": 57,
                "velocity": 91,
                "time": 240
            },
            {
                "note": 61,
                "velocity": 103,
                "time": 240
            },
            {
                "note": 52,
                "velocity": 0,
                "time": 240
            },
            {
                "note": 57,
                "velocity": 0,
                "time": 240
            },
            {
                "note": 52,
                "velocity": 88,
                "time": 0
            },
            {
                "note": 57,
                "velocity": 92,
                "time": 240
            },
            {
                "note": 61,
                "velocity": 0,
                "time": 120
            },
            {
                "note": 45,
                "velocity": 0,
                "time": 120
            },
            {
                "note": 57,
                "velocity": 0,
                "time": 10
            },
            {
                "note": 52,
                "velocity": 0,
                "time": 16
            },
            {
                "note": 47,
                "velocity": 95,
                "time": 4
            },
            {
                "note": 50,
                "velocity": 95,
                "time": 175
            },
            {
                "note": 54,
                "velocity": 86,
                "time": 240
            },
            {
                "note": 59,
                "velocity": 104,
                "time": 240
            },
            {
                "note": 50,
                "velocity": 0,
                "time": 240
            },
            {
                "note": 54,
                "velocity": 0,
                "time": 240
            },
            {
                "note": 50,
                "velocity": 85,
                "time": 0
            },
            {
                "note": 59,
                "velocity": 0,
                "time": 240
            },
            {
                "note": 54,
                "velocity": 93,
                "time": 0
            },
            {
                "note": 47,
                "velocity": 0,
                "time": 240
            },
            {
                "note": 59,
                "velocity": 98,
                "time": 0
            },
            {
                "note": 54,
                "velocity": 0,
                "time": 6
            },
            {
                "note": 50,
                "velocity": 0,
                "time": 0
            },
            {
                "note": 59,
                "velocity": 0,
                "time": 13
            },
            {
                "note": 47,
                "velocity": 103,
                "time": 3
            },
            {
                "note": 54,
                "velocity": 91,
                "time": 132
            },
            {
                "note": 59,
                "velocity": 104,
                "time": 240
            },
            {
                "note": 59,
                "velocity": 0,
                "time": 240
            },
            {
                "note": 62,
                "velocity": 97,
                "time": 0
            },
            {
                "note": 62,
                "velocity": 0,
                "time": 240
            },
            {
                "note": 61,
                "velocity": 90,
                "time": 0
            },
            {
                "note": 61,
                "velocity": 0,
                "time": 240
            },
            {
                "note": 59,
                "velocity": 90,
                "time": 0
            },
            {
                "note": 54,
                "velocity": 0,
                "time": 120
            },
            {
                "note": 54,
                "velocity": 88,
                "time": 120
            },
            {
                "note": 47,
                "velocity": 0,
                "time": 120
            },
            {
                "note": 59,
                "velocity": 0,
                "time": 120
            },
            {
                "note": 54,
                "velocity": 0,
                "time": 47
            },
            {
                "note": 43,
                "velocity": 98,
                "time": 120
            },
            {
                "note": 50,
                "velocity": 98,
                "time": 156
            },
            {
                "note": 55,
                "velocity": 82,
                "time": 240
            },
            {
                "note": 59,
                "velocity": 110,
                "time": 240
            },
            {
                "note": 50,
                "velocity": 0,
                "time": 240
            },
            {
                "note": 55,
                "velocity": 0,
                "time": 240
            },
            {
                "note": 50,
                "velocity": 93,
                "time": 0
            },
            {
                "note": 55,
                "velocity": 91,
                "time": 240
            },
            {
                "note": 59,
                "velocity": 0,
                "time": 120
            },
            {
                "note": 43,
                "velocity": 0,
                "time": 120
            },
            {
                "note": 59,
                "velocity": 99,
                "time": 0
            },
            {
                "note": 50,
                "velocity": 0,
                "time": 120
            },
            {
                "note": 55,
                "velocity": 0,
                "time": 3
            },
            {
                "note": 59,
                "velocity": 0,
                "time": 20
            },
            {
                "note": 45,
                "velocity": 103,
                "time": 32
            },
            {
                "note": 52,
                "velocity": 96,
                "time": 167
            },
            {
                "note": 57,
                "velocity": 101,
                "time": 240
            },
            {
                "note": 61,
                "velocity": 106,
                "time": 240
            },
            {
                "note": 52,
                "velocity": 0,
                "time": 360
            },
            {
                "note": 57,
                "velocity": 0,
                "time": 120
            },
            {
                "note": 52,
                "velocity": 100,
                "time": 0
            },
            {
                "note": 57,
                "velocity": 97,
                "time": 240
            },
            {
                "note": 61,
                "velocity": 0,
                "time": 120
            },
            {
                "note": 45,
                "velocity": 0,
                "time": 120
            },
            {
                "note": 52,
                "velocity": 0,
                "time": 120
            },
            {
                "note": 57,
                "velocity": 0,
                "time": 11
            },
            {
                "note": 47,
                "velocity": 100,
                "time": 19
            },
            {
                "note": 54,
                "velocity": 86,
                "time": 165
            },
            {
                "note": 59,
                "velocity": 86,
                "time": 240
            },
            {
                "note": 62,
                "velocity": 102,
                "time": 240
            },
            {
                "note": 54,
                "velocity": 0,
                "time": 240
            },
            {
                "note": 59,
                "velocity": 0,
                "time": 240
            },
            {
                "note": 54,
                "velocity": 96,
                "time": 0
            },
            {
                "note": 62,
                "velocity": 0,
                "time": 120
            },
            {
                "note": 59,
                "velocity": 98,
                "time": 120
            },
            {
                "note": 47,
                "velocity": 0,
                "time": 8
            },
            {
                "note": 62,
                "velocity": 108,
                "time": 0
            },
            {
                "note": 54,
                "velocity": 0,
                "time": 158
            },
            {
                "note": 59,
                "velocity": 0,
                "time": 1
            },
            {
                "note": 62,
                "velocity": 0,
                "time": 6
            },
            {
                "note": 47,
                "velocity": 101,
                "time": 9
            },
            {
                "note": 54,
                "velocity": 91,
                "time": 194
            },
            {
                "note": 59,
                "velocity": 109,
                "time": 240
            },
            {
                "note": 61,
                "velocity": 102,
                "time": 240
            },
            {
                "note": 61,
                "velocity": 0,
                "time": 1
            },
            {
                "note": 62,
                "velocity": 102,
                "time": 0
            },
            {
                "note": 62,
                "velocity": 0,
                "time": 195
            },
            {
                "note": 66,
                "velocity": 92,
                "time": 0
            },
            {
                "note": 66,
                "velocity": 0,
                "time": 240
            },
            {
                "note": 42,
                "velocity": 109,
                "time": 240
            },
            {
                "note": 59,
                "velocity": 0,
                "time": 120
            },
            {
                "note": 54,
                "velocity": 0,
                "time": 0
            },
            {
                "note": 47,
                "velocity": 0,
                "time": 32
            },
            {
                "note": 42,
                "velocity": 0,
                "time": 0
            },
            {
                "note": 43,
                "velocity": 105,
                "time": 0
            },
            {
                "note": 50,
                "velocity": 97,
                "time": 187
            },
            {
                "note": 55,
                "velocity": 86,
                "time": 240
            },
            {
                "note": 59,
                "velocity": 115,
                "time": 240
            },
            {
                "note": 50,
                "velocity": 0,
                "time": 240
            },
            {
                "note": 55,
                "velocity": 0,
                "time": 240
            },
            {
                "note": 50,
                "velocity": 97,
                "time": 0
            },
            {
                "note": 55,
                "velocity": 95,
                "time": 240
            },
            {
                "note": 59,
                "velocity": 0,
                "time": 120
            },
            {
                "note": 43,
                "velocity": 0,
                "time": 120
            },
            {
                "note": 59,
                "velocity": 107,
                "time": 0
            },
            {
                "note": 50,
                "velocity": 0,
                "time": 120
            },
            {
                "note": 59,
                "velocity": 0,
                "time": 14
            },
            {
                "note": 55,
                "velocity": 0,
                "time": 0
            },
            {
                "note": 45,
                "velocity": 103,
                "time": 32
            },
            {
                "note": 52,
                "velocity": 91,
                "time": 161
            },
            {
                "note": 57,
                "velocity": 100,
                "time": 240
            },
            {
                "note": 61,
                "velocity": 112,
                "time": 240
            },
            {
                "note": 52,
                "velocity": 0,
                "time": 240
            },
            {
                "note": 57,
                "velocity": 0,
                "time": 240
            },
            {
                "note": 52,
                "velocity": 95,
                "time": 0
            },
            {
                "note": 57,
                "velocity": 100,
                "time": 240
            },
            {
                "note": 61,
                "velocity": 0,
                "time": 120
            },
            {
                "note": 45,
                "velocity": 0,
                "time": 120
            },
            {
                "note": 52,
                "velocity": 0,
                "time": 11
            },
            {
                "note": 57,
                "velocity": 0,
                "time": 12
            },
            {
                "note": 47,
                "velocity": 103,
                "time": 30
            },
            {
                "note": 50,
                "velocity": 103,
                "time": 173
            },
            {
                "note": 54,
                "velocity": 93,
                "time": 240
            },
            {
                "note": 59,
                "velocity": 112,
                "time": 240
            },
            {
                "note": 50,
                "velocity": 0,
                "time": 240
            },
            {
                "note": 54,
                "velocity": 0,
                "time": 240
            },
            {
                "note": 50,
                "velocity": 91,
                "time": 0
            },
            {
                "note": 59,
                "velocity": 0,
                "time": 240
            },
            {
                "note": 54,
                "velocity": 100,
                "time": 0
            },
            {
                "note": 47,
                "velocity": 0,
                "time": 240
            },
            {
                "note": 59,
                "velocity": 105,
                "time": 0
            },
            {
                "note": 50,
                "velocity": 0,
                "time": 4
            },
            {
                "note": 54,
                "velocity": 0,
                "time": 16
            },
            {
                "note": 59,
                "velocity": 0,
                "time": 13
            },
            {
                "note": 47,
                "velocity": 110,
                "time": 1
            },
            {
                "note": 54,
                "velocity": 97,
                "time": 210
            },
            {
                "note": 59,
                "velocity": 110,
                "time": 240
            },
            {
                "note": 59,
                "velocity": 0,
                "time": 240
            },
            {
                "note": 62,
                "velocity": 103,
                "time": 0
            },
            {
                "note": 62,
                "velocity": 0,
                "time": 240
            },
            {
                "note": 61,
                "velocity": 95,
                "time": 0
            },
            {
                "note": 61,
                "velocity": 0,
                "time": 240
            },
            {
                "note": 59,
                "velocity": 95,
                "time": 0
            },
            {
                "note": 54,
                "velocity": 0,
                "time": 120
            },
            {
                "note": 54,
                "velocity": 93,
                "time": 120
            },
            {
                "note": 47,
                "velocity": 0,
                "time": 120
            },
            {
                "note": 59,
                "velocity": 0,
                "time": 120
            },
            {
                "note": 54,
                "velocity": 0,
                "time": 30
            },
            {
                "note": 43,
                "velocity": 103,
                "time": 120
            },
            {
                "note": 50,
                "velocity": 103,
                "time": 156
            },
            {
                "note": 55,
                "velocity": 86,
                "time": 240
            },
            {
                "note": 59,
                "velocity": 115,
                "time": 240
            },
            {
                "note": 50,
                "velocity": 0,
                "time": 240
            },
            {
                "note": 55,
                "velocity": 0,
                "time": 240
            },
            {
                "note": 50,
                "velocity": 97,
                "time": 0
            },
            {
                "note": 55,
                "velocity": 95,
                "time": 240
            },
            {
                "note": 59,
                "velocity": 0,
                "time": 120
            },
            {
                "note": 43,
                "velocity": 0,
                "time": 120
            },
            {
                "note": 59,
                "velocity": 103,
                "time": 0
            },
            {
                "note": 50,
                "velocity": 0,
                "time": 120
            },
            {
                "note": 55,
                "velocity": 0,
                "time": 72
            },
            {
                "note": 59,
                "velocity": 0,
                "time": 6
            },
            {
                "note": 45,
                "velocity": 107,
                "time": 8
            },
            {
                "note": 52,
                "velocity": 100,
                "time": 151
            },
            {
                "note": 57,
                "velocity": 105,
                "time": 240
            },
            {
                "note": 61,
                "velocity": 110,
                "time": 240
            },
            {
                "note": 52,
                "velocity": 0,
                "time": 360
            },
            {
                "note": 57,
                "velocity": 0,
                "time": 120
            },
            {
                "note": 52,
                "velocity": 103,
                "time": 0
            },
            {
                "note": 57,
                "velocity": 100,
                "time": 240
            },
            {
                "note": 61,
                "velocity": 0,
                "time": 120
            },
            {
                "note": 45,
                "velocity": 0,
                "time": 120
            },
            {
                "note": 52,
                "velocity": 0,
                "time": 120
            },
            {
                "note": 57,
                "velocity": 0,
                "time": 2
            },
            {
                "note": 47,
                "velocity": 103,
                "time": 7
            },
            {
                "note": 54,
                "velocity": 89,
                "time": 179
            },
            {
                "note": 59,
                "velocity": 89,
                "time": 240
            },
            {
                "note": 62,
                "velocity": 105,
                "time": 240
            },
            {
                "note": 54,
                "velocity": 0,
                "time": 240
            },
            {
                "note": 59,
                "velocity": 0,
                "time": 240
            },
            {
                "note": 54,
                "velocity": 97,
                "time": 0
            },
            {
                "note": 62,
                "velocity": 0,
                "time": 120
            },
            {
                "note": 59,
                "velocity": 100,
                "time": 120
            },
            {
                "note": 47,
                "velocity": 0,
                "time": 240
            },
            {
                "note": 62,
                "velocity": 110,
                "time": 0
            },
            {
                "note": 54,
                "velocity": 0,
                "time": 8
            },
            {
                "note": 59,
                "velocity": 0,
                "time": 2
            },
            {
                "note": 62,
                "velocity": 0,
                "time": 1
            },
            {
                "note": 47,
                "velocity": 103,
                "time": 5
            },
            {
                "note": 54,
                "velocity": 93,
                "time": 217
            },
            {
                "note": 59,
                "velocity": 110,
                "time": 240
            },
            {
                "note": 61,
                "velocity": 103,
                "time": 240
            },
            {
                "note": 61,
                "velocity": 0,
                "time": 240
            },
            {
                "note": 62,
                "velocity": 103,
                "time": 0
            },
            {
                "note": 62,
                "velocity": 0,
                "time": 240
            },
            {
                "note": 66,
                "velocity": 93,
                "time": 0
            },
            {
                "note": 66,
                "velocity": 0,
                "time": 240
            },
            {
                "note": 71,
                "velocity": 89,
                "time": 0
            },
            {
                "note": 71,
                "velocity": 0,
                "time": 240
            },
            {
                "note": 73,
                "velocity": 112,
                "time": 0
            },
            {
                "note": 59,
                "velocity": 0,
                "time": 7
            },
            {
                "note": 54,
                "velocity": 0,
                "time": 0
            },
            {
                "note": 47,
                "velocity": 0,
                "time": 17
            },
            {
                "note": 73,
                "velocity": 0,
                "time": 3
            },
            {
                "note": 47,
                "velocity": 103,
                "time": 0
            },
            {
                "note": 54,
                "velocity": 89,
                "time": 187
            },
            {
                "note": 59,
                "velocity": 89,
                "time": 240
            },
            {
                "note": 64,
                "velocity": 105,
                "time": 240
            },
            {
                "note": 54,
                "velocity": 0,
                "time": 240
            },
            {
                "note": 59,
                "velocity": 0,
                "time": 240
            },
            {
                "note": 54,
                "velocity": 97,
                "time": 0
            },
            {
                "note": 64,
                "velocity": 0,
                "time": 120
            },
            {
                "note": 59,
                "velocity": 100,
                "time": 120
            },
            {
                "note": 47,
                "velocity": 0,
                "time": 240
            },
            {
                "note": 64,
                "velocity": 110,
                "time": 0
            },
            {
                "note": 59,
                "velocity": 0,
                "time": 2
            },
            {
                "note": 54,
                "velocity": 0,
                "time": 0
            },
            {
                "note": 64,
                "velocity": 0,
                "time": 10
            },
            {
                "note": 47,
                "velocity": 88,
                "time": 2
            },
            {
                "note": 54,
                "velocity": 92,
                "time": 213
            },
            {
                "note": 59,
                "velocity": 85,
                "time": 240
            },
            {
                "note": 64,
                "velocity": 102,
                "time": 240
            },
            {
                "note": 54,
                "velocity": 0,
                "time": 124
            },
            {
                "note": 47,
                "velocity": 0,
                "time": 16
            },
            {
                "note": 59,
                "velocity": 0,
                "time": 24
            },
            {
                "note": 64,
                "velocity": 0,
                "time": 76
            },
            {
                "note": 59,
                "velocity": 59,
                "time": 0
            },
            {
                "note": 63,
                "velocity": 74,
                "time": 0
            },
            {
                "note": 47,
                "velocity": 97,
                "time": 0
            },
            {
                "note": 66,
                "velocity": 61,
                "time": 0
            },
            {
                "note": 47,
                "velocity": 0,
                "time": 2
            },
            {
                "note": 66,
                "velocity": 0,
                "time": 4
            },
            {
                "note": 63,
                "velocity": 0,
                "time": 16
            },
            {
                "note": 59,
                "velocity": 0,
                "time": 9
            },
            {
                "note": 67,
                "velocity": 82,
                "time": 8
            },
            {
                "note": 74,
                "velocity": 74,
                "time": 189
            },
            {
                "note": 79,
                "velocity": 69,
                "time": 246
            },
            {
                "note": 71,
                "velocity": 80,
                "time": 724
            },
            {
                "note": 74,
                "velocity": 0,
                "time": 27
            },
            {
                "note": 67,
                "velocity": 0,
                "time": 8
            },
            {
                "note": 79,
                "velocity": 0,
                "time": 28
            },
            {
                "note": 83,
                "velocity": 60,
                "time": 182
            },
            {
                "note": 83,
                "velocity": 0,
                "time": 286
            },
            {
                "note": 71,
                "velocity": 0,
                "time": 54
            },
            {
                "note": 69,
                "velocity": 82,
                "time": 2
            },
            {
                "note": 76,
                "velocity": 66,
                "time": 197
            },
            {
                "note": 81,
                "velocity": 58,
                "time": 225
            },
            {
                "note": 81,
                "velocity": 0,
                "time": 513
            },
            {
                "note": 76,
                "velocity": 0,
                "time": 173
            },
            {
                "note": 69,
                "velocity": 0,
                "time": 18
            },
            {
                "note": 73,
                "velocity": 54,
                "time": 23
            },
            {
                "note": 76,
                "velocity": 86,
                "time": 238
            },
            {
                "note": 73,
                "velocity": 0,
                "time": 11
            },
            {
                "note": 71,
                "velocity": 86,
                "time": 4
            },
            {
                "note": 76,
                "velocity": 0,
                "time": 5
            },
            {
                "note": 78,
                "velocity": 60,
                "time": 198
            },
            {
                "note": 71,
                "velocity": 0,
                "time": 32
            },
            {
                "note": 78,
                "velocity": 0,
                "time": 882
            },
            {
                "note": 66,
                "velocity": 64,
                "time": 45
            },
            {
                "note": 66,
                "velocity": 0,
                "time": 236
            },
            {
                "note": 71,
                "velocity": 54,
                "time": 2
            },
            {
                "note": 74,
                "velocity": 67,
                "time": 243
            },
            {
                "note": 71,
                "velocity": 0,
                "time": 55
            },
            {
                "note": 78,
                "velocity": 66,
                "time": 11
            },
            {
                "note": 74,
                "velocity": 0,
                "time": 10
            },
            {
                "note": 71,
                "velocity": 80,
                "time": 180
            },
            {
                "note": 78,
                "velocity": 0,
                "time": 43
            },
            {
                "note": 83,
                "velocity": 76,
                "time": 199
            },
            {
                "note": 71,
                "velocity": 0,
                "time": 14
            },
            {
                "note": 83,
                "velocity": 0,
                "time": 135
            },
            {
                "note": 78,
                "velocity": 70,
                "time": 561
            },
            {
                "note": 71,
                "velocity": 84,
                "time": 241
            },
            {
                "note": 78,
                "velocity": 0,
                "time": 5
            },
            {
                "note": 71,
                "velocity": 0,
                "time": 216
            },
            {
                "note": 66,
                "velocity": 57,
                "time": 16
            },
            {
                "note": 66,
                "velocity": 0,
                "time": 5
            },
            {
                "note": 67,
                "velocity": 73,
                "time": 1
            },
            {
                "note": 74,
                "velocity": 73,
                "time": 184
            },
            {
                "note": 79,
                "velocity": 59,
                "time": 241
            },
            {
                "note": 67,
                "velocity": 0,
                "time": 496
            },
            {
                "note": 74,
                "velocity": 0,
                "time": 16
            },
            {
                "note": 71,
                "velocity": 66,
                "time": 211
            },
            {
                "note": 79,
                "velocity": 0,
                "time": 51
            },
            {
                "note": 83,
                "velocity": 57,
                "time": 194
            },
            {
                "note": 83,
                "velocity": 0,
                "time": 330
            },
            {
                "note": 71,
                "velocity": 0,
                "time": 21
            },
            {
                "note": 69,
                "velocity": 50,
                "time": 28
            },
            {
                "note": 76,
                "velocity": 80,
                "time": 185
            },
            {
                "note": 81,
                "velocity": 66,
                "time": 240
            },
            {
                "note": 76,
                "velocity": 0,
                "time": 499
            },
            {
                "note": 81,
                "velocity": 0,
                "time": 55
            },
            {
                "note": 69,
                "velocity": 0,
                "time": 22
            },
            {
                "note": 81,
                "velocity": 69,
                "time": 128
            },
            {
                "note": 86,
                "velocity": 43,
                "time": 245
            },
            {
                "note": 81,
                "velocity": 0,
                "time": 14
            },
            {
                "note": 86,
                "velocity": 0,
                "time": 217
            },
            {
                "note": 90,
                "velocity": 43,
                "time": 16
            },
            {
                "note": 90,
                "velocity": 0,
                "time": 5
            },
            {
                "note": 86,
                "velocity": 64,
                "time": 3
            },
            {
                "note": 78,
                "velocity": 73,
                "time": 0
            },
            {
                "note": 86,
                "velocity": 0,
                "time": 160
            },
            {
                "note": 78,
                "velocity": 0,
                "time": 19
            },
            {
                "note": 66,
                "velocity": 69,
                "time": 250
            },
            {
                "note": 74,
                "velocity": 80,
                "time": 6
            },
            {
                "note": 74,
                "velocity": 0,
                "time": 186
            },
            {
                "note": 66,
                "velocity": 0,
                "time": 61
            },
            {
                "note": 54,
                "velocity": 77,
                "time": 246
            },
            {
                "note": 62,
                "velocity": 73,
                "time": 3
            },
            {
                "note": 62,
                "velocity": 0,
                "time": 244
            },
            {
                "note": 54,
                "velocity": 0,
                "time": 33
            },
            {
                "note": 42,
                "velocity": 77,
                "time": 198
            },
            {
                "note": 50,
                "velocity": 71,
                "time": 5
            },
            {
                "note": 50,
                "velocity": 0,
                "time": 282
            },
            {
                "note": 42,
                "velocity": 0,
                "time": 2
            },
            {
                "note": 35,
                "velocity": 80,
                "time": 190
            },
            {
                "note": 35,
                "velocity": 0,
                "time": 1849
            }
        ]
    },
    "program_change": {
        "0": [
            {
                "channel": 0,
                "time": 0
            },
            {
                "channel": 1,
                "time": 0
            }
        ]
    },
    "set_tempo": [
        {
            "tempo": 571429,
            "time": 0
        },
        {
            "tempo": 571973,
            "time": 3360
        },
        {
            "tempo": 572792,
            "time": 8
        },
        {
            "tempo": 573614,
            "time": 12
        },
        {
            "tempo": 574438,
            "time": 12
        },
        {
            "tempo": 574988,
            "time": 8
        },
        {
            "tempo": 575816,
            "time": 12
        },
        {
            "tempo": 576646,
            "time": 12
        },
        {
            "tempo": 577478,
            "time": 12
        },
        {
            "tempo": 578035,
            "time": 8
        },
        {
            "tempo": 578871,
            "time": 12
        },
        {
            "tempo": 579710,
            "time": 12
        },
        {
            "tempo": 580552,
            "time": 12
        },
        {
            "tempo": 581395,
            "time": 8
        },
        {
            "tempo": 581959,
            "time": 12
        },
        {
            "tempo": 582807,
            "time": 12
        },
        {
            "tempo": 583658,
            "time": 8
        },
        {
            "tempo": 584510,
            "time": 12
        },
        {
            "tempo": 585080,
            "time": 12
        },
        {
            "tempo": 585938,
            "time": 12
        },
        {
            "tempo": 586797,
            "time": 8
        },
        {
            "tempo": 587659,
            "time": 12
        },
        {
            "tempo": 588235,
            "time": 12
        },
        {
            "tempo": 589102,
            "time": 12
        },
        {
            "tempo": 589971,
            "time": 8
        },
        {
            "tempo": 590842,
            "time": 12
        },
        {
            "tempo": 591716,
            "time": 12
        },
        {
            "tempo": 592300,
            "time": 8
        },
        {
            "tempo": 593178,
            "time": 12
        },
        {
            "tempo": 594059,
            "time": 12
        },
        {
            "tempo": 594943,
            "time": 12
        },
        {
            "tempo": 595533,
            "time": 8
        },
        {
            "tempo": 596421,
            "time": 12
        },
        {
            "tempo": 597312,
            "time": 12
        },
        {
            "tempo": 598205,
            "time": 12
        },
        {
            "tempo": 599101,
            "time": 8
        },
        {
            "tempo": 599700,
            "time": 12
        },
        {
            "tempo": 600601,
            "time": 12
        },
        {
            "tempo": 601504,
            "time": 8
        },
        {
            "tempo": 602410,
            "time": 12
        },
        {
            "tempo": 603015,
            "time": 12
        },
        {
            "tempo": 603926,
            "time": 12
        },
        {
            "tempo": 604839,
            "time": 8
        },
        {
            "tempo": 605755,
            "time": 12
        },
        {
            "tempo": 606367,
            "time": 12
        },
        {
            "tempo": 545455,
            "time": 12
        },
        {
            "tempo": 555556,
            "time": 1896
        },
        {
            "tempo": 545455,
            "time": 1944
        },
        {
            "tempo": 546001,
            "time": 2868
        },
        {
            "tempo": 546896,
            "time": 12
        },
        {
            "tempo": 547795,
            "time": 8
        },
        {
            "tempo": 548697,
            "time": 12
        },
        {
            "tempo": 549602,
            "time": 12
        },
        {
            "tempo": 550509,
            "time": 8
        },
        {
            "tempo": 551420,
            "time": 12
        },
        {
            "tempo": 552334,
            "time": 12
        },
        {
            "tempo": 553250,
            "time": 12
        },
        {
            "tempo": 554170,
            "time": 8
        },
        {
            "tempo": 555093,
            "time": 12
        },
        {
            "tempo": 556019,
            "time": 12
        },
        {
            "tempo": 556948,
            "time": 12
        },
        {
            "tempo": 557880,
            "time": 8
        },
        {
            "tempo": 558815,
            "time": 12
        },
        {
            "tempo": 559754,
            "time": 12
        },
        {
            "tempo": 560695,
            "time": 8
        },
        {
            "tempo": 561640,
            "time": 12
        },
        {
            "tempo": 562588,
            "time": 12
        },
        {
            "tempo": 563539,
            "time": 12
        },
        {
            "tempo": 564493,
            "time": 8
        },
        {
            "tempo": 565451,
            "time": 12
        },
        {
            "tempo": 567376,
            "time": 12
        },
        {
            "tempo": 568343,
            "time": 12
        },
        {
            "tempo": 569314,
            "time": 8
        },
        {
            "tempo": 570288,
            "time": 12
        },
        {
            "tempo": 571265,
            "time": 12
        },
        {
            "tempo": 572246,
            "time": 8
        },
        {
            "tempo": 573230,
            "time": 12
        },
        {
            "tempo": 574218,
            "time": 12
        },
        {
            "tempo": 575209,
            "time": 12
        },
        {
            "tempo": 576203,
            "time": 8
        },
        {
            "tempo": 577201,
            "time": 12
        },
        {
            "tempo": 578202,
            "time": 12
        },
        {
            "tempo": 579206,
            "time": 12
        },
        {
            "tempo": 580215,
            "time": 8
        },
        {
            "tempo": 581226,
            "time": 12
        },
        {
            "tempo": 582242,
            "time": 12
        },
        {
            "tempo": 583260,
            "time": 8
        },
        {
            "tempo": 584283,
            "time": 12
        },
        {
            "tempo": 585309,
            "time": 12
        },
        {
            "tempo": 586338,
            "time": 12
        },
        {
            "tempo": 587372,
            "time": 8
        },
        {
            "tempo": 588408,
            "time": 12
        },
        {
            "tempo": 590493,
            "time": 12
        },
        {
            "tempo": 591541,
            "time": 12
        },
        {
            "tempo": 597550,
            "time": 8
        },
        {
            "tempo": 601866,
            "time": 12
        },
        {
            "tempo": 605144,
            "time": 12
        },
        {
            "tempo": 608458,
            "time": 8
        },
        {
            "tempo": 611808,
            "time": 12
        },
        {
            "tempo": 616333,
            "time": 12
        },
        {
            "tempo": 563222,
            "time": 424
        },
        {
            "tempo": 562272,
            "time": 12
        },
        {
            "tempo": 561325,
            "time": 44
        },
        {
            "tempo": 560381,
            "time": 44
        },
        {
            "tempo": 559441,
            "time": 44
        },
        {
            "tempo": 558503,
            "time": 52
        },
        {
            "tempo": 557569,
            "time": 44
        },
        {
            "tempo": 556638,
            "time": 44
        },
        {
            "tempo": 555710,
            "time": 56
        },
        {
            "tempo": 555556,
            "time": 44
        },
        {
            "tempo": 555710,
            "time": 4768
        },
        {
            "tempo": 556638,
            "time": 120
        },
        {
            "tempo": 557569,
            "time": 120
        },
        {
            "tempo": 558503,
            "time": 120
        },
        {
            "tempo": 559441,
            "time": 120
        },
        {
            "tempo": 560224,
            "time": 128
        },
        {
            "tempo": 562114,
            "time": 12
        },
        {
            "tempo": 563063,
            "time": 12
        },
        {
            "tempo": 564016,
            "time": 8
        },
        {
            "tempo": 564972,
            "time": 12
        },
        {
            "tempo": 566893,
            "time": 12
        },
        {
            "tempo": 567859,
            "time": 12
        },
        {
            "tempo": 568828,
            "time": 8
        },
        {
            "tempo": 569801,
            "time": 12
        },
        {
            "tempo": 570776,
            "time": 12
        },
        {
            "tempo": 572738,
            "time": 12
        },
        {
            "tempo": 573723,
            "time": 8
        },
        {
            "tempo": 574713,
            "time": 12
        },
        {
            "tempo": 575705,
            "time": 12
        },
        {
            "tempo": 577701,
            "time": 8
        },
        {
            "tempo": 578704,
            "time": 12
        },
        {
            "tempo": 579710,
            "time": 12
        },
        {
            "tempo": 580720,
            "time": 12
        },
        {
            "tempo": 581734,
            "time": 8
        },
        {
            "tempo": 583771,
            "time": 12
        },
        {
            "tempo": 584795,
            "time": 12
        },
        {
            "tempo": 585823,
            "time": 12
        },
        {
            "tempo": 586854,
            "time": 8
        },
        {
            "tempo": 587889,
            "time": 12
        },
        {
            "tempo": 589971,
            "time": 12
        },
        {
            "tempo": 591017,
            "time": 8
        },
        {
            "tempo": 592066,
            "time": 12
        },
        {
            "tempo": 593120,
            "time": 12
        },
        {
            "tempo": 595238,
            "time": 12
        },
        {
            "tempo": 596303,
            "time": 8
        },
        {
            "tempo": 597372,
            "time": 12
        },
        {
            "tempo": 598444,
            "time": 12
        },
        {
            "tempo": 599520,
            "time": 12
        },
        {
            "tempo": 601685,
            "time": 8
        },
        {
            "tempo": 602773,
            "time": 12
        },
        {
            "tempo": 603865,
            "time": 12
        },
        {
            "tempo": 604961,
            "time": 8
        },
        {
            "tempo": 607165,
            "time": 12
        },
        {
            "tempo": 608273,
            "time": 12
        },
        {
            "tempo": 609385,
            "time": 12
        },
        {
            "tempo": 610501,
            "time": 8
        },
        {
            "tempo": 611621,
            "time": 12
        },
        {
            "tempo": 613874,
            "time": 12
        },
        {
            "tempo": 615006,
            "time": 12
        },
        {
            "tempo": 616143,
            "time": 8
        },
        {
            "tempo": 617284,
            "time": 12
        },
        {
            "tempo": 618429,
            "time": 12
        },
        {
            "tempo": 619771,
            "time": 456
        },
        {
            "tempo": 623247,
            "time": 12
        },
        {
            "tempo": 626763,
            "time": 12
        },
        {
            "tempo": 630318,
            "time": 8
        },
        {
            "tempo": 633914,
            "time": 12
        },
        {
            "tempo": 637552,
            "time": 12
        },
        {
            "tempo": 641231,
            "time": 12
        },
        {
            "tempo": 644953,
            "time": 8
        },
        {
            "tempo": 647459,
            "time": 12
        },
        {
            "tempo": 651254,
            "time": 12
        },
        {
            "tempo": 655093,
            "time": 12
        },
        {
            "tempo": 658979,
            "time": 8
        },
        {
            "tempo": 662910,
            "time": 12
        },
        {
            "tempo": 666889,
            "time": 12
        },
        {
            "tempo": 670916,
            "time": 8
        },
        {
            "tempo": 673627,
            "time": 12
        },
        {
            "tempo": 677736,
            "time": 12
        },
        {
            "tempo": 681896,
            "time": 12
        },
        {
            "tempo": 686106,
            "time": 8
        },
        {
            "tempo": 690369,
            "time": 12
        },
        {
            "tempo": 694686,
            "time": 12
        },
        {
            "tempo": 699056,
            "time": 12
        },
        {
            "tempo": 703482,
            "time": 8
        },
        {
            "tempo": 706464,
            "time": 12
        },
        {
            "tempo": 710985,
            "time": 12
        },
        {
            "tempo": 715564,
            "time": 8
        },
        {
            "tempo": 720202,
            "time": 12
        },
        {
            "tempo": 724900,
            "time": 12
        },
        {
            "tempo": 729661,
            "time": 12
        },
        {
            "tempo": 734484,
            "time": 8
        },
        {
            "tempo": 737735,
            "time": 12
        },
        {
            "tempo": 742666,
            "time": 12
        },
        {
            "tempo": 747664,
            "time": 12
        },
        {
            "tempo": 752729,
            "time": 8
        },
        {
            "tempo": 757863,
            "time": 12
        },
        {
            "tempo": 763068,
            "time": 12
        },
        {
            "tempo": 768344,
            "time": 8
        },
        {
            "tempo": 773694,
            "time": 12
        },
        {
            "tempo": 777303,
            "time": 12
        },
        {
            "tempo": 782779,
            "time": 12
        },
        {
            "tempo": 788333,
            "time": 8
        },
        {
            "tempo": 793966,
            "time": 12
        },
        {
            "tempo": 799680,
            "time": 12
        },
        {
            "tempo": 805477,
            "time": 12
        },
        {
            "tempo": 811359,
            "time": 8
        },
        {
            "tempo": 815328,
            "time": 12
        },
        {
            "tempo": 821355,
            "time": 12
        },
        {
            "tempo": 827472,
            "time": 8
        },
        {
            "tempo": 833681,
            "time": 12
        },
        {
            "tempo": 839983,
            "time": 12
        },
        {
            "tempo": 846382,
            "time": 12
        },
        {
            "tempo": 852878,
            "time": 8
        },
        {
            "tempo": 859476,
            "time": 12
        },
        {
            "tempo": 863931,
            "time": 12
        },
        {
            "tempo": 870701,
            "time": 12
        },
        {
            "tempo": 877578,
            "time": 8
        },
        {
            "tempo": 884564,
            "time": 12
        },
        {
            "tempo": 891663,
            "time": 12
        },
        {
            "tempo": 898876,
            "time": 8
        },
        {
            "tempo": 906208,
            "time": 12
        },
        {
            "tempo": 911162,
            "time": 12
        },
        {
            "tempo": 942063,
            "time": 12
        },
        {
            "tempo": 615195,
            "time": 272
        },
        {
            "tempo": 614062,
            "time": 12
        },
        {
            "tempo": 612933,
            "time": 8
        },
        {
            "tempo": 611808,
            "time": 12
        },
        {
            "tempo": 610687,
            "time": 12
        },
        {
            "tempo": 609570,
            "time": 8
        },
        {
            "tempo": 608458,
            "time": 24
        },
        {
            "tempo": 607349,
            "time": 12
        },
        {
            "tempo": 606244,
            "time": 8
        },
        {
            "tempo": 605144,
            "time": 12
        },
        {
            "tempo": 604047,
            "time": 12
        },
        {
            "tempo": 602954,
            "time": 20
        },
        {
            "tempo": 601866,
            "time": 12
        },
        {
            "tempo": 600781,
            "time": 12
        },
        {
            "tempo": 599700,
            "time": 8
        },
        {
            "tempo": 598623,
            "time": 12
        },
        {
            "tempo": 597550,
            "time": 24
        },
        {
            "tempo": 596481,
            "time": 8
        },
        {
            "tempo": 595415,
            "time": 12
        },
        {
            "tempo": 594354,
            "time": 12
        },
        {
            "tempo": 593296,
            "time": 20
        },
        {
            "tempo": 592242,
            "time": 12
        },
        {
            "tempo": 591191,
            "time": 12
        },
        {
            "tempo": 590145,
            "time": 8
        },
        {
            "tempo": 589102,
            "time": 12
        },
        {
            "tempo": 588062,
            "time": 24
        },
        {
            "tempo": 587027,
            "time": 8
        },
        {
            "tempo": 585995,
            "time": 12
        },
        {
            "tempo": 584966,
            "time": 12
        },
        {
            "tempo": 583942,
            "time": 12
        },
        {
            "tempo": 582920,
            "time": 20
        },
        {
            "tempo": 581903,
            "time": 12
        },
        {
            "tempo": 580889,
            "time": 8
        },
        {
            "tempo": 579878,
            "time": 12
        },
        {
            "tempo": 578871,
            "time": 12
        },
        {
            "tempo": 577868,
            "time": 20
        },
        {
            "tempo": 576868,
            "time": 12
        },
        {
            "tempo": 575871,
            "time": 12
        },
        {
            "tempo": 574878,
            "time": 12
        },
        {
            "tempo": 573888,
            "time": 20
        },
        {
            "tempo": 572902,
            "time": 44
        },
        {
            "tempo": 571919,
            "time": 44
        },
        {
            "tempo": 570939,
            "time": 44
        },
        {
            "tempo": 569963,
            "time": 44
        },
        {
            "tempo": 568990,
            "time": 52
        },
        {
            "tempo": 568020,
            "time": 44
        },
        {
            "tempo": 567054,
            "time": 44
        },
        {
            "tempo": 566091,
            "time": 44
        },
        {
            "tempo": 565131,
            "time": 44
        },
        {
            "tempo": 564175,
            "time": 56
        },
        {
            "tempo": 563222,
            "time": 40
        },
        {
            "tempo": 562272,
            "time": 44
        },
        {
            "tempo": 561325,
            "time": 44
        },
        {
            "tempo": 560381,
            "time": 44
        },
        {
            "tempo": 559441,
            "time": 56
        },
        {
            "tempo": 558503,
            "time": 44
        },
        {
            "tempo": 557569,
            "time": 44
        },
        {
            "tempo": 556638,
            "time": 44
        },
        {
            "tempo": 555710,
            "time": 40
        },
        {
            "tempo": 575153,
            "time": 2970
        },
        {
            "tempo": 555761,
            "time": 480
        },
        {
            "tempo": 556638,
            "time": 1910
        },
        {
            "tempo": 558503,
            "time": 8
        },
        {
            "tempo": 560381,
            "time": 12
        },
        {
            "tempo": 562272,
            "time": 12
        },
        {
            "tempo": 565131,
            "time": 8
        },
        {
            "tempo": 567054,
            "time": 12
        },
        {
            "tempo": 568990,
            "time": 12
        },
        {
            "tempo": 570939,
            "time": 12
        },
        {
            "tempo": 572902,
            "time": 8
        },
        {
            "tempo": 575871,
            "time": 12
        },
        {
            "tempo": 577868,
            "time": 12
        },
        {
            "tempo": 579878,
            "time": 12
        },
        {
            "tempo": 581903,
            "time": 8
        },
        {
            "tempo": 584966,
            "time": 12
        },
        {
            "tempo": 587027,
            "time": 12
        },
        {
            "tempo": 589102,
            "time": 8
        },
        {
            "tempo": 591191,
            "time": 12
        },
        {
            "tempo": 593296,
            "time": 12
        },
        {
            "tempo": 596481,
            "time": 12
        },
        {
            "tempo": 598623,
            "time": 8
        },
        {
            "tempo": 600781,
            "time": 12
        },
        {
            "tempo": 602954,
            "time": 12
        },
        {
            "tempo": 605144,
            "time": 12
        },
        {
            "tempo": 608458,
            "time": 8
        },
        {
            "tempo": 610687,
            "time": 12
        },
        {
            "tempo": 612933,
            "time": 12
        },
        {
            "tempo": 615195,
            "time": 8
        },
        {
            "tempo": 618620,
            "time": 12
        },
        {
            "tempo": 620925,
            "time": 12
        },
        {
            "tempo": 623247,
            "time": 12
        },
        {
            "tempo": 625586,
            "time": 8
        },
        {
            "tempo": 627943,
            "time": 12
        },
        {
            "tempo": 631512,
            "time": 12
        },
        {
            "tempo": 633914,
            "time": 12
        },
        {
            "tempo": 636335,
            "time": 8
        },
        {
            "tempo": 638774,
            "time": 12
        },
        {
            "tempo": 642467,
            "time": 12
        },
        {
            "tempo": 644953,
            "time": 8
        },
        {
            "tempo": 647459,
            "time": 12
        },
        {
            "tempo": 649984,
            "time": 12
        },
        {
            "tempo": 652529,
            "time": 12
        },
        {
            "tempo": 656383,
            "time": 8
        },
        {
            "tempo": 658979,
            "time": 12
        },
        {
            "tempo": 661594,
            "time": 12
        },
        {
            "tempo": 664231,
            "time": 12
        },
        {
            "tempo": 666889,
            "time": 8
        },
        {
            "tempo": 582920,
            "time": 480
        },
        {
            "tempo": 581903,
            "time": 12
        },
        {
            "tempo": 580889,
            "time": 12
        },
        {
            "tempo": 579878,
            "time": 8
        },
        {
            "tempo": 578871,
            "time": 24
        },
        {
            "tempo": 577868,
            "time": 12
        },
        {
            "tempo": 576868,
            "time": 8
        },
        {
            "tempo": 575871,
            "time": 24
        },
        {
            "tempo": 574878,
            "time": 12
        },
        {
            "tempo": 573888,
            "time": 20
        },
        {
            "tempo": 572902,
            "time": 12
        },
        {
            "tempo": 571919,
            "time": 8
        },
        {
            "tempo": 570939,
            "time": 24
        },
        {
            "tempo": 569963,
            "time": 12
        },
        {
            "tempo": 568990,
            "time": 8
        },
        {
            "tempo": 568020,
            "time": 24
        },
        {
            "tempo": 567054,
            "time": 12
        },
        {
            "tempo": 566091,
            "time": 20
        },
        {
            "tempo": 565131,
            "time": 56
        },
        {
            "tempo": 564175,
            "time": 52
        },
        {
            "tempo": 563222,
            "time": 68
        },
        {
            "tempo": 562272,
            "time": 52
        },
        {
            "tempo": 561325,
            "time": 56
        },
        {
            "tempo": 560381,
            "time": 64
        },
        {
            "tempo": 559441,
            "time": 56
        },
        {
            "tempo": 558503,
            "time": 56
        },
        {
            "tempo": 557569,
            "time": 64
        },
        {
            "tempo": 556638,
            "time": 56
        },
        {
            "tempo": 555710,
            "time": 52
        },
        {
            "tempo": 555710,
            "time": 4856
        },
        {
            "tempo": 556638,
            "time": 12
        },
        {
            "tempo": 557569,
            "time": 84
        },
        {
            "tempo": 558503,
            "time": 100
        },
        {
            "tempo": 559441,
            "time": 96
        },
        {
            "tempo": 560381,
            "time": 100
        },
        {
            "tempo": 561325,
            "time": 100
        },
        {
            "tempo": 562272,
            "time": 84
        },
        {
            "tempo": 563222,
            "time": 100
        },
        {
            "tempo": 564175,
            "time": 96
        },
        {
            "tempo": 565131,
            "time": 100
        },
        {
            "tempo": 566091,
            "time": 100
        },
        {
            "tempo": 567054,
            "time": 84
        },
        {
            "tempo": 568020,
            "time": 100
        },
        {
            "tempo": 568990,
            "time": 96
        },
        {
            "tempo": 569963,
            "time": 100
        },
        {
            "tempo": 570939,
            "time": 100
        },
        {
            "tempo": 571919,
            "time": 84
        },
        {
            "tempo": 572902,
            "time": 100
        },
        {
            "tempo": 573888,
            "time": 96
        },
        {
            "tempo": 574878,
            "time": 100
        },
        {
            "tempo": 555556,
            "time": 108
        },
        {
            "tempo": 555710,
            "time": 1944
        },
        {
            "tempo": 557569,
            "time": 8
        },
        {
            "tempo": 559441,
            "time": 12
        },
        {
            "tempo": 560381,
            "time": 12
        },
        {
            "tempo": 562272,
            "time": 12
        },
        {
            "tempo": 564175,
            "time": 8
        },
        {
            "tempo": 565131,
            "time": 12
        },
        {
            "tempo": 567054,
            "time": 12
        },
        {
            "tempo": 568990,
            "time": 12
        },
        {
            "tempo": 569963,
            "time": 8
        },
        {
            "tempo": 571919,
            "time": 12
        },
        {
            "tempo": 573888,
            "time": 12
        },
        {
            "tempo": 574878,
            "time": 8
        },
        {
            "tempo": 576868,
            "time": 12
        },
        {
            "tempo": 578871,
            "time": 12
        },
        {
            "tempo": 579878,
            "time": 12
        },
        {
            "tempo": 581903,
            "time": 8
        },
        {
            "tempo": 583942,
            "time": 12
        },
        {
            "tempo": 584966,
            "time": 12
        },
        {
            "tempo": 587027,
            "time": 12
        },
        {
            "tempo": 589102,
            "time": 8
        },
        {
            "tempo": 590145,
            "time": 12
        },
        {
            "tempo": 592242,
            "time": 12
        },
        {
            "tempo": 594354,
            "time": 8
        },
        {
            "tempo": 595415,
            "time": 12
        },
        {
            "tempo": 597550,
            "time": 12
        },
        {
            "tempo": 599700,
            "time": 12
        },
        {
            "tempo": 600781,
            "time": 8
        },
        {
            "tempo": 602954,
            "time": 12
        },
        {
            "tempo": 605144,
            "time": 12
        },
        {
            "tempo": 606244,
            "time": 12
        },
        {
            "tempo": 608458,
            "time": 8
        },
        {
            "tempo": 610687,
            "time": 12
        },
        {
            "tempo": 611808,
            "time": 12
        },
        {
            "tempo": 614062,
            "time": 8
        },
        {
            "tempo": 616333,
            "time": 12
        },
        {
            "tempo": 617475,
            "time": 12
        },
        {
            "tempo": 619771,
            "time": 12
        },
        {
            "tempo": 622084,
            "time": 8
        },
        {
            "tempo": 623247,
            "time": 12
        },
        {
            "tempo": 625586,
            "time": 12
        },
        {
            "tempo": 627943,
            "time": 12
        },
        {
            "tempo": 629129,
            "time": 8
        },
        {
            "tempo": 631512,
            "time": 12
        },
        {
            "tempo": 633914,
            "time": 12
        },
        {
            "tempo": 635122,
            "time": 8
        },
        {
            "tempo": 637552,
            "time": 12
        },
        {
            "tempo": 640000,
            "time": 12
        },
        {
            "tempo": 641231,
            "time": 12
        },
        {
            "tempo": 643708,
            "time": 8
        },
        {
            "tempo": 646204,
            "time": 12
        },
        {
            "tempo": 647459,
            "time": 12
        },
        {
            "tempo": 649984,
            "time": 12
        },
        {
            "tempo": 652529,
            "time": 8
        },
        {
            "tempo": 653808,
            "time": 12
        },
        {
            "tempo": 656383,
            "time": 12
        },
        {
            "tempo": 658979,
            "time": 8
        },
        {
            "tempo": 660284,
            "time": 12
        },
        {
            "tempo": 662910,
            "time": 12
        },
        {
            "tempo": 665557,
            "time": 12
        },
        {
            "tempo": 666889,
            "time": 8
        },
        {
            "tempo": 669568,
            "time": 12
        },
        {
            "tempo": 672269,
            "time": 12
        },
        {
            "tempo": 673627,
            "time": 12
        },
        {
            "tempo": 676361,
            "time": 8
        },
        {
            "tempo": 679117,
            "time": 12
        },
        {
            "tempo": 680504,
            "time": 12
        },
        {
            "tempo": 683293,
            "time": 8
        },
        {
            "tempo": 686106,
            "time": 12
        },
        {
            "tempo": 687521,
            "time": 12
        },
        {
            "tempo": 690369,
            "time": 12
        },
        {
            "tempo": 693241,
            "time": 8
        },
        {
            "tempo": 694686,
            "time": 12
        },
        {
            "tempo": 697593,
            "time": 12
        },
        {
            "tempo": 700525,
            "time": 12
        },
        {
            "tempo": 702001,
            "time": 8
        },
        {
            "tempo": 704970,
            "time": 12
        },
        {
            "tempo": 707965,
            "time": 12
        },
        {
            "tempo": 709471,
            "time": 8
        },
        {
            "tempo": 712504,
            "time": 12
        },
        {
            "tempo": 715564,
            "time": 12
        },
        {
            "tempo": 717103,
            "time": 12
        },
        {
            "tempo": 720202,
            "time": 8
        },
        {
            "tempo": 723327,
            "time": 12
        },
        {
            "tempo": 724900,
            "time": 12
        },
        {
            "tempo": 968679,
            "time": 492
        },
        {
            "tempo": 636335,
            "time": 444
        },
        {
            "tempo": 633914,
            "time": 12
        },
        {
            "tempo": 632711,
            "time": 12
        },
        {
            "tempo": 631512,
            "time": 12
        },
        {
            "tempo": 630318,
            "time": 8
        },
        {
            "tempo": 627943,
            "time": 12
        },
        {
            "tempo": 626763,
            "time": 12
        },
        {
            "tempo": 625586,
            "time": 8
        },
        {
            "tempo": 624415,
            "time": 12
        },
        {
            "tempo": 623247,
            "time": 12
        },
        {
            "tempo": 620925,
            "time": 12
        },
        {
            "tempo": 619771,
            "time": 8
        },
        {
            "tempo": 618620,
            "time": 12
        },
        {
            "tempo": 617475,
            "time": 12
        },
        {
            "tempo": 616333,
            "time": 12
        },
        {
            "tempo": 614062,
            "time": 8
        },
        {
            "tempo": 612933,
            "time": 12
        },
        {
            "tempo": 611808,
            "time": 12
        },
        {
            "tempo": 610687,
            "time": 8
        },
        {
            "tempo": 609570,
            "time": 12
        },
        {
            "tempo": 607349,
            "time": 12
        },
        {
            "tempo": 606244,
            "time": 12
        },
        {
            "tempo": 605144,
            "time": 8
        },
        {
            "tempo": 604047,
            "time": 12
        },
        {
            "tempo": 602954,
            "time": 12
        },
        {
            "tempo": 600781,
            "time": 12
        },
        {
            "tempo": 599700,
            "time": 8
        },
        {
            "tempo": 598623,
            "time": 12
        },
        {
            "tempo": 597550,
            "time": 12
        },
        {
            "tempo": 595415,
            "time": 8
        },
        {
            "tempo": 594354,
            "time": 12
        },
        {
            "tempo": 593296,
            "time": 12
        },
        {
            "tempo": 592242,
            "time": 12
        },
        {
            "tempo": 591191,
            "time": 8
        },
        {
            "tempo": 589102,
            "time": 12
        },
        {
            "tempo": 588062,
            "time": 12
        },
        {
            "tempo": 587027,
            "time": 12
        },
        {
            "tempo": 585995,
            "time": 8
        },
        {
            "tempo": 584966,
            "time": 12
        },
        {
            "tempo": 582920,
            "time": 12
        },
        {
            "tempo": 581903,
            "time": 8
        },
        {
            "tempo": 580889,
            "time": 12
        },
        {
            "tempo": 579878,
            "time": 12
        },
        {
            "tempo": 578871,
            "time": 12
        },
        {
            "tempo": 576868,
            "time": 8
        },
        {
            "tempo": 575871,
            "time": 12
        },
        {
            "tempo": 574878,
            "time": 12
        },
        {
            "tempo": 573888,
            "time": 12
        },
        {
            "tempo": 572902,
            "time": 8
        },
        {
            "tempo": 571919,
            "time": 12
        },
        {
            "tempo": 570939,
            "time": 108
        },
        {
            "tempo": 569963,
            "time": 120
        },
        {
            "tempo": 568990,
            "time": 120
        },
        {
            "tempo": 568020,
            "time": 120
        },
        {
            "tempo": 567054,
            "time": 120
        },
        {
            "tempo": 566091,
            "time": 120
        },
        {
            "tempo": 565131,
            "time": 120
        },
        {
            "tempo": 564175,
            "time": 120
        },
        {
            "tempo": 563222,
            "time": 120
        },
        {
            "tempo": 562272,
            "time": 120
        },
        {
            "tempo": 561325,
            "time": 120
        },
        {
            "tempo": 560381,
            "time": 120
        },
        {
            "tempo": 559441,
            "time": 120
        },
        {
            "tempo": 558503,
            "time": 120
        },
        {
            "tempo": 557569,
            "time": 112
        },
        {
            "tempo": 556638,
            "time": 120
        },
        {
            "tempo": 555710,
            "time": 120
        },
        {
            "tempo": 555556,
            "time": 52
        },
        {
            "tempo": 556638,
            "time": 4508
        },
        {
            "tempo": 557569,
            "time": 32
        },
        {
            "tempo": 558503,
            "time": 32
        },
        {
            "tempo": 559441,
            "time": 32
        },
        {
            "tempo": 560381,
            "time": 32
        },
        {
            "tempo": 561325,
            "time": 24
        },
        {
            "tempo": 562272,
            "time": 32
        },
        {
            "tempo": 563222,
            "time": 32
        },
        {
            "tempo": 564175,
            "time": 32
        },
        {
            "tempo": 565131,
            "time": 32
        },
        {
            "tempo": 566091,
            "time": 24
        },
        {
            "tempo": 567054,
            "time": 32
        },
        {
            "tempo": 568020,
            "time": 32
        },
        {
            "tempo": 568990,
            "time": 32
        },
        {
            "tempo": 569963,
            "time": 36
        },
        {
            "tempo": 570939,
            "time": 20
        },
        {
            "tempo": 571919,
            "time": 32
        },
        {
            "tempo": 572902,
            "time": 32
        },
        {
            "tempo": 573888,
            "time": 36
        },
        {
            "tempo": 555556,
            "time": 32
        },
        {
            "tempo": 559701,
            "time": 6816
        },
        {
            "tempo": 560643,
            "time": 12
        },
        {
            "tempo": 562535,
            "time": 12
        },
        {
            "tempo": 563486,
            "time": 12
        },
        {
            "tempo": 565398,
            "time": 8
        },
        {
            "tempo": 566358,
            "time": 12
        },
        {
            "tempo": 568289,
            "time": 12
        },
        {
            "tempo": 569260,
            "time": 8
        },
        {
            "tempo": 571211,
            "time": 12
        },
        {
            "tempo": 572191,
            "time": 12
        },
        {
            "tempo": 574163,
            "time": 12
        },
        {
            "tempo": 575153,
            "time": 8
        },
        {
            "tempo": 577145,
            "time": 12
        },
        {
            "tempo": 578146,
            "time": 12
        },
        {
            "tempo": 580159,
            "time": 12
        },
        {
            "tempo": 581170,
            "time": 8
        },
        {
            "tempo": 583204,
            "time": 12
        },
        {
            "tempo": 584226,
            "time": 12
        },
        {
            "tempo": 586281,
            "time": 8
        },
        {
            "tempo": 587314,
            "time": 12
        },
        {
            "tempo": 589391,
            "time": 12
        },
        {
            "tempo": 590435,
            "time": 12
        },
        {
            "tempo": 592534,
            "time": 8
        },
        {
            "tempo": 593589,
            "time": 12
        },
        {
            "tempo": 595711,
            "time": 12
        },
        {
            "tempo": 596777,
            "time": 12
        },
        {
            "tempo": 598922,
            "time": 8
        },
        {
            "tempo": 600000,
            "time": 12
        },
        {
            "tempo": 602168,
            "time": 12
        },
        {
            "tempo": 603258,
            "time": 8
        },
        {
            "tempo": 605449,
            "time": 12
        },
        {
            "tempo": 606551,
            "time": 12
        },
        {
            "tempo": 608766,
            "time": 12
        },
        {
            "tempo": 609880,
            "time": 8
        },
        {
            "tempo": 612120,
            "time": 12
        },
        {
            "tempo": 613246,
            "time": 12
        },
        {
            "tempo": 615511,
            "time": 12
        },
        {
            "tempo": 616650,
            "time": 8
        },
        {
            "tempo": 618940,
            "time": 12
        },
        {
            "tempo": 620091,
            "time": 12
        },
        {
            "tempo": 622407,
            "time": 8
        },
        {
            "tempo": 623571,
            "time": 12
        },
        {
            "tempo": 625913,
            "time": 12
        },
        {
            "tempo": 627090,
            "time": 12
        },
        {
            "tempo": 629459,
            "time": 8
        },
        {
            "tempo": 630650,
            "time": 12
        },
        {
            "tempo": 633045,
            "time": 12
        },
        {
            "tempo": 555556,
            "time": 272
        },
        {
            "tempo": 555761,
            "time": 6765
        },
        {
            "tempo": 557103,
            "time": 11
        },
        {
            "tempo": 558451,
            "time": 33
        },
        {
            "tempo": 559806,
            "time": 32
        },
        {
            "tempo": 561167,
            "time": 44
        },
        {
            "tempo": 562535,
            "time": 33
        },
        {
            "tempo": 563910,
            "time": 32
        },
        {
            "tempo": 565291,
            "time": 44
        },
        {
            "tempo": 566679,
            "time": 33
        },
        {
            "tempo": 568074,
            "time": 33
        },
        {
            "tempo": 569476,
            "time": 43
        },
        {
            "tempo": 570885,
            "time": 33
        },
        {
            "tempo": 572301,
            "time": 33
        },
        {
            "tempo": 573723,
            "time": 43
        },
        {
            "tempo": 575153,
            "time": 33
        },
        {
            "tempo": 576590,
            "time": 44
        },
        {
            "tempo": 578035,
            "time": 32
        },
        {
            "tempo": 579486,
            "time": 33
        },
        {
            "tempo": 580945,
            "time": 44
        },
        {
            "tempo": 582411,
            "time": 32
        },
        {
            "tempo": 583885,
            "time": 33
        },
        {
            "tempo": 585366,
            "time": 44
        },
        {
            "tempo": 586854,
            "time": 33
        },
        {
            "tempo": 588351,
            "time": 32
        },
        {
            "tempo": 589855,
            "time": 44
        },
        {
            "tempo": 591366,
            "time": 33
        },
        {
            "tempo": 592885,
            "time": 32
        },
        {
            "tempo": 594413,
            "time": 44
        },
        {
            "tempo": 595948,
            "time": 33
        },
        {
            "tempo": 563910,
            "time": 32
        },
        {
            "tempo": 562535,
            "time": 66
        },
        {
            "tempo": 561167,
            "time": 54
        },
        {
            "tempo": 559806,
            "time": 55
        },
        {
            "tempo": 558451,
            "time": 55
        },
        {
            "tempo": 557103,
            "time": 65
        },
        {
            "tempo": 555761,
            "time": 55
        },
        {
            "tempo": 555556,
            "time": 54
        },
        {
            "tempo": 555761,
            "time": 6229
        },
        {
            "tempo": 557103,
            "time": 11
        },
        {
            "tempo": 556535,
            "time": 7
        },
        {
            "tempo": 557880,
            "time": 11
        },
        {
            "tempo": 559232,
            "time": 66
        },
        {
            "tempo": 560590,
            "time": 65
        },
        {
            "tempo": 561956,
            "time": 66
        },
        {
            "tempo": 563327,
            "time": 76
        },
        {
            "tempo": 564706,
            "time": 65
        },
        {
            "tempo": 566091,
            "time": 66
        },
        {
            "tempo": 567483,
            "time": 65
        },
        {
            "tempo": 596837,
            "time": 26
        },
        {
            "tempo": 599940,
            "time": 11
        },
        {
            "tempo": 601504,
            "time": 11
        },
        {
            "tempo": 603076,
            "time": 11
        },
        {
            "tempo": 604656,
            "time": 10
        },
        {
            "tempo": 606244,
            "time": 11
        },
        {
            "tempo": 607841,
            "time": 11
        },
        {
            "tempo": 609446,
            "time": 11
        },
        {
            "tempo": 611060,
            "time": 11
        },
        {
            "tempo": 612683,
            "time": 11
        },
        {
            "tempo": 614314,
            "time": 11
        },
        {
            "tempo": 617602,
            "time": 11
        },
        {
            "tempo": 619259,
            "time": 11
        },
        {
            "tempo": 620925,
            "time": 11
        },
        {
            "tempo": 622600,
            "time": 11
        },
        {
            "tempo": 624285,
            "time": 10
        },
        {
            "tempo": 625978,
            "time": 11
        },
        {
            "tempo": 627681,
            "time": 11
        },
        {
            "tempo": 629393,
            "time": 11
        },
        {
            "tempo": 631114,
            "time": 11
        },
        {
            "tempo": 632845,
            "time": 11
        },
        {
            "tempo": 638094,
            "time": 29
        },
        {
            "tempo": 639863,
            "time": 22
        },
        {
            "tempo": 641643,
            "time": 33
        },
        {
            "tempo": 643432,
            "time": 32
        },
        {
            "tempo": 645231,
            "time": 33
        },
        {
            "tempo": 647040,
            "time": 33
        },
        {
            "tempo": 648859,
            "time": 32
        },
        {
            "tempo": 650689,
            "time": 33
        },
        {
            "tempo": 652529,
            "time": 33
        },
        {
            "tempo": 654379,
            "time": 22
        },
        {
            "tempo": 575982,
            "time": 3
        },
        {
            "tempo": 574548,
            "time": 44
        },
        {
            "tempo": 573121,
            "time": 33
        },
        {
            "tempo": 571701,
            "time": 33
        },
        {
            "tempo": 570288,
            "time": 43
        },
        {
            "tempo": 568882,
            "time": 33
        },
        {
            "tempo": 567483,
            "time": 33
        },
        {
            "tempo": 566091,
            "time": 43
        },
        {
            "tempo": 564706,
            "time": 33
        },
        {
            "tempo": 563327,
            "time": 33
        },
        {
            "tempo": 561956,
            "time": 43
        },
        {
            "tempo": 560590,
            "time": 33
        },
        {
            "tempo": 559232,
            "time": 33
        },
        {
            "tempo": 557880,
            "time": 43
        },
        {
            "tempo": 556535,
            "time": 33
        },
        {
            "tempo": 555196,
            "time": 33
        },
        {
            "tempo": 553863,
            "time": 44
        },
        {
            "tempo": 552537,
            "time": 32
        },
        {
            "tempo": 551217,
            "time": 33
        },
        {
            "tempo": 545256,
            "time": 317
        },
        {
            "tempo": 543971,
            "time": 317
        },
        {
            "tempo": 542692,
            "time": 316
        },
        {
            "tempo": 543971,
            "time": 12043
        },
        {
            "tempo": 545256,
            "time": 11
        },
        {
            "tempo": 546548,
            "time": 11
        },
        {
            "tempo": 547845,
            "time": 10
        },
        {
            "tempo": 549149,
            "time": 11
        },
        {
            "tempo": 550459,
            "time": 22
        },
        {
            "tempo": 551775,
            "time": 11
        },
        {
            "tempo": 553097,
            "time": 22
        },
        {
            "tempo": 554426,
            "time": 11
        },
        {
            "tempo": 555761,
            "time": 22
        },
        {
            "tempo": 557103,
            "time": 11
        },
        {
            "tempo": 558451,
            "time": 21
        },
        {
            "tempo": 559806,
            "time": 11
        },
        {
            "tempo": 561167,
            "time": 22
        },
        {
            "tempo": 562535,
            "time": 11
        },
        {
            "tempo": 563910,
            "time": 22
        },
        {
            "tempo": 565291,
            "time": 11
        },
        {
            "tempo": 566679,
            "time": 22
        },
        {
            "tempo": 568074,
            "time": 10
        },
        {
            "tempo": 569476,
            "time": 22
        },
        {
            "tempo": 570885,
            "time": 22
        },
        {
            "tempo": 572301,
            "time": 11
        },
        {
            "tempo": 573723,
            "time": 22
        },
        {
            "tempo": 575153,
            "time": 11
        },
        {
            "tempo": 576590,
            "time": 22
        },
        {
            "tempo": 578035,
            "time": 10
        },
        {
            "tempo": 579486,
            "time": 22
        },
        {
            "tempo": 580945,
            "time": 11
        },
        {
            "tempo": 582411,
            "time": 22
        },
        {
            "tempo": 583885,
            "time": 11
        },
        {
            "tempo": 585366,
            "time": 22
        },
        {
            "tempo": 586854,
            "time": 11
        },
        {
            "tempo": 588351,
            "time": 21
        },
        {
            "tempo": 589855,
            "time": 11
        },
        {
            "tempo": 591366,
            "time": 22
        },
        {
            "tempo": 592885,
            "time": 11
        },
        {
            "tempo": 594413,
            "time": 22
        },
        {
            "tempo": 595948,
            "time": 22
        },
        {
            "tempo": 597491,
            "time": 11
        },
        {
            "tempo": 599042,
            "time": 21
        },
        {
            "tempo": 600601,
            "time": 11
        },
        {
            "tempo": 602168,
            "time": 22
        },
        {
            "tempo": 603743,
            "time": 11
        },
        {
            "tempo": 605327,
            "time": 22
        },
        {
            "tempo": 606919,
            "time": 11
        },
        {
            "tempo": 608519,
            "time": 22
        },
        {
            "tempo": 610128,
            "time": 11
        },
        {
            "tempo": 611746,
            "time": 21
        },
        {
            "tempo": 613371,
            "time": 11
        },
        {
            "tempo": 615006,
            "time": 22
        },
        {
            "tempo": 616650,
            "time": 11
        },
        {
            "tempo": 618302,
            "time": 22
        },
        {
            "tempo": 619963,
            "time": 11
        },
        {
            "tempo": 621633,
            "time": 22
        },
        {
            "tempo": 623312,
            "time": 21
        },
        {
            "tempo": 625000,
            "time": 11
        },
        {
            "tempo": 626697,
            "time": 22
        },
        {
            "tempo": 628404,
            "time": 11
        },
        {
            "tempo": 630120,
            "time": 22
        },
        {
            "tempo": 631845,
            "time": 11
        },
        {
            "tempo": 633580,
            "time": 22
        },
        {
            "tempo": 635324,
            "time": 10
        },
        {
            "tempo": 637078,
            "time": 22
        },
        {
            "tempo": 638842,
            "time": 11
        },
        {
            "tempo": 640615,
            "time": 22
        },
        {
            "tempo": 642398,
            "time": 11
        },
        {
            "tempo": 644192,
            "time": 22
        },
        {
            "tempo": 645995,
            "time": 11
        },
        {
            "tempo": 647808,
            "time": 21
        },
        {
            "tempo": 649632,
            "time": 11
        },
        {
            "tempo": 651466,
            "time": 22
        },
        {
            "tempo": 658906,
            "time": 11
        },
        {
            "tempo": 662691,
            "time": 11
        },
        {
            "tempo": 666519,
            "time": 11
        },
        {
            "tempo": 670391,
            "time": 11
        },
        {
            "tempo": 674309,
            "time": 11
        },
        {
            "tempo": 678273,
            "time": 11
        },
        {
            "tempo": 682283,
            "time": 11
        },
        {
            "tempo": 686342,
            "time": 10
        },
        {
            "tempo": 690449,
            "time": 11
        },
        {
            "tempo": 694605,
            "time": 11
        },
        {
            "tempo": 698812,
            "time": 11
        },
        {
            "tempo": 703070,
            "time": 11
        },
        {
            "tempo": 705219,
            "time": 11
        },
        {
            "tempo": 709555,
            "time": 11
        },
        {
            "tempo": 713946,
            "time": 11
        },
        {
            "tempo": 718391,
            "time": 11
        },
        {
            "tempo": 722892,
            "time": 11
        },
        {
            "tempo": 727449,
            "time": 11
        },
        {
            "tempo": 724113,
            "time": 10
        },
        {
            "tempo": 605327,
            "time": 350
        },
        {
            "tempo": 603743,
            "time": 21
        },
        {
            "tempo": 602168,
            "time": 22
        },
        {
            "tempo": 600601,
            "time": 11
        },
        {
            "tempo": 599042,
            "time": 22
        },
        {
            "tempo": 597491,
            "time": 22
        },
        {
            "tempo": 595948,
            "time": 22
        },
        {
            "tempo": 594413,
            "time": 10
        },
        {
            "tempo": 592885,
            "time": 22
        },
        {
            "tempo": 591366,
            "time": 22
        },
        {
            "tempo": 589855,
            "time": 11
        },
        {
            "tempo": 588351,
            "time": 22
        },
        {
            "tempo": 586854,
            "time": 22
        },
        {
            "tempo": 585366,
            "time": 21
        },
        {
            "tempo": 583885,
            "time": 11
        },
        {
            "tempo": 582411,
            "time": 22
        },
        {
            "tempo": 580945,
            "time": 22
        },
        {
            "tempo": 579486,
            "time": 11
        },
        {
            "tempo": 578035,
            "time": 22
        },
        {
            "tempo": 576590,
            "time": 22
        },
        {
            "tempo": 575153,
            "time": 21
        },
        {
            "tempo": 573723,
            "time": 11
        },
        {
            "tempo": 572301,
            "time": 22
        },
        {
            "tempo": 570885,
            "time": 22
        },
        {
            "tempo": 569476,
            "time": 22
        },
        {
            "tempo": 568074,
            "time": 11
        },
        {
            "tempo": 566679,
            "time": 21
        },
        {
            "tempo": 565291,
            "time": 22
        },
        {
            "tempo": 563910,
            "time": 11
        },
        {
            "tempo": 562535,
            "time": 22
        },
        {
            "tempo": 561167,
            "time": 22
        },
        {
            "tempo": 559806,
            "time": 22
        },
        {
            "tempo": 558451,
            "time": 11
        },
        {
            "tempo": 557103,
            "time": 21
        },
        {
            "tempo": 555761,
            "time": 22
        },
        {
            "tempo": 554426,
            "time": 11
        },
        {
            "tempo": 553097,
            "time": 87
        },
        {
            "tempo": 551775,
            "time": 88
        },
        {
            "tempo": 550459,
            "time": 76
        },
        {
            "tempo": 549149,
            "time": 87
        },
        {
            "tempo": 550459,
            "time": 4429
        },
        {
            "tempo": 551775,
            "time": 11
        },
        {
            "tempo": 553097,
            "time": 55
        },
        {
            "tempo": 554426,
            "time": 54
        },
        {
            "tempo": 555761,
            "time": 66
        },
        {
            "tempo": 557103,
            "time": 54
        },
        {
            "tempo": 558451,
            "time": 55
        },
        {
            "tempo": 559806,
            "time": 65
        },
        {
            "tempo": 561167,
            "time": 55
        },
        {
            "tempo": 562535,
            "time": 54
        },
        {
            "tempo": 563910,
            "time": 66
        },
        {
            "tempo": 565291,
            "time": 54
        },
        {
            "tempo": 566679,
            "time": 55
        },
        {
            "tempo": 568074,
            "time": 65
        },
        {
            "tempo": 569476,
            "time": 55
        },
        {
            "tempo": 570885,
            "time": 55
        },
        {
            "tempo": 572301,
            "time": 65
        },
        {
            "tempo": 573723,
            "time": 55
        },
        {
            "tempo": 575153,
            "time": 54
        },
        {
            "tempo": 578815,
            "time": 611
        },
        {
            "tempo": 581734,
            "time": 11
        },
        {
            "tempo": 583204,
            "time": 11
        },
        {
            "tempo": 584681,
            "time": 11
        },
        {
            "tempo": 586166,
            "time": 11
        },
        {
            "tempo": 589159,
            "time": 11
        },
        {
            "tempo": 590667,
            "time": 10
        },
        {
            "tempo": 592183,
            "time": 11
        },
        {
            "tempo": 593707,
            "time": 11
        },
        {
            "tempo": 596777,
            "time": 11
        },
        {
            "tempo": 598325,
            "time": 11
        },
        {
            "tempo": 599880,
            "time": 11
        },
        {
            "tempo": 601443,
            "time": 11
        },
        {
            "tempo": 603015,
            "time": 11
        },
        {
            "tempo": 606183,
            "time": 11
        },
        {
            "tempo": 607780,
            "time": 11
        },
        {
            "tempo": 609385,
            "time": 11
        },
        {
            "tempo": 610998,
            "time": 10
        },
        {
            "tempo": 614251,
            "time": 11
        },
        {
            "tempo": 615890,
            "time": 11
        },
        {
            "tempo": 617538,
            "time": 11
        },
        {
            "tempo": 619195,
            "time": 11
        },
        {
            "tempo": 622536,
            "time": 11
        },
        {
            "tempo": 624220,
            "time": 11
        },
        {
            "tempo": 625913,
            "time": 11
        },
        {
            "tempo": 627615,
            "time": 11
        },
        {
            "tempo": 629327,
            "time": 11
        },
        {
            "tempo": 629327,
            "time": 21
        },
        {
            "tempo": 631048,
            "time": 44
        },
        {
            "tempo": 632778,
            "time": 44
        },
        {
            "tempo": 634518,
            "time": 43
        },
        {
            "tempo": 636267,
            "time": 44
        },
        {
            "tempo": 638026,
            "time": 44
        },
        {
            "tempo": 639795,
            "time": 43
        },
        {
            "tempo": 641574,
            "time": 44
        },
        {
            "tempo": 643363,
            "time": 44
        },
        {
            "tempo": 619963,
            "time": 21
        },
        {
            "tempo": 618302,
            "time": 11
        },
        {
            "tempo": 616650,
            "time": 11
        },
        {
            "tempo": 615006,
            "time": 11
        },
        {
            "tempo": 613371,
            "time": 11
        },
        {
            "tempo": 611746,
            "time": 11
        },
        {
            "tempo": 610128,
            "time": 11
        },
        {
            "tempo": 608519,
            "time": 11
        },
        {
            "tempo": 606919,
            "time": 11
        },
        {
            "tempo": 605327,
            "time": 21
        },
        {
            "tempo": 603743,
            "time": 11
        },
        {
            "tempo": 602168,
            "time": 11
        },
        {
            "tempo": 600601,
            "time": 11
        },
        {
            "tempo": 599042,
            "time": 11
        },
        {
            "tempo": 597491,
            "time": 11
        },
        {
            "tempo": 595948,
            "time": 11
        },
        {
            "tempo": 594413,
            "time": 11
        },
        {
            "tempo": 592885,
            "time": 11
        },
        {
            "tempo": 591366,
            "time": 11
        },
        {
            "tempo": 589855,
            "time": 21
        },
        {
            "tempo": 588351,
            "time": 11
        },
        {
            "tempo": 586854,
            "time": 11
        },
        {
            "tempo": 585366,
            "time": 11
        },
        {
            "tempo": 583885,
            "time": 11
        },
        {
            "tempo": 582411,
            "time": 11
        },
        {
            "tempo": 580945,
            "time": 11
        },
        {
            "tempo": 579486,
            "time": 11
        },
        {
            "tempo": 578035,
            "time": 11
        },
        {
            "tempo": 576590,
            "time": 11
        },
        {
            "tempo": 575153,
            "time": 21
        },
        {
            "tempo": 573723,
            "time": 11
        },
        {
            "tempo": 572301,
            "time": 11
        },
        {
            "tempo": 570885,
            "time": 11
        },
        {
            "tempo": 569476,
            "time": 11
        },
        {
            "tempo": 568074,
            "time": 11
        },
        {
            "tempo": 566679,
            "time": 11
        },
        {
            "tempo": 565291,
            "time": 11
        },
        {
            "tempo": 563910,
            "time": 11
        },
        {
            "tempo": 562535,
            "time": 11
        },
        {
            "tempo": 559806,
            "time": 21
        },
        {
            "tempo": 558451,
            "time": 22
        },
        {
            "tempo": 557103,
            "time": 22
        },
        {
            "tempo": 555556,
            "time": 33
        },
        {
            "tempo": 553097,
            "time": 5662
        },
        {
            "tempo": 554426,
            "time": 11
        },
        {
            "tempo": 555761,
            "time": 21
        },
        {
            "tempo": 557103,
            "time": 33
        },
        {
            "tempo": 558451,
            "time": 22
        },
        {
            "tempo": 559806,
            "time": 33
        },
        {
            "tempo": 561167,
            "time": 21
        },
        {
            "tempo": 562535,
            "time": 33
        },
        {
            "tempo": 563910,
            "time": 33
        },
        {
            "tempo": 565291,
            "time": 22
        },
        {
            "tempo": 566679,
            "time": 32
        },
        {
            "tempo": 568074,
            "time": 22
        },
        {
            "tempo": 569476,
            "time": 33
        },
        {
            "tempo": 570885,
            "time": 33
        },
        {
            "tempo": 572301,
            "time": 22
        },
        {
            "tempo": 573723,
            "time": 32
        },
        {
            "tempo": 575153,
            "time": 22
        },
        {
            "tempo": 576590,
            "time": 33
        },
        {
            "tempo": 578035,
            "time": 33
        },
        {
            "tempo": 579486,
            "time": 21
        },
        {
            "tempo": 580945,
            "time": 33
        },
        {
            "tempo": 582411,
            "time": 22
        },
        {
            "tempo": 583885,
            "time": 33
        },
        {
            "tempo": 585366,
            "time": 21
        },
        {
            "tempo": 586854,
            "time": 33
        },
        {
            "tempo": 588351,
            "time": 33
        },
        {
            "tempo": 589855,
            "time": 22
        },
        {
            "tempo": 591366,
            "time": 32
        },
        {
            "tempo": 592885,
            "time": 22
        },
        {
            "tempo": 594413,
            "time": 33
        },
        {
            "tempo": 570885,
            "time": 698
        },
        {
            "tempo": 569476,
            "time": 22
        },
        {
            "tempo": 568074,
            "time": 22
        },
        {
            "tempo": 566679,
            "time": 22
        },
        {
            "tempo": 565291,
            "time": 21
        },
        {
            "tempo": 563910,
            "time": 22
        },
        {
            "tempo": 562535,
            "time": 22
        },
        {
            "tempo": 561167,
            "time": 22
        },
        {
            "tempo": 559806,
            "time": 22
        },
        {
            "tempo": 558451,
            "time": 22
        },
        {
            "tempo": 557103,
            "time": 21
        },
        {
            "tempo": 555761,
            "time": 22
        },
        {
            "tempo": 555556,
            "time": 22
        },
        {
            "tempo": 554785,
            "time": 9251
        },
        {
            "tempo": 556122,
            "time": 11
        },
        {
            "tempo": 557465,
            "time": 120
        },
        {
            "tempo": 558815,
            "time": 120
        },
        {
            "tempo": 560172,
            "time": 120
        },
        {
            "tempo": 561535,
            "time": 131
        },
        {
            "tempo": 562905,
            "time": 120
        },
        {
            "tempo": 564281,
            "time": 120
        },
        {
            "tempo": 565664,
            "time": 120
        },
        {
            "tempo": 567054,
            "time": 131
        },
        {
            "tempo": 568451,
            "time": 120
        },
        {
            "tempo": 569855,
            "time": 120
        },
        {
            "tempo": 571265,
            "time": 120
        },
        {
            "tempo": 572683,
            "time": 131
        },
        {
            "tempo": 574108,
            "time": 120
        },
        {
            "tempo": 575540,
            "time": 120
        },
        {
            "tempo": 576979,
            "time": 120
        },
        {
            "tempo": 578815,
            "time": 2301
        },
        {
            "tempo": 580271,
            "time": 11
        },
        {
            "tempo": 581734,
            "time": 11
        },
        {
            "tempo": 583204,
            "time": 11
        },
        {
            "tempo": 584681,
            "time": 11
        },
        {
            "tempo": 586166,
            "time": 11
        },
        {
            "tempo": 587659,
            "time": 11
        },
        {
            "tempo": 589159,
            "time": 11
        },
        {
            "tempo": 590667,
            "time": 11
        },
        {
            "tempo": 592183,
            "time": 21
        },
        {
            "tempo": 593707,
            "time": 11
        },
        {
            "tempo": 595238,
            "time": 11
        },
        {
            "tempo": 596777,
            "time": 11
        },
        {
            "tempo": 598325,
            "time": 11
        },
        {
            "tempo": 599880,
            "time": 11
        },
        {
            "tempo": 601443,
            "time": 11
        },
        {
            "tempo": 603015,
            "time": 22
        },
        {
            "tempo": 604595,
            "time": 11
        },
        {
            "tempo": 606183,
            "time": 11
        },
        {
            "tempo": 607780,
            "time": 10
        },
        {
            "tempo": 609385,
            "time": 11
        },
        {
            "tempo": 610998,
            "time": 11
        },
        {
            "tempo": 612620,
            "time": 11
        },
        {
            "tempo": 614251,
            "time": 22
        },
        {
            "tempo": 615890,
            "time": 11
        },
        {
            "tempo": 617538,
            "time": 11
        },
        {
            "tempo": 619195,
            "time": 11
        },
        {
            "tempo": 620861,
            "time": 11
        },
        {
            "tempo": 622536,
            "time": 11
        },
        {
            "tempo": 624220,
            "time": 10
        },
        {
            "tempo": 625913,
            "time": 22
        },
        {
            "tempo": 627615,
            "time": 11
        },
        {
            "tempo": 629327,
            "time": 11
        },
        {
            "tempo": 631048,
            "time": 11
        },
        {
            "tempo": 632778,
            "time": 11
        },
        {
            "tempo": 634518,
            "time": 11
        },
        {
            "tempo": 636267,
            "time": 11
        },
        {
            "tempo": 638026,
            "time": 11
        },
        {
            "tempo": 639795,
            "time": 21
        },
        {
            "tempo": 641574,
            "time": 11
        },
        {
            "tempo": 643363,
            "time": 11
        },
        {
            "tempo": 645161,
            "time": 11
        },
        {
            "tempo": 646970,
            "time": 11
        },
        {
            "tempo": 648789,
            "time": 11
        },
        {
            "tempo": 650618,
            "time": 11
        },
        {
            "tempo": 652458,
            "time": 22
        },
        {
            "tempo": 654308,
            "time": 11
        },
        {
            "tempo": 656168,
            "time": 11
        },
        {
            "tempo": 658039,
            "time": 10
        },
        {
            "tempo": 659921,
            "time": 11
        },
        {
            "tempo": 661813,
            "time": 11
        },
        {
            "tempo": 663717,
            "time": 11
        },
        {
            "tempo": 665631,
            "time": 22
        },
        {
            "tempo": 667557,
            "time": 11
        },
        {
            "tempo": 669493,
            "time": 11
        },
        {
            "tempo": 671441,
            "time": 11
        },
        {
            "tempo": 673401,
            "time": 11
        },
        {
            "tempo": 675371,
            "time": 11
        },
        {
            "tempo": 677354,
            "time": 10
        },
        {
            "tempo": 681354,
            "time": 22
        },
        {
            "tempo": 685401,
            "time": 11
        },
        {
            "tempo": 687443,
            "time": 11
        },
        {
            "tempo": 689497,
            "time": 11
        },
        {
            "tempo": 693642,
            "time": 11
        },
        {
            "tempo": 695733,
            "time": 11
        },
        {
            "tempo": 697837,
            "time": 11
        },
        {
            "tempo": 702083,
            "time": 11
        },
        {
            "tempo": 704225,
            "time": 11
        },
        {
            "tempo": 706381,
            "time": 10
        },
        {
            "tempo": 710732,
            "time": 11
        },
        {
            "tempo": 712928,
            "time": 11
        },
        {
            "tempo": 715137,
            "time": 11
        },
        {
            "tempo": 719597,
            "time": 11
        },
        {
            "tempo": 721848,
            "time": 11
        },
        {
            "tempo": 724113,
            "time": 11
        },
        {
            "tempo": 730994,
            "time": 11
        },
        {
            "tempo": 735655,
            "time": 11
        },
        {
            "tempo": 740375,
            "time": 11
        },
        {
            "tempo": 745156,
            "time": 11
        },
        {
            "tempo": 750000,
            "time": 10
        },
        {
            "tempo": 757384,
            "time": 11
        },
        {
            "tempo": 762389,
            "time": 11
        },
        {
            "tempo": 767460,
            "time": 11
        },
        {
            "tempo": 772599,
            "time": 11
        },
        {
            "tempo": 777807,
            "time": 11
        },
        {
            "tempo": 783085,
            "time": 11
        },
        {
            "tempo": 791139,
            "time": 11
        },
        {
            "tempo": 796601,
            "time": 11
        },
        {
            "tempo": 802139,
            "time": 11
        },
        {
            "tempo": 807754,
            "time": 11
        },
        {
            "tempo": 813449,
            "time": 10
        },
        {
            "tempo": 819224,
            "time": 11
        },
        {
            "tempo": 828043,
            "time": 11
        },
        {
            "tempo": 834028,
            "time": 11
        },
        {
            "tempo": 840101,
            "time": 11
        },
        {
            "tempo": 846262,
            "time": 11
        },
        {
            "tempo": 852515,
            "time": 11
        },
        {
            "tempo": 858861,
            "time": 11
        },
        {
            "tempo": 868558,
            "time": 11
        },
        {
            "tempo": 875146,
            "time": 11
        },
        {
            "tempo": 881834,
            "time": 11
        },
        {
            "tempo": 888626,
            "time": 10
        },
        {
            "tempo": 895522,
            "time": 11
        },
        {
            "tempo": 906071,
            "time": 11
        },
        {
            "tempo": 638026,
            "time": 469
        },
        {
            "tempo": 636267,
            "time": 22
        },
        {
            "tempo": 634518,
            "time": 22
        },
        {
            "tempo": 632778,
            "time": 22
        },
        {
            "tempo": 631048,
            "time": 22
        },
        {
            "tempo": 629327,
            "time": 11
        },
        {
            "tempo": 627615,
            "time": 21
        },
        {
            "tempo": 625913,
            "time": 22
        },
        {
            "tempo": 624220,
            "time": 22
        },
        {
            "tempo": 622536,
            "time": 22
        },
        {
            "tempo": 620861,
            "time": 22
        },
        {
            "tempo": 619195,
            "time": 11
        },
        {
            "tempo": 617538,
            "time": 21
        },
        {
            "tempo": 615890,
            "time": 22
        },
        {
            "tempo": 614251,
            "time": 22
        },
        {
            "tempo": 612620,
            "time": 22
        },
        {
            "tempo": 610998,
            "time": 22
        },
        {
            "tempo": 609385,
            "time": 11
        },
        {
            "tempo": 607780,
            "time": 21
        },
        {
            "tempo": 606183,
            "time": 22
        },
        {
            "tempo": 604595,
            "time": 22
        },
        {
            "tempo": 603015,
            "time": 22
        },
        {
            "tempo": 601443,
            "time": 22
        },
        {
            "tempo": 599880,
            "time": 11
        },
        {
            "tempo": 598325,
            "time": 32
        },
        {
            "tempo": 596777,
            "time": 33
        },
        {
            "tempo": 595238,
            "time": 33
        },
        {
            "tempo": 593707,
            "time": 32
        },
        {
            "tempo": 592183,
            "time": 33
        },
        {
            "tempo": 590667,
            "time": 33
        },
        {
            "tempo": 589159,
            "time": 33
        },
        {
            "tempo": 587659,
            "time": 21
        },
        {
            "tempo": 586166,
            "time": 33
        },
        {
            "tempo": 584681,
            "time": 33
        },
        {
            "tempo": 583204,
            "time": 33
        },
        {
            "tempo": 581734,
            "time": 32
        },
        {
            "tempo": 580271,
            "time": 33
        },
        {
            "tempo": 578815,
            "time": 33
        },
        {
            "tempo": 577367,
            "time": 33
        },
        {
            "tempo": 575926,
            "time": 21
        },
        {
            "tempo": 574493,
            "time": 99
        },
        {
            "tempo": 573066,
            "time": 87
        },
        {
            "tempo": 571646,
            "time": 98
        },
        {
            "tempo": 570234,
            "time": 87
        },
        {
            "tempo": 568828,
            "time": 88
        },
        {
            "tempo": 567430,
            "time": 98
        },
        {
            "tempo": 566038,
            "time": 87
        },
        {
            "tempo": 564653,
            "time": 98
        },
        {
            "tempo": 563275,
            "time": 87
        },
        {
            "tempo": 561903,
            "time": 88
        },
        {
            "tempo": 560538,
            "time": 491
        },
        {
            "tempo": 559180,
            "time": 480
        },
        {
            "tempo": 557828,
            "time": 491
        },
        {
            "tempo": 555556,
            "time": 480
        },
        {
            "tempo": 560590,
            "time": 2880
        },
        {
            "tempo": 561956,
            "time": 11
        },
        {
            "tempo": 563327,
            "time": 11
        },
        {
            "tempo": 564706,
            "time": 22
        },
        {
            "tempo": 566091,
            "time": 22
        },
        {
            "tempo": 567483,
            "time": 22
        },
        {
            "tempo": 568882,
            "time": 11
        },
        {
            "tempo": 570288,
            "time": 21
        },
        {
            "tempo": 571701,
            "time": 22
        },
        {
            "tempo": 573121,
            "time": 22
        },
        {
            "tempo": 574548,
            "time": 11
        },
        {
            "tempo": 575982,
            "time": 22
        },
        {
            "tempo": 577423,
            "time": 22
        },
        {
            "tempo": 578871,
            "time": 21
        },
        {
            "tempo": 580327,
            "time": 11
        },
        {
            "tempo": 581790,
            "time": 22
        },
        {
            "tempo": 583260,
            "time": 22
        },
        {
            "tempo": 584738,
            "time": 22
        },
        {
            "tempo": 586224,
            "time": 11
        },
        {
            "tempo": 587717,
            "time": 22
        },
        {
            "tempo": 589217,
            "time": 21
        },
        {
            "tempo": 590726,
            "time": 22
        },
        {
            "tempo": 592242,
            "time": 11
        },
        {
            "tempo": 593765,
            "time": 22
        },
        {
            "tempo": 595297,
            "time": 22
        },
        {
            "tempo": 596837,
            "time": 22
        },
        {
            "tempo": 598384,
            "time": 10
        },
        {
            "tempo": 599940,
            "time": 22
        },
        {
            "tempo": 601504,
            "time": 22
        },
        {
            "tempo": 603076,
            "time": 22
        },
        {
            "tempo": 604656,
            "time": 11
        },
        {
            "tempo": 606244,
            "time": 22
        },
        {
            "tempo": 607841,
            "time": 21
        },
        {
            "tempo": 607841,
            "time": 33
        },
        {
            "tempo": 555556,
            "time": 262
        },
        {
            "tempo": 556328,
            "time": 7215
        },
        {
            "tempo": 557673,
            "time": 11
        },
        {
            "tempo": 553659,
            "time": 10
        },
        {
            "tempo": 557673,
            "time": 11
        },
        {
            "tempo": 560381,
            "time": 11
        },
        {
            "tempo": 563116,
            "time": 11
        },
        {
            "tempo": 567269,
            "time": 11
        },
        {
            "tempo": 570071,
            "time": 11
        },
        {
            "tempo": 572902,
            "time": 11
        },
        {
            "tempo": 577201,
            "time": 11
        },
        {
            "tempo": 580102,
            "time": 11
        },
        {
            "tempo": 583034,
            "time": 11
        },
        {
            "tempo": 587487,
            "time": 11
        },
        {
            "tempo": 590493,
            "time": 10
        },
        {
            "tempo": 593531,
            "time": 11
        },
        {
            "tempo": 598146,
            "time": 11
        },
        {
            "tempo": 601263,
            "time": 11
        },
        {
            "tempo": 604412,
            "time": 11
        },
        {
            "tempo": 607595,
            "time": 11
        },
        {
            "tempo": 612432,
            "time": 11
        },
        {
            "tempo": 615700,
            "time": 11
        },
        {
            "tempo": 619003,
            "time": 11
        },
        {
            "tempo": 624025,
            "time": 11
        },
        {
            "tempo": 627418,
            "time": 11
        },
        {
            "tempo": 630848,
            "time": 10
        },
        {
            "tempo": 636065,
            "time": 11
        },
        {
            "tempo": 639591,
            "time": 11
        },
        {
            "tempo": 643156,
            "time": 11
        },
        {
            "tempo": 648579,
            "time": 11
        },
        {
            "tempo": 652245,
            "time": 11
        },
        {
            "tempo": 655953,
            "time": 11
        },
        {
            "tempo": 661594,
            "time": 11
        },
        {
            "tempo": 665410,
            "time": 11
        },
        {
            "tempo": 669269,
            "time": 11
        },
        {
            "tempo": 673174,
            "time": 11
        },
        {
            "tempo": 556328,
            "time": 152
        },
        {
            "tempo": 556535,
            "time": 607
        },
        {
            "tempo": 557880,
            "time": 54
        },
        {
            "tempo": 559232,
            "time": 66
        },
        {
            "tempo": 560590,
            "time": 54
        },
        {
            "tempo": 561956,
            "time": 66
        },
        {
            "tempo": 563327,
            "time": 54
        },
        {
            "tempo": 564706,
            "time": 66
        },
        {
            "tempo": 566091,
            "time": 54
        },
        {
            "tempo": 567483,
            "time": 66
        },
        {
            "tempo": 568882,
            "time": 54
        },
        {
            "tempo": 570288,
            "time": 66
        },
        {
            "tempo": 571701,
            "time": 54
        },
        {
            "tempo": 573121,
            "time": 66
        },
        {
            "tempo": 574548,
            "time": 54
        },
        {
            "tempo": 575982,
            "time": 66
        },
        {
            "tempo": 577423,
            "time": 21
        },
        {
            "tempo": 578871,
            "time": 22
        },
        {
            "tempo": 580327,
            "time": 22
        },
        {
            "tempo": 581790,
            "time": 22
        },
        {
            "tempo": 583260,
            "time": 22
        },
        {
            "tempo": 584738,
            "time": 21
        },
        {
            "tempo": 586224,
            "time": 22
        },
        {
            "tempo": 587717,
            "time": 22
        },
        {
            "tempo": 589217,
            "time": 22
        },
        {
            "tempo": 590726,
            "time": 22
        },
        {
            "tempo": 592242,
            "time": 22
        },
        {
            "tempo": 593765,
            "time": 21
        },
        {
            "tempo": 595297,
            "time": 22
        },
        {
            "tempo": 596837,
            "time": 22
        },
        {
            "tempo": 598384,
            "time": 22
        },
        {
            "tempo": 599940,
            "time": 22
        },
        {
            "tempo": 601504,
            "time": 21
        },
        {
            "tempo": 603076,
            "time": 22
        },
        {
            "tempo": 604656,
            "time": 22
        },
        {
            "tempo": 606244,
            "time": 22
        },
        {
            "tempo": 607841,
            "time": 22
        },
        {
            "tempo": 609880,
            "time": 43
        },
        {
            "tempo": 613121,
            "time": 11
        },
        {
            "tempo": 616396,
            "time": 11
        },
        {
            "tempo": 619707,
            "time": 11
        },
        {
            "tempo": 621375,
            "time": 11
        },
        {
            "tempo": 624740,
            "time": 11
        },
        {
            "tempo": 628141,
            "time": 11
        },
        {
            "tempo": 631579,
            "time": 11
        },
        {
            "tempo": 635055,
            "time": 11
        },
        {
            "tempo": 638570,
            "time": 11
        },
        {
            "tempo": 640342,
            "time": 10
        },
        {
            "tempo": 643915,
            "time": 11
        },
        {
            "tempo": 647529,
            "time": 11
        },
        {
            "tempo": 651183,
            "time": 11
        },
        {
            "tempo": 654879,
            "time": 11
        },
        {
            "tempo": 658617,
            "time": 11
        },
        {
            "tempo": 660502,
            "time": 11
        },
        {
            "tempo": 664305,
            "time": 11
        },
        {
            "tempo": 668151,
            "time": 11
        },
        {
            "tempo": 672043,
            "time": 11
        },
        {
            "tempo": 675980,
            "time": 11
        },
        {
            "tempo": 677966,
            "time": 10
        },
        {
            "tempo": 681973,
            "time": 11
        },
        {
            "tempo": 686028,
            "time": 11
        },
        {
            "tempo": 690131,
            "time": 11
        },
        {
            "tempo": 694284,
            "time": 11
        },
        {
            "tempo": 698487,
            "time": 11
        },
        {
            "tempo": 700607,
            "time": 11
        },
        {
            "tempo": 704887,
            "time": 11
        },
        {
            "tempo": 709220,
            "time": 11
        },
        {
            "tempo": 713606,
            "time": 11
        },
        {
            "tempo": 718047,
            "time": 11
        },
        {
            "tempo": 722543,
            "time": 10
        },
        {
            "tempo": 724813,
            "time": 11
        },
        {
            "tempo": 729395,
            "time": 11
        },
        {
            "tempo": 734035,
            "time": 11
        },
        {
            "tempo": 738734,
            "time": 11
        },
        {
            "tempo": 743494,
            "time": 11
        },
        {
            "tempo": 748316,
            "time": 11
        },
        {
            "tempo": 750751,
            "time": 11
        },
        {
            "tempo": 755668,
            "time": 11
        },
        {
            "tempo": 760649,
            "time": 11
        },
        {
            "tempo": 765697,
            "time": 11
        },
        {
            "tempo": 770812,
            "time": 10
        },
        {
            "tempo": 773395,
            "time": 11
        },
        {
            "tempo": 770119,
            "time": 131
        },
        {
            "tempo": 767558,
            "time": 11
        },
        {
            "tempo": 765013,
            "time": 33
        },
        {
            "tempo": 762486,
            "time": 44
        },
        {
            "tempo": 759975,
            "time": 32
        },
        {
            "tempo": 757480,
            "time": 44
        },
        {
            "tempo": 755002,
            "time": 33
        },
        {
            "tempo": 752540,
            "time": 43
        },
        {
            "tempo": 750094,
            "time": 33
        },
        {
            "tempo": 747664,
            "time": 44
        },
        {
            "tempo": 745249,
            "time": 43
        },
        {
            "tempo": 742850,
            "time": 33
        },
        {
            "tempo": 740466,
            "time": 44
        },
        {
            "tempo": 738098,
            "time": 32
        },
        {
            "tempo": 735745,
            "time": 44
        },
        {
            "tempo": 733407,
            "time": 33
        },
        {
            "tempo": 731083,
            "time": 43
        },
        {
            "tempo": 728774,
            "time": 33
        },
        {
            "tempo": 726480,
            "time": 44
        },
        {
            "tempo": 721935,
            "time": 43
        },
        {
            "tempo": 719683,
            "time": 11
        },
        {
            "tempo": 717446,
            "time": 11
        },
        {
            "tempo": 715222,
            "time": 11
        },
        {
            "tempo": 713012,
            "time": 11
        },
        {
            "tempo": 710816,
            "time": 11
        },
        {
            "tempo": 708634,
            "time": 11
        },
        {
            "tempo": 706464,
            "time": 11
        },
        {
            "tempo": 700035,
            "time": 11
        },
        {
            "tempo": 849497,
            "time": 294
        },
        {
            "tempo": 700035,
            "time": 186
        },
        {
            "tempo": 697918,
            "time": 32
        },
        {
            "tempo": 695814,
            "time": 22
        },
        {
            "tempo": 693722,
            "time": 22
        },
        {
            "tempo": 691643,
            "time": 22
        },
        {
            "tempo": 689576,
            "time": 22
        },
        {
            "tempo": 687521,
            "time": 32
        },
        {
            "tempo": 685479,
            "time": 22
        },
        {
            "tempo": 683449,
            "time": 22
        },
        {
            "tempo": 681431,
            "time": 22
        },
        {
            "tempo": 679425,
            "time": 22
        },
        {
            "tempo": 677430,
            "time": 32
        },
        {
            "tempo": 675447,
            "time": 22
        },
        {
            "tempo": 675447,
            "time": 2095
        },
        {
            "tempo": 677430,
            "time": 11
        },
        {
            "tempo": 679425,
            "time": 21
        },
        {
            "tempo": 681431,
            "time": 22
        },
        {
            "tempo": 683449,
            "time": 22
        },
        {
            "tempo": 685479,
            "time": 22
        },
        {
            "tempo": 687521,
            "time": 33
        },
        {
            "tempo": 689576,
            "time": 21
        },
        {
            "tempo": 691643,
            "time": 22
        },
        {
            "tempo": 693722,
            "time": 22
        },
        {
            "tempo": 695814,
            "time": 22
        },
        {
            "tempo": 697918,
            "time": 33
        },
        {
            "tempo": 700035,
            "time": 21
        },
        {
            "tempo": 702165,
            "time": 22
        },
        {
            "tempo": 704308,
            "time": 22
        },
        {
            "tempo": 706464,
            "time": 22
        },
        {
            "tempo": 708634,
            "time": 33
        },
        {
            "tempo": 710816,
            "time": 21
        },
        {
            "tempo": 713012,
            "time": 22
        },
        {
            "tempo": 715222,
            "time": 22
        },
        {
            "tempo": 717446,
            "time": 22
        },
        {
            "tempo": 717446,
            "time": 764
        },
        {
            "tempo": 715222,
            "time": 54
        },
        {
            "tempo": 713012,
            "time": 55
        },
        {
            "tempo": 710816,
            "time": 54
        },
        {
            "tempo": 708634,
            "time": 55
        },
        {
            "tempo": 706464,
            "time": 54
        },
        {
            "tempo": 704308,
            "time": 55
        },
        {
            "tempo": 702165,
            "time": 54
        },
        {
            "tempo": 700035,
            "time": 55
        },
        {
            "tempo": 697918,
            "time": 54
        },
        {
            "tempo": 695814,
            "time": 55
        },
        {
            "tempo": 693722,
            "time": 55
        },
        {
            "tempo": 691643,
            "time": 54
        },
        {
            "tempo": 689576,
            "time": 55
        },
        {
            "tempo": 687521,
            "time": 54
        },
        {
            "tempo": 687521,
            "time": 720
        },
        {
            "tempo": 685479,
            "time": 109
        },
        {
            "tempo": 683449,
            "time": 98
        },
        {
            "tempo": 681431,
            "time": 110
        },
        {
            "tempo": 679425,
            "time": 98
        },
        {
            "tempo": 677430,
            "time": 109
        },
        {
            "tempo": 675447,
            "time": 98
        },
        {
            "tempo": 673476,
            "time": 109
        },
        {
            "tempo": 671517,
            "time": 98
        },
        {
            "tempo": 675447,
            "time": 2935
        },
        {
            "tempo": 677430,
            "time": 65
        },
        {
            "tempo": 679425,
            "time": 66
        },
        {
            "tempo": 681431,
            "time": 54
        },
        {
            "tempo": 683449,
            "time": 66
        },
        {
            "tempo": 685479,
            "time": 65
        },
        {
            "tempo": 687521,
            "time": 55
        },
        {
            "tempo": 689576,
            "time": 65
        },
        {
            "tempo": 691643,
            "time": 66
        },
        {
            "tempo": 693722,
            "time": 65
        },
        {
            "tempo": 695814,
            "time": 55
        },
        {
            "tempo": 697918,
            "time": 65
        },
        {
            "tempo": 700035,
            "time": 66
        },
        {
            "tempo": 702165,
            "time": 54
        },
        {
            "tempo": 704308,
            "time": 66
        },
        {
            "tempo": 706464,
            "time": 65
        },
        {
            "tempo": 708634,
            "time": 65
        },
        {
            "tempo": 710816,
            "time": 55
        },
        {
            "tempo": 713012,
            "time": 65
        },
        {
            "tempo": 715222,
            "time": 66
        },
        {
            "tempo": 717446,
            "time": 54
        },
        {
            "tempo": 719683,
            "time": 66
        },
        {
            "tempo": 721935,
            "time": 65
        },
        {
            "tempo": 717446,
            "time": 66
        },
        {
            "tempo": 721935,
            "time": 11
        },
        {
            "tempo": 728774,
            "time": 11
        },
        {
            "tempo": 733407,
            "time": 11
        },
        {
            "tempo": 738098,
            "time": 10
        },
        {
            "tempo": 745249,
            "time": 11
        },
        {
            "tempo": 750094,
            "time": 11
        },
        {
            "tempo": 755002,
            "time": 11
        },
        {
            "tempo": 762486,
            "time": 11
        },
        {
            "tempo": 767558,
            "time": 11
        },
        {
            "tempo": 772698,
            "time": 11
        },
        {
            "tempo": 780539,
            "time": 11
        },
        {
            "tempo": 785855,
            "time": 11
        },
        {
            "tempo": 791244,
            "time": 11
        },
        {
            "tempo": 799467,
            "time": 11
        },
        {
            "tempo": 805045,
            "time": 10
        },
        {
            "tempo": 810701,
            "time": 11
        },
        {
            "tempo": 819336,
            "time": 11
        },
        {
            "tempo": 825196,
            "time": 11
        },
        {
            "tempo": 831140,
            "time": 11
        },
        {
            "tempo": 840218,
            "time": 11
        },
        {
            "tempo": 846382,
            "time": 11
        },
        {
            "tempo": 852636,
            "time": 11
        },
        {
            "tempo": 862193,
            "time": 11
        },
        {
            "tempo": 868684,
            "time": 11
        },
        {
            "tempo": 875274,
            "time": 11
        },
        {
            "tempo": 881964,
            "time": 10
        },
        {
            "tempo": 892193,
            "time": 11
        },
        {
            "tempo": 899146,
            "time": 11
        },
        {
            "tempo": 906208,
            "time": 11
        },
        {
            "tempo": 917011,
            "time": 11
        },
        {
            "tempo": 924357,
            "time": 11
        },
        {
            "tempo": 931822,
            "time": 11
        },
        {
            "tempo": 943248,
            "time": 11
        },
        {
            "tempo": 951022,
            "time": 11
        },
        {
            "tempo": 958926,
            "time": 11
        },
        {
            "tempo": 971031,
            "time": 11
        },
        {
            "tempo": 979272,
            "time": 10
        },
        {
            "tempo": 987654,
            "time": 11
        },
        {
            "tempo": 1000500,
            "time": 11
        },
        {
            "tempo": 1009251,
            "time": 11
        },
        {
            "tempo": 1018157,
            "time": 11
        },
        {
            "tempo": 1031814,
            "time": 11
        },
        {
            "tempo": 1041124,
            "time": 11
        },
        {
            "tempo": 1050604,
            "time": 11
        },
        {
            "tempo": 1065152,
            "time": 11
        },
        {
            "tempo": 1075076,
            "time": 11
        },
        {
            "tempo": 1085187,
            "time": 11
        },
        {
            "tempo": 1100715,
            "time": 10
        },
        {
            "tempo": 1111317,
            "time": 11
        },
        {
            "tempo": 1122125,
            "time": 11
        },
        {
            "tempo": 1138736,
            "time": 11
        },
        {
            "tempo": 1150086,
            "time": 11
        },
        {
            "tempo": 1161665,
            "time": 11
        },
        {
            "tempo": 1179477,
            "time": 11
        },
        {
            "tempo": 1191658,
            "time": 11
        },
        {
            "tempo": 1204094,
            "time": 11
        },
        {
            "tempo": 1223242,
            "time": 11
        },
        {
            "tempo": 1236349,
            "time": 11
        },
        {
            "tempo": 1249740,
            "time": 10
        },
        {
            "tempo": 1270379,
            "time": 11
        },
        {
            "tempo": 1284522,
            "time": 11
        },
        {
            "tempo": 1298982,
            "time": 11
        },
        {
            "tempo": 1321295,
            "time": 11
        },
        {
            "tempo": 1336601,
            "time": 11
        },
        {
            "tempo": 1352265,
            "time": 11
        },
        {
            "tempo": 1376462,
            "time": 11
        },
        {
            "tempo": 1393081,
            "time": 11
        },
        {
            "tempo": 1410106,
            "time": 11
        },
        {
            "tempo": 1427552,
            "time": 11
        },
        {
            "tempo": 3804692,
            "time": 316
        },
        {
            "tempo": 752540,
            "time": 174
        },
        {
            "tempo": 750094,
            "time": 22
        },
        {
            "tempo": 747664,
            "time": 22
        },
        {
            "tempo": 745249,
            "time": 11
        },
        {
            "tempo": 742850,
            "time": 22
        },
        {
            "tempo": 740466,
            "time": 22
        },
        {
            "tempo": 738098,
            "time": 11
        },
        {
            "tempo": 735745,
            "time": 21
        },
        {
            "tempo": 733407,
            "time": 22
        },
        {
            "tempo": 731083,
            "time": 11
        },
        {
            "tempo": 728774,
            "time": 22
        },
        {
            "tempo": 726480,
            "time": 22
        },
        {
            "tempo": 724200,
            "time": 11
        },
        {
            "tempo": 721935,
            "time": 21
        },
        {
            "tempo": 719683,
            "time": 22
        },
        {
            "tempo": 717446,
            "time": 11
        },
        {
            "tempo": 715222,
            "time": 22
        },
        {
            "tempo": 713012,
            "time": 11
        },
        {
            "tempo": 710816,
            "time": 22
        },
        {
            "tempo": 708634,
            "time": 22
        },
        {
            "tempo": 706464,
            "time": 10
        },
        {
            "tempo": 704308,
            "time": 22
        },
        {
            "tempo": 702165,
            "time": 22
        },
        {
            "tempo": 700035,
            "time": 11
        },
        {
            "tempo": 697918,
            "time": 22
        },
        {
            "tempo": 695814,
            "time": 22
        },
        {
            "tempo": 693722,
            "time": 11
        },
        {
            "tempo": 691643,
            "time": 21
        },
        {
            "tempo": 689576,
            "time": 22
        },
        {
            "tempo": 687521,
            "time": 11
        },
        {
            "tempo": 685479,
            "time": 22
        },
        {
            "tempo": 683449,
            "time": 22
        },
        {
            "tempo": 681431,
            "time": 11
        },
        {
            "tempo": 679425,
            "time": 21
        },
        {
            "tempo": 677430,
            "time": 22
        },
        {
            "tempo": 675447,
            "time": 11
        },
        {
            "tempo": 673476,
            "time": 22
        },
        {
            "tempo": 671517,
            "time": 11
        },
        {
            "tempo": 673476,
            "time": 294
        },
        {
            "tempo": 675447,
            "time": 295
        },
        {
            "tempo": 677430,
            "time": 33
        },
        {
            "tempo": 679425,
            "time": 11
        },
        {
            "tempo": 687521,
            "time": 11
        },
        {
            "tempo": 695814,
            "time": 10
        },
        {
            "tempo": 702165,
            "time": 11
        },
        {
            "tempo": 710816,
            "time": 11
        },
        {
            "tempo": 717446,
            "time": 11
        },
        {
            "tempo": 726480,
            "time": 11
        },
        {
            "tempo": 733407,
            "time": 11
        },
        {
            "tempo": 742850,
            "time": 11
        },
        {
            "tempo": 750094,
            "time": 11
        },
        {
            "tempo": 759975,
            "time": 11
        },
        {
            "tempo": 770119,
            "time": 11
        },
        {
            "tempo": 777907,
            "time": 11
        },
        {
            "tempo": 788540,
            "time": 10
        },
        {
            "tempo": 796707,
            "time": 11
        },
        {
            "tempo": 807863,
            "time": 11
        },
        {
            "tempo": 816438,
            "time": 11
        },
        {
            "tempo": 828157,
            "time": 11
        },
        {
            "tempo": 837170,
            "time": 11
        },
        {
            "tempo": 849497,
            "time": 11
        },
        {
            "tempo": 858984,
            "time": 11
        },
        {
            "tempo": 871966,
            "time": 11
        },
        {
            "tempo": 885347,
            "time": 11
        },
        {
            "tempo": 895656,
            "time": 11
        },
        {
            "tempo": 909780,
            "time": 10
        },
        {
            "tempo": 920669,
            "time": 11
        },
        {
            "tempo": 935600,
            "time": 11
        },
        {
            "tempo": 947119,
            "time": 11
        },
        {
            "tempo": 962927,
            "time": 11
        },
        {
            "tempo": 975134,
            "time": 11
        },
        {
            "tempo": 1896933,
            "time": 164
        },
        {
            "tempo": 1912655,
            "time": 11
        },
        {
            "tempo": 1928640,
            "time": 65
        },
        {
            "tempo": 1090909,
            "time": 76
        }
    ]
}