{
	"ticks_per_beat": 480,
	"notes": {
		"0": [
			{
				"note": 70,
				"velocity": 59,
				"time": 0.2619049583333333,
				"elapsed": 3.1191370487213135
			},
			{
				"note": 71,
				"velocity": 100,
				"time": 0.023809541666666663,
				"elapsed": 3.14298152923584
			},
			{
				"note": 70,
				"velocity": 0,
				"time": 0.009523816666666666,
				"elapsed": 3.152494192123413
			},
			{
				"note": 71,
				"velocity": 0,
				"time": 0.5619051833333333,
				"elapsed": 3.714423656463623
			},
			{
				"note": 73,
				"velocity": 89,
				"time": 0,
				"elapsed": 3.7146284580230713
			},
			{
				"note": 73,
				"velocity": 0,
				"time": 0,
				"elapsed": 4.000185251235962
			},
			{
				"note": 74,
				"velocity": 102,
				"time": 0,
				"elapsed": 4.000259160995483
			},
			{
				"note": 74,
				"velocity": 0,
				"time": 0,
				"elapsed": 4.290514945983887
			},
			{
				"note": 81,
				"velocity": 85,
				"time": 0,
				"elapsed": 4.2906653881073
			},
			{
				"note": 81,
				"velocity": 0,
				"time": 0.011244375000000001,
				"elapsed": 4.474773406982422
			},
			{
				"note": 67,
				"velocity": 58,
				"time": 0,
				"elapsed": 4.488631963729858
			},
			{
				"note": 71,
				"velocity": 99,
				"time": 0.005047958333333333,
				"elapsed": 4.563926935195923
			},
			{
				"note": 74,
				"velocity": 97,
				"time": 0.0011363645833333334,
				"elapsed": 4.602807998657227
			},
			{
				"note": 78,
				"velocity": 103,
				"time": 0.013636375000000001,
				"elapsed": 4.616472244262695
			},
			{
				"note": 78,
				"velocity": 0,
				"time": 0.18181833333333336,
				"elapsed": 5.0437912940979
			},
			{
				"note": 78,
				"velocity": 111,
				"time": 0.09090916666666668,
				"elapsed": 5.134676933288574
			},
			{
				"note": 78,
				"velocity": 0,
				"time": 0.2727275,
				"elapsed": 5.407400608062744
			},
			{
				"note": 76,
				"velocity": 102,
				"time": 0,
				"elapsed": 5.407528877258301
			},
			{
				"note": 76,
				"velocity": 0,
				"time": 0.13636375,
				"elapsed": 5.54377293586731
			},
			{
				"note": 78,
				"velocity": 109,
				"time": 0,
				"elapsed": 5.543859958648682
			},
			{
				"note": 71,
				"velocity": 0,
				"time": 0.0011574083333333331,
				"elapsed": 6.766864061355591
			},
			{
				"note": 74,
				"velocity": 0,
				"time": 0.0011574083333333331,
				"elapsed": 6.785405397415161
			},
			{
				"note": 67,
				"velocity": 0,
				"time": 0.005787041666666666,
				"elapsed": 6.8040032386779785
			},
			{
				"note": 78,
				"velocity": 0,
				"time": 0.27777799999999997,
				"elapsed": 7.327073812484741
			},
			{
				"note": 76,
				"velocity": 111,
				"time": 0.013888899999999997,
				"elapsed": 7.340975284576416
			},
			{
				"note": 78,
				"velocity": 102,
				"time": 0.26388909999999993,
				"elapsed": 7.604851007461548
			},
			{
				"note": 76,
				"velocity": 0,
				"time": 0.0046296333333333325,
				"elapsed": 7.6095404624938965
			},
			{
				"note": 78,
				"velocity": 0,
				"time": 0.27314836666666664,
				"elapsed": 7.882600784301758
			},
			{
				"note": 81,
				"velocity": 100,
				"time": 0,
				"elapsed": 7.882695913314819
			},
			{
				"note": 81,
				"velocity": 0,
				"time": 0.27777799999999997,
				"elapsed": 8.16043496131897
			},
			{
				"note": 74,
				"velocity": 107,
				"time": 0,
				"elapsed": 8.16094708442688
			},
			{
				"note": 74,
				"velocity": 0,
				"time": 0.27777799999999997,
				"elapsed": 8.438199520111084
			},
			{
				"note": 73,
				"velocity": 98,
				"time": 0,
				"elapsed": 8.438470125198364
			},
			{
				"note": 73,
				"velocity": 0,
				"time": 0.13888899999999998,
				"elapsed": 8.715937376022339
			},
			{
				"note": 74,
				"velocity": 105,
				"time": 0,
				"elapsed": 8.71604037284851
			},
			{
				"note": 74,
				"velocity": 0,
				"time": 0.042824108333333326,
				"elapsed": 8.888391733169556
			},
			{
				"note": 62,
				"velocity": 66,
				"time": 0.042824108333333326,
				"elapsed": 8.931233644485474
			},
			{
				"note": 66,
				"velocity": 97,
				"time": 0.005787041666666666,
				"elapsed": 8.977593183517456
			},
			{
				"note": 73,
				"velocity": 108,
				"time": 0,
				"elapsed": 8.989318132400513
			},
			{
				"note": 66,
				"velocity": 0,
				"time": 0.2511365729166667,
				"elapsed": 9.517603635787964
			},
			{
				"note": 62,
				"velocity": 0,
				"time": 0.010227281250000001,
				"elapsed": 9.528006553649902
			},
			{
				"note": 73,
				"velocity": 0,
				"time": 0.0011363645833333334,
				"elapsed": 9.528955698013306
			},
			{
				"note": 73,
				"velocity": 107,
				"time": 0.010227281250000001,
				"elapsed": 9.539325714111328
			},
			{
				"note": 73,
				"velocity": 0,
				"time": 0.2727275,
				"elapsed": 9.81192398071289
			},
			{
				"note": 71,
				"velocity": 107,
				"time": 0,
				"elapsed": 9.812010049819946
			},
			{
				"note": 71,
				"velocity": 0,
				"time": 0.018181833333333335,
				"elapsed": 10.102849960327148
			},
			{
				"note": 66,
				"velocity": 109,
				"time": 0,
				"elapsed": 10.103073120117188
			},
			{
				"note": 71,
				"velocity": 105,
				"time": 0.2727275,
				"elapsed": 11.993836641311646
			},
			{
				"note": 66,
				"velocity": 0,
				"time": 0.018181833333333335,
				"elapsed": 12.011935710906982
			},
			{
				"note": 71,
				"velocity": 0,
				"time": 0,
				"elapsed": 12.54498815536499
			},
			{
				"note": 73,
				"velocity": 96,
				"time": 0,
				"elapsed": 12.545051336288452
			},
			{
				"note": 73,
				"velocity": 0,
				"time": 0,
				"elapsed": 12.834500789642334
			},
			{
				"note": 74,
				"velocity": 102,
				"time": 0,
				"elapsed": 12.834648132324219
			},
			{
				"note": 74,
				"velocity": 0,
				"time": 0.15408325,
				"elapsed": 13.140717267990112
			},
			{
				"note": 81,
				"velocity": 100,
				"time": 0,
				"elapsed": 13.140811204910278
			},
			{
				"note": 81,
				"velocity": 0,
				"time": 0.012840270833333334,
				"elapsed": 13.386047601699829
			},
			{
				"note": 67,
				"velocity": 78,
				"time": 0.008988189583333334,
				"elapsed": 13.418152809143066
			},
			{
				"note": 71,
				"velocity": 108,
				"time": 0.0011733791666666666,
				"elapsed": 13.472081661224365
			},
			{
				"note": 78,
				"velocity": 95,
				"time": 0.005856999999999999,
				"elapsed": 13.479125261306763
			},
			{
				"note": 78,
				"velocity": 0,
				"time": 0.07291672499999999,
				"elapsed": 13.979376316070557
			},
			{
				"note": 78,
				"velocity": 109,
				"time": 0.028935208333333327,
				"elapsed": 14.008301258087158
			},
			{
				"note": 78,
				"velocity": 0,
				"time": 0.27777799999999997,
				"elapsed": 14.28609299659729
			},
			{
				"note": 76,
				"velocity": 111,
				"time": 0,
				"elapsed": 14.286295175552368
			},
			{
				"note": 76,
				"velocity": 0,
				"time": 0.13888899999999998,
				"elapsed": 14.42495083808899
			},
			{
				"note": 78,
				"velocity": 100,
				"time": 0,
				"elapsed": 14.425073385238647
			},
			{
				"note": 71,
				"velocity": 0,
				"time": 0.21064831666666664,
				"elapsed": 16.16348171234131
			},
			{
				"note": 67,
				"velocity": 0,
				"time": 0.0023148166666666662,
				"elapsed": 16.16580367088318
			},
			{
				"note": 75,
				"velocity": 98,
				"time": 0.042824108333333326,
				"elapsed": 16.208645820617676
			},
			{
				"note": 78,
				"velocity": 0,
				"time": 0.02199075833333333,
				"elapsed": 16.23054599761963
			},
			{
				"note": 76,
				"velocity": 108,
				"time": 0.01967594166666666,
				"elapsed": 16.250317335128784
			},
			{
				"note": 75,
				"velocity": 0,
				"time": 0.04050929166666666,
				"elapsed": 16.2907235622406
			},
			{
				"note": 78,
				"velocity": 107,
				"time": 0.21759276666666663,
				"elapsed": 16.50842308998108
			},
			{
				"note": 76,
				"velocity": 0,
				"time": 0.01967594166666666,
				"elapsed": 16.52803611755371
			},
			{
				"note": 78,
				"velocity": 0,
				"time": 0.2581020583333333,
				"elapsed": 16.78610348701477
			},
			{
				"note": 81,
				"velocity": 75,
				"time": 0,
				"elapsed": 16.78636145591736
			},
			{
				"note": 81,
				"velocity": 0,
				"time": 0.13888899999999998,
				"elapsed": 17.06396484375
			},
			{
				"note": 78,
				"velocity": 98,
				"time": 0,
				"elapsed": 17.064111948013306
			},
			{
				"note": 78,
				"velocity": 0,
				"time": 0.27777799999999997,
				"elapsed": 17.341761350631714
			},
			{
				"note": 81,
				"velocity": 107,
				"time": 0,
				"elapsed": 17.342010736465454
			},
			{
				"note": 81,
				"velocity": 0,
				"time": 0.13888899999999998,
				"elapsed": 17.61940336227417
			},
			{
				"note": 86,
				"velocity": 109,
				"time": 0,
				"elapsed": 17.619563341140747
			},
			{
				"note": 78,
				"velocity": 101,
				"time": 0.03703706666666666,
				"elapsed": 17.89488911628723
			},
			{
				"note": 86,
				"velocity": 0,
				"time": 0.0023148166666666662,
				"elapsed": 17.897180557250977
			},
			{
				"note": 85,
				"velocity": 111,
				"time": 0.0046296333333333325,
				"elapsed": 17.90182590484619
			},
			{
				"note": 78,
				"velocity": 0,
				"time": 0.034722249999999996,
				"elapsed": 18.209707498550415
			},
			{
				"note": 78,
				"velocity": 82,
				"time": 0.10300934166666664,
				"elapsed": 18.31268334388733
			},
			{
				"note": 83,
				"velocity": 111,
				"time": 0.0023148166666666662,
				"elapsed": 18.315014123916626
			},
			{
				"note": 85,
				"velocity": 0,
				"time": 0.0034722249999999994,
				"elapsed": 18.31847858428955
			},
			{
				"note": 78,
				"velocity": 0,
				"time": 0.25347242499999995,
				"elapsed": 18.706233024597168
			},
			{
				"note": 74,
				"velocity": 77,
				"time": 0.01967594166666666,
				"elapsed": 18.725913286209106
			},
			{
				"note": 83,
				"velocity": 0,
				"time": 0.0011574083333333331,
				"elapsed": 18.731666088104248
			},
			{
				"note": 78,
				"velocity": 107,
				"time": 0.0011574083333333331,
				"elapsed": 18.732820749282837
			},
			{
				"note": 76,
				"velocity": 107,
				"time": 0,
				"elapsed": 19.84260368347168
			},
			{
				"note": 78,
				"velocity": 0,
				"time": 0.0023270958333333333,
				"elapsed": 19.84475302696228
			},
			{
				"note": 74,
				"velocity": 0,
				"time": 0.016289670833333332,
				"elapsed": 19.86111354827881
			},
			{
				"note": 78,
				"velocity": 100,
				"time": 0.02797205,
				"elapsed": 20.11260676383972
			},
			{
				"note": 74,
				"velocity": 91,
				"time": 0.00349650625,
				"elapsed": 20.116164684295654
			},
			{
				"note": 76,
				"velocity": 0,
				"time": 0.005827510416666666,
				"elapsed": 20.121971130371094
			},
			{
				"note": 74,
				"velocity": 0,
				"time": 0.006290260416666666,
				"elapsed": 20.60250973701477
			},
			{
				"note": 78,
				"velocity": 0,
				"time": 0.008854489583333333,
				"elapsed": 20.63027811050415
			},
			{
				"note": 74,
				"velocity": 91,
				"time": 0.00128363125,
				"elapsed": 20.719424962997437
			},
			{
				"note": 81,
				"velocity": 106,
				"time": 0.00641815625,
				"elapsed": 20.725876331329346
			},
			{
				"note": 74,
				"velocity": 0,
				"time": 0.17135636875,
				"elapsed": 21.188291788101196
			},
			{
				"note": 81,
				"velocity": 0,
				"time": 0.036075025,
				"elapsed": 21.224302768707275
			},
			{
				"note": 78,
				"velocity": 106,
				"time": 0.0025767875,
				"elapsed": 21.328741788864136
			},
			{
				"note": 83,
				"velocity": 115,
				"time": 0.0038651812499999995,
				"elapsed": 21.33258080482483
			},
			{
				"note": 78,
				"velocity": 0,
				"time": 0.007736104166666666,
				"elapsed": 21.82321810722351
			},
			{
				"note": 83,
				"velocity": 0,
				"time": 0.0094732875,
				"elapsed": 21.874613761901855
			},
			{
				"note": 78,
				"velocity": 97,
				"time": 0.014994,
				"elapsed": 22.022341012954712
			},
			{
				"note": 81,
				"velocity": 100,
				"time": 0,
				"elapsed": 22.027369737625122
			},
			{
				"note": 85,
				"velocity": 111,
				"time": 0.0016780770833333333,
				"elapsed": 22.029008865356445
			},
			{
				"note": 78,
				"velocity": 0,
				"time": 0.29243205625,
				"elapsed": 22.82301425933838
			},
			{
				"note": 81,
				"velocity": 0,
				"time": 0.00588789375,
				"elapsed": 22.8289532661438
			},
			{
				"note": 67,
				"velocity": 62,
				"time": 0.013738418750000002,
				"elapsed": 22.842648029327393
			},
			{
				"note": 85,
				"velocity": 0,
				"time": 0.00981315625,
				"elapsed": 22.85246968269348
			},
			{
				"note": 71,
				"velocity": 106,
				"time": 0.039252625,
				"elapsed": 22.891937494277954
			},
			{
				"note": 78,
				"velocity": 102,
				"time": 0.01766368125,
				"elapsed": 22.909373998641968
			},
			{
				"note": 78,
				"velocity": 0,
				"time": 0.006040395833333333,
				"elapsed": 23.445229530334473
			},
			{
				"note": 78,
				"velocity": 111,
				"time": 0,
				"elapsed": 23.52122735977173
			},
			{
				"note": 78,
				"velocity": 0,
				"time": 0.05224660833333333,
				"elapsed": 23.80714750289917
			},
			{
				"note": 76,
				"velocity": 100,
				"time": 0,
				"elapsed": 23.807291269302368
			},
			{
				"note": 76,
				"velocity": 0,
				"time": 0.0283527,
				"elapsed": 23.94923973083496
			},
			{
				"note": 78,
				"velocity": 111,
				"time": 0,
				"elapsed": 23.949520349502563
			},
			{
				"note": 71,
				"velocity": 0,
				"time": 0.23617674999999996,
				"elapsed": 25.720033407211304
			},
			{
				"note": 67,
				"velocity": 0,
				"time": 0.013892749999999999,
				"elapsed": 25.733970880508423
			},
			{
				"note": 78,
				"velocity": 0,
				"time": 0.027785499999999998,
				"elapsed": 25.761738538742065
			},
			{
				"note": 76,
				"velocity": 83,
				"time": 0,
				"elapsed": 25.762001037597656
			},
			{
				"note": 78,
				"velocity": 89,
				"time": 0.27785499999999996,
				"elapsed": 26.039539337158203
			},
			{
				"note": 76,
				"velocity": 0,
				"time": 0.13892749999999998,
				"elapsed": 26.178575038909912
			},
			{
				"note": 78,
				"velocity": 0,
				"time": 0.13892749999999998,
				"elapsed": 26.31740164756775
			},
			{
				"note": 81,
				"velocity": 107,
				"time": 0,
				"elapsed": 26.317500114440918
			},
			{
				"note": 74,
				"velocity": 102,
				"time": 0.27785499999999996,
				"elapsed": 26.59532380104065
			},
			{
				"note": 81,
				"velocity": 0,
				"time": 0.13892749999999998,
				"elapsed": 26.734291076660156
			},
			{
				"note": 74,
				"velocity": 0,
				"time": 0.13892749999999998,
				"elapsed": 26.873143672943115
			},
			{
				"note": 73,
				"velocity": 100,
				"time": 0,
				"elapsed": 26.87323236465454
			},
			{
				"note": 73,
				"velocity": 0,
				"time": 0.13892749999999998,
				"elapsed": 27.151013135910034
			},
			{
				"note": 74,
				"velocity": 100,
				"time": 0,
				"elapsed": 27.151188373565674
			},
			{
				"note": 74,
				"velocity": 0,
				"time": 0.008104104166666666,
				"elapsed": 27.372141122817993
			},
			{
				"note": 66,
				"velocity": 98,
				"time": 0.011577291666666665,
				"elapsed": 27.441696643829346
			},
			{
				"note": 62,
				"velocity": 88,
				"time": 0,
				"elapsed": 27.446390390396118
			},
			{
				"note": 73,
				"velocity": 95,
				"time": 0,
				"elapsed": 27.446645975112915
			},
			{
				"note": 73,
				"velocity": 0,
				"time": 0.2315458333333333,
				"elapsed": 27.93828511238098
			},
			{
				"note": 73,
				"velocity": 100,
				"time": 0,
				"elapsed": 27.996223211288452
			},
			{
				"note": 71,
				"velocity": 100,
				"time": 0.2600170854166667,
				"elapsed": 28.256123781204224
			},
			{
				"note": 66,
				"velocity": 0,
				"time": 0.01078411875,
				"elapsed": 28.28247857093811
			},
			{
				"note": 73,
				"velocity": 0,
				"time": 0.027559414583333334,
				"elapsed": 28.310150146484375
			},
			{
				"note": 66,
				"velocity": 108,
				"time": 0.23365590625,
				"elapsed": 28.54375958442688
			},
			{
				"note": 71,
				"velocity": 0,
				"time": 0.011578354166666666,
				"elapsed": 28.582887887954712
			},
			{
				"note": 66,
				"velocity": 0,
				"time": 0.1898850083333333,
				"elapsed": 30.416868925094604
			},
			{
				"note": 62,
				"velocity": 0,
				"time": 0.002315670833333333,
				"elapsed": 30.4191677570343
			},
			{
				"note": 71,
				"velocity": 105,
				"time": 0.08567982083333332,
				"elapsed": 30.504873037338257
			},
			{
				"note": 73,
				"velocity": 87,
				"time": 0,
				"elapsed": 31.07264733314514
			},
			{
				"note": 71,
				"velocity": 0,
				"time": 0,
				"elapsed": 31.22730255126953
			},
			{
				"note": 74,
				"velocity": 94,
				"time": 0,
				"elapsed": 31.38936161994934
			},
			{
				"note": 73,
				"velocity": 0,
				"time": 0.15560743333333332,
				"elapsed": 31.555983781814575
			},
			{
				"note": 74,
				"velocity": 0,
				"time": 0.00416805625,
				"elapsed": 31.722604990005493
			},
			{
				"note": 81,
				"velocity": 91,
				"time": 0,
				"elapsed": 31.72285270690918
			},
			{
				"note": 81,
				"velocity": 0,
				"time": 0.07919306875,
				"elapsed": 31.96852469444275
			},
			{
				"note": 67,
				"velocity": 69,
				"time": 0.0250083375,
				"elapsed": 31.99356245994568
			},
			{
				"note": 71,
				"velocity": 94,
				"time": 0.00416805625,
				"elapsed": 32.06023049354553
			},
			{
				"note": 78,
				"velocity": 107,
				"time": 0.0012122979166666666,
				"elapsed": 32.0829553604126
			},
			{
				"note": 78,
				"velocity": 0,
				"time": 0.023467583333333333,
				"elapsed": 32.59953689575195
			},
			{
				"note": 78,
				"velocity": 108,
				"time": 0.0128854,
				"elapsed": 32.64995527267456
			},
			{
				"note": 76,
				"velocity": 100,
				"time": 0.02792515,
				"elapsed": 32.93603444099426
			},
			{
				"note": 78,
				"velocity": 0,
				"time": 0.019780314583333333,
				"elapsed": 32.95578408241272
			},
			{
				"note": 78,
				"velocity": 102,
				"time": 0.010436962499999999,
				"elapsed": 33.05812692642212
			},
			{
				"note": 76,
				"velocity": 0,
				"time": 0.0057983125,
				"elapsed": 33.06383037567139
			},
			{
				"note": 71,
				"velocity": 0,
				"time": 0.1863943958333333,
				"elapsed": 34.762366771698
			},
			{
				"note": 67,
				"velocity": 0,
				"time": 0.01620820833333333,
				"elapsed": 34.77860140800476
			},
			{
				"note": 78,
				"velocity": 0,
				"time": 0.005788645833333332,
				"elapsed": 34.78431940078735
			},
			{
				"note": 76,
				"velocity": 83,
				"time": 0.06946374999999999,
				"elapsed": 34.85385537147522
			},
			{
				"note": 76,
				"velocity": 0,
				"time": 0.27785499999999996,
				"elapsed": 35.13160467147827
			},
			{
				"note": 78,
				"velocity": 94,
				"time": 0,
				"elapsed": 35.13169741630554
			},
			{
				"note": 78,
				"velocity": 0,
				"time": 0.27785499999999996,
				"elapsed": 35.40959715843201
			},
			{
				"note": 81,
				"velocity": 102,
				"time": 0.004630916666666666,
				"elapsed": 35.41413879394531
			},
			{
				"note": 78,
				"velocity": 91,
				"time": 0.13892749999999998,
				"elapsed": 35.687337160110474
			},
			{
				"note": 81,
				"velocity": 0,
				"time": 0.004630916666666666,
				"elapsed": 35.69198751449585
			},
			{
				"note": 81,
				"velocity": 98,
				"time": 0.2732240833333333,
				"elapsed": 35.96521234512329
			},
			{
				"note": 78,
				"velocity": 0,
				"time": 0.13892749999999998,
				"elapsed": 36.10411095619202
			},
			{
				"note": 86,
				"velocity": 96,
				"time": 0.13892749999999998,
				"elapsed": 36.24302887916565
			},
			{
				"note": 81,
				"velocity": 0,
				"time": 0.13892749999999998,
				"elapsed": 36.38205170631409
			},
			{
				"note": 86,
				"velocity": 0,
				"time": 0.0034731874999999997,
				"elapsed": 36.520947217941284
			},
			{
				"note": 78,
				"velocity": 92,
				"time": 0,
				"elapsed": 36.52122950553894
			},
			{
				"note": 81,
				"velocity": 89,
				"time": 0,
				"elapsed": 36.521331548690796
			},
			{
				"note": 85,
				"velocity": 97,
				"time": 0,
				"elapsed": 36.521416902542114
			},
			{
				"note": 85,
				"velocity": 0,
				"time": 0.004630916666666666,
				"elapsed": 38.60482430458069
			},
			{
				"note": 81,
				"velocity": 0,
				"time": 0,
				"elapsed": 38.60495471954346
			},
			{
				"note": 78,
				"velocity": 0,
				"time": 0,
				"elapsed": 38.60498380661011
			},
			{
				"note": 78,
				"velocity": 90,
				"time": 0,
				"elapsed": 38.74384570121765
			},
			{
				"note": 74,
				"velocity": 74,
				"time": 0,
				"elapsed": 38.743940591812134
			},
			{
				"note": 83,
				"velocity": 104,
				"time": 0,
				"elapsed": 38.74396753311157
			},
			{
				"note": 83,
				"velocity": 0,
				"time": 0.09483166666666666,
				"elapsed": 40.29121446609497
			},
			{
				"note": 74,
				"velocity": 0,
				"time": 0,
				"elapsed": 40.29129719734192
			},
			{
				"note": 78,
				"velocity": 0,
				"time": 0,
				"elapsed": 40.29131603240967
			},
			{
				"note": 78,
				"velocity": 98,
				"time": 0,
				"elapsed": 40.43381857872009
			},
			{
				"note": 83,
				"velocity": 95,
				"time": 0,
				"elapsed": 40.433940410614014
			},
			{
				"note": 74,
				"velocity": 80,
				"time": 0,
				"elapsed": 40.4339861869812
			},
			{
				"note": 74,
				"velocity": 0,
				"time": 0.0095648,
				"elapsed": 40.86297369003296
			},
			{
				"note": 83,
				"velocity": 0,
				"time": 0,
				"elapsed": 40.86308741569519
			},
			{
				"note": 78,
				"velocity": 0,
				"time": 0,
				"elapsed": 40.863116979599
			},
			{
				"note": 81,
				"velocity": 93,
				"time": 0.022755587499999997,
				"elapsed": 41.00667905807495
			},
			{
				"note": 76,
				"velocity": 89,
				"time": 0,
				"elapsed": 41.00686430931091
			},
			{
				"note": 85,
				"velocity": 89,
				"time": 0,
				"elapsed": 41.006893157958984
			},
			{
				"note": 81,
				"velocity": 0,
				"time": 0.27777799999999997,
				"elapsed": 42.95155954360962
			},
			{
				"note": 83,
				"velocity": 102,
				"time": 0,
				"elapsed": 42.95175075531006
			},
			{
				"note": 83,
				"velocity": 0,
				"time": 0.005787041666666666,
				"elapsed": 43.09034180641174
			},
			{
				"note": 85,
				"velocity": 0,
				"time": 0,
				"elapsed": 43.09049034118652
			},
			{
				"note": 76,
				"velocity": 0,
				"time": 0,
				"elapsed": 43.090521812438965
			},
			{
				"note": 83,
				"velocity": 93,
				"time": 0.01851853333333333,
				"elapsed": 43.229235887527466
			},
			{
				"note": 75,
				"velocity": 77,
				"time": 0,
				"elapsed": 43.22953534126282
			},
			{
				"note": 78,
				"velocity": 97,
				"time": 0,
				"elapsed": 43.22962784767151
			},
			{
				"note": 78,
				"velocity": 0,
				"time": 0.4480140375,
				"elapsed": 45.66415309906006
			},
			{
				"note": 83,
				"velocity": 0,
				"time": 0,
				"elapsed": 45.664413928985596
			},
			{
				"note": 75,
				"velocity": 0,
				"time": 0.0282531375,
				"elapsed": 45.69237923622131
			},
			{
				"note": 79,
				"velocity": 79,
				"time": 0.11299834374999998,
				"elapsed": 47.02728891372681
			},
			{
				"note": 80,
				"velocity": 97,
				"time": 0.008311960416666667,
				"elapsed": 47.065330505371094
			},
			{
				"note": 79,
				"velocity": 0,
				"time": 0.020186189583333333,
				"elapsed": 47.085487842559814
			},
			{
				"note": 80,
				"velocity": 0,
				"time": 0.092460875,
				"elapsed": 47.29197812080383
			},
			{
				"note": 80,
				"velocity": 95,
				"time": 0.00710025,
				"elapsed": 47.3630256652832
			},
			{
				"note": 80,
				"velocity": 0,
				"time": 0.028304549999999998,
				"elapsed": 47.70580840110779
			},
			{
				"note": 79,
				"velocity": 49,
				"time": 0.012950918749999998,
				"elapsed": 47.78001022338867
			},
			{
				"note": 80,
				"velocity": 102,
				"time": 0.025901837499999997,
				"elapsed": 47.805912256240845
			},
			{
				"note": 79,
				"velocity": 0,
				"time": 0.02943390625,
				"elapsed": 47.83552956581116
			},
			{
				"note": 80,
				"velocity": 0,
				"time": 0.06570923333333333,
				"elapsed": 48.11504006385803
			},
			{
				"note": 80,
				"velocity": 100,
				"time": 0.03285461666666666,
				"elapsed": 48.18079352378845
			},
			{
				"note": 80,
				"velocity": 0,
				"time": 0.011694270833333333,
				"elapsed": 48.40322971343994
			},
			{
				"note": 79,
				"velocity": 42,
				"time": 0.004677708333333333,
				"elapsed": 48.42894721031189
			},
			{
				"note": 80,
				"velocity": 108,
				"time": 0.0011694270833333333,
				"elapsed": 48.46285891532898
			},
			{
				"note": 79,
				"velocity": 0,
				"time": 0.015176985416666665,
				"elapsed": 48.48743534088135
			},
			{
				"note": 78,
				"velocity": 89,
				"time": 0.13009943333333335,
				"elapsed": 49.01147198677063
			},
			{
				"note": 80,
				"velocity": 0,
				"time": 0.0046464083333333335,
				"elapsed": 49.016074895858765
			},
			{
				"note": 78,
				"velocity": 0,
				"time": 0.034722249999999996,
				"elapsed": 49.254839181900024
			},
			{
				"note": 78,
				"velocity": 102,
				"time": 0.0034722249999999994,
				"elapsed": 49.30224370956421
			},
			{
				"note": 80,
				"velocity": 99,
				"time": 0.2314816666666666,
				"elapsed": 49.854430198669434
			},
			{
				"note": 78,
				"velocity": 0,
				"time": 0.01851853333333333,
				"elapsed": 49.87285780906677
			},
			{
				"note": 82,
				"velocity": 84,
				"time": 0.1851853333333333,
				"elapsed": 50.40994048118591
			},
			{
				"note": 80,
				"velocity": 0,
				"time": 0.0046296333333333325,
				"elapsed": 50.451552867889404
			},
			{
				"note": 82,
				"velocity": 0,
				"time": 0.013888899999999997,
				"elapsed": 50.59854054450989
			},
			{
				"note": 71,
				"velocity": 64,
				"time": 0.008101858333333331,
				"elapsed": 50.64136457443237
			},
			{
				"note": 75,
				"velocity": 89,
				"time": 0.01851853333333333,
				"elapsed": 50.667991161346436
			},
			{
				"note": 80,
				"velocity": 95,
				"time": 0.017361124999999998,
				"elapsed": 50.68538236618042
			},
			{
				"note": 83,
				"velocity": 89,
				"time": 0.03819447499999999,
				"elapsed": 50.72592639923096
			},
			{
				"note": 83,
				"velocity": 0,
				"time": 0.2592594666666666,
				"elapsed": 51.22470760345459
			},
			{
				"note": 82,
				"velocity": 99,
				"time": 0.01851853333333333,
				"elapsed": 51.2432746887207
			},
			{
				"note": 80,
				"velocity": 0,
				"time": 0.20370386666666662,
				"elapsed": 51.44694447517395
			},
			{
				"note": 80,
				"velocity": 88,
				"time": 0.07407413333333332,
				"elapsed": 51.5210120677948
			},
			{
				"note": 82,
				"velocity": 0,
				"time": 0.04629633333333333,
				"elapsed": 51.567296743392944
			},
			{
				"note": 75,
				"velocity": 0,
				"time": 0.2129631333333333,
				"elapsed": 51.78025531768799
			},
			{
				"note": 71,
				"velocity": 0,
				"time": 0.2314816666666666,
				"elapsed": 52.039541482925415
			},
			{
				"note": 75,
				"velocity": 88,
				"time": 0.03703706666666666,
				"elapsed": 52.0765745639801
			},
			{
				"note": 80,
				"velocity": 0,
				"time": 0.08796303333333332,
				"elapsed": 52.169288873672485
			},
			{
				"note": 75,
				"velocity": 0,
				"time": 0.023148166666666664,
				"elapsed": 52.192328691482544
			},
			{
				"note": 63,
				"velocity": 86,
				"time": 0.1539353083333333,
				"elapsed": 52.34626340866089
			},
			{
				"note": 68,
				"velocity": 99,
				"time": 0.0046296333333333325,
				"elapsed": 52.35088109970093
			},
			{
				"note": 75,
				"velocity": 99,
				"time": 0.0034722249999999994,
				"elapsed": 52.35436797142029
			},
			{
				"note": 68,
				"velocity": 0,
				"time": 0.0011574083333333331,
				"elapsed": 54.003658294677734
			},
			{
				"note": 73,
				"velocity": 97,
				"time": 0.008101858333333331,
				"elapsed": 54.021084785461426
			},
			{
				"note": 70,
				"velocity": 95,
				"time": 0,
				"elapsed": 54.021403074264526
			},
			{
				"note": 63,
				"velocity": 0,
				"time": 0.0011574083333333331,
				"elapsed": 54.02217388153076
			},
			{
				"note": 75,
				"velocity": 0,
				"time": 0.0034722249999999994,
				"elapsed": 54.062668561935425
			},
			{
				"note": 70,
				"velocity": 0,
				"time": 0.0046541916666666665,
				"elapsed": 54.51659631729126
			},
			{
				"note": 71,
				"velocity": 101,
				"time": 0.02797205,
				"elapsed": 54.577149629592896
			},
			{
				"note": 73,
				"velocity": 0,
				"time": 0.009339683333333333,
				"elapsed": 54.595815658569336
			},
			{
				"note": 71,
				"velocity": 0,
				"time": 0.009259266666666665,
				"elapsed": 55.708818197250366
			},
			{
				"note": 79,
				"velocity": 41,
				"time": 0.22800944166666662,
				"elapsed": 55.9368257522583
			},
			{
				"note": 80,
				"velocity": 95,
				"time": 0.03587965833333333,
				"elapsed": 55.97275710105896
			},
			{
				"note": 79,
				"velocity": 0,
				"time": 0.04050929166666666,
				"elapsed": 56.01782202720642
			},
			{
				"note": 80,
				"velocity": 0,
				"time": 0.17013902499999997,
				"elapsed": 56.18796706199646
			},
			{
				"note": 80,
				"velocity": 91,
				"time": 0.08101858333333332,
				"elapsed": 56.26900839805603
			},
			{
				"note": 80,
				"velocity": 0,
				"time": 0.026620391666666663,
				"elapsed": 56.55949640274048
			},
			{
				"note": 79,
				"velocity": 52,
				"time": 0.0023148166666666662,
				"elapsed": 56.62777256965637
			},
			{
				"note": 80,
				"velocity": 102,
				"time": 0.032407433333333326,
				"elapsed": 56.66022825241089
			},
			{
				"note": 79,
				"velocity": 0,
				"time": 0.017361124999999998,
				"elapsed": 56.67753887176514
			},
			{
				"note": 80,
				"velocity": 0,
				"time": 0.013888899999999997,
				"elapsed": 56.921735763549805
			},
			{
				"note": 80,
				"velocity": 82,
				"time": 0.16319457499999998,
				"elapsed": 57.08492660522461
			},
			{
				"note": 80,
				"velocity": 0,
				"time": 0.05555559999999999,
				"elapsed": 57.30026078224182
			},
			{
				"note": 79,
				"velocity": 51,
				"time": 0.0011574083333333331,
				"elapsed": 57.36733937263489
			},
			{
				"note": 80,
				"velocity": 100,
				"time": 0.0011574083333333331,
				"elapsed": 57.39058065414429
			},
			{
				"note": 79,
				"velocity": 0,
				"time": 0.008101858333333331,
				"elapsed": 57.39861559867859
			},
			{
				"note": 80,
				"velocity": 0,
				"time": 0.26851873333333326,
				"elapsed": 57.91257977485657
			},
			{
				"note": 78,
				"velocity": 72,
				"time": 0.008101858333333331,
				"elapsed": 57.92058777809143
			},
			{
				"note": 78,
				"velocity": 0,
				"time": 0.2233798083333333,
				"elapsed": 58.14523196220398
			},
			{
				"note": 78,
				"velocity": 97,
				"time": 0.01967594166666666,
				"elapsed": 58.21922826766968
			},
			{
				"note": 78,
				"velocity": 0,
				"time": 0.2476853833333333,
				"elapsed": 58.74815773963928
			},
			{
				"note": 75,
				"velocity": 93,
				"time": 0.006944449999999999,
				"elapsed": 58.75514459609985
			},
			{
				"note": 78,
				"velocity": 97,
				"time": 0.18981496666666664,
				"elapsed": 59.310628175735474
			},
			{
				"note": 75,
				"velocity": 0,
				"time": 0.01851853333333333,
				"elapsed": 59.32918620109558
			},
			{
				"note": 78,
				"velocity": 0,
				"time": 0.012731491666666664,
				"elapsed": 59.56413221359253
			},
			{
				"note": 80,
				"velocity": 102,
				"time": 0.005787041666666666,
				"elapsed": 59.5942120552063
			},
			{
				"note": 71,
				"velocity": 89,
				"time": 0.0011574083333333331,
				"elapsed": 59.599963903427124
			},
			{
				"note": 75,
				"velocity": 95,
				"time": 0.0023148166666666662,
				"elapsed": 59.602285623550415
			},
			{
				"note": 82,
				"velocity": 93,
				"time": 0.2754631833333333,
				"elapsed": 60.14167332649231
			},
			{
				"note": 71,
				"velocity": 0,
				"time": 0.0023148166666666662,
				"elapsed": 60.146485805511475
			},
			{
				"note": 75,
				"velocity": 0,
				"time": 0.008101858333333331,
				"elapsed": 60.15454459190369
			},
			{
				"note": 80,
				"velocity": 0,
				"time": 0.008101858333333331,
				"elapsed": 60.16253662109375
			},
			{
				"note": 82,
				"velocity": 0,
				"time": 0.18402792499999995,
				"elapsed": 60.34658765792847
			},
			{
				"note": 75,
				"velocity": 84,
				"time": 0.07407413333333332,
				"elapsed": 60.4205961227417
			},
			{
				"note": 80,
				"velocity": 102,
				"time": 0.0034722249999999994,
				"elapsed": 60.42530274391174
			},
			{
				"note": 83,
				"velocity": 97,
				"time": 0.005787041666666666,
				"elapsed": 60.43100690841675
			},
			{
				"note": 83,
				"velocity": 0,
				"time": 0.015046308333333331,
				"elapsed": 64.07643270492554
			},
			{
				"note": 80,
				"velocity": 0,
				"time": 0.0046296333333333325,
				"elapsed": 64.0810489654541
			},
			{
				"note": 75,
				"velocity": 0,
				"time": 0.015046308333333331,
				"elapsed": 64.09609079360962
			},
			{
				"note": 79,
				"velocity": 71,
				"time": 0.2662039166666666,
				"elapsed": 64.93863844871521
			},
			{
				"note": 80,
				"velocity": 104,
				"time": 0.012731491666666664,
				"elapsed": 64.96296334266663
			},
			{
				"note": 79,
				"velocity": 0,
				"time": 0.05671300833333332,
				"elapsed": 65.01966214179993
			},
			{
				"note": 80,
				"velocity": 0,
				"time": 0.16319457499999998,
				"elapsed": 65.1828863620758
			},
			{
				"note": 80,
				"velocity": 97,
				"time": 0.05555559999999999,
				"elapsed": 65.23847103118896
			},
			{
				"note": 80,
				"velocity": 0,
				"time": 0.050925966666666656,
				"elapsed": 65.57060503959656
			},
			{
				"note": 79,
				"velocity": 62,
				"time": 0.01967594166666666,
				"elapsed": 65.5902624130249
			},
			{
				"note": 80,
				"velocity": 106,
				"time": 0.05439819166666666,
				"elapsed": 65.64465618133545
			},
			{
				"note": 79,
				"velocity": 0,
				"time": 0.034722249999999996,
				"elapsed": 65.67942214012146
			},
			{
				"note": 80,
				"velocity": 0,
				"time": 0.01967594166666666,
				"elapsed": 66.00238752365112
			},
			{
				"note": 80,
				"velocity": 89,
				"time": 0.0011574083333333331,
				"elapsed": 66.0625422000885
			},
			{
				"note": 80,
				"velocity": 0,
				"time": 0.006944449999999999,
				"elapsed": 66.27789044380188
			},
			{
				"note": 79,
				"velocity": 70,
				"time": 0.012731491666666664,
				"elapsed": 66.31711411476135
			},
			{
				"note": 80,
				"velocity": 108,
				"time": 0.008101858333333331,
				"elapsed": 66.34723448753357
			},
			{
				"note": 79,
				"velocity": 0,
				"time": 0.028935208333333327,
				"elapsed": 66.37614107131958
			},
			{
				"note": 78,
				"velocity": 80,
				"time": 0.013888899999999997,
				"elapsed": 66.90860223770142
			},
			{
				"note": 80,
				"velocity": 0,
				"time": 0.0046296333333333325,
				"elapsed": 66.91325306892395
			},
			{
				"note": 78,
				"velocity": 0,
				"time": 0.2129631333333333,
				"elapsed": 67.1261887550354
			},
			{
				"note": 78,
				"velocity": 108,
				"time": 0.015046308333333331,
				"elapsed": 67.18755078315735
			},
			{
				"note": 78,
				"velocity": 0,
				"time": 0.0034722249999999994,
				"elapsed": 67.67592716217041
			},
			{
				"note": 80,
				"velocity": 104,
				"time": 0.05208337499999999,
				"elapsed": 67.72812747955322
			},
			{
				"note": 82,
				"velocity": 88,
				"time": 0.19444459999999997,
				"elapsed": 68.28359651565552
			},
			{
				"note": 80,
				"velocity": 0,
				"time": 0.013888899999999997,
				"elapsed": 68.3067352771759
			},
			{
				"note": 82,
				"velocity": 0,
				"time": 0.009259266666666665,
				"elapsed": 68.50471520423889
			},
			{
				"note": 83,
				"velocity": 93,
				"time": 0.0011574083333333331,
				"elapsed": 68.56249523162842
			},
			{
				"note": 71,
				"velocity": 82,
				"time": 0.005787041666666666,
				"elapsed": 68.56834292411804
			},
			{
				"note": 75,
				"velocity": 97,
				"time": 0.0046296333333333325,
				"elapsed": 68.57293272018433
			},
			{
				"note": 80,
				"velocity": 93,
				"time": 0.005787041666666666,
				"elapsed": 68.57876229286194
			},
			{
				"note": 83,
				"velocity": 0,
				"time": 0.21064831666666664,
				"elapsed": 69.04977941513062
			},
			{
				"note": 82,
				"velocity": 101,
				"time": 0.06712968333333331,
				"elapsed": 69.11685514450073
			},
			{
				"note": 80,
				"velocity": 0,
				"time": 0.21064831666666664,
				"elapsed": 69.32753205299377
			},
			{
				"note": 80,
				"velocity": 97,
				"time": 0.06712968333333331,
				"elapsed": 69.39472103118896
			},
			{
				"note": 82,
				"velocity": 0,
				"time": 0.041666699999999994,
				"elapsed": 69.43635296821594
			},
			{
				"note": 75,
				"velocity": 0,
				"time": 0.20601868333333329,
				"elapsed": 69.64249801635742
			},
			{
				"note": 75,
				"velocity": 86,
				"time": 0.009259266666666665,
				"elapsed": 69.95022177696228
			},
			{
				"note": 80,
				"velocity": 0,
				"time": 0.0046296333333333325,
				"elapsed": 69.95484566688538
			},
			{
				"note": 71,
				"velocity": 0,
				"time": 0.05439819166666666,
				"elapsed": 70.00928616523743
			},
			{
				"note": 75,
				"velocity": 0,
				"time": 0.061342641666666656,
				"elapsed": 70.0706102848053
			},
			{
				"note": 75,
				"velocity": 99,
				"time": 0.1574075333333333,
				"elapsed": 70.22802901268005
			},
			{
				"note": 63,
				"velocity": 80,
				"time": 0,
				"elapsed": 70.22811388969421
			},
			{
				"note": 68,
				"velocity": 99,
				"time": 0,
				"elapsed": 70.2281403541565
			},
			{
				"note": 68,
				"velocity": 0,
				"time": 0.008104847916666666,
				"elapsed": 71.83930373191833
			},
			{
				"note": 63,
				"velocity": 0,
				"time": 0.00812441875,
				"elapsed": 71.85310745239258
			},
			{
				"note": 75,
				"velocity": 0,
				"time": 0.0034903187499999992,
				"elapsed": 71.88558387756348
			},
			{
				"note": 73,
				"velocity": 86,
				"time": 0.0034903187499999992,
				"elapsed": 71.89486265182495
			},
			{
				"note": 70,
				"velocity": 82,
				"time": 0,
				"elapsed": 71.89505958557129
			},
			{
				"note": 70,
				"velocity": 0,
				"time": 0.022766472916666666,
				"elapsed": 72.41895890235901
			},
			{
				"note": 73,
				"velocity": 0,
				"time": 0.014378825,
				"elapsed": 72.43340563774109
			},
			{
				"note": 71,
				"velocity": 95,
				"time": 0.013213520833333332,
				"elapsed": 72.46214628219604
			},
			{
				"note": 71,
				"velocity": 0,
				"time": 0.16666679999999998,
				"elapsed": 73.77510643005371
			},
			{
				"note": 74,
				"velocity": 55,
				"time": 0.010416674999999999,
				"elapsed": 73.89655184745789
			},
			{
				"note": 75,
				"velocity": 108,
				"time": 0.010416674999999999,
				"elapsed": 73.90699172019958
			},
			{
				"note": 74,
				"velocity": 0,
				"time": 0.023148166666666664,
				"elapsed": 73.93016266822815
			},
			{
				"note": 75,
				"velocity": 0,
				"time": 0.17013902499999997,
				"elapsed": 74.10029745101929
			},
			{
				"note": 75,
				"velocity": 101,
				"time": 0.05555559999999999,
				"elapsed": 74.15586876869202
			},
			{
				"note": 75,
				"velocity": 0,
				"time": 0.0023148166666666662,
				"elapsed": 74.54588007926941
			},
			{
				"note": 75,
				"velocity": 97,
				"time": 0.04398151666666666,
				"elapsed": 74.5898597240448
			},
			{
				"note": 75,
				"velocity": 0,
				"time": 0.05902782499999999,
				"elapsed": 74.94520878791809
			},
			{
				"note": 75,
				"velocity": 100,
				"time": 0.008101858333333331,
				"elapsed": 75.00543117523193
			},
			{
				"note": 75,
				"velocity": 0,
				"time": 0.005787041666666666,
				"elapsed": 75.17664241790771
			},
			{
				"note": 73,
				"velocity": 72,
				"time": 0.006944449999999999,
				"elapsed": 75.18359303474426
			},
			{
				"note": 73,
				"velocity": 0,
				"time": 0.006944449999999999,
				"elapsed": 75.2265932559967
			},
			{
				"note": 75,
				"velocity": 79,
				"time": 0.0034722249999999994,
				"elapsed": 75.22988748550415
			},
			{
				"note": 73,
				"velocity": 101,
				"time": 0.008101858333333331,
				"elapsed": 75.2750883102417
			},
			{
				"note": 75,
				"velocity": 0,
				"time": 0.0023148166666666662,
				"elapsed": 75.27739906311035
			},
			{
				"note": 73,
				"velocity": 0,
				"time": 0.2708335499999999,
				"elapsed": 75.82364797592163
			},
			{
				"note": 71,
				"velocity": 84,
				"time": 0,
				"elapsed": 75.82376146316528
			},
			{
				"note": 78,
				"velocity": 104,
				"time": 0.2673613249999999,
				"elapsed": 76.0979871749878
			},
			{
				"note": 71,
				"velocity": 0,
				"time": 0.006944449999999999,
				"elapsed": 76.11535692214966
			},
			{
				"note": 78,
				"velocity": 0,
				"time": 0.14814826666666664,
				"elapsed": 76.62689065933228
			},
			{
				"note": 75,
				"velocity": 93,
				"time": 0.009259266666666665,
				"elapsed": 76.66397428512573
			},
			{
				"note": 75,
				"velocity": 0,
				"time": 0.04629633333333333,
				"elapsed": 77.20100545883179
			},
			{
				"note": 78,
				"velocity": 106,
				"time": 0.01851853333333333,
				"elapsed": 77.21950888633728
			},
			{
				"note": 78,
				"velocity": 0,
				"time": 0.010416674999999999,
				"elapsed": 77.44057536125183
			},
			{
				"note": 71,
				"velocity": 99,
				"time": 0.0011574083333333331,
				"elapsed": 77.4937674999237
			},
			{
				"note": 75,
				"velocity": 95,
				"time": 0.0011574083333333331,
				"elapsed": 77.49492383003235
			},
			{
				"note": 80,
				"velocity": 108,
				"time": 0.0011574083333333331,
				"elapsed": 77.4983971118927
			},
			{
				"note": 75,
				"velocity": 0,
				"time": 0.16898161666666664,
				"elapsed": 78.49958872795105
			},
			{
				"note": 71,
				"velocity": 0,
				"time": 0.026620391666666663,
				"elapsed": 78.52620887756348
			},
			{
				"note": 80,
				"velocity": 0,
				"time": 0.04629633333333333,
				"elapsed": 78.57253003120422
			},
			{
				"note": 75,
				"velocity": 93,
				"time": 0.032407433333333326,
				"elapsed": 78.60492849349976
			},
			{
				"note": 80,
				"velocity": 97,
				"time": 0.0034722249999999994,
				"elapsed": 78.60841655731201
			},
			{
				"note": 83,
				"velocity": 101,
				"time": 0.010416674999999999,
				"elapsed": 78.6188600063324
			},
			{
				"note": 82,
				"velocity": 93,
				"time": 0.27777799999999997,
				"elapsed": 79.16402339935303
			},
			{
				"note": 83,
				"velocity": 0,
				"time": 0.010416674999999999,
				"elapsed": 79.19293713569641
			},
			{
				"note": 80,
				"velocity": 0,
				"time": 0.041666699999999994,
				"elapsed": 79.23804116249084
			},
			{
				"note": 80,
				"velocity": 97,
				"time": 0.20370386666666662,
				"elapsed": 79.44171643257141
			},
			{
				"note": 82,
				"velocity": 0,
				"time": 0.013888899999999997,
				"elapsed": 79.45569658279419
			},
			{
				"note": 75,
				"velocity": 0,
				"time": 0.10763897499999998,
				"elapsed": 79.56326174736023
			},
			{
				"note": 82,
				"velocity": 78,
				"time": 0,
				"elapsed": 79.7196273803711
			},
			{
				"note": 72,
				"velocity": 97,
				"time": 0,
				"elapsed": 79.71973133087158
			},
			{
				"note": 75,
				"velocity": 97,
				"time": 0,
				"elapsed": 79.71976709365845
			},
			{
				"note": 80,
				"velocity": 0,
				"time": 0.005787041666666666,
				"elapsed": 79.74269032478333
			},
			{
				"note": 82,
				"velocity": 0,
				"time": 0.1956020083333333,
				"elapsed": 79.97876143455505
			},
			{
				"note": 80,
				"velocity": 90,
				"time": 0.01851853333333333,
				"elapsed": 79.99734830856323
			},
			{
				"note": 80,
				"velocity": 0,
				"time": 0.0037593999999999995,
				"elapsed": 81.38609433174133
			},
			{
				"note": 78,
				"velocity": 98,
				"time": 0,
				"elapsed": 81.39632678031921
			},
			{
				"note": 75,
				"velocity": 0,
				"time": 0.011337299999999998,
				"elapsed": 81.42132306098938
			},
			{
				"note": 72,
				"velocity": 0,
				"time": 0.0025260166666666666,
				"elapsed": 81.43138360977173
			},
			{
				"note": 78,
				"velocity": 0,
				"time": 0.014911622916666666,
				"elapsed": 82.0011100769043
			},
			{
				"note": 77,
				"velocity": 96,
				"time": 0.02039153125,
				"elapsed": 82.02963137626648
			},
			{
				"note": 77,
				"velocity": 0,
				"time": 0.010692900000000002,
				"elapsed": 82.236896276474
			},
			{
				"note": 77,
				"velocity": 98,
				"time": 0.01300481875,
				"elapsed": 82.31757926940918
			},
			{
				"note": 77,
				"velocity": 0,
				"time": 0.0352079375,
				"elapsed": 82.46828269958496
			},
			{
				"note": 77,
				"velocity": 105,
				"time": 0.038447199999999994,
				"elapsed": 82.59920620918274
			},
			{
				"note": 77,
				"velocity": 0,
				"time": 0.04019290624999999,
				"elapsed": 82.85342144966125
			},
			{
				"note": 75,
				"velocity": 107,
				"time": 0.022967374999999998,
				"elapsed": 82.8764169216156
			},
			{
				"note": 77,
				"velocity": 105,
				"time": 0.13780425,
				"elapsed": 83.01421594619751
			},
			{
				"note": 75,
				"velocity": 0,
				"time": 0.004593475,
				"elapsed": 83.0187623500824
			},
			{
				"note": 77,
				"velocity": 0,
				"time": 0.11306083333333333,
				"elapsed": 84.62473487854004
			},
			{
				"note": 77,
				"velocity": 103,
				"time": 0.15828516666666667,
				"elapsed": 84.78301477432251
			},
			{
				"note": 78,
				"velocity": 85,
				"time": 0.271346,
				"elapsed": 85.32568645477295
			},
			{
				"note": 77,
				"velocity": 0,
				"time": 0.018089733333333333,
				"elapsed": 85.39359402656555
			},
			{
				"note": 80,
				"velocity": 103,
				"time": 0.1899422,
				"elapsed": 85.86837434768677
			},
			{
				"note": 78,
				"velocity": 0,
				"time": 0.018089733333333333,
				"elapsed": 85.88648843765259
			},
			{
				"note": 80,
				"velocity": 0,
				"time": 0.027134600000000002,
				"elapsed": 86.41105008125305
			},
			{
				"note": 75,
				"velocity": 105,
				"time": 0,
				"elapsed": 86.41114282608032
			},
			{
				"note": 72,
				"velocity": 101,
				"time": 0.271346,
				"elapsed": 87.2250964641571
			},
			{
				"note": 75,
				"velocity": 0,
				"time": 0.027134600000000002,
				"elapsed": 87.25228333473206
			},
			{
				"note": 72,
				"velocity": 0,
				"time": 0.135673,
				"elapsed": 87.38807129859924
			},
			{
				"note": 72,
				"velocity": 98,
				"time": 0.10853840000000001,
				"elapsed": 87.49651598930359
			},
			{
				"note": 72,
				"velocity": 0,
				"time": 0.11306083333333333,
				"elapsed": 89.23764753341675
			},
			{
				"note": 72,
				"velocity": 96,
				"time": 0.15828516666666667,
				"elapsed": 89.39586162567139
			},
			{
				"note": 73,
				"velocity": 90,
				"time": 0.271346,
				"elapsed": 89.66724300384521
			},
			{
				"note": 72,
				"velocity": 0,
				"time": 0.013567300000000001,
				"elapsed": 89.70341491699219
			},
			{
				"note": 75,
				"velocity": 101,
				"time": 0.21707680000000001,
				"elapsed": 89.93872022628784
			},
			{
				"note": 73,
				"velocity": 0,
				"time": 0.03617946666666667,
				"elapsed": 89.98384165763855
			},
			{
				"note": 75,
				"velocity": 0,
				"time": 0.0022612166666666667,
				"elapsed": 90.6939206123352
			},
			{
				"note": 77,
				"velocity": 101,
				"time": 0.014697908333333334,
				"elapsed": 90.75264406204224
			},
			{
				"note": 77,
				"velocity": 0,
				"time": 0.12097509166666667,
				"elapsed": 90.95609855651855
			},
			{
				"note": 77,
				"velocity": 92,
				"time": 0.0678365,
				"elapsed": 91.02397227287292
			},
			{
				"note": 77,
				"velocity": 0,
				"time": 0.1628076,
				"elapsed": 91.18677997589111
			},
			{
				"note": 77,
				"velocity": 96,
				"time": 0.10853840000000001,
				"elapsed": 91.2952868938446
			},
			{
				"note": 77,
				"velocity": 0,
				"time": 0.2532562666666667,
				"elapsed": 91.54853892326355
			},
			{
				"note": 70,
				"velocity": 96,
				"time": 0.018089733333333333,
				"elapsed": 91.56662654876709
			},
			{
				"note": 77,
				"velocity": 96,
				"time": 0.135673,
				"elapsed": 91.702312707901
			},
			{
				"note": 70,
				"velocity": 0,
				"time": 0.03617946666666667,
				"elapsed": 91.73849678039551
			},
			{
				"note": 77,
				"velocity": 0,
				"time": 0.2623011333333333,
				"elapsed": 94.54247212409973
			},
			{
				"note": 75,
				"velocity": 96,
				"time": 0.009044866666666667,
				"elapsed": 94.55152869224548
			},
			{
				"note": 73,
				"velocity": 90,
				"time": 0.21255436666666666,
				"elapsed": 94.82283282279968
			},
			{
				"note": 75,
				"velocity": 0,
				"time": 0.013567300000000001,
				"elapsed": 94.83634734153748
			},
			{
				"note": 75,
				"velocity": 85,
				"time": 0.0011306083333333333,
				"elapsed": 95.0941390991211
			},
			{
				"note": 73,
				"velocity": 0,
				"time": 0.009044866666666667,
				"elapsed": 95.10321545600891
			},
			{
				"note": 75,
				"velocity": 0,
				"time": 0.17185246666666668,
				"elapsed": 95.5373740196228
			},
			{
				"note": 75,
				"velocity": 103,
				"time": 0.09949353333333333,
				"elapsed": 95.63688588142395
			},
			{
				"note": 73,
				"velocity": 90,
				"time": 0.271346,
				"elapsed": 95.90826845169067
			},
			{
				"note": 75,
				"velocity": 0,
				"time": 0.031657033333333334,
				"elapsed": 95.93985843658447
			},
			{
				"note": 73,
				"velocity": 0,
				"time": 0.2306441,
				"elapsed": 96.17050123214722
			},
			{
				"note": 75,
				"velocity": 101,
				"time": 0.009044866666666667,
				"elapsed": 96.17947196960449
			},
			{
				"note": 80,
				"velocity": 92,
				"time": 0.018089733333333333,
				"elapsed": 96.45086121559143
			},
			{
				"note": 75,
				"velocity": 0,
				"time": 0.018089733333333333,
				"elapsed": 96.46900510787964
			},
			{
				"note": 80,
				"velocity": 0,
				"time": 0.09044866666666666,
				"elapsed": 96.86242985725403
			},
			{
				"note": 80,
				"velocity": 105,
				"time": 0.13115056666666666,
				"elapsed": 96.99355459213257
			},
			{
				"note": 56,
				"velocity": 89,
				"time": 0,
				"elapsed": 97.81453704833984
			},
			{
				"note": 58,
				"velocity": 82,
				"time": 0,
				"elapsed": 97.95732927322388
			},
			{
				"note": 56,
				"velocity": 0,
				"time": 0,
				"elapsed": 97.99601864814758
			},
			{
				"note": 61,
				"velocity": 86,
				"time": 0.0134487375,
				"elapsed": 98.10267305374146
			},
			{
				"note": 58,
				"velocity": 0,
				"time": 0.00367719375,
				"elapsed": 98.12716054916382
			},
			{
				"note": 61,
				"velocity": 0,
				"time": 0.013692502083333334,
				"elapsed": 98.25071859359741
			},
			{
				"note": 63,
				"velocity": 82,
				"time": 0,
				"elapsed": 98.25098991394043
			},
			{
				"note": 61,
				"velocity": 93,
				"time": 0,
				"elapsed": 98.40153288841248
			},
			{
				"note": 63,
				"velocity": 0,
				"time": 0.0101688,
				"elapsed": 98.41166234016418
			},
			{
				"note": 63,
				"velocity": 106,
				"time": 0,
				"elapsed": 98.55566835403442
			},
			{
				"note": 61,
				"velocity": 0,
				"time": 0.0025901375,
				"elapsed": 98.57088661193848
			},
			{
				"note": 68,
				"velocity": 95,
				"time": 0,
				"elapsed": 98.71199822425842
			},
			{
				"note": 63,
				"velocity": 0,
				"time": 0.009239708333333332,
				"elapsed": 98.72251987457275
			},
			{
				"note": 68,
				"velocity": 0,
				"time": 0.014804052083333333,
				"elapsed": 98.87190413475037
			},
			{
				"note": 70,
				"velocity": 111,
				"time": 0,
				"elapsed": 98.87219071388245
			},
			{
				"note": 80,
				"velocity": 0,
				"time": 0.01110865,
				"elapsed": 98.98629927635193
			},
			{
				"note": 68,
				"velocity": 106,
				"time": 0,
				"elapsed": 99.0368423461914
			},
			{
				"note": 70,
				"velocity": 0,
				"time": 0.011371383333333334,
				"elapsed": 99.04817342758179
			},
			{
				"note": 68,
				"velocity": 0,
				"time": 0,
				"elapsed": 99.21253705024719
			},
			{
				"note": 70,
				"velocity": 111,
				"time": 0,
				"elapsed": 99.21261978149414
			},
			{
				"note": 73,
				"velocity": 97,
				"time": 0.1659425625,
				"elapsed": 99.39358687400818
			},
			{
				"note": 70,
				"velocity": 0,
				"time": 0.006034275,
				"elapsed": 99.39956164360046
			},
			{
				"note": 75,
				"velocity": 100,
				"time": 0.17499397500000002,
				"elapsed": 99.57459020614624
			},
			{
				"note": 73,
				"velocity": 0,
				"time": 0.006034275,
				"elapsed": 99.58058643341064
			},
			{
				"note": 77,
				"velocity": 103,
				"time": 0,
				"elapsed": 99.75571393966675
			},
			{
				"note": 75,
				"velocity": 0,
				"time": 0.005044391666666666,
				"elapsed": 99.76564145088196
			},
			{
				"note": 70,
				"velocity": 97,
				"time": 0.005044391666666666,
				"elapsed": 99.77071523666382
			},
			{
				"note": 66,
				"velocity": 95,
				"time": 0.005044391666666666,
				"elapsed": 99.77574324607849
			},
			{
				"note": 77,
				"velocity": 0,
				"time": 0.004940708333333333,
				"elapsed": 99.95050692558289
			},
			{
				"note": 77,
				"velocity": 103,
				"time": 0.0134487375,
				"elapsed": 100.05372762680054
			},
			{
				"note": 77,
				"velocity": 0,
				"time": 0,
				"elapsed": 100.19920921325684
			},
			{
				"note": 77,
				"velocity": 105,
				"time": 0.0130183625,
				"elapsed": 100.34233140945435
			},
			{
				"note": 77,
				"velocity": 0,
				"time": 0.034651625,
				"elapsed": 100.58066391944885
			},
			{
				"note": 75,
				"velocity": 109,
				"time": 0.04158194999999999,
				"elapsed": 100.62225770950317
			},
			{
				"note": 75,
				"velocity": 0,
				"time": 0.00804671875,
				"elapsed": 100.7559986114502
			},
			{
				"note": 77,
				"velocity": 105,
				"time": 0.004598125,
				"elapsed": 100.76046347618103
			},
			{
				"note": 66,
				"velocity": 0,
				"time": 0.045762416666666667,
				"elapsed": 101.00364708900452
			},
			{
				"note": 70,
				"velocity": 0,
				"time": 0.03203369166666666,
				"elapsed": 101.0357313156128
			},
			{
				"note": 77,
				"velocity": 0,
				"time": 0.18304966666666667,
				"elapsed": 102.45441937446594
			},
			{
				"note": 77,
				"velocity": 105,
				"time": 0.09152483333333333,
				"elapsed": 102.5458652973175
			},
			{
				"note": 70,
				"velocity": 100,
				"time": 0.26542201666666665,
				"elapsed": 102.81131076812744
			},
			{
				"note": 77,
				"velocity": 0,
				"time": 0.2425408083333333,
				"elapsed": 103.06299686431885
			},
			{
				"note": 70,
				"velocity": 0,
				"time": 0.009152483333333333,
				"elapsed": 103.07212710380554
			},
			{
				"note": 78,
				"velocity": 105,
				"time": 0.022881208333333333,
				"elapsed": 103.09502720832825
			},
			{
				"note": 70,
				"velocity": 93,
				"time": 0.21050711666666666,
				"elapsed": 103.36957454681396
			},
			{
				"note": 78,
				"velocity": 0,
				"time": 0.26542201666666665,
				"elapsed": 103.63501811027527
			},
			{
				"note": 80,
				"velocity": 103,
				"time": 0.009152483333333333,
				"elapsed": 103.64421153068542
			},
			{
				"note": 70,
				"velocity": 0,
				"time": 0.018304966666666665,
				"elapsed": 103.66248965263367
			},
			{
				"note": 70,
				"velocity": 104,
				"time": 0.1876259083333333,
				"elapsed": 103.90042042732239
			},
			{
				"note": 70,
				"velocity": 0,
				"time": 0.009152483333333333,
				"elapsed": 104.18422079086304
			},
			{
				"note": 75,
				"velocity": 107,
				"time": 0.009152483333333333,
				"elapsed": 104.19330310821533
			},
			{
				"note": 65,
				"velocity": 86,
				"time": 0,
				"elapsed": 104.19353604316711
			},
			{
				"note": 68,
				"velocity": 93,
				"time": 0,
				"elapsed": 104.19356656074524
			},
			{
				"note": 80,
				"velocity": 0,
				"time": 0.004576241666666666,
				"elapsed": 104.19796347618103
			},
			{
				"note": 65,
				"velocity": 0,
				"time": 0.2013546333333333,
				"elapsed": 104.94385504722595
			},
			{
				"note": 68,
				"velocity": 0,
				"time": 0.013728724999999999,
				"elapsed": 104.95749950408936
			},
			{
				"note": 75,
				"velocity": 0,
				"time": 0.059491141666666664,
				"elapsed": 105.01701283454895
			},
			{
				"note": 72,
				"velocity": 101,
				"time": 0,
				"elapsed": 105.01712584495544
			},
			{
				"note": 68,
				"velocity": 74,
				"time": 0,
				"elapsed": 105.01715636253357
			},
			{
				"note": 68,
				"velocity": 0,
				"time": 0.19220215,
				"elapsed": 105.20933151245117
			},
			{
				"note": 72,
				"velocity": 0,
				"time": 0.004576241666666666,
				"elapsed": 105.21383810043335
			},
			{
				"note": 72,
				"velocity": 96,
				"time": 0.07779610833333332,
				"elapsed": 105.2916190624237
			},
			{
				"note": 68,
				"velocity": 97,
				"time": 0,
				"elapsed": 105.29170441627502
			},
			{
				"note": 65,
				"velocity": 89,
				"time": 0,
				"elapsed": 105.29173040390015
			},
			{
				"note": 80,
				"velocity": 99,
				"time": 0,
				"elapsed": 106.12986898422241
			},
			{
				"note": 80,
				"velocity": 0,
				"time": 0.013961274999999997,
				"elapsed": 106.37068724632263
			},
			{
				"note": 65,
				"velocity": 0,
				"time": 0.0034903187499999992,
				"elapsed": 106.3753707408905
			},
			{
				"note": 72,
				"velocity": 0,
				"time": 0,
				"elapsed": 106.37564635276794
			},
			{
				"note": 68,
				"velocity": 0,
				"time": 0.0069806374999999985,
				"elapsed": 106.3939483165741
			},
			{
				"note": 87,
				"velocity": 99,
				"time": 0,
				"elapsed": 106.394287109375
			},
			{
				"note": 80,
				"velocity": 99,
				"time": 0,
				"elapsed": 106.39458131790161
			},
			{
				"note": 77,
				"velocity": 99,
				"time": 0,
				"elapsed": 106.39475297927856
			},
			{
				"note": 77,
				"velocity": 0,
				"time": 0.030619929166666664,
				"elapsed": 106.7170078754425
			},
			{
				"note": 80,
				"velocity": 0,
				"time": 0.004710758333333333,
				"elapsed": 106.72172284126282
			},
			{
				"note": 87,
				"velocity": 0,
				"time": 0.017708718749999998,
				"elapsed": 106.76887202262878
			},
			{
				"note": 84,
				"velocity": 85,
				"time": 0.047223249999999994,
				"elapsed": 106.81611466407776
			},
			{
				"note": 80,
				"velocity": 85,
				"time": 0,
				"elapsed": 106.81621170043945
			},
			{
				"note": 77,
				"velocity": 85,
				"time": 0,
				"elapsed": 106.81624126434326
			},
			{
				"note": 72,
				"velocity": 85,
				"time": 0,
				"elapsed": 106.81626772880554
			},
			{
				"note": 77,
				"velocity": 0,
				"time": 0.063908325,
				"elapsed": 106.89180612564087
			},
			{
				"note": 80,
				"velocity": 0,
				"time": 0,
				"elapsed": 106.89190411567688
			},
			{
				"note": 84,
				"velocity": 0,
				"time": 0.032033025,
				"elapsed": 106.92502236366272
			},
			{
				"note": 72,
				"velocity": 0,
				"time": 0,
				"elapsed": 106.92512774467468
			},
			{
				"note": 77,
				"velocity": 97,
				"time": 0.0790835375,
				"elapsed": 107.2448058128357
			},
			{
				"note": 80,
				"velocity": 97,
				"time": 0,
				"elapsed": 107.24508714675903
			},
			{
				"note": 84,
				"velocity": 97,
				"time": 0,
				"elapsed": 107.24512147903442
			},
			{
				"note": 72,
				"velocity": 97,
				"time": 0,
				"elapsed": 107.24514484405518
			},
			{
				"note": 68,
				"velocity": 92,
				"time": 0.00365425625,
				"elapsed": 107.94143342971802
			},
			{
				"note": 80,
				"velocity": 0,
				"time": 0.005132416666666666,
				"elapsed": 108.16003346443176
			},
			{
				"note": 84,
				"velocity": 0,
				"time": 0.005132416666666666,
				"elapsed": 108.16516542434692
			},
			{
				"note": 77,
				"velocity": 0,
				"time": 0.0012865374999999999,
				"elapsed": 108.17028427124023
			},
			{
				"note": 72,
				"velocity": 0,
				"time": 0,
				"elapsed": 108.17038011550903
			},
			{
				"note": 70,
				"velocity": 95,
				"time": 0.018355370833333332,
				"elapsed": 108.27305507659912
			},
			{
				"note": 68,
				"velocity": 0,
				"time": 0.04851062291666666,
				"elapsed": 108.33074474334717
			},
			{
				"note": 73,
				"velocity": 102,
				"time": 0.002636575,
				"elapsed": 108.42149186134338
			},
			{
				"note": 70,
				"velocity": 0,
				"time": 0.014541037500000001,
				"elapsed": 108.49690794944763
			},
			{
				"note": 75,
				"velocity": 108,
				"time": 0,
				"elapsed": 108.5710666179657
			},
			{
				"note": 73,
				"velocity": 0,
				"time": 0.026658125,
				"elapsed": 108.6547281742096
			},
			{
				"note": 75,
				"velocity": 0,
				"time": 0.0040098375,
				"elapsed": 108.74153017997742
			},
			{
				"note": 80,
				"velocity": 94,
				"time": 0,
				"elapsed": 108.74558520317078
			},
			{
				"note": 73,
				"velocity": 102,
				"time": 0,
				"elapsed": 108.74571132659912
			},
			{
				"note": 73,
				"velocity": 0,
				"time": 0.013908560416666667,
				"elapsed": 108.9002935886383
			},
			{
				"note": 80,
				"velocity": 0,
				"time": 0.0024960083333333332,
				"elapsed": 108.97056722640991
			},
			{
				"note": 80,
				"velocity": 94,
				"time": 0.013552137499999999,
				"elapsed": 109.04992938041687
			},
			{
				"note": 73,
				"velocity": 91,
				"time": 0,
				"elapsed": 109.05002403259277
			},
			{
				"note": 73,
				"velocity": 0,
				"time": 0.007225437499999999,
				"elapsed": 109.17665410041809
			},
			{
				"note": 80,
				"velocity": 0,
				"time": 0.008366793749999999,
				"elapsed": 109.22947812080383
			},
			{
				"note": 80,
				"velocity": 101,
				"time": 0.012891427083333334,
				"elapsed": 109.3383150100708
			},
			{
				"note": 73,
				"velocity": 104,
				"time": 0,
				"elapsed": 109.3385362625122
			},
			{
				"note": 78,
				"velocity": 103,
				"time": 0.17708347499999996,
				"elapsed": 109.61661577224731
			},
			{
				"note": 80,
				"velocity": 0,
				"time": 0.009259266666666665,
				"elapsed": 109.62586951255798
			},
			{
				"note": 73,
				"velocity": 0,
				"time": 0.023148166666666664,
				"elapsed": 109.64902138710022
			},
			{
				"note": 78,
				"velocity": 0,
				"time": 0.10648156666666665,
				"elapsed": 109.7555341720581
			},
			{
				"note": 80,
				"velocity": 90,
				"time": 0,
				"elapsed": 109.75581765174866
			},
			{
				"note": 73,
				"velocity": 102,
				"time": 0,
				"elapsed": 109.75593042373657
			},
			{
				"note": 80,
				"velocity": 94,
				"time": 0.04745374166666666,
				"elapsed": 111.00548601150513
			},
			{
				"note": 92,
				"velocity": 94,
				"time": 0,
				"elapsed": 111.00563549995422
			},
			{
				"note": 73,
				"velocity": 0,
				"time": 0.013888899999999997,
				"elapsed": 111.02410674095154
			},
			{
				"note": 80,
				"velocity": 0,
				"time": 0,
				"elapsed": 111.0243136882782
			},
			{
				"note": 80,
				"velocity": 0,
				"time": 0.09375007499999999,
				"elapsed": 111.20925402641296
			},
			{
				"note": 92,
				"velocity": 0,
				"time": 0,
				"elapsed": 111.20951199531555
			},
			{
				"note": 80,
				"velocity": 94,
				"time": 0.07407413333333332,
				"elapsed": 111.28341436386108
			},
			{
				"note": 92,
				"velocity": 94,
				"time": 0,
				"elapsed": 111.2837073802948
			},
			{
				"note": 92,
				"velocity": 0,
				"time": 0.1712964333333333,
				"elapsed": 111.45459651947021
			},
			{
				"note": 80,
				"velocity": 0,
				"time": 0,
				"elapsed": 111.45467805862427
			},
			{
				"note": 80,
				"velocity": 101,
				"time": 0.10648156666666665,
				"elapsed": 111.56117653846741
			},
			{
				"note": 92,
				"velocity": 101,
				"time": 0,
				"elapsed": 111.561279296875
			},
			{
				"note": 78,
				"velocity": 103,
				"time": 0.27777799999999997,
				"elapsed": 111.8388614654541
			},
			{
				"note": 90,
				"velocity": 103,
				"time": 0,
				"elapsed": 111.83909320831299
			},
			{
				"note": 92,
				"velocity": 0,
				"time": 0.009259266666666665,
				"elapsed": 111.84812545776367
			},
			{
				"note": 80,
				"velocity": 0,
				"time": 0,
				"elapsed": 111.84841632843018
			},
			{
				"note": 78,
				"velocity": 0,
				"time": 0.1296297333333333,
				"elapsed": 111.97781753540039
			},
			{
				"note": 90,
				"velocity": 0,
				"time": 0,
				"elapsed": 111.97799253463745
			},
			{
				"note": 80,
				"velocity": 90,
				"time": 0,
				"elapsed": 111.97800850868225
			},
			{
				"note": 92,
				"velocity": 90,
				"time": 0,
				"elapsed": 111.97802019119263
			},
			{
				"note": 80,
				"velocity": 0,
				"time": 0.050925966666666656,
				"elapsed": 112.65367269515991
			},
			{
				"note": 92,
				"velocity": 0,
				"time": 0.01851853333333333,
				"elapsed": 112.67222118377686
			},
			{
				"note": 78,
				"velocity": 98,
				"time": 0,
				"elapsed": 112.67243075370789
			},
			{
				"note": 76,
				"velocity": 101,
				"time": 0.0046296333333333325,
				"elapsed": 112.94997239112854
			},
			{
				"note": 78,
				"velocity": 0,
				"time": 0.01851853333333333,
				"elapsed": 112.9684956073761
			},
			{
				"note": 78,
				"velocity": 101,
				"time": 0.006944449999999999,
				"elapsed": 113.2277467250824
			},
			{
				"note": 75,
				"velocity": 94,
				"time": 0,
				"elapsed": 113.22792196273804
			},
			{
				"note": 76,
				"velocity": 0,
				"time": 0.0046296333333333325,
				"elapsed": 113.27404856681824
			},
			{
				"note": 75,
				"velocity": 0,
				"time": 0.13888899999999998,
				"elapsed": 113.6445460319519
			},
			{
				"note": 78,
				"velocity": 0,
				"time": 0.04629633333333333,
				"elapsed": 113.69070386886597
			},
			{
				"note": 78,
				"velocity": 105,
				"time": 0.09259266666666666,
				"elapsed": 113.78336572647095
			},
			{
				"note": 75,
				"velocity": 97,
				"time": 0,
				"elapsed": 113.78369665145874
			},
			{
				"note": 78,
				"velocity": 0,
				"time": 0.27314836666666664,
				"elapsed": 114.05651307106018
			},
			{
				"note": 76,
				"velocity": 94,
				"time": 0.0046296333333333325,
				"elapsed": 114.06108593940735
			},
			{
				"note": 78,
				"velocity": 99,
				"time": 0.27777799999999997,
				"elapsed": 114.33888101577759
			},
			{
				"note": 76,
				"velocity": 0,
				"time": 0.0046296333333333325,
				"elapsed": 114.34355092048645
			},
			{
				"note": 80,
				"velocity": 101,
				"time": 0.22222239999999996,
				"elapsed": 114.61667227745056
			},
			{
				"note": 78,
				"velocity": 0,
				"time": 0.027777799999999995,
				"elapsed": 114.6444661617279
			},
			{
				"note": 75,
				"velocity": 0,
				"time": 0.03703706666666666,
				"elapsed": 115.0054919719696
			},
			{
				"note": 80,
				"velocity": 0,
				"time": 0.05555559999999999,
				"elapsed": 115.06105923652649
			},
			{
				"note": 80,
				"velocity": 105,
				"time": 0.013888899999999997,
				"elapsed": 115.17219543457031
			},
			{
				"note": 75,
				"velocity": 95,
				"time": 0,
				"elapsed": 115.17237329483032
			},
			{
				"note": 72,
				"velocity": 89,
				"time": 0,
				"elapsed": 115.17240858078003
			},
			{
				"note": 80,
				"velocity": 0,
				"time": 0.0128288875,
				"elapsed": 116.14466619491577
			},
			{
				"note": 72,
				"velocity": 0,
				"time": 0.016487654166666664,
				"elapsed": 116.27598309516907
			},
			{
				"note": 75,
				"velocity": 0,
				"time": 0.009421516666666666,
				"elapsed": 116.28538417816162
			},
			{
				"note": 71,
				"velocity": 100,
				"time": 0,
				"elapsed": 116.28563237190247
			},
			{
				"note": 71,
				"velocity": 0,
				"time": 0.027035020833333333,
				"elapsed": 116.86307764053345
			},
			{
				"note": 73,
				"velocity": 89,
				"time": 0,
				"elapsed": 116.86316657066345
			},
			{
				"note": 73,
				"velocity": 0,
				"time": 0.21671307291666667,
				"elapsed": 117.15989470481873
			},
			{
				"note": 74,
				"velocity": 110,
				"time": 0,
				"elapsed": 117.15999341011047
			},
			{
				"note": 62,
				"velocity": 76,
				"time": 0.0012383604166666666,
				"elapsed": 117.16113901138306
			},
			{
				"note": 69,
				"velocity": 100,
				"time": 0.019813766666666666,
				"elapsed": 117.44719386100769
			},
			{
				"note": 74,
				"velocity": 0,
				"time": 0.009906883333333333,
				"elapsed": 117.45713686943054
			},
			{
				"note": 81,
				"velocity": 105,
				"time": 0,
				"elapsed": 117.45732402801514
			},
			{
				"note": 62,
				"velocity": 0,
				"time": 0.030959010416666665,
				"elapsed": 117.48809742927551
			},
			{
				"note": 69,
				"velocity": 0,
				"time": 0.03962753333333333,
				"elapsed": 117.73451232910156
			},
			{
				"note": 81,
				"velocity": 0,
				"time": 0.019813766666666666,
				"elapsed": 117.7543158531189
			},
			{
				"note": 71,
				"velocity": 84,
				"time": 0.009906883333333333,
				"elapsed": 117.76428270339966
			},
			{
				"note": 78,
				"velocity": 118,
				"time": 0,
				"elapsed": 117.76454615592957
			},
			{
				"note": 74,
				"velocity": 99,
				"time": 0.006191802083333333,
				"elapsed": 117.77559542655945
			},
			{
				"note": 78,
				"velocity": 0,
				"time": 0.17708347499999996,
				"elapsed": 118.29211235046387
			},
			{
				"note": 78,
				"velocity": 111,
				"time": 0.025462983333333328,
				"elapsed": 118.31759572029114
			},
			{
				"note": 78,
				"velocity": 0,
				"time": 0.27777799999999997,
				"elapsed": 118.59536170959473
			},
			{
				"note": 76,
				"velocity": 102,
				"time": 0,
				"elapsed": 118.59546518325806
			},
			{
				"note": 76,
				"velocity": 0,
				"time": 0.13888899999999998,
				"elapsed": 118.73422384262085
			},
			{
				"note": 78,
				"velocity": 109,
				"time": 0,
				"elapsed": 118.73433375358582
			},
			{
				"note": 74,
				"velocity": 0,
				"time": 0.19097237499999997,
				"elapsed": 120.4530553817749
			},
			{
				"note": 71,
				"velocity": 0,
				"time": 0.005787041666666666,
				"elapsed": 120.45884370803833
			},
			{
				"note": 78,
				"velocity": 0,
				"time": 0.08101858333333332,
				"elapsed": 120.53994560241699
			},
			{
				"note": 76,
				"velocity": 102,
				"time": 0,
				"elapsed": 120.5404942035675
			},
			{
				"note": 76,
				"velocity": 0,
				"time": 0.27777799999999997,
				"elapsed": 120.81758141517639
			},
			{
				"note": 78,
				"velocity": 102,
				"time": 0,
				"elapsed": 120.81790590286255
			},
			{
				"note": 78,
				"velocity": 0,
				"time": 0.2546298333333333,
				"elapsed": 121.07219505310059
			},
			{
				"note": 81,
				"velocity": 100,
				"time": 0.023148166666666664,
				"elapsed": 121.09536242485046
			},
			{
				"note": 81,
				"velocity": 0,
				"time": 0.27777799999999997,
				"elapsed": 121.37320685386658
			},
			{
				"note": 74,
				"velocity": 107,
				"time": 0,
				"elapsed": 121.3734359741211
			},
			{
				"note": 74,
				"velocity": 0,
				"time": 0.27777799999999997,
				"elapsed": 121.6509382724762
			},
			{
				"note": 73,
				"velocity": 98,
				"time": 0,
				"elapsed": 121.65114498138428
			},
			{
				"note": 73,
				"velocity": 0,
				"time": 0.13888899999999998,
				"elapsed": 121.92867398262024
			},
			{
				"note": 74,
				"velocity": 105,
				"time": 0,
				"elapsed": 121.92878079414368
			},
			{
				"note": 74,
				"velocity": 0,
				"time": 0.0046296333333333325,
				"elapsed": 122.20651602745056
			},
			{
				"note": 73,
				"velocity": 105,
				"time": 0,
				"elapsed": 122.20681810379028
			},
			{
				"note": 62,
				"velocity": 68,
				"time": 0,
				"elapsed": 122.20691275596619
			},
			{
				"note": 66,
				"velocity": 87,
				"time": 0,
				"elapsed": 122.20698761940002
			},
			{
				"note": 73,
				"velocity": 0,
				"time": 0.13888899999999998,
				"elapsed": 122.62321710586548
			},
			{
				"note": 66,
				"velocity": 0,
				"time": 0.10648156666666665,
				"elapsed": 122.72959899902344
			},
			{
				"note": 73,
				"velocity": 107,
				"time": 0.032407433333333326,
				"elapsed": 122.76202440261841
			},
			{
				"note": 62,
				"velocity": 0,
				"time": 0.0046296333333333325,
				"elapsed": 122.7666745185852
			},
			{
				"note": 73,
				"velocity": 0,
				"time": 0.27314836666666664,
				"elapsed": 123.03982377052307
			},
			{
				"note": 71,
				"velocity": 107,
				"time": 0,
				"elapsed": 123.04002952575684
			},
			{
				"note": 66,
				"velocity": 109,
				"time": 0.27777799999999997,
				"elapsed": 123.31761336326599
			},
			{
				"note": 71,
				"velocity": 0,
				"time": 0.01851853333333333,
				"elapsed": 123.33614420890808
			},
			{
				"note": 66,
				"velocity": 0,
				"time": 0.27777799999999997,
				"elapsed": 125.26203322410583
			},
			{
				"note": 71,
				"velocity": 105,
				"time": 0,
				"elapsed": 125.26215410232544
			},
			{
				"note": 59,
				"velocity": 93,
				"time": 0,
				"elapsed": 125.26218628883362
			},
			{
				"note": 71,
				"velocity": 0,
				"time": 0.27777799999999997,
				"elapsed": 125.8175802230835
			},
			{
				"note": 73,
				"velocity": 96,
				"time": 0,
				"elapsed": 125.81780886650085
			},
			{
				"note": 61,
				"velocity": 89,
				"time": 0.0011574083333333331,
				"elapsed": 125.8187198638916
			},
			{
				"note": 59,
				"velocity": 0,
				"time": 0.03935188333333332,
				"elapsed": 125.85810685157776
			},
			{
				"note": 73,
				"velocity": 0,
				"time": 0.13888899999999998,
				"elapsed": 126.09538245201111
			},
			{
				"note": 74,
				"velocity": 102,
				"time": 0,
				"elapsed": 126.09575319290161
			},
			{
				"note": 62,
				"velocity": 100,
				"time": 0.0023148166666666662,
				"elapsed": 126.09769892692566
			},
			{
				"note": 61,
				"velocity": 0,
				"time": 0.027777799999999995,
				"elapsed": 126.12547826766968
			},
			{
				"note": 69,
				"velocity": 104,
				"time": 0.13773159166666665,
				"elapsed": 126.37201476097107
			},
			{
				"note": 74,
				"velocity": 0,
				"time": 0.0011574083333333331,
				"elapsed": 126.37310743331909
			},
			{
				"note": 81,
				"velocity": 100,
				"time": 0,
				"elapsed": 126.37327027320862
			},
			{
				"note": 62,
				"velocity": 0,
				"time": 0.0011574083333333331,
				"elapsed": 126.3788959980011
			},
			{
				"note": 81,
				"velocity": 0,
				"time": 0.13888899999999998,
				"elapsed": 126.65095591545105
			},
			{
				"note": 78,
				"velocity": 111,
				"time": 0,
				"elapsed": 126.6512885093689
			},
			{
				"note": 67,
				"velocity": 97,
				"time": 0,
				"elapsed": 126.65142154693604
			},
			{
				"note": 71,
				"velocity": 110,
				"time": 0,
				"elapsed": 126.65157580375671
			},
			{
				"note": 69,
				"velocity": 0,
				"time": 0.0011574083333333331,
				"elapsed": 126.67058849334717
			},
			{
				"note": 78,
				"velocity": 0,
				"time": 0.13888899999999998,
				"elapsed": 127.06758618354797
			},
			{
				"note": 78,
				"velocity": 109,
				"time": 0.13888899999999998,
				"elapsed": 127.20653533935547
			},
			{
				"note": 78,
				"velocity": 0,
				"time": 0.27777799999999997,
				"elapsed": 127.48428392410278
			},
			{
				"note": 76,
				"velocity": 111,
				"time": 0,
				"elapsed": 127.48453497886658
			},
			{
				"note": 76,
				"velocity": 0,
				"time": 0.13888899999999998,
				"elapsed": 127.62314343452454
			},
			{
				"note": 78,
				"velocity": 100,
				"time": 0,
				"elapsed": 127.62335443496704
			},
			{
				"note": 71,
				"velocity": 0,
				"time": 0.03259754166666666,
				"elapsed": 129.184321641922
			},
			{
				"note": 67,
				"velocity": 0,
				"time": 0.004656791666666666,
				"elapsed": 129.1890115737915
			},
			{
				"note": 78,
				"velocity": 0,
				"time": 0.025737020833333332,
				"elapsed": 129.4316565990448
			},
			{
				"note": 69,
				"velocity": 82,
				"time": 0.0023397291666666666,
				"elapsed": 129.43396472930908
			},
			{
				"note": 73,
				"velocity": 76,
				"time": 0.0035095937499999997,
				"elapsed": 129.43754768371582
			},
			{
				"note": 76,
				"velocity": 93,
				"time": 0.0011698645833333333,
				"elapsed": 129.43863320350647
			},
			{
				"note": 76,
				"velocity": 0,
				"time": 0.08091759374999999,
				"elapsed": 129.6272213459015
			},
			{
				"note": 73,
				"velocity": 0,
				"time": 0.00938175,
				"elapsed": 129.63661861419678
			},
			{
				"note": 69,
				"velocity": 0,
				"time": 0.00938175,
				"elapsed": 129.64601516723633
			},
			{
				"note": 69,
				"velocity": 73,
				"time": 0.009404683333333332,
				"elapsed": 129.72258925437927
			},
			{
				"note": 78,
				"velocity": 96,
				"time": 0,
				"elapsed": 129.72282314300537
			},
			{
				"note": 73,
				"velocity": 72,
				"time": 0.0011755854166666665,
				"elapsed": 129.7236180305481
			},
			{
				"note": 78,
				"velocity": 0,
				"time": 0.06245873333333332,
				"elapsed": 129.89069628715515
			},
			{
				"note": 69,
				"velocity": 0,
				"time": 0,
				"elapsed": 129.89099168777466
			},
			{
				"note": 73,
				"velocity": 0,
				"time": 0.0011784666666666665,
				"elapsed": 129.891704082489
			},
			{
				"note": 81,
				"velocity": 106,
				"time": 0.01417635,
				"elapsed": 129.99662041664124
			},
			{
				"note": 69,
				"velocity": 75,
				"time": 0.0011813625,
				"elapsed": 129.99779224395752
			},
			{
				"note": 69,
				"velocity": 0,
				"time": 0.002368545833333333,
				"elapsed": 130.13958621025085
			},
			{
				"note": 81,
				"velocity": 0,
				"time": 0.008289910416666666,
				"elapsed": 130.14790320396423
			},
			{
				"note": 78,
				"velocity": 119,
				"time": 0.011871979166666668,
				"elapsed": 130.2781960964203
			},
			{
				"note": 69,
				"velocity": 100,
				"time": 0.0023743958333333334,
				"elapsed": 130.28174781799316
			},
			{
				"note": 69,
				"velocity": 0,
				"time": 0.007140812500000001,
				"elapsed": 130.41592454910278
			},
			{
				"note": 78,
				"velocity": 0,
				"time": 0.02261257291666667,
				"elapsed": 130.43854093551636
			},
			{
				"note": 69,
				"velocity": 104,
				"time": 0,
				"elapsed": 130.56478929519653
			},
			{
				"note": 81,
				"velocity": 127,
				"time": 0,
				"elapsed": 130.56489038467407
			},
			{
				"note": 78,
				"velocity": 101,
				"time": 0.0023861791666666666,
				"elapsed": 130.56708693504333
			},
			{
				"note": 69,
				"velocity": 0,
				"time": 0.017940875,
				"elapsed": 130.7258424758911
			},
			{
				"note": 78,
				"velocity": 0,
				"time": 0.011960583333333332,
				"elapsed": 130.73780488967896
			},
			{
				"note": 81,
				"velocity": 0,
				"time": 0.005980291666666666,
				"elapsed": 130.74377036094666
			},
			{
				"note": 86,
				"velocity": 119,
				"time": 0.10525313333333332,
				"elapsed": 130.84903955459595
			},
			{
				"note": 81,
				"velocity": 108,
				"time": 0,
				"elapsed": 130.8514289855957
			},
			{
				"note": 74,
				"velocity": 104,
				"time": 0.0011990416666666666,
				"elapsed": 130.85257172584534
			},
			{
				"note": 74,
				"velocity": 0,
				"time": 0.006010197916666667,
				"elapsed": 131.08905792236328
			},
			{
				"note": 81,
				"velocity": 0,
				"time": 0.010818356250000001,
				"elapsed": 131.09987998008728
			},
			{
				"note": 86,
				"velocity": 0,
				"time": 0.006010197916666667,
				"elapsed": 131.1070785522461
			},
			{
				"note": 85,
				"velocity": 111,
				"time": 0.022838752083333337,
				"elapsed": 131.1396324634552
			},
			{
				"note": 78,
				"velocity": 101,
				"time": 0,
				"elapsed": 131.13991951942444
			},
			{
				"note": 74,
				"velocity": 101,
				"time": 0.006010197916666667,
				"elapsed": 131.14564967155457
			},
			{
				"note": 74,
				"velocity": 0,
				"time": 0.03485914791666667,
				"elapsed": 131.46289825439453
			},
			{
				"note": 78,
				"velocity": 0,
				"time": 0.0036061187500000006,
				"elapsed": 131.4664604663849
			},
			{
				"note": 85,
				"velocity": 0,
				"time": 0.10577948333333334,
				"elapsed": 131.57228350639343
			},
			{
				"note": 83,
				"velocity": 111,
				"time": 0,
				"elapsed": 131.57247614860535
			},
			{
				"note": 78,
				"velocity": 82,
				"time": 0,
				"elapsed": 131.5724937915802
			},
			{
				"note": 74,
				"velocity": 99,
				"time": 0.002404079166666667,
				"elapsed": 131.57465291023254
			},
			{
				"note": 74,
				"velocity": 0,
				"time": 0.22357936250000002,
				"elapsed": 131.9402105808258
			},
			{
				"note": 78,
				"velocity": 0,
				"time": 0.04086934583333334,
				"elapsed": 131.98099946975708
			},
			{
				"note": 71,
				"velocity": 101,
				"time": 0.022838752083333337,
				"elapsed": 132.0039346218109
			},
			{
				"note": 83,
				"velocity": 0,
				"time": 0.0012020395833333335,
				"elapsed": 132.00500297546387
			},
			{
				"note": 78,
				"velocity": 107,
				"time": 0,
				"elapsed": 132.00504279136658
			},
			{
				"note": 74,
				"velocity": 77,
				"time": 0,
				"elapsed": 132.00506043434143
			},
			{
				"note": 71,
				"velocity": 0,
				"time": 0.015626514583333334,
				"elapsed": 133.14936184883118
			},
			{
				"note": 78,
				"velocity": 0,
				"time": 0.009616316666666668,
				"elapsed": 133.15897703170776
			},
			{
				"note": 76,
				"velocity": 107,
				"time": 0,
				"elapsed": 133.15908527374268
			},
			{
				"note": 74,
				"velocity": 0,
				"time": 0.002404079166666667,
				"elapsed": 133.18297719955444
			},
			{
				"note": 71,
				"velocity": 109,
				"time": 0.009616316666666668,
				"elapsed": 133.44623231887817
			},
			{
				"note": 76,
				"velocity": 0,
				"time": 0.0012020395833333335,
				"elapsed": 133.4474275112152
			},
			{
				"note": 78,
				"velocity": 111,
				"time": 0,
				"elapsed": 133.44750428199768
			},
			{
				"note": 74,
				"velocity": 86,
				"time": 0,
				"elapsed": 133.44753313064575
			},
			{
				"note": 74,
				"velocity": 0,
				"time": 0.006216427083333333,
				"elapsed": 133.94115376472473
			},
			{
				"note": 71,
				"velocity": 0,
				"time": 0,
				"elapsed": 133.94881582260132
			},
			{
				"note": 78,
				"velocity": 0,
				"time": 0,
				"elapsed": 134.0314314365387
			},
			{
				"note": 81,
				"velocity": 113,
				"time": 0,
				"elapsed": 134.03159952163696
			},
			{
				"note": 74,
				"velocity": 90,
				"time": 0,
				"elapsed": 134.03167533874512
			},
			{
				"note": 71,
				"velocity": 112,
				"time": 0.0025257625,
				"elapsed": 134.0338203907013
			},
			{
				"note": 71,
				"velocity": 0,
				"time": 0,
				"elapsed": 134.56275081634521
			},
			{
				"note": 81,
				"velocity": 0,
				"time": 0,
				"elapsed": 134.67002606391907
			},
			{
				"note": 83,
				"velocity": 109,
				"time": 0,
				"elapsed": 134.6701464653015
			},
			{
				"note": 78,
				"velocity": 86,
				"time": 0,
				"elapsed": 134.6702060699463
			},
			{
				"note": 74,
				"velocity": 103,
				"time": 0.004221068749999999,
				"elapsed": 134.6741714477539
			},
			{
				"note": 71,
				"velocity": 101,
				"time": 0,
				"elapsed": 134.67439675331116
			},
			{
				"note": 74,
				"velocity": 0,
				"time": 0.00430935625,
				"elapsed": 134.76652717590332
			},
			{
				"note": 74,
				"velocity": 0,
				"time": 0.0017502104166666665,
				"elapsed": 135.30939960479736
			},
			{
				"note": 71,
				"velocity": 0,
				"time": 0.010501262499999999,
				"elapsed": 135.31988143920898
			},
			{
				"note": 78,
				"velocity": 0,
				"time": 0,
				"elapsed": 135.34630012512207
			},
			{
				"note": 83,
				"velocity": 0,
				"time": 0,
				"elapsed": 135.4254505634308
			},
			{
				"note": 85,
				"velocity": 105,
				"time": 0,
				"elapsed": 135.42550945281982
			},
			{
				"note": 81,
				"velocity": 97,
				"time": 0,
				"elapsed": 135.4255337715149
			},
			{
				"note": 74,
				"velocity": 109,
				"time": 0.011022925,
				"elapsed": 135.43647456169128
			},
			{
				"note": 71,
				"velocity": 112,
				"time": 0,
				"elapsed": 135.43673539161682
			},
			{
				"note": 74,
				"velocity": 0,
				"time": 0.007550591666666666,
				"elapsed": 136.22667336463928
			},
			{
				"note": 71,
				"velocity": 0,
				"time": 0.003775295833333333,
				"elapsed": 136.24165606498718
			},
			{
				"note": 85,
				"velocity": 0,
				"time": 0.06040473333333333,
				"elapsed": 136.33048939704895
			},
			{
				"note": 81,
				"velocity": 0,
				"time": 0.007550591666666666,
				"elapsed": 136.33790230751038
			},
			{
				"note": 67,
				"velocity": 105,
				"time": 0.00566294375,
				"elapsed": 136.35490655899048
			},
			{
				"note": 71,
				"velocity": 114,
				"time": 0,
				"elapsed": 136.35513162612915
			},
			{
				"note": 78,
				"velocity": 105,
				"time": 0.003775295833333333,
				"elapsed": 136.35871767997742
			},
			{
				"note": 67,
				"velocity": 0,
				"time": 0.00884016875,
				"elapsed": 136.87451148033142
			},
			{
				"note": 71,
				"velocity": 0,
				"time": 0.006314406250000001,
				"elapsed": 136.88086366653442
			},
			{
				"note": 78,
				"velocity": 0,
				"time": 0,
				"elapsed": 136.89366960525513
			},
			{
				"note": 67,
				"velocity": 103,
				"time": 0.0024995,
				"elapsed": 136.96511387825012
			},
			{
				"note": 71,
				"velocity": 109,
				"time": 0.00374925,
				"elapsed": 136.96883726119995
			},
			{
				"note": 78,
				"velocity": 105,
				"time": 0,
				"elapsed": 136.96903538703918
			},
			{
				"note": 76,
				"velocity": 92,
				"time": 0.007364487499999999,
				"elapsed": 137.25393319129944
			},
			{
				"note": 78,
				"velocity": 0,
				"time": 0.012242895833333331,
				"elapsed": 137.28459978103638
			},
			{
				"note": 71,
				"velocity": 0,
				"time": 0.0012211791666666666,
				"elapsed": 137.31394934654236
			},
			{
				"note": 67,
				"velocity": 0,
				"time": 0.010990612499999998,
				"elapsed": 137.3250286579132
			},
			{
				"note": 76,
				"velocity": 0,
				"time": 0.01827128125,
				"elapsed": 137.37133741378784
			},
			{
				"note": 67,
				"velocity": 107,
				"time": 0.007290049999999999,
				"elapsed": 137.40057063102722
			},
			{
				"note": 71,
				"velocity": 109,
				"time": 0.004860033333333333,
				"elapsed": 137.40536904335022
			},
			{
				"note": 78,
				"velocity": 112,
				"time": 0.0036450249999999997,
				"elapsed": 137.40906405448914
			},
			{
				"note": 67,
				"velocity": 0,
				"time": 0.25519761249999995,
				"elapsed": 139.227285861969
			},
			{
				"note": 71,
				"velocity": 0,
				"time": 0.0023412624999999995,
				"elapsed": 139.22950220108032
			},
			{
				"note": 78,
				"velocity": 0,
				"time": 0.005853156249999999,
				"elapsed": 139.23537826538086
			},
			{
				"note": 76,
				"velocity": 83,
				"time": 0.012845662499999999,
				"elapsed": 139.25293970108032
			},
			{
				"note": 69,
				"velocity": 90,
				"time": 0.0058389374999999995,
				"elapsed": 139.25875782966614
			},
			{
				"note": 69,
				"velocity": 0,
				"time": 0.17166476249999998,
				"elapsed": 139.43039298057556
			},
			{
				"note": 76,
				"velocity": 0,
				"time": 0.0280269,
				"elapsed": 139.4585418701172
			},
			{
				"note": 78,
				"velocity": 89,
				"time": 0.0747384,
				"elapsed": 139.53322768211365
			},
			{
				"note": 69,
				"velocity": 84,
				"time": 0,
				"elapsed": 139.53351855278015
			},
			{
				"note": 78,
				"velocity": 0,
				"time": 0.18684599999999998,
				"elapsed": 139.7200014591217
			},
			{
				"note": 69,
				"velocity": 0,
				"time": 0.0198523875,
				"elapsed": 139.73989725112915
			},
			{
				"note": 81,
				"velocity": 107,
				"time": 0.012814541666666667,
				"elapsed": 139.81340432167053
			},
			{
				"note": 69,
				"velocity": 86,
				"time": 0.0023299166666666668,
				"elapsed": 139.81571578979492
			},
			{
				"note": 73,
				"velocity": 103,
				"time": 0.003494875,
				"elapsed": 139.81920433044434
			},
			{
				"note": 69,
				"velocity": 0,
				"time": 0.19687795833333335,
				"elapsed": 140.01622009277344
			},
			{
				"note": 73,
				"velocity": 0,
				"time": 0.0023299166666666668,
				"elapsed": 140.01843643188477
			},
			{
				"note": 81,
				"velocity": 0,
				"time": 0,
				"elapsed": 140.01860666275024
			},
			{
				"note": 64,
				"velocity": 96,
				"time": 0.07222741666666667,
				"elapsed": 140.09074211120605
			},
			{
				"note": 69,
				"velocity": 92,
				"time": 0.0011649583333333334,
				"elapsed": 140.0918629169464
			},
			{
				"note": 74,
				"velocity": 102,
				"time": 0.0011649583333333334,
				"elapsed": 140.09310865402222
			},
			{
				"note": 64,
				"velocity": 0,
				"time": 0.20386770833333334,
				"elapsed": 140.29694294929504
			},
			{
				"note": 74,
				"velocity": 0,
				"time": 0.0011649583333333334,
				"elapsed": 140.298077583313
			},
			{
				"note": 69,
				"velocity": 0,
				"time": 0.005824791666666667,
				"elapsed": 140.30386567115784
			},
			{
				"note": 69,
				"velocity": 96,
				"time": 0.06756758333333333,
				"elapsed": 140.37148594856262
			},
			{
				"note": 64,
				"velocity": 105,
				"time": 0,
				"elapsed": 140.37175035476685
			},
			{
				"note": 73,
				"velocity": 100,
				"time": 0,
				"elapsed": 140.37264037132263
			},
			{
				"note": 64,
				"velocity": 0,
				"time": 0.05694494166666667,
				"elapsed": 140.56900238990784
			},
			{
				"note": 73,
				"velocity": 0,
				"time": 0.037188533333333336,
				"elapsed": 140.60618257522583
			},
			{
				"note": 69,
				"velocity": 0,
				"time": 0.008134991666666667,
				"elapsed": 140.61434650421143
			},
			{
				"note": 64,
				"velocity": 118,
				"time": 0.033702108333333335,
				"elapsed": 140.64800715446472
			},
			{
				"note": 74,
				"velocity": 100,
				"time": 0.0034864250000000005,
				"elapsed": 140.6514856815338
			},
			{
				"note": 69,
				"velocity": 102,
				"time": 0.0011621416666666667,
				"elapsed": 140.65264177322388
			},
			{
				"note": 74,
				"velocity": 0,
				"time": 0.013945700000000002,
				"elapsed": 140.89324402809143
			},
			{
				"note": 64,
				"velocity": 0,
				"time": 0.018594266666666668,
				"elapsed": 140.91418528556824
			},
			{
				"note": 69,
				"velocity": 0,
				"time": 0.011621416666666667,
				"elapsed": 140.92579054832458
			},
			{
				"note": 62,
				"velocity": 101,
				"time": 0.0034864250000000005,
				"elapsed": 140.92926168441772
			},
			{
				"note": 66,
				"velocity": 103,
				"time": 0,
				"elapsed": 140.9294126033783
			},
			{
				"note": 73,
				"velocity": 94,
				"time": 0,
				"elapsed": 140.9294776916504
			},
			{
				"note": 62,
				"velocity": 0,
				"time": 0.1956020083333333,
				"elapsed": 141.40379929542542
			},
			{
				"note": 66,
				"velocity": 0,
				"time": 0.016203716666666663,
				"elapsed": 141.4200563430786
			},
			{
				"note": 73,
				"velocity": 0,
				"time": 0.0011574083333333331,
				"elapsed": 141.4212658405304
			},
			{
				"note": 73,
				"velocity": 92,
				"time": 0.0023148166666666662,
				"elapsed": 141.48835682868958
			},
			{
				"note": 62,
				"velocity": 103,
				"time": 0.0011574083333333331,
				"elapsed": 141.4894666671753
			},
			{
				"note": 66,
				"velocity": 98,
				"time": 0,
				"elapsed": 141.48967289924622
			},
			{
				"note": 71,
				"velocity": 90,
				"time": 0.0011574083333333331,
				"elapsed": 141.76490187644958
			},
			{
				"note": 73,
				"velocity": 0,
				"time": 0.024305574999999996,
				"elapsed": 141.78925323486328
			},
			{
				"note": 66,
				"velocity": 0,
				"time": 0.008101858333333331,
				"elapsed": 141.79732751846313
			},
			{
				"note": 62,
				"velocity": 0,
				"time": 0.04050929166666666,
				"elapsed": 141.8378140926361
			},
			{
				"note": 66,
				"velocity": 101,
				"time": 0.0046296333333333325,
				"elapsed": 142.0461835861206
			},
			{
				"note": 62,
				"velocity": 98,
				"time": 0,
				"elapsed": 142.04626393318176
			},
			{
				"note": 71,
				"velocity": 0,
				"time": 0.026620391666666663,
				"elapsed": 142.07276892662048
			},
			{
				"note": 62,
				"velocity": 0,
				"time": 0.17013902499999997,
				"elapsed": 143.87832283973694
			},
			{
				"note": 66,
				"velocity": 0,
				"time": 0,
				"elapsed": 143.87841534614563
			},
			{
				"note": 59,
				"velocity": 90,
				"time": 0.0046296333333333325,
				"elapsed": 143.99057579040527
			},
			{
				"note": 71,
				"velocity": 101,
				"time": 0,
				"elapsed": 143.99063158035278
			},
			{
				"note": 59,
				"velocity": 0,
				"time": 0.0047524,
				"elapsed": 144.409823179245
			},
			{
				"note": 71,
				"velocity": 0,
				"time": 0.015445300000000002,
				"elapsed": 144.42525553703308
			},
			{
				"note": 61,
				"velocity": 98,
				"time": 0,
				"elapsed": 144.54867506027222
			},
			{
				"note": 73,
				"velocity": 105,
				"time": 0.0024119625000000003,
				"elapsed": 144.55090260505676
			},
			{
				"note": 61,
				"velocity": 0,
				"time": 0.008614754166666665,
				"elapsed": 144.743399143219
			},
			{
				"note": 73,
				"velocity": 0,
				"time": 0.002461358333333333,
				"elapsed": 144.7458050251007
			},
			{
				"note": 62,
				"velocity": 102,
				"time": 0.0037399,
				"elapsed": 144.84610271453857
			},
			{
				"note": 74,
				"velocity": 100,
				"time": 0.0012466333333333334,
				"elapsed": 144.8473343849182
			},
			{
				"note": 62,
				"velocity": 0,
				"time": 0.012663354166666667,
				"elapsed": 145.04749870300293
			},
			{
				"note": 74,
				"velocity": 0,
				"time": 0.005065341666666666,
				"elapsed": 145.05253267288208
			},
			{
				"note": 69,
				"velocity": 104,
				"time": 0.005065341666666666,
				"elapsed": 145.14991283416748
			},
			{
				"note": 81,
				"velocity": 108,
				"time": 0.0012663354166666666,
				"elapsed": 145.151193857193
			},
			{
				"note": 81,
				"velocity": 0,
				"time": 0.06250004999999999,
				"elapsed": 145.42898988723755
			},
			{
				"note": 69,
				"velocity": 0,
				"time": 0.0034722249999999994,
				"elapsed": 145.4324345588684
			},
			{
				"note": 78,
				"velocity": 112,
				"time": 0.0046296333333333325,
				"elapsed": 145.43711733818054
			},
			{
				"note": 71,
				"velocity": 106,
				"time": 0.0011574083333333331,
				"elapsed": 145.43821907043457
			},
			{
				"note": 67,
				"velocity": 96,
				"time": 0.0011574083333333331,
				"elapsed": 145.4394245147705
			},
			{
				"note": 67,
				"velocity": 0,
				"time": 0.1886575583333333,
				"elapsed": 145.90812301635742
			},
			{
				"note": 71,
				"velocity": 0,
				"time": 0.010416674999999999,
				"elapsed": 145.9185402393341
			},
			{
				"note": 78,
				"velocity": 0,
				"time": 0.013888899999999997,
				"elapsed": 145.9324266910553
			},
			{
				"note": 78,
				"velocity": 118,
				"time": 0.0011574083333333331,
				"elapsed": 145.99838781356812
			},
			{
				"note": 67,
				"velocity": 102,
				"time": 0.0011574083333333331,
				"elapsed": 145.99953818321228
			},
			{
				"note": 71,
				"velocity": 108,
				"time": 0.0011574083333333331,
				"elapsed": 146.00070476531982
			},
			{
				"note": 76,
				"velocity": 88,
				"time": 0.2719909583333333,
				"elapsed": 146.27283644676208
			},
			{
				"note": 78,
				"velocity": 0,
				"time": 0.0034722249999999994,
				"elapsed": 146.27846240997314
			},
			{
				"note": 67,
				"velocity": 0,
				"time": 0.060185233333333324,
				"elapsed": 146.33877301216125
			},
			{
				"note": 71,
				"velocity": 0,
				"time": 0.0011574083333333331,
				"elapsed": 146.3398153781891
			},
			{
				"note": 76,
				"velocity": 0,
				"time": 0.060185233333333324,
				"elapsed": 146.40007853507996
			},
			{
				"note": 67,
				"velocity": 100,
				"time": 0.02199075833333333,
				"elapsed": 146.42206382751465
			},
			{
				"note": 71,
				"velocity": 106,
				"time": 0.0011574083333333331,
				"elapsed": 146.42327213287354
			},
			{
				"note": 78,
				"velocity": 114,
				"time": 0.0011574083333333331,
				"elapsed": 146.42442870140076
			},
			{
				"note": 71,
				"velocity": 0,
				"time": 0.23495389166666664,
				"elapsed": 148.1766767501831
			},
			{
				"note": 78,
				"velocity": 0,
				"time": 0.008101858333333331,
				"elapsed": 148.18477725982666
			},
			{
				"note": 67,
				"velocity": 0,
				"time": 0,
				"elapsed": 148.1848714351654
			},
			{
				"note": 64,
				"velocity": 103,
				"time": 0.031250024999999994,
				"elapsed": 148.2160017490387
			},
			{
				"note": 76,
				"velocity": 106,
				"time": 0.0023148166666666662,
				"elapsed": 148.21832180023193
			},
			{
				"note": 64,
				"velocity": 0,
				"time": 0.18287051666666662,
				"elapsed": 148.40240287780762
			},
			{
				"note": 76,
				"velocity": 0,
				"time": 0.010416674999999999,
				"elapsed": 148.41276788711548
			},
			{
				"note": 66,
				"velocity": 91,
				"time": 0.0011574083333333331,
				"elapsed": 148.49844098091125
			},
			{
				"note": 78,
				"velocity": 110,
				"time": 0.0011574083333333331,
				"elapsed": 148.4995732307434
			},
			{
				"note": 66,
				"velocity": 0,
				"time": 0.1504630833333333,
				"elapsed": 148.65002059936523
			},
			{
				"note": 78,
				"velocity": 0,
				"time": 0.009259266666666665,
				"elapsed": 148.65929675102234
			},
			{
				"note": 81,
				"velocity": 108,
				"time": 0.11689824166666664,
				"elapsed": 148.77617502212524
			},
			{
				"note": 69,
				"velocity": 108,
				"time": 0.0011574083333333331,
				"elapsed": 148.77732920646667
			},
			{
				"note": 81,
				"velocity": 0,
				"time": 0.009259266666666665,
				"elapsed": 148.9232621192932
			},
			{
				"note": 69,
				"velocity": 0,
				"time": 0.009259266666666665,
				"elapsed": 148.93250584602356
			},
			{
				"note": 78,
				"velocity": 108,
				"time": 0.0034722249999999994,
				"elapsed": 149.05626463890076
			},
			{
				"note": 66,
				"velocity": 110,
				"time": 0,
				"elapsed": 149.0563235282898
			},
			{
				"note": 66,
				"velocity": 0,
				"time": 0.14583344999999998,
				"elapsed": 149.20216584205627
			},
			{
				"note": 78,
				"velocity": 0,
				"time": 0.006944449999999999,
				"elapsed": 149.20905256271362
			},
			{
				"note": 69,
				"velocity": 110,
				"time": 0.11921305833333332,
				"elapsed": 149.3282961845398
			},
			{
				"note": 81,
				"velocity": 116,
				"time": 0.0011574083333333331,
				"elapsed": 149.32941055297852
			},
			{
				"note": 69,
				"velocity": 0,
				"time": 0.016203716666666663,
				"elapsed": 149.48571467399597
			},
			{
				"note": 81,
				"velocity": 0,
				"time": 0.011574083333333332,
				"elapsed": 149.49729466438293
			},
			{
				"note": 74,
				"velocity": 114,
				"time": 0.0011574083333333331,
				"elapsed": 149.60950589179993
			},
			{
				"note": 86,
				"velocity": 116,
				"time": 0,
				"elapsed": 149.60971593856812
			},
			{
				"note": 86,
				"velocity": 0,
				"time": 0.04050929166666666,
				"elapsed": 149.87115478515625
			},
			{
				"note": 74,
				"velocity": 0,
				"time": 0.0011574083333333331,
				"elapsed": 149.88732028007507
			},
			{
				"note": 73,
				"velocity": 96,
				"time": 0.0011574083333333331,
				"elapsed": 149.888530254364
			},
			{
				"note": 76,
				"velocity": 107,
				"time": 0,
				"elapsed": 149.88890266418457
			},
			{
				"note": 85,
				"velocity": 96,
				"time": 0.0011574083333333331,
				"elapsed": 149.88962864875793
			},
			{
				"note": 81,
				"velocity": 102,
				"time": 0.0023148166666666662,
				"elapsed": 149.89196491241455
			},
			{
				"note": 81,
				"velocity": 0,
				"time": 0.22453721666666662,
				"elapsed": 151.77740502357483
			},
			{
				"note": 85,
				"velocity": 0,
				"time": 0.008101858333333331,
				"elapsed": 151.78554439544678
			},
			{
				"note": 76,
				"velocity": 0,
				"time": 0.006944449999999999,
				"elapsed": 151.79241037368774
			},
			{
				"note": 73,
				"velocity": 0,
				"time": 0.030092616666666662,
				"elapsed": 151.8225874900818
			},
			{
				"note": 71,
				"velocity": 102,
				"time": 0.0011574083333333331,
				"elapsed": 152.10956740379333
			},
			{
				"note": 74,
				"velocity": 104,
				"time": 0,
				"elapsed": 152.10964965820312
			},
			{
				"note": 78,
				"velocity": 98,
				"time": 0.0034722249999999994,
				"elapsed": 152.11298513412476
			},
			{
				"note": 83,
				"velocity": 102,
				"time": 0,
				"elapsed": 152.11307287216187
			},
			{
				"note": 83,
				"velocity": 0,
				"time": 0.12037046666666665,
				"elapsed": 153.33989572525024
			},
			{
				"note": 66,
				"velocity": 80,
				"time": 0.015046308333333331,
				"elapsed": 153.3549678325653
			},
			{
				"note": 71,
				"velocity": 0,
				"time": 0.0011574083333333331,
				"elapsed": 153.35603380203247
			},
			{
				"note": 74,
				"velocity": 0,
				"time": 0,
				"elapsed": 153.3560824394226
			},
			{
				"note": 78,
				"velocity": 0,
				"time": 0.016203716666666663,
				"elapsed": 153.37226915359497
			},
			{
				"note": 71,
				"velocity": 93,
				"time": 0.0023148166666666662,
				"elapsed": 153.4995527267456
			},
			{
				"note": 66,
				"velocity": 0,
				"time": 0.012731491666666664,
				"elapsed": 153.51237177848816
			},
			{
				"note": 74,
				"velocity": 95,
				"time": 0.12500009999999998,
				"elapsed": 153.63734602928162
			},
			{
				"note": 71,
				"velocity": 0,
				"time": 0.012731491666666664,
				"elapsed": 153.65017795562744
			},
			{
				"note": 78,
				"velocity": 102,
				"time": 0.008172222916666666,
				"elapsed": 153.77524781227112
			},
			{
				"note": 74,
				"velocity": 0,
				"time": 0.011731583333333333,
				"elapsed": 153.7916522026062
			},
			{
				"note": 78,
				"velocity": 0,
				"time": 0.0038277,
				"elapsed": 153.97031545639038
			},
			{
				"note": 83,
				"velocity": 100,
				"time": 0,
				"elapsed": 153.97043895721436
			},
			{
				"note": 83,
				"velocity": 0,
				"time": 0.011154483333333333,
				"elapsed": 154.1838195323944
			},
			{
				"note": 86,
				"velocity": 97,
				"time": 0,
				"elapsed": 154.18405985832214
			},
			{
				"note": 86,
				"velocity": 0,
				"time": 0.0034770499999999993,
				"elapsed": 154.40650939941406
			},
			{
				"note": 73,
				"velocity": 96,
				"time": 0.004636066666666666,
				"elapsed": 154.41111302375793
			},
			{
				"note": 78,
				"velocity": 93,
				"time": 0,
				"elapsed": 154.4113311767578
			},
			{
				"note": 85,
				"velocity": 98,
				"time": 0,
				"elapsed": 154.41135787963867
			},
			{
				"note": 81,
				"velocity": 96,
				"time": 0.0011590166666666664,
				"elapsed": 154.41224026679993
			},
			{
				"note": 85,
				"velocity": 0,
				"time": 0.008527429166666666,
				"elapsed": 156.25713634490967
			},
			{
				"note": 83,
				"velocity": 91,
				"time": 0.023382904166666663,
				"elapsed": 156.37953543663025
			},
			{
				"note": 78,
				"velocity": 0,
				"time": 0.0086368625,
				"elapsed": 156.39182662963867
			},
			{
				"note": 81,
				"velocity": 0,
				"time": 0.01984323333333333,
				"elapsed": 156.45619130134583
			},
			{
				"note": 73,
				"velocity": 0,
				"time": 0.002486820833333333,
				"elapsed": 156.46611618995667
			},
			{
				"note": 83,
				"velocity": 0,
				"time": 0.004986533333333334,
				"elapsed": 156.49593949317932
			},
			{
				"note": 75,
				"velocity": 102,
				"time": 0.012663354166666667,
				"elapsed": 156.67814135551453
			},
			{
				"note": 71,
				"velocity": 104,
				"time": 0,
				"elapsed": 156.6807417869568
			},
			{
				"note": 78,
				"velocity": 111,
				"time": 0.0012663354166666666,
				"elapsed": 156.68195009231567
			},
			{
				"note": 83,
				"velocity": 93,
				"time": 0,
				"elapsed": 156.68209314346313
			},
			{
				"note": 78,
				"velocity": 0,
				"time": 0.0027286625,
				"elapsed": 156.9133815765381
			},
			{
				"note": 78,
				"velocity": 100,
				"time": 0.007041458333333332,
				"elapsed": 157.00883436203003
			},
			{
				"note": 75,
				"velocity": 0,
				"time": 0.0014377729166666665,
				"elapsed": 157.06421375274658
			},
			{
				"note": 75,
				"velocity": 93,
				"time": 0.01435681875,
				"elapsed": 157.37447690963745
			},
			{
				"note": 83,
				"velocity": 0,
				"time": 0.05961586458333333,
				"elapsed": 157.45336270332336
			},
			{
				"note": 78,
				"velocity": 0,
				"time": 0.01450115625,
				"elapsed": 157.4678316116333
			},
			{
				"note": 83,
				"velocity": 91,
				"time": 0.058969752083333334,
				"elapsed": 157.73417282104492
			},
			{
				"note": 75,
				"velocity": 0,
				"time": 0.018393625,
				"elapsed": 158.42775416374207
			},
			{
				"note": 71,
				"velocity": 0,
				"time": 0.018335175,
				"elapsed": 158.47830080986023
			},
			{
				"note": 85,
				"velocity": 86,
				"time": 0.013751381249999998,
				"elapsed": 158.49202370643616
			},
			{
				"note": 83,
				"velocity": 0,
				"time": 0.030558624999999996,
				"elapsed": 158.52264142036438
			},
			{
				"note": 86,
				"velocity": 78,
				"time": 0.024792906249999996,
				"elapsed": 158.8635492324829
			},
			{
				"note": 85,
				"velocity": 0,
				"time": 0.00437521875,
				"elapsed": 158.86785292625427
			},
			{
				"note": 93,
				"velocity": 80,
				"time": 0.38356084374999994,
				"elapsed": 159.25424337387085
			},
			{
				"note": 93,
				"velocity": 0,
				"time": 0.0017697854166666665,
				"elapsed": 159.37724947929382
			},
			{
				"note": 86,
				"velocity": 0,
				"time": 0.01592806875,
				"elapsed": 159.41620230674744
			},
			{
				"note": 79,
				"velocity": 66,
				"time": 0.010618712499999999,
				"elapsed": 159.5494828224182
			},
			{
				"note": 83,
				"velocity": 84,
				"time": 0.0087504375,
				"elapsed": 159.6142294406891
			},
			{
				"note": 90,
				"velocity": 95,
				"time": 0.007248062499999999,
				"elapsed": 159.68259072303772
			},
			{
				"note": 90,
				"velocity": 0,
				"time": 0.264550075,
				"elapsed": 160.28311467170715
			},
			{
				"note": 90,
				"velocity": 89,
				"time": 0.01266463125,
				"elapsed": 160.29569005966187
			},
			{
				"note": 88,
				"velocity": 66,
				"time": 0.3292804125,
				"elapsed": 160.63202595710754
			},
			{
				"note": 90,
				"velocity": 0,
				"time": 0.0225149,
				"elapsed": 160.6546437740326
			},
			{
				"note": 90,
				"velocity": 100,
				"time": 0.151975575,
				"elapsed": 160.80649733543396
			},
			{
				"note": 88,
				"velocity": 0,
				"time": 0.014071812500000001,
				"elapsed": 160.8206503391266
			},
			{
				"note": 83,
				"velocity": 0,
				"time": 0.029550806250000002,
				"elapsed": 162.30099296569824
			},
			{
				"note": 79,
				"velocity": 0,
				"time": 0.00422154375,
				"elapsed": 162.30519342422485
			},
			{
				"note": 88,
				"velocity": 80,
				"time": 0.002822625,
				"elapsed": 163.00037598609924
			},
			{
				"note": 90,
				"velocity": 0,
				"time": 0.008492812499999999,
				"elapsed": 163.0201437473297
			},
			{
				"note": 90,
				"velocity": 84,
				"time": 0.0014584062499999999,
				"elapsed": 163.3574719429016
			},
			{
				"note": 88,
				"velocity": 0,
				"time": 0.01609128125,
				"elapsed": 163.4042272567749
			},
			{
				"note": 93,
				"velocity": 93,
				"time": 0.07622863749999999,
				"elapsed": 163.70657444000244
			},
			{
				"note": 90,
				"velocity": 0,
				"time": 0.0014946791666666664,
				"elapsed": 163.7467782497406
			},
			{
				"note": 86,
				"velocity": 80,
				"time": 0.013452112499999998,
				"elapsed": 164.07857060432434
			},
			{
				"note": 93,
				"velocity": 0,
				"time": 0.03736697916666666,
				"elapsed": 164.11595511436462
			},
			{
				"note": 85,
				"velocity": 78,
				"time": 0.002989358333333333,
				"elapsed": 164.42389178276062
			},
			{
				"note": 86,
				"velocity": 0,
				"time": 0.0014946791666666664,
				"elapsed": 164.43880581855774
			},
			{
				"note": 86,
				"velocity": 80,
				"time": 0.005978716666666666,
				"elapsed": 164.77809929847717
			},
			{
				"note": 85,
				"velocity": 0,
				"time": 0.03138826249999999,
				"elapsed": 164.80962109565735
			},
			{
				"note": 85,
				"velocity": 82,
				"time": 0.0073816041666666665,
				"elapsed": 165.13925194740295
			},
			{
				"note": 86,
				"velocity": 0,
				"time": 0.016239529166666666,
				"elapsed": 165.1570065021515
			},
			{
				"note": 85,
				"velocity": 0,
				"time": 0.010086460416666667,
				"elapsed": 165.74342513084412
			},
			{
				"note": 85,
				"velocity": 82,
				"time": 0.005746466666666667,
				"elapsed": 165.8183295726776
			},
			{
				"note": 83,
				"velocity": 80,
				"time": 0.28503474791666666,
				"elapsed": 166.1751627922058
			},
			{
				"note": 85,
				"velocity": 0,
				"time": 0.021485031249999998,
				"elapsed": 166.19665670394897
			},
			{
				"note": 78,
				"velocity": 63,
				"time": 0.32227546874999996,
				"elapsed": 166.51898288726807
			},
			{
				"note": 83,
				"velocity": 0,
				"time": 0.007161677083333332,
				"elapsed": 166.526269197464
			},
			{
				"note": 78,
				"velocity": 0,
				"time": 0.0251818875,
				"elapsed": 168.8046100139618
			},
			{
				"note": 83,
				"velocity": 84,
				"time": 0.08673761249999999,
				"elapsed": 168.8914384841919
			},
			{
				"note": 85,
				"velocity": 74,
				"time": 0.015388931249999998,
				"elapsed": 169.57967376708984
			},
			{
				"note": 83,
				"velocity": 0,
				"time": 0.02378289375,
				"elapsed": 169.60347723960876
			},
			{
				"note": 86,
				"velocity": 78,
				"time": 0.0027979874999999998,
				"elapsed": 169.9042329788208
			},
			{
				"note": 85,
				"velocity": 0,
				"time": 0.0027979874999999998,
				"elapsed": 169.9070281982422
			},
			{
				"note": 93,
				"velocity": 84,
				"time": 0.0055959749999999996,
				"elapsed": 170.23860621452332
			},
			{
				"note": 86,
				"velocity": 0,
				"time": 0.016787925,
				"elapsed": 170.3421185016632
			},
			{
				"note": 93,
				"velocity": 0,
				"time": 0.0251818875,
				"elapsed": 170.3673152923584
			},
			{
				"note": 79,
				"velocity": 70,
				"time": 0.15808629375,
				"elapsed": 170.52542209625244
			},
			{
				"note": 83,
				"velocity": 72,
				"time": 0.0013989937499999999,
				"elapsed": 170.57710886001587
			},
			{
				"note": 90,
				"velocity": 89,
				"time": 0.0055959749999999996,
				"elapsed": 170.6134672164917
			},
			{
				"note": 90,
				"velocity": 0,
				"time": 0.23922793124999997,
				"elapsed": 171.13818645477295
			},
			{
				"note": 90,
				"velocity": 89,
				"time": 0.072747675,
				"elapsed": 171.21090412139893
			},
			{
				"note": 88,
				"velocity": 71,
				"time": 0.32596554375,
				"elapsed": 171.56206703186035
			},
			{
				"note": 90,
				"velocity": 0,
				"time": 0.026580881249999997,
				"elapsed": 171.58865928649902
			},
			{
				"note": 90,
				"velocity": 86,
				"time": 0.151091325,
				"elapsed": 171.73971891403198
			},
			{
				"note": 88,
				"velocity": 0,
				"time": 0.02378289375,
				"elapsed": 171.76356625556946
			},
			{
				"note": 83,
				"velocity": 0,
				"time": 0.011920366666666665,
				"elapsed": 173.93364667892456
			},
			{
				"note": 79,
				"velocity": 0,
				"time": 0.007450229166666666,
				"elapsed": 173.94107580184937
			},
			{
				"note": 90,
				"velocity": 0,
				"time": 0.011920366666666665,
				"elapsed": 173.95308375358582
			},
			{
				"note": 88,
				"velocity": 82,
				"time": 0.028310870833333328,
				"elapsed": 173.9812924861908
			},
			{
				"note": 90,
				"velocity": 78,
				"time": 0.0015279312499999998,
				"elapsed": 174.3487949371338
			},
			{
				"note": 88,
				"velocity": 0,
				"time": 0.010938870833333333,
				"elapsed": 174.4074592590332
			},
			{
				"note": 93,
				"velocity": 86,
				"time": 0,
				"elapsed": 174.7461621761322
			},
			{
				"note": 90,
				"velocity": 0,
				"time": 0.0164113875,
				"elapsed": 174.762521982193
			},
			{
				"note": 93,
				"velocity": 0,
				"time": 0.0022397416666666667,
				"elapsed": 175.20823287963867
			},
			{
				"note": 90,
				"velocity": 74,
				"time": 0.017917933333333334,
				"elapsed": 175.22611498832703
			},
			{
				"note": 90,
				"velocity": 0,
				"time": 0.0174135125,
				"elapsed": 175.80224013328552
			},
			{
				"note": 93,
				"velocity": 82,
				"time": 0.005875441666666666,
				"elapsed": 175.83444094657898
			},
			{
				"note": 98,
				"velocity": 82,
				"time": 0.014870333333333333,
				"elapsed": 176.5776925086975
			},
			{
				"note": 93,
				"velocity": 0,
				"time": 0.005948133333333333,
				"elapsed": 176.66992735862732
			},
			{
				"note": 98,
				"velocity": 0,
				"time": 0.9590994416666665,
				"elapsed": 177.88274335861206
			},
			{
				"note": 97,
				"velocity": 81,
				"time": 0.047558649999999994,
				"elapsed": 178.1205837726593
			},
			{
				"note": 95,
				"velocity": 87,
				"time": 0.009226225,
				"elapsed": 178.3485631942749
			},
			{
				"note": 97,
				"velocity": 0,
				"time": 0.021323254166666666,
				"elapsed": 178.4433879852295
			},
			{
				"note": 90,
				"velocity": 85,
				"time": 0.01056125,
				"elapsed": 178.5283215045929
			},
			{
				"note": 95,
				"velocity": 0,
				"time": 0.02256046875,
				"elapsed": 178.55990886688232
			},
			{
				"note": 86,
				"velocity": 73,
				"time": 0.0073816041666666665,
				"elapsed": 178.70886850357056
			},
			{
				"note": 90,
				"velocity": 0,
				"time": 0.0132462,
				"elapsed": 178.7294864654541
			},
			{
				"note": 85,
				"velocity": 76,
				"time": 0.007226270833333333,
				"elapsed": 178.88419008255005
			},
			{
				"note": 86,
				"velocity": 0,
				"time": 0.0043357625,
				"elapsed": 178.90006113052368
			},
			{
				"note": 83,
				"velocity": 76,
				"time": 0.024134014583333332,
				"elapsed": 179.0574963092804
			},
			{
				"note": 85,
				"velocity": 0,
				"time": 0.00422154375,
				"elapsed": 179.1140809059143
			},
			{
				"note": 78,
				"velocity": 83,
				"time": 0.06855069374999999,
				"elapsed": 179.229017496109
			},
			{
				"note": 83,
				"velocity": 0,
				"time": 0.015388931249999998,
				"elapsed": 179.26122188568115
			},
			{
				"note": 74,
				"velocity": 83,
				"time": 0.1343034,
				"elapsed": 179.39550805091858
			},
			{
				"note": 78,
				"velocity": 0,
				"time": 0.01259094375,
				"elapsed": 179.40820717811584
			},
			{
				"note": 73,
				"velocity": 87,
				"time": 0.1538893125,
				"elapsed": 179.56204414367676
			},
			{
				"note": 74,
				"velocity": 0,
				"time": 0.007015375,
				"elapsed": 179.5746214389801
			},
			{
				"note": 71,
				"velocity": 81,
				"time": 0.13329212499999998,
				"elapsed": 179.7275698184967
			},
			{
				"note": 73,
				"velocity": 0,
				"time": 0.0505107,
				"elapsed": 179.77805304527283
			},
			{
				"note": 66,
				"velocity": 78,
				"time": 0.1178583,
				"elapsed": 179.89592170715332
			},
			{
				"note": 71,
				"velocity": 0,
				"time": 0.03086765,
				"elapsed": 179.92676067352295
			},
			{
				"note": 66,
				"velocity": 0,
				"time": 0.011323749999999999,
				"elapsed": 180.05475115776062
			},
			{
				"note": 62,
				"velocity": 66,
				"time": 0.0014323354166666665,
				"elapsed": 180.0603950023651
			},
			{
				"note": 61,
				"velocity": 74,
				"time": 0.016044145833333336,
				"elapsed": 180.23929953575134
			},
			{
				"note": 62,
				"velocity": 0,
				"time": 0.01458575625,
				"elapsed": 180.25538969039917
			},
			{
				"note": 59,
				"velocity": 78,
				"time": 0.01660025625,
				"elapsed": 180.44453477859497
			},
			{
				"note": 61,
				"velocity": 0,
				"time": 0.007672241666666666,
				"elapsed": 180.49533319473267
			},
			{
				"note": 54,
				"velocity": 93,
				"time": 0.10563951666666666,
				"elapsed": 180.6796851158142
			},
			{
				"note": 59,
				"velocity": 0,
				"time": 0.028441408333333328,
				"elapsed": 180.7080638408661
			},
			{
				"note": 50,
				"velocity": 93,
				"time": 0.02766360625,
				"elapsed": 180.9348087310791
			},
			{
				"note": 54,
				"velocity": 0,
				"time": 0.031877583333333334,
				"elapsed": 180.98248481750488
			},
			{
				"note": 47,
				"velocity": 45,
				"time": 0.18884599999999999,
				"elapsed": 181.39848256111145
			},
			{
				"note": 50,
				"velocity": 78,
				"time": 0.108486,
				"elapsed": 181.50700759887695
			},
			{
				"note": 50,
				"velocity": 0,
				"time": 0,
				"elapsed": 181.5151035785675
			},
			{
				"note": 54,
				"velocity": 73,
				"time": 0.0022727270833333333,
				"elapsed": 181.52183938026428
			},
			{
				"note": 59,
				"velocity": 87,
				"time": 0.022727270833333334,
				"elapsed": 181.5445418357849
			},
			{
				"note": 50,
				"velocity": 0,
				"time": 4.1522723812499995,
				"elapsed": 185.69686460494995
			},
			{
				"note": 47,
				"velocity": 0,
				"time": 0.004545454166666667,
				"elapsed": 185.70135736465454
			},
			{
				"note": 54,
				"velocity": 0,
				"time": 0.009090908333333333,
				"elapsed": 185.71054410934448
			},
			{
				"note": 59,
				"velocity": 0,
				"time": 0.009090908333333333,
				"elapsed": 185.7309718132019
			}
		],
		"1": [
			{
				"note": 43,
				"velocity": 96,
				"time": 0,
				"elapsed": 4.589234828948975
			},
			{
				"note": 50,
				"velocity": 89,
				"time": 0.22727291666666669,
				"elapsed": 4.8619225025177
			},
			{
				"note": 55,
				"velocity": 79,
				"time": 0,
				"elapsed": 5.134868860244751
			},
			{
				"note": 59,
				"velocity": 105,
				"time": 0,
				"elapsed": 5.40754508972168
			},
			{
				"note": 50,
				"velocity": 0,
				"time": 0.13636375,
				"elapsed": 5.680099010467529
			},
			{
				"note": 55,
				"velocity": 0,
				"time": 0.2727275,
				"elapsed": 5.952816009521484
			},
			{
				"note": 50,
				"velocity": 89,
				"time": 0,
				"elapsed": 5.952934265136719
			},
			{
				"note": 55,
				"velocity": 87,
				"time": 0.2727275,
				"elapsed": 6.225538969039917
			},
			{
				"note": 59,
				"velocity": 0,
				"time": 0.13636375,
				"elapsed": 6.362028121948242
			},
			{
				"note": 43,
				"velocity": 0,
				"time": 0.13636375,
				"elapsed": 6.498319149017334
			},
			{
				"note": 59,
				"velocity": 98,
				"time": 0,
				"elapsed": 6.498625993728638
			},
			{
				"note": 50,
				"velocity": 0,
				"time": 0.13636375,
				"elapsed": 6.634656190872192
			},
			{
				"note": 59,
				"velocity": 0,
				"time": 0.0046296333333333325,
				"elapsed": 6.771602630615234
			},
			{
				"note": 55,
				"velocity": 0,
				"time": 0,
				"elapsed": 6.771747589111328
			},
			{
				"note": 45,
				"velocity": 94,
				"time": 0,
				"elapsed": 6.7717931270599365
			},
			{
				"note": 52,
				"velocity": 83,
				"time": 0.20486127499999995,
				"elapsed": 7.049265623092651
			},
			{
				"note": 57,
				"velocity": 91,
				"time": 0,
				"elapsed": 7.327171564102173
			},
			{
				"note": 61,
				"velocity": 102,
				"time": 0,
				"elapsed": 7.605057954788208
			},
			{
				"note": 52,
				"velocity": 0,
				"time": 0,
				"elapsed": 7.8827245235443115
			},
			{
				"note": 57,
				"velocity": 0,
				"time": 0,
				"elapsed": 8.16109013557434
			},
			{
				"note": 52,
				"velocity": 87,
				"time": 0,
				"elapsed": 8.161137104034424
			},
			{
				"note": 57,
				"velocity": 91,
				"time": 0,
				"elapsed": 8.438551664352417
			},
			{
				"note": 61,
				"velocity": 0,
				"time": 0.13888899999999998,
				"elapsed": 8.57723069190979
			},
			{
				"note": 45,
				"velocity": 0,
				"time": 0,
				"elapsed": 8.716071844100952
			},
			{
				"note": 52,
				"velocity": 0,
				"time": 0,
				"elapsed": 8.993866443634033
			},
			{
				"note": 57,
				"velocity": 0,
				"time": 0,
				"elapsed": 8.994030237197876
			},
			{
				"note": 47,
				"velocity": 94,
				"time": 0,
				"elapsed": 8.994108438491821
			},
			{
				"note": 50,
				"velocity": 94,
				"time": 0.23181837500000002,
				"elapsed": 9.26650357246399
			},
			{
				"note": 54,
				"velocity": 85,
				"time": 0,
				"elapsed": 9.539562702178955
			},
			{
				"note": 59,
				"velocity": 102,
				"time": 0,
				"elapsed": 9.8120276927948
			},
			{
				"note": 50,
				"velocity": 0,
				"time": 0.2727275,
				"elapsed": 10.08472728729248
			},
			{
				"note": 54,
				"velocity": 0,
				"time": 0.25454566666666667,
				"elapsed": 10.357374429702759
			},
			{
				"note": 50,
				"velocity": 83,
				"time": 0,
				"elapsed": 10.357603073120117
			},
			{
				"note": 59,
				"velocity": 0,
				"time": 0.2727275,
				"elapsed": 10.630102634429932
			},
			{
				"note": 54,
				"velocity": 91,
				"time": 0,
				"elapsed": 10.63025689125061
			},
			{
				"note": 47,
				"velocity": 0,
				"time": 0.2727275,
				"elapsed": 10.902903318405151
			},
			{
				"note": 59,
				"velocity": 96,
				"time": 0,
				"elapsed": 10.90315580368042
			},
			{
				"note": 50,
				"velocity": 0,
				"time": 0.012500010416666667,
				"elapsed": 11.066550016403198
			},
			{
				"note": 54,
				"velocity": 0,
				"time": 0.0034090937500000002,
				"elapsed": 11.121017456054688
			},
			{
				"note": 59,
				"velocity": 0,
				"time": 0.02386365625,
				"elapsed": 11.157461404800415
			},
			{
				"note": 47,
				"velocity": 100,
				"time": 0.018181833333333335,
				"elapsed": 11.175543546676636
			},
			{
				"note": 54,
				"velocity": 89,
				"time": 0.20227289583333335,
				"elapsed": 11.44838833808899
			},
			{
				"note": 59,
				"velocity": 100,
				"time": 0.2727275,
				"elapsed": 11.721036195755005
			},
			{
				"note": 59,
				"velocity": 0,
				"time": 0,
				"elapsed": 11.994049787521362
			},
			{
				"note": 62,
				"velocity": 94,
				"time": 0,
				"elapsed": 11.994121551513672
			},
			{
				"note": 62,
				"velocity": 0,
				"time": 0,
				"elapsed": 12.266635656356812
			},
			{
				"note": 61,
				"velocity": 87,
				"time": 0,
				"elapsed": 12.266689538955688
			},
			{
				"note": 61,
				"velocity": 0,
				"time": 0,
				"elapsed": 12.54507327079773
			},
			{
				"note": 59,
				"velocity": 87,
				"time": 0,
				"elapsed": 12.545092582702637
			},
			{
				"note": 54,
				"velocity": 0,
				"time": 0,
				"elapsed": 12.688427209854126
			},
			{
				"note": 54,
				"velocity": 85,
				"time": 0,
				"elapsed": 12.834718465805054
			},
			{
				"note": 47,
				"velocity": 0,
				"time": 0.07190551666666667,
				"elapsed": 12.98669981956482
			},
			{
				"note": 59,
				"velocity": 0,
				"time": 0,
				"elapsed": 13.140838384628296
			},
			{
				"note": 54,
				"velocity": 0,
				"time": 0.15408325,
				"elapsed": 13.294901609420776
			},
			{
				"note": 43,
				"velocity": 94,
				"time": 0.008988189583333334,
				"elapsed": 13.449015617370605
			},
			{
				"note": 50,
				"velocity": 94,
				"time": 0.041887725,
				"elapsed": 13.730194330215454
			},
			{
				"note": 55,
				"velocity": 79,
				"time": 0,
				"elapsed": 14.008529901504517
			},
			{
				"note": 59,
				"velocity": 105,
				"time": 0,
				"elapsed": 14.286385774612427
			},
			{
				"note": 50,
				"velocity": 0,
				"time": 0.13888899999999998,
				"elapsed": 14.563871383666992
			},
			{
				"note": 55,
				"velocity": 0,
				"time": 0.27777799999999997,
				"elapsed": 14.841634511947632
			},
			{
				"note": 50,
				"velocity": 89,
				"time": 0,
				"elapsed": 14.841992378234863
			},
			{
				"note": 55,
				"velocity": 87,
				"time": 0.27777799999999997,
				"elapsed": 15.119520902633667
			},
			{
				"note": 59,
				"velocity": 0,
				"time": 0.13888899999999998,
				"elapsed": 15.258283853530884
			},
			{
				"note": 43,
				"velocity": 0,
				"time": 0.13888899999999998,
				"elapsed": 15.397364854812622
			},
			{
				"note": 59,
				"velocity": 94,
				"time": 0,
				"elapsed": 15.397672891616821
			},
			{
				"note": 50,
				"velocity": 0,
				"time": 0.13888899999999998,
				"elapsed": 15.53607177734375
			},
			{
				"note": 59,
				"velocity": 0,
				"time": 0.017361124999999998,
				"elapsed": 15.60091257095337
			},
			{
				"note": 55,
				"velocity": 0,
				"time": 0.023148166666666664,
				"elapsed": 15.637971639633179
			},
			{
				"note": 45,
				"velocity": 98,
				"time": 0.03703706666666666,
				"elapsed": 15.675020694732666
			},
			{
				"note": 52,
				"velocity": 91,
				"time": 0.1921297833333333,
				"elapsed": 15.952760457992554
			},
			{
				"note": 57,
				"velocity": 96,
				"time": 0,
				"elapsed": 16.23073673248291
			},
			{
				"note": 61,
				"velocity": 100,
				"time": 0,
				"elapsed": 16.50855326652527
			},
			{
				"note": 52,
				"velocity": 0,
				"time": 0.13888899999999998,
				"elapsed": 16.92501449584961
			},
			{
				"note": 57,
				"velocity": 0,
				"time": 0,
				"elapsed": 17.064155340194702
			},
			{
				"note": 52,
				"velocity": 94,
				"time": 0,
				"elapsed": 17.0641872882843
			},
			{
				"note": 57,
				"velocity": 91,
				"time": 0,
				"elapsed": 17.34206795692444
			},
			{
				"note": 61,
				"velocity": 0,
				"time": 0.13888899999999998,
				"elapsed": 17.480515956878662
			},
			{
				"note": 45,
				"velocity": 0,
				"time": 0,
				"elapsed": 17.61960482597351
			},
			{
				"note": 52,
				"velocity": 0,
				"time": 0.13888899999999998,
				"elapsed": 17.75829029083252
			},
			{
				"note": 57,
				"velocity": 0,
				"time": 0,
				"elapsed": 17.841681480407715
			},
			{
				"note": 47,
				"velocity": 94,
				"time": 0,
				"elapsed": 17.8973286151886
			},
			{
				"note": 54,
				"velocity": 81,
				"time": 0.20486127499999995,
				"elapsed": 18.174981832504272
			},
			{
				"note": 59,
				"velocity": 81,
				"time": 0.13425936666666663,
				"elapsed": 18.452733278274536
			},
			{
				"note": 62,
				"velocity": 96,
				"time": 0.0046296333333333325,
				"elapsed": 18.730610132217407
			},
			{
				"note": 54,
				"velocity": 0,
				"time": 0.2754631833333333,
				"elapsed": 19.008299827575684
			},
			{
				"note": 59,
				"velocity": 0,
				"time": 0.27777799999999997,
				"elapsed": 19.28606605529785
			},
			{
				"note": 54,
				"velocity": 89,
				"time": 0,
				"elapsed": 19.28616213798523
			},
			{
				"note": 62,
				"velocity": 0,
				"time": 0,
				"elapsed": 19.42504096031189
			},
			{
				"note": 59,
				"velocity": 91,
				"time": 0,
				"elapsed": 19.564049243927002
			},
			{
				"note": 47,
				"velocity": 0,
				"time": 0,
				"elapsed": 19.84275507926941
			},
			{
				"note": 62,
				"velocity": 100,
				"time": 0,
				"elapsed": 19.84279227256775
			},
			{
				"note": 62,
				"velocity": 0,
				"time": 0.016317029166666663,
				"elapsed": 20.066004037857056
			},
			{
				"note": 59,
				"velocity": 0,
				"time": 0.016317029166666663,
				"elapsed": 20.084680318832397
			},
			{
				"note": 54,
				"velocity": 0,
				"time": 0,
				"elapsed": 20.084988355636597
			},
			{
				"note": 47,
				"velocity": 94,
				"time": 0,
				"elapsed": 20.122196912765503
			},
			{
				"note": 54,
				"velocity": 85,
				"time": 0,
				"elapsed": 20.408262014389038
			},
			{
				"note": 59,
				"velocity": 100,
				"time": 0,
				"elapsed": 20.70803928375244
			},
			{
				"note": 61,
				"velocity": 94,
				"time": 0.2679859,
				"elapsed": 21.016960859298706
			},
			{
				"note": 61,
				"velocity": 0,
				"time": 0.10178310624999999,
				"elapsed": 21.32611107826233
			},
			{
				"note": 62,
				"velocity": 94,
				"time": 0,
				"elapsed": 21.326317310333252
			},
			{
				"note": 62,
				"velocity": 0,
				"time": 0,
				"elapsed": 21.65363121032715
			},
			{
				"note": 66,
				"velocity": 85,
				"time": 0,
				"elapsed": 21.653679847717285
			},
			{
				"note": 66,
				"velocity": 0,
				"time": 0,
				"elapsed": 22.02742338180542
			},
			{
				"note": 71,
				"velocity": 81,
				"time": 0,
				"elapsed": 22.027461051940918
			},
			{
				"note": 47,
				"velocity": 0,
				"time": 0.007199425,
				"elapsed": 22.22189235687256
			},
			{
				"note": 59,
				"velocity": 0,
				"time": 0.023551575,
				"elapsed": 22.401095628738403
			},
			{
				"note": 54,
				"velocity": 0,
				"time": 0.0314021,
				"elapsed": 22.432636260986328
			},
			{
				"note": 71,
				"velocity": 0,
				"time": 0,
				"elapsed": 22.432848691940308
			},
			{
				"note": 42,
				"velocity": 100,
				"time": 0.013738418750000002,
				"elapsed": 22.463913440704346
			},
			{
				"note": 42,
				"velocity": 0,
				"time": 0,
				"elapsed": 22.927260398864746
			},
			{
				"note": 43,
				"velocity": 96,
				"time": 0,
				"elapsed": 22.927385807037354
			},
			{
				"note": 50,
				"velocity": 89,
				"time": 0.014858849999999998,
				"elapsed": 23.228676080703735
			},
			{
				"note": 55,
				"velocity": 79,
				"time": 0,
				"elapsed": 23.521355628967285
			},
			{
				"note": 59,
				"velocity": 105,
				"time": 0,
				"elapsed": 23.807345628738403
			},
			{
				"note": 50,
				"velocity": 0,
				"time": 0,
				"elapsed": 24.090834140777588
			},
			{
				"note": 55,
				"velocity": 0,
				"time": 0.013986025,
				"elapsed": 24.37170720100403
			},
			{
				"note": 50,
				"velocity": 89,
				"time": 0,
				"elapsed": 24.37187910079956
			},
			{
				"note": 55,
				"velocity": 87,
				"time": 0.09261833333333332,
				"elapsed": 24.65028476715088
			},
			{
				"note": 59,
				"velocity": 0,
				"time": 0.13892749999999998,
				"elapsed": 24.78925585746765
			},
			{
				"note": 43,
				"velocity": 0,
				"time": 0.13892749999999998,
				"elapsed": 24.92813539505005
			},
			{
				"note": 59,
				"velocity": 98,
				"time": 0,
				"elapsed": 24.928272008895874
			},
			{
				"note": 50,
				"velocity": 0,
				"time": 0.13892749999999998,
				"elapsed": 25.067065954208374
			},
			{
				"note": 55,
				"velocity": 0,
				"time": 0.010419562499999998,
				"elapsed": 25.150408267974854
			},
			{
				"note": 59,
				"velocity": 0,
				"time": 0.015050479166666665,
				"elapsed": 25.187517642974854
			},
			{
				"note": 45,
				"velocity": 94,
				"time": 0.018523666666666664,
				"elapsed": 25.206018924713135
			},
			{
				"note": 52,
				"velocity": 83,
				"time": 0.18407893749999998,
				"elapsed": 25.483856201171875
			},
			{
				"note": 57,
				"velocity": 91,
				"time": 0,
				"elapsed": 25.76210379600525
			},
			{
				"note": 61,
				"velocity": 102,
				"time": 0,
				"elapsed": 26.0396785736084
			},
			{
				"note": 52,
				"velocity": 0,
				"time": 0,
				"elapsed": 26.317530870437622
			},
			{
				"note": 57,
				"velocity": 0,
				"time": 0,
				"elapsed": 26.595720529556274
			},
			{
				"note": 52,
				"velocity": 87,
				"time": 0,
				"elapsed": 26.59580659866333
			},
			{
				"note": 57,
				"velocity": 91,
				"time": 0,
				"elapsed": 26.873259782791138
			},
			{
				"note": 61,
				"velocity": 0,
				"time": 0.13892749999999998,
				"elapsed": 27.01203966140747
			},
			{
				"note": 45,
				"velocity": 0,
				"time": 0,
				"elapsed": 27.151249408721924
			},
			{
				"note": 52,
				"velocity": 0,
				"time": 0.0011577291666666665,
				"elapsed": 27.373249530792236
			},
			{
				"note": 57,
				"velocity": 0,
				"time": 0.010419562499999998,
				"elapsed": 27.39185094833374
			},
			{
				"note": 47,
				"velocity": 94,
				"time": 0.015050479166666665,
				"elapsed": 27.428924560546875
			},
			{
				"note": 50,
				"velocity": 94,
				"time": 0.23038810416666664,
				"elapsed": 27.706730842590332
			},
			{
				"note": 54,
				"velocity": 85,
				"time": 0.04630916666666666,
				"elapsed": 27.98453664779663
			},
			{
				"note": 59,
				"velocity": 102,
				"time": 0.015577060416666667,
				"elapsed": 28.271714210510254
			},
			{
				"note": 50,
				"velocity": 0,
				"time": 0.015577060416666667,
				"elapsed": 28.559317588806152
			},
			{
				"note": 54,
				"velocity": 0,
				"time": 0.25472379166666664,
				"elapsed": 28.837637901306152
			},
			{
				"note": 50,
				"velocity": 83,
				"time": 0,
				"elapsed": 28.837867975234985
			},
			{
				"note": 59,
				"velocity": 0,
				"time": 0.2778805,
				"elapsed": 29.115514039993286
			},
			{
				"note": 54,
				"velocity": 91,
				"time": 0,
				"elapsed": 29.115711450576782
			},
			{
				"note": 47,
				"velocity": 0,
				"time": 0.2778805,
				"elapsed": 29.393368005752563
			},
			{
				"note": 59,
				"velocity": 96,
				"time": 0,
				"elapsed": 29.393672943115234
			},
			{
				"note": 54,
				"velocity": 0,
				"time": 0.009262683333333332,
				"elapsed": 29.615668058395386
			},
			{
				"note": 50,
				"velocity": 0,
				"time": 0,
				"elapsed": 29.61587882041931
			},
			{
				"note": 59,
				"velocity": 0,
				"time": 0.012736189583333331,
				"elapsed": 29.652710914611816
			},
			{
				"note": 47,
				"velocity": 100,
				"time": 0.0011578354166666665,
				"elapsed": 29.671257257461548
			},
			{
				"note": 54,
				"velocity": 89,
				"time": 0.19914769166666665,
				"elapsed": 29.949130296707153
			},
			{
				"note": 59,
				"velocity": 100,
				"time": 0.2778805,
				"elapsed": 30.22696852684021
			},
			{
				"note": 59,
				"velocity": 0,
				"time": 0,
				"elapsed": 30.50507640838623
			},
			{
				"note": 62,
				"velocity": 94,
				"time": 0,
				"elapsed": 30.505149126052856
			},
			{
				"note": 62,
				"velocity": 0,
				"time": 0,
				"elapsed": 30.782776832580566
			},
			{
				"note": 61,
				"velocity": 87,
				"time": 0,
				"elapsed": 30.78283929824829
			},
			{
				"note": 61,
				"velocity": 0,
				"time": 0,
				"elapsed": 31.0727641582489
			},
			{
				"note": 59,
				"velocity": 87,
				"time": 0,
				"elapsed": 31.072816133499146
			},
			{
				"note": 54,
				"velocity": 0,
				"time": 0,
				"elapsed": 31.22742462158203
			},
			{
				"note": 54,
				"velocity": 85,
				"time": 0,
				"elapsed": 31.389554500579834
			},
			{
				"note": 47,
				"velocity": 0,
				"time": 0,
				"elapsed": 31.55608057975769
			},
			{
				"note": 59,
				"velocity": 0,
				"time": 0,
				"elapsed": 31.72288680076599
			},
			{
				"note": 54,
				"velocity": 0,
				"time": 0.13893520833333334,
				"elapsed": 31.889429330825806
			},
			{
				"note": 43,
				"velocity": 94,
				"time": 0.06252084375,
				"elapsed": 32.056087255477905
			},
			{
				"note": 50,
				"velocity": 94,
				"time": 0,
				"elapsed": 32.34524083137512
			},
			{
				"note": 55,
				"velocity": 79,
				"time": 0.028161099999999998,
				"elapsed": 32.62765407562256
			},
			{
				"note": 59,
				"velocity": 105,
				"time": 0,
				"elapsed": 32.90832471847534
			},
			{
				"note": 50,
				"velocity": 0,
				"time": 0.07872558333333332,
				"elapsed": 33.18662619590759
			},
			{
				"note": 55,
				"velocity": 0,
				"time": 0.27785499999999996,
				"elapsed": 33.464518308639526
			},
			{
				"note": 50,
				"velocity": 89,
				"time": 0,
				"elapsed": 33.46460843086243
			},
			{
				"note": 55,
				"velocity": 87,
				"time": 0.27785499999999996,
				"elapsed": 33.74236249923706
			},
			{
				"note": 59,
				"velocity": 0,
				"time": 0.13892749999999998,
				"elapsed": 33.88130807876587
			},
			{
				"note": 43,
				"velocity": 0,
				"time": 0.13892749999999998,
				"elapsed": 34.02037835121155
			},
			{
				"note": 59,
				"velocity": 94,
				"time": 0,
				"elapsed": 34.02052021026611
			},
			{
				"note": 50,
				"velocity": 0,
				"time": 0.13892749999999998,
				"elapsed": 34.15915250778198
			},
			{
				"note": 55,
				"velocity": 0,
				"time": 0.01273502083333333,
				"elapsed": 34.26105713844299
			},
			{
				"note": 59,
				"velocity": 0,
				"time": 0.015050479166666665,
				"elapsed": 34.27958083152771
			},
			{
				"note": 45,
				"velocity": 98,
				"time": 0,
				"elapsed": 34.29834723472595
			},
			{
				"note": 52,
				"velocity": 91,
				"time": 0.23386129166666664,
				"elapsed": 34.57592487335205
			},
			{
				"note": 57,
				"velocity": 96,
				"time": 0,
				"elapsed": 34.854124307632446
			},
			{
				"note": 61,
				"velocity": 100,
				"time": 0,
				"elapsed": 35.13172960281372
			},
			{
				"note": 52,
				"velocity": 0,
				"time": 0.1342965833333333,
				"elapsed": 35.54839277267456
			},
			{
				"note": 57,
				"velocity": 0,
				"time": 0,
				"elapsed": 35.687541484832764
			},
			{
				"note": 52,
				"velocity": 94,
				"time": 0,
				"elapsed": 35.687617778778076
			},
			{
				"note": 57,
				"velocity": 91,
				"time": 0,
				"elapsed": 35.96530222892761
			},
			{
				"note": 61,
				"velocity": 0,
				"time": 0,
				"elapsed": 36.10424089431763
			},
			{
				"note": 45,
				"velocity": 0,
				"time": 0,
				"elapsed": 36.243115186691284
			},
			{
				"note": 52,
				"velocity": 0,
				"time": 0,
				"elapsed": 36.38230752944946
			},
			{
				"note": 57,
				"velocity": 0,
				"time": 0.010419562499999998,
				"elapsed": 36.48391532897949
			},
			{
				"note": 47,
				"velocity": 94,
				"time": 0,
				"elapsed": 36.52153253555298
			},
			{
				"note": 54,
				"velocity": 81,
				"time": 0.21302216666666662,
				"elapsed": 36.79874849319458
			},
			{
				"note": 59,
				"velocity": 81,
				"time": 0.27785499999999996,
				"elapsed": 37.07663559913635
			},
			{
				"note": 62,
				"velocity": 96,
				"time": 0.27785499999999996,
				"elapsed": 37.35451102256775
			},
			{
				"note": 54,
				"velocity": 0,
				"time": 0.27785499999999996,
				"elapsed": 37.632306814193726
			},
			{
				"note": 59,
				"velocity": 0,
				"time": 0.27785499999999996,
				"elapsed": 37.910306453704834
			},
			{
				"note": 54,
				"velocity": 89,
				"time": 0,
				"elapsed": 37.910595178604126
			},
			{
				"note": 62,
				"velocity": 0,
				"time": 0.13892749999999998,
				"elapsed": 38.04913854598999
			},
			{
				"note": 59,
				"velocity": 91,
				"time": 0.13892749999999998,
				"elapsed": 38.1881685256958
			},
			{
				"note": 47,
				"velocity": 0,
				"time": 0.27785499999999996,
				"elapsed": 38.46587371826172
			},
			{
				"note": 62,
				"velocity": 100,
				"time": 0,
				"elapsed": 38.46600151062012
			},
			{
				"note": 59,
				"velocity": 0,
				"time": 0.0382050625,
				"elapsed": 38.688185930252075
			},
			{
				"note": 54,
				"velocity": 0,
				"time": 0.018523666666666664,
				"elapsed": 38.706679344177246
			},
			{
				"note": 62,
				"velocity": 0,
				"time": 0.011577291666666665,
				"elapsed": 38.7252197265625
			},
			{
				"note": 47,
				"velocity": 94,
				"time": 0,
				"elapsed": 38.74398946762085
			},
			{
				"note": 54,
				"velocity": 85,
				"time": 0.06515868333333333,
				"elapsed": 39.022554874420166
			},
			{
				"note": 59,
				"velocity": 100,
				"time": 0,
				"elapsed": 39.302353382110596
			},
			{
				"note": 61,
				"velocity": 94,
				"time": 0.06570923333333333,
				"elapsed": 39.583441495895386
			},
			{
				"note": 61,
				"velocity": 0,
				"time": 0,
				"elapsed": 39.865928649902344
			},
			{
				"note": 62,
				"velocity": 94,
				"time": 0,
				"elapsed": 39.866077184677124
			},
			{
				"note": 62,
				"velocity": 0,
				"time": 0.066269,
				"elapsed": 40.149085998535156
			},
			{
				"note": 66,
				"velocity": 85,
				"time": 0,
				"elapsed": 40.14927887916565
			},
			{
				"note": 66,
				"velocity": 0,
				"time": 0,
				"elapsed": 40.43402695655823
			},
			{
				"note": 71,
				"velocity": 81,
				"time": 0,
				"elapsed": 40.43406844139099
			},
			{
				"note": 71,
				"velocity": 0,
				"time": 0.06683856666666667,
				"elapsed": 40.719602823257446
			},
			{
				"note": 73,
				"velocity": 102,
				"time": 0,
				"elapsed": 40.71969652175903
			},
			{
				"note": 47,
				"velocity": 0,
				"time": 0.0860832,
				"elapsed": 40.85341477394104
			},
			{
				"note": 54,
				"velocity": 0,
				"time": 0,
				"elapsed": 40.863139152526855
			},
			{
				"note": 59,
				"velocity": 0,
				"time": 0,
				"elapsed": 40.86315965652466
			},
			{
				"note": 73,
				"velocity": 0,
				"time": 0,
				"elapsed": 41.006916999816895
			},
			{
				"note": 47,
				"velocity": 94,
				"time": 0,
				"elapsed": 41.00693869590759
			},
			{
				"note": 54,
				"velocity": 81,
				"time": 0.20023164166666663,
				"elapsed": 41.28473901748657
			},
			{
				"note": 59,
				"velocity": 81,
				"time": 0.27777799999999997,
				"elapsed": 41.56252193450928
			},
			{
				"note": 64,
				"velocity": 96,
				"time": 0.27777799999999997,
				"elapsed": 41.84042716026306
			},
			{
				"note": 54,
				"velocity": 0,
				"time": 0.27777799999999997,
				"elapsed": 42.11810326576233
			},
			{
				"note": 59,
				"velocity": 0,
				"time": 0.27777799999999997,
				"elapsed": 42.39590263366699
			},
			{
				"note": 54,
				"velocity": 89,
				"time": 0,
				"elapsed": 42.39628863334656
			},
			{
				"note": 64,
				"velocity": 0,
				"time": 0.13888899999999998,
				"elapsed": 42.53479051589966
			},
			{
				"note": 59,
				"velocity": 91,
				"time": 0.13888899999999998,
				"elapsed": 42.67363500595093
			},
			{
				"note": 47,
				"velocity": 0,
				"time": 0,
				"elapsed": 42.95180702209473
			},
			{
				"note": 64,
				"velocity": 100,
				"time": 0,
				"elapsed": 42.95185303688049
			},
			{
				"note": 59,
				"velocity": 0,
				"time": 0.011574083333333332,
				"elapsed": 43.17365074157715
			},
			{
				"note": 54,
				"velocity": 0,
				"time": 0,
				"elapsed": 43.173816442489624
			},
			{
				"note": 64,
				"velocity": 0,
				"time": 0.03703706666666666,
				"elapsed": 43.21069359779358
			},
			{
				"note": 35,
				"velocity": 80,
				"time": 0,
				"elapsed": 43.229700326919556
			},
			{
				"note": 47,
				"velocity": 80,
				"time": 0,
				"elapsed": 43.22976636886597
			},
			{
				"note": 54,
				"velocity": 84,
				"time": 0,
				"elapsed": 43.51359987258911
			},
			{
				"note": 59,
				"velocity": 78,
				"time": 0,
				"elapsed": 43.816654443740845
			},
			{
				"note": 64,
				"velocity": 93,
				"time": 0,
				"elapsed": 44.14157509803772
			},
			{
				"note": 54,
				"velocity": 0,
				"time": 0.005837708333333333,
				"elapsed": 44.31876850128174
			},
			{
				"note": 35,
				"velocity": 0,
				"time": 0,
				"elapsed": 44.34226942062378
			},
			{
				"note": 47,
				"velocity": 0,
				"time": 0,
				"elapsed": 44.3424129486084
			},
			{
				"note": 59,
				"velocity": 0,
				"time": 0.005912258333333333,
				"elapsed": 44.37751054763794
			},
			{
				"note": 47,
				"velocity": 81,
				"time": 0.015069312499999998,
				"elapsed": 44.47004055976868
			},
			{
				"note": 64,
				"velocity": 0,
				"time": 0.004530625,
				"elapsed": 44.49121570587158
			},
			{
				"note": 59,
				"velocity": 76,
				"time": 0.00906125,
				"elapsed": 44.527403593063354
			},
			{
				"note": 63,
				"velocity": 92,
				"time": 0.0030204166666666665,
				"elapsed": 44.569679260253906
			},
			{
				"note": 66,
				"velocity": 67,
				"time": 0.013591875,
				"elapsed": 44.610469579696655
			},
			{
				"note": 66,
				"velocity": 0,
				"time": 0.0121084875,
				"elapsed": 45.92647981643677
			},
			{
				"note": 63,
				"velocity": 0,
				"time": 0,
				"elapsed": 45.92656660079956
			},
			{
				"note": 59,
				"velocity": 0,
				"time": 0,
				"elapsed": 45.926594495773315
			},
			{
				"note": 47,
				"velocity": 0,
				"time": 0.0282531375,
				"elapsed": 45.95878028869629
			},
			{
				"note": 52,
				"velocity": 74,
				"time": 0,
				"elapsed": 46.15970706939697
			},
			{
				"note": 59,
				"velocity": 78,
				"time": 0,
				"elapsed": 46.4679651260376
			},
			{
				"note": 64,
				"velocity": 70,
				"time": 0,
				"elapsed": 46.761826515197754
			},
			{
				"note": 68,
				"velocity": 74,
				"time": 0.020220756249999996,
				"elapsed": 47.047518253326416
			},
			{
				"note": 59,
				"velocity": 0,
				"time": 0.0142005,
				"elapsed": 47.35607886314392
			},
			{
				"note": 59,
				"velocity": 80,
				"time": 0.1323126,
				"elapsed": 47.61607885360718
			},
			{
				"note": 64,
				"velocity": 0,
				"time": 0.051891675,
				"elapsed": 47.67750954627991
			},
			{
				"note": 64,
				"velocity": 63,
				"time": 0.0635772375,
				"elapsed": 47.89890789985657
			},
			{
				"note": 68,
				"velocity": 0,
				"time": 0.06582041666666667,
				"elapsed": 47.97458338737488
			},
			{
				"note": 52,
				"velocity": 0,
				"time": 0.03285461666666666,
				"elapsed": 48.147979974746704
			},
			{
				"note": 59,
				"velocity": 0,
				"time": 0,
				"elapsed": 48.18090534210205
			},
			{
				"note": 68,
				"velocity": 78,
				"time": 0,
				"elapsed": 48.18093752861023
			},
			{
				"note": 64,
				"velocity": 0,
				"time": 0.009355416666666666,
				"elapsed": 48.38690137863159
			},
			{
				"note": 68,
				"velocity": 0,
				"time": 0.012863697916666667,
				"elapsed": 48.424302101135254
			},
			{
				"note": 54,
				"velocity": 93,
				"time": 0.03274395833333333,
				"elapsed": 48.46170735359192
			},
			{
				"note": 61,
				"velocity": 86,
				"time": 0.1305362333333333,
				"elapsed": 48.74186635017395
			},
			{
				"note": 66,
				"velocity": 84,
				"time": 0,
				"elapsed": 49.020848751068115
			},
			{
				"note": 70,
				"velocity": 70,
				"time": 0.04398151666666666,
				"elapsed": 49.29879355430603
			},
			{
				"note": 61,
				"velocity": 0,
				"time": 0.32060210833333325,
				"elapsed": 49.62286424636841
			},
			{
				"note": 61,
				"velocity": 84,
				"time": 0,
				"elapsed": 49.85457372665405
			},
			{
				"note": 66,
				"velocity": 0,
				"time": 0.027777799999999995,
				"elapsed": 49.900694370269775
			},
			{
				"note": 66,
				"velocity": 63,
				"time": 0.2314816666666666,
				"elapsed": 50.13221573829651
			},
			{
				"note": 70,
				"velocity": 0,
				"time": 0.09259266666666666,
				"elapsed": 50.22486114501953
			},
			{
				"note": 54,
				"velocity": 0,
				"time": 0.009259266666666665,
				"elapsed": 50.41916823387146
			},
			{
				"note": 61,
				"velocity": 0,
				"time": 0.027777799999999995,
				"elapsed": 50.44697141647339
			},
			{
				"note": 66,
				"velocity": 0,
				"time": 0.012731491666666664,
				"elapsed": 50.63210701942444
			},
			{
				"note": 56,
				"velocity": 82,
				"time": 0.0023148166666666662,
				"elapsed": 50.68768835067749
			},
			{
				"note": 63,
				"velocity": 88,
				"time": 0.23958352499999996,
				"elapsed": 50.96548938751221
			},
			{
				"note": 68,
				"velocity": 78,
				"time": 0,
				"elapsed": 51.24342441558838
			},
			{
				"note": 71,
				"velocity": 93,
				"time": 0,
				"elapsed": 51.521167278289795
			},
			{
				"note": 63,
				"velocity": 0,
				"time": 0.027777799999999995,
				"elapsed": 51.80806827545166
			},
			{
				"note": 63,
				"velocity": 82,
				"time": 0,
				"elapsed": 52.07676553726196
			},
			{
				"note": 68,
				"velocity": 0,
				"time": 0.0046296333333333325,
				"elapsed": 52.08124899864197
			},
			{
				"note": 68,
				"velocity": 93,
				"time": 0,
				"elapsed": 52.354591846466064
			},
			{
				"note": 71,
				"velocity": 0,
				"time": 0.06944449999999999,
				"elapsed": 52.423824071884155
			},
			{
				"note": 68,
				"velocity": 0,
				"time": 0.1990742333333333,
				"elapsed": 52.62288522720337
			},
			{
				"note": 71,
				"velocity": 93,
				"time": 0.009259266666666665,
				"elapsed": 52.63210964202881
			},
			{
				"note": 63,
				"velocity": 0,
				"time": 0.01851853333333333,
				"elapsed": 52.65062355995178
			},
			{
				"note": 56,
				"velocity": 0,
				"time": 0.013888899999999997,
				"elapsed": 52.66455149650574
			},
			{
				"note": 71,
				"velocity": 0,
				"time": 0,
				"elapsed": 52.891539573669434
			},
			{
				"note": 44,
				"velocity": 87,
				"time": 0.01851853333333333,
				"elapsed": 52.90992593765259
			},
			{
				"note": 56,
				"velocity": 86,
				"time": 0.1678242083333333,
				"elapsed": 53.18770885467529
			},
			{
				"note": 63,
				"velocity": 74,
				"time": 0.27777799999999997,
				"elapsed": 53.465468645095825
			},
			{
				"note": 68,
				"velocity": 74,
				"time": 0.27777799999999997,
				"elapsed": 53.743324995040894
			},
			{
				"note": 56,
				"velocity": 0,
				"time": 0.060185233333333324,
				"elapsed": 53.80352711677551
			},
			{
				"note": 44,
				"velocity": 0,
				"time": 0.009259266666666665,
				"elapsed": 53.81270933151245
			},
			{
				"note": 63,
				"velocity": 0,
				"time": 0.009259266666666665,
				"elapsed": 54.002676248550415
			},
			{
				"note": 68,
				"velocity": 0,
				"time": 0,
				"elapsed": 54.00275540351868
			},
			{
				"note": 42,
				"velocity": 85,
				"time": 0,
				"elapsed": 54.02148628234863
			},
			{
				"note": 54,
				"velocity": 90,
				"time": 0.17592606666666663,
				"elapsed": 54.29886078834534
			},
			{
				"note": 61,
				"velocity": 74,
				"time": 0,
				"elapsed": 54.5772442817688
			},
			{
				"note": 42,
				"velocity": 0,
				"time": 0.00472545,
				"elapsed": 54.83531999588013
			},
			{
				"note": 66,
				"velocity": 84,
				"time": 0.02362725,
				"elapsed": 54.858967781066895
			},
			{
				"note": 54,
				"velocity": 0,
				"time": 0,
				"elapsed": 55.01075005531311
			},
			{
				"note": 61,
				"velocity": 0,
				"time": 0.019063966666666664,
				"elapsed": 55.02977466583252
			},
			{
				"note": 66,
				"velocity": 0,
				"time": 0.002387091666666667,
				"elapsed": 55.087069511413574
			},
			{
				"note": 52,
				"velocity": 77,
				"time": 0.008101858333333331,
				"elapsed": 55.14395451545715
			},
			{
				"note": 59,
				"velocity": 77,
				"time": 0.17592606666666663,
				"elapsed": 55.42177677154541
			},
			{
				"note": 64,
				"velocity": 80,
				"time": 0.27777799999999997,
				"elapsed": 55.699583768844604
			},
			{
				"note": 68,
				"velocity": 99,
				"time": 0.0046296333333333325,
				"elapsed": 55.97732162475586
			},
			{
				"note": 59,
				"velocity": 0,
				"time": 0.07407413333333332,
				"elapsed": 56.343064069747925
			},
			{
				"note": 59,
				"velocity": 59,
				"time": 0.18981496666666664,
				"elapsed": 56.53288435935974
			},
			{
				"note": 64,
				"velocity": 0,
				"time": 0.06597227499999998,
				"elapsed": 56.625508308410645
			},
			{
				"note": 64,
				"velocity": 73,
				"time": 0.1331019583333333,
				"elapsed": 56.81078791618347
			},
			{
				"note": 68,
				"velocity": 0,
				"time": 0.09722229999999998,
				"elapsed": 56.90787982940674
			},
			{
				"note": 68,
				"velocity": 82,
				"time": 0.0034722249999999994,
				"elapsed": 57.0884792804718
			},
			{
				"note": 52,
				"velocity": 0,
				"time": 0.032407433333333326,
				"elapsed": 57.12083315849304
			},
			{
				"note": 59,
				"velocity": 0,
				"time": 0.023148166666666664,
				"elapsed": 57.14396786689758
			},
			{
				"note": 64,
				"velocity": 0,
				"time": 0.0011574083333333331,
				"elapsed": 57.31063652038574
			},
			{
				"note": 68,
				"velocity": 0,
				"time": 0.008101858333333331,
				"elapsed": 57.3477303981781
			},
			{
				"note": 54,
				"velocity": 93,
				"time": 0.009259266666666665,
				"elapsed": 57.36622357368469
			},
			{
				"note": 61,
				"velocity": 84,
				"time": 0.24537056666666662,
				"elapsed": 57.64415693283081
			},
			{
				"note": 66,
				"velocity": 71,
				"time": 0.0011574083333333331,
				"elapsed": 57.921717166900635
			},
			{
				"note": 70,
				"velocity": 84,
				"time": 0.05439819166666666,
				"elapsed": 58.199512243270874
			},
			{
				"note": 61,
				"velocity": 0,
				"time": 0.28125022499999996,
				"elapsed": 58.50052762031555
			},
			{
				"note": 61,
				"velocity": 74,
				"time": 0,
				"elapsed": 58.75537610054016
			},
			{
				"note": 66,
				"velocity": 0,
				"time": 0.009259266666666665,
				"elapsed": 58.76438903808594
			},
			{
				"note": 66,
				"velocity": 63,
				"time": 0.26851873333333326,
				"elapsed": 59.03303575515747
			},
			{
				"note": 70,
				"velocity": 0,
				"time": 0.08796303333333332,
				"elapsed": 59.120925426483154
			},
			{
				"note": 54,
				"velocity": 0,
				"time": 0,
				"elapsed": 59.3293662071228
			},
			{
				"note": 61,
				"velocity": 0,
				"time": 0.041666699999999994,
				"elapsed": 59.37081027030945
			},
			{
				"note": 66,
				"velocity": 0,
				"time": 0,
				"elapsed": 59.55147409439087
			},
			{
				"note": 56,
				"velocity": 93,
				"time": 0.009259266666666665,
				"elapsed": 59.58860516548157
			},
			{
				"note": 63,
				"velocity": 80,
				"time": 0.2511576083333333,
				"elapsed": 59.866188526153564
			},
			{
				"note": 68,
				"velocity": 75,
				"time": 0.0023148166666666662,
				"elapsed": 60.14401173591614
			},
			{
				"note": 71,
				"velocity": 75,
				"time": 0.0011574083333333331,
				"elapsed": 60.421756982803345
			},
			{
				"note": 63,
				"velocity": 0,
				"time": 0.26388909999999993,
				"elapsed": 60.69505858421326
			},
			{
				"note": 68,
				"velocity": 0,
				"time": 0.27777799999999997,
				"elapsed": 60.97271394729614
			},
			{
				"note": 63,
				"velocity": 58,
				"time": 0.0046296333333333325,
				"elapsed": 60.97739362716675
			},
			{
				"note": 68,
				"velocity": 63,
				"time": 0.27777799999999997,
				"elapsed": 61.2552056312561
			},
			{
				"note": 71,
				"velocity": 0,
				"time": 0.1435186333333333,
				"elapsed": 61.39860773086548
			},
			{
				"note": 71,
				"velocity": 75,
				"time": 0.13425936666666663,
				"elapsed": 61.53288984298706
			},
			{
				"note": 56,
				"velocity": 0,
				"time": 0.011574083333333332,
				"elapsed": 61.62557125091553
			},
			{
				"note": 68,
				"velocity": 0,
				"time": 0.04398151666666666,
				"elapsed": 61.73656368255615
			},
			{
				"note": 63,
				"velocity": 0,
				"time": 0.01851853333333333,
				"elapsed": 61.75511717796326
			},
			{
				"note": 71,
				"velocity": 0,
				"time": 0,
				"elapsed": 61.7552707195282
			},
			{
				"note": 44,
				"velocity": 74,
				"time": 0.0034722249999999994,
				"elapsed": 61.81062722206116
			},
			{
				"note": 51,
				"velocity": 88,
				"time": 0.2673613249999999,
				"elapsed": 62.0884747505188
			},
			{
				"note": 56,
				"velocity": 99,
				"time": 0.27777799999999997,
				"elapsed": 62.3663330078125
			},
			{
				"note": 63,
				"velocity": 115,
				"time": 0.27777799999999997,
				"elapsed": 62.64400625228882
			},
			{
				"note": 68,
				"velocity": 78,
				"time": 0.27777799999999997,
				"elapsed": 62.92177391052246
			},
			{
				"note": 59,
				"velocity": 82,
				"time": 0,
				"elapsed": 63.20395278930664
			},
			{
				"note": 56,
				"velocity": 0,
				"time": 0,
				"elapsed": 63.36089849472046
			},
			{
				"note": 56,
				"velocity": 68,
				"time": 0,
				"elapsed": 63.502357006073
			},
			{
				"note": 44,
				"velocity": 0,
				"time": 0.026376874999999998,
				"elapsed": 63.668853998184204
			},
			{
				"note": 42,
				"velocity": 73,
				"time": 0.00923190625,
				"elapsed": 63.816495180130005
			},
			{
				"note": 63,
				"velocity": 0,
				"time": 0.023739187499999998,
				"elapsed": 63.943172454833984
			},
			{
				"note": 68,
				"velocity": 0,
				"time": 0.042203,
				"elapsed": 63.98534536361694
			},
			{
				"note": 59,
				"velocity": 0,
				"time": 0.0046296333333333325,
				"elapsed": 64.00579047203064
			},
			{
				"note": 51,
				"velocity": 0,
				"time": 0.01851853333333333,
				"elapsed": 64.02436757087708
			},
			{
				"note": 56,
				"velocity": 0,
				"time": 0.03703706666666666,
				"elapsed": 64.06137490272522
			},
			{
				"note": 42,
				"velocity": 0,
				"time": 0.020833349999999997,
				"elapsed": 64.11693620681763
			},
			{
				"note": 40,
				"velocity": 88,
				"time": 0,
				"elapsed": 64.11724066734314
			},
			{
				"note": 59,
				"velocity": 68,
				"time": 0.13888899999999998,
				"elapsed": 64.39475965499878
			},
			{
				"note": 64,
				"velocity": 74,
				"time": 0.27777799999999997,
				"elapsed": 64.67248606681824
			},
			{
				"note": 68,
				"velocity": 90,
				"time": 0.011574083333333332,
				"elapsed": 64.95024967193604
			},
			{
				"note": 59,
				"velocity": 0,
				"time": 0.017361124999999998,
				"elapsed": 65.2558696269989
			},
			{
				"note": 59,
				"velocity": 61,
				"time": 0.25000019999999995,
				"elapsed": 65.50577163696289
			},
			{
				"note": 64,
				"velocity": 0,
				"time": 0.013888899999999997,
				"elapsed": 65.51968383789062
			},
			{
				"note": 64,
				"velocity": 82,
				"time": 0.10416674999999997,
				"elapsed": 65.7836697101593
			},
			{
				"note": 68,
				"velocity": 0,
				"time": 0.04629633333333333,
				"elapsed": 65.82995271682739
			},
			{
				"note": 40,
				"velocity": 0,
				"time": 0.15277789999999997,
				"elapsed": 65.98276495933533
			},
			{
				"note": 68,
				"velocity": 80,
				"time": 0.05902782499999999,
				"elapsed": 66.06143140792847
			},
			{
				"note": 59,
				"velocity": 0,
				"time": 0.049768558333333324,
				"elapsed": 66.11239457130432
			},
			{
				"note": 64,
				"velocity": 0,
				"time": 0.012731491666666664,
				"elapsed": 66.30211234092712
			},
			{
				"note": 68,
				"velocity": 0,
				"time": 0.0011574083333333331,
				"elapsed": 66.32056832313538
			},
			{
				"note": 42,
				"velocity": 84,
				"time": 0.006944449999999999,
				"elapsed": 66.33913969993591
			},
			{
				"note": 61,
				"velocity": 82,
				"time": 0.2407409333333333,
				"elapsed": 66.61690998077393
			},
			{
				"note": 66,
				"velocity": 75,
				"time": 0.27777799999999997,
				"elapsed": 66.89470362663269
			},
			{
				"note": 70,
				"velocity": 80,
				"time": 0.04629633333333333,
				"elapsed": 67.17263269424438
			},
			{
				"note": 61,
				"velocity": 0,
				"time": 0.27662059166666664,
				"elapsed": 67.46414566040039
			},
			{
				"note": 66,
				"velocity": 0,
				"time": 0.20833349999999995,
				"elapsed": 67.67251753807068
			},
			{
				"note": 61,
				"velocity": 70,
				"time": 0,
				"elapsed": 67.7283673286438
			},
			{
				"note": 66,
				"velocity": 77,
				"time": 0.27777799999999997,
				"elapsed": 68.00581192970276
			},
			{
				"note": 70,
				"velocity": 0,
				"time": 0.08333339999999999,
				"elapsed": 68.08926010131836
			},
			{
				"note": 70,
				"velocity": 80,
				"time": 0,
				"elapsed": 68.28368210792542
			},
			{
				"note": 42,
				"velocity": 0,
				"time": 0.009259266666666665,
				"elapsed": 68.29282236099243
			},
			{
				"note": 61,
				"velocity": 0,
				"time": 0.060185233333333324,
				"elapsed": 68.36688470840454
			},
			{
				"note": 66,
				"velocity": 0,
				"time": 0.005787041666666666,
				"elapsed": 68.48734402656555
			},
			{
				"note": 70,
				"velocity": 0,
				"time": 0.012731491666666664,
				"elapsed": 68.52432799339294
			},
			{
				"note": 44,
				"velocity": 90,
				"time": 0.0011574083333333331,
				"elapsed": 68.5613341331482
			},
			{
				"note": 63,
				"velocity": 80,
				"time": 0.2314816666666666,
				"elapsed": 68.83916187286377
			},
			{
				"note": 68,
				"velocity": 71,
				"time": 0,
				"elapsed": 69.11695551872253
			},
			{
				"note": 71,
				"velocity": 80,
				"time": 0,
				"elapsed": 69.3949384689331
			},
			{
				"note": 63,
				"velocity": 0,
				"time": 0.08101858333333332,
				"elapsed": 69.72348499298096
			},
			{
				"note": 68,
				"velocity": 0,
				"time": 0.21759276666666663,
				"elapsed": 69.9411211013794
			},
			{
				"note": 63,
				"velocity": 75,
				"time": 0,
				"elapsed": 69.95032238960266
			},
			{
				"note": 68,
				"velocity": 77,
				"time": 0,
				"elapsed": 70.22816181182861
			},
			{
				"note": 71,
				"velocity": 0,
				"time": 0.032407433333333326,
				"elapsed": 70.26043438911438
			},
			{
				"note": 68,
				"velocity": 0,
				"time": 0.2314816666666666,
				"elapsed": 70.4918897151947
			},
			{
				"note": 63,
				"velocity": 0,
				"time": 0,
				"elapsed": 70.49199438095093
			},
			{
				"note": 71,
				"velocity": 95,
				"time": 0.013888899999999997,
				"elapsed": 70.50583934783936
			},
			{
				"note": 44,
				"velocity": 0,
				"time": 0.032407433333333326,
				"elapsed": 70.53822875022888
			},
			{
				"note": 71,
				"velocity": 0,
				"time": 0.010416674999999999,
				"elapsed": 70.74654865264893
			},
			{
				"note": 44,
				"velocity": 86,
				"time": 0.013888899999999997,
				"elapsed": 70.78355526924133
			},
			{
				"note": 56,
				"velocity": 73,
				"time": 0.22916684999999995,
				"elapsed": 71.06139588356018
			},
			{
				"note": 63,
				"velocity": 74,
				"time": 0.27777799999999997,
				"elapsed": 71.33913016319275
			},
			{
				"note": 68,
				"velocity": 77,
				"time": 0.27777799999999997,
				"elapsed": 71.61691498756409
			},
			{
				"note": 56,
				"velocity": 0,
				"time": 0.05555559999999999,
				"elapsed": 71.6724796295166
			},
			{
				"note": 44,
				"velocity": 0,
				"time": 0.023148166666666664,
				"elapsed": 71.69567275047302
			},
			{
				"note": 42,
				"velocity": 86,
				"time": 0,
				"elapsed": 71.8950891494751
			},
			{
				"note": 54,
				"velocity": 58,
				"time": 0,
				"elapsed": 72.17628955841064
			},
			{
				"note": 63,
				"velocity": 0,
				"time": 0.014201849999999999,
				"elapsed": 72.19040966033936
			},
			{
				"note": 68,
				"velocity": 0,
				"time": 0.023905125,
				"elapsed": 72.38068914413452
			},
			{
				"note": 61,
				"velocity": 78,
				"time": 0,
				"elapsed": 72.46225142478943
			},
			{
				"note": 42,
				"velocity": 0,
				"time": 0.006082135416666666,
				"elapsed": 72.66510128974915
			},
			{
				"note": 66,
				"velocity": 95,
				"time": 0,
				"elapsed": 72.75280809402466
			},
			{
				"note": 61,
				"velocity": 0,
				"time": 0.014708775,
				"elapsed": 72.80666637420654
			},
			{
				"note": 66,
				"velocity": 0,
				"time": 0.016098685416666668,
				"elapsed": 73.00863695144653
			},
			{
				"note": 54,
				"velocity": 0,
				"time": 0.0024831166666666664,
				"elapsed": 73.02348732948303
			},
			{
				"note": 40,
				"velocity": 78,
				"time": 0.006207791666666666,
				"elapsed": 73.04837656021118
			},
			{
				"note": 59,
				"velocity": 66,
				"time": 0,
				"elapsed": 73.33019375801086
			},
			{
				"note": 64,
				"velocity": 80,
				"time": 0.07638894999999998,
				"elapsed": 73.6083664894104
			},
			{
				"note": 68,
				"velocity": 95,
				"time": 0.11111119999999998,
				"elapsed": 73.88614869117737
			},
			{
				"note": 59,
				"velocity": 0,
				"time": 0.06365745833333332,
				"elapsed": 74.21951293945312
			},
			{
				"note": 59,
				"velocity": 60,
				"time": 0.22222239999999996,
				"elapsed": 74.44169855117798
			},
			{
				"note": 64,
				"velocity": 0,
				"time": 0.10185193333333331,
				"elapsed": 74.54362726211548
			},
			{
				"note": 64,
				"velocity": 84,
				"time": 0.1296297333333333,
				"elapsed": 74.71955370903015
			},
			{
				"note": 68,
				"velocity": 0,
				"time": 0.16666679999999998,
				"elapsed": 74.8861997127533
			},
			{
				"note": 68,
				"velocity": 84,
				"time": 0.05208337499999999,
				"elapsed": 74.99735879898071
			},
			{
				"note": 59,
				"velocity": 0,
				"time": 0.028935208333333327,
				"elapsed": 75.0343017578125
			},
			{
				"note": 40,
				"velocity": 0,
				"time": 0.027777799999999995,
				"elapsed": 75.06209111213684
			},
			{
				"note": 64,
				"velocity": 0,
				"time": 0,
				"elapsed": 75.21961402893066
			},
			{
				"note": 68,
				"velocity": 0,
				"time": 0.0046296333333333325,
				"elapsed": 75.25647783279419
			},
			{
				"note": 42,
				"velocity": 93,
				"time": 0,
				"elapsed": 75.27518439292908
			},
			{
				"note": 61,
				"velocity": 86,
				"time": 0.2372687083333333,
				"elapsed": 75.55288004875183
			},
			{
				"note": 66,
				"velocity": 77,
				"time": 0.006944449999999999,
				"elapsed": 75.8306393623352
			},
			{
				"note": 70,
				"velocity": 75,
				"time": 0.010416674999999999,
				"elapsed": 76.10838317871094
			},
			{
				"note": 61,
				"velocity": 0,
				"time": 0.3634262166666666,
				"elapsed": 76.47886395454407
			},
			{
				"note": 66,
				"velocity": 0,
				"time": 0.027777799999999995,
				"elapsed": 76.65470123291016
			},
			{
				"note": 61,
				"velocity": 84,
				"time": 0,
				"elapsed": 76.66426205635071
			},
			{
				"note": 70,
				"velocity": 0,
				"time": 0.27314836666666664,
				"elapsed": 76.93708539009094
			},
			{
				"note": 66,
				"velocity": 70,
				"time": 0.0046296333333333325,
				"elapsed": 76.94173502922058
			},
			{
				"note": 66,
				"velocity": 0,
				"time": 0.2129631333333333,
				"elapsed": 77.15469765663147
			},
			{
				"note": 61,
				"velocity": 0,
				"time": 0,
				"elapsed": 77.20126128196716
			},
			{
				"note": 42,
				"velocity": 0,
				"time": 0,
				"elapsed": 77.20136165618896
			},
			{
				"note": 70,
				"velocity": 80,
				"time": 0,
				"elapsed": 77.21972942352295
			},
			{
				"note": 70,
				"velocity": 0,
				"time": 0.03587965833333333,
				"elapsed": 77.47872877120972
			},
			{
				"note": 44,
				"velocity": 74,
				"time": 0.0023148166666666662,
				"elapsed": 77.49729466438293
			},
			{
				"note": 51,
				"velocity": 60,
				"time": 0.23611129999999997,
				"elapsed": 77.77506303787231
			},
			{
				"note": 56,
				"velocity": 88,
				"time": 0.27777799999999997,
				"elapsed": 78.05285358428955
			},
			{
				"note": 63,
				"velocity": 77,
				"time": 0.27777799999999997,
				"elapsed": 78.33067989349365
			},
			{
				"note": 68,
				"velocity": 95,
				"time": 0,
				"elapsed": 78.60864877700806
			},
			{
				"note": 71,
				"velocity": 82,
				"time": 0.2673613249999999,
				"elapsed": 78.8861756324768
			},
			{
				"note": 75,
				"velocity": 108,
				"time": 0,
				"elapsed": 79.16424584388733
			},
			{
				"note": 63,
				"velocity": 0,
				"time": 0.013888899999999997,
				"elapsed": 79.17784452438354
			},
			{
				"note": 68,
				"velocity": 0,
				"time": 0.0046296333333333325,
				"elapsed": 79.18251752853394
			},
			{
				"note": 71,
				"velocity": 0,
				"time": 0.0034722249999999994,
				"elapsed": 79.19638967514038
			},
			{
				"note": 56,
				"velocity": 0,
				"time": 0.009259266666666665,
				"elapsed": 79.64539980888367
			},
			{
				"note": 44,
				"velocity": 0,
				"time": 0.015046308333333331,
				"elapsed": 79.70098900794983
			},
			{
				"note": 51,
				"velocity": 0,
				"time": 0,
				"elapsed": 79.70109391212463
			},
			{
				"note": 75,
				"velocity": 0,
				"time": 0,
				"elapsed": 79.71979928016663
			},
			{
				"note": 56,
				"velocity": 90,
				"time": 0,
				"elapsed": 79.71984338760376
			},
			{
				"note": 44,
				"velocity": 90,
				"time": 0,
				"elapsed": 79.71987128257751
			},
			{
				"note": 60,
				"velocity": 95,
				"time": 0,
				"elapsed": 79.99757051467896
			},
			{
				"note": 63,
				"velocity": 101,
				"time": 0.27777799999999997,
				"elapsed": 80.27511048316956
			},
			{
				"note": 68,
				"velocity": 107,
				"time": 0.27777799999999997,
				"elapsed": 80.55284595489502
			},
			{
				"note": 68,
				"velocity": 0,
				"time": 0.05578799999999999,
				"elapsed": 80.83090329170227
			},
			{
				"note": 75,
				"velocity": 95,
				"time": 0,
				"elapsed": 80.83099126815796
			},
			{
				"note": 68,
				"velocity": 97,
				"time": 0.01760396875,
				"elapsed": 81.11127924919128
			},
			{
				"note": 75,
				"velocity": 0,
				"time": 0.03755513333333334,
				"elapsed": 81.14873886108398
			},
			{
				"note": 68,
				"velocity": 0,
				"time": 0.0037496249999999995,
				"elapsed": 81.3810887336731
			},
			{
				"note": 72,
				"velocity": 81,
				"time": 0,
				"elapsed": 81.3966212272644
			},
			{
				"note": 66,
				"velocity": 85,
				"time": 0.005332191666666666,
				"elapsed": 81.70686316490173
			},
			{
				"note": 72,
				"velocity": 0,
				"time": 0.01470431875,
				"elapsed": 81.76014757156372
			},
			{
				"note": 63,
				"velocity": 0,
				"time": 0,
				"elapsed": 81.96461868286133
			},
			{
				"note": 60,
				"velocity": 0,
				"time": 0.021689633333333333,
				"elapsed": 81.9861969947815
			},
			{
				"note": 56,
				"velocity": 0,
				"time": 0,
				"elapsed": 81.98633909225464
			},
			{
				"note": 44,
				"velocity": 0,
				"time": 0,
				"elapsed": 81.98637843132019
			},
			{
				"note": 66,
				"velocity": 0,
				"time": 0,
				"elapsed": 82.02973556518555
			},
			{
				"note": 42,
				"velocity": 99,
				"time": 0,
				"elapsed": 82.02976250648499
			},
			{
				"note": 54,
				"velocity": 86,
				"time": 0,
				"elapsed": 82.31780481338501
			},
			{
				"note": 58,
				"velocity": 92,
				"time": 0,
				"elapsed": 82.5995557308197
			},
			{
				"note": 61,
				"velocity": 86,
				"time": 0,
				"elapsed": 82.87667274475098
			},
			{
				"note": 65,
				"velocity": 92,
				"time": 0.133210775,
				"elapsed": 83.15201306343079
			},
			{
				"note": 61,
				"velocity": 0,
				"time": 0.0113595,
				"elapsed": 83.18860030174255
			},
			{
				"note": 58,
				"velocity": 0,
				"time": 0.027262799999999997,
				"elapsed": 83.21586394309998
			},
			{
				"note": 58,
				"velocity": 73,
				"time": 0.2090148,
				"elapsed": 83.4249620437622
			},
			{
				"note": 65,
				"velocity": 0,
				"time": 0.068157,
				"elapsed": 83.49306654930115
			},
			{
				"note": 61,
				"velocity": 86,
				"time": 0.15979148125,
				"elapsed": 83.6971366405487
			},
			{
				"note": 58,
				"velocity": 0,
				"time": 0.095194925,
				"elapsed": 83.79234194755554
			},
			{
				"note": 58,
				"velocity": 79,
				"time": 0.07348954166666667,
				"elapsed": 83.96899437904358
			},
			{
				"note": 61,
				"velocity": 0,
				"time": 0.0407019,
				"elapsed": 84.0096697807312
			},
			{
				"note": 42,
				"velocity": 0,
				"time": 0.054269200000000004,
				"elapsed": 84.06393527984619
			},
			{
				"note": 58,
				"velocity": 0,
				"time": 0.010175475,
				"elapsed": 84.20418190956116
			},
			{
				"note": 54,
				"velocity": 0,
				"time": 0.009044866666666667,
				"elapsed": 84.231281042099
			},
			{
				"note": 42,
				"velocity": 90,
				"time": 0.009044866666666667,
				"elapsed": 84.24049496650696
			},
			{
				"note": 54,
				"velocity": 90,
				"time": 0.25212565833333334,
				"elapsed": 84.51169466972351
			},
			{
				"note": 58,
				"velocity": 84,
				"time": 0,
				"elapsed": 84.7831015586853
			},
			{
				"note": 61,
				"velocity": 90,
				"time": 0.271346,
				"elapsed": 85.05432724952698
			},
			{
				"note": 65,
				"velocity": 92,
				"time": 0,
				"elapsed": 85.3258216381073
			},
			{
				"note": 61,
				"velocity": 0,
				"time": 0.049746766666666664,
				"elapsed": 85.37557101249695
			},
			{
				"note": 58,
				"velocity": 0,
				"time": 0.027134600000000002,
				"elapsed": 85.42077374458313
			},
			{
				"note": 58,
				"velocity": 77,
				"time": 0.1763749,
				"elapsed": 85.59710121154785
			},
			{
				"note": 65,
				"velocity": 0,
				"time": 0.0814038,
				"elapsed": 85.67842507362366
			},
			{
				"note": 61,
				"velocity": 84,
				"time": 0,
				"elapsed": 85.8685507774353
			},
			{
				"note": 58,
				"velocity": 0,
				"time": 0.04522433333333333,
				"elapsed": 85.93173480033875
			},
			{
				"note": 58,
				"velocity": 95,
				"time": 0.20803193333333334,
				"elapsed": 86.1397294998169
			},
			{
				"note": 54,
				"velocity": 0,
				"time": 0.03617946666666667,
				"elapsed": 86.17595553398132
			},
			{
				"note": 42,
				"velocity": 0,
				"time": 0.004522433333333333,
				"elapsed": 86.18047642707825
			},
			{
				"note": 61,
				"velocity": 0,
				"time": 0.004522433333333333,
				"elapsed": 86.18497514724731
			},
			{
				"note": 58,
				"velocity": 0,
				"time": 0.007914258333333334,
				"elapsed": 86.37487459182739
			},
			{
				"note": 41,
				"velocity": 88,
				"time": 0,
				"elapsed": 86.41117000579834
			},
			{
				"note": 53,
				"velocity": 95,
				"time": 0.21594619166666668,
				"elapsed": 86.68242883682251
			},
			{
				"note": 56,
				"velocity": 82,
				"time": 0.271346,
				"elapsed": 86.95375084877014
			},
			{
				"note": 60,
				"velocity": 86,
				"time": 0,
				"elapsed": 87.22518110275269
			},
			{
				"note": 63,
				"velocity": 92,
				"time": 0,
				"elapsed": 87.49680972099304
			},
			{
				"note": 60,
				"velocity": 0,
				"time": 0.027134600000000002,
				"elapsed": 87.52359557151794
			},
			{
				"note": 56,
				"velocity": 0,
				"time": 0.022612166666666666,
				"elapsed": 87.54622864723206
			},
			{
				"note": 56,
				"velocity": 84,
				"time": 0.22159923333333334,
				"elapsed": 87.76781964302063
			},
			{
				"note": 63,
				"velocity": 0,
				"time": 0.004522433333333333,
				"elapsed": 87.77248859405518
			},
			{
				"note": 60,
				"velocity": 84,
				"time": 0.2668235666666667,
				"elapsed": 88.03917813301086
			},
			{
				"note": 56,
				"velocity": 0,
				"time": 0.07235893333333333,
				"elapsed": 88.11150121688843
			},
			{
				"note": 56,
				"velocity": 84,
				"time": 0.19898706666666666,
				"elapsed": 88.31052446365356
			},
			{
				"note": 60,
				"velocity": 0,
				"time": 0.031657033333333334,
				"elapsed": 88.34215521812439
			},
			{
				"note": 41,
				"velocity": 0,
				"time": 0.058791633333333336,
				"elapsed": 88.40099596977234
			},
			{
				"note": 56,
				"velocity": 0,
				"time": 0.013567300000000001,
				"elapsed": 88.54563426971436
			},
			{
				"note": 41,
				"velocity": 97,
				"time": 0.035048858333333335,
				"elapsed": 88.58182287216187
			},
			{
				"note": 53,
				"velocity": 0,
				"time": 0.009044866666666667,
				"elapsed": 88.5908739566803
			},
			{
				"note": 53,
				"velocity": 69,
				"time": 0.213684975,
				"elapsed": 88.85332179069519
			},
			{
				"note": 56,
				"velocity": 84,
				"time": 0.271346,
				"elapsed": 89.124596118927
			},
			{
				"note": 60,
				"velocity": 86,
				"time": 0,
				"elapsed": 89.39594864845276
			},
			{
				"note": 63,
				"velocity": 99,
				"time": 0,
				"elapsed": 89.66749835014343
			},
			{
				"note": 60,
				"velocity": 0,
				"time": 0.022612166666666666,
				"elapsed": 89.68988132476807
			},
			{
				"note": 56,
				"velocity": 0,
				"time": 0.018089733333333333,
				"elapsed": 89.721604347229
			},
			{
				"note": 56,
				"velocity": 84,
				"time": 0,
				"elapsed": 89.93899989128113
			},
			{
				"note": 63,
				"velocity": 0,
				"time": 0.009044866666666667,
				"elapsed": 89.94765210151672
			},
			{
				"note": 60,
				"velocity": 88,
				"time": 0.22612166666666667,
				"elapsed": 90.2099347114563
			},
			{
				"note": 56,
				"velocity": 0,
				"time": 0.06331406666666667,
				"elapsed": 90.2732105255127
			},
			{
				"note": 56,
				"velocity": 84,
				"time": 0.20803193333333334,
				"elapsed": 90.48126864433289
			},
			{
				"note": 41,
				"velocity": 0,
				"time": 0.058791633333333336,
				"elapsed": 90.5401496887207
			},
			{
				"note": 60,
				"velocity": 0,
				"time": 0.013567300000000001,
				"elapsed": 90.55363011360168
			},
			{
				"note": 53,
				"velocity": 0,
				"time": 0.07235893333333333,
				"elapsed": 90.62603211402893
			},
			{
				"note": 56,
				"velocity": 0,
				"time": 0.010175475,
				"elapsed": 90.71643996238708
			},
			{
				"note": 39,
				"velocity": 92,
				"time": 0,
				"elapsed": 90.75294208526611
			},
			{
				"note": 51,
				"velocity": 92,
				"time": 0,
				"elapsed": 91.02425765991211
			},
			{
				"note": 58,
				"velocity": 90,
				"time": 0,
				"elapsed": 91.29538822174072
			},
			{
				"note": 61,
				"velocity": 75,
				"time": 0,
				"elapsed": 91.56671810150146
			},
			{
				"note": 65,
				"velocity": 92,
				"time": 0.09949353333333333,
				"elapsed": 91.83801031112671
			},
			{
				"note": 61,
				"velocity": 0,
				"time": 0.03617946666666667,
				"elapsed": 91.87418699264526
			},
			{
				"note": 58,
				"velocity": 0,
				"time": 0.03617946666666667,
				"elapsed": 91.91038465499878
			},
			{
				"note": 58,
				"velocity": 75,
				"time": 0.19898706666666666,
				"elapsed": 92.10937261581421
			},
			{
				"note": 65,
				"velocity": 0,
				"time": 0.013567300000000001,
				"elapsed": 92.12293815612793
			},
			{
				"note": 61,
				"velocity": 84,
				"time": 0.2577787,
				"elapsed": 92.38071012496948
			},
			{
				"note": 58,
				"velocity": 0,
				"time": 0.0678365,
				"elapsed": 92.44847226142883
			},
			{
				"note": 58,
				"velocity": 86,
				"time": 0.2035095,
				"elapsed": 92.65203046798706
			},
			{
				"note": 39,
				"velocity": 0,
				"time": 0.058791633333333336,
				"elapsed": 92.71087336540222
			},
			{
				"note": 61,
				"velocity": 0,
				"time": 0.03617946666666667,
				"elapsed": 92.74702715873718
			},
			{
				"note": 51,
				"velocity": 0,
				"time": 0.019220341666666668,
				"elapsed": 92.887216091156
			},
			{
				"note": 58,
				"velocity": 0,
				"time": 0.018089733333333333,
				"elapsed": 92.9053213596344
			},
			{
				"note": 39,
				"velocity": 90,
				"time": 0.009044866666666667,
				"elapsed": 92.92340898513794
			},
			{
				"note": 51,
				"velocity": 76,
				"time": 0.23290531666666667,
				"elapsed": 93.19476890563965
			},
			{
				"note": 58,
				"velocity": 90,
				"time": 0.271346,
				"elapsed": 93.46608471870422
			},
			{
				"note": 61,
				"velocity": 76,
				"time": 0.271346,
				"elapsed": 93.73748803138733
			},
			{
				"note": 65,
				"velocity": 90,
				"time": 0.271346,
				"elapsed": 94.00876235961914
			},
			{
				"note": 61,
				"velocity": 0,
				"time": 0.049746766666666664,
				"elapsed": 94.05853462219238
			},
			{
				"note": 58,
				"velocity": 0,
				"time": 0.018089733333333333,
				"elapsed": 94.07660484313965
			},
			{
				"note": 65,
				"velocity": 0,
				"time": 0.19446463333333333,
				"elapsed": 94.27109003067017
			},
			{
				"note": 58,
				"velocity": 82,
				"time": 0.009044866666666667,
				"elapsed": 94.28008842468262
			},
			{
				"note": 61,
				"velocity": 88,
				"time": 0,
				"elapsed": 94.55176782608032
			},
			{
				"note": 58,
				"velocity": 0,
				"time": 0.058791633333333336,
				"elapsed": 94.61027789115906
			},
			{
				"note": 58,
				"velocity": 84,
				"time": 0,
				"elapsed": 94.82297849655151
			},
			{
				"note": 61,
				"velocity": 0,
				"time": 0.018089733333333333,
				"elapsed": 94.85453772544861
			},
			{
				"note": 39,
				"velocity": 0,
				"time": 0.0407019,
				"elapsed": 94.89518356323242
			},
			{
				"note": 51,
				"velocity": 0,
				"time": 0.010175475,
				"elapsed": 95.0218334197998
			},
			{
				"note": 58,
				"velocity": 0,
				"time": 0.0011306083333333333,
				"elapsed": 95.07604169845581
			},
			{
				"note": 41,
				"velocity": 95,
				"time": 0,
				"elapsed": 95.09428477287292
			},
			{
				"note": 53,
				"velocity": 58,
				"time": 0.2623011333333333,
				"elapsed": 95.36550545692444
			},
			{
				"note": 56,
				"velocity": 79,
				"time": 0,
				"elapsed": 95.63706374168396
			},
			{
				"note": 60,
				"velocity": 82,
				"time": 0,
				"elapsed": 95.90872764587402
			},
			{
				"note": 56,
				"velocity": 0,
				"time": 0,
				"elapsed": 96.1707854270935
			},
			{
				"note": 63,
				"velocity": 84,
				"time": 0,
				"elapsed": 96.17956900596619
			},
			{
				"note": 60,
				"velocity": 0,
				"time": 0.027134600000000002,
				"elapsed": 96.2066547870636
			},
			{
				"note": 63,
				"velocity": 0,
				"time": 0.22612166666666667,
				"elapsed": 96.4327712059021
			},
			{
				"note": 56,
				"velocity": 79,
				"time": 0,
				"elapsed": 96.45096683502197
			},
			{
				"note": 60,
				"velocity": 86,
				"time": 0.2532562666666667,
				"elapsed": 96.72242951393127
			},
			{
				"note": 56,
				"velocity": 0,
				"time": 0.049746766666666664,
				"elapsed": 96.77196025848389
			},
			{
				"note": 56,
				"velocity": 76,
				"time": 0,
				"elapsed": 96.99368357658386
			},
			{
				"note": 60,
				"velocity": 0,
				"time": 0.027134600000000002,
				"elapsed": 97.02070212364197
			},
			{
				"note": 41,
				"velocity": 0,
				"time": 0.07688136666666667,
				"elapsed": 97.09758687019348
			},
			{
				"note": 53,
				"velocity": 0,
				"time": 0.14019543333333334,
				"elapsed": 97.23779320716858
			},
			{
				"note": 56,
				"velocity": 0,
				"time": 0.009044866666666667,
				"elapsed": 97.24683976173401
			},
			{
				"note": 53,
				"velocity": 100,
				"time": 0.018089733333333333,
				"elapsed": 97.26492619514465
			},
			{
				"note": 46,
				"velocity": 104,
				"time": 0,
				"elapsed": 97.26519703865051
			},
			{
				"note": 46,
				"velocity": 0,
				"time": 0.004522433333333333,
				"elapsed": 97.42435812950134
			},
			{
				"note": 53,
				"velocity": 0,
				"time": 0,
				"elapsed": 97.42465996742249
			},
			{
				"note": 49,
				"velocity": 89,
				"time": 0,
				"elapsed": 97.81460165977478
			},
			{
				"note": 44,
				"velocity": 93,
				"time": 0,
				"elapsed": 97.81462693214417
			},
			{
				"note": 49,
				"velocity": 0,
				"time": 0.0024084791666666664,
				"elapsed": 97.98259162902832
			},
			{
				"note": 44,
				"velocity": 0,
				"time": 0.0072435749999999995,
				"elapsed": 98.00301122665405
			},
			{
				"note": 42,
				"velocity": 95,
				"time": 0,
				"elapsed": 98.4016056060791
			},
			{
				"note": 51,
				"velocity": 95,
				"time": 0,
				"elapsed": 98.40164041519165
			},
			{
				"note": 51,
				"velocity": 0,
				"time": 0.0077704125,
				"elapsed": 98.56310415267944
			},
			{
				"note": 42,
				"velocity": 0,
				"time": 0.00388520625,
				"elapsed": 98.56692171096802
			},
			{
				"note": 53,
				"velocity": 106,
				"time": 0,
				"elapsed": 99.03690505027771
			},
			{
				"note": 41,
				"velocity": 97,
				"time": 0,
				"elapsed": 99.0369324684143
			},
			{
				"note": 41,
				"velocity": 0,
				"time": 0.126719775,
				"elapsed": 99.70731663703918
			},
			{
				"note": 53,
				"velocity": 0,
				"time": 0,
				"elapsed": 99.70751690864563
			},
			{
				"note": 42,
				"velocity": 92,
				"time": 0,
				"elapsed": 99.75582385063171
			},
			{
				"note": 54,
				"velocity": 92,
				"time": 0,
				"elapsed": 100.05386066436768
			},
			{
				"note": 58,
				"velocity": 79,
				"time": 0,
				"elapsed": 100.34242630004883
			},
			{
				"note": 61,
				"velocity": 82,
				"time": 0,
				"elapsed": 100.62237977981567
			},
			{
				"note": 65,
				"velocity": 88,
				"time": 0.06307342708333331,
				"elapsed": 100.89830660820007
			},
			{
				"note": 61,
				"velocity": 0,
				"time": 0.013761474999999997,
				"elapsed": 100.91206097602844
			},
			{
				"note": 58,
				"velocity": 0,
				"time": 0.022881208333333333,
				"elapsed": 100.95788645744324
			},
			{
				"note": 65,
				"velocity": 0,
				"time": 0.12355852499999999,
				"elapsed": 101.15927290916443
			},
			{
				"note": 58,
				"velocity": 68,
				"time": 0.013728724999999999,
				"elapsed": 101.17305779457092
			},
			{
				"note": 61,
				"velocity": 84,
				"time": 0.2745745,
				"elapsed": 101.4475429058075
			},
			{
				"note": 58,
				"velocity": 0,
				"time": 0.054914899999999996,
				"elapsed": 101.50252223014832
			},
			{
				"note": 42,
				"velocity": 0,
				"time": 0.20593087499999999,
				"elapsed": 101.70840954780579
			},
			{
				"note": 58,
				"velocity": 84,
				"time": 0.013728724999999999,
				"elapsed": 101.72216653823853
			},
			{
				"note": 61,
				"velocity": 0,
				"time": 0.022881208333333333,
				"elapsed": 101.7449598312378
			},
			{
				"note": 54,
				"velocity": 0,
				"time": 0,
				"elapsed": 101.9236490726471
			},
			{
				"note": 58,
				"velocity": 0,
				"time": 0.01029654375,
				"elapsed": 101.97843050956726
			},
			{
				"note": 42,
				"velocity": 92,
				"time": 0.018304966666666665,
				"elapsed": 101.99668574333191
			},
			{
				"note": 54,
				"velocity": 88,
				"time": 0.13499912916666665,
				"elapsed": 102.27140498161316
			},
			{
				"note": 58,
				"velocity": 86,
				"time": 0,
				"elapsed": 102.54596066474915
			},
			{
				"note": 61,
				"velocity": 92,
				"time": 0.009152483333333333,
				"elapsed": 102.82050347328186
			},
			{
				"note": 65,
				"velocity": 97,
				"time": 0,
				"elapsed": 103.09523630142212
			},
			{
				"note": 61,
				"velocity": 0,
				"time": 0.027457449999999998,
				"elapsed": 103.12251114845276
			},
			{
				"note": 58,
				"velocity": 0,
				"time": 0.03660993333333333,
				"elapsed": 103.15911078453064
			},
			{
				"note": 65,
				"velocity": 0,
				"time": 0,
				"elapsed": 103.36974549293518
			},
			{
				"note": 58,
				"velocity": 79,
				"time": 0,
				"elapsed": 103.36979222297668
			},
			{
				"note": 61,
				"velocity": 88,
				"time": 0,
				"elapsed": 103.6446168422699
			},
			{
				"note": 58,
				"velocity": 0,
				"time": 0.05033865833333333,
				"elapsed": 103.71280527114868
			},
			{
				"note": 58,
				"velocity": 84,
				"time": 0.018304966666666665,
				"elapsed": 103.91875958442688
			},
			{
				"note": 61,
				"velocity": 0,
				"time": 0.022881208333333333,
				"elapsed": 103.94159126281738
			},
			{
				"note": 42,
				"velocity": 0,
				"time": 0.068643625,
				"elapsed": 104.01023697853088
			},
			{
				"note": 54,
				"velocity": 0,
				"time": 0.057203020833333326,
				"elapsed": 104.17046189308167
			},
			{
				"note": 58,
				"velocity": 0,
				"time": 0.004576241666666666,
				"elapsed": 104.17499852180481
			},
			{
				"note": 41,
				"velocity": 88,
				"time": 0,
				"elapsed": 104.19358944892883
			},
			{
				"note": 53,
				"velocity": 65,
				"time": 0.1944902708333333,
				"elapsed": 104.46785545349121
			},
			{
				"note": 56,
				"velocity": 84,
				"time": 0.2745745,
				"elapsed": 104.74250912666321
			},
			{
				"note": 60,
				"velocity": 88,
				"time": 0,
				"elapsed": 105.01718091964722
			},
			{
				"note": 63,
				"velocity": 92,
				"time": 0,
				"elapsed": 105.29175329208374
			},
			{
				"note": 60,
				"velocity": 0,
				"time": 0.027457449999999998,
				"elapsed": 105.31904983520508
			},
			{
				"note": 56,
				"velocity": 0,
				"time": 0.018304966666666665,
				"elapsed": 105.33737134933472
			},
			{
				"note": 63,
				"velocity": 0,
				"time": 0.22423584166666666,
				"elapsed": 105.56163907051086
			},
			{
				"note": 56,
				"velocity": 86,
				"time": 0.004576241666666666,
				"elapsed": 105.5661985874176
			},
			{
				"note": 60,
				"velocity": 88,
				"time": 0.2745745,
				"elapsed": 105.84077477455139
			},
			{
				"note": 56,
				"velocity": 0,
				"time": 0.054914899999999996,
				"elapsed": 105.89569234848022
			},
			{
				"note": 56,
				"velocity": 80,
				"time": 0.0011522854166666665,
				"elapsed": 106.11590027809143
			},
			{
				"note": 60,
				"velocity": 0,
				"time": 0.0034651624999999997,
				"elapsed": 106.1435854434967
			},
			{
				"note": 41,
				"velocity": 0,
				"time": 0.047471252083333325,
				"elapsed": 106.26380848884583
			},
			{
				"note": 53,
				"velocity": 0,
				"time": 0.04062209375,
				"elapsed": 106.31953072547913
			},
			{
				"note": 56,
				"velocity": 0,
				"time": 0.002326879166666666,
				"elapsed": 106.35672640800476
			},
			{
				"note": 41,
				"velocity": 92,
				"time": 0,
				"elapsed": 106.3947958946228
			},
			{
				"note": 53,
				"velocity": 80,
				"time": 0.05169175,
				"elapsed": 106.67463541030884
			},
			{
				"note": 56,
				"velocity": 88,
				"time": 0,
				"elapsed": 106.95831251144409
			},
			{
				"note": 60,
				"velocity": 88,
				"time": 0,
				"elapsed": 107.24516749382019
			},
			{
				"note": 63,
				"velocity": 95,
				"time": 0.2875765,
				"elapsed": 107.53234958648682
			},
			{
				"note": 60,
				"velocity": 0,
				"time": 0.033550591666666664,
				"elapsed": 107.56593990325928
			},
			{
				"note": 56,
				"velocity": 0,
				"time": 0.019171766666666666,
				"elapsed": 107.58510446548462
			},
			{
				"note": 63,
				"velocity": 0,
				"time": 0.23485414166666665,
				"elapsed": 107.8199565410614
			},
			{
				"note": 56,
				"velocity": 84,
				"time": 0,
				"elapsed": 107.82018995285034
			},
			{
				"note": 60,
				"velocity": 92,
				"time": 0.0012662083333333334,
				"elapsed": 108.10151195526123
			},
			{
				"note": 56,
				"velocity": 0,
				"time": 0.0051461499999999995,
				"elapsed": 108.17548966407776
			},
			{
				"note": 56,
				"velocity": 86,
				"time": 0.011864587499999999,
				"elapsed": 108.43337941169739
			},
			{
				"note": 60,
				"velocity": 0,
				"time": 0.0118972125,
				"elapsed": 108.4663553237915
			},
			{
				"note": 56,
				"velocity": 0,
				"time": 0.0013366125,
				"elapsed": 108.68803763389587
			},
			{
				"note": 53,
				"velocity": 0,
				"time": 0.0040098375,
				"elapsed": 108.69206142425537
			},
			{
				"note": 41,
				"velocity": 0,
				"time": 0.0106929,
				"elapsed": 108.70278573036194
			},
			{
				"note": 45,
				"velocity": 101,
				"time": 0,
				"elapsed": 108.74576354026794
			},
			{
				"note": 57,
				"velocity": 104,
				"time": 0,
				"elapsed": 109.05005598068237
			},
			{
				"note": 61,
				"velocity": 82,
				"time": 0,
				"elapsed": 109.33857941627502
			},
			{
				"note": 64,
				"velocity": 81,
				"time": 0,
				"elapsed": 109.61671328544617
			},
			{
				"note": 69,
				"velocity": 81,
				"time": 0.13888899999999998,
				"elapsed": 109.89451599121094
			},
			{
				"note": 64,
				"velocity": 0,
				"time": 0.06944449999999999,
				"elapsed": 109.96384620666504
			},
			{
				"note": 61,
				"velocity": 0,
				"time": 0.009259266666666665,
				"elapsed": 109.97600245475769
			},
			{
				"note": 61,
				"velocity": 69,
				"time": 0.1990742333333333,
				"elapsed": 110.1722149848938
			},
			{
				"note": 69,
				"velocity": 0,
				"time": 0.17592606666666663,
				"elapsed": 110.34819746017456
			},
			{
				"note": 64,
				"velocity": 85,
				"time": 0.10185193333333331,
				"elapsed": 110.45006990432739
			},
			{
				"note": 61,
				"velocity": 0,
				"time": 0.05555559999999999,
				"elapsed": 110.50547480583191
			},
			{
				"note": 61,
				"velocity": 92,
				"time": 0.22222239999999996,
				"elapsed": 110.72771859169006
			},
			{
				"note": 64,
				"velocity": 0,
				"time": 0.03703706666666666,
				"elapsed": 110.76479864120483
			},
			{
				"note": 45,
				"velocity": 0,
				"time": 0.0046296333333333325,
				"elapsed": 110.76940989494324
			},
			{
				"note": 61,
				"velocity": 0,
				"time": 0,
				"elapsed": 111.0056881904602
			},
			{
				"note": 45,
				"velocity": 90,
				"time": 0,
				"elapsed": 111.00572800636292
			},
			{
				"note": 57,
				"velocity": 0,
				"time": 0.0046296333333333325,
				"elapsed": 111.01015281677246
			},
			{
				"note": 57,
				"velocity": 104,
				"time": 0,
				"elapsed": 111.28381061553955
			},
			{
				"note": 61,
				"velocity": 80,
				"time": 0,
				"elapsed": 111.56130456924438
			},
			{
				"note": 64,
				"velocity": 90,
				"time": 0,
				"elapsed": 111.8391284942627
			},
			{
				"note": 69,
				"velocity": 87,
				"time": 0.13888899999999998,
				"elapsed": 112.11661028862
			},
			{
				"note": 61,
				"velocity": 0,
				"time": 0.03703706666666666,
				"elapsed": 112.15365862846375
			},
			{
				"note": 64,
				"velocity": 0,
				"time": 0.009259266666666665,
				"elapsed": 112.1629421710968
			},
			{
				"note": 61,
				"velocity": 73,
				"time": 0.2314816666666666,
				"elapsed": 112.39443778991699
			},
			{
				"note": 69,
				"velocity": 0,
				"time": 0.20833349999999995,
				"elapsed": 112.6029167175293
			},
			{
				"note": 64,
				"velocity": 81,
				"time": 0,
				"elapsed": 112.67251515388489
			},
			{
				"note": 61,
				"velocity": 0,
				"time": 0.060185233333333324,
				"elapsed": 112.73239493370056
			},
			{
				"note": 64,
				"velocity": 0,
				"time": 0.2129631333333333,
				"elapsed": 112.94537711143494
			},
			{
				"note": 45,
				"velocity": 0,
				"time": 0,
				"elapsed": 112.95011186599731
			},
			{
				"note": 61,
				"velocity": 95,
				"time": 0,
				"elapsed": 112.95018720626831
			},
			{
				"note": 57,
				"velocity": 0,
				"time": 0.013888899999999997,
				"elapsed": 113.15366673469543
			},
			{
				"note": 61,
				"velocity": 0,
				"time": 0.03703706666666666,
				"elapsed": 113.1907045841217
			},
			{
				"note": 47,
				"velocity": 97,
				"time": 0,
				"elapsed": 113.22797536849976
			},
			{
				"note": 59,
				"velocity": 101,
				"time": 0.2314816666666666,
				"elapsed": 113.50561189651489
			},
			{
				"note": 63,
				"velocity": 88,
				"time": 0,
				"elapsed": 113.78376603126526
			},
			{
				"note": 66,
				"velocity": 56,
				"time": 0,
				"elapsed": 114.06129479408264
			},
			{
				"note": 71,
				"velocity": 74,
				"time": 0,
				"elapsed": 114.33913087844849
			},
			{
				"note": 66,
				"velocity": 0,
				"time": 0.032407433333333326,
				"elapsed": 114.37587547302246
			},
			{
				"note": 63,
				"velocity": 0,
				"time": 0.01851853333333333,
				"elapsed": 114.39439463615417
			},
			{
				"note": 63,
				"velocity": 65,
				"time": 0,
				"elapsed": 114.61693978309631
			},
			{
				"note": 66,
				"velocity": 79,
				"time": 0.25000019999999995,
				"elapsed": 114.89446926116943
			},
			{
				"note": 63,
				"velocity": 0,
				"time": 0.07407413333333332,
				"elapsed": 114.96852016448975
			},
			{
				"note": 71,
				"velocity": 0,
				"time": 0.04629633333333333,
				"elapsed": 115.1074059009552
			},
			{
				"note": 47,
				"velocity": 0,
				"time": 0.050925966666666656,
				"elapsed": 115.15831279754639
			},
			{
				"note": 63,
				"velocity": 88,
				"time": 0,
				"elapsed": 115.17243313789368
			},
			{
				"note": 71,
				"velocity": 50,
				"time": 0,
				"elapsed": 115.17260146141052
			},
			{
				"note": 66,
				"velocity": 0,
				"time": 0.04629633333333333,
				"elapsed": 115.21855473518372
			},
			{
				"note": 59,
				"velocity": 0,
				"time": 0.009259266666666665,
				"elapsed": 115.27869153022766
			},
			{
				"note": 71,
				"velocity": 0,
				"time": 0.012731491666666664,
				"elapsed": 115.30185627937317
			},
			{
				"note": 63,
				"velocity": 0,
				"time": 0.0023148166666666662,
				"elapsed": 115.43148994445801
			},
			{
				"note": 48,
				"velocity": 88,
				"time": 0.01851853333333333,
				"elapsed": 115.45001149177551
			},
			{
				"note": 60,
				"velocity": 61,
				"time": 0.27777799999999997,
				"elapsed": 115.72776126861572
			},
			{
				"note": 63,
				"velocity": 77,
				"time": 0,
				"elapsed": 116.00572848320007
			},
			{
				"note": 68,
				"velocity": 92,
				"time": 0,
				"elapsed": 116.28572988510132
			},
			{
				"note": 68,
				"velocity": 0,
				"time": 0.26624748958333333,
				"elapsed": 117.42746615409851
			},
			{
				"note": 60,
				"velocity": 0,
				"time": 0.014860325,
				"elapsed": 117.63548517227173
			},
			{
				"note": 63,
				"velocity": 0,
				"time": 0.023528847916666665,
				"elapsed": 117.69486165046692
			},
			{
				"note": 48,
				"velocity": 0,
				"time": 0,
				"elapsed": 117.6949508190155
			},
			{
				"note": 43,
				"velocity": 96,
				"time": 0,
				"elapsed": 117.75442433357239
			},
			{
				"note": 50,
				"velocity": 89,
				"time": 0,
				"elapsed": 118.03974795341492
			},
			{
				"note": 55,
				"velocity": 79,
				"time": 0,
				"elapsed": 118.31787919998169
			},
			{
				"note": 59,
				"velocity": 105,
				"time": 0,
				"elapsed": 118.59549856185913
			},
			{
				"note": 50,
				"velocity": 0,
				"time": 0.13888899999999998,
				"elapsed": 118.8731620311737
			},
			{
				"note": 55,
				"velocity": 0,
				"time": 0.27777799999999997,
				"elapsed": 119.15093111991882
			},
			{
				"note": 50,
				"velocity": 89,
				"time": 0,
				"elapsed": 119.15118050575256
			},
			{
				"note": 55,
				"velocity": 87,
				"time": 0.27777799999999997,
				"elapsed": 119.42867112159729
			},
			{
				"note": 59,
				"velocity": 0,
				"time": 0.13888899999999998,
				"elapsed": 119.56756258010864
			},
			{
				"note": 43,
				"velocity": 0,
				"time": 0.13888899999999998,
				"elapsed": 119.70644211769104
			},
			{
				"note": 59,
				"velocity": 98,
				"time": 0,
				"elapsed": 119.70653796195984
			},
			{
				"note": 50,
				"velocity": 0,
				"time": 0.013888899999999997,
				"elapsed": 119.84538841247559
			},
			{
				"note": 55,
				"velocity": 0,
				"time": 0.03356484166666666,
				"elapsed": 119.92872309684753
			},
			{
				"note": 59,
				"velocity": 0,
				"time": 0.01851853333333333,
				"elapsed": 119.94720363616943
			},
			{
				"note": 45,
				"velocity": 94,
				"time": 0.008101858333333331,
				"elapsed": 119.98429012298584
			},
			{
				"note": 52,
				"velocity": 83,
				"time": 0.22222239999999996,
				"elapsed": 120.26203465461731
			},
			{
				"note": 57,
				"velocity": 91,
				"time": 0,
				"elapsed": 120.5406506061554
			},
			{
				"note": 61,
				"velocity": 103,
				"time": 0,
				"elapsed": 120.81807065010071
			},
			{
				"note": 52,
				"velocity": 0,
				"time": 0,
				"elapsed": 121.09546613693237
			},
			{
				"note": 57,
				"velocity": 0,
				"time": 0,
				"elapsed": 121.37356281280518
			},
			{
				"note": 52,
				"velocity": 88,
				"time": 0,
				"elapsed": 121.37395000457764
			},
			{
				"note": 57,
				"velocity": 92,
				"time": 0,
				"elapsed": 121.65120434761047
			},
			{
				"note": 61,
				"velocity": 0,
				"time": 0.13888899999999998,
				"elapsed": 121.78983044624329
			},
			{
				"note": 45,
				"velocity": 0,
				"time": 0,
				"elapsed": 121.92880725860596
			},
			{
				"note": 57,
				"velocity": 0,
				"time": 0.011574083333333332,
				"elapsed": 122.13240361213684
			},
			{
				"note": 52,
				"velocity": 0,
				"time": 0.01851853333333333,
				"elapsed": 122.15092992782593
			},
			{
				"note": 47,
				"velocity": 95,
				"time": 0,
				"elapsed": 122.20705604553223
			},
			{
				"note": 50,
				"velocity": 95,
				"time": 0.2025464583333333,
				"elapsed": 122.4842677116394
			},
			{
				"note": 54,
				"velocity": 86,
				"time": 0,
				"elapsed": 122.76217412948608
			},
			{
				"note": 59,
				"velocity": 104,
				"time": 0,
				"elapsed": 123.04006052017212
			},
			{
				"note": 50,
				"velocity": 0,
				"time": 0,
				"elapsed": 123.31789994239807
			},
			{
				"note": 54,
				"velocity": 0,
				"time": 0.2592594666666666,
				"elapsed": 123.5953938961029
			},
			{
				"note": 50,
				"velocity": 85,
				"time": 0,
				"elapsed": 123.59567093849182
			},
			{
				"note": 59,
				"velocity": 0,
				"time": 0.27777799999999997,
				"elapsed": 123.87321877479553
			},
			{
				"note": 54,
				"velocity": 93,
				"time": 0,
				"elapsed": 123.87338757514954
			},
			{
				"note": 47,
				"velocity": 0,
				"time": 0.27777799999999997,
				"elapsed": 124.15092134475708
			},
			{
				"note": 59,
				"velocity": 98,
				"time": 0,
				"elapsed": 124.15118837356567
			},
			{
				"note": 54,
				"velocity": 0,
				"time": 0.006944449999999999,
				"elapsed": 124.35471391677856
			},
			{
				"note": 50,
				"velocity": 0,
				"time": 0,
				"elapsed": 124.35491609573364
			},
			{
				"note": 59,
				"velocity": 0,
				"time": 0.015046308333333331,
				"elapsed": 124.41027212142944
			},
			{
				"note": 47,
				"velocity": 103,
				"time": 0.0034722249999999994,
				"elapsed": 124.42870688438416
			},
			{
				"note": 54,
				"velocity": 91,
				"time": 0.15277789999999997,
				"elapsed": 124.70654606819153
			},
			{
				"note": 59,
				"velocity": 104,
				"time": 0.27777799999999997,
				"elapsed": 124.98422837257385
			},
			{
				"note": 59,
				"velocity": 0,
				"time": 0,
				"elapsed": 125.26220965385437
			},
			{
				"note": 62,
				"velocity": 97,
				"time": 0,
				"elapsed": 125.26223111152649
			},
			{
				"note": 62,
				"velocity": 0,
				"time": 0.27777799999999997,
				"elapsed": 125.53989672660828
			},
			{
				"note": 61,
				"velocity": 90,
				"time": 0,
				"elapsed": 125.54018807411194
			},
			{
				"note": 61,
				"velocity": 0,
				"time": 0,
				"elapsed": 125.81790471076965
			},
			{
				"note": 59,
				"velocity": 90,
				"time": 0,
				"elapsed": 125.8179304599762
			},
			{
				"note": 54,
				"velocity": 0,
				"time": 0.09837970833333332,
				"elapsed": 125.95650148391724
			},
			{
				"note": 54,
				"velocity": 88,
				"time": 0,
				"elapsed": 126.09587907791138
			},
			{
				"note": 47,
				"velocity": 0,
				"time": 0.10879638333333332,
				"elapsed": 126.23424053192139
			},
			{
				"note": 59,
				"velocity": 0,
				"time": 0,
				"elapsed": 126.37333083152771
			},
			{
				"note": 54,
				"velocity": 0,
				"time": 0.05439819166666666,
				"elapsed": 126.51205229759216
			},
			{
				"note": 43,
				"velocity": 98,
				"time": 0,
				"elapsed": 126.65167808532715
			},
			{
				"note": 50,
				"velocity": 98,
				"time": 0.18055569999999996,
				"elapsed": 126.92872619628906
			},
			{
				"note": 55,
				"velocity": 82,
				"time": 0,
				"elapsed": 127.20662307739258
			},
			{
				"note": 59,
				"velocity": 110,
				"time": 0,
				"elapsed": 127.48462152481079
			},
			{
				"note": 50,
				"velocity": 0,
				"time": 0.13888899999999998,
				"elapsed": 127.76204371452332
			},
			{
				"note": 55,
				"velocity": 0,
				"time": 0.27777799999999997,
				"elapsed": 128.03979325294495
			},
			{
				"note": 50,
				"velocity": 93,
				"time": 0,
				"elapsed": 128.03993821144104
			},
			{
				"note": 55,
				"velocity": 91,
				"time": 0.27777799999999997,
				"elapsed": 128.31756567955017
			},
			{
				"note": 59,
				"velocity": 0,
				"time": 0.13888899999999998,
				"elapsed": 128.4565303325653
			},
			{
				"note": 43,
				"velocity": 0,
				"time": 0.13888899999999998,
				"elapsed": 128.59543633460999
			},
			{
				"note": 59,
				"velocity": 99,
				"time": 0,
				"elapsed": 128.59565925598145
			},
			{
				"note": 50,
				"velocity": 0,
				"time": 0.13888899999999998,
				"elapsed": 128.73428750038147
			},
			{
				"note": 55,
				"velocity": 0,
				"time": 0.0034722249999999994,
				"elapsed": 128.79908657073975
			},
			{
				"note": 59,
				"velocity": 0,
				"time": 0.0011585875,
				"elapsed": 128.83609557151794
			},
			{
				"note": 45,
				"velocity": 103,
				"time": 0.0370748,
				"elapsed": 128.8731815814972
			},
			{
				"note": 52,
				"velocity": 96,
				"time": 0.03841853124999999,
				"elapsed": 129.15174770355225
			},
			{
				"note": 57,
				"velocity": 101,
				"time": 0,
				"elapsed": 129.4317708015442
			},
			{
				"note": 61,
				"velocity": 106,
				"time": 0.02586287916666666,
				"elapsed": 129.7129442691803
			},
			{
				"note": 52,
				"velocity": 0,
				"time": 0.013027002083333331,
				"elapsed": 130.13723373413086
			},
			{
				"note": 57,
				"velocity": 0,
				"time": 0.0011871979166666667,
				"elapsed": 130.27946758270264
			},
			{
				"note": 52,
				"velocity": 100,
				"time": 0,
				"elapsed": 130.27955794334412
			},
			{
				"note": 57,
				"velocity": 97,
				"time": 0,
				"elapsed": 130.56493854522705
			},
			{
				"note": 61,
				"velocity": 0,
				"time": 0,
				"elapsed": 130.7080099582672
			},
			{
				"note": 45,
				"velocity": 0,
				"time": 0,
				"elapsed": 130.8514747619629
			},
			{
				"note": 52,
				"velocity": 0,
				"time": 0,
				"elapsed": 130.99531245231628
			},
			{
				"note": 57,
				"velocity": 0,
				"time": 0.013222435416666668,
				"elapsed": 131.0818567276001
			},
			{
				"note": 47,
				"velocity": 100,
				"time": 0,
				"elapsed": 131.13995575904846
			},
			{
				"note": 54,
				"velocity": 86,
				"time": 0.19833653125000003,
				"elapsed": 131.4280388355255
			},
			{
				"note": 59,
				"velocity": 86,
				"time": 0.14184067083333335,
				"elapsed": 131.71660661697388
			},
			{
				"note": 62,
				"velocity": 102,
				"time": 0,
				"elapsed": 132.00507426261902
			},
			{
				"note": 54,
				"velocity": 0,
				"time": 0.2884895,
				"elapsed": 132.29349946975708
			},
			{
				"note": 59,
				"velocity": 0,
				"time": 0.2884895,
				"elapsed": 132.58206176757812
			},
			{
				"note": 54,
				"velocity": 96,
				"time": 0,
				"elapsed": 132.58232855796814
			},
			{
				"note": 62,
				"velocity": 0,
				"time": 0.14424475,
				"elapsed": 132.72634482383728
			},
			{
				"note": 59,
				"velocity": 98,
				"time": 0.14424475,
				"elapsed": 132.87046933174133
			},
			{
				"note": 47,
				"velocity": 0,
				"time": 0,
				"elapsed": 133.15911293029785
			},
			{
				"note": 62,
				"velocity": 108,
				"time": 0,
				"elapsed": 133.15913581848145
			},
			{
				"note": 54,
				"velocity": 0,
				"time": 0.187518175,
				"elapsed": 133.37046885490417
			},
			{
				"note": 59,
				"velocity": 0,
				"time": 0.0012020395833333335,
				"elapsed": 133.40911054611206
			},
			{
				"note": 62,
				"velocity": 0,
				"time": 0.007212237500000001,
				"elapsed": 133.42823958396912
			},
			{
				"note": 47,
				"velocity": 101,
				"time": 0,
				"elapsed": 133.4475564956665
			},
			{
				"note": 54,
				"velocity": 91,
				"time": 0.2331956791666667,
				"elapsed": 133.7359480857849
			},
			{
				"note": 59,
				"velocity": 109,
				"time": 0,
				"elapsed": 134.0317451953888
			},
			{
				"note": 61,
				"velocity": 102,
				"time": 0.014621429166666665,
				"elapsed": 134.34213829040527
			},
			{
				"note": 61,
				"velocity": 0,
				"time": 0,
				"elapsed": 134.6702597141266
			},
			{
				"note": 62,
				"velocity": 102,
				"time": 0,
				"elapsed": 134.67031502723694
			},
			{
				"note": 62,
				"velocity": 0,
				"time": 0,
				"elapsed": 135.02199411392212
			},
			{
				"note": 66,
				"velocity": 92,
				"time": 0,
				"elapsed": 135.02209639549255
			},
			{
				"note": 66,
				"velocity": 0,
				"time": 0,
				"elapsed": 135.42555451393127
			},
			{
				"note": 42,
				"velocity": 109,
				"time": 0.39263076666666663,
				"elapsed": 135.8773295879364
			},
			{
				"note": 59,
				"velocity": 0,
				"time": 0.22651775,
				"elapsed": 136.10388565063477
			},
			{
				"note": 54,
				"velocity": 0,
				"time": 0,
				"elapsed": 136.1041522026062
			},
			{
				"note": 47,
				"velocity": 0,
				"time": 0,
				"elapsed": 136.33088064193726
			},
			{
				"note": 42,
				"velocity": 0,
				"time": 0,
				"elapsed": 136.33096551895142
			},
			{
				"note": 43,
				"velocity": 105,
				"time": 0,
				"elapsed": 136.33101749420166
			},
			{
				"note": 50,
				"velocity": 97,
				"time": 0,
				"elapsed": 136.65735483169556
			},
			{
				"note": 55,
				"velocity": 86,
				"time": 0,
				"elapsed": 136.96264481544495
			},
			{
				"note": 59,
				"velocity": 115,
				"time": 0.0061370729166666665,
				"elapsed": 137.26020622253418
			},
			{
				"note": 50,
				"velocity": 0,
				"time": 0,
				"elapsed": 137.5518820285797
			},
			{
				"note": 55,
				"velocity": 0,
				"time": 0.0393982875,
				"elapsed": 137.8395140171051
			},
			{
				"note": 50,
				"velocity": 97,
				"time": 0,
				"elapsed": 137.84000205993652
			},
			{
				"note": 55,
				"velocity": 95,
				"time": 0,
				"elapsed": 138.1252565383911
			},
			{
				"note": 59,
				"velocity": 0,
				"time": 0.02600720833333333,
				"elapsed": 138.26726174354553
			},
			{
				"note": 43,
				"velocity": 0,
				"time": 0.06485852083333332,
				"elapsed": 138.40906357765198
			},
			{
				"note": 59,
				"velocity": 107,
				"time": 0,
				"elapsed": 138.40929698944092
			},
			{
				"note": 50,
				"velocity": 0,
				"time": 0.09057975208333333,
				"elapsed": 138.5502645969391
			},
			{
				"note": 59,
				"velocity": 0,
				"time": 0.016428854166666666,
				"elapsed": 138.6535518169403
			},
			{
				"note": 55,
				"velocity": 0,
				"time": 0,
				"elapsed": 138.65368056297302
			},
			{
				"note": 45,
				"velocity": 103,
				"time": 0.025753887499999996,
				"elapsed": 138.69105505943298
			},
			{
				"note": 52,
				"velocity": 91,
				"time": 0.18847163124999997,
				"elapsed": 138.97196888923645
			},
			{
				"note": 57,
				"velocity": 100,
				"time": 0,
				"elapsed": 139.2531087398529
			},
			{
				"note": 61,
				"velocity": 112,
				"time": 0,
				"elapsed": 139.53361988067627
			},
			{
				"note": 52,
				"velocity": 0,
				"time": 0,
				"elapsed": 139.8135392665863
			},
			{
				"note": 57,
				"velocity": 0,
				"time": 0,
				"elapsed": 140.0933096408844
			},
			{
				"note": 52,
				"velocity": 95,
				"time": 0,
				"elapsed": 140.0933756828308
			},
			{
				"note": 57,
				"velocity": 100,
				"time": 0,
				"elapsed": 140.37275409698486
			},
			{
				"note": 61,
				"velocity": 0,
				"time": 0.139457,
				"elapsed": 140.5120677947998
			},
			{
				"note": 45,
				"velocity": 0,
				"time": 0,
				"elapsed": 140.65163350105286
			},
			{
				"note": 52,
				"velocity": 0,
				"time": 0.012783558333333334,
				"elapsed": 140.87464952468872
			},
			{
				"note": 57,
				"velocity": 0,
				"time": 0,
				"elapsed": 140.8934633731842
			},
			{
				"note": 47,
				"velocity": 103,
				"time": 0,
				"elapsed": 140.93051195144653
			},
			{
				"note": 50,
				"velocity": 103,
				"time": 0.20023164166666663,
				"elapsed": 141.2082405090332
			},
			{
				"note": 54,
				"velocity": 93,
				"time": 0.06481486666666665,
				"elapsed": 141.48606204986572
			},
			{
				"note": 59,
				"velocity": 112,
				"time": 0.274305775,
				"elapsed": 141.76381659507751
			},
			{
				"note": 50,
				"velocity": 0,
				"time": 0.20370386666666662,
				"elapsed": 142.04148030281067
			},
			{
				"note": 54,
				"velocity": 0,
				"time": 0.24652797499999995,
				"elapsed": 142.319402217865
			},
			{
				"note": 50,
				"velocity": 91,
				"time": 0,
				"elapsed": 142.31965398788452
			},
			{
				"note": 59,
				"velocity": 0,
				"time": 0.27777799999999997,
				"elapsed": 142.59710884094238
			},
			{
				"note": 54,
				"velocity": 100,
				"time": 0,
				"elapsed": 142.59733128547668
			},
			{
				"note": 47,
				"velocity": 0,
				"time": 0.27777799999999997,
				"elapsed": 142.8748540878296
			},
			{
				"note": 59,
				"velocity": 105,
				"time": 0,
				"elapsed": 142.87494206428528
			},
			{
				"note": 50,
				"velocity": 0,
				"time": 0.0046296333333333325,
				"elapsed": 143.06022715568542
			},
			{
				"note": 54,
				"velocity": 0,
				"time": 0.01851853333333333,
				"elapsed": 143.07861709594727
			},
			{
				"note": 59,
				"velocity": 0,
				"time": 0.015046308333333331,
				"elapsed": 143.1341392993927
			},
			{
				"note": 47,
				"velocity": 110,
				"time": 0.0011574083333333331,
				"elapsed": 143.15265774726868
			},
			{
				"note": 54,
				"velocity": 97,
				"time": 0.24305574999999996,
				"elapsed": 143.43040442466736
			},
			{
				"note": 59,
				"velocity": 110,
				"time": 0.27777799999999997,
				"elapsed": 143.70823001861572
			},
			{
				"note": 59,
				"velocity": 0,
				"time": 0.10763897499999998,
				"elapsed": 143.98600482940674
			},
			{
				"note": 62,
				"velocity": 103,
				"time": 0,
				"elapsed": 143.9861617088318
			},
			{
				"note": 62,
				"velocity": 0,
				"time": 0,
				"elapsed": 144.2637996673584
			},
			{
				"note": 61,
				"velocity": 95,
				"time": 0,
				"elapsed": 144.2638738155365
			},
			{
				"note": 61,
				"velocity": 0,
				"time": 0,
				"elapsed": 144.5488142967224
			},
			{
				"note": 59,
				"velocity": 95,
				"time": 0,
				"elapsed": 144.54886150360107
			},
			{
				"note": 54,
				"velocity": 0,
				"time": 0.012244104166666665,
				"elapsed": 144.69427847862244
			},
			{
				"note": 54,
				"velocity": 93,
				"time": 0,
				"elapsed": 144.84269547462463
			},
			{
				"note": 47,
				"velocity": 0,
				"time": 0,
				"elapsed": 144.99302554130554
			},
			{
				"note": 59,
				"velocity": 0,
				"time": 0.09244248541666666,
				"elapsed": 145.14484357833862
			},
			{
				"note": 54,
				"velocity": 0,
				"time": 0.0379900625,
				"elapsed": 145.29685473442078
			},
			{
				"note": 43,
				"velocity": 103,
				"time": 0.0023148166666666662,
				"elapsed": 145.44170904159546
			},
			{
				"note": 50,
				"velocity": 103,
				"time": 0.18055569999999996,
				"elapsed": 145.7195053100586
			},
			{
				"note": 55,
				"velocity": 86,
				"time": 0.06481486666666665,
				"elapsed": 145.99724054336548
			},
			{
				"note": 59,
				"velocity": 115,
				"time": 0.0023148166666666662,
				"elapsed": 146.2751021385193
			},
			{
				"note": 50,
				"velocity": 0,
				"time": 0.12847232499999997,
				"elapsed": 146.5528244972229
			},
			{
				"note": 55,
				"velocity": 0,
				"time": 0.27777799999999997,
				"elapsed": 146.83074975013733
			},
			{
				"note": 50,
				"velocity": 97,
				"time": 0,
				"elapsed": 146.83109092712402
			},
			{
				"note": 55,
				"velocity": 95,
				"time": 0.27777799999999997,
				"elapsed": 147.10848212242126
			},
			{
				"note": 59,
				"velocity": 0,
				"time": 0.13888899999999998,
				"elapsed": 147.2473533153534
			},
			{
				"note": 43,
				"velocity": 0,
				"time": 0.13888899999999998,
				"elapsed": 147.38614153862
			},
			{
				"note": 59,
				"velocity": 103,
				"time": 0,
				"elapsed": 147.38631772994995
			},
			{
				"note": 50,
				"velocity": 0,
				"time": 0.13888899999999998,
				"elapsed": 147.52507877349854
			},
			{
				"note": 55,
				"velocity": 0,
				"time": 0.08333339999999999,
				"elapsed": 147.6083574295044
			},
			{
				"note": 59,
				"velocity": 0,
				"time": 0.006944449999999999,
				"elapsed": 147.62690544128418
			},
			{
				"note": 45,
				"velocity": 107,
				"time": 0.009259266666666665,
				"elapsed": 147.66398358345032
			},
			{
				"note": 52,
				"velocity": 100,
				"time": 0.1747686583333333,
				"elapsed": 147.94169640541077
			},
			{
				"note": 57,
				"velocity": 105,
				"time": 0.0011574083333333331,
				"elapsed": 148.2194983959198
			},
			{
				"note": 61,
				"velocity": 110,
				"time": 0.08449080833333332,
				"elapsed": 148.4972803592682
			},
			{
				"note": 52,
				"velocity": 0,
				"time": 0.13657418333333332,
				"elapsed": 148.91398215293884
			},
			{
				"note": 57,
				"velocity": 0,
				"time": 0.12037046666666665,
				"elapsed": 149.05284237861633
			},
			{
				"note": 52,
				"velocity": 103,
				"time": 0,
				"elapsed": 149.0530276298523
			},
			{
				"note": 57,
				"velocity": 100,
				"time": 0.0011574083333333331,
				"elapsed": 149.33057165145874
			},
			{
				"note": 61,
				"velocity": 0,
				"time": 0.13888899999999998,
				"elapsed": 149.46949982643127
			},
			{
				"note": 45,
				"velocity": 0,
				"time": 0.11111119999999998,
				"elapsed": 149.60839223861694
			},
			{
				"note": 52,
				"velocity": 0,
				"time": 0.13773159166666665,
				"elapsed": 149.74731349945068
			},
			{
				"note": 57,
				"velocity": 0,
				"time": 0.0023148166666666662,
				"elapsed": 149.83059334754944
			},
			{
				"note": 47,
				"velocity": 103,
				"time": 0.008101858333333331,
				"elapsed": 149.88616847991943
			},
			{
				"note": 54,
				"velocity": 89,
				"time": 0.20717609166666662,
				"elapsed": 150.16397500038147
			},
			{
				"note": 59,
				"velocity": 89,
				"time": 0.27777799999999997,
				"elapsed": 150.44174027442932
			},
			{
				"note": 62,
				"velocity": 105,
				"time": 0.27777799999999997,
				"elapsed": 150.71956515312195
			},
			{
				"note": 54,
				"velocity": 0,
				"time": 0.27777799999999997,
				"elapsed": 150.99766087532043
			},
			{
				"note": 59,
				"velocity": 0,
				"time": 0.27777799999999997,
				"elapsed": 151.27503442764282
			},
			{
				"note": 54,
				"velocity": 97,
				"time": 0,
				"elapsed": 151.27528142929077
			},
			{
				"note": 62,
				"velocity": 0,
				"time": 0.13888899999999998,
				"elapsed": 151.41396379470825
			},
			{
				"note": 59,
				"velocity": 100,
				"time": 0.13888899999999998,
				"elapsed": 151.5528061389923
			},
			{
				"note": 47,
				"velocity": 0,
				"time": 0.008101858333333331,
				"elapsed": 151.83061933517456
			},
			{
				"note": 62,
				"velocity": 110,
				"time": 0,
				"elapsed": 151.83093690872192
			},
			{
				"note": 54,
				"velocity": 0,
				"time": 0.009259266666666665,
				"elapsed": 151.99737405776978
			},
			{
				"note": 59,
				"velocity": 0,
				"time": 0.0023148166666666662,
				"elapsed": 152.07134532928467
			},
			{
				"note": 62,
				"velocity": 0,
				"time": 0.0011574083333333331,
				"elapsed": 152.0898597240448
			},
			{
				"note": 47,
				"velocity": 103,
				"time": 0.005787041666666666,
				"elapsed": 152.10841345787048
			},
			{
				"note": 54,
				"velocity": 93,
				"time": 0.2511576083333333,
				"elapsed": 152.38625764846802
			},
			{
				"note": 59,
				"velocity": 110,
				"time": 0.27777799999999997,
				"elapsed": 152.6639313697815
			},
			{
				"note": 61,
				"velocity": 103,
				"time": 0.27777799999999997,
				"elapsed": 152.9417040348053
			},
			{
				"note": 61,
				"velocity": 0,
				"time": 0.27777799999999997,
				"elapsed": 153.21951270103455
			},
			{
				"note": 62,
				"velocity": 103,
				"time": 0,
				"elapsed": 153.21966886520386
			},
			{
				"note": 62,
				"velocity": 0,
				"time": 0.12500009999999998,
				"elapsed": 153.4973382949829
			},
			{
				"note": 66,
				"velocity": 93,
				"time": 0,
				"elapsed": 153.49741959571838
			},
			{
				"note": 66,
				"velocity": 0,
				"time": 0,
				"elapsed": 153.7755467891693
			},
			{
				"note": 71,
				"velocity": 89,
				"time": 0,
				"elapsed": 153.7758002281189
			},
			{
				"note": 71,
				"velocity": 0,
				"time": 0.00932736875,
				"elapsed": 154.07455897331238
			},
			{
				"note": 73,
				"velocity": 112,
				"time": 0,
				"elapsed": 154.0746762752533
			},
			{
				"note": 59,
				"velocity": 0,
				"time": 0.009817120833333332,
				"elapsed": 154.23990535736084
			},
			{
				"note": 54,
				"velocity": 0,
				"time": 0,
				"elapsed": 154.24004364013672
			},
			{
				"note": 47,
				"velocity": 0,
				"time": 0.02384157916666666,
				"elapsed": 154.27359104156494
			},
			{
				"note": 73,
				"velocity": 0,
				"time": 0,
				"elapsed": 154.40676403045654
			},
			{
				"note": 47,
				"velocity": 103,
				"time": 0,
				"elapsed": 154.40679788589478
			},
			{
				"note": 54,
				"velocity": 89,
				"time": 0.21673611666666662,
				"elapsed": 154.68465065956116
			},
			{
				"note": 59,
				"velocity": 89,
				"time": 0.27816399999999997,
				"elapsed": 154.9628028869629
			},
			{
				"note": 64,
				"velocity": 105,
				"time": 0,
				"elapsed": 155.2414059638977
			},
			{
				"note": 54,
				"velocity": 0,
				"time": 0,
				"elapsed": 155.52198004722595
			},
			{
				"note": 59,
				"velocity": 0,
				"time": 0,
				"elapsed": 155.80543780326843
			},
			{
				"note": 54,
				"velocity": 97,
				"time": 0,
				"elapsed": 155.80564951896667
			},
			{
				"note": 64,
				"velocity": 0,
				"time": 0,
				"elapsed": 155.9481978416443
			},
			{
				"note": 59,
				"velocity": 100,
				"time": 0,
				"elapsed": 156.0915765762329
			},
			{
				"note": 47,
				"velocity": 0,
				"time": 0,
				"elapsed": 156.3832550048828
			},
			{
				"note": 64,
				"velocity": 110,
				"time": 0,
				"elapsed": 156.38330698013306
			},
			{
				"note": 59,
				"velocity": 0,
				"time": 0.0025128166666666665,
				"elapsed": 156.58224749565125
			},
			{
				"note": 54,
				"velocity": 0,
				"time": 0,
				"elapsed": 156.5823357105255
			},
			{
				"note": 64,
				"velocity": 0,
				"time": 0.007598012499999999,
				"elapsed": 156.66293668746948
			},
			{
				"note": 47,
				"velocity": 88,
				"time": 0.0012663354166666666,
				"elapsed": 156.68318843841553
			},
			{
				"note": 54,
				"velocity": 92,
				"time": 0,
				"elapsed": 157.00190997123718
			},
			{
				"note": 59,
				"velocity": 85,
				"time": 0,
				"elapsed": 157.36017751693726
			},
			{
				"note": 64,
				"velocity": 102,
				"time": 0,
				"elapsed": 157.74535083770752
			},
			{
				"note": 54,
				"velocity": 0,
				"time": 0.0235938125,
				"elapsed": 157.94149804115295
			},
			{
				"note": 47,
				"velocity": 0,
				"time": 0.025166733333333333,
				"elapsed": 157.96662592887878
			},
			{
				"note": 59,
				"velocity": 0,
				"time": 0.018813499999999997,
				"elapsed": 158.00436162948608
			},
			{
				"note": 64,
				"velocity": 0,
				"time": 0.017133966666666667,
				"elapsed": 158.12318062782288
			},
			{
				"note": 59,
				"velocity": 59,
				"time": 0,
				"elapsed": 158.12343168258667
			},
			{
				"note": 63,
				"velocity": 74,
				"time": 0,
				"elapsed": 158.12360310554504
			},
			{
				"note": 47,
				"velocity": 97,
				"time": 0,
				"elapsed": 158.12370419502258
			},
			{
				"note": 66,
				"velocity": 61,
				"time": 0,
				"elapsed": 158.12379693984985
			},
			{
				"note": 47,
				"velocity": 0,
				"time": 0.003539570833333333,
				"elapsed": 159.50529098510742
			},
			{
				"note": 66,
				"velocity": 0,
				"time": 0.007079141666666666,
				"elapsed": 159.50995588302612
			},
			{
				"note": 63,
				"velocity": 0,
				"time": 0.028316566666666664,
				"elapsed": 159.53821682929993
			},
			{
				"note": 59,
				"velocity": 0,
				"time": 0.01592806875,
				"elapsed": 159.58779382705688
			},
			{
				"note": 67,
				"velocity": 82,
				"time": 0.0087504375,
				"elapsed": 159.60543131828308
			},
			{
				"note": 74,
				"velocity": 74,
				"time": 0.014154687499999999,
				"elapsed": 159.9563286304474
			},
			{
				"note": 79,
				"velocity": 69,
				"time": 0.0070359062500000005,
				"elapsed": 160.30282282829285
			},
			{
				"note": 71,
				"velocity": 80,
				"time": 0.500956525,
				"elapsed": 161.32155799865723
			},
			{
				"note": 74,
				"velocity": 0,
				"time": 0.03799389375,
				"elapsed": 161.35951375961304
			},
			{
				"note": 67,
				"velocity": 0,
				"time": 0.01125745,
				"elapsed": 161.37079215049744
			},
			{
				"note": 79,
				"velocity": 0,
				"time": 0.039401075,
				"elapsed": 161.4102339744568
			},
			{
				"note": 83,
				"velocity": 60,
				"time": 0.2561069875,
				"elapsed": 161.6662802696228
			},
			{
				"note": 83,
				"velocity": 0,
				"time": 0.4024538375,
				"elapsed": 162.06878662109375
			},
			{
				"note": 71,
				"velocity": 0,
				"time": 0.0759877875,
				"elapsed": 162.14473176002502
			},
			{
				"note": 69,
				"velocity": 82,
				"time": 0.0028143625,
				"elapsed": 162.34173822402954
			},
			{
				"note": 76,
				"velocity": 66,
				"time": 0.27721470625,
				"elapsed": 162.6809778213501
			},
			{
				"note": 81,
				"velocity": 58,
				"time": 0.0155244375,
				"elapsed": 162.99753832817078
			},
			{
				"note": 81,
				"velocity": 0,
				"time": 0.03886165833333333,
				"elapsed": 163.74529790878296
			},
			{
				"note": 76,
				"velocity": 0,
				"time": 0.2570848166666666,
				"elapsed": 164.00384044647217
			},
			{
				"note": 69,
				"velocity": 0,
				"time": 0.026904224999999997,
				"elapsed": 164.03089475631714
			},
			{
				"note": 73,
				"velocity": 54,
				"time": 0.03437762083333333,
				"elapsed": 164.0652265548706
			},
			{
				"note": 76,
				"velocity": 86,
				"time": 0.30491454999999995,
				"elapsed": 164.42086958885193
			},
			{
				"note": 73,
				"velocity": 0,
				"time": 0.013452112499999998,
				"elapsed": 164.43734002113342
			},
			{
				"note": 71,
				"velocity": 86,
				"time": 0.005905283333333333,
				"elapsed": 165.13186621665955
			},
			{
				"note": 76,
				"velocity": 0,
				"time": 0,
				"elapsed": 165.13934803009033
			},
			{
				"note": 78,
				"velocity": 60,
				"time": 0.0700035,
				"elapsed": 165.4868986606598
			},
			{
				"note": 71,
				"velocity": 0,
				"time": 0.03780389166666666,
				"elapsed": 165.5335237979889
			},
			{
				"note": 78,
				"velocity": 0,
				"time": 0.2735760645833333,
				"elapsed": 166.7998173236847
			},
			{
				"note": 66,
				"velocity": 64,
				"time": 0.06445509375,
				"elapsed": 166.86414909362793
			},
			{
				"note": 66,
				"velocity": 0,
				"time": 0.12424306874999999,
				"elapsed": 167.20176911354065
			},
			{
				"note": 71,
				"velocity": 54,
				"time": 0.0028561625,
				"elapsed": 167.20462369918823
			},
			{
				"note": 74,
				"velocity": 67,
				"time": 0.03680218749999999,
				"elapsed": 167.5500521659851
			},
			{
				"note": 71,
				"velocity": 0,
				"time": 0.07785078124999999,
				"elapsed": 167.6279513835907
			},
			{
				"note": 78,
				"velocity": 66,
				"time": 0.015478993750000001,
				"elapsed": 167.89030861854553
			},
			{
				"note": 74,
				"velocity": 0,
				"time": 0.014071812500000001,
				"elapsed": 167.9198260307312
			},
			{
				"note": 71,
				"velocity": 80,
				"time": 0.13570239374999998,
				"elapsed": 168.232497215271
			},
			{
				"note": 78,
				"velocity": 0,
				"time": 0.06015673125,
				"elapsed": 168.2926139831543
			},
			{
				"note": 83,
				"velocity": 76,
				"time": 0.27839975624999996,
				"elapsed": 168.5709936618805
			},
			{
				"note": 71,
				"velocity": 0,
				"time": 0.019585912499999997,
				"elapsed": 168.59058260917664
			},
			{
				"note": 83,
				"velocity": 0,
				"time": 0.18886415625,
				"elapsed": 168.77950072288513
			},
			{
				"note": 78,
				"velocity": 70,
				"time": 0.67291599375,
				"elapsed": 169.56431770324707
			},
			{
				"note": 71,
				"velocity": 84,
				"time": 0.29798566875,
				"elapsed": 169.90159845352173
			},
			{
				"note": 78,
				"velocity": 0,
				"time": 0.0013989937499999999,
				"elapsed": 169.9084370136261
			},
			{
				"note": 71,
				"velocity": 0,
				"time": 0.30218265,
				"elapsed": 170.21066999435425
			},
			{
				"note": 66,
				"velocity": 57,
				"time": 0.022383899999999998,
				"elapsed": 170.2330026626587
			},
			{
				"note": 66,
				"velocity": 0,
				"time": 0.0069949687499999995,
				"elapsed": 170.56599259376526
			},
			{
				"note": 67,
				"velocity": 73,
				"time": 0.0013989937499999999,
				"elapsed": 170.56734824180603
			},
			{
				"note": 74,
				"velocity": 73,
				"time": 0.25741485,
				"elapsed": 170.89894151687622
			},
			{
				"note": 79,
				"velocity": 59,
				"time": 0.0251818875,
				"elapsed": 171.23619771003723
			},
			{
				"note": 67,
				"velocity": 0,
				"time": 0.16648025624999999,
				"elapsed": 171.9301052093506
			},
			{
				"note": 74,
				"velocity": 0,
				"time": 0.022383899999999998,
				"elapsed": 171.95240831375122
			},
			{
				"note": 71,
				"velocity": 66,
				"time": 0.0450298,
				"elapsed": 172.24789309501648
			},
			{
				"note": 79,
				"velocity": 0,
				"time": 0.025403625,
				"elapsed": 172.31962084770203
			},
			{
				"note": 83,
				"velocity": 57,
				"time": 0.037020154166666666,
				"elapsed": 172.59463047981262
			},
			{
				"note": 83,
				"velocity": 0,
				"time": 0.05781016666666666,
				"elapsed": 173.06802439689636
			},
			{
				"note": 71,
				"velocity": 0,
				"time": 0.008697674999999998,
				"elapsed": 173.09851837158203
			},
			{
				"note": 69,
				"velocity": 50,
				"time": 0.0087504375,
				"elapsed": 173.2886257171631
			},
			{
				"note": 76,
				"velocity": 80,
				"time": 0.08683619999999999,
				"elapsed": 173.6375114917755
			},
			{
				"note": 81,
				"velocity": 66,
				"time": 0.011920366666666665,
				"elapsed": 173.9932553768158
			},
			{
				"note": 76,
				"velocity": 0,
				"time": 0.0037174708333333334,
				"elapsed": 174.78830790519714
			},
			{
				"note": 81,
				"velocity": 0,
				"time": 0.0038825916666666662,
				"elapsed": 174.89254808425903
			},
			{
				"note": 69,
				"velocity": 0,
				"time": 0.003962591666666666,
				"elapsed": 174.9358971118927
			},
			{
				"note": 81,
				"velocity": 69,
				"time": 0.022190666666666664,
				"elapsed": 175.20378994941711
			},
			{
				"note": 86,
				"velocity": 43,
				"time": 0.011750883333333332,
				"elapsed": 175.82852339744568
			},
			{
				"note": 81,
				"velocity": 0,
				"time": 0.020818466666666664,
				"elapsed": 175.86994791030884
			},
			{
				"note": 86,
				"velocity": 0,
				"time": 0.6453724666666666,
				"elapsed": 176.51527380943298
			},
			{
				"note": 90,
				"velocity": 43,
				"time": 0.04758506666666666,
				"elapsed": 176.56282305717468
			},
			{
				"note": 90,
				"velocity": 0,
				"time": 0.03963220833333333,
				"elapsed": 178.0175175666809
			},
			{
				"note": 86,
				"velocity": 64,
				"time": 0.003135583333333333,
				"elapsed": 178.171217918396
			},
			{
				"note": 78,
				"velocity": 73,
				"time": 0,
				"elapsed": 178.17154502868652
			},
			{
				"note": 86,
				"velocity": 0,
				"time": 0,
				"elapsed": 178.48903441429138
			},
			{
				"note": 78,
				"velocity": 0,
				"time": 0.012069999999999999,
				"elapsed": 178.5177083015442
			},
			{
				"note": 66,
				"velocity": 69,
				"time": 0.002890508333333333,
				"elapsed": 178.88703846931458
			},
			{
				"note": 74,
				"velocity": 80,
				"time": 0.008671525,
				"elapsed": 178.89570689201355
			},
			{
				"note": 74,
				"velocity": 0,
				"time": 0.00419698125,
				"elapsed": 179.16043329238892
			},
			{
				"note": 66,
				"velocity": 0,
				"time": 0.016787925,
				"elapsed": 179.2458212375641
			},
			{
				"note": 54,
				"velocity": 77,
				"time": 0.015433825,
				"elapsed": 179.59006071090698
			},
			{
				"note": 62,
				"velocity": 73,
				"time": 0.004209225,
				"elapsed": 179.59434390068054
			},
			{
				"note": 62,
				"velocity": 0,
				"time": 0.009821525,
				"elapsed": 179.93666458129883
			},
			{
				"note": 54,
				"velocity": 0,
				"time": 0.00140718125,
				"elapsed": 179.98284697532654
			},
			{
				"note": 42,
				"velocity": 77,
				"time": 0.00497941875,
				"elapsed": 180.28005576133728
			},
			{
				"note": 50,
				"velocity": 71,
				"time": 0.00829903125,
				"elapsed": 180.28841471672058
			},
			{
				"note": 50,
				"velocity": 0,
				"time": 0.12189174999999998,
				"elapsed": 180.82994651794434
			},
			{
				"note": 42,
				"velocity": 0,
				"time": 0.004063058333333333,
				"elapsed": 180.83403158187866
			},
			{
				"note": 35,
				"velocity": 80,
				"time": 0.004545454166666667,
				"elapsed": 181.51957511901855
			},
			{
				"note": 35,
				"velocity": 0,
				"time": 0.011363635416666667,
				"elapsed": 185.72181248664856
			}
		]
	},
	"program_change": {
		"0": [
			{
				"channel": 0,
				"time": 0
			},
			{
				"channel": 1,
				"time": 0
			}
		]
	},
	"set_tempo": []
}
