{
    "ticks_per_beat": 480,
    "notes": {
        "0": [
            {
                "note": 73,
                "velocity": 80,
                "time": 0,
                "total_time": 0.0759422779083252
            },
            {
                "note": 49,
                "velocity": 80,
                "time": 0,
                "total_time": 0.07599377632141113
            },
            {
                "note": 56,
                "velocity": 80,
                "time": 0,
                "total_time": 0.07600879669189453
            },
            {
                "note": 61,
                "velocity": 80,
                "time": 0,
                "total_time": 0.07602047920227051
            },
            {
                "note": 73,
                "velocity": 0,
                "time": 0.8962485062499999,
                "total_time": 0.8989975452423096
            },
            {
                "note": 76,
                "velocity": 80,
                "time": 0.0012499979166666665,
                "total_time": 0.900078296661377
            },
            {
                "note": 49,
                "velocity": 0,
                "time": 0.2387496020833333,
                "total_time": 1.1388881206512451
            },
            {
                "note": 56,
                "velocity": 0,
                "time": 0,
                "total_time": 1.1391165256500244
            },
            {
                "note": 61,
                "velocity": 0,
                "time": 0,
                "total_time": 1.1392080783843994
            },
            {
                "note": 76,
                "velocity": 0,
                "time": 0.044999924999999996,
                "total_time": 1.1838717460632324
            },
            {
                "note": 75,
                "velocity": 80,
                "time": 0.016249972916666664,
                "total_time": 1.200141429901123
            },
            {
                "note": 44,
                "velocity": 80,
                "time": 0,
                "total_time": 1.2005765438079834
            },
            {
                "note": 51,
                "velocity": 80,
                "time": 0,
                "total_time": 1.2007451057434082
            },
            {
                "note": 56,
                "velocity": 80,
                "time": 0,
                "total_time": 1.200845718383789
            },
            {
                "note": 75,
                "velocity": 0,
                "time": 0.8962485062499999,
                "total_time": 2.0989742279052734
            },
            {
                "note": 80,
                "velocity": 80,
                "time": 0.0012499979166666665,
                "total_time": 2.100109815597534
            },
            {
                "note": 44,
                "velocity": 0,
                "time": 0.2387496020833333,
                "total_time": 2.3388538360595703
            },
            {
                "note": 51,
                "velocity": 0,
                "time": 0,
                "total_time": 2.3390626907348633
            },
            {
                "note": 56,
                "velocity": 0,
                "time": 0,
                "total_time": 2.339134693145752
            },
            {
                "note": 80,
                "velocity": 0,
                "time": 0.044999924999999996,
                "total_time": 2.383859157562256
            },
            {
                "note": 80,
                "velocity": 80,
                "time": 0.016249972916666664,
                "total_time": 2.4001047611236572
            },
            {
                "note": 45,
                "velocity": 80,
                "time": 0,
                "total_time": 2.400346040725708
            },
            {
                "note": 52,
                "velocity": 80,
                "time": 0,
                "total_time": 2.4004147052764893
            },
            {
                "note": 57,
                "velocity": 80,
                "time": 0,
                "total_time": 2.4004642963409424
            },
            {
                "note": 80,
                "velocity": 0,
                "time": 0.8962485062499999,
                "total_time": 3.298823356628418
            },
            {
                "note": 78,
                "velocity": 80,
                "time": 0.0012499979166666665,
                "total_time": 3.30007266998291
            },
            {
                "note": 78,
                "velocity": 0,
                "time": 0.14874975208333333,
                "total_time": 3.448847770690918
            },
            {
                "note": 76,
                "velocity": 80,
                "time": 0.0012499979166666665,
                "total_time": 3.450071096420288
            },
            {
                "note": 45,
                "velocity": 0,
                "time": 0.08874985208333332,
                "total_time": 3.53891921043396
            },
            {
                "note": 52,
                "velocity": 0,
                "time": 0,
                "total_time": 3.5390913486480713
            },
            {
                "note": 57,
                "velocity": 0,
                "time": 0,
                "total_time": 3.539161205291748
            },
            {
                "note": 76,
                "velocity": 0,
                "time": 0.052499912499999996,
                "total_time": 3.591325044631958
            },
            {
                "note": 75,
                "velocity": 80,
                "time": 0.008749985416666665,
                "total_time": 3.600132703781128
            },
            {
                "note": 47,
                "velocity": 80,
                "time": 0,
                "total_time": 3.600216865539551
            },
            {
                "note": 54,
                "velocity": 80,
                "time": 0,
                "total_time": 3.600243091583252
            },
            {
                "note": 59,
                "velocity": 80,
                "time": 0,
                "total_time": 3.6002657413482666
            },
            {
                "note": 75,
                "velocity": 0,
                "time": 0.29624950624999996,
                "total_time": 3.898897886276245
            },
            {
                "note": 76,
                "velocity": 80,
                "time": 0.0012499979166666665,
                "total_time": 3.9000720977783203
            },
            {
                "note": 76,
                "velocity": 0,
                "time": 0.2987495020833333,
                "total_time": 4.198883771896362
            },
            {
                "note": 71,
                "velocity": 80,
                "time": 0.0012499979166666665,
                "total_time": 4.200059175491333
            },
            {
                "note": 71,
                "velocity": 0,
                "time": 0.2987495020833333,
                "total_time": 4.498876571655273
            },
            {
                "note": 68,
                "velocity": 80,
                "time": 0.0012499979166666665,
                "total_time": 4.500061273574829
            },
            {
                "note": 47,
                "velocity": 0,
                "time": 0.2387496020833333,
                "total_time": 4.738863468170166
            },
            {
                "note": 54,
                "velocity": 0,
                "time": 0,
                "total_time": 4.739104747772217
            },
            {
                "note": 59,
                "velocity": 0,
                "time": 0,
                "total_time": 4.739198207855225
            },
            {
                "note": 68,
                "velocity": 0,
                "time": 0.044999924999999996,
                "total_time": 4.783870697021484
            },
            {
                "note": 69,
                "velocity": 80,
                "time": 0.016249972916666664,
                "total_time": 4.800072193145752
            },
            {
                "note": 42,
                "velocity": 80,
                "time": 0,
                "total_time": 4.800162076950073
            },
            {
                "note": 49,
                "velocity": 80,
                "time": 0,
                "total_time": 4.800191164016724
            },
            {
                "note": 54,
                "velocity": 80,
                "time": 0,
                "total_time": 4.800213098526001
            },
            {
                "note": 69,
                "velocity": 0,
                "time": 0.07374987708333332,
                "total_time": 5.398859024047852
            },
            {
                "note": 73,
                "velocity": 84,
                "time": 0.0012499979166666665,
                "total_time": 5.400053024291992
            },
            {
                "note": 73,
                "velocity": 0,
                "time": 0.11124981458333331,
                "total_time": 5.698879718780518
            },
            {
                "note": 76,
                "velocity": 86,
                "time": 0.0012499979166666665,
                "total_time": 5.7000885009765625
            },
            {
                "note": 42,
                "velocity": 0,
                "time": 0.08874985208333332,
                "total_time": 5.938886880874634
            },
            {
                "note": 49,
                "velocity": 0,
                "time": 0,
                "total_time": 5.9389753341674805
            },
            {
                "note": 54,
                "velocity": 0,
                "time": 0,
                "total_time": 5.939001798629761
            },
            {
                "note": 76,
                "velocity": 0,
                "time": 0.002499995833333333,
                "total_time": 5.983825445175171
            },
            {
                "note": 76,
                "velocity": 89,
                "time": 0.016249972916666664,
                "total_time": 6.000066757202148
            },
            {
                "note": 44,
                "velocity": 89,
                "time": 0,
                "total_time": 6.000158309936523
            },
            {
                "note": 51,
                "velocity": 89,
                "time": 0,
                "total_time": 6.000185966491699
            },
            {
                "note": 56,
                "velocity": 89,
                "time": 0,
                "total_time": 6.00020956993103
            },
            {
                "note": 76,
                "velocity": 0,
                "time": 0.09249984583333332,
                "total_time": 6.598867177963257
            },
            {
                "note": 75,
                "velocity": 93,
                "time": 0.0012499979166666665,
                "total_time": 6.600080490112305
            },
            {
                "note": 75,
                "velocity": 0,
                "time": 0.1299997833333333,
                "total_time": 6.899006605148315
            },
            {
                "note": 76,
                "velocity": 96,
                "time": 0,
                "total_time": 6.900268077850342
            },
            {
                "note": 76,
                "velocity": 0,
                "time": 0.02124996458333333,
                "total_time": 7.183817148208618
            },
            {
                "note": 83,
                "velocity": 117,
                "time": 0.016249972916666664,
                "total_time": 7.20011568069458
            },
            {
                "note": 83,
                "velocity": 0,
                "time": 0.04374992708333333,
                "total_time": 7.600127220153809
            },
            {
                "note": 44,
                "velocity": 0,
                "time": 0.02124996458333333,
                "total_time": 7.708916664123535
            },
            {
                "note": 51,
                "velocity": 0,
                "time": 0,
                "total_time": 7.709151983261108
            },
            {
                "note": 56,
                "velocity": 0,
                "time": 0,
                "total_time": 7.709243297576904
            },
            {
                "note": 69,
                "velocity": 122,
                "time": 0.09124984791666665,
                "total_time": 7.800130367279053
            },
            {
                "note": 73,
                "velocity": 122,
                "time": 0,
                "total_time": 7.800455808639526
            },
            {
                "note": 81,
                "velocity": 122,
                "time": 0,
                "total_time": 7.80055570602417
            },
            {
                "note": 33,
                "velocity": 102,
                "time": 0,
                "total_time": 7.800650596618652
            },
            {
                "note": 40,
                "velocity": 102,
                "time": 0,
                "total_time": 7.800788164138794
            },
            {
                "note": 45,
                "velocity": 102,
                "time": 0,
                "total_time": 7.800945043563843
            },
            {
                "note": 33,
                "velocity": 0,
                "time": 0.01749997083333333,
                "total_time": 8.098857164382935
            },
            {
                "note": 40,
                "velocity": 0,
                "time": 0,
                "total_time": 8.098945379257202
            },
            {
                "note": 45,
                "velocity": 0,
                "time": 0,
                "total_time": 8.098972082138062
            },
            {
                "note": 69,
                "velocity": 0,
                "time": 0.10124983124999999,
                "total_time": 8.200068712234497
            },
            {
                "note": 73,
                "velocity": 0,
                "time": 0,
                "total_time": 8.200183868408203
            },
            {
                "note": 81,
                "velocity": 0,
                "time": 0,
                "total_time": 8.200221300125122
            },
            {
                "note": 71,
                "velocity": 127,
                "time": 0.056249906249999995,
                "total_time": 8.400081396102905
            },
            {
                "note": 75,
                "velocity": 127,
                "time": 0,
                "total_time": 8.400256395339966
            },
            {
                "note": 83,
                "velocity": 127,
                "time": 0,
                "total_time": 8.400311470031738
            },
            {
                "note": 35,
                "velocity": 107,
                "time": 0,
                "total_time": 8.400356769561768
            },
            {
                "note": 42,
                "velocity": 107,
                "time": 0,
                "total_time": 8.400420904159546
            },
            {
                "note": 47,
                "velocity": 107,
                "time": 0,
                "total_time": 8.400463342666626
            },
            {
                "note": 35,
                "velocity": 0,
                "time": 0.09249984583333332,
                "total_time": 8.698981285095215
            },
            {
                "note": 42,
                "velocity": 0,
                "time": 0,
                "total_time": 8.699173927307129
            },
            {
                "note": 47,
                "velocity": 0,
                "time": 0,
                "total_time": 8.69923996925354
            },
            {
                "note": 71,
                "velocity": 0,
                "time": 0.062499895833333326,
                "total_time": 8.800066947937012
            },
            {
                "note": 75,
                "velocity": 0,
                "time": 0,
                "total_time": 8.800153255462646
            },
            {
                "note": 83,
                "velocity": 0,
                "time": 0,
                "total_time": 8.800178527832031
            },
            {
                "note": 73,
                "velocity": 127,
                "time": 0,
                "total_time": 9.000127077102661
            },
            {
                "note": 77,
                "velocity": 127,
                "time": 0,
                "total_time": 9.000184297561646
            },
            {
                "note": 85,
                "velocity": 127,
                "time": 0,
                "total_time": 9.00020956993103
            },
            {
                "note": 37,
                "velocity": 112,
                "time": 0,
                "total_time": 9.000245332717896
            },
            {
                "note": 44,
                "velocity": 112,
                "time": 0,
                "total_time": 9.000271081924438
            },
            {
                "note": 49,
                "velocity": 112,
                "time": 0,
                "total_time": 9.00029444694519
            },
            {
                "note": 37,
                "velocity": 0,
                "time": 0.2987495020833333,
                "total_time": 9.298996210098267
            },
            {
                "note": 44,
                "velocity": 0,
                "time": 0,
                "total_time": 9.299222230911255
            },
            {
                "note": 49,
                "velocity": 0,
                "time": 0,
                "total_time": 9.299299716949463
            },
            {
                "note": 73,
                "velocity": 0,
                "time": 0.10124983124999999,
                "total_time": 9.400063276290894
            },
            {
                "note": 77,
                "velocity": 0,
                "time": 0,
                "total_time": 9.400146007537842
            },
            {
                "note": 85,
                "velocity": 0,
                "time": 0,
                "total_time": 9.400170803070068
            },
            {
                "note": 75,
                "velocity": 127,
                "time": 0,
                "total_time": 9.600135326385498
            },
            {
                "note": 63,
                "velocity": 112,
                "time": 0,
                "total_time": 9.600232601165771
            },
            {
                "note": 66,
                "velocity": 112,
                "time": 0,
                "total_time": 9.600286722183228
            },
            {
                "note": 39,
                "velocity": 112,
                "time": 0,
                "total_time": 9.600343704223633
            },
            {
                "note": 39,
                "velocity": 0,
                "time": 0,
                "total_time": 9.600376605987549
            },
            {
                "note": 39,
                "velocity": 112,
                "time": 0,
                "total_time": 9.600409030914307
            },
            {
                "note": 46,
                "velocity": 96,
                "time": 0,
                "total_time": 9.750255346298218
            },
            {
                "note": 46,
                "velocity": 0,
                "time": 0.14124976458333333,
                "total_time": 9.891356706619263
            },
            {
                "note": 51,
                "velocity": 96,
                "time": 0.008749985416666665,
                "total_time": 9.900105476379395
            },
            {
                "note": 51,
                "velocity": 0,
                "time": 0.14124976458333333,
                "total_time": 10.041312456130981
            },
            {
                "note": 46,
                "velocity": 96,
                "time": 0.008749985416666665,
                "total_time": 10.050065040588379
            },
            {
                "note": 46,
                "velocity": 0,
                "time": 0.14124976458333333,
                "total_time": 10.191344738006592
            },
            {
                "note": 54,
                "velocity": 96,
                "time": 0.008749985416666665,
                "total_time": 10.200063467025757
            },
            {
                "note": 75,
                "velocity": 0,
                "time": 0.0012499979166666665,
                "total_time": 10.201303482055664
            },
            {
                "note": 54,
                "velocity": 0,
                "time": 0.13999976666666664,
                "total_time": 10.34138035774231
            },
            {
                "note": 46,
                "velocity": 96,
                "time": 0.008749985416666665,
                "total_time": 10.350109815597534
            },
            {
                "note": 46,
                "velocity": 0,
                "time": 0.14124976458333333,
                "total_time": 10.491350889205933
            },
            {
                "note": 66,
                "velocity": 0,
                "time": 0.008749985416666665,
                "total_time": 10.50010061264038
            },
            {
                "note": 66,
                "velocity": 112,
                "time": 0,
                "total_time": 10.500341892242432
            },
            {
                "note": 78,
                "velocity": 112,
                "time": 0,
                "total_time": 10.500492334365845
            },
            {
                "note": 51,
                "velocity": 96,
                "time": 0,
                "total_time": 10.500579118728638
            },
            {
                "note": 51,
                "velocity": 0,
                "time": 0.14124976458333333,
                "total_time": 10.641351461410522
            },
            {
                "note": 46,
                "velocity": 96,
                "time": 0.008749985416666665,
                "total_time": 10.650157451629639
            },
            {
                "note": 39,
                "velocity": 0,
                "time": 0.08874985208333332,
                "total_time": 10.738831281661987
            },
            {
                "note": 78,
                "velocity": 0,
                "time": 0.044999924999999996,
                "total_time": 10.783857822418213
            },
            {
                "note": 46,
                "velocity": 0,
                "time": 0.007499987499999999,
                "total_time": 10.791350364685059
            },
            {
                "note": 63,
                "velocity": 0,
                "time": 0.007499987499999999,
                "total_time": 10.798816442489624
            },
            {
                "note": 66,
                "velocity": 0,
                "time": 0,
                "total_time": 10.79893970489502
            },
            {
                "note": 77,
                "velocity": 127,
                "time": 0.0012499979166666665,
                "total_time": 10.800045251846313
            },
            {
                "note": 65,
                "velocity": 112,
                "time": 0,
                "total_time": 10.800093412399292
            },
            {
                "note": 70,
                "velocity": 112,
                "time": 0,
                "total_time": 10.800132989883423
            },
            {
                "note": 34,
                "velocity": 112,
                "time": 0,
                "total_time": 10.800157070159912
            },
            {
                "note": 34,
                "velocity": 0,
                "time": 0,
                "total_time": 10.800181150436401
            },
            {
                "note": 34,
                "velocity": 112,
                "time": 0,
                "total_time": 10.80020546913147
            },
            {
                "note": 41,
                "velocity": 96,
                "time": 0,
                "total_time": 10.950193881988525
            },
            {
                "note": 41,
                "velocity": 0,
                "time": 0.14124976458333333,
                "total_time": 11.091378450393677
            },
            {
                "note": 46,
                "velocity": 96,
                "time": 0.008749985416666665,
                "total_time": 11.10010027885437
            },
            {
                "note": 46,
                "velocity": 0,
                "time": 0.14124976458333333,
                "total_time": 11.241345643997192
            },
            {
                "note": 41,
                "velocity": 96,
                "time": 0.008749985416666665,
                "total_time": 11.250126123428345
            },
            {
                "note": 41,
                "velocity": 0,
                "time": 0.14124976458333333,
                "total_time": 11.391491889953613
            },
            {
                "note": 49,
                "velocity": 96,
                "time": 0.008749985416666665,
                "total_time": 11.400106430053711
            },
            {
                "note": 77,
                "velocity": 0,
                "time": 0.0012499979166666665,
                "total_time": 11.401324272155762
            },
            {
                "note": 49,
                "velocity": 0,
                "time": 0.13999976666666664,
                "total_time": 11.541370630264282
            },
            {
                "note": 41,
                "velocity": 96,
                "time": 0.008749985416666665,
                "total_time": 11.550153017044067
            },
            {
                "note": 41,
                "velocity": 0,
                "time": 0.14124976458333333,
                "total_time": 11.691345930099487
            },
            {
                "note": 70,
                "velocity": 0,
                "time": 0.008749985416666665,
                "total_time": 11.700117349624634
            },
            {
                "note": 70,
                "velocity": 112,
                "time": 0,
                "total_time": 11.700393438339233
            },
            {
                "note": 82,
                "velocity": 112,
                "time": 0,
                "total_time": 11.70056676864624
            },
            {
                "note": 46,
                "velocity": 96,
                "time": 0,
                "total_time": 11.700662612915039
            },
            {
                "note": 46,
                "velocity": 0,
                "time": 0.14124976458333333,
                "total_time": 11.841345071792603
            },
            {
                "note": 41,
                "velocity": 96,
                "time": 0.008749985416666665,
                "total_time": 11.850131034851074
            },
            {
                "note": 34,
                "velocity": 0,
                "time": 0.08874985208333332,
                "total_time": 11.938903570175171
            },
            {
                "note": 82,
                "velocity": 0,
                "time": 0.044999924999999996,
                "total_time": 11.983861684799194
            },
            {
                "note": 41,
                "velocity": 0,
                "time": 0.007499987499999999,
                "total_time": 11.99131965637207
            },
            {
                "note": 65,
                "velocity": 0,
                "time": 0.007499987499999999,
                "total_time": 11.998823881149292
            },
            {
                "note": 70,
                "velocity": 0,
                "time": 0,
                "total_time": 11.998918771743774
            },
            {
                "note": 82,
                "velocity": 127,
                "time": 0.0012499979166666665,
                "total_time": 12.000060558319092
            },
            {
                "note": 70,
                "velocity": 112,
                "time": 0,
                "total_time": 12.000253438949585
            },
            {
                "note": 75,
                "velocity": 112,
                "time": 0,
                "total_time": 12.00029182434082
            },
            {
                "note": 35,
                "velocity": 112,
                "time": 0,
                "total_time": 12.000317811965942
            },
            {
                "note": 35,
                "velocity": 0,
                "time": 0,
                "total_time": 12.000339031219482
            },
            {
                "note": 35,
                "velocity": 112,
                "time": 0,
                "total_time": 12.00036072731018
            },
            {
                "note": 42,
                "velocity": 96,
                "time": 0,
                "total_time": 12.150594711303711
            },
            {
                "note": 42,
                "velocity": 0,
                "time": 0.14124976458333333,
                "total_time": 12.291331768035889
            },
            {
                "note": 47,
                "velocity": 96,
                "time": 0.008749985416666665,
                "total_time": 12.30008840560913
            },
            {
                "note": 47,
                "velocity": 0,
                "time": 0.14124976458333333,
                "total_time": 12.441311359405518
            },
            {
                "note": 42,
                "velocity": 96,
                "time": 0.008749985416666665,
                "total_time": 12.450082063674927
            },
            {
                "note": 42,
                "velocity": 0,
                "time": 0.14124976458333333,
                "total_time": 12.591339826583862
            },
            {
                "note": 51,
                "velocity": 96,
                "time": 0.008749985416666665,
                "total_time": 12.600118398666382
            },
            {
                "note": 82,
                "velocity": 0,
                "time": 0.0012499979166666665,
                "total_time": 12.601317405700684
            },
            {
                "note": 51,
                "velocity": 0,
                "time": 0.13999976666666664,
                "total_time": 12.741325616836548
            },
            {
                "note": 42,
                "velocity": 96,
                "time": 0.008749985416666665,
                "total_time": 12.750109910964966
            },
            {
                "note": 42,
                "velocity": 0,
                "time": 0.14124976458333333,
                "total_time": 12.891323328018188
            },
            {
                "note": 80,
                "velocity": 112,
                "time": 0.008749985416666665,
                "total_time": 12.900101900100708
            },
            {
                "note": 47,
                "velocity": 96,
                "time": 0,
                "total_time": 12.900481939315796
            },
            {
                "note": 47,
                "velocity": 0,
                "time": 0.14124976458333333,
                "total_time": 13.041417598724365
            },
            {
                "note": 80,
                "velocity": 0,
                "time": 0.007499987499999999,
                "total_time": 13.048859596252441
            },
            {
                "note": 78,
                "velocity": 112,
                "time": 0.0012499979166666665,
                "total_time": 13.050059795379639
            },
            {
                "note": 42,
                "velocity": 96,
                "time": 0,
                "total_time": 13.050220966339111
            },
            {
                "note": 35,
                "velocity": 0,
                "time": 0.08874985208333332,
                "total_time": 13.138845443725586
            },
            {
                "note": 78,
                "velocity": 0,
                "time": 0.052499912499999996,
                "total_time": 13.19130825996399
            },
            {
                "note": 42,
                "velocity": 0,
                "time": 0,
                "total_time": 13.191413640975952
            },
            {
                "note": 70,
                "velocity": 0,
                "time": 0.007499987499999999,
                "total_time": 13.198882102966309
            },
            {
                "note": 75,
                "velocity": 0,
                "time": 0,
                "total_time": 13.199156761169434
            },
            {
                "note": 77,
                "velocity": 112,
                "time": 0.0012499979166666665,
                "total_time": 13.200162649154663
            },
            {
                "note": 65,
                "velocity": 112,
                "time": 0,
                "total_time": 13.200512886047363
            },
            {
                "note": 73,
                "velocity": 112,
                "time": 0,
                "total_time": 13.20064091682434
            },
            {
                "note": 37,
                "velocity": 112,
                "time": 0,
                "total_time": 13.200742483139038
            },
            {
                "note": 37,
                "velocity": 0,
                "time": 0,
                "total_time": 13.20090126991272
            },
            {
                "note": 37,
                "velocity": 112,
                "time": 0,
                "total_time": 13.20099663734436
            },
            {
                "note": 44,
                "velocity": 96,
                "time": 0,
                "total_time": 13.350145816802979
            },
            {
                "note": 44,
                "velocity": 0,
                "time": 0.14124976458333333,
                "total_time": 13.491316080093384
            },
            {
                "note": 77,
                "velocity": 0,
                "time": 0.007499987499999999,
                "total_time": 13.498830556869507
            },
            {
                "note": 65,
                "velocity": 0,
                "time": 0,
                "total_time": 13.49895167350769
            },
            {
                "note": 73,
                "velocity": 0,
                "time": 0,
                "total_time": 13.498982429504395
            },
            {
                "note": 78,
                "velocity": 112,
                "time": 0.0012499979166666665,
                "total_time": 13.500067949295044
            },
            {
                "note": 66,
                "velocity": 112,
                "time": 0,
                "total_time": 13.500254154205322
            },
            {
                "note": 71,
                "velocity": 112,
                "time": 0,
                "total_time": 13.500300884246826
            },
            {
                "note": 49,
                "velocity": 96,
                "time": 0,
                "total_time": 13.500331401824951
            },
            {
                "note": 49,
                "velocity": 0,
                "time": 0.14124976458333333,
                "total_time": 13.641308784484863
            },
            {
                "note": 44,
                "velocity": 96,
                "time": 0.008749985416666665,
                "total_time": 13.65011477470398
            },
            {
                "note": 44,
                "velocity": 0,
                "time": 0.14124976458333333,
                "total_time": 13.79132890701294
            },
            {
                "note": 78,
                "velocity": 0,
                "time": 0.007499987499999999,
                "total_time": 13.798925161361694
            },
            {
                "note": 66,
                "velocity": 0,
                "time": 0,
                "total_time": 13.799163579940796
            },
            {
                "note": 71,
                "velocity": 0,
                "time": 0,
                "total_time": 13.799221992492676
            },
            {
                "note": 73,
                "velocity": 112,
                "time": 0.0012499979166666665,
                "total_time": 13.800079345703125
            },
            {
                "note": 61,
                "velocity": 112,
                "time": 0,
                "total_time": 13.800303220748901
            },
            {
                "note": 70,
                "velocity": 112,
                "time": 0,
                "total_time": 13.800388813018799
            },
            {
                "note": 53,
                "velocity": 96,
                "time": 0,
                "total_time": 13.800456047058105
            },
            {
                "note": 53,
                "velocity": 0,
                "time": 0.14124976458333333,
                "total_time": 13.9413480758667
            },
            {
                "note": 44,
                "velocity": 96,
                "time": 0.008749985416666665,
                "total_time": 13.950079441070557
            },
            {
                "note": 44,
                "velocity": 0,
                "time": 0.14124976458333333,
                "total_time": 14.09131145477295
            },
            {
                "note": 73,
                "velocity": 0,
                "time": 0.007499987499999999,
                "total_time": 14.09882664680481
            },
            {
                "note": 61,
                "velocity": 0,
                "time": 0,
                "total_time": 14.098951816558838
            },
            {
                "note": 70,
                "velocity": 0,
                "time": 0,
                "total_time": 14.09898567199707
            },
            {
                "note": 70,
                "velocity": 112,
                "time": 0.0012499979166666665,
                "total_time": 14.100088596343994
            },
            {
                "note": 58,
                "velocity": 112,
                "time": 0,
                "total_time": 14.100304126739502
            },
            {
                "note": 65,
                "velocity": 112,
                "time": 0,
                "total_time": 14.100332260131836
            },
            {
                "note": 49,
                "velocity": 96,
                "time": 0,
                "total_time": 14.100353717803955
            },
            {
                "note": 49,
                "velocity": 0,
                "time": 0.14124976458333333,
                "total_time": 14.241336107254028
            },
            {
                "note": 44,
                "velocity": 96,
                "time": 0.008749985416666665,
                "total_time": 14.250066995620728
            },
            {
                "note": 37,
                "velocity": 0,
                "time": 0.08874985208333332,
                "total_time": 14.338865280151367
            },
            {
                "note": 70,
                "velocity": 0,
                "time": 0.044999924999999996,
                "total_time": 14.38386607170105
            },
            {
                "note": 58,
                "velocity": 0,
                "time": 0,
                "total_time": 14.384097337722778
            },
            {
                "note": 65,
                "velocity": 0,
                "time": 0,
                "total_time": 14.384189128875732
            },
            {
                "note": 44,
                "velocity": 0,
                "time": 0.007499987499999999,
                "total_time": 14.391355991363525
            },
            {
                "note": 71,
                "velocity": 127,
                "time": 0.008749985416666665,
                "total_time": 14.400116920471191
            },
            {
                "note": 59,
                "velocity": 112,
                "time": 0,
                "total_time": 14.400463342666626
            },
            {
                "note": 66,
                "velocity": 112,
                "time": 0,
                "total_time": 14.400602579116821
            },
            {
                "note": 32,
                "velocity": 112,
                "time": 0,
                "total_time": 14.400669813156128
            },
            {
                "note": 32,
                "velocity": 0,
                "time": 0,
                "total_time": 14.40079402923584
            },
            {
                "note": 32,
                "velocity": 112,
                "time": 0,
                "total_time": 14.400935411453247
            },
            {
                "note": 39,
                "velocity": 96,
                "time": 0,
                "total_time": 14.550231695175171
            },
            {
                "note": 39,
                "velocity": 0,
                "time": 0.14124976458333333,
                "total_time": 14.691313028335571
            },
            {
                "note": 44,
                "velocity": 96,
                "time": 0.008749985416666665,
                "total_time": 14.700104236602783
            },
            {
                "note": 71,
                "velocity": 0,
                "time": 0.09999983333333332,
                "total_time": 14.80005693435669
            },
            {
                "note": 44,
                "velocity": 0,
                "time": 0.041249931249999996,
                "total_time": 14.841298818588257
            },
            {
                "note": 39,
                "velocity": 96,
                "time": 0.008749985416666665,
                "total_time": 14.850072383880615
            },
            {
                "note": 39,
                "velocity": 0,
                "time": 0.14124976458333333,
                "total_time": 14.991310119628906
            },
            {
                "note": 59,
                "velocity": 0,
                "time": 0.007499987499999999,
                "total_time": 14.998843431472778
            },
            {
                "note": 66,
                "velocity": 0,
                "time": 0,
                "total_time": 14.99904751777649
            },
            {
                "note": 75,
                "velocity": 112,
                "time": 0.0012499979166666665,
                "total_time": 15.000087261199951
            },
            {
                "note": 63,
                "velocity": 112,
                "time": 0,
                "total_time": 15.000394582748413
            },
            {
                "note": 71,
                "velocity": 112,
                "time": 0,
                "total_time": 15.000483512878418
            },
            {
                "note": 47,
                "velocity": 96,
                "time": 0,
                "total_time": 15.000556707382202
            },
            {
                "note": 47,
                "velocity": 0,
                "time": 0.14124976458333333,
                "total_time": 15.141300439834595
            },
            {
                "note": 39,
                "velocity": 96,
                "time": 0.008749985416666665,
                "total_time": 15.150111675262451
            },
            {
                "note": 39,
                "velocity": 0,
                "time": 0.14124976458333333,
                "total_time": 15.291349172592163
            },
            {
                "note": 75,
                "velocity": 0,
                "time": 0.007499987499999999,
                "total_time": 15.29883337020874
            },
            {
                "note": 63,
                "velocity": 0,
                "time": 0,
                "total_time": 15.298932790756226
            },
            {
                "note": 71,
                "velocity": 0,
                "time": 0,
                "total_time": 15.298950672149658
            },
            {
                "note": 78,
                "velocity": 112,
                "time": 0.0012499979166666665,
                "total_time": 15.30006217956543
            },
            {
                "note": 66,
                "velocity": 112,
                "time": 0,
                "total_time": 15.300171613693237
            },
            {
                "note": 71,
                "velocity": 112,
                "time": 0,
                "total_time": 15.300190925598145
            },
            {
                "note": 44,
                "velocity": 96,
                "time": 0,
                "total_time": 15.30020785331726
            },
            {
                "note": 44,
                "velocity": 0,
                "time": 0.14124976458333333,
                "total_time": 15.441315174102783
            },
            {
                "note": 39,
                "velocity": 96,
                "time": 0.008749985416666665,
                "total_time": 15.450067043304443
            },
            {
                "note": 32,
                "velocity": 0,
                "time": 0.08874985208333332,
                "total_time": 15.538882732391357
            },
            {
                "note": 78,
                "velocity": 0,
                "time": 0.044999924999999996,
                "total_time": 15.583858728408813
            },
            {
                "note": 66,
                "velocity": 0,
                "time": 0,
                "total_time": 15.585002422332764
            },
            {
                "note": 71,
                "velocity": 0,
                "time": 0,
                "total_time": 15.585242509841919
            },
            {
                "note": 39,
                "velocity": 0,
                "time": 0.007499987499999999,
                "total_time": 15.595261812210083
            },
            {
                "note": 78,
                "velocity": 127,
                "time": 0.008749985416666665,
                "total_time": 15.600104093551636
            },
            {
                "note": 66,
                "velocity": 112,
                "time": 0,
                "total_time": 15.60095500946045
            },
            {
                "note": 73,
                "velocity": 112,
                "time": 0,
                "total_time": 15.601032018661499
            },
            {
                "note": 34,
                "velocity": 112,
                "time": 0,
                "total_time": 15.6012122631073
            },
            {
                "note": 34,
                "velocity": 0,
                "time": 0,
                "total_time": 15.601248979568481
            },
            {
                "note": 34,
                "velocity": 112,
                "time": 0,
                "total_time": 15.60127329826355
            },
            {
                "note": 41,
                "velocity": 96,
                "time": 0,
                "total_time": 15.7505042552948
            },
            {
                "note": 41,
                "velocity": 0,
                "time": 0.14124976458333333,
                "total_time": 15.891337633132935
            },
            {
                "note": 46,
                "velocity": 96,
                "time": 0.008749985416666665,
                "total_time": 15.900124073028564
            },
            {
                "note": 78,
                "velocity": 0,
                "time": 0.09999983333333332,
                "total_time": 16.00008773803711
            },
            {
                "note": 46,
                "velocity": 0,
                "time": 0.041249931249999996,
                "total_time": 16.04132604598999
            },
            {
                "note": 41,
                "velocity": 96,
                "time": 0.008749985416666665,
                "total_time": 16.050233125686646
            },
            {
                "note": 41,
                "velocity": 0,
                "time": 0.14124976458333333,
                "total_time": 16.19130849838257
            },
            {
                "note": 66,
                "velocity": 0,
                "time": 0.007499987499999999,
                "total_time": 16.198819637298584
            },
            {
                "note": 73,
                "velocity": 0,
                "time": 0,
                "total_time": 16.198940753936768
            },
            {
                "note": 77,
                "velocity": 112,
                "time": 0.0012499979166666665,
                "total_time": 16.20004963874817
            },
            {
                "note": 65,
                "velocity": 112,
                "time": 0,
                "total_time": 16.200154542922974
            },
            {
                "note": 70,
                "velocity": 112,
                "time": 0,
                "total_time": 16.20019030570984
            },
            {
                "note": 49,
                "velocity": 96,
                "time": 0,
                "total_time": 16.200215578079224
            },
            {
                "note": 49,
                "velocity": 0,
                "time": 0.14124976458333333,
                "total_time": 16.341336727142334
            },
            {
                "note": 41,
                "velocity": 96,
                "time": 0.008749985416666665,
                "total_time": 16.350063800811768
            },
            {
                "note": 41,
                "velocity": 0,
                "time": 0.14124976458333333,
                "total_time": 16.49130415916443
            },
            {
                "note": 77,
                "velocity": 0,
                "time": 0.007499987499999999,
                "total_time": 16.498820781707764
            },
            {
                "note": 65,
                "velocity": 0,
                "time": 0,
                "total_time": 16.498948574066162
            },
            {
                "note": 70,
                "velocity": 0,
                "time": 0,
                "total_time": 16.498985052108765
            },
            {
                "note": 78,
                "velocity": 112,
                "time": 0.0012499979166666665,
                "total_time": 16.500051736831665
            },
            {
                "note": 66,
                "velocity": 112,
                "time": 0,
                "total_time": 16.50016975402832
            },
            {
                "note": 68,
                "velocity": 112,
                "time": 0,
                "total_time": 16.500203132629395
            },
            {
                "note": 46,
                "velocity": 96,
                "time": 0,
                "total_time": 16.500229358673096
            },
            {
                "note": 46,
                "velocity": 0,
                "time": 0.14124976458333333,
                "total_time": 16.641328811645508
            },
            {
                "note": 41,
                "velocity": 96,
                "time": 0.008749985416666665,
                "total_time": 16.65005850791931
            },
            {
                "note": 34,
                "velocity": 0,
                "time": 0.08874985208333332,
                "total_time": 16.738839864730835
            },
            {
                "note": 78,
                "velocity": 0,
                "time": 0.044999924999999996,
                "total_time": 16.783902406692505
            },
            {
                "note": 66,
                "velocity": 0,
                "time": 0,
                "total_time": 16.784148693084717
            },
            {
                "note": 68,
                "velocity": 0,
                "time": 0,
                "total_time": 16.784238576889038
            },
            {
                "note": 41,
                "velocity": 0,
                "time": 0.007499987499999999,
                "total_time": 16.79133701324463
            },
            {
                "note": 85,
                "velocity": 127,
                "time": 0.008749985416666665,
                "total_time": 16.80008363723755
            },
            {
                "note": 73,
                "velocity": 112,
                "time": 0,
                "total_time": 16.800309658050537
            },
            {
                "note": 78,
                "velocity": 112,
                "time": 0,
                "total_time": 16.800413846969604
            },
            {
                "note": 35,
                "velocity": 112,
                "time": 0,
                "total_time": 16.80047607421875
            },
            {
                "note": 35,
                "velocity": 0,
                "time": 0,
                "total_time": 16.800532579421997
            },
            {
                "note": 35,
                "velocity": 112,
                "time": 0,
                "total_time": 16.80058789253235
            },
            {
                "note": 42,
                "velocity": 96,
                "time": 0,
                "total_time": 16.950266361236572
            },
            {
                "note": 42,
                "velocity": 0,
                "time": 0.14124976458333333,
                "total_time": 17.091334342956543
            },
            {
                "note": 85,
                "velocity": 0,
                "time": 0.008749985416666665,
                "total_time": 17.100088596343994
            },
            {
                "note": 47,
                "velocity": 96,
                "time": 0,
                "total_time": 17.10032820701599
            },
            {
                "note": 47,
                "velocity": 0,
                "time": 0.14124976458333333,
                "total_time": 17.241323232650757
            },
            {
                "note": 73,
                "velocity": 0,
                "time": 0.007499987499999999,
                "total_time": 17.24882221221924
            },
            {
                "note": 78,
                "velocity": 0,
                "time": 0,
                "total_time": 17.24897265434265
            },
            {
                "note": 83,
                "velocity": 127,
                "time": 0.0012499979166666665,
                "total_time": 17.25004744529724
            },
            {
                "note": 71,
                "velocity": 112,
                "time": 0,
                "total_time": 17.250185251235962
            },
            {
                "note": 75,
                "velocity": 112,
                "time": 0,
                "total_time": 17.25021719932556
            },
            {
                "note": 42,
                "velocity": 96,
                "time": 0,
                "total_time": 17.250234127044678
            },
            {
                "note": 42,
                "velocity": 0,
                "time": 0.14124976458333333,
                "total_time": 17.391356468200684
            },
            {
                "note": 51,
                "velocity": 96,
                "time": 0.008749985416666665,
                "total_time": 17.400068521499634
            },
            {
                "note": 51,
                "velocity": 0,
                "time": 0.14124976458333333,
                "total_time": 17.541335582733154
            },
            {
                "note": 83,
                "velocity": 0,
                "time": 0.008749985416666665,
                "total_time": 17.550166845321655
            },
            {
                "note": 42,
                "velocity": 96,
                "time": 0,
                "total_time": 17.550623655319214
            },
            {
                "note": 42,
                "velocity": 0,
                "time": 0.14124976458333333,
                "total_time": 17.691346883773804
            },
            {
                "note": 71,
                "velocity": 0,
                "time": 0.007499987499999999,
                "total_time": 17.69883441925049
            },
            {
                "note": 75,
                "velocity": 0,
                "time": 0,
                "total_time": 17.698973178863525
            },
            {
                "note": 82,
                "velocity": 127,
                "time": 0.0012499979166666665,
                "total_time": 17.700039386749268
            },
            {
                "note": 70,
                "velocity": 112,
                "time": 0,
                "total_time": 17.700133085250854
            },
            {
                "note": 78,
                "velocity": 112,
                "time": 0,
                "total_time": 17.70015573501587
            },
            {
                "note": 47,
                "velocity": 96,
                "time": 0,
                "total_time": 17.700170040130615
            },
            {
                "note": 47,
                "velocity": 0,
                "time": 0.14124976458333333,
                "total_time": 17.84132218360901
            },
            {
                "note": 42,
                "velocity": 96,
                "time": 0.008749985416666665,
                "total_time": 17.8500874042511
            },
            {
                "note": 82,
                "velocity": 0,
                "time": 0.048749918749999996,
                "total_time": 17.898854970932007
            },
            {
                "note": 35,
                "velocity": 0,
                "time": 0.03999993333333333,
                "total_time": 17.938855409622192
            },
            {
                "note": 42,
                "velocity": 0,
                "time": 0.052499912499999996,
                "total_time": 17.991320848464966
            },
            {
                "note": 70,
                "velocity": 0,
                "time": 0.007499987499999999,
                "total_time": 18.00030207633972
            },
            {
                "note": 78,
                "velocity": 0,
                "time": 0,
                "total_time": 18.000570058822632
            },
            {
                "note": 77,
                "velocity": 127,
                "time": 0.0012499979166666665,
                "total_time": 18.00067973136902
            },
            {
                "note": 80,
                "velocity": 127,
                "time": 0,
                "total_time": 18.000852346420288
            },
            {
                "note": 68,
                "velocity": 112,
                "time": 0,
                "total_time": 18.00118899345398
            },
            {
                "note": 37,
                "velocity": 112,
                "time": 0,
                "total_time": 18.00163722038269
            },
            {
                "note": 37,
                "velocity": 0,
                "time": 0,
                "total_time": 18.003146409988403
            },
            {
                "note": 37,
                "velocity": 112,
                "time": 0,
                "total_time": 18.003941774368286
            },
            {
                "note": 68,
                "velocity": 0,
                "time": 0.14624975624999997,
                "total_time": 18.148850440979004
            },
            {
                "note": 70,
                "velocity": 112,
                "time": 0.0012499979166666665,
                "total_time": 18.150066375732422
            },
            {
                "note": 44,
                "velocity": 96,
                "time": 0,
                "total_time": 18.15030312538147
            },
            {
                "note": 44,
                "velocity": 0,
                "time": 0.14124976458333333,
                "total_time": 18.291340827941895
            },
            {
                "note": 70,
                "velocity": 0,
                "time": 0.007499987499999999,
                "total_time": 18.298871755599976
            },
            {
                "note": 68,
                "velocity": 112,
                "time": 0.0012499979166666665,
                "total_time": 18.30007553100586
            },
            {
                "note": 53,
                "velocity": 96,
                "time": 0,
                "total_time": 18.300302505493164
            },
            {
                "note": 53,
                "velocity": 0,
                "time": 0.14124976458333333,
                "total_time": 18.44132900238037
            },
            {
                "note": 68,
                "velocity": 0,
                "time": 0.007499987499999999,
                "total_time": 18.448895931243896
            },
            {
                "note": 66,
                "velocity": 112,
                "time": 0.0012499979166666665,
                "total_time": 18.450068950653076
            },
            {
                "note": 44,
                "velocity": 96,
                "time": 0,
                "total_time": 18.450262308120728
            },
            {
                "note": 37,
                "velocity": 0,
                "time": 0.11874980208333331,
                "total_time": 18.56881070137024
            },
            {
                "note": 44,
                "velocity": 0,
                "time": 0.022499962499999998,
                "total_time": 18.591349601745605
            },
            {
                "note": 66,
                "velocity": 0,
                "time": 0.007499987499999999,
                "total_time": 18.598804473876953
            },
            {
                "note": 65,
                "velocity": 112,
                "time": 0.0012499979166666665,
                "total_time": 18.60003161430359
            },
            {
                "note": 38,
                "velocity": 112,
                "time": 0,
                "total_time": 18.60008215904236
            },
            {
                "note": 38,
                "velocity": 0,
                "time": 0,
                "total_time": 18.600104808807373
            },
            {
                "note": 38,
                "velocity": 112,
                "time": 0,
                "total_time": 18.600124835968018
            },
            {
                "note": 65,
                "velocity": 0,
                "time": 0.14624975624999997,
                "total_time": 18.748805046081543
            },
            {
                "note": 62,
                "velocity": 112,
                "time": 0.0012499979166666665,
                "total_time": 18.750032663345337
            },
            {
                "note": 46,
                "velocity": 96,
                "time": 0,
                "total_time": 18.750110387802124
            },
            {
                "note": 77,
                "velocity": 0,
                "time": 0.052499912499999996,
                "total_time": 18.802589654922485
            },
            {
                "note": 80,
                "velocity": 0,
                "time": 0,
                "total_time": 18.802778720855713
            },
            {
                "note": 46,
                "velocity": 0,
                "time": 0.08874985208333332,
                "total_time": 18.891337871551514
            },
            {
                "note": 62,
                "velocity": 0,
                "time": 0.007499987499999999,
                "total_time": 18.898844003677368
            },
            {
                "note": 68,
                "velocity": 112,
                "time": 0.0012499979166666665,
                "total_time": 18.900105953216553
            },
            {
                "note": 50,
                "velocity": 96,
                "time": 0,
                "total_time": 18.900444269180298
            },
            {
                "note": 50,
                "velocity": 0,
                "time": 0.14124976458333333,
                "total_time": 19.041298151016235
            },
            {
                "note": 68,
                "velocity": 0,
                "time": 0.007499987499999999,
                "total_time": 19.0489661693573
            },
            {
                "note": 65,
                "velocity": 112,
                "time": 0.0012499979166666665,
                "total_time": 19.050328731536865
            },
            {
                "note": 46,
                "velocity": 96,
                "time": 0,
                "total_time": 19.050963640213013
            },
            {
                "note": 38,
                "velocity": 0,
                "time": 0.11874980208333331,
                "total_time": 19.16886019706726
            },
            {
                "note": 65,
                "velocity": 0,
                "time": 0.022499962499999998,
                "total_time": 19.19135808944702
            },
            {
                "note": 46,
                "velocity": 0,
                "time": 0,
                "total_time": 19.19162344932556
            },
            {
                "note": 78,
                "velocity": 127,
                "time": 0.008749985416666665,
                "total_time": 19.20011258125305
            },
            {
                "note": 66,
                "velocity": 112,
                "time": 0,
                "total_time": 19.200581550598145
            },
            {
                "note": 75,
                "velocity": 112,
                "time": 0,
                "total_time": 19.20078134536743
            },
            {
                "note": 39,
                "velocity": 112,
                "time": 0,
                "total_time": 19.20094609260559
            },
            {
                "note": 39,
                "velocity": 0,
                "time": 0,
                "total_time": 19.20105767250061
            },
            {
                "note": 39,
                "velocity": 112,
                "time": 0,
                "total_time": 19.20116353034973
            },
            {
                "note": 46,
                "velocity": 96,
                "time": 0,
                "total_time": 19.350092887878418
            },
            {
                "note": 46,
                "velocity": 0,
                "time": 0.14124976458333333,
                "total_time": 19.49135684967041
            },
            {
                "note": 78,
                "velocity": 0,
                "time": 0.008749985416666665,
                "total_time": 19.50007724761963
            },
            {
                "note": 51,
                "velocity": 96,
                "time": 0,
                "total_time": 19.500240802764893
            },
            {
                "note": 51,
                "velocity": 0,
                "time": 0.14124976458333333,
                "total_time": 19.641326427459717
            },
            {
                "note": 66,
                "velocity": 0,
                "time": 0.007499987499999999,
                "total_time": 19.64889693260193
            },
            {
                "note": 75,
                "velocity": 0,
                "time": 0,
                "total_time": 19.649200916290283
            },
            {
                "note": 77,
                "velocity": 112,
                "time": 0.0012499979166666665,
                "total_time": 19.650063037872314
            },
            {
                "note": 65,
                "velocity": 112,
                "time": 0,
                "total_time": 19.650257110595703
            },
            {
                "note": 70,
                "velocity": 112,
                "time": 0,
                "total_time": 19.65033507347107
            },
            {
                "note": 46,
                "velocity": 96,
                "time": 0,
                "total_time": 19.650407314300537
            },
            {
                "note": 46,
                "velocity": 0,
                "time": 0.14124976458333333,
                "total_time": 19.791363954544067
            },
            {
                "note": 54,
                "velocity": 96,
                "time": 0.008749985416666665,
                "total_time": 19.800095796585083
            },
            {
                "note": 54,
                "velocity": 0,
                "time": 0.14124976458333333,
                "total_time": 19.941321849822998
            },
            {
                "note": 46,
                "velocity": 96,
                "time": 0.008749985416666665,
                "total_time": 19.950058460235596
            },
            {
                "note": 46,
                "velocity": 0,
                "time": 0.14124976458333333,
                "total_time": 20.091355800628662
            },
            {
                "note": 77,
                "velocity": 0,
                "time": 0.007499987499999999,
                "total_time": 20.09881854057312
            },
            {
                "note": 65,
                "velocity": 0,
                "time": 0,
                "total_time": 20.09893488883972
            },
            {
                "note": 70,
                "velocity": 0,
                "time": 0,
                "total_time": 20.098966121673584
            },
            {
                "note": 78,
                "velocity": 112,
                "time": 0.0012499979166666665,
                "total_time": 20.10004496574402
            },
            {
                "note": 66,
                "velocity": 112,
                "time": 0,
                "total_time": 20.100165605545044
            },
            {
                "note": 70,
                "velocity": 112,
                "time": 0,
                "total_time": 20.10019564628601
            },
            {
                "note": 51,
                "velocity": 96,
                "time": 0,
                "total_time": 20.100218296051025
            },
            {
                "note": 51,
                "velocity": 0,
                "time": 0.14124976458333333,
                "total_time": 20.241371154785156
            },
            {
                "note": 46,
                "velocity": 96,
                "time": 0.008749985416666665,
                "total_time": 20.250049829483032
            },
            {
                "note": 39,
                "velocity": 0,
                "time": 0.08874985208333332,
                "total_time": 20.33890128135681
            },
            {
                "note": 78,
                "velocity": 0,
                "time": 0.044999924999999996,
                "total_time": 20.383866786956787
            },
            {
                "note": 66,
                "velocity": 0,
                "time": 0,
                "total_time": 20.384167909622192
            },
            {
                "note": 70,
                "velocity": 0,
                "time": 0,
                "total_time": 20.384275436401367
            },
            {
                "note": 46,
                "velocity": 0,
                "time": 0.007499987499999999,
                "total_time": 20.391332387924194
            },
            {
                "note": 82,
                "velocity": 127,
                "time": 0.008749985416666665,
                "total_time": 20.400105476379395
            },
            {
                "note": 70,
                "velocity": 112,
                "time": 0,
                "total_time": 20.40043592453003
            },
            {
                "note": 77,
                "velocity": 112,
                "time": 0,
                "total_time": 20.400588512420654
            },
            {
                "note": 37,
                "velocity": 112,
                "time": 0,
                "total_time": 20.40067172050476
            },
            {
                "note": 37,
                "velocity": 0,
                "time": 0,
                "total_time": 20.400749683380127
            },
            {
                "note": 37,
                "velocity": 112,
                "time": 0,
                "total_time": 20.40087604522705
            },
            {
                "note": 46,
                "velocity": 96,
                "time": 0,
                "total_time": 20.55010223388672
            },
            {
                "note": 46,
                "velocity": 0,
                "time": 0.14124976458333333,
                "total_time": 20.691429376602173
            },
            {
                "note": 49,
                "velocity": 96,
                "time": 0.008749985416666665,
                "total_time": 20.700078010559082
            },
            {
                "note": 49,
                "velocity": 0,
                "time": 0.14124976458333333,
                "total_time": 20.841405153274536
            },
            {
                "note": 46,
                "velocity": 96,
                "time": 0.008749985416666665,
                "total_time": 20.850138902664185
            },
            {
                "note": 46,
                "velocity": 0,
                "time": 0.14124976458333333,
                "total_time": 20.99133539199829
            },
            {
                "note": 53,
                "velocity": 96,
                "time": 0.008749985416666665,
                "total_time": 21.000085592269897
            },
            {
                "note": 82,
                "velocity": 0,
                "time": 0.0012499979166666665,
                "total_time": 21.001327991485596
            },
            {
                "note": 53,
                "velocity": 0,
                "time": 0.13999976666666664,
                "total_time": 21.141340732574463
            },
            {
                "note": 46,
                "velocity": 96,
                "time": 0.008749985416666665,
                "total_time": 21.150089502334595
            },
            {
                "note": 46,
                "velocity": 0,
                "time": 0.14124976458333333,
                "total_time": 21.29133701324463
            },
            {
                "note": 70,
                "velocity": 0,
                "time": 0.007499987499999999,
                "total_time": 21.298872470855713
            },
            {
                "note": 77,
                "velocity": 0,
                "time": 0,
                "total_time": 21.29920196533203
            },
            {
                "note": 77,
                "velocity": 112,
                "time": 0.0012499979166666665,
                "total_time": 21.300089120864868
            },
            {
                "note": 65,
                "velocity": 112,
                "time": 0,
                "total_time": 21.300358057022095
            },
            {
                "note": 70,
                "velocity": 112,
                "time": 0,
                "total_time": 21.300456285476685
            },
            {
                "note": 49,
                "velocity": 96,
                "time": 0,
                "total_time": 21.300527811050415
            },
            {
                "note": 49,
                "velocity": 0,
                "time": 0.14124976458333333,
                "total_time": 21.441324710845947
            },
            {
                "note": 46,
                "velocity": 96,
                "time": 0.008749985416666665,
                "total_time": 21.450166940689087
            },
            {
                "note": 37,
                "velocity": 0,
                "time": 0.08874985208333332,
                "total_time": 21.538864612579346
            },
            {
                "note": 77,
                "velocity": 0,
                "time": 0.044999924999999996,
                "total_time": 21.583832025527954
            },
            {
                "note": 65,
                "velocity": 0,
                "time": 0,
                "total_time": 21.583957195281982
            },
            {
                "note": 70,
                "velocity": 0,
                "time": 0,
                "total_time": 21.58397889137268
            },
            {
                "note": 46,
                "velocity": 0,
                "time": 0.007499987499999999,
                "total_time": 21.591299533843994
            },
            {
                "note": 75,
                "velocity": 127,
                "time": 0.008749985416666665,
                "total_time": 21.60005235671997
            },
            {
                "note": 63,
                "velocity": 112,
                "time": 0,
                "total_time": 21.60021138191223
            },
            {
                "note": 72,
                "velocity": 112,
                "time": 0,
                "total_time": 21.600266456604004
            },
            {
                "note": 36,
                "velocity": 112,
                "time": 0,
                "total_time": 21.60029673576355
            },
            {
                "note": 36,
                "velocity": 0,
                "time": 0,
                "total_time": 21.60032343864441
            },
            {
                "note": 36,
                "velocity": 112,
                "time": 0,
                "total_time": 21.600351333618164
            },
            {
                "note": 44,
                "velocity": 96,
                "time": 0,
                "total_time": 21.750132083892822
            },
            {
                "note": 44,
                "velocity": 0,
                "time": 0.14124976458333333,
                "total_time": 21.891298055648804
            },
            {
                "note": 48,
                "velocity": 96,
                "time": 0.008749985416666665,
                "total_time": 21.900047779083252
            },
            {
                "note": 48,
                "velocity": 0,
                "time": 0.14124976458333333,
                "total_time": 22.041325330734253
            },
            {
                "note": 44,
                "velocity": 96,
                "time": 0.008749985416666665,
                "total_time": 22.05007767677307
            },
            {
                "note": 44,
                "velocity": 0,
                "time": 0.14124976458333333,
                "total_time": 22.1913423538208
            },
            {
                "note": 51,
                "velocity": 96,
                "time": 0.008749985416666665,
                "total_time": 22.200097799301147
            },
            {
                "note": 51,
                "velocity": 0,
                "time": 0.14124976458333333,
                "total_time": 22.34132480621338
            },
            {
                "note": 44,
                "velocity": 96,
                "time": 0.008749985416666665,
                "total_time": 22.350231409072876
            },
            {
                "note": 75,
                "velocity": 0,
                "time": 0.052499912499999996,
                "total_time": 22.402608156204224
            },
            {
                "note": 44,
                "velocity": 0,
                "time": 0.08874985208333332,
                "total_time": 22.49129605293274
            },
            {
                "note": 48,
                "velocity": 96,
                "time": 0.008749985416666665,
                "total_time": 22.50004243850708
            },
            {
                "note": 48,
                "velocity": 0,
                "time": 0.14124976458333333,
                "total_time": 22.641293048858643
            },
            {
                "note": 44,
                "velocity": 96,
                "time": 0.008749985416666665,
                "total_time": 22.650038957595825
            },
            {
                "note": 63,
                "velocity": 0,
                "time": 0.08874985208333332,
                "total_time": 22.7388436794281
            },
            {
                "note": 72,
                "velocity": 0,
                "time": 0,
                "total_time": 22.73900818824768
            },
            {
                "note": 36,
                "velocity": 0,
                "time": 0,
                "total_time": 22.739058017730713
            },
            {
                "note": 44,
                "velocity": 0,
                "time": 0.052499912499999996,
                "total_time": 22.791336059570312
            },
            {
                "note": 75,
                "velocity": 112,
                "time": 0.008749985416666665,
                "total_time": 22.80011534690857
            },
            {
                "note": 63,
                "velocity": 112,
                "time": 0,
                "total_time": 22.80049729347229
            },
            {
                "note": 68,
                "velocity": 112,
                "time": 0,
                "total_time": 22.80065393447876
            },
            {
                "note": 32,
                "velocity": 112,
                "time": 0,
                "total_time": 22.800882816314697
            },
            {
                "note": 32,
                "velocity": 0,
                "time": 0,
                "total_time": 22.801132202148438
            },
            {
                "note": 32,
                "velocity": 112,
                "time": 0,
                "total_time": 22.801202535629272
            },
            {
                "note": 39,
                "velocity": 96,
                "time": 0,
                "total_time": 22.950111865997314
            },
            {
                "note": 39,
                "velocity": 0,
                "time": 0.14124976458333333,
                "total_time": 23.091355562210083
            },
            {
                "note": 75,
                "velocity": 0,
                "time": 0.007499987499999999,
                "total_time": 23.09887433052063
            },
            {
                "note": 63,
                "velocity": 0,
                "time": 0,
                "total_time": 23.09905242919922
            },
            {
                "note": 68,
                "velocity": 0,
                "time": 0,
                "total_time": 23.09908938407898
            },
            {
                "note": 78,
                "velocity": 112,
                "time": 0.0012499979166666665,
                "total_time": 23.100079774856567
            },
            {
                "note": 66,
                "velocity": 112,
                "time": 0,
                "total_time": 23.10032868385315
            },
            {
                "note": 72,
                "velocity": 112,
                "time": 0,
                "total_time": 23.100411891937256
            },
            {
                "note": 44,
                "velocity": 96,
                "time": 0,
                "total_time": 23.100481748580933
            },
            {
                "note": 44,
                "velocity": 0,
                "time": 0.14124976458333333,
                "total_time": 23.241334676742554
            },
            {
                "note": 48,
                "velocity": 96,
                "time": 0.008749985416666665,
                "total_time": 23.250090837478638
            },
            {
                "note": 32,
                "velocity": 0,
                "time": 0.11874980208333331,
                "total_time": 23.368873596191406
            },
            {
                "note": 48,
                "velocity": 0,
                "time": 0.022499962499999998,
                "total_time": 23.39131212234497
            },
            {
                "note": 78,
                "velocity": 0,
                "time": 0.007499987499999999,
                "total_time": 23.39887237548828
            },
            {
                "note": 66,
                "velocity": 0,
                "time": 0,
                "total_time": 23.399381637573242
            },
            {
                "note": 72,
                "velocity": 0,
                "time": 0,
                "total_time": 23.39950704574585
            },
            {
                "note": 80,
                "velocity": 112,
                "time": 0.0012499979166666665,
                "total_time": 23.400052785873413
            },
            {
                "note": 68,
                "velocity": 112,
                "time": 0,
                "total_time": 23.400198459625244
            },
            {
                "note": 75,
                "velocity": 112,
                "time": 0,
                "total_time": 23.400270700454712
            },
            {
                "note": 42,
                "velocity": 112,
                "time": 0,
                "total_time": 23.400490522384644
            },
            {
                "note": 42,
                "velocity": 0,
                "time": 0,
                "total_time": 23.40059232711792
            },
            {
                "note": 42,
                "velocity": 112,
                "time": 0,
                "total_time": 23.40069580078125
            },
            {
                "note": 48,
                "velocity": 96,
                "time": 0,
                "total_time": 23.55023431777954
            },
            {
                "note": 48,
                "velocity": 0,
                "time": 0.14124976458333333,
                "total_time": 23.691334009170532
            },
            {
                "note": 80,
                "velocity": 0,
                "time": 0.007499987499999999,
                "total_time": 23.698973178863525
            },
            {
                "note": 68,
                "velocity": 0,
                "time": 0,
                "total_time": 23.69928765296936
            },
            {
                "note": 75,
                "velocity": 0,
                "time": 0,
                "total_time": 23.699785232543945
            },
            {
                "note": 82,
                "velocity": 112,
                "time": 0.0012499979166666665,
                "total_time": 23.70003080368042
            },
            {
                "note": 70,
                "velocity": 112,
                "time": 0,
                "total_time": 23.700248956680298
            },
            {
                "note": 78,
                "velocity": 112,
                "time": 0,
                "total_time": 23.70048952102661
            },
            {
                "note": 54,
                "velocity": 96,
                "time": 0,
                "total_time": 23.700627088546753
            },
            {
                "note": 54,
                "velocity": 0,
                "time": 0.14124976458333333,
                "total_time": 23.84128999710083
            },
            {
                "note": 48,
                "velocity": 96,
                "time": 0.008749985416666665,
                "total_time": 23.850043058395386
            },
            {
                "note": 42,
                "velocity": 0,
                "time": 0.11874980208333331,
                "total_time": 23.96887183189392
            },
            {
                "note": 82,
                "velocity": 0,
                "time": 0.014999974999999999,
                "total_time": 23.98382592201233
            },
            {
                "note": 70,
                "velocity": 0,
                "time": 0,
                "total_time": 23.983914852142334
            },
            {
                "note": 78,
                "velocity": 0,
                "time": 0,
                "total_time": 23.98394274711609
            },
            {
                "note": 48,
                "velocity": 0,
                "time": 0.007499987499999999,
                "total_time": 23.991313457489014
            },
            {
                "note": 83,
                "velocity": 127,
                "time": 0.008749985416666665,
                "total_time": 24.000041961669922
            },
            {
                "note": 71,
                "velocity": 112,
                "time": 0,
                "total_time": 24.000157356262207
            },
            {
                "note": 80,
                "velocity": 112,
                "time": 0,
                "total_time": 24.00020456314087
            },
            {
                "note": 40,
                "velocity": 112,
                "time": 0,
                "total_time": 24.000230073928833
            },
            {
                "note": 40,
                "velocity": 0,
                "time": 0,
                "total_time": 24.000253915786743
            },
            {
                "note": 40,
                "velocity": 112,
                "time": 0,
                "total_time": 24.000280618667603
            },
            {
                "note": 47,
                "velocity": 96,
                "time": 0,
                "total_time": 24.15041756629944
            },
            {
                "note": 47,
                "velocity": 0,
                "time": 0.14124976458333333,
                "total_time": 24.291339874267578
            },
            {
                "note": 83,
                "velocity": 0,
                "time": 0.008749985416666665,
                "total_time": 24.30007576942444
            },
            {
                "note": 52,
                "velocity": 96,
                "time": 0,
                "total_time": 24.30028772354126
            },
            {
                "note": 52,
                "velocity": 0,
                "time": 0.14124976458333333,
                "total_time": 24.44132971763611
            },
            {
                "note": 71,
                "velocity": 0,
                "time": 0.007499987499999999,
                "total_time": 24.448886156082153
            },
            {
                "note": 80,
                "velocity": 0,
                "time": 0,
                "total_time": 24.44926643371582
            },
            {
                "note": 82,
                "velocity": 112,
                "time": 0.0012499979166666665,
                "total_time": 24.450337171554565
            },
            {
                "note": 70,
                "velocity": 112,
                "time": 0,
                "total_time": 24.451080322265625
            },
            {
                "note": 78,
                "velocity": 112,
                "time": 0,
                "total_time": 24.45124363899231
            },
            {
                "note": 47,
                "velocity": 96,
                "time": 0,
                "total_time": 24.451345443725586
            },
            {
                "note": 47,
                "velocity": 0,
                "time": 0.14124976458333333,
                "total_time": 24.59132695198059
            },
            {
                "note": 56,
                "velocity": 96,
                "time": 0.008749985416666665,
                "total_time": 24.600040435791016
            },
            {
                "note": 56,
                "velocity": 0,
                "time": 0.14124976458333333,
                "total_time": 24.74128746986389
            },
            {
                "note": 47,
                "velocity": 96,
                "time": 0.008749985416666665,
                "total_time": 24.750040769577026
            },
            {
                "note": 47,
                "velocity": 0,
                "time": 0.14124976458333333,
                "total_time": 24.891326427459717
            },
            {
                "note": 82,
                "velocity": 0,
                "time": 0.007499987499999999,
                "total_time": 24.898863077163696
            },
            {
                "note": 70,
                "velocity": 0,
                "time": 0,
                "total_time": 24.899121046066284
            },
            {
                "note": 78,
                "velocity": 0,
                "time": 0,
                "total_time": 24.899234294891357
            },
            {
                "note": 80,
                "velocity": 112,
                "time": 0.0012499979166666665,
                "total_time": 24.900054931640625
            },
            {
                "note": 68,
                "velocity": 112,
                "time": 0,
                "total_time": 24.900262355804443
            },
            {
                "note": 71,
                "velocity": 112,
                "time": 0,
                "total_time": 24.900363206863403
            },
            {
                "note": 52,
                "velocity": 96,
                "time": 0,
                "total_time": 24.900453805923462
            },
            {
                "note": 52,
                "velocity": 0,
                "time": 0.14124976458333333,
                "total_time": 25.041317224502563
            },
            {
                "note": 47,
                "velocity": 96,
                "time": 0.008749985416666665,
                "total_time": 25.050039291381836
            },
            {
                "note": 40,
                "velocity": 0,
                "time": 0.08874985208333332,
                "total_time": 25.13885259628296
            },
            {
                "note": 80,
                "velocity": 0,
                "time": 0.044999924999999996,
                "total_time": 25.183802604675293
            },
            {
                "note": 68,
                "velocity": 0,
                "time": 0,
                "total_time": 25.183926582336426
            },
            {
                "note": 71,
                "velocity": 0,
                "time": 0,
                "total_time": 25.18395733833313
            },
            {
                "note": 47,
                "velocity": 0,
                "time": 0.007499987499999999,
                "total_time": 25.191287994384766
            },
            {
                "note": 78,
                "velocity": 112,
                "time": 0.008749985416666665,
                "total_time": 25.20003652572632
            },
            {
                "note": 66,
                "velocity": 112,
                "time": 0,
                "total_time": 25.200138092041016
            },
            {
                "note": 70,
                "velocity": 112,
                "time": 0,
                "total_time": 25.200168132781982
            },
            {
                "note": 35,
                "velocity": 112,
                "time": 0,
                "total_time": 25.200190782546997
            },
            {
                "note": 35,
                "velocity": 0,
                "time": 0,
                "total_time": 25.2002112865448
            },
            {
                "note": 35,
                "velocity": 112,
                "time": 0,
                "total_time": 25.200231075286865
            },
            {
                "note": 42,
                "velocity": 96,
                "time": 0,
                "total_time": 25.350099086761475
            },
            {
                "note": 42,
                "velocity": 0,
                "time": 0.14124976458333333,
                "total_time": 25.491344690322876
            },
            {
                "note": 78,
                "velocity": 0,
                "time": 0.007499987499999999,
                "total_time": 25.49886178970337
            },
            {
                "note": 66,
                "velocity": 0,
                "time": 0,
                "total_time": 25.49899435043335
            },
            {
                "note": 70,
                "velocity": 0,
                "time": 0,
                "total_time": 25.499025106430054
            },
            {
                "note": 75,
                "velocity": 112,
                "time": 0.0012499979166666665,
                "total_time": 25.50004482269287
            },
            {
                "note": 63,
                "velocity": 112,
                "time": 0,
                "total_time": 25.500247955322266
            },
            {
                "note": 66,
                "velocity": 112,
                "time": 0,
                "total_time": 25.500287771224976
            },
            {
                "note": 47,
                "velocity": 96,
                "time": 0,
                "total_time": 25.5003023147583
            },
            {
                "note": 47,
                "velocity": 0,
                "time": 0.14124976458333333,
                "total_time": 25.641301155090332
            },
            {
                "note": 42,
                "velocity": 96,
                "time": 0.008749985416666665,
                "total_time": 25.650137662887573
            },
            {
                "note": 42,
                "velocity": 0,
                "time": 0.14124976458333333,
                "total_time": 25.791327953338623
            },
            {
                "note": 75,
                "velocity": 0,
                "time": 0.007499987499999999,
                "total_time": 25.798850536346436
            },
            {
                "note": 63,
                "velocity": 0,
                "time": 0,
                "total_time": 25.799054861068726
            },
            {
                "note": 66,
                "velocity": 0,
                "time": 0,
                "total_time": 25.799142599105835
            },
            {
                "note": 78,
                "velocity": 112,
                "time": 0.0012499979166666665,
                "total_time": 25.800029277801514
            },
            {
                "note": 66,
                "velocity": 112,
                "time": 0,
                "total_time": 25.800128698349
            },
            {
                "note": 70,
                "velocity": 112,
                "time": 0,
                "total_time": 25.800172805786133
            },
            {
                "note": 51,
                "velocity": 96,
                "time": 0,
                "total_time": 25.800212144851685
            },
            {
                "note": 51,
                "velocity": 0,
                "time": 0.14124976458333333,
                "total_time": 25.941312313079834
            },
            {
                "note": 42,
                "velocity": 96,
                "time": 0.008749985416666665,
                "total_time": 25.9500412940979
            },
            {
                "note": 42,
                "velocity": 0,
                "time": 0.14124976458333333,
                "total_time": 26.091365575790405
            },
            {
                "note": 78,
                "velocity": 0,
                "time": 0.007499987499999999,
                "total_time": 26.09887409210205
            },
            {
                "note": 66,
                "velocity": 0,
                "time": 0,
                "total_time": 26.099124670028687
            },
            {
                "note": 70,
                "velocity": 0,
                "time": 0,
                "total_time": 26.09922766685486
            },
            {
                "note": 82,
                "velocity": 112,
                "time": 0.0012499979166666665,
                "total_time": 26.100090980529785
            },
            {
                "note": 70,
                "velocity": 112,
                "time": 0,
                "total_time": 26.100394248962402
            },
            {
                "note": 75,
                "velocity": 112,
                "time": 0,
                "total_time": 26.100483179092407
            },
            {
                "note": 47,
                "velocity": 96,
                "time": 0,
                "total_time": 26.100554704666138
            },
            {
                "note": 47,
                "velocity": 0,
                "time": 0.14124976458333333,
                "total_time": 26.241345643997192
            },
            {
                "note": 42,
                "velocity": 96,
                "time": 0.008749985416666665,
                "total_time": 26.250036239624023
            },
            {
                "note": 35,
                "velocity": 0,
                "time": 0.08874985208333332,
                "total_time": 26.338820219039917
            },
            {
                "note": 82,
                "velocity": 0,
                "time": 0.044999924999999996,
                "total_time": 26.383836269378662
            },
            {
                "note": 70,
                "velocity": 0,
                "time": 0,
                "total_time": 26.383952379226685
            },
            {
                "note": 75,
                "velocity": 0,
                "time": 0,
                "total_time": 26.383980989456177
            },
            {
                "note": 42,
                "velocity": 0,
                "time": 0.007499987499999999,
                "total_time": 26.391289472579956
            },
            {
                "note": 80,
                "velocity": 127,
                "time": 0.008749985416666665,
                "total_time": 26.400036096572876
            },
            {
                "note": 68,
                "velocity": 112,
                "time": 0,
                "total_time": 26.400137901306152
            },
            {
                "note": 73,
                "velocity": 112,
                "time": 0,
                "total_time": 26.40017342567444
            },
            {
                "note": 37,
                "velocity": 112,
                "time": 0,
                "total_time": 26.40019416809082
            },
            {
                "note": 37,
                "velocity": 0,
                "time": 0,
                "total_time": 26.400213718414307
            },
            {
                "note": 37,
                "velocity": 112,
                "time": 0,
                "total_time": 26.400233507156372
            },
            {
                "note": 44,
                "velocity": 96,
                "time": 0,
                "total_time": 26.550673961639404
            },
            {
                "note": 44,
                "velocity": 0,
                "time": 0.14124976458333333,
                "total_time": 26.691336393356323
            },
            {
                "note": 49,
                "velocity": 96,
                "time": 0.008749985416666665,
                "total_time": 26.700061082839966
            },
            {
                "note": 49,
                "velocity": 0,
                "time": 0.14124976458333333,
                "total_time": 26.84128499031067
            },
            {
                "note": 53,
                "velocity": 96,
                "time": 0.008749985416666665,
                "total_time": 26.85005784034729
            },
            {
                "note": 53,
                "velocity": 0,
                "time": 0.14124976458333333,
                "total_time": 26.991365671157837
            },
            {
                "note": 56,
                "velocity": 96,
                "time": 0.008749985416666665,
                "total_time": 27.00003957748413
            },
            {
                "note": 56,
                "velocity": 0,
                "time": 0.14124976458333333,
                "total_time": 27.14143395423889
            },
            {
                "note": 53,
                "velocity": 96,
                "time": 0.008749985416666665,
                "total_time": 27.150084972381592
            },
            {
                "note": 80,
                "velocity": 0,
                "time": 0.052499912499999996,
                "total_time": 27.202592611312866
            },
            {
                "note": 53,
                "velocity": 0,
                "time": 0.08874985208333332,
                "total_time": 27.291320323944092
            },
            {
                "note": 49,
                "velocity": 96,
                "time": 0.008749985416666665,
                "total_time": 27.300039529800415
            },
            {
                "note": 49,
                "velocity": 0,
                "time": 0.14874975208333333,
                "total_time": 27.44898247718811
            },
            {
                "note": 68,
                "velocity": 0,
                "time": 0.08999984999999999,
                "total_time": 27.538854837417603
            },
            {
                "note": 73,
                "velocity": 0,
                "time": 0,
                "total_time": 27.539129972457886
            },
            {
                "note": 37,
                "velocity": 0,
                "time": 0,
                "total_time": 27.539239406585693
            },
            {
                "note": 65,
                "velocity": 127,
                "time": 0.06124989791666666,
                "total_time": 27.600083589553833
            },
            {
                "note": 73,
                "velocity": 127,
                "time": 0,
                "total_time": 27.600342273712158
            },
            {
                "note": 77,
                "velocity": 127,
                "time": 0,
                "total_time": 27.60042905807495
            },
            {
                "note": 37,
                "velocity": 127,
                "time": 0,
                "total_time": 27.6005380153656
            },
            {
                "note": 44,
                "velocity": 127,
                "time": 0,
                "total_time": 27.600647449493408
            },
            {
                "note": 49,
                "velocity": 127,
                "time": 0,
                "total_time": 27.60072135925293
            },
            {
                "note": 65,
                "velocity": 0,
                "time": 0.39874933541666663,
                "total_time": 28.000054121017456
            },
            {
                "note": 73,
                "velocity": 0,
                "time": 0,
                "total_time": 28.00025701522827
            },
            {
                "note": 77,
                "velocity": 0,
                "time": 0,
                "total_time": 28.00034213066101
            },
            {
                "note": 37,
                "velocity": 0,
                "time": 0,
                "total_time": 28.000410556793213
            },
            {
                "note": 44,
                "velocity": 0,
                "time": 0,
                "total_time": 28.000473022460938
            },
            {
                "note": 49,
                "velocity": 0,
                "time": 0,
                "total_time": 28.000532388687134
            },
            {
                "note": 61,
                "velocity": 127,
                "time": 0.19999966666666663,
                "total_time": 28.200038194656372
            },
            {
                "note": 70,
                "velocity": 127,
                "time": 0,
                "total_time": 28.200157642364502
            },
            {
                "note": 73,
                "velocity": 127,
                "time": 0,
                "total_time": 28.2001895904541
            },
            {
                "note": 41,
                "velocity": 127,
                "time": 0,
                "total_time": 28.200214624404907
            },
            {
                "note": 49,
                "velocity": 127,
                "time": 0,
                "total_time": 28.200244426727295
            },
            {
                "note": 53,
                "velocity": 127,
                "time": 0,
                "total_time": 28.200268745422363
            },
            {
                "note": 61,
                "velocity": 0,
                "time": 0.39999933333333326,
                "total_time": 28.60008668899536
            },
            {
                "note": 70,
                "velocity": 0,
                "time": 0,
                "total_time": 28.600229024887085
            },
            {
                "note": 73,
                "velocity": 0,
                "time": 0,
                "total_time": 28.600285291671753
            },
            {
                "note": 41,
                "velocity": 0,
                "time": 0,
                "total_time": 28.60033106803894
            },
            {
                "note": 49,
                "velocity": 0,
                "time": 0,
                "total_time": 28.60037398338318
            },
            {
                "note": 53,
                "velocity": 0,
                "time": 0,
                "total_time": 28.600417137145996
            },
            {
                "note": 75,
                "velocity": 127,
                "time": 0.19999966666666663,
                "total_time": 28.80007529258728
            },
            {
                "note": 66,
                "velocity": 112,
                "time": 0,
                "total_time": 28.800368785858154
            },
            {
                "note": 39,
                "velocity": 112,
                "time": 0,
                "total_time": 28.80057382583618
            },
            {
                "note": 39,
                "velocity": 0,
                "time": 0,
                "total_time": 28.80070924758911
            },
            {
                "note": 39,
                "velocity": 112,
                "time": 0,
                "total_time": 28.800787210464478
            },
            {
                "note": 46,
                "velocity": 96,
                "time": 0,
                "total_time": 28.950510025024414
            },
            {
                "note": 46,
                "velocity": 0,
                "time": 0.14124976458333333,
                "total_time": 29.09128475189209
            },
            {
                "note": 51,
                "velocity": 96,
                "time": 0.008749985416666665,
                "total_time": 29.100029468536377
            },
            {
                "note": 51,
                "velocity": 0,
                "time": 0.14124976458333333,
                "total_time": 29.24128222465515
            },
            {
                "note": 46,
                "velocity": 96,
                "time": 0.008749985416666665,
                "total_time": 29.250032901763916
            },
            {
                "note": 46,
                "velocity": 0,
                "time": 0.14124976458333333,
                "total_time": 29.39131736755371
            },
            {
                "note": 54,
                "velocity": 96,
                "time": 0.008749985416666665,
                "total_time": 29.400070667266846
            },
            {
                "note": 75,
                "velocity": 0,
                "time": 0.0012499979166666665,
                "total_time": 29.401307344436646
            },
            {
                "note": 54,
                "velocity": 0,
                "time": 0.13999976666666664,
                "total_time": 29.541329860687256
            },
            {
                "note": 46,
                "velocity": 96,
                "time": 0.008749985416666665,
                "total_time": 29.55009627342224
            },
            {
                "note": 46,
                "velocity": 0,
                "time": 0.14124976458333333,
                "total_time": 29.69129753112793
            },
            {
                "note": 78,
                "velocity": 112,
                "time": 0.008749985416666665,
                "total_time": 29.700066566467285
            },
            {
                "note": 51,
                "velocity": 96,
                "time": 0,
                "total_time": 29.70040774345398
            },
            {
                "note": 51,
                "velocity": 0,
                "time": 0.14124976458333333,
                "total_time": 29.84132170677185
            },
            {
                "note": 46,
                "velocity": 96,
                "time": 0.008749985416666665,
                "total_time": 29.850033283233643
            },
            {
                "note": 39,
                "velocity": 0,
                "time": 0.08874985208333332,
                "total_time": 29.93889808654785
            },
            {
                "note": 78,
                "velocity": 0,
                "time": 0.044999924999999996,
                "total_time": 29.983787775039673
            },
            {
                "note": 46,
                "velocity": 0,
                "time": 0.007499987499999999,
                "total_time": 29.991281032562256
            },
            {
                "note": 66,
                "velocity": 0,
                "time": 0.007499987499999999,
                "total_time": 29.998822689056396
            },
            {
                "note": 77,
                "velocity": 127,
                "time": 0.0012499979166666665,
                "total_time": 30.00001335144043
            },
            {
                "note": 70,
                "velocity": 112,
                "time": 0,
                "total_time": 30.000064849853516
            },
            {
                "note": 34,
                "velocity": 112,
                "time": 0,
                "total_time": 30.000099182128906
            },
            {
                "note": 34,
                "velocity": 0,
                "time": 0,
                "total_time": 30.000119924545288
            },
            {
                "note": 34,
                "velocity": 112,
                "time": 0,
                "total_time": 30.00014042854309
            },
            {
                "note": 41,
                "velocity": 96,
                "time": 0,
                "total_time": 30.15020990371704
            },
            {
                "note": 41,
                "velocity": 0,
                "time": 0.14124976458333333,
                "total_time": 30.291370153427124
            },
            {
                "note": 46,
                "velocity": 96,
                "time": 0.008749985416666665,
                "total_time": 30.300101041793823
            },
            {
                "note": 46,
                "velocity": 0,
                "time": 0.14124976458333333,
                "total_time": 30.44127869606018
            },
            {
                "note": 41,
                "velocity": 96,
                "time": 0.008749985416666665,
                "total_time": 30.450031280517578
            },
            {
                "note": 41,
                "velocity": 0,
                "time": 0.14124976458333333,
                "total_time": 30.591304063796997
            },
            {
                "note": 49,
                "velocity": 96,
                "time": 0.008749985416666665,
                "total_time": 30.600038051605225
            },
            {
                "note": 77,
                "velocity": 0,
                "time": 0.0012499979166666665,
                "total_time": 30.60126543045044
            },
            {
                "note": 49,
                "velocity": 0,
                "time": 0.13999976666666664,
                "total_time": 30.74127984046936
            },
            {
                "note": 41,
                "velocity": 96,
                "time": 0.008749985416666665,
                "total_time": 30.75006413459778
            },
            {
                "note": 41,
                "velocity": 0,
                "time": 0.14124976458333333,
                "total_time": 30.89137601852417
            },
            {
                "note": 82,
                "velocity": 112,
                "time": 0.008749985416666665,
                "total_time": 30.900080680847168
            },
            {
                "note": 46,
                "velocity": 96,
                "time": 0,
                "total_time": 30.900384187698364
            },
            {
                "note": 46,
                "velocity": 0,
                "time": 0.14124976458333333,
                "total_time": 31.041308164596558
            },
            {
                "note": 41,
                "velocity": 96,
                "time": 0.008749985416666665,
                "total_time": 31.05004620552063
            },
            {
                "note": 34,
                "velocity": 0,
                "time": 0.08874985208333332,
                "total_time": 31.138822078704834
            },
            {
                "note": 82,
                "velocity": 0,
                "time": 0.044999924999999996,
                "total_time": 31.18379521369934
            },
            {
                "note": 41,
                "velocity": 0,
                "time": 0.007499987499999999,
                "total_time": 31.191277980804443
            },
            {
                "note": 70,
                "velocity": 0,
                "time": 0.007499987499999999,
                "total_time": 31.19881534576416
            },
            {
                "note": 82,
                "velocity": 127,
                "time": 0.0012499979166666665,
                "total_time": 31.20000982284546
            },
            {
                "note": 71,
                "velocity": 112,
                "time": 0,
                "total_time": 31.200060844421387
            },
            {
                "note": 75,
                "velocity": 112,
                "time": 0,
                "total_time": 31.20010018348694
            },
            {
                "note": 35,
                "velocity": 112,
                "time": 0,
                "total_time": 31.200122594833374
            },
            {
                "note": 35,
                "velocity": 0,
                "time": 0,
                "total_time": 31.20014500617981
            },
            {
                "note": 35,
                "velocity": 112,
                "time": 0,
                "total_time": 31.20016574859619
            },
            {
                "note": 42,
                "velocity": 96,
                "time": 0,
                "total_time": 31.350239753723145
            },
            {
                "note": 42,
                "velocity": 0,
                "time": 0.14124976458333333,
                "total_time": 31.491316080093384
            },
            {
                "note": 47,
                "velocity": 96,
                "time": 0.008749985416666665,
                "total_time": 31.50015377998352
            },
            {
                "note": 47,
                "velocity": 0,
                "time": 0.14124976458333333,
                "total_time": 31.641310214996338
            },
            {
                "note": 42,
                "velocity": 96,
                "time": 0.008749985416666665,
                "total_time": 31.650068759918213
            },
            {
                "note": 42,
                "velocity": 0,
                "time": 0.14124976458333333,
                "total_time": 31.791313409805298
            },
            {
                "note": 51,
                "velocity": 96,
                "time": 0.008749985416666665,
                "total_time": 31.80007791519165
            },
            {
                "note": 82,
                "velocity": 0,
                "time": 0.0012499979166666665,
                "total_time": 31.801279544830322
            },
            {
                "note": 51,
                "velocity": 0,
                "time": 0.13999976666666664,
                "total_time": 31.941307544708252
            },
            {
                "note": 42,
                "velocity": 96,
                "time": 0.008749985416666665,
                "total_time": 31.95003032684326
            },
            {
                "note": 42,
                "velocity": 0,
                "time": 0.14124976458333333,
                "total_time": 32.09130048751831
            },
            {
                "note": 80,
                "velocity": 112,
                "time": 0.008749985416666665,
                "total_time": 32.100038051605225
            },
            {
                "note": 47,
                "velocity": 96,
                "time": 0,
                "total_time": 32.10020875930786
            },
            {
                "note": 47,
                "velocity": 0,
                "time": 0.14124976458333333,
                "total_time": 32.24127531051636
            },
            {
                "note": 80,
                "velocity": 0,
                "time": 0.007499987499999999,
                "total_time": 32.248867988586426
            },
            {
                "note": 78,
                "velocity": 112,
                "time": 0.0012499979166666665,
                "total_time": 32.25004172325134
            },
            {
                "note": 42,
                "velocity": 96,
                "time": 0,
                "total_time": 32.25023531913757
            },
            {
                "note": 35,
                "velocity": 0,
                "time": 0.08874985208333332,
                "total_time": 32.338820695877075
            },
            {
                "note": 78,
                "velocity": 0,
                "time": 0.052499912499999996,
                "total_time": 32.39131307601929
            },
            {
                "note": 42,
                "velocity": 0,
                "time": 0,
                "total_time": 32.39153003692627
            },
            {
                "note": 71,
                "velocity": 0,
                "time": 0.007499987499999999,
                "total_time": 32.39901947975159
            },
            {
                "note": 75,
                "velocity": 0,
                "time": 0,
                "total_time": 32.39932131767273
            },
            {
                "note": 77,
                "velocity": 112,
                "time": 0.0012499979166666665,
                "total_time": 32.40014338493347
            },
            {
                "note": 73,
                "velocity": 112,
                "time": 0,
                "total_time": 32.400429487228394
            },
            {
                "note": 37,
                "velocity": 112,
                "time": 0,
                "total_time": 32.400535583496094
            },
            {
                "note": 37,
                "velocity": 0,
                "time": 0,
                "total_time": 32.400614738464355
            },
            {
                "note": 37,
                "velocity": 112,
                "time": 0,
                "total_time": 32.400707483291626
            },
            {
                "note": 44,
                "velocity": 96,
                "time": 0,
                "total_time": 32.550201654434204
            },
            {
                "note": 44,
                "velocity": 0,
                "time": 0.14124976458333333,
                "total_time": 32.69132137298584
            },
            {
                "note": 77,
                "velocity": 0,
                "time": 0.007499987499999999,
                "total_time": 32.69884204864502
            },
            {
                "note": 73,
                "velocity": 0,
                "time": 0,
                "total_time": 32.69906282424927
            },
            {
                "note": 78,
                "velocity": 112,
                "time": 0.0012499979166666665,
                "total_time": 32.70004463195801
            },
            {
                "note": 71,
                "velocity": 112,
                "time": 0,
                "total_time": 32.7002477645874
            },
            {
                "note": 49,
                "velocity": 96,
                "time": 0,
                "total_time": 32.70032858848572
            },
            {
                "note": 49,
                "velocity": 0,
                "time": 0.14124976458333333,
                "total_time": 32.841315031051636
            },
            {
                "note": 44,
                "velocity": 96,
                "time": 0.008749985416666665,
                "total_time": 32.8500657081604
            },
            {
                "note": 44,
                "velocity": 0,
                "time": 0.14124976458333333,
                "total_time": 32.991353034973145
            },
            {
                "note": 78,
                "velocity": 0,
                "time": 0.007499987499999999,
                "total_time": 32.998871088027954
            },
            {
                "note": 71,
                "velocity": 0,
                "time": 0,
                "total_time": 32.9991295337677
            },
            {
                "note": 73,
                "velocity": 112,
                "time": 0.0012499979166666665,
                "total_time": 33.00006937980652
            },
            {
                "note": 70,
                "velocity": 112,
                "time": 0,
                "total_time": 33.00031399726868
            },
            {
                "note": 53,
                "velocity": 96,
                "time": 0,
                "total_time": 33.000388860702515
            },
            {
                "note": 53,
                "velocity": 0,
                "time": 0.14124976458333333,
                "total_time": 33.14130640029907
            },
            {
                "note": 44,
                "velocity": 96,
                "time": 0.008749985416666665,
                "total_time": 33.1500608921051
            },
            {
                "note": 44,
                "velocity": 0,
                "time": 0.14124976458333333,
                "total_time": 33.29131531715393
            },
            {
                "note": 73,
                "velocity": 0,
                "time": 0.007499987499999999,
                "total_time": 33.298895597457886
            },
            {
                "note": 70,
                "velocity": 0,
                "time": 0,
                "total_time": 33.29916334152222
            },
            {
                "note": 70,
                "velocity": 112,
                "time": 0.0012499979166666665,
                "total_time": 33.300068616867065
            },
            {
                "note": 65,
                "velocity": 112,
                "time": 0,
                "total_time": 33.30033349990845
            },
            {
                "note": 49,
                "velocity": 96,
                "time": 0,
                "total_time": 33.30042505264282
            },
            {
                "note": 49,
                "velocity": 0,
                "time": 0.14124976458333333,
                "total_time": 33.44131422042847
            },
            {
                "note": 44,
                "velocity": 96,
                "time": 0.008749985416666665,
                "total_time": 33.45002293586731
            },
            {
                "note": 37,
                "velocity": 0,
                "time": 0.08874985208333332,
                "total_time": 33.53882122039795
            },
            {
                "note": 70,
                "velocity": 0,
                "time": 0.044999924999999996,
                "total_time": 33.58377480506897
            },
            {
                "note": 65,
                "velocity": 0,
                "time": 0,
                "total_time": 33.58389472961426
            },
            {
                "note": 44,
                "velocity": 0,
                "time": 0.007499987499999999,
                "total_time": 33.59130597114563
            },
            {
                "note": 71,
                "velocity": 127,
                "time": 0.008749985416666665,
                "total_time": 33.60002255439758
            },
            {
                "note": 66,
                "velocity": 112,
                "time": 0,
                "total_time": 33.600143909454346
            },
            {
                "note": 32,
                "velocity": 112,
                "time": 0,
                "total_time": 33.600208044052124
            },
            {
                "note": 32,
                "velocity": 0,
                "time": 0,
                "total_time": 33.60022807121277
            },
            {
                "note": 32,
                "velocity": 112,
                "time": 0,
                "total_time": 33.60024690628052
            },
            {
                "note": 39,
                "velocity": 96,
                "time": 0,
                "total_time": 33.750184535980225
            },
            {
                "note": 39,
                "velocity": 0,
                "time": 0.14124976458333333,
                "total_time": 33.891324281692505
            },
            {
                "note": 44,
                "velocity": 96,
                "time": 0.008749985416666665,
                "total_time": 33.90015530586243
            },
            {
                "note": 71,
                "velocity": 0,
                "time": 0.09999983333333332,
                "total_time": 34.0000638961792
            },
            {
                "note": 44,
                "velocity": 0,
                "time": 0.041249931249999996,
                "total_time": 34.041340827941895
            },
            {
                "note": 39,
                "velocity": 96,
                "time": 0.008749985416666665,
                "total_time": 34.05028057098389
            },
            {
                "note": 39,
                "velocity": 0,
                "time": 0.14124976458333333,
                "total_time": 34.19146966934204
            },
            {
                "note": 66,
                "velocity": 0,
                "time": 0.007499987499999999,
                "total_time": 34.19885730743408
            },
            {
                "note": 75,
                "velocity": 112,
                "time": 0.0012499979166666665,
                "total_time": 34.200024366378784
            },
            {
                "note": 71,
                "velocity": 112,
                "time": 0,
                "total_time": 34.20018911361694
            },
            {
                "note": 47,
                "velocity": 96,
                "time": 0,
                "total_time": 34.20024347305298
            },
            {
                "note": 47,
                "velocity": 0,
                "time": 0.14124976458333333,
                "total_time": 34.341313123703
            },
            {
                "note": 39,
                "velocity": 96,
                "time": 0.008749985416666665,
                "total_time": 34.35004234313965
            },
            {
                "note": 39,
                "velocity": 0,
                "time": 0.14124976458333333,
                "total_time": 34.49130892753601
            },
            {
                "note": 75,
                "velocity": 0,
                "time": 0.007499987499999999,
                "total_time": 34.49877309799194
            },
            {
                "note": 71,
                "velocity": 0,
                "time": 0,
                "total_time": 34.49889039993286
            },
            {
                "note": 78,
                "velocity": 112,
                "time": 0.0012499979166666665,
                "total_time": 34.5000159740448
            },
            {
                "note": 71,
                "velocity": 112,
                "time": 0,
                "total_time": 34.50010108947754
            },
            {
                "note": 44,
                "velocity": 96,
                "time": 0,
                "total_time": 34.5001266002655
            },
            {
                "note": 44,
                "velocity": 0,
                "time": 0.14124976458333333,
                "total_time": 34.64130759239197
            },
            {
                "note": 39,
                "velocity": 96,
                "time": 0.008749985416666665,
                "total_time": 34.6505970954895
            },
            {
                "note": 32,
                "velocity": 0,
                "time": 0.08874985208333332,
                "total_time": 34.73894214630127
            },
            {
                "note": 78,
                "velocity": 0,
                "time": 0.044999924999999996,
                "total_time": 34.78386092185974
            },
            {
                "note": 71,
                "velocity": 0,
                "time": 0,
                "total_time": 34.784138202667236
            },
            {
                "note": 39,
                "velocity": 0,
                "time": 0.007499987499999999,
                "total_time": 34.79132056236267
            },
            {
                "note": 78,
                "velocity": 127,
                "time": 0.008749985416666665,
                "total_time": 34.80005884170532
            },
            {
                "note": 73,
                "velocity": 112,
                "time": 0,
                "total_time": 34.800392389297485
            },
            {
                "note": 34,
                "velocity": 112,
                "time": 0,
                "total_time": 34.80051040649414
            },
            {
                "note": 34,
                "velocity": 0,
                "time": 0,
                "total_time": 34.800572633743286
            },
            {
                "note": 34,
                "velocity": 112,
                "time": 0,
                "total_time": 34.80063343048096
            },
            {
                "note": 41,
                "velocity": 96,
                "time": 0,
                "total_time": 34.95013427734375
            },
            {
                "note": 41,
                "velocity": 0,
                "time": 0.14124976458333333,
                "total_time": 35.09130907058716
            },
            {
                "note": 46,
                "velocity": 96,
                "time": 0.008749985416666665,
                "total_time": 35.10001754760742
            },
            {
                "note": 78,
                "velocity": 0,
                "time": 0.09999983333333332,
                "total_time": 35.20001935958862
            },
            {
                "note": 46,
                "velocity": 0,
                "time": 0.041249931249999996,
                "total_time": 35.24135947227478
            },
            {
                "note": 41,
                "velocity": 96,
                "time": 0.008749985416666665,
                "total_time": 35.250014305114746
            },
            {
                "note": 41,
                "velocity": 0,
                "time": 0.14124976458333333,
                "total_time": 35.39130520820618
            },
            {
                "note": 73,
                "velocity": 0,
                "time": 0.007499987499999999,
                "total_time": 35.39884042739868
            },
            {
                "note": 77,
                "velocity": 112,
                "time": 0.0012499979166666665,
                "total_time": 35.40006613731384
            },
            {
                "note": 70,
                "velocity": 112,
                "time": 0,
                "total_time": 35.40027976036072
            },
            {
                "note": 49,
                "velocity": 96,
                "time": 0,
                "total_time": 35.40035581588745
            },
            {
                "note": 49,
                "velocity": 0,
                "time": 0.14124976458333333,
                "total_time": 35.541316747665405
            },
            {
                "note": 41,
                "velocity": 96,
                "time": 0.008749985416666665,
                "total_time": 35.55014657974243
            },
            {
                "note": 41,
                "velocity": 0,
                "time": 0.14124976458333333,
                "total_time": 35.69128131866455
            },
            {
                "note": 77,
                "velocity": 0,
                "time": 0.007499987499999999,
                "total_time": 35.698776960372925
            },
            {
                "note": 70,
                "velocity": 0,
                "time": 0,
                "total_time": 35.698894023895264
            },
            {
                "note": 78,
                "velocity": 112,
                "time": 0.0012499979166666665,
                "total_time": 35.70001459121704
            },
            {
                "note": 68,
                "velocity": 112,
                "time": 0,
                "total_time": 35.700114727020264
            },
            {
                "note": 46,
                "velocity": 96,
                "time": 0,
                "total_time": 35.70014572143555
            },
            {
                "note": 46,
                "velocity": 0,
                "time": 0.14124976458333333,
                "total_time": 35.84127235412598
            },
            {
                "note": 41,
                "velocity": 96,
                "time": 0.008749985416666665,
                "total_time": 35.850021839141846
            },
            {
                "note": 34,
                "velocity": 0,
                "time": 0.08874985208333332,
                "total_time": 35.93882751464844
            },
            {
                "note": 78,
                "velocity": 0,
                "time": 0.044999924999999996,
                "total_time": 35.983776569366455
            },
            {
                "note": 68,
                "velocity": 0,
                "time": 0,
                "total_time": 35.983909368515015
            },
            {
                "note": 41,
                "velocity": 0,
                "time": 0.007499987499999999,
                "total_time": 35.99132513999939
            },
            {
                "note": 85,
                "velocity": 127,
                "time": 0.008749985416666665,
                "total_time": 36.00002312660217
            },
            {
                "note": 78,
                "velocity": 112,
                "time": 0,
                "total_time": 36.00013256072998
            },
            {
                "note": 35,
                "velocity": 112,
                "time": 0,
                "total_time": 36.00017046928406
            },
            {
                "note": 35,
                "velocity": 0,
                "time": 0,
                "total_time": 36.000192642211914
            },
            {
                "note": 35,
                "velocity": 112,
                "time": 0,
                "total_time": 36.000213623046875
            },
            {
                "note": 42,
                "velocity": 96,
                "time": 0,
                "total_time": 36.15023398399353
            },
            {
                "note": 42,
                "velocity": 0,
                "time": 0.14124976458333333,
                "total_time": 36.29130482673645
            },
            {
                "note": 85,
                "velocity": 0,
                "time": 0.008749985416666665,
                "total_time": 36.30002021789551
            },
            {
                "note": 47,
                "velocity": 96,
                "time": 0,
                "total_time": 36.300129413604736
            },
            {
                "note": 47,
                "velocity": 0,
                "time": 0.14124976458333333,
                "total_time": 36.44127058982849
            },
            {
                "note": 78,
                "velocity": 0,
                "time": 0.007499987499999999,
                "total_time": 36.448771476745605
            },
            {
                "note": 83,
                "velocity": 127,
                "time": 0.0012499979166666665,
                "total_time": 36.45000743865967
            },
            {
                "note": 75,
                "velocity": 112,
                "time": 0,
                "total_time": 36.45007348060608
            },
            {
                "note": 42,
                "velocity": 96,
                "time": 0,
                "total_time": 36.450096130371094
            },
            {
                "note": 42,
                "velocity": 0,
                "time": 0.14124976458333333,
                "total_time": 36.59131455421448
            },
            {
                "note": 51,
                "velocity": 96,
                "time": 0.008749985416666665,
                "total_time": 36.600040912628174
            },
            {
                "note": 51,
                "velocity": 0,
                "time": 0.14124976458333333,
                "total_time": 36.741466999053955
            },
            {
                "note": 83,
                "velocity": 0,
                "time": 0.008749985416666665,
                "total_time": 36.75008678436279
            },
            {
                "note": 42,
                "velocity": 96,
                "time": 0,
                "total_time": 36.75037455558777
            },
            {
                "note": 42,
                "velocity": 0,
                "time": 0.14124976458333333,
                "total_time": 36.89135432243347
            },
            {
                "note": 75,
                "velocity": 0,
                "time": 0.007499987499999999,
                "total_time": 36.89891839027405
            },
            {
                "note": 82,
                "velocity": 127,
                "time": 0.0012499979166666665,
                "total_time": 36.90012574195862
            },
            {
                "note": 78,
                "velocity": 112,
                "time": 0,
                "total_time": 36.90057396888733
            },
            {
                "note": 47,
                "velocity": 96,
                "time": 0,
                "total_time": 36.9007613658905
            },
            {
                "note": 47,
                "velocity": 0,
                "time": 0.14124976458333333,
                "total_time": 37.04140663146973
            },
            {
                "note": 42,
                "velocity": 96,
                "time": 0.008749985416666665,
                "total_time": 37.05004262924194
            },
            {
                "note": 82,
                "velocity": 0,
                "time": 0.048749918749999996,
                "total_time": 37.098963260650635
            },
            {
                "note": 35,
                "velocity": 0,
                "time": 0.03999993333333333,
                "total_time": 37.13882827758789
            },
            {
                "note": 78,
                "velocity": 0,
                "time": 0.044999924999999996,
                "total_time": 37.18380427360535
            },
            {
                "note": 42,
                "velocity": 0,
                "time": 0.007499987499999999,
                "total_time": 37.19126749038696
            },
            {
                "note": 80,
                "velocity": 127,
                "time": 0.008749985416666665,
                "total_time": 37.20001935958862
            },
            {
                "note": 77,
                "velocity": 112,
                "time": 0,
                "total_time": 37.200127601623535
            },
            {
                "note": 37,
                "velocity": 112,
                "time": 0,
                "total_time": 37.200164556503296
            },
            {
                "note": 37,
                "velocity": 0,
                "time": 0,
                "total_time": 37.200186252593994
            },
            {
                "note": 37,
                "velocity": 112,
                "time": 0,
                "total_time": 37.200207233428955
            },
            {
                "note": 80,
                "velocity": 0,
                "time": 0.09624983958333332,
                "total_time": 37.298774003982544
            },
            {
                "note": 82,
                "velocity": 112,
                "time": 0.05124991458333333,
                "total_time": 37.350043058395386
            },
            {
                "note": 44,
                "velocity": 96,
                "time": 0,
                "total_time": 37.35022807121277
            },
            {
                "note": 44,
                "velocity": 0,
                "time": 0.14124976458333333,
                "total_time": 37.49126958847046
            },
            {
                "note": 82,
                "velocity": 0,
                "time": 0.007499987499999999,
                "total_time": 37.49876952171326
            },
            {
                "note": 80,
                "velocity": 112,
                "time": 0.0012499979166666665,
                "total_time": 37.50006914138794
            },
            {
                "note": 53,
                "velocity": 96,
                "time": 0,
                "total_time": 37.500186920166016
            },
            {
                "note": 53,
                "velocity": 0,
                "time": 0.14124976458333333,
                "total_time": 37.64130258560181
            },
            {
                "note": 80,
                "velocity": 0,
                "time": 0.007499987499999999,
                "total_time": 37.6489040851593
            },
            {
                "note": 78,
                "velocity": 112,
                "time": 0.0012499979166666665,
                "total_time": 37.65005970001221
            },
            {
                "note": 44,
                "velocity": 96,
                "time": 0,
                "total_time": 37.65029573440552
            },
            {
                "note": 37,
                "velocity": 0,
                "time": 0.11874980208333331,
                "total_time": 37.76884365081787
            },
            {
                "note": 44,
                "velocity": 0,
                "time": 0.022499962499999998,
                "total_time": 37.791311502456665
            },
            {
                "note": 78,
                "velocity": 0,
                "time": 0.007499987499999999,
                "total_time": 37.79886198043823
            },
            {
                "note": 77,
                "velocity": 0,
                "time": 0.0012499979166666665,
                "total_time": 37.80004048347473
            },
            {
                "note": 77,
                "velocity": 112,
                "time": 0,
                "total_time": 37.80020594596863
            },
            {
                "note": 38,
                "velocity": 112,
                "time": 0,
                "total_time": 37.800384283065796
            },
            {
                "note": 38,
                "velocity": 0,
                "time": 0,
                "total_time": 37.80048489570618
            },
            {
                "note": 38,
                "velocity": 112,
                "time": 0,
                "total_time": 37.80057668685913
            },
            {
                "note": 74,
                "velocity": 112,
                "time": 0.14749975416666664,
                "total_time": 37.95006227493286
            },
            {
                "note": 46,
                "velocity": 96,
                "time": 0,
                "total_time": 37.95034742355347
            },
            {
                "note": 46,
                "velocity": 0,
                "time": 0.14124976458333333,
                "total_time": 38.09139561653137
            },
            {
                "note": 74,
                "velocity": 0,
                "time": 0.007499987499999999,
                "total_time": 38.09888482093811
            },
            {
                "note": 80,
                "velocity": 112,
                "time": 0.0012499979166666665,
                "total_time": 38.10002112388611
            },
            {
                "note": 50,
                "velocity": 96,
                "time": 0,
                "total_time": 38.10017919540405
            },
            {
                "note": 50,
                "velocity": 0,
                "time": 0.14124976458333333,
                "total_time": 38.241262435913086
            },
            {
                "note": 80,
                "velocity": 0,
                "time": 0.007499987499999999,
                "total_time": 38.24881410598755
            },
            {
                "note": 77,
                "velocity": 0,
                "time": 0.0012499979166666665,
                "total_time": 38.25000286102295
            },
            {
                "note": 77,
                "velocity": 112,
                "time": 0,
                "total_time": 38.25006699562073
            },
            {
                "note": 46,
                "velocity": 96,
                "time": 0,
                "total_time": 38.25010418891907
            },
            {
                "note": 38,
                "velocity": 0,
                "time": 0.11874980208333331,
                "total_time": 38.368778228759766
            },
            {
                "note": 46,
                "velocity": 0,
                "time": 0.022499962499999998,
                "total_time": 38.39129447937012
            },
            {
                "note": 77,
                "velocity": 0,
                "time": 0.007499987499999999,
                "total_time": 38.398770332336426
            },
            {
                "note": 78,
                "velocity": 127,
                "time": 0.0012499979166666665,
                "total_time": 38.40000915527344
            },
            {
                "note": 75,
                "velocity": 112,
                "time": 0,
                "total_time": 38.40009880065918
            },
            {
                "note": 39,
                "velocity": 112,
                "time": 0,
                "total_time": 38.40013599395752
            },
            {
                "note": 39,
                "velocity": 0,
                "time": 0,
                "total_time": 38.40015745162964
            },
            {
                "note": 39,
                "velocity": 112,
                "time": 0,
                "total_time": 38.40017771720886
            },
            {
                "note": 46,
                "velocity": 96,
                "time": 0,
                "total_time": 38.55024838447571
            },
            {
                "note": 46,
                "velocity": 0,
                "time": 0.14124976458333333,
                "total_time": 38.691295862197876
            },
            {
                "note": 78,
                "velocity": 0,
                "time": 0.008749985416666665,
                "total_time": 38.700039863586426
            },
            {
                "note": 51,
                "velocity": 96,
                "time": 0,
                "total_time": 38.70012068748474
            },
            {
                "note": 51,
                "velocity": 0,
                "time": 0.14124976458333333,
                "total_time": 38.84131598472595
            },
            {
                "note": 75,
                "velocity": 0,
                "time": 0.007499987499999999,
                "total_time": 38.84883666038513
            },
            {
                "note": 77,
                "velocity": 112,
                "time": 0.0012499979166666665,
                "total_time": 38.85005283355713
            },
            {
                "note": 70,
                "velocity": 112,
                "time": 0,
                "total_time": 38.850340127944946
            },
            {
                "note": 46,
                "velocity": 96,
                "time": 0,
                "total_time": 38.850460052490234
            },
            {
                "note": 46,
                "velocity": 0,
                "time": 0.14124976458333333,
                "total_time": 38.99132585525513
            },
            {
                "note": 54,
                "velocity": 96,
                "time": 0.008749985416666665,
                "total_time": 39.00006866455078
            },
            {
                "note": 54,
                "velocity": 0,
                "time": 0.14124976458333333,
                "total_time": 39.14134454727173
            },
            {
                "note": 46,
                "velocity": 96,
                "time": 0.008749985416666665,
                "total_time": 39.15012502670288
            },
            {
                "note": 46,
                "velocity": 0,
                "time": 0.14124976458333333,
                "total_time": 39.291303396224976
            },
            {
                "note": 77,
                "velocity": 0,
                "time": 0.007499987499999999,
                "total_time": 39.29886770248413
            },
            {
                "note": 70,
                "velocity": 0,
                "time": 0,
                "total_time": 39.29911828041077
            },
            {
                "note": 78,
                "velocity": 112,
                "time": 0.0012499979166666665,
                "total_time": 39.30002546310425
            },
            {
                "note": 70,
                "velocity": 112,
                "time": 0,
                "total_time": 39.300201416015625
            },
            {
                "note": 51,
                "velocity": 96,
                "time": 0,
                "total_time": 39.30027174949646
            },
            {
                "note": 51,
                "velocity": 0,
                "time": 0.14124976458333333,
                "total_time": 39.441285133361816
            },
            {
                "note": 46,
                "velocity": 96,
                "time": 0.008749985416666665,
                "total_time": 39.450035095214844
            },
            {
                "note": 39,
                "velocity": 0,
                "time": 0.08874985208333332,
                "total_time": 39.53881883621216
            },
            {
                "note": 78,
                "velocity": 0,
                "time": 0.044999924999999996,
                "total_time": 39.58378601074219
            },
            {
                "note": 70,
                "velocity": 0,
                "time": 0,
                "total_time": 39.58395314216614
            },
            {
                "note": 46,
                "velocity": 0,
                "time": 0.007499987499999999,
                "total_time": 39.591296434402466
            },
            {
                "note": 82,
                "velocity": 127,
                "time": 0.008749985416666665,
                "total_time": 39.60005831718445
            },
            {
                "note": 77,
                "velocity": 112,
                "time": 0,
                "total_time": 39.600571393966675
            },
            {
                "note": 37,
                "velocity": 112,
                "time": 0,
                "total_time": 39.60086441040039
            },
            {
                "note": 37,
                "velocity": 0,
                "time": 0,
                "total_time": 39.60098624229431
            },
            {
                "note": 37,
                "velocity": 112,
                "time": 0,
                "total_time": 39.60109186172485
            },
            {
                "note": 46,
                "velocity": 96,
                "time": 0,
                "total_time": 39.75006985664368
            },
            {
                "note": 46,
                "velocity": 0,
                "time": 0.14124976458333333,
                "total_time": 39.89129567146301
            },
            {
                "note": 49,
                "velocity": 96,
                "time": 0.008749985416666665,
                "total_time": 39.900118827819824
            },
            {
                "note": 49,
                "velocity": 0,
                "time": 0.14124976458333333,
                "total_time": 40.04130458831787
            },
            {
                "note": 46,
                "velocity": 96,
                "time": 0.008749985416666665,
                "total_time": 40.0501229763031
            },
            {
                "note": 46,
                "velocity": 0,
                "time": 0.14124976458333333,
                "total_time": 40.19131803512573
            },
            {
                "note": 53,
                "velocity": 96,
                "time": 0.008749985416666665,
                "total_time": 40.20005822181702
            },
            {
                "note": 82,
                "velocity": 0,
                "time": 0.0012499979166666665,
                "total_time": 40.20127201080322
            },
            {
                "note": 53,
                "velocity": 0,
                "time": 0.13999976666666664,
                "total_time": 40.34127163887024
            },
            {
                "note": 46,
                "velocity": 96,
                "time": 0.008749985416666665,
                "total_time": 40.350016593933105
            },
            {
                "note": 46,
                "velocity": 0,
                "time": 0.14124976458333333,
                "total_time": 40.491262674331665
            },
            {
                "note": 77,
                "velocity": 0,
                "time": 0.007499987499999999,
                "total_time": 40.49876070022583
            },
            {
                "note": 77,
                "velocity": 112,
                "time": 0.0012499979166666665,
                "total_time": 40.500004053115845
            },
            {
                "note": 70,
                "velocity": 112,
                "time": 0,
                "total_time": 40.500094175338745
            },
            {
                "note": 49,
                "velocity": 96,
                "time": 0,
                "total_time": 40.500123739242554
            },
            {
                "note": 49,
                "velocity": 0,
                "time": 0.14124976458333333,
                "total_time": 40.64128756523132
            },
            {
                "note": 46,
                "velocity": 96,
                "time": 0.008749985416666665,
                "total_time": 40.65005874633789
            },
            {
                "note": 37,
                "velocity": 0,
                "time": 0.08874985208333332,
                "total_time": 40.738823652267456
            },
            {
                "note": 77,
                "velocity": 0,
                "time": 0.044999924999999996,
                "total_time": 40.78383946418762
            },
            {
                "note": 70,
                "velocity": 0,
                "time": 0,
                "total_time": 40.784103870391846
            },
            {
                "note": 46,
                "velocity": 0,
                "time": 0.007499987499999999,
                "total_time": 40.79132890701294
            },
            {
                "note": 75,
                "velocity": 127,
                "time": 0.008749985416666665,
                "total_time": 40.80007719993591
            },
            {
                "note": 72,
                "velocity": 112,
                "time": 0,
                "total_time": 40.8004195690155
            },
            {
                "note": 36,
                "velocity": 112,
                "time": 0,
                "total_time": 40.80055642127991
            },
            {
                "note": 36,
                "velocity": 0,
                "time": 0,
                "total_time": 40.800636768341064
            },
            {
                "note": 36,
                "velocity": 112,
                "time": 0,
                "total_time": 40.800708532333374
            },
            {
                "note": 44,
                "velocity": 96,
                "time": 0,
                "total_time": 40.950063705444336
            },
            {
                "note": 44,
                "velocity": 0,
                "time": 0.14124976458333333,
                "total_time": 41.0912606716156
            },
            {
                "note": 48,
                "velocity": 96,
                "time": 0.008749985416666665,
                "total_time": 41.10001349449158
            },
            {
                "note": 48,
                "velocity": 0,
                "time": 0.14124976458333333,
                "total_time": 41.2412588596344
            },
            {
                "note": 44,
                "velocity": 96,
                "time": 0.008749985416666665,
                "total_time": 41.25001764297485
            },
            {
                "note": 44,
                "velocity": 0,
                "time": 0.14124976458333333,
                "total_time": 41.3913996219635
            },
            {
                "note": 51,
                "velocity": 96,
                "time": 0.008749985416666665,
                "total_time": 41.40004324913025
            },
            {
                "note": 51,
                "velocity": 0,
                "time": 0.14124976458333333,
                "total_time": 41.541329860687256
            },
            {
                "note": 44,
                "velocity": 96,
                "time": 0.008749985416666665,
                "total_time": 41.55004668235779
            },
            {
                "note": 75,
                "velocity": 0,
                "time": 0.052499912499999996,
                "total_time": 41.6025071144104
            },
            {
                "note": 44,
                "velocity": 0,
                "time": 0.08874985208333332,
                "total_time": 41.69129180908203
            },
            {
                "note": 48,
                "velocity": 96,
                "time": 0.008749985416666665,
                "total_time": 41.70001149177551
            },
            {
                "note": 48,
                "velocity": 0,
                "time": 0.14124976458333333,
                "total_time": 41.84126567840576
            },
            {
                "note": 44,
                "velocity": 96,
                "time": 0.008749985416666665,
                "total_time": 41.850040435791016
            },
            {
                "note": 72,
                "velocity": 0,
                "time": 0.08874985208333332,
                "total_time": 41.9388267993927
            },
            {
                "note": 36,
                "velocity": 0,
                "time": 0,
                "total_time": 41.93904376029968
            },
            {
                "note": 44,
                "velocity": 0,
                "time": 0.052499912499999996,
                "total_time": 41.991336822509766
            },
            {
                "note": 75,
                "velocity": 112,
                "time": 0.008749985416666665,
                "total_time": 42.00006127357483
            },
            {
                "note": 68,
                "velocity": 112,
                "time": 0,
                "total_time": 42.00037145614624
            },
            {
                "note": 32,
                "velocity": 112,
                "time": 0,
                "total_time": 42.00046682357788
            },
            {
                "note": 32,
                "velocity": 0,
                "time": 0,
                "total_time": 42.000542640686035
            },
            {
                "note": 32,
                "velocity": 112,
                "time": 0,
                "total_time": 42.000616788864136
            },
            {
                "note": 39,
                "velocity": 96,
                "time": 0,
                "total_time": 42.15021228790283
            },
            {
                "note": 39,
                "velocity": 0,
                "time": 0.14124976458333333,
                "total_time": 42.29130816459656
            },
            {
                "note": 75,
                "velocity": 0,
                "time": 0.007499987499999999,
                "total_time": 42.2988395690918
            },
            {
                "note": 68,
                "velocity": 0,
                "time": 0,
                "total_time": 42.29904246330261
            },
            {
                "note": 78,
                "velocity": 112,
                "time": 0.0012499979166666665,
                "total_time": 42.300018310546875
            },
            {
                "note": 72,
                "velocity": 112,
                "time": 0,
                "total_time": 42.300203800201416
            },
            {
                "note": 44,
                "velocity": 96,
                "time": 0,
                "total_time": 42.300270795822144
            },
            {
                "note": 44,
                "velocity": 0,
                "time": 0.14124976458333333,
                "total_time": 42.441288471221924
            },
            {
                "note": 48,
                "velocity": 96,
                "time": 0.008749985416666665,
                "total_time": 42.45000958442688
            },
            {
                "note": 32,
                "velocity": 0,
                "time": 0.11874980208333331,
                "total_time": 42.56875801086426
            },
            {
                "note": 48,
                "velocity": 0,
                "time": 0.022499962499999998,
                "total_time": 42.59126567840576
            },
            {
                "note": 78,
                "velocity": 0,
                "time": 0.007499987499999999,
                "total_time": 42.59878373146057
            },
            {
                "note": 72,
                "velocity": 0,
                "time": 0,
                "total_time": 42.59896779060364
            },
            {
                "note": 80,
                "velocity": 112,
                "time": 0.0012499979166666665,
                "total_time": 42.59999489784241
            },
            {
                "note": 75,
                "velocity": 112,
                "time": 0,
                "total_time": 42.600053787231445
            },
            {
                "note": 42,
                "velocity": 112,
                "time": 0,
                "total_time": 42.6000816822052
            },
            {
                "note": 42,
                "velocity": 0,
                "time": 0,
                "total_time": 42.60010385513306
            },
            {
                "note": 42,
                "velocity": 112,
                "time": 0,
                "total_time": 42.6001250743866
            },
            {
                "note": 48,
                "velocity": 96,
                "time": 0,
                "total_time": 42.750099182128906
            },
            {
                "note": 48,
                "velocity": 0,
                "time": 0.14124976458333333,
                "total_time": 42.89130783081055
            },
            {
                "note": 80,
                "velocity": 0,
                "time": 0.007499987499999999,
                "total_time": 42.89885878562927
            },
            {
                "note": 75,
                "velocity": 0,
                "time": 0,
                "total_time": 42.899160623550415
            },
            {
                "note": 82,
                "velocity": 112,
                "time": 0.0012499979166666665,
                "total_time": 42.90005922317505
            },
            {
                "note": 78,
                "velocity": 112,
                "time": 0,
                "total_time": 42.900397062301636
            },
            {
                "note": 54,
                "velocity": 96,
                "time": 0,
                "total_time": 42.900513648986816
            },
            {
                "note": 54,
                "velocity": 0,
                "time": 0.14124976458333333,
                "total_time": 43.04127502441406
            },
            {
                "note": 48,
                "velocity": 96,
                "time": 0.008749985416666665,
                "total_time": 43.050047874450684
            },
            {
                "note": 42,
                "velocity": 0,
                "time": 0.11874980208333331,
                "total_time": 43.16884136199951
            },
            {
                "note": 82,
                "velocity": 0,
                "time": 0.014999974999999999,
                "total_time": 43.18391013145447
            },
            {
                "note": 78,
                "velocity": 0,
                "time": 0,
                "total_time": 43.184184312820435
            },
            {
                "note": 48,
                "velocity": 0,
                "time": 0.007499987499999999,
                "total_time": 43.19133138656616
            },
            {
                "note": 83,
                "velocity": 127,
                "time": 0.008749985416666665,
                "total_time": 43.200295209884644
            },
            {
                "note": 80,
                "velocity": 112,
                "time": 0,
                "total_time": 43.20121717453003
            },
            {
                "note": 40,
                "velocity": 112,
                "time": 0,
                "total_time": 43.201465129852295
            },
            {
                "note": 40,
                "velocity": 0,
                "time": 0,
                "total_time": 43.20159125328064
            },
            {
                "note": 40,
                "velocity": 112,
                "time": 0,
                "total_time": 43.2017023563385
            },
            {
                "note": 47,
                "velocity": 96,
                "time": 0,
                "total_time": 43.35019874572754
            },
            {
                "note": 47,
                "velocity": 0,
                "time": 0.14124976458333333,
                "total_time": 43.49130582809448
            },
            {
                "note": 83,
                "velocity": 0,
                "time": 0.008749985416666665,
                "total_time": 43.500022172927856
            },
            {
                "note": 52,
                "velocity": 96,
                "time": 0,
                "total_time": 43.500159740448
            },
            {
                "note": 52,
                "velocity": 0,
                "time": 0.14124976458333333,
                "total_time": 43.641266107559204
            },
            {
                "note": 80,
                "velocity": 0,
                "time": 0.007499987499999999,
                "total_time": 43.64883637428284
            },
            {
                "note": 82,
                "velocity": 112,
                "time": 0.0012499979166666665,
                "total_time": 43.65001058578491
            },
            {
                "note": 78,
                "velocity": 112,
                "time": 0,
                "total_time": 43.650145053863525
            },
            {
                "note": 47,
                "velocity": 96,
                "time": 0,
                "total_time": 43.650187492370605
            },
            {
                "note": 47,
                "velocity": 0,
                "time": 0.14124976458333333,
                "total_time": 43.79128336906433
            },
            {
                "note": 56,
                "velocity": 96,
                "time": 0.008749985416666665,
                "total_time": 43.800009965896606
            },
            {
                "note": 56,
                "velocity": 0,
                "time": 0.14124976458333333,
                "total_time": 43.94127368927002
            },
            {
                "note": 47,
                "velocity": 96,
                "time": 0.008749985416666665,
                "total_time": 43.95005226135254
            },
            {
                "note": 47,
                "velocity": 0,
                "time": 0.14124976458333333,
                "total_time": 44.09126925468445
            },
            {
                "note": 82,
                "velocity": 0,
                "time": 0.007499987499999999,
                "total_time": 44.09885025024414
            },
            {
                "note": 78,
                "velocity": 0,
                "time": 0,
                "total_time": 44.099095582962036
            },
            {
                "note": 80,
                "velocity": 112,
                "time": 0.0012499979166666665,
                "total_time": 44.10002660751343
            },
            {
                "note": 71,
                "velocity": 112,
                "time": 0,
                "total_time": 44.100170612335205
            },
            {
                "note": 52,
                "velocity": 96,
                "time": 0,
                "total_time": 44.100197553634644
            },
            {
                "note": 52,
                "velocity": 0,
                "time": 0.14124976458333333,
                "total_time": 44.241281270980835
            },
            {
                "note": 47,
                "velocity": 96,
                "time": 0.008749985416666665,
                "total_time": 44.25022006034851
            },
            {
                "note": 40,
                "velocity": 0,
                "time": 0.08874985208333332,
                "total_time": 44.338765144348145
            },
            {
                "note": 80,
                "velocity": 0,
                "time": 0.044999924999999996,
                "total_time": 44.383811712265015
            },
            {
                "note": 71,
                "velocity": 0,
                "time": 0,
                "total_time": 44.384023904800415
            },
            {
                "note": 47,
                "velocity": 0,
                "time": 0.007499987499999999,
                "total_time": 44.39130926132202
            },
            {
                "note": 78,
                "velocity": 112,
                "time": 0.008749985416666665,
                "total_time": 44.400065183639526
            },
            {
                "note": 70,
                "velocity": 112,
                "time": 0,
                "total_time": 44.400410652160645
            },
            {
                "note": 35,
                "velocity": 112,
                "time": 0,
                "total_time": 44.40052390098572
            },
            {
                "note": 35,
                "velocity": 0,
                "time": 0,
                "total_time": 44.40063261985779
            },
            {
                "note": 35,
                "velocity": 112,
                "time": 0,
                "total_time": 44.40070986747742
            },
            {
                "note": 42,
                "velocity": 96,
                "time": 0,
                "total_time": 44.55093836784363
            },
            {
                "note": 42,
                "velocity": 0,
                "time": 0.14124976458333333,
                "total_time": 44.6912796497345
            },
            {
                "note": 78,
                "velocity": 0,
                "time": 0.007499987499999999,
                "total_time": 44.698779344558716
            },
            {
                "note": 70,
                "velocity": 0,
                "time": 0,
                "total_time": 44.698914527893066
            },
            {
                "note": 75,
                "velocity": 112,
                "time": 0.0012499979166666665,
                "total_time": 44.70000600814819
            },
            {
                "note": 66,
                "velocity": 112,
                "time": 0,
                "total_time": 44.700135469436646
            },
            {
                "note": 47,
                "velocity": 96,
                "time": 0,
                "total_time": 44.700178146362305
            },
            {
                "note": 47,
                "velocity": 0,
                "time": 0.14124976458333333,
                "total_time": 44.841288566589355
            },
            {
                "note": 42,
                "velocity": 96,
                "time": 0.008749985416666665,
                "total_time": 44.85002946853638
            },
            {
                "note": 42,
                "velocity": 0,
                "time": 0.14124976458333333,
                "total_time": 44.99128222465515
            },
            {
                "note": 75,
                "velocity": 0,
                "time": 0.007499987499999999,
                "total_time": 44.99883770942688
            },
            {
                "note": 66,
                "velocity": 0,
                "time": 0,
                "total_time": 44.99906086921692
            },
            {
                "note": 78,
                "velocity": 112,
                "time": 0.0012499979166666665,
                "total_time": 45.00001072883606
            },
            {
                "note": 70,
                "velocity": 112,
                "time": 0,
                "total_time": 45.00014042854309
            },
            {
                "note": 51,
                "velocity": 96,
                "time": 0,
                "total_time": 45.00021052360535
            },
            {
                "note": 51,
                "velocity": 0,
                "time": 0.14124976458333333,
                "total_time": 45.14128279685974
            },
            {
                "note": 42,
                "velocity": 96,
                "time": 0.008749985416666665,
                "total_time": 45.15004205703735
            },
            {
                "note": 42,
                "velocity": 0,
                "time": 0.14124976458333333,
                "total_time": 45.291325092315674
            },
            {
                "note": 78,
                "velocity": 0,
                "time": 0.007499987499999999,
                "total_time": 45.29886603355408
            },
            {
                "note": 70,
                "velocity": 0,
                "time": 0,
                "total_time": 45.29927182197571
            },
            {
                "note": 82,
                "velocity": 112,
                "time": 0.0012499979166666665,
                "total_time": 45.300161838531494
            },
            {
                "note": 75,
                "velocity": 112,
                "time": 0,
                "total_time": 45.3005006313324
            },
            {
                "note": 47,
                "velocity": 96,
                "time": 0,
                "total_time": 45.30066919326782
            },
            {
                "note": 47,
                "velocity": 0,
                "time": 0.14124976458333333,
                "total_time": 45.44136595726013
            },
            {
                "note": 42,
                "velocity": 96,
                "time": 0.008749985416666665,
                "total_time": 45.450037479400635
            },
            {
                "note": 35,
                "velocity": 0,
                "time": 0.08874985208333332,
                "total_time": 45.53878831863403
            },
            {
                "note": 82,
                "velocity": 0,
                "time": 0.044999924999999996,
                "total_time": 45.58378481864929
            },
            {
                "note": 75,
                "velocity": 0,
                "time": 0,
                "total_time": 45.58388710021973
            },
            {
                "note": 42,
                "velocity": 0,
                "time": 0.007499987499999999,
                "total_time": 45.5912606716156
            },
            {
                "note": 80,
                "velocity": 127,
                "time": 0,
                "total_time": 45.60005044937134
            },
            {
                "note": 73,
                "velocity": 112,
                "time": 0,
                "total_time": 45.6001181602478
            },
            {
                "note": 37,
                "velocity": 112,
                "time": 0,
                "total_time": 45.600154638290405
            },
            {
                "note": 37,
                "velocity": 0,
                "time": 0,
                "total_time": 45.6001763343811
            },
            {
                "note": 37,
                "velocity": 112,
                "time": 0,
                "total_time": 45.600196838378906
            },
            {
                "note": 44,
                "velocity": 110,
                "time": 0,
                "total_time": 45.75014615058899
            },
            {
                "note": 44,
                "velocity": 0,
                "time": 0.06624988958333332,
                "total_time": 45.89129114151001
            },
            {
                "note": 49,
                "velocity": 108,
                "time": 0,
                "total_time": 45.90019202232361
            },
            {
                "note": 49,
                "velocity": 0,
                "time": 0.06624988958333332,
                "total_time": 46.04138660430908
            },
            {
                "note": 53,
                "velocity": 106,
                "time": 0,
                "total_time": 46.05022072792053
            },
            {
                "note": 53,
                "velocity": 0,
                "time": 0.06624988958333332,
                "total_time": 46.19127130508423
            },
            {
                "note": 56,
                "velocity": 104,
                "time": 0,
                "total_time": 46.20007586479187
            },
            {
                "note": 56,
                "velocity": 0,
                "time": 0.06624988958333332,
                "total_time": 46.34128499031067
            },
            {
                "note": 53,
                "velocity": 102,
                "time": 0,
                "total_time": 46.35011005401611
            },
            {
                "note": 80,
                "velocity": 0,
                "time": 0.052499912499999996,
                "total_time": 46.402504205703735
            },
            {
                "note": 53,
                "velocity": 0,
                "time": 0.06624988958333332,
                "total_time": 46.4913489818573
            },
            {
                "note": 49,
                "velocity": 100,
                "time": 0,
                "total_time": 46.50006699562073
            },
            {
                "note": 49,
                "velocity": 0,
                "time": 0.07374987708333332,
                "total_time": 46.64875340461731
            },
            {
                "note": 73,
                "velocity": 0,
                "time": 0.013749977083333332,
                "total_time": 46.73874878883362
            },
            {
                "note": 37,
                "velocity": 0,
                "time": 0,
                "total_time": 46.738850355148315
            },
            {
                "note": 65,
                "velocity": 115,
                "time": 0,
                "total_time": 46.80025935173035
            },
            {
                "note": 73,
                "velocity": 115,
                "time": 0,
                "total_time": 46.8004367351532
            },
            {
                "note": 77,
                "velocity": 115,
                "time": 0,
                "total_time": 46.80051374435425
            },
            {
                "note": 37,
                "velocity": 115,
                "time": 0,
                "total_time": 46.801100730895996
            },
            {
                "note": 44,
                "velocity": 115,
                "time": 0,
                "total_time": 46.80126333236694
            },
            {
                "note": 49,
                "velocity": 115,
                "time": 0,
                "total_time": 46.80133819580078
            },
            {
                "note": 65,
                "velocity": 0,
                "time": 0.02499995833333333,
                "total_time": 47.200050592422485
            },
            {
                "note": 73,
                "velocity": 0,
                "time": 0,
                "total_time": 47.20031809806824
            },
            {
                "note": 77,
                "velocity": 0,
                "time": 0,
                "total_time": 47.20041012763977
            },
            {
                "note": 37,
                "velocity": 0,
                "time": 0,
                "total_time": 47.20048403739929
            },
            {
                "note": 44,
                "velocity": 0,
                "time": 0,
                "total_time": 47.2005500793457
            },
            {
                "note": 49,
                "velocity": 0,
                "time": 0,
                "total_time": 47.200613021850586
            },
            {
                "note": 61,
                "velocity": 105,
                "time": 0,
                "total_time": 47.400161027908325
            },
            {
                "note": 70,
                "velocity": 105,
                "time": 0,
                "total_time": 47.400312662124634
            },
            {
                "note": 73,
                "velocity": 105,
                "time": 0,
                "total_time": 47.40038824081421
            },
            {
                "note": 41,
                "velocity": 105,
                "time": 0,
                "total_time": 47.4005184173584
            },
            {
                "note": 49,
                "velocity": 105,
                "time": 0,
                "total_time": 47.40058350563049
            },
            {
                "note": 53,
                "velocity": 105,
                "time": 0,
                "total_time": 47.400644063949585
            },
            {
                "note": 61,
                "velocity": 0,
                "time": 0.02499995833333333,
                "total_time": 47.79999756813049
            },
            {
                "note": 70,
                "velocity": 0,
                "time": 0,
                "total_time": 47.800089836120605
            },
            {
                "note": 73,
                "velocity": 0,
                "time": 0,
                "total_time": 47.80012035369873
            },
            {
                "note": 41,
                "velocity": 0,
                "time": 0,
                "total_time": 47.8001446723938
            },
            {
                "note": 49,
                "velocity": 0,
                "time": 0,
                "total_time": 47.80016756057739
            },
            {
                "note": 53,
                "velocity": 0,
                "time": 0,
                "total_time": 47.800190448760986
            },
            {
                "note": 78,
                "velocity": 80,
                "time": 0,
                "total_time": 48.00006031990051
            },
            {
                "note": 83,
                "velocity": 80,
                "time": 0,
                "total_time": 48.000149965286255
            },
            {
                "note": 87,
                "velocity": 80,
                "time": 0,
                "total_time": 48.000187158584595
            },
            {
                "note": 75,
                "velocity": 96,
                "time": 0,
                "total_time": 48.000216484069824
            },
            {
                "note": 39,
                "velocity": 96,
                "time": 0,
                "total_time": 48.00028657913208
            },
            {
                "note": 51,
                "velocity": 96,
                "time": 0,
                "total_time": 48.00031590461731
            },
            {
                "note": 75,
                "velocity": 0,
                "time": 0.19624967291666665,
                "total_time": 48.198787450790405
            },
            {
                "note": 75,
                "velocity": 80,
                "time": 0.10124983124999999,
                "total_time": 48.30004405975342
            },
            {
                "note": 75,
                "velocity": 0,
                "time": 0.2987495020833333,
                "total_time": 48.598756313323975
            },
            {
                "note": 75,
                "velocity": 80,
                "time": 0.0012499979166666665,
                "total_time": 48.59998655319214
            },
            {
                "note": 75,
                "velocity": 0,
                "time": 0.2987495020833333,
                "total_time": 48.89875674247742
            },
            {
                "note": 75,
                "velocity": 80,
                "time": 0.0012499979166666665,
                "total_time": 48.899993896484375
            },
            {
                "note": 78,
                "velocity": 0,
                "time": 0.2987495020833333,
                "total_time": 49.19883966445923
            },
            {
                "note": 83,
                "velocity": 0,
                "time": 0,
                "total_time": 49.199095726013184
            },
            {
                "note": 87,
                "velocity": 0,
                "time": 0,
                "total_time": 49.19919800758362
            },
            {
                "note": 75,
                "velocity": 0,
                "time": 0,
                "total_time": 49.19930291175842
            },
            {
                "note": 77,
                "velocity": 80,
                "time": 0.0012499979166666665,
                "total_time": 49.199984550476074
            },
            {
                "note": 82,
                "velocity": 80,
                "time": 0,
                "total_time": 49.20004105567932
            },
            {
                "note": 85,
                "velocity": 80,
                "time": 0,
                "total_time": 49.20006990432739
            },
            {
                "note": 73,
                "velocity": 96,
                "time": 0,
                "total_time": 49.20009422302246
            },
            {
                "note": 73,
                "velocity": 0,
                "time": 0.19874966874999997,
                "total_time": 49.398794412612915
            },
            {
                "note": 73,
                "velocity": 80,
                "time": 0.10124983124999999,
                "total_time": 49.5000479221344
            },
            {
                "note": 73,
                "velocity": 0,
                "time": 0.2987495020833333,
                "total_time": 49.79882454872131
            },
            {
                "note": 73,
                "velocity": 80,
                "time": 0.0012499979166666665,
                "total_time": 49.80000972747803
            },
            {
                "note": 73,
                "velocity": 0,
                "time": 0.2987495020833333,
                "total_time": 50.098745584487915
            },
            {
                "note": 73,
                "velocity": 80,
                "time": 0.0012499979166666665,
                "total_time": 50.09997630119324
            },
            {
                "note": 77,
                "velocity": 0,
                "time": 0.2987495020833333,
                "total_time": 50.398972272872925
            },
            {
                "note": 82,
                "velocity": 0,
                "time": 0,
                "total_time": 50.39925575256348
            },
            {
                "note": 85,
                "velocity": 0,
                "time": 0,
                "total_time": 50.39936566352844
            },
            {
                "note": 73,
                "velocity": 0,
                "time": 0,
                "total_time": 50.399434328079224
            },
            {
                "note": 73,
                "velocity": 80,
                "time": 0.0012499979166666665,
                "total_time": 50.400020122528076
            },
            {
                "note": 77,
                "velocity": 80,
                "time": 0,
                "total_time": 50.40017890930176
            },
            {
                "note": 82,
                "velocity": 80,
                "time": 0,
                "total_time": 50.40025520324707
            },
            {
                "note": 70,
                "velocity": 96,
                "time": 0,
                "total_time": 50.400317668914795
            },
            {
                "note": 70,
                "velocity": 0,
                "time": 0.19624967291666665,
                "total_time": 50.59877133369446
            },
            {
                "note": 70,
                "velocity": 80,
                "time": 0.10124983124999999,
                "total_time": 50.70007872581482
            },
            {
                "note": 70,
                "velocity": 0,
                "time": 0.2987495020833333,
                "total_time": 50.998786211013794
            },
            {
                "note": 70,
                "velocity": 80,
                "time": 0.0012499979166666665,
                "total_time": 51.00000309944153
            },
            {
                "note": 70,
                "velocity": 0,
                "time": 0.2987495020833333,
                "total_time": 51.2988657951355
            },
            {
                "note": 70,
                "velocity": 80,
                "time": 0.0012499979166666665,
                "total_time": 51.30003118515015
            },
            {
                "note": 39,
                "velocity": 0,
                "time": 0.016249972916666664,
                "total_time": 51.31627416610718
            },
            {
                "note": 51,
                "velocity": 0,
                "time": 0,
                "total_time": 51.31648278236389
            },
            {
                "note": 73,
                "velocity": 0,
                "time": 0.28249952916666665,
                "total_time": 51.59879231452942
            },
            {
                "note": 77,
                "velocity": 0,
                "time": 0,
                "total_time": 51.59893751144409
            },
            {
                "note": 82,
                "velocity": 0,
                "time": 0,
                "total_time": 51.59897446632385
            },
            {
                "note": 70,
                "velocity": 0,
                "time": 0,
                "total_time": 51.599000453948975
            },
            {
                "note": 75,
                "velocity": 80,
                "time": 0.0012499979166666665,
                "total_time": 51.59998297691345
            },
            {
                "note": 78,
                "velocity": 80,
                "time": 0,
                "total_time": 51.60004115104675
            },
            {
                "note": 82,
                "velocity": 80,
                "time": 0,
                "total_time": 51.60006809234619
            },
            {
                "note": 70,
                "velocity": 80,
                "time": 0,
                "total_time": 51.600090980529785
            },
            {
                "note": 39,
                "velocity": 80,
                "time": 0.599999,
                "total_time": 52.19999122619629
            },
            {
                "note": 39,
                "velocity": 0,
                "time": 0.13999976666666664,
                "total_time": 52.3400559425354
            },
            {
                "note": 39,
                "velocity": 80,
                "time": 0.009999983333333332,
                "total_time": 52.350072622299194
            },
            {
                "note": 39,
                "velocity": 0,
                "time": 0.13999976666666664,
                "total_time": 52.49008798599243
            },
            {
                "note": 39,
                "velocity": 80,
                "time": 0.009999983333333332,
                "total_time": 52.50010585784912
            },
            {
                "note": 39,
                "velocity": 0,
                "time": 0.13999976666666664,
                "total_time": 52.640005111694336
            },
            {
                "note": 39,
                "velocity": 80,
                "time": 0.009999983333333332,
                "total_time": 52.65000319480896
            },
            {
                "note": 75,
                "velocity": 0,
                "time": 0.08874985208333332,
                "total_time": 52.73874306678772
            },
            {
                "note": 78,
                "velocity": 0,
                "time": 0,
                "total_time": 52.73884987831116
            },
            {
                "note": 82,
                "velocity": 0,
                "time": 0,
                "total_time": 52.738879442214966
            },
            {
                "note": 70,
                "velocity": 0,
                "time": 0,
                "total_time": 52.738900661468506
            },
            {
                "note": 39,
                "velocity": 0,
                "time": 0.05124991458333333,
                "total_time": 52.79007291793823
            },
            {
                "note": 75,
                "velocity": 80,
                "time": 0.009999983333333332,
                "total_time": 52.800039291381836
            },
            {
                "note": 77,
                "velocity": 80,
                "time": 0,
                "total_time": 52.80036687850952
            },
            {
                "note": 82,
                "velocity": 80,
                "time": 0,
                "total_time": 52.8004994392395
            },
            {
                "note": 70,
                "velocity": 96,
                "time": 0,
                "total_time": 52.80060052871704
            },
            {
                "note": 51,
                "velocity": 96,
                "time": 0,
                "total_time": 52.80073380470276
            },
            {
                "note": 39,
                "velocity": 96,
                "time": 0,
                "total_time": 52.80087876319885
            },
            {
                "note": 70,
                "velocity": 0,
                "time": 0.19624967291666665,
                "total_time": 52.99874448776245
            },
            {
                "note": 70,
                "velocity": 80,
                "time": 0.10124983124999999,
                "total_time": 53.09999203681946
            },
            {
                "note": 70,
                "velocity": 0,
                "time": 0.2987495020833333,
                "total_time": 53.39886450767517
            },
            {
                "note": 70,
                "velocity": 80,
                "time": 0.0012499979166666665,
                "total_time": 53.399986743927
            },
            {
                "note": 51,
                "velocity": 0,
                "time": 0.20249966249999998,
                "total_time": 53.602551221847534
            },
            {
                "note": 70,
                "velocity": 0,
                "time": 0.09624983958333332,
                "total_time": 53.69886326789856
            },
            {
                "note": 70,
                "velocity": 80,
                "time": 0.0012499979166666665,
                "total_time": 53.70000600814819
            },
            {
                "note": 75,
                "velocity": 0,
                "time": 0.2987495020833333,
                "total_time": 53.998743534088135
            },
            {
                "note": 77,
                "velocity": 0,
                "time": 0,
                "total_time": 53.99884629249573
            },
            {
                "note": 82,
                "velocity": 0,
                "time": 0,
                "total_time": 53.998876094818115
            },
            {
                "note": 70,
                "velocity": 0,
                "time": 0,
                "total_time": 53.998899698257446
            },
            {
                "note": 75,
                "velocity": 80,
                "time": 0.0012499979166666665,
                "total_time": 54.00004839897156
            },
            {
                "note": 77,
                "velocity": 80,
                "time": 0,
                "total_time": 54.00011110305786
            },
            {
                "note": 80,
                "velocity": 80,
                "time": 0,
                "total_time": 54.00013709068298
            },
            {
                "note": 68,
                "velocity": 96,
                "time": 0,
                "total_time": 54.0001585483551
            },
            {
                "note": 49,
                "velocity": 80,
                "time": 0,
                "total_time": 54.00019073486328
            },
            {
                "note": 68,
                "velocity": 0,
                "time": 0.19874966874999997,
                "total_time": 54.198779582977295
            },
            {
                "note": 68,
                "velocity": 80,
                "time": 0.10124983124999999,
                "total_time": 54.300052642822266
            },
            {
                "note": 68,
                "velocity": 0,
                "time": 0.2987495020833333,
                "total_time": 54.59874367713928
            },
            {
                "note": 68,
                "velocity": 80,
                "time": 0.0012499979166666665,
                "total_time": 54.5999813079834
            },
            {
                "note": 68,
                "velocity": 0,
                "time": 0.2987495020833333,
                "total_time": 54.89884352684021
            },
            {
                "note": 68,
                "velocity": 80,
                "time": 0.0012499979166666665,
                "total_time": 54.90001821517944
            },
            {
                "note": 49,
                "velocity": 0,
                "time": 0.2387496020833333,
                "total_time": 55.138871908187866
            },
            {
                "note": 75,
                "velocity": 0,
                "time": 0.059999899999999995,
                "total_time": 55.19877314567566
            },
            {
                "note": 77,
                "velocity": 0,
                "time": 0,
                "total_time": 55.199047565460205
            },
            {
                "note": 80,
                "velocity": 0,
                "time": 0,
                "total_time": 55.19915461540222
            },
            {
                "note": 68,
                "velocity": 0,
                "time": 0,
                "total_time": 55.19923281669617
            },
            {
                "note": 70,
                "velocity": 80,
                "time": 0.0012499979166666665,
                "total_time": 55.19999408721924
            },
            {
                "note": 75,
                "velocity": 80,
                "time": 0,
                "total_time": 55.200079917907715
            },
            {
                "note": 78,
                "velocity": 80,
                "time": 0,
                "total_time": 55.20014715194702
            },
            {
                "note": 66,
                "velocity": 96,
                "time": 0,
                "total_time": 55.200417280197144
            },
            {
                "note": 46,
                "velocity": 80,
                "time": 0,
                "total_time": 55.20066237449646
            },
            {
                "note": 66,
                "velocity": 0,
                "time": 0.19624967291666665,
                "total_time": 55.398783683776855
            },
            {
                "note": 66,
                "velocity": 80,
                "time": 0.10124983124999999,
                "total_time": 55.49999117851257
            },
            {
                "note": 66,
                "velocity": 0,
                "time": 0.2987495020833333,
                "total_time": 55.7987744808197
            },
            {
                "note": 66,
                "velocity": 80,
                "time": 0.0012499979166666665,
                "total_time": 55.79999876022339
            },
            {
                "note": 66,
                "velocity": 0,
                "time": 0.2987495020833333,
                "total_time": 56.09873986244202
            },
            {
                "note": 66,
                "velocity": 80,
                "time": 0.0012499979166666665,
                "total_time": 56.099971771240234
            },
            {
                "note": 39,
                "velocity": 0,
                "time": 0.016249972916666664,
                "total_time": 56.11627912521362
            },
            {
                "note": 46,
                "velocity": 0,
                "time": 0.22249962916666663,
                "total_time": 56.33873701095581
            },
            {
                "note": 70,
                "velocity": 0,
                "time": 0.059999899999999995,
                "total_time": 56.398743867874146
            },
            {
                "note": 75,
                "velocity": 0,
                "time": 0,
                "total_time": 56.39886832237244
            },
            {
                "note": 78,
                "velocity": 0,
                "time": 0,
                "total_time": 56.39890670776367
            },
            {
                "note": 66,
                "velocity": 0,
                "time": 0,
                "total_time": 56.398932456970215
            },
            {
                "note": 70,
                "velocity": 80,
                "time": 0.0012499979166666665,
                "total_time": 56.39998722076416
            },
            {
                "note": 75,
                "velocity": 80,
                "time": 0,
                "total_time": 56.40009164810181
            },
            {
                "note": 78,
                "velocity": 80,
                "time": 0,
                "total_time": 56.400129079818726
            },
            {
                "note": 66,
                "velocity": 80,
                "time": 0,
                "total_time": 56.40015721321106
            },
            {
                "note": 42,
                "velocity": 80,
                "time": 0,
                "total_time": 56.400187492370605
            },
            {
                "note": 39,
                "velocity": 80,
                "time": 0.599999,
                "total_time": 56.99998426437378
            },
            {
                "note": 39,
                "velocity": 0,
                "time": 0.13999976666666664,
                "total_time": 57.14000463485718
            },
            {
                "note": 39,
                "velocity": 80,
                "time": 0.009999983333333332,
                "total_time": 57.150025606155396
            },
            {
                "note": 39,
                "velocity": 0,
                "time": 0.13999976666666664,
                "total_time": 57.29005408287048
            },
            {
                "note": 39,
                "velocity": 80,
                "time": 0.009999983333333332,
                "total_time": 57.30000567436218
            },
            {
                "note": 39,
                "velocity": 0,
                "time": 0.13999976666666664,
                "total_time": 57.43998098373413
            },
            {
                "note": 39,
                "velocity": 80,
                "time": 0.009999983333333332,
                "total_time": 57.449994802474976
            },
            {
                "note": 70,
                "velocity": 0,
                "time": 0.08874985208333332,
                "total_time": 57.53876852989197
            },
            {
                "note": 75,
                "velocity": 0,
                "time": 0,
                "total_time": 57.53886294364929
            },
            {
                "note": 78,
                "velocity": 0,
                "time": 0,
                "total_time": 57.53888940811157
            },
            {
                "note": 66,
                "velocity": 0,
                "time": 0,
                "total_time": 57.53891110420227
            },
            {
                "note": 42,
                "velocity": 0,
                "time": 0,
                "total_time": 57.53893446922302
            },
            {
                "note": 39,
                "velocity": 0,
                "time": 0.05124991458333333,
                "total_time": 57.58997941017151
            },
            {
                "note": 76,
                "velocity": 80,
                "time": 0.009999983333333332,
                "total_time": 57.59998822212219
            },
            {
                "note": 78,
                "velocity": 80,
                "time": 0,
                "total_time": 57.60009455680847
            },
            {
                "note": 82,
                "velocity": 80,
                "time": 0,
                "total_time": 57.600122928619385
            },
            {
                "note": 70,
                "velocity": 96,
                "time": 0,
                "total_time": 57.600144386291504
            },
            {
                "note": 46,
                "velocity": 96,
                "time": 0,
                "total_time": 57.60017657279968
            },
            {
                "note": 40,
                "velocity": 96,
                "time": 0,
                "total_time": 57.60019659996033
            },
            {
                "note": 70,
                "velocity": 0,
                "time": 0.19624967291666665,
                "total_time": 57.79879450798035
            },
            {
                "note": 70,
                "velocity": 80,
                "time": 0.10124983124999999,
                "total_time": 57.900086879730225
            },
            {
                "note": 70,
                "velocity": 0,
                "time": 0.2987495020833333,
                "total_time": 58.19875526428223
            },
            {
                "note": 70,
                "velocity": 80,
                "time": 0.0012499979166666665,
                "total_time": 58.199974060058594
            },
            {
                "note": 46,
                "velocity": 0,
                "time": 0.20249966249999998,
                "total_time": 58.402508020401
            },
            {
                "note": 70,
                "velocity": 0,
                "time": 0.09624983958333332,
                "total_time": 58.4987690448761
            },
            {
                "note": 70,
                "velocity": 80,
                "time": 0.0012499979166666665,
                "total_time": 58.49997353553772
            },
            {
                "note": 76,
                "velocity": 0,
                "time": 0.2987495020833333,
                "total_time": 58.79877948760986
            },
            {
                "note": 78,
                "velocity": 0,
                "time": 0,
                "total_time": 58.799055099487305
            },
            {
                "note": 82,
                "velocity": 0,
                "time": 0,
                "total_time": 58.799156188964844
            },
            {
                "note": 70,
                "velocity": 0,
                "time": 0,
                "total_time": 58.79922556877136
            },
            {
                "note": 76,
                "velocity": 80,
                "time": 0.0012499979166666665,
                "total_time": 58.800002336502075
            },
            {
                "note": 80,
                "velocity": 80,
                "time": 0,
                "total_time": 58.800153732299805
            },
            {
                "note": 83,
                "velocity": 80,
                "time": 0,
                "total_time": 58.80021834373474
            },
            {
                "note": 71,
                "velocity": 96,
                "time": 0,
                "total_time": 58.80027508735657
            },
            {
                "note": 47,
                "velocity": 80,
                "time": 0,
                "total_time": 58.800384521484375
            },
            {
                "note": 71,
                "velocity": 0,
                "time": 0.19874966874999997,
                "total_time": 58.99877977371216
            },
            {
                "note": 71,
                "velocity": 80,
                "time": 0.10124983124999999,
                "total_time": 59.100040912628174
            },
            {
                "note": 40,
                "velocity": 0,
                "time": 0.10624982291666665,
                "total_time": 59.20623278617859
            },
            {
                "note": 47,
                "velocity": 0,
                "time": 0.16249972916666663,
                "total_time": 59.368775844573975
            },
            {
                "note": 71,
                "velocity": 0,
                "time": 0.029999949999999997,
                "total_time": 59.39877009391785
            },
            {
                "note": 71,
                "velocity": 80,
                "time": 0.0012499979166666665,
                "total_time": 59.399993896484375
            },
            {
                "note": 51,
                "velocity": 80,
                "time": 0,
                "total_time": 59.40016293525696
            },
            {
                "note": 71,
                "velocity": 0,
                "time": 0.2987495020833333,
                "total_time": 59.69875383377075
            },
            {
                "note": 71,
                "velocity": 80,
                "time": 0.0012499979166666665,
                "total_time": 59.69998621940613
            },
            {
                "note": 51,
                "velocity": 0,
                "time": 0.2687495520833333,
                "total_time": 59.96875071525574
            },
            {
                "note": 76,
                "velocity": 0,
                "time": 0.029999949999999997,
                "total_time": 59.99876093864441
            },
            {
                "note": 80,
                "velocity": 0,
                "time": 0,
                "total_time": 59.99903869628906
            },
            {
                "note": 83,
                "velocity": 0,
                "time": 0,
                "total_time": 59.999109506607056
            },
            {
                "note": 71,
                "velocity": 0,
                "time": 0,
                "total_time": 59.99915099143982
            },
            {
                "note": 78,
                "velocity": 80,
                "time": 0.0012499979166666665,
                "total_time": 60.00005388259888
            },
            {
                "note": 82,
                "velocity": 80,
                "time": 0,
                "total_time": 60.00024175643921
            },
            {
                "note": 85,
                "velocity": 80,
                "time": 0,
                "total_time": 60.0003342628479
            },
            {
                "note": 73,
                "velocity": 96,
                "time": 0,
                "total_time": 60.000410318374634
            },
            {
                "note": 49,
                "velocity": 96,
                "time": 0,
                "total_time": 60.00051951408386
            },
            {
                "note": 39,
                "velocity": 96,
                "time": 0,
                "total_time": 60.000590801239014
            },
            {
                "note": 73,
                "velocity": 0,
                "time": 0.19624967291666665,
                "total_time": 60.19886326789856
            },
            {
                "note": 73,
                "velocity": 80,
                "time": 0.10124983124999999,
                "total_time": 60.30007743835449
            },
            {
                "note": 73,
                "velocity": 0,
                "time": 0.2987495020833333,
                "total_time": 60.598753929138184
            },
            {
                "note": 73,
                "velocity": 80,
                "time": 0.0012499979166666665,
                "total_time": 60.59996318817139
            },
            {
                "note": 49,
                "velocity": 0,
                "time": 0.20249966249999998,
                "total_time": 60.80250692367554
            },
            {
                "note": 73,
                "velocity": 0,
                "time": 0.09624983958333332,
                "total_time": 60.898773193359375
            },
            {
                "note": 73,
                "velocity": 80,
                "time": 0.0012499979166666665,
                "total_time": 60.9000186920166
            },
            {
                "note": 78,
                "velocity": 0,
                "time": 0.2987495020833333,
                "total_time": 61.198760986328125
            },
            {
                "note": 82,
                "velocity": 0,
                "time": 0,
                "total_time": 61.19913148880005
            },
            {
                "note": 85,
                "velocity": 0,
                "time": 0,
                "total_time": 61.19927787780762
            },
            {
                "note": 73,
                "velocity": 0,
                "time": 0,
                "total_time": 61.199382066726685
            },
            {
                "note": 82,
                "velocity": 80,
                "time": 0.0012499979166666665,
                "total_time": 61.20002889633179
            },
            {
                "note": 85,
                "velocity": 80,
                "time": 0,
                "total_time": 61.20030474662781
            },
            {
                "note": 90,
                "velocity": 80,
                "time": 0,
                "total_time": 61.200435161590576
            },
            {
                "note": 78,
                "velocity": 96,
                "time": 0,
                "total_time": 61.200533628463745
            },
            {
                "note": 42,
                "velocity": 80,
                "time": 0,
                "total_time": 61.200915813446045
            },
            {
                "note": 78,
                "velocity": 0,
                "time": 0.19874966874999997,
                "total_time": 61.39872860908508
            },
            {
                "note": 78,
                "velocity": 80,
                "time": 0.10124983124999999,
                "total_time": 61.49997568130493
            },
            {
                "note": 39,
                "velocity": 0,
                "time": 0.10624982291666665,
                "total_time": 61.60624122619629
            },
            {
                "note": 78,
                "velocity": 0,
                "time": 0.19249967916666663,
                "total_time": 61.79875135421753
            },
            {
                "note": 78,
                "velocity": 80,
                "time": 0.0012499979166666665,
                "total_time": 61.799968242645264
            },
            {
                "note": 78,
                "velocity": 0,
                "time": 0.2987495020833333,
                "total_time": 62.098721981048584
            },
            {
                "note": 78,
                "velocity": 80,
                "time": 0.0012499979166666665,
                "total_time": 62.09995484352112
            },
            {
                "note": 42,
                "velocity": 0,
                "time": 0.2387496020833333,
                "total_time": 62.3387176990509
            },
            {
                "note": 82,
                "velocity": 0,
                "time": 0.059999899999999995,
                "total_time": 62.39876866340637
            },
            {
                "note": 85,
                "velocity": 0,
                "time": 0,
                "total_time": 62.39901256561279
            },
            {
                "note": 90,
                "velocity": 0,
                "time": 0,
                "total_time": 62.39907717704773
            },
            {
                "note": 78,
                "velocity": 0,
                "time": 0,
                "total_time": 62.39912438392639
            },
            {
                "note": 80,
                "velocity": 80,
                "time": 0.0012499979166666665,
                "total_time": 62.3999719619751
            },
            {
                "note": 82,
                "velocity": 80,
                "time": 0,
                "total_time": 62.40005612373352
            },
            {
                "note": 87,
                "velocity": 80,
                "time": 0,
                "total_time": 62.40010905265808
            },
            {
                "note": 75,
                "velocity": 96,
                "time": 0,
                "total_time": 62.400152921676636
            },
            {
                "note": 32,
                "velocity": 96,
                "time": 0,
                "total_time": 62.400219678878784
            },
            {
                "note": 39,
                "velocity": 96,
                "time": 0,
                "total_time": 62.40025758743286
            },
            {
                "note": 44,
                "velocity": 96,
                "time": 0,
                "total_time": 62.40029454231262
            },
            {
                "note": 75,
                "velocity": 0,
                "time": 0.19624967291666665,
                "total_time": 62.598750829696655
            },
            {
                "note": 75,
                "velocity": 80,
                "time": 0.10124983124999999,
                "total_time": 62.69996953010559
            },
            {
                "note": 75,
                "velocity": 0,
                "time": 0.2837495270833333,
                "total_time": 62.983762979507446
            },
            {
                "note": 75,
                "velocity": 80,
                "time": 0.016249972916666664,
                "total_time": 63.000041246414185
            },
            {
                "note": 75,
                "velocity": 0,
                "time": 0.2837495270833333,
                "total_time": 63.28375005722046
            },
            {
                "note": 75,
                "velocity": 80,
                "time": 0.016249972916666664,
                "total_time": 63.2999963760376
            },
            {
                "note": 32,
                "velocity": 0,
                "time": 0.7062488229166666,
                "total_time": 64.0063955783844
            },
            {
                "note": 39,
                "velocity": 0,
                "time": 0,
                "total_time": 64.00656771659851
            },
            {
                "note": 44,
                "velocity": 0,
                "time": 0,
                "total_time": 64.0066397190094
            },
            {
                "note": 80,
                "velocity": 0,
                "time": 0.10249982916666665,
                "total_time": 64.1088638305664
            },
            {
                "note": 82,
                "velocity": 0,
                "time": 0,
                "total_time": 64.10916876792908
            },
            {
                "note": 87,
                "velocity": 0,
                "time": 0,
                "total_time": 64.10928845405579
            },
            {
                "note": 66,
                "velocity": 80,
                "time": 0.09124984791666665,
                "total_time": 64.20001912117004
            },
            {
                "note": 78,
                "velocity": 80,
                "time": 0,
                "total_time": 64.20026540756226
            },
            {
                "note": 66,
                "velocity": 0,
                "time": 0.2987495020833333,
                "total_time": 64.49872660636902
            },
            {
                "note": 78,
                "velocity": 0,
                "time": 0,
                "total_time": 64.4988420009613
            },
            {
                "note": 68,
                "velocity": 80,
                "time": 0.0012499979166666665,
                "total_time": 64.49995946884155
            },
            {
                "note": 80,
                "velocity": 80,
                "time": 0,
                "total_time": 64.50001525878906
            },
            {
                "note": 75,
                "velocity": 0,
                "time": 0.2237496270833333,
                "total_time": 64.72377347946167
            },
            {
                "note": 68,
                "velocity": 0,
                "time": 0.074999875,
                "total_time": 64.79878234863281
            },
            {
                "note": 80,
                "velocity": 0,
                "time": 0,
                "total_time": 64.79913067817688
            },
            {
                "note": 70,
                "velocity": 96,
                "time": 0.0012499979166666665,
                "total_time": 64.80000805854797
            },
            {
                "note": 75,
                "velocity": 96,
                "time": 0,
                "total_time": 64.80028247833252
            },
            {
                "note": 78,
                "velocity": 96,
                "time": 0,
                "total_time": 64.80038046836853
            },
            {
                "note": 82,
                "velocity": 96,
                "time": 0,
                "total_time": 64.80045938491821
            },
            {
                "note": 34,
                "velocity": 96,
                "time": 0,
                "total_time": 64.80053520202637
            },
            {
                "note": 46,
                "velocity": 96,
                "time": 0,
                "total_time": 64.80060863494873
            },
            {
                "note": 34,
                "velocity": 0,
                "time": 0.39749933749999994,
                "total_time": 65.20001411437988
            },
            {
                "note": 46,
                "velocity": 0,
                "time": 0,
                "total_time": 65.20029902458191
            },
            {
                "note": 37,
                "velocity": 96,
                "time": 0.19999966666666663,
                "total_time": 65.39997935295105
            },
            {
                "note": 49,
                "velocity": 96,
                "time": 0,
                "total_time": 65.40012168884277
            },
            {
                "note": 37,
                "velocity": 0,
                "time": 0.39749933749999994,
                "total_time": 65.80001711845398
            },
            {
                "note": 49,
                "velocity": 0,
                "time": 0,
                "total_time": 65.80029439926147
            },
            {
                "note": 32,
                "velocity": 96,
                "time": 0.19999966666666663,
                "total_time": 65.99996995925903
            },
            {
                "note": 44,
                "velocity": 96,
                "time": 0,
                "total_time": 66.00008273124695
            },
            {
                "note": 32,
                "velocity": 0,
                "time": 0.39749933749999994,
                "total_time": 66.4000301361084
            },
            {
                "note": 44,
                "velocity": 0,
                "time": 0,
                "total_time": 66.40030002593994
            },
            {
                "note": 70,
                "velocity": 0,
                "time": 0.006249989583333332,
                "total_time": 66.40625166893005
            },
            {
                "note": 75,
                "velocity": 0,
                "time": 0,
                "total_time": 66.40645098686218
            },
            {
                "note": 78,
                "velocity": 0,
                "time": 0,
                "total_time": 66.40652585029602
            },
            {
                "note": 82,
                "velocity": 0,
                "time": 0,
                "total_time": 66.4065887928009
            },
            {
                "note": 34,
                "velocity": 96,
                "time": 0.1937496770833333,
                "total_time": 66.60004830360413
            },
            {
                "note": 46,
                "velocity": 96,
                "time": 0,
                "total_time": 66.60031270980835
            },
            {
                "note": 34,
                "velocity": 0,
                "time": 0.39749933749999994,
                "total_time": 67.00009751319885
            },
            {
                "note": 46,
                "velocity": 0,
                "time": 0,
                "total_time": 67.00036096572876
            },
            {
                "note": 80,
                "velocity": 80,
                "time": 0.19999966666666663,
                "total_time": 67.19997119903564
            },
            {
                "note": 83,
                "velocity": 80,
                "time": 0,
                "total_time": 67.20007419586182
            },
            {
                "note": 87,
                "velocity": 80,
                "time": 0,
                "total_time": 67.20014595985413
            },
            {
                "note": 75,
                "velocity": 96,
                "time": 0,
                "total_time": 67.20018410682678
            },
            {
                "note": 35,
                "velocity": 96,
                "time": 0,
                "total_time": 67.20020532608032
            },
            {
                "note": 39,
                "velocity": 96,
                "time": 0,
                "total_time": 67.20021605491638
            },
            {
                "note": 47,
                "velocity": 96,
                "time": 0,
                "total_time": 67.20022678375244
            },
            {
                "note": 75,
                "velocity": 0,
                "time": 0.19624967291666665,
                "total_time": 67.39871668815613
            },
            {
                "note": 75,
                "velocity": 80,
                "time": 0.10124983124999999,
                "total_time": 67.49999737739563
            },
            {
                "note": 75,
                "velocity": 0,
                "time": 0.2987495020833333,
                "total_time": 67.79877734184265
            },
            {
                "note": 75,
                "velocity": 80,
                "time": 0.0012499979166666665,
                "total_time": 67.80000734329224
            },
            {
                "note": 35,
                "velocity": 0,
                "time": 0.20249966249999998,
                "total_time": 68.00250792503357
            },
            {
                "note": 39,
                "velocity": 0,
                "time": 0,
                "total_time": 68.00265264511108
            },
            {
                "note": 47,
                "velocity": 0,
                "time": 0,
                "total_time": 68.00268006324768
            },
            {
                "note": 75,
                "velocity": 0,
                "time": 0.09624983958333332,
                "total_time": 68.09872937202454
            },
            {
                "note": 75,
                "velocity": 80,
                "time": 0.0012499979166666665,
                "total_time": 68.09996676445007
            },
            {
                "note": 80,
                "velocity": 0,
                "time": 0.2987495020833333,
                "total_time": 68.39876985549927
            },
            {
                "note": 83,
                "velocity": 0,
                "time": 0,
                "total_time": 68.39913725852966
            },
            {
                "note": 87,
                "velocity": 0,
                "time": 0,
                "total_time": 68.39923763275146
            },
            {
                "note": 75,
                "velocity": 0,
                "time": 0,
                "total_time": 68.39931726455688
            },
            {
                "note": 77,
                "velocity": 80,
                "time": 0.0012499979166666665,
                "total_time": 68.40005278587341
            },
            {
                "note": 82,
                "velocity": 80,
                "time": 0,
                "total_time": 68.40027403831482
            },
            {
                "note": 85,
                "velocity": 80,
                "time": 0,
                "total_time": 68.40036702156067
            },
            {
                "note": 73,
                "velocity": 96,
                "time": 0,
                "total_time": 68.40043830871582
            },
            {
                "note": 37,
                "velocity": 80,
                "time": 0,
                "total_time": 68.40054726600647
            },
            {
                "note": 39,
                "velocity": 80,
                "time": 0,
                "total_time": 68.40064787864685
            },
            {
                "note": 49,
                "velocity": 80,
                "time": 0,
                "total_time": 68.40071821212769
            },
            {
                "note": 73,
                "velocity": 0,
                "time": 0.19624967291666665,
                "total_time": 68.59876537322998
            },
            {
                "note": 73,
                "velocity": 80,
                "time": 0.10124983124999999,
                "total_time": 68.69996476173401
            },
            {
                "note": 73,
                "velocity": 0,
                "time": 0.2987495020833333,
                "total_time": 68.99873685836792
            },
            {
                "note": 73,
                "velocity": 80,
                "time": 0.0012499979166666665,
                "total_time": 68.99997878074646
            },
            {
                "note": 73,
                "velocity": 0,
                "time": 0.2987495020833333,
                "total_time": 69.29875993728638
            },
            {
                "note": 73,
                "velocity": 80,
                "time": 0.0012499979166666665,
                "total_time": 69.29997634887695
            },
            {
                "note": 37,
                "velocity": 0,
                "time": 0.2387496020833333,
                "total_time": 69.53871703147888
            },
            {
                "note": 39,
                "velocity": 0,
                "time": 0,
                "total_time": 69.53884863853455
            },
            {
                "note": 49,
                "velocity": 0,
                "time": 0,
                "total_time": 69.53888201713562
            },
            {
                "note": 77,
                "velocity": 0,
                "time": 0.059999899999999995,
                "total_time": 69.59876489639282
            },
            {
                "note": 82,
                "velocity": 0,
                "time": 0,
                "total_time": 69.59897923469543
            },
            {
                "note": 85,
                "velocity": 0,
                "time": 0,
                "total_time": 69.59906125068665
            },
            {
                "note": 73,
                "velocity": 0,
                "time": 0,
                "total_time": 69.59913063049316
            },
            {
                "note": 75,
                "velocity": 80,
                "time": 0.0012499979166666665,
                "total_time": 69.59996509552002
            },
            {
                "note": 77,
                "velocity": 80,
                "time": 0,
                "total_time": 69.60005831718445
            },
            {
                "note": 82,
                "velocity": 80,
                "time": 0,
                "total_time": 69.60012793540955
            },
            {
                "note": 70,
                "velocity": 96,
                "time": 0,
                "total_time": 69.60019612312317
            },
            {
                "note": 39,
                "velocity": 96,
                "time": 0,
                "total_time": 69.6003007888794
            },
            {
                "note": 51,
                "velocity": 96,
                "time": 0,
                "total_time": 69.6003692150116
            },
            {
                "note": 46,
                "velocity": 80,
                "time": 0,
                "total_time": 69.6004364490509
            },
            {
                "note": 70,
                "velocity": 0,
                "time": 0.19624967291666665,
                "total_time": 69.79871439933777
            },
            {
                "note": 70,
                "velocity": 80,
                "time": 0.10124983124999999,
                "total_time": 69.89996600151062
            },
            {
                "note": 70,
                "velocity": 0,
                "time": 0.2987495020833333,
                "total_time": 70.19872260093689
            },
            {
                "note": 70,
                "velocity": 80,
                "time": 0.0012499979166666665,
                "total_time": 70.19995784759521
            },
            {
                "note": 70,
                "velocity": 0,
                "time": 0.2987495020833333,
                "total_time": 70.4987678527832
            },
            {
                "note": 70,
                "velocity": 80,
                "time": 0.0012499979166666665,
                "total_time": 70.49999380111694
            },
            {
                "note": 78,
                "velocity": 80,
                "time": 0.2999995,
                "total_time": 70.80006814002991
            },
            {
                "note": 39,
                "velocity": 0,
                "time": 0.4062493229166666,
                "total_time": 71.20623660087585
            },
            {
                "note": 51,
                "velocity": 0,
                "time": 0,
                "total_time": 71.2063090801239
            },
            {
                "note": 46,
                "velocity": 0,
                "time": 0.10249982916666665,
                "total_time": 71.3087751865387
            },
            {
                "note": 46,
                "velocity": 80,
                "time": 0.09124984791666665,
                "total_time": 71.39998364448547
            },
            {
                "note": 58,
                "velocity": 80,
                "time": 0,
                "total_time": 71.40017342567444
            },
            {
                "note": 70,
                "velocity": 0,
                "time": 0.5387491020833333,
                "total_time": 71.93884325027466
            },
            {
                "note": 78,
                "velocity": 0,
                "time": 0,
                "total_time": 71.93893218040466
            },
            {
                "note": 46,
                "velocity": 0,
                "time": 0.029999949999999997,
                "total_time": 71.96871018409729
            },
            {
                "note": 58,
                "velocity": 0,
                "time": 0,
                "total_time": 71.96882629394531
            },
            {
                "note": 75,
                "velocity": 0,
                "time": 0.029999949999999997,
                "total_time": 71.9987530708313
            },
            {
                "note": 77,
                "velocity": 0,
                "time": 0,
                "total_time": 71.99899864196777
            },
            {
                "note": 82,
                "velocity": 0,
                "time": 0,
                "total_time": 71.99909591674805
            },
            {
                "note": 82,
                "velocity": 96,
                "time": 0.0012499979166666665,
                "total_time": 72.00007271766663
            },
            {
                "note": 70,
                "velocity": 80,
                "time": 0,
                "total_time": 72.00038409233093
            },
            {
                "note": 73,
                "velocity": 80,
                "time": 0,
                "total_time": 72.00052523612976
            },
            {
                "note": 77,
                "velocity": 80,
                "time": 0,
                "total_time": 72.00060534477234
            },
            {
                "note": 46,
                "velocity": 80,
                "time": 0,
                "total_time": 72.00068259239197
            },
            {
                "note": 37,
                "velocity": 96,
                "time": 0,
                "total_time": 72.0007541179657
            },
            {
                "note": 49,
                "velocity": 96,
                "time": 0,
                "total_time": 72.00090146064758
            },
            {
                "note": 82,
                "velocity": 0,
                "time": 0.19624967291666665,
                "total_time": 72.19874739646912
            },
            {
                "note": 82,
                "velocity": 80,
                "time": 0.10124983124999999,
                "total_time": 72.3000123500824
            },
            {
                "note": 82,
                "velocity": 0,
                "time": 0.2987495020833333,
                "total_time": 72.59876370429993
            },
            {
                "note": 82,
                "velocity": 80,
                "time": 0.0012499979166666665,
                "total_time": 72.59994292259216
            },
            {
                "note": 82,
                "velocity": 0,
                "time": 0.2987495020833333,
                "total_time": 72.89875602722168
            },
            {
                "note": 82,
                "velocity": 80,
                "time": 0.0012499979166666665,
                "total_time": 72.89997148513794
            },
            {
                "note": 46,
                "velocity": 0,
                "time": 0.2387496020833333,
                "total_time": 73.13874554634094
            },
            {
                "note": 70,
                "velocity": 0,
                "time": 0.059999899999999995,
                "total_time": 73.1987087726593
            },
            {
                "note": 73,
                "velocity": 0,
                "time": 0,
                "total_time": 73.19880962371826
            },
            {
                "note": 77,
                "velocity": 0,
                "time": 0,
                "total_time": 73.19883990287781
            },
            {
                "note": 82,
                "velocity": 0,
                "time": 0,
                "total_time": 73.19886350631714
            },
            {
                "note": 80,
                "velocity": 96,
                "time": 0.0012499979166666665,
                "total_time": 73.1999409198761
            },
            {
                "note": 68,
                "velocity": 80,
                "time": 0,
                "total_time": 73.1999831199646
            },
            {
                "note": 72,
                "velocity": 80,
                "time": 0,
                "total_time": 73.2000195980072
            },
            {
                "note": 75,
                "velocity": 80,
                "time": 0,
                "total_time": 73.20003938674927
            },
            {
                "note": 32,
                "velocity": 80,
                "time": 0,
                "total_time": 73.20006012916565
            },
            {
                "note": 44,
                "velocity": 80,
                "time": 0,
                "total_time": 73.20007872581482
            },
            {
                "note": 80,
                "velocity": 0,
                "time": 0.19624967291666665,
                "total_time": 73.39878511428833
            },
            {
                "note": 80,
                "velocity": 80,
                "time": 0.10124983124999999,
                "total_time": 73.50013899803162
            },
            {
                "note": 37,
                "velocity": 0,
                "time": 0.10624982291666665,
                "total_time": 73.60621929168701
            },
            {
                "note": 49,
                "velocity": 0,
                "time": 0,
                "total_time": 73.60636067390442
            },
            {
                "note": 80,
                "velocity": 0,
                "time": 0.19249967916666663,
                "total_time": 73.7987687587738
            },
            {
                "note": 80,
                "velocity": 80,
                "time": 0.0012499979166666665,
                "total_time": 73.79995489120483
            },
            {
                "note": 80,
                "velocity": 0,
                "time": 0.2987495020833333,
                "total_time": 74.0987000465393
            },
            {
                "note": 80,
                "velocity": 80,
                "time": 0.0012499979166666665,
                "total_time": 74.09993934631348
            },
            {
                "note": 32,
                "velocity": 0,
                "time": 0.2387496020833333,
                "total_time": 74.33885645866394
            },
            {
                "note": 44,
                "velocity": 0,
                "time": 0,
                "total_time": 74.33908367156982
            },
            {
                "note": 68,
                "velocity": 0,
                "time": 0.059999899999999995,
                "total_time": 74.39875626564026
            },
            {
                "note": 72,
                "velocity": 0,
                "time": 0,
                "total_time": 74.39918279647827
            },
            {
                "note": 75,
                "velocity": 0,
                "time": 0,
                "total_time": 74.39933443069458
            },
            {
                "note": 80,
                "velocity": 0,
                "time": 0,
                "total_time": 74.39943981170654
            },
            {
                "note": 75,
                "velocity": 96,
                "time": 0.0012499979166666665,
                "total_time": 74.4000518321991
            },
            {
                "note": 63,
                "velocity": 80,
                "time": 0,
                "total_time": 74.40049695968628
            },
            {
                "note": 68,
                "velocity": 80,
                "time": 0,
                "total_time": 74.40068578720093
            },
            {
                "note": 72,
                "velocity": 80,
                "time": 0,
                "total_time": 74.40079116821289
            },
            {
                "note": 36,
                "velocity": 96,
                "time": 0,
                "total_time": 74.4009382724762
            },
            {
                "note": 39,
                "velocity": 96,
                "time": 0,
                "total_time": 74.4010648727417
            },
            {
                "note": 48,
                "velocity": 96,
                "time": 0,
                "total_time": 74.40114760398865
            },
            {
                "note": 75,
                "velocity": 0,
                "time": 0.19624967291666665,
                "total_time": 74.5987560749054
            },
            {
                "note": 75,
                "velocity": 80,
                "time": 0.10124983124999999,
                "total_time": 74.7000024318695
            },
            {
                "note": 75,
                "velocity": 0,
                "time": 0.2837495270833333,
                "total_time": 74.98370575904846
            },
            {
                "note": 75,
                "velocity": 80,
                "time": 0.016249972916666664,
                "total_time": 74.99995613098145
            },
            {
                "note": 75,
                "velocity": 0,
                "time": 0.2837495270833333,
                "total_time": 75.28375697135925
            },
            {
                "note": 75,
                "velocity": 80,
                "time": 0.016249972916666664,
                "total_time": 75.29997563362122
            },
            {
                "note": 36,
                "velocity": 0,
                "time": 0.7062488229166666,
                "total_time": 76.0062472820282
            },
            {
                "note": 39,
                "velocity": 0,
                "time": 0,
                "total_time": 76.00647068023682
            },
            {
                "note": 48,
                "velocity": 0,
                "time": 0,
                "total_time": 76.00654745101929
            },
            {
                "note": 63,
                "velocity": 0,
                "time": 0.6724988791666666,
                "total_time": 76.67872977256775
            },
            {
                "note": 68,
                "velocity": 0,
                "time": 0,
                "total_time": 76.67899560928345
            },
            {
                "note": 72,
                "velocity": 0,
                "time": 0,
                "total_time": 76.67909240722656
            },
            {
                "note": 75,
                "velocity": 0,
                "time": 0.044999924999999996,
                "total_time": 76.7237606048584
            },
            {
                "note": 75,
                "velocity": 96,
                "time": 0.07624987291666666,
                "total_time": 76.80000948905945
            },
            {
                "note": 63,
                "velocity": 80,
                "time": 0,
                "total_time": 76.80038118362427
            },
            {
                "note": 66,
                "velocity": 80,
                "time": 0,
                "total_time": 76.80049228668213
            },
            {
                "note": 71,
                "velocity": 80,
                "time": 0,
                "total_time": 76.80054783821106
            },
            {
                "note": 35,
                "velocity": 96,
                "time": 0,
                "total_time": 76.80059790611267
            },
            {
                "note": 39,
                "velocity": 96,
                "time": 0,
                "total_time": 76.80068182945251
            },
            {
                "note": 47,
                "velocity": 96,
                "time": 0,
                "total_time": 76.80073189735413
            },
            {
                "note": 75,
                "velocity": 0,
                "time": 0.19624967291666665,
                "total_time": 76.99910926818848
            },
            {
                "note": 75,
                "velocity": 80,
                "time": 0.10124983124999999,
                "total_time": 77.0999538898468
            },
            {
                "note": 75,
                "velocity": 0,
                "time": 0.2987495020833333,
                "total_time": 77.39879441261292
            },
            {
                "note": 75,
                "velocity": 80,
                "time": 0.0012499979166666665,
                "total_time": 77.39999723434448
            },
            {
                "note": 35,
                "velocity": 0,
                "time": 0.20249966249999998,
                "total_time": 77.60250902175903
            },
            {
                "note": 39,
                "velocity": 0,
                "time": 0,
                "total_time": 77.6031403541565
            },
            {
                "note": 47,
                "velocity": 0,
                "time": 0,
                "total_time": 77.60327291488647
            },
            {
                "note": 75,
                "velocity": 0,
                "time": 0.09624983958333332,
                "total_time": 77.69976305961609
            },
            {
                "note": 75,
                "velocity": 80,
                "time": 0.0012499979166666665,
                "total_time": 77.70009231567383
            },
            {
                "note": 63,
                "velocity": 0,
                "time": 0.2987495020833333,
                "total_time": 77.9987440109253
            },
            {
                "note": 66,
                "velocity": 0,
                "time": 0,
                "total_time": 77.99897766113281
            },
            {
                "note": 71,
                "velocity": 0,
                "time": 0,
                "total_time": 77.99902772903442
            },
            {
                "note": 75,
                "velocity": 0,
                "time": 0,
                "total_time": 77.9990553855896
            },
            {
                "note": 77,
                "velocity": 96,
                "time": 0.0012499979166666665,
                "total_time": 77.9999372959137
            },
            {
                "note": 65,
                "velocity": 80,
                "time": 0,
                "total_time": 78.00000023841858
            },
            {
                "note": 68,
                "velocity": 80,
                "time": 0,
                "total_time": 78.00003433227539
            },
            {
                "note": 73,
                "velocity": 80,
                "time": 0,
                "total_time": 78.00005531311035
            },
            {
                "note": 37,
                "velocity": 80,
                "time": 0,
                "total_time": 78.00007510185242
            },
            {
                "note": 41,
                "velocity": 80,
                "time": 0,
                "total_time": 78.00009560585022
            },
            {
                "note": 49,
                "velocity": 80,
                "time": 0,
                "total_time": 78.00011491775513
            },
            {
                "note": 77,
                "velocity": 0,
                "time": 0.19624967291666665,
                "total_time": 78.19875121116638
            },
            {
                "note": 77,
                "velocity": 80,
                "time": 0.10124983124999999,
                "total_time": 78.30001163482666
            },
            {
                "note": 77,
                "velocity": 0,
                "time": 0.2987495020833333,
                "total_time": 78.59873700141907
            },
            {
                "note": 77,
                "velocity": 80,
                "time": 0.0012499979166666665,
                "total_time": 78.59997582435608
            },
            {
                "note": 77,
                "velocity": 0,
                "time": 0.2987495020833333,
                "total_time": 78.89873814582825
            },
            {
                "note": 77,
                "velocity": 80,
                "time": 0.0012499979166666665,
                "total_time": 78.89994072914124
            },
            {
                "note": 37,
                "velocity": 0,
                "time": 0.2387496020833333,
                "total_time": 79.13888192176819
            },
            {
                "note": 41,
                "velocity": 0,
                "time": 0,
                "total_time": 79.13913321495056
            },
            {
                "note": 49,
                "velocity": 0,
                "time": 0,
                "total_time": 79.13924837112427
            },
            {
                "note": 65,
                "velocity": 0,
                "time": 0.059999899999999995,
                "total_time": 79.19875073432922
            },
            {
                "note": 68,
                "velocity": 0,
                "time": 0,
                "total_time": 79.19901895523071
            },
            {
                "note": 73,
                "velocity": 0,
                "time": 0,
                "total_time": 79.19912791252136
            },
            {
                "note": 77,
                "velocity": 0,
                "time": 0,
                "total_time": 79.19921612739563
            },
            {
                "note": 78,
                "velocity": 96,
                "time": 0.0012499979166666665,
                "total_time": 79.19994497299194
            },
            {
                "note": 66,
                "velocity": 80,
                "time": 0,
                "total_time": 79.20005297660828
            },
            {
                "note": 70,
                "velocity": 80,
                "time": 0,
                "total_time": 79.20014095306396
            },
            {
                "note": 75,
                "velocity": 80,
                "time": 0,
                "total_time": 79.2001953125
            },
            {
                "note": 39,
                "velocity": 96,
                "time": 0,
                "total_time": 79.20024681091309
            },
            {
                "note": 51,
                "velocity": 96,
                "time": 0,
                "total_time": 79.20032095909119
            },
            {
                "note": 42,
                "velocity": 80,
                "time": 0,
                "total_time": 79.20037484169006
            },
            {
                "note": 78,
                "velocity": 0,
                "time": 0.19624967291666665,
                "total_time": 79.39872455596924
            },
            {
                "note": 78,
                "velocity": 80,
                "time": 0.10124983124999999,
                "total_time": 79.49999189376831
            },
            {
                "note": 78,
                "velocity": 0,
                "time": 0.2837495270833333,
                "total_time": 79.78373908996582
            },
            {
                "note": 78,
                "velocity": 80,
                "time": 0.016249972916666664,
                "total_time": 79.79998469352722
            },
            {
                "note": 78,
                "velocity": 0,
                "time": 0.2837495270833333,
                "total_time": 80.08368396759033
            },
            {
                "note": 78,
                "velocity": 80,
                "time": 0.016249972916666664,
                "total_time": 80.10001373291016
            },
            {
                "note": 66,
                "velocity": 0,
                "time": 0.2387496020833333,
                "total_time": 80.33869051933289
            },
            {
                "note": 70,
                "velocity": 0,
                "time": 0,
                "total_time": 80.33876609802246
            },
            {
                "note": 75,
                "velocity": 0,
                "time": 0,
                "total_time": 80.33878254890442
            },
            {
                "note": 42,
                "velocity": 0,
                "time": 0,
                "total_time": 80.33879494667053
            },
            {
                "note": 78,
                "velocity": 0,
                "time": 0.044999924999999996,
                "total_time": 80.38372325897217
            },
            {
                "note": 82,
                "velocity": 96,
                "time": 0.016249972916666664,
                "total_time": 80.40019512176514
            },
            {
                "note": 70,
                "velocity": 80,
                "time": 0,
                "total_time": 80.40091156959534
            },
            {
                "note": 75,
                "velocity": 80,
                "time": 0,
                "total_time": 80.40130877494812
            },
            {
                "note": 78,
                "velocity": 80,
                "time": 0,
                "total_time": 80.40154480934143
            },
            {
                "note": 46,
                "velocity": 80,
                "time": 0,
                "total_time": 80.40165090560913
            },
            {
                "note": 39,
                "velocity": 0,
                "time": 0.0037499937499999997,
                "total_time": 80.40375995635986
            },
            {
                "note": 51,
                "velocity": 0,
                "time": 0,
                "total_time": 80.40402317047119
            },
            {
                "note": 82,
                "velocity": 0,
                "time": 0.19499967499999998,
                "total_time": 80.59876227378845
            },
            {
                "note": 82,
                "velocity": 80,
                "time": 0.10124983124999999,
                "total_time": 80.69994807243347
            },
            {
                "note": 46,
                "velocity": 0,
                "time": 0.2687495520833333,
                "total_time": 80.96885275840759
            },
            {
                "note": 70,
                "velocity": 0,
                "time": 0.029999949999999997,
                "total_time": 80.99872756004333
            },
            {
                "note": 75,
                "velocity": 0,
                "time": 0,
                "total_time": 80.99906754493713
            },
            {
                "note": 78,
                "velocity": 0,
                "time": 0,
                "total_time": 80.99917316436768
            },
            {
                "note": 82,
                "velocity": 0,
                "time": 0,
                "total_time": 80.99926018714905
            },
            {
                "note": 80,
                "velocity": 96,
                "time": 0.0012499979166666665,
                "total_time": 81.00001573562622
            },
            {
                "note": 68,
                "velocity": 80,
                "time": 0,
                "total_time": 81.00026297569275
            },
            {
                "note": 73,
                "velocity": 80,
                "time": 0,
                "total_time": 81.00041103363037
            },
            {
                "note": 77,
                "velocity": 80,
                "time": 0,
                "total_time": 81.00050449371338
            },
            {
                "note": 37,
                "velocity": 80,
                "time": 0,
                "total_time": 81.0005898475647
            },
            {
                "note": 49,
                "velocity": 80,
                "time": 0,
                "total_time": 81.00066876411438
            },
            {
                "note": 44,
                "velocity": 80,
                "time": 0,
                "total_time": 81.00075006484985
            },
            {
                "note": 80,
                "velocity": 0,
                "time": 0.19624967291666665,
                "total_time": 81.19878005981445
            },
            {
                "note": 80,
                "velocity": 80,
                "time": 0.10124983124999999,
                "total_time": 81.30004715919495
            },
            {
                "note": 37,
                "velocity": 0,
                "time": 0.2687495520833333,
                "total_time": 81.56873106956482
            },
            {
                "note": 49,
                "velocity": 0,
                "time": 0,
                "total_time": 81.56894159317017
            },
            {
                "note": 44,
                "velocity": 0,
                "time": 0,
                "total_time": 81.56899952888489
            },
            {
                "note": 68,
                "velocity": 0,
                "time": 0.029999949999999997,
                "total_time": 81.59874105453491
            },
            {
                "note": 73,
                "velocity": 0,
                "time": 0,
                "total_time": 81.59912753105164
            },
            {
                "note": 77,
                "velocity": 0,
                "time": 0,
                "total_time": 81.59924721717834
            },
            {
                "note": 80,
                "velocity": 0,
                "time": 0,
                "total_time": 81.59931445121765
            },
            {
                "note": 80,
                "velocity": 96,
                "time": 0.0012499979166666665,
                "total_time": 81.599942445755
            },
            {
                "note": 68,
                "velocity": 80,
                "time": 0,
                "total_time": 81.6000645160675
            },
            {
                "note": 72,
                "velocity": 80,
                "time": 0,
                "total_time": 81.6001501083374
            },
            {
                "note": 75,
                "velocity": 80,
                "time": 0,
                "total_time": 81.60020112991333
            },
            {
                "note": 36,
                "velocity": 96,
                "time": 0,
                "total_time": 81.60025072097778
            },
            {
                "note": 44,
                "velocity": 96,
                "time": 0,
                "total_time": 81.60032892227173
            },
            {
                "note": 48,
                "velocity": 96,
                "time": 0,
                "total_time": 81.60038018226624
            },
            {
                "note": 80,
                "velocity": 0,
                "time": 0.19624967291666665,
                "total_time": 81.7987413406372
            },
            {
                "note": 80,
                "velocity": 80,
                "time": 0.10124983124999999,
                "total_time": 81.8999936580658
            },
            {
                "note": 80,
                "velocity": 0,
                "time": 0.2987495020833333,
                "total_time": 82.19874787330627
            },
            {
                "note": 80,
                "velocity": 80,
                "time": 0.0012499979166666665,
                "total_time": 82.19997763633728
            },
            {
                "note": 36,
                "velocity": 0,
                "time": 0.20249966249999998,
                "total_time": 82.4024441242218
            },
            {
                "note": 44,
                "velocity": 0,
                "time": 0,
                "total_time": 82.40254068374634
            },
            {
                "note": 48,
                "velocity": 0,
                "time": 0,
                "total_time": 82.40257263183594
            },
            {
                "note": 80,
                "velocity": 0,
                "time": 0.09624983958333332,
                "total_time": 82.4987223148346
            },
            {
                "note": 80,
                "velocity": 80,
                "time": 0.0012499979166666665,
                "total_time": 82.49992823600769
            },
            {
                "note": 68,
                "velocity": 0,
                "time": 0.2987495020833333,
                "total_time": 82.79884672164917
            },
            {
                "note": 72,
                "velocity": 0,
                "time": 0,
                "total_time": 82.79910063743591
            },
            {
                "note": 75,
                "velocity": 0,
                "time": 0,
                "total_time": 82.79921579360962
            },
            {
                "note": 80,
                "velocity": 0,
                "time": 0,
                "total_time": 82.79929399490356
            },
            {
                "note": 75,
                "velocity": 96,
                "time": 0.0012499979166666665,
                "total_time": 82.79995393753052
            },
            {
                "note": 63,
                "velocity": 80,
                "time": 0,
                "total_time": 82.8001115322113
            },
            {
                "note": 72,
                "velocity": 80,
                "time": 0,
                "total_time": 82.80020642280579
            },
            {
                "note": 32,
                "velocity": 80,
                "time": 0,
                "total_time": 82.80026650428772
            },
            {
                "note": 39,
                "velocity": 80,
                "time": 0,
                "total_time": 82.80032420158386
            },
            {
                "note": 44,
                "velocity": 80,
                "time": 0,
                "total_time": 82.80038213729858
            },
            {
                "note": 75,
                "velocity": 0,
                "time": 0.5987490020833333,
                "total_time": 83.40124106407166
            },
            {
                "note": 75,
                "velocity": 80,
                "time": 0.2987495020833333,
                "total_time": 83.70000100135803
            },
            {
                "note": 75,
                "velocity": 0,
                "time": 0.14874975208333333,
                "total_time": 83.84873652458191
            },
            {
                "note": 77,
                "velocity": 80,
                "time": 0.0012499979166666665,
                "total_time": 83.84997248649597
            },
            {
                "note": 32,
                "velocity": 0,
                "time": 0.08874985208333332,
                "total_time": 83.93873429298401
            },
            {
                "note": 39,
                "velocity": 0,
                "time": 0,
                "total_time": 83.93898153305054
            },
            {
                "note": 44,
                "velocity": 0,
                "time": 0,
                "total_time": 83.93906235694885
            },
            {
                "note": 63,
                "velocity": 0,
                "time": 0.059999899999999995,
                "total_time": 83.99869561195374
            },
            {
                "note": 72,
                "velocity": 0,
                "time": 0,
                "total_time": 83.99882340431213
            },
            {
                "note": 77,
                "velocity": 0,
                "time": 0,
                "total_time": 83.99885821342468
            },
            {
                "note": 78,
                "velocity": 96,
                "time": 0.0012499979166666665,
                "total_time": 83.9999258518219
            },
            {
                "note": 66,
                "velocity": 80,
                "time": 0,
                "total_time": 84.00001001358032
            },
            {
                "note": 71,
                "velocity": 80,
                "time": 0,
                "total_time": 84.0000479221344
            },
            {
                "note": 75,
                "velocity": 80,
                "time": 0,
                "total_time": 84.00008034706116
            },
            {
                "note": 32,
                "velocity": 96,
                "time": 0,
                "total_time": 84.00010275840759
            },
            {
                "note": 44,
                "velocity": 96,
                "time": 0,
                "total_time": 84.00013494491577
            },
            {
                "note": 78,
                "velocity": 0,
                "time": 0.048749918749999996,
                "total_time": 84.19876194000244
            },
            {
                "note": 78,
                "velocity": 84,
                "time": 0,
                "total_time": 84.30003070831299
            },
            {
                "note": 78,
                "velocity": 0,
                "time": 0.07374987708333332,
                "total_time": 84.59870290756226
            },
            {
                "note": 78,
                "velocity": 88,
                "time": 0,
                "total_time": 84.5999550819397
            },
            {
                "note": 32,
                "velocity": 0,
                "time": 0.052499912499999996,
                "total_time": 84.80249619483948
            },
            {
                "note": 44,
                "velocity": 0,
                "time": 0,
                "total_time": 84.80274319648743
            },
            {
                "note": 78,
                "velocity": 0,
                "time": 0.07374987708333332,
                "total_time": 84.89875268936157
            },
            {
                "note": 78,
                "velocity": 92,
                "time": 0,
                "total_time": 84.90001106262207
            },
            {
                "note": 66,
                "velocity": 0,
                "time": 0.07374987708333332,
                "total_time": 85.1987817287445
            },
            {
                "note": 71,
                "velocity": 0,
                "time": 0,
                "total_time": 85.19904327392578
            },
            {
                "note": 75,
                "velocity": 0,
                "time": 0,
                "total_time": 85.19914102554321
            },
            {
                "note": 78,
                "velocity": 0,
                "time": 0,
                "total_time": 85.19921135902405
            },
            {
                "note": 80,
                "velocity": 115,
                "time": 0,
                "total_time": 85.200021982193
            },
            {
                "note": 68,
                "velocity": 96,
                "time": 0,
                "total_time": 85.2001588344574
            },
            {
                "note": 73,
                "velocity": 96,
                "time": 0,
                "total_time": 85.20026683807373
            },
            {
                "note": 77,
                "velocity": 96,
                "time": 0,
                "total_time": 85.20034289360046
            },
            {
                "note": 34,
                "velocity": 96,
                "time": 0,
                "total_time": 85.20045161247253
            },
            {
                "note": 46,
                "velocity": 96,
                "time": 0,
                "total_time": 85.20054912567139
            },
            {
                "note": 80,
                "velocity": 0,
                "time": 0.02499995833333333,
                "total_time": 85.59993481636047
            },
            {
                "note": 68,
                "velocity": 0,
                "time": 0.07374987708333332,
                "total_time": 85.79874682426453
            },
            {
                "note": 73,
                "velocity": 0,
                "time": 0,
                "total_time": 85.7990231513977
            },
            {
                "note": 77,
                "velocity": 0,
                "time": 0,
                "total_time": 85.79912328720093
            },
            {
                "note": 85,
                "velocity": 124,
                "time": 0,
                "total_time": 85.80005168914795
            },
            {
                "note": 73,
                "velocity": 104,
                "time": 0,
                "total_time": 85.8001594543457
            },
            {
                "note": 77,
                "velocity": 104,
                "time": 0,
                "total_time": 85.80025291442871
            },
            {
                "note": 80,
                "velocity": 104,
                "time": 0,
                "total_time": 85.80031561851501
            },
            {
                "note": 85,
                "velocity": 0,
                "time": 0.02499995833333333,
                "total_time": 86.19996094703674
            },
            {
                "note": 34,
                "velocity": 0,
                "time": 0.013749977083333332,
                "total_time": 86.33873844146729
            },
            {
                "note": 46,
                "velocity": 0,
                "time": 0,
                "total_time": 86.33897042274475
            },
            {
                "note": 73,
                "velocity": 0,
                "time": 0.029999949999999997,
                "total_time": 86.3688383102417
            },
            {
                "note": 77,
                "velocity": 0,
                "time": 0,
                "total_time": 86.36906719207764
            },
            {
                "note": 80,
                "velocity": 0,
                "time": 0,
                "total_time": 86.36914253234863
            },
            {
                "note": 75,
                "velocity": 127,
                "time": 0,
                "total_time": 86.40021109580994
            },
            {
                "note": 78,
                "velocity": 127,
                "time": 0,
                "total_time": 86.40040254592896
            },
            {
                "note": 82,
                "velocity": 127,
                "time": 0,
                "total_time": 86.40048050880432
            },
            {
                "note": 87,
                "velocity": 127,
                "time": 0,
                "total_time": 86.40055012702942
            },
            {
                "note": 39,
                "velocity": 112,
                "time": 0,
                "total_time": 86.40065169334412
            },
            {
                "note": 42,
                "velocity": 96,
                "time": 0,
                "total_time": 86.55011034011841
            },
            {
                "note": 42,
                "velocity": 0,
                "time": 0.14874975208333333,
                "total_time": 86.69888353347778
            },
            {
                "note": 46,
                "velocity": 96,
                "time": 0.0012499979166666665,
                "total_time": 86.69995713233948
            },
            {
                "note": 46,
                "velocity": 0,
                "time": 0.14874975208333333,
                "total_time": 86.8486864566803
            },
            {
                "note": 51,
                "velocity": 96,
                "time": 0.0012499979166666665,
                "total_time": 86.8499186038971
            },
            {
                "note": 51,
                "velocity": 0,
                "time": 0.14874975208333333,
                "total_time": 86.9986879825592
            },
            {
                "note": 54,
                "velocity": 96,
                "time": 0.0012499979166666665,
                "total_time": 86.99991869926453
            },
            {
                "note": 54,
                "velocity": 0,
                "time": 0.14874975208333333,
                "total_time": 87.14891839027405
            },
            {
                "note": 58,
                "velocity": 96,
                "time": 0.0012499979166666665,
                "total_time": 87.15000605583191
            },
            {
                "note": 58,
                "velocity": 0,
                "time": 0.14874975208333333,
                "total_time": 87.29872941970825
            },
            {
                "note": 63,
                "velocity": 96,
                "time": 0.0012499979166666665,
                "total_time": 87.29994106292725
            },
            {
                "note": 63,
                "velocity": 0,
                "time": 0.14874975208333333,
                "total_time": 87.4487361907959
            },
            {
                "note": 58,
                "velocity": 96,
                "time": 0.0012499979166666665,
                "total_time": 87.4499568939209
            },
            {
                "note": 58,
                "velocity": 0,
                "time": 0.14874975208333333,
                "total_time": 87.5986909866333
            },
            {
                "note": 66,
                "velocity": 96,
                "time": 0.0012499979166666665,
                "total_time": 87.59992337226868
            },
            {
                "note": 66,
                "velocity": 0,
                "time": 0.14874975208333333,
                "total_time": 87.74867868423462
            },
            {
                "note": 58,
                "velocity": 96,
                "time": 0.0012499979166666665,
                "total_time": 87.74991989135742
            },
            {
                "note": 75,
                "velocity": 0,
                "time": 0.054999908333333326,
                "total_time": 87.80493235588074
            },
            {
                "note": 78,
                "velocity": 0,
                "time": 0,
                "total_time": 87.80505108833313
            },
            {
                "note": 82,
                "velocity": 0,
                "time": 0,
                "total_time": 87.8051266670227
            },
            {
                "note": 87,
                "velocity": 0,
                "time": 0,
                "total_time": 87.80517220497131
            },
            {
                "note": 58,
                "velocity": 0,
                "time": 0.09374984374999999,
                "total_time": 87.89872550964355
            },
            {
                "note": 63,
                "velocity": 96,
                "time": 0.0012499979166666665,
                "total_time": 87.89993286132812
            },
            {
                "note": 63,
                "velocity": 0,
                "time": 0.14874975208333333,
                "total_time": 88.04873085021973
            },
            {
                "note": 58,
                "velocity": 96,
                "time": 0.0012499979166666665,
                "total_time": 88.04994010925293
            },
            {
                "note": 58,
                "velocity": 0,
                "time": 0.14874975208333333,
                "total_time": 88.19872164726257
            },
            {
                "note": 54,
                "velocity": 96,
                "time": 0.0012499979166666665,
                "total_time": 88.19993829727173
            },
            {
                "note": 54,
                "velocity": 0,
                "time": 0.14874975208333333,
                "total_time": 88.34874534606934
            },
            {
                "note": 51,
                "velocity": 96,
                "time": 0.0012499979166666665,
                "total_time": 88.34991645812988
            },
            {
                "note": 51,
                "velocity": 0,
                "time": 0.14874975208333333,
                "total_time": 88.49868512153625
            },
            {
                "note": 78,
                "velocity": 112,
                "time": 0.0012499979166666665,
                "total_time": 88.49992156028748
            },
            {
                "note": 90,
                "velocity": 112,
                "time": 0,
                "total_time": 88.49999928474426
            },
            {
                "note": 46,
                "velocity": 96,
                "time": 0,
                "total_time": 88.50002551078796
            },
            {
                "note": 46,
                "velocity": 0,
                "time": 0.14874975208333333,
                "total_time": 88.64868688583374
            },
            {
                "note": 42,
                "velocity": 96,
                "time": 0.0012499979166666665,
                "total_time": 88.6499035358429
            },
            {
                "note": 78,
                "velocity": 0,
                "time": 0.13374977708333333,
                "total_time": 88.78371691703796
            },
            {
                "note": 90,
                "velocity": 0,
                "time": 0,
                "total_time": 88.7838351726532
            },
            {
                "note": 42,
                "velocity": 0,
                "time": 0.007499987499999999,
                "total_time": 88.791184425354
            },
            {
                "note": 39,
                "velocity": 0,
                "time": 0.007499987499999999,
                "total_time": 88.79874086380005
            },
            {
                "note": 77,
                "velocity": 127,
                "time": 0.0012499979166666665,
                "total_time": 88.79991436004639
            },
            {
                "note": 80,
                "velocity": 127,
                "time": 0,
                "total_time": 88.79996514320374
            },
            {
                "note": 85,
                "velocity": 127,
                "time": 0,
                "total_time": 88.79999113082886
            },
            {
                "note": 89,
                "velocity": 127,
                "time": 0,
                "total_time": 88.80001258850098
            },
            {
                "note": 34,
                "velocity": 112,
                "time": 0,
                "total_time": 88.8000431060791
            },
            {
                "note": 37,
                "velocity": 96,
                "time": 0,
                "total_time": 88.9500949382782
            },
            {
                "note": 37,
                "velocity": 0,
                "time": 0.14874975208333333,
                "total_time": 89.09871053695679
            },
            {
                "note": 41,
                "velocity": 96,
                "time": 0.0012499979166666665,
                "total_time": 89.09994173049927
            },
            {
                "note": 41,
                "velocity": 0,
                "time": 0.14874975208333333,
                "total_time": 89.24871754646301
            },
            {
                "note": 44,
                "velocity": 96,
                "time": 0.0012499979166666665,
                "total_time": 89.24994683265686
            },
            {
                "note": 44,
                "velocity": 0,
                "time": 0.14874975208333333,
                "total_time": 89.3987147808075
            },
            {
                "note": 49,
                "velocity": 96,
                "time": 0.0012499979166666665,
                "total_time": 89.39992833137512
            },
            {
                "note": 49,
                "velocity": 0,
                "time": 0.14874975208333333,
                "total_time": 89.5486831665039
            },
            {
                "note": 53,
                "velocity": 96,
                "time": 0.0012499979166666665,
                "total_time": 89.5499415397644
            },
            {
                "note": 53,
                "velocity": 0,
                "time": 0.14874975208333333,
                "total_time": 89.69893288612366
            },
            {
                "note": 56,
                "velocity": 96,
                "time": 0.0012499979166666665,
                "total_time": 89.70001530647278
            },
            {
                "note": 56,
                "velocity": 0,
                "time": 0.14874975208333333,
                "total_time": 89.8487298488617
            },
            {
                "note": 53,
                "velocity": 96,
                "time": 0.0012499979166666665,
                "total_time": 89.84991931915283
            },
            {
                "note": 53,
                "velocity": 0,
                "time": 0.14874975208333333,
                "total_time": 89.99884128570557
            },
            {
                "note": 61,
                "velocity": 96,
                "time": 0.0012499979166666665,
                "total_time": 89.99994969367981
            },
            {
                "note": 77,
                "velocity": 0,
                "time": 0.0037499937499999997,
                "total_time": 90.0037362575531
            },
            {
                "note": 80,
                "velocity": 0,
                "time": 0,
                "total_time": 90.00388503074646
            },
            {
                "note": 85,
                "velocity": 0,
                "time": 0,
                "total_time": 90.00394749641418
            },
            {
                "note": 89,
                "velocity": 0,
                "time": 0,
                "total_time": 90.00399661064148
            },
            {
                "note": 61,
                "velocity": 0,
                "time": 0.1449997583333333,
                "total_time": 90.14872217178345
            },
            {
                "note": 53,
                "velocity": 96,
                "time": 0.0012499979166666665,
                "total_time": 90.14993524551392
            },
            {
                "note": 53,
                "velocity": 0,
                "time": 0.14874975208333333,
                "total_time": 90.29869890213013
            },
            {
                "note": 56,
                "velocity": 96,
                "time": 0.0012499979166666665,
                "total_time": 90.29992437362671
            },
            {
                "note": 56,
                "velocity": 0,
                "time": 0.14874975208333333,
                "total_time": 90.44875073432922
            },
            {
                "note": 53,
                "velocity": 96,
                "time": 0.0012499979166666665,
                "total_time": 90.45002746582031
            },
            {
                "note": 53,
                "velocity": 0,
                "time": 0.14874975208333333,
                "total_time": 90.59871625900269
            },
            {
                "note": 70,
                "velocity": 112,
                "time": 0.0012499979166666665,
                "total_time": 90.59994697570801
            },
            {
                "note": 82,
                "velocity": 112,
                "time": 0,
                "total_time": 90.60016942024231
            },
            {
                "note": 49,
                "velocity": 96,
                "time": 0,
                "total_time": 90.60026717185974
            },
            {
                "note": 49,
                "velocity": 0,
                "time": 0.14874975208333333,
                "total_time": 90.74868321418762
            },
            {
                "note": 44,
                "velocity": 96,
                "time": 0.0012499979166666665,
                "total_time": 90.74992823600769
            },
            {
                "note": 70,
                "velocity": 0,
                "time": 0.14874975208333333,
                "total_time": 90.8987283706665
            },
            {
                "note": 82,
                "velocity": 0,
                "time": 0,
                "total_time": 90.8990228176117
            },
            {
                "note": 44,
                "velocity": 0,
                "time": 0,
                "total_time": 90.89914679527283
            },
            {
                "note": 73,
                "velocity": 112,
                "time": 0.0012499979166666665,
                "total_time": 90.8999400138855
            },
            {
                "note": 85,
                "velocity": 112,
                "time": 0,
                "total_time": 90.90011286735535
            },
            {
                "note": 41,
                "velocity": 96,
                "time": 0,
                "total_time": 90.9002034664154
            },
            {
                "note": 41,
                "velocity": 0,
                "time": 0.14874975208333333,
                "total_time": 91.04873466491699
            },
            {
                "note": 37,
                "velocity": 96,
                "time": 0.0012499979166666665,
                "total_time": 91.04992389678955
            },
            {
                "note": 73,
                "velocity": 0,
                "time": 0.13374977708333333,
                "total_time": 91.18372130393982
            },
            {
                "note": 85,
                "velocity": 0,
                "time": 0,
                "total_time": 91.18397307395935
            },
            {
                "note": 37,
                "velocity": 0,
                "time": 0.007499987499999999,
                "total_time": 91.19124555587769
            },
            {
                "note": 34,
                "velocity": 0,
                "time": 0.007499987499999999,
                "total_time": 91.19872641563416
            },
            {
                "note": 75,
                "velocity": 127,
                "time": 0.0012499979166666665,
                "total_time": 91.1999568939209
            },
            {
                "note": 79,
                "velocity": 127,
                "time": 0,
                "total_time": 91.20017790794373
            },
            {
                "note": 84,
                "velocity": 127,
                "time": 0,
                "total_time": 91.20026111602783
            },
            {
                "note": 87,
                "velocity": 127,
                "time": 0,
                "total_time": 91.20033073425293
            },
            {
                "note": 29,
                "velocity": 112,
                "time": 0,
                "total_time": 91.20042443275452
            },
            {
                "note": 36,
                "velocity": 96,
                "time": 0,
                "total_time": 91.35003209114075
            },
            {
                "note": 36,
                "velocity": 0,
                "time": 0.14874975208333333,
                "total_time": 91.49870538711548
            },
            {
                "note": 39,
                "velocity": 96,
                "time": 0.0012499979166666665,
                "total_time": 91.50008010864258
            },
            {
                "note": 39,
                "velocity": 0,
                "time": 0.14874975208333333,
                "total_time": 91.64871597290039
            },
            {
                "note": 43,
                "velocity": 96,
                "time": 0.0012499979166666665,
                "total_time": 91.64991903305054
            },
            {
                "note": 43,
                "velocity": 0,
                "time": 0.14874975208333333,
                "total_time": 91.79871654510498
            },
            {
                "note": 48,
                "velocity": 96,
                "time": 0.0012499979166666665,
                "total_time": 91.7999222278595
            },
            {
                "note": 48,
                "velocity": 0,
                "time": 0.14874975208333333,
                "total_time": 91.94875764846802
            },
            {
                "note": 51,
                "velocity": 96,
                "time": 0.0012499979166666665,
                "total_time": 91.95000982284546
            },
            {
                "note": 51,
                "velocity": 0,
                "time": 0.14874975208333333,
                "total_time": 92.0986807346344
            },
            {
                "note": 55,
                "velocity": 96,
                "time": 0.0012499979166666665,
                "total_time": 92.09991335868835
            },
            {
                "note": 55,
                "velocity": 0,
                "time": 0.14874975208333333,
                "total_time": 92.2487244606018
            },
            {
                "note": 51,
                "velocity": 96,
                "time": 0.0012499979166666665,
                "total_time": 92.24991106987
            },
            {
                "note": 75,
                "velocity": 0,
                "time": 0.052499912499999996,
                "total_time": 92.30242991447449
            },
            {
                "note": 79,
                "velocity": 0,
                "time": 0,
                "total_time": 92.30256700515747
            },
            {
                "note": 84,
                "velocity": 0,
                "time": 0,
                "total_time": 92.30261421203613
            },
            {
                "note": 87,
                "velocity": 0,
                "time": 0,
                "total_time": 92.30264592170715
            },
            {
                "note": 51,
                "velocity": 0,
                "time": 0.09624983958333332,
                "total_time": 92.3987295627594
            },
            {
                "note": 60,
                "velocity": 96,
                "time": 0,
                "total_time": 92.4000096321106
            },
            {
                "note": 60,
                "velocity": 0,
                "time": 0.14874975208333333,
                "total_time": 92.54877734184265
            },
            {
                "note": 51,
                "velocity": 96,
                "time": 0.0012499979166666665,
                "total_time": 92.54999279975891
            },
            {
                "note": 51,
                "velocity": 0,
                "time": 0.14874975208333333,
                "total_time": 92.69872975349426
            },
            {
                "note": 73,
                "velocity": 112,
                "time": 0.0012499979166666665,
                "total_time": 92.6999900341034
            },
            {
                "note": 85,
                "velocity": 112,
                "time": 0,
                "total_time": 92.70023202896118
            },
            {
                "note": 55,
                "velocity": 96,
                "time": 0,
                "total_time": 92.70032548904419
            },
            {
                "note": 55,
                "velocity": 0,
                "time": 0.14874975208333333,
                "total_time": 92.84870719909668
            },
            {
                "note": 51,
                "velocity": 96,
                "time": 0.0012499979166666665,
                "total_time": 92.84991240501404
            },
            {
                "note": 73,
                "velocity": 0,
                "time": 0.14874975208333333,
                "total_time": 92.9986789226532
            },
            {
                "note": 85,
                "velocity": 0,
                "time": 0,
                "total_time": 92.99878096580505
            },
            {
                "note": 51,
                "velocity": 0,
                "time": 0,
                "total_time": 92.99882340431213
            },
            {
                "note": 75,
                "velocity": 112,
                "time": 0.0012499979166666665,
                "total_time": 92.99991250038147
            },
            {
                "note": 87,
                "velocity": 112,
                "time": 0,
                "total_time": 92.99997901916504
            },
            {
                "note": 48,
                "velocity": 96,
                "time": 0,
                "total_time": 93.00000214576721
            },
            {
                "note": 48,
                "velocity": 0,
                "time": 0.14874975208333333,
                "total_time": 93.148690700531
            },
            {
                "note": 43,
                "velocity": 96,
                "time": 0.0012499979166666665,
                "total_time": 93.14992451667786
            },
            {
                "note": 75,
                "velocity": 0,
                "time": 0.14874975208333333,
                "total_time": 93.2987802028656
            },
            {
                "note": 87,
                "velocity": 0,
                "time": 0,
                "total_time": 93.29890727996826
            },
            {
                "note": 43,
                "velocity": 0,
                "time": 0,
                "total_time": 93.29894137382507
            },
            {
                "note": 82,
                "velocity": 112,
                "time": 0.0012499979166666665,
                "total_time": 93.29991269111633
            },
            {
                "note": 94,
                "velocity": 112,
                "time": 0,
                "total_time": 93.29998397827148
            },
            {
                "note": 39,
                "velocity": 96,
                "time": 0,
                "total_time": 93.30000686645508
            },
            {
                "note": 39,
                "velocity": 0,
                "time": 0.14874975208333333,
                "total_time": 93.44873261451721
            },
            {
                "note": 43,
                "velocity": 96,
                "time": 0.0012499979166666665,
                "total_time": 93.44996047019958
            },
            {
                "note": 82,
                "velocity": 0,
                "time": 0.13374977708333333,
                "total_time": 93.58367896080017
            },
            {
                "note": 94,
                "velocity": 0,
                "time": 0,
                "total_time": 93.58377075195312
            },
            {
                "note": 43,
                "velocity": 0,
                "time": 0.007499987499999999,
                "total_time": 93.59131145477295
            },
            {
                "note": 29,
                "velocity": 0,
                "time": 0.007499987499999999,
                "total_time": 93.59867310523987
            },
            {
                "note": 80,
                "velocity": 127,
                "time": 0.0012499979166666665,
                "total_time": 93.59990906715393
            },
            {
                "note": 83,
                "velocity": 127,
                "time": 0,
                "total_time": 93.59997868537903
            },
            {
                "note": 87,
                "velocity": 127,
                "time": 0,
                "total_time": 93.60000681877136
            },
            {
                "note": 92,
                "velocity": 127,
                "time": 0,
                "total_time": 93.60003089904785
            },
            {
                "note": 40,
                "velocity": 112,
                "time": 0,
                "total_time": 93.60006308555603
            },
            {
                "note": 44,
                "velocity": 96,
                "time": 0,
                "total_time": 93.74997329711914
            },
            {
                "note": 44,
                "velocity": 0,
                "time": 0.14874975208333333,
                "total_time": 93.89867949485779
            },
            {
                "note": 47,
                "velocity": 96,
                "time": 0.0012499979166666665,
                "total_time": 93.89991092681885
            },
            {
                "note": 47,
                "velocity": 0,
                "time": 0.14874975208333333,
                "total_time": 94.04877400398254
            },
            {
                "note": 51,
                "velocity": 96,
                "time": 0.0012499979166666665,
                "total_time": 94.04998564720154
            },
            {
                "note": 51,
                "velocity": 0,
                "time": 0.14874975208333333,
                "total_time": 94.19874334335327
            },
            {
                "note": 56,
                "velocity": 96,
                "time": 0.0012499979166666665,
                "total_time": 94.19995975494385
            },
            {
                "note": 56,
                "velocity": 0,
                "time": 0.14874975208333333,
                "total_time": 94.34878754615784
            },
            {
                "note": 59,
                "velocity": 96,
                "time": 0.0012499979166666665,
                "total_time": 94.34996747970581
            },
            {
                "note": 80,
                "velocity": 0,
                "time": 0.052499912499999996,
                "total_time": 94.40252208709717
            },
            {
                "note": 83,
                "velocity": 0,
                "time": 0,
                "total_time": 94.40282702445984
            },
            {
                "note": 87,
                "velocity": 0,
                "time": 0,
                "total_time": 94.4029049873352
            },
            {
                "note": 92,
                "velocity": 0,
                "time": 0,
                "total_time": 94.40296602249146
            },
            {
                "note": 59,
                "velocity": 0,
                "time": 0.09624983958333332,
                "total_time": 94.4987154006958
            },
            {
                "note": 63,
                "velocity": 96,
                "time": 0.0012499979166666665,
                "total_time": 94.49997329711914
            },
            {
                "note": 63,
                "velocity": 0,
                "time": 0.14874975208333333,
                "total_time": 94.64870190620422
            },
            {
                "note": 59,
                "velocity": 96,
                "time": 0.0012499979166666665,
                "total_time": 94.64991903305054
            },
            {
                "note": 59,
                "velocity": 0,
                "time": 0.14874975208333333,
                "total_time": 94.79867482185364
            },
            {
                "note": 83,
                "velocity": 112,
                "time": 0.0012499979166666665,
                "total_time": 94.79991221427917
            },
            {
                "note": 95,
                "velocity": 112,
                "time": 0,
                "total_time": 94.79999470710754
            },
            {
                "note": 68,
                "velocity": 96,
                "time": 0,
                "total_time": 94.80001616477966
            },
            {
                "note": 68,
                "velocity": 0,
                "time": 0.14874975208333333,
                "total_time": 94.94870376586914
            },
            {
                "note": 59,
                "velocity": 96,
                "time": 0.0012499979166666665,
                "total_time": 94.94993424415588
            },
            {
                "note": 83,
                "velocity": 0,
                "time": 0.14874975208333333,
                "total_time": 95.09867763519287
            },
            {
                "note": 95,
                "velocity": 0,
                "time": 0,
                "total_time": 95.0987708568573
            },
            {
                "note": 59,
                "velocity": 0,
                "time": 0,
                "total_time": 95.0988118648529
            },
            {
                "note": 82,
                "velocity": 112,
                "time": 0.0012499979166666665,
                "total_time": 95.09990644454956
            },
            {
                "note": 94,
                "velocity": 112,
                "time": 0,
                "total_time": 95.10005259513855
            },
            {
                "note": 63,
                "velocity": 96,
                "time": 0,
                "total_time": 95.10008478164673
            },
            {
                "note": 63,
                "velocity": 0,
                "time": 0.14874975208333333,
                "total_time": 95.24873232841492
            },
            {
                "note": 59,
                "velocity": 96,
                "time": 0.0012499979166666665,
                "total_time": 95.24995350837708
            },
            {
                "note": 82,
                "velocity": 0,
                "time": 0.14874975208333333,
                "total_time": 95.39873623847961
            },
            {
                "note": 94,
                "velocity": 0,
                "time": 0,
                "total_time": 95.39907145500183
            },
            {
                "note": 59,
                "velocity": 0,
                "time": 0,
                "total_time": 95.3991756439209
            },
            {
                "note": 80,
                "velocity": 112,
                "time": 0.0012499979166666665,
                "total_time": 95.3999445438385
            },
            {
                "note": 92,
                "velocity": 112,
                "time": 0,
                "total_time": 95.4001407623291
            },
            {
                "note": 56,
                "velocity": 96,
                "time": 0,
                "total_time": 95.4001874923706
            },
            {
                "note": 56,
                "velocity": 0,
                "time": 0.14874975208333333,
                "total_time": 95.54879260063171
            },
            {
                "note": 51,
                "velocity": 96,
                "time": 0.0012499979166666665,
                "total_time": 95.5499963760376
            },
            {
                "note": 80,
                "velocity": 0,
                "time": 0.14874975208333333,
                "total_time": 95.69872093200684
            },
            {
                "note": 92,
                "velocity": 0,
                "time": 0,
                "total_time": 95.69886040687561
            },
            {
                "note": 51,
                "velocity": 0,
                "time": 0,
                "total_time": 95.69890713691711
            },
            {
                "note": 76,
                "velocity": 112,
                "time": 0.0012499979166666665,
                "total_time": 95.69991874694824
            },
            {
                "note": 88,
                "velocity": 112,
                "time": 0,
                "total_time": 95.70002722740173
            },
            {
                "note": 47,
                "velocity": 96,
                "time": 0,
                "total_time": 95.70006895065308
            },
            {
                "note": 47,
                "velocity": 0,
                "time": 0.14874975208333333,
                "total_time": 95.84870862960815
            },
            {
                "note": 44,
                "velocity": 96,
                "time": 0.0012499979166666665,
                "total_time": 95.84993314743042
            },
            {
                "note": 76,
                "velocity": 0,
                "time": 0.13374977708333333,
                "total_time": 95.98369693756104
            },
            {
                "note": 88,
                "velocity": 0,
                "time": 0,
                "total_time": 95.9837806224823
            },
            {
                "note": 44,
                "velocity": 0,
                "time": 0.007499987499999999,
                "total_time": 95.99117231369019
            },
            {
                "note": 40,
                "velocity": 0,
                "time": 0.007499987499999999,
                "total_time": 95.99867224693298
            },
            {
                "note": 75,
                "velocity": 127,
                "time": 0.0012499979166666665,
                "total_time": 95.99990224838257
            },
            {
                "note": 78,
                "velocity": 127,
                "time": 0,
                "total_time": 95.99995946884155
            },
            {
                "note": 87,
                "velocity": 127,
                "time": 0,
                "total_time": 95.9999828338623
            },
            {
                "note": 39,
                "velocity": 112,
                "time": 0,
                "total_time": 96.00001430511475
            },
            {
                "note": 42,
                "velocity": 96,
                "time": 0,
                "total_time": 96.14997291564941
            },
            {
                "note": 42,
                "velocity": 0,
                "time": 0.14874975208333333,
                "total_time": 96.29872131347656
            },
            {
                "note": 46,
                "velocity": 96,
                "time": 0.0012499979166666665,
                "total_time": 96.29992175102234
            },
            {
                "note": 75,
                "velocity": 0,
                "time": 0.09999983333333332,
                "total_time": 96.39994955062866
            },
            {
                "note": 78,
                "velocity": 0,
                "time": 0,
                "total_time": 96.40022420883179
            },
            {
                "note": 87,
                "velocity": 0,
                "time": 0,
                "total_time": 96.40032958984375
            },
            {
                "note": 46,
                "velocity": 0,
                "time": 0.048749918749999996,
                "total_time": 96.44891166687012
            },
            {
                "note": 51,
                "velocity": 96,
                "time": 0.0012499979166666665,
                "total_time": 96.45003390312195
            },
            {
                "note": 51,
                "velocity": 0,
                "time": 0.14874975208333333,
                "total_time": 96.59867978096008
            },
            {
                "note": 75,
                "velocity": 112,
                "time": 0.0012499979166666665,
                "total_time": 96.59991216659546
            },
            {
                "note": 82,
                "velocity": 112,
                "time": 0,
                "total_time": 96.60002088546753
            },
            {
                "note": 87,
                "velocity": 112,
                "time": 0,
                "total_time": 96.6000587940216
            },
            {
                "note": 54,
                "velocity": 96,
                "time": 0,
                "total_time": 96.60009288787842
            },
            {
                "note": 54,
                "velocity": 0,
                "time": 0.14874975208333333,
                "total_time": 96.7487063407898
            },
            {
                "note": 58,
                "velocity": 96,
                "time": 0.0012499979166666665,
                "total_time": 96.74994802474976
            },
            {
                "note": 58,
                "velocity": 0,
                "time": 0.14874975208333333,
                "total_time": 96.8987364768982
            },
            {
                "note": 54,
                "velocity": 96,
                "time": 0.0012499979166666665,
                "total_time": 96.89995408058167
            },
            {
                "note": 75,
                "velocity": 0,
                "time": 0.14874975208333333,
                "total_time": 97.04870653152466
            },
            {
                "note": 82,
                "velocity": 0,
                "time": 0,
                "total_time": 97.0489661693573
            },
            {
                "note": 87,
                "velocity": 0,
                "time": 0,
                "total_time": 97.04907441139221
            },
            {
                "note": 54,
                "velocity": 0,
                "time": 0,
                "total_time": 97.04917120933533
            },
            {
                "note": 77,
                "velocity": 112,
                "time": 0.0012499979166666665,
                "total_time": 97.05000734329224
            },
            {
                "note": 89,
                "velocity": 112,
                "time": 0,
                "total_time": 97.05030679702759
            },
            {
                "note": 63,
                "velocity": 96,
                "time": 0,
                "total_time": 97.05043339729309
            },
            {
                "note": 77,
                "velocity": 0,
                "time": 0.14124976458333333,
                "total_time": 97.19116878509521
            },
            {
                "note": 89,
                "velocity": 0,
                "time": 0,
                "total_time": 97.1912670135498
            },
            {
                "note": 63,
                "velocity": 0,
                "time": 0.007499987499999999,
                "total_time": 97.19867491722107
            },
            {
                "note": 78,
                "velocity": 112,
                "time": 0.0012499979166666665,
                "total_time": 97.19992113113403
            },
            {
                "note": 87,
                "velocity": 112,
                "time": 0,
                "total_time": 97.20004534721375
            },
            {
                "note": 90,
                "velocity": 112,
                "time": 0,
                "total_time": 97.2000904083252
            },
            {
                "note": 54,
                "velocity": 96,
                "time": 0,
                "total_time": 97.20012903213501
            },
            {
                "note": 54,
                "velocity": 0,
                "time": 0.14874975208333333,
                "total_time": 97.34872627258301
            },
            {
                "note": 63,
                "velocity": 96,
                "time": 0.0012499979166666665,
                "total_time": 97.349937915802
            },
            {
                "note": 63,
                "velocity": 0,
                "time": 0.14874975208333333,
                "total_time": 97.49875950813293
            },
            {
                "note": 54,
                "velocity": 96,
                "time": 0.0012499979166666665,
                "total_time": 97.49989724159241
            },
            {
                "note": 54,
                "velocity": 0,
                "time": 0.14874975208333333,
                "total_time": 97.64870166778564
            },
            {
                "note": 58,
                "velocity": 96,
                "time": 0.0012499979166666665,
                "total_time": 97.64996194839478
            },
            {
                "note": 78,
                "velocity": 0,
                "time": 0.14874975208333333,
                "total_time": 97.79871916770935
            },
            {
                "note": 87,
                "velocity": 0,
                "time": 0,
                "total_time": 97.79904961585999
            },
            {
                "note": 90,
                "velocity": 0,
                "time": 0,
                "total_time": 97.79916048049927
            },
            {
                "note": 58,
                "velocity": 0,
                "time": 0,
                "total_time": 97.79925441741943
            },
            {
                "note": 92,
                "velocity": 112,
                "time": 0.0012499979166666665,
                "total_time": 97.79991388320923
            },
            {
                "note": 54,
                "velocity": 96,
                "time": 0,
                "total_time": 97.8001561164856
            },
            {
                "note": 92,
                "velocity": 0,
                "time": 0.062499895833333326,
                "total_time": 97.86247110366821
            },
            {
                "note": 82,
                "velocity": 112,
                "time": 0.0012499979166666665,
                "total_time": 97.86372637748718
            },
            {
                "note": 94,
                "velocity": 112,
                "time": 0,
                "total_time": 97.86400270462036
            },
            {
                "note": 54,
                "velocity": 0,
                "time": 0.08499985833333332,
                "total_time": 97.94894790649414
            },
            {
                "note": 51,
                "velocity": 96,
                "time": 0.0012499979166666665,
                "total_time": 97.94993376731873
            },
            {
                "note": 51,
                "velocity": 0,
                "time": 0.14874975208333333,
                "total_time": 98.0987594127655
            },
            {
                "note": 46,
                "velocity": 96,
                "time": 0.0012499979166666665,
                "total_time": 98.0999047756195
            },
            {
                "note": 46,
                "velocity": 0,
                "time": 0.14874975208333333,
                "total_time": 98.24868726730347
            },
            {
                "note": 42,
                "velocity": 96,
                "time": 0.0012499979166666665,
                "total_time": 98.24989604949951
            },
            {
                "note": 82,
                "velocity": 0,
                "time": 0.11999979999999999,
                "total_time": 98.36994290351868
            },
            {
                "note": 94,
                "velocity": 0,
                "time": 0,
                "total_time": 98.37016868591309
            },
            {
                "note": 42,
                "velocity": 0,
                "time": 0.02124996458333333,
                "total_time": 98.39132952690125
            },
            {
                "note": 39,
                "velocity": 0,
                "time": 0.007499987499999999,
                "total_time": 98.39872336387634
            },
            {
                "note": 80,
                "velocity": 127,
                "time": 0.0012499979166666665,
                "total_time": 98.39996314048767
            },
            {
                "note": 85,
                "velocity": 127,
                "time": 0,
                "total_time": 98.40021872520447
            },
            {
                "note": 89,
                "velocity": 127,
                "time": 0,
                "total_time": 98.40031504631042
            },
            {
                "note": 92,
                "velocity": 127,
                "time": 0,
                "total_time": 98.40039658546448
            },
            {
                "note": 34,
                "velocity": 112,
                "time": 0,
                "total_time": 98.40050649642944
            },
            {
                "note": 37,
                "velocity": 96,
                "time": 0,
                "total_time": 98.55032968521118
            },
            {
                "note": 37,
                "velocity": 0,
                "time": 0.14874975208333333,
                "total_time": 98.69872856140137
            },
            {
                "note": 41,
                "velocity": 96,
                "time": 0.0012499979166666665,
                "total_time": 98.69995546340942
            },
            {
                "note": 41,
                "velocity": 0,
                "time": 0.14874975208333333,
                "total_time": 98.8486659526825
            },
            {
                "note": 44,
                "velocity": 96,
                "time": 0.0012499979166666665,
                "total_time": 98.84989786148071
            },
            {
                "note": 44,
                "velocity": 0,
                "time": 0.14874975208333333,
                "total_time": 98.99866914749146
            },
            {
                "note": 49,
                "velocity": 96,
                "time": 0.0012499979166666665,
                "total_time": 98.9999098777771
            },
            {
                "note": 80,
                "velocity": 0,
                "time": 0.10124983124999999,
                "total_time": 99.10119199752808
            },
            {
                "note": 85,
                "velocity": 0,
                "time": 0,
                "total_time": 99.10140633583069
            },
            {
                "note": 89,
                "velocity": 0,
                "time": 0,
                "total_time": 99.10144925117493
            },
            {
                "note": 92,
                "velocity": 0,
                "time": 0,
                "total_time": 99.10147404670715
            },
            {
                "note": 49,
                "velocity": 0,
                "time": 0.04749992083333333,
                "total_time": 99.14867448806763
            },
            {
                "note": 53,
                "velocity": 96,
                "time": 0.0012499979166666665,
                "total_time": 99.14992904663086
            },
            {
                "note": 53,
                "velocity": 0,
                "time": 0.14874975208333333,
                "total_time": 99.29870748519897
            },
            {
                "note": 56,
                "velocity": 96,
                "time": 0.0012499979166666665,
                "total_time": 99.29990553855896
            },
            {
                "note": 56,
                "velocity": 0,
                "time": 0.14874975208333333,
                "total_time": 99.44872283935547
            },
            {
                "note": 90,
                "velocity": 112,
                "time": 0.0012499979166666665,
                "total_time": 99.44998955726624
            },
            {
                "note": 53,
                "velocity": 96,
                "time": 0,
                "total_time": 99.45024132728577
            },
            {
                "note": 90,
                "velocity": 0,
                "time": 0.07374987708333332,
                "total_time": 99.5236976146698
            },
            {
                "note": 89,
                "velocity": 112,
                "time": 0.0012499979166666665,
                "total_time": 99.52492094039917
            },
            {
                "note": 89,
                "velocity": 0,
                "time": 0.06999988333333332,
                "total_time": 99.59494233131409
            },
            {
                "note": 53,
                "velocity": 0,
                "time": 0.0037499937499999997,
                "total_time": 99.59868478775024
            },
            {
                "note": 73,
                "velocity": 112,
                "time": 0.0012499979166666665,
                "total_time": 99.59991526603699
            },
            {
                "note": 85,
                "velocity": 112,
                "time": 0,
                "total_time": 99.60004901885986
            },
            {
                "note": 61,
                "velocity": 96,
                "time": 0,
                "total_time": 99.60012578964233
            },
            {
                "note": 61,
                "velocity": 0,
                "time": 0.14874975208333333,
                "total_time": 99.7488386631012
            },
            {
                "note": 53,
                "velocity": 96,
                "time": 0.0012499979166666665,
                "total_time": 99.74993705749512
            },
            {
                "note": 53,
                "velocity": 0,
                "time": 0.14874975208333333,
                "total_time": 99.89872431755066
            },
            {
                "note": 56,
                "velocity": 96,
                "time": 0.0012499979166666665,
                "total_time": 99.89992547035217
            },
            {
                "note": 56,
                "velocity": 0,
                "time": 0.14874975208333333,
                "total_time": 100.04866552352905
            },
            {
                "note": 53,
                "velocity": 96,
                "time": 0.0012499979166666665,
                "total_time": 100.04990673065186
            },
            {
                "note": 73,
                "velocity": 0,
                "time": 0.14874975208333333,
                "total_time": 100.19871854782104
            },
            {
                "note": 85,
                "velocity": 0,
                "time": 0,
                "total_time": 100.19885849952698
            },
            {
                "note": 53,
                "velocity": 0,
                "time": 0,
                "total_time": 100.19889092445374
            },
            {
                "note": 70,
                "velocity": 112,
                "time": 0.0012499979166666665,
                "total_time": 100.19990563392639
            },
            {
                "note": 82,
                "velocity": 112,
                "time": 0,
                "total_time": 100.19998025894165
            },
            {
                "note": 49,
                "velocity": 96,
                "time": 0,
                "total_time": 100.20002174377441
            },
            {
                "note": 49,
                "velocity": 0,
                "time": 0.14874975208333333,
                "total_time": 100.34868383407593
            },
            {
                "note": 44,
                "velocity": 96,
                "time": 0.0012499979166666665,
                "total_time": 100.34990644454956
            },
            {
                "note": 70,
                "velocity": 0,
                "time": 0.14874975208333333,
                "total_time": 100.49871015548706
            },
            {
                "note": 82,
                "velocity": 0,
                "time": 0,
                "total_time": 100.49888968467712
            },
            {
                "note": 44,
                "velocity": 0,
                "time": 0,
                "total_time": 100.49895000457764
            },
            {
                "note": 73,
                "velocity": 112,
                "time": 0.0012499979166666665,
                "total_time": 100.49990940093994
            },
            {
                "note": 85,
                "velocity": 112,
                "time": 0,
                "total_time": 100.50003623962402
            },
            {
                "note": 41,
                "velocity": 96,
                "time": 0,
                "total_time": 100.50009179115295
            },
            {
                "note": 41,
                "velocity": 0,
                "time": 0.14874975208333333,
                "total_time": 100.64871025085449
            },
            {
                "note": 37,
                "velocity": 96,
                "time": 0.0012499979166666665,
                "total_time": 100.6499195098877
            },
            {
                "note": 73,
                "velocity": 0,
                "time": 0.13374977708333333,
                "total_time": 100.78370785713196
            },
            {
                "note": 85,
                "velocity": 0,
                "time": 0,
                "total_time": 100.78402471542358
            },
            {
                "note": 37,
                "velocity": 0,
                "time": 0.007499987499999999,
                "total_time": 100.79119634628296
            },
            {
                "note": 34,
                "velocity": 0,
                "time": 0.007499987499999999,
                "total_time": 100.79867482185364
            },
            {
                "note": 75,
                "velocity": 127,
                "time": 0.0012499979166666665,
                "total_time": 100.79990148544312
            },
            {
                "note": 87,
                "velocity": 127,
                "time": 0,
                "total_time": 100.79998707771301
            },
            {
                "note": 29,
                "velocity": 112,
                "time": 0,
                "total_time": 100.80004286766052
            },
            {
                "note": 36,
                "velocity": 96,
                "time": 0,
                "total_time": 100.95004606246948
            },
            {
                "note": 36,
                "velocity": 0,
                "time": 0.14874975208333333,
                "total_time": 101.09875416755676
            },
            {
                "note": 39,
                "velocity": 96,
                "time": 0.0012499979166666665,
                "total_time": 101.0999436378479
            },
            {
                "note": 39,
                "velocity": 0,
                "time": 0.14874975208333333,
                "total_time": 101.24866247177124
            },
            {
                "note": 43,
                "velocity": 96,
                "time": 0.0012499979166666665,
                "total_time": 101.24989700317383
            },
            {
                "note": 75,
                "velocity": 0,
                "time": 0.09999983333333332,
                "total_time": 101.34990954399109
            },
            {
                "note": 87,
                "velocity": 0,
                "time": 0,
                "total_time": 101.3500165939331
            },
            {
                "note": 43,
                "velocity": 0,
                "time": 0.048749918749999996,
                "total_time": 101.3986918926239
            },
            {
                "note": 48,
                "velocity": 96,
                "time": 0,
                "total_time": 101.39990854263306
            },
            {
                "note": 48,
                "velocity": 0,
                "time": 0.14874975208333333,
                "total_time": 101.54882884025574
            },
            {
                "note": 85,
                "velocity": 112,
                "time": 0.0012499979166666665,
                "total_time": 101.54992985725403
            },
            {
                "note": 51,
                "velocity": 96,
                "time": 0,
                "total_time": 101.55011010169983
            },
            {
                "note": 85,
                "velocity": 0,
                "time": 0.14874975208333333,
                "total_time": 101.69868659973145
            },
            {
                "note": 51,
                "velocity": 0,
                "time": 0,
                "total_time": 101.69875717163086
            },
            {
                "note": 84,
                "velocity": 112,
                "time": 0.0012499979166666665,
                "total_time": 101.69988894462585
            },
            {
                "note": 55,
                "velocity": 96,
                "time": 0,
                "total_time": 101.69991660118103
            },
            {
                "note": 84,
                "velocity": 0,
                "time": 0.14874975208333333,
                "total_time": 101.84865808486938
            },
            {
                "note": 55,
                "velocity": 0,
                "time": 0,
                "total_time": 101.84874224662781
            },
            {
                "note": 75,
                "velocity": 112,
                "time": 0.0012499979166666665,
                "total_time": 101.84989953041077
            },
            {
                "note": 51,
                "velocity": 96,
                "time": 0,
                "total_time": 101.84996747970581
            },
            {
                "note": 75,
                "velocity": 0,
                "time": 0.14124976458333333,
                "total_time": 101.99119019508362
            },
            {
                "note": 51,
                "velocity": 0,
                "time": 0.007499987499999999,
                "total_time": 101.99869775772095
            },
            {
                "note": 80,
                "velocity": 112,
                "time": 0.0012499979166666665,
                "total_time": 101.99990320205688
            },
            {
                "note": 60,
                "velocity": 96,
                "time": 0,
                "total_time": 102.00003743171692
            },
            {
                "note": 80,
                "velocity": 0,
                "time": 0.062499895833333326,
                "total_time": 102.06242728233337
            },
            {
                "note": 70,
                "velocity": 112,
                "time": 0.0012499979166666665,
                "total_time": 102.0636579990387
            },
            {
                "note": 82,
                "velocity": 112,
                "time": 0,
                "total_time": 102.06375765800476
            },
            {
                "note": 60,
                "velocity": 0,
                "time": 0.08499985833333332,
                "total_time": 102.14871907234192
            },
            {
                "note": 51,
                "velocity": 96,
                "time": 0.0012499979166666665,
                "total_time": 102.14992713928223
            },
            {
                "note": 51,
                "velocity": 0,
                "time": 0.14874975208333333,
                "total_time": 102.29892754554749
            },
            {
                "note": 55,
                "velocity": 96,
                "time": 0.0012499979166666665,
                "total_time": 102.30007553100586
            },
            {
                "note": 55,
                "velocity": 0,
                "time": 0.14874975208333333,
                "total_time": 102.44871664047241
            },
            {
                "note": 51,
                "velocity": 96,
                "time": 0.0012499979166666665,
                "total_time": 102.44993758201599
            },
            {
                "note": 70,
                "velocity": 0,
                "time": 0.14749975416666664,
                "total_time": 102.59748673439026
            },
            {
                "note": 82,
                "velocity": 0,
                "time": 0,
                "total_time": 102.59770345687866
            },
            {
                "note": 51,
                "velocity": 0,
                "time": 0.0012499979166666665,
                "total_time": 102.59869718551636
            },
            {
                "note": 68,
                "velocity": 112,
                "time": 0.0012499979166666665,
                "total_time": 102.59994506835938
            },
            {
                "note": 80,
                "velocity": 112,
                "time": 0,
                "total_time": 102.60023140907288
            },
            {
                "note": 48,
                "velocity": 96,
                "time": 0,
                "total_time": 102.6003487110138
            },
            {
                "note": 48,
                "velocity": 0,
                "time": 0.14874975208333333,
                "total_time": 102.74868083000183
            },
            {
                "note": 43,
                "velocity": 96,
                "time": 0.0012499979166666665,
                "total_time": 102.74989247322083
            },
            {
                "note": 43,
                "velocity": 0,
                "time": 0.14874975208333333,
                "total_time": 102.89891576766968
            },
            {
                "note": 39,
                "velocity": 96,
                "time": 0.0012499979166666665,
                "total_time": 102.90018057823181
            },
            {
                "note": 39,
                "velocity": 0,
                "time": 0.14874975208333333,
                "total_time": 103.04869771003723
            },
            {
                "note": 43,
                "velocity": 96,
                "time": 0.0012499979166666665,
                "total_time": 103.04990434646606
            },
            {
                "note": 68,
                "velocity": 0,
                "time": 0.11874980208333331,
                "total_time": 103.16869616508484
            },
            {
                "note": 80,
                "velocity": 0,
                "time": 0,
                "total_time": 103.16920757293701
            },
            {
                "note": 43,
                "velocity": 0,
                "time": 0.022499962499999998,
                "total_time": 103.19124579429626
            },
            {
                "note": 29,
                "velocity": 0,
                "time": 0.007499987499999999,
                "total_time": 103.19907855987549
            },
            {
                "note": 82,
                "velocity": 127,
                "time": 0.0012499979166666665,
                "total_time": 103.19994926452637
            },
            {
                "note": 40,
                "velocity": 112,
                "time": 0,
                "total_time": 103.20028829574585
            },
            {
                "note": 82,
                "velocity": 0,
                "time": 0.059999899999999995,
                "total_time": 103.2625081539154
            },
            {
                "note": 71,
                "velocity": 127,
                "time": 0.0012499979166666665,
                "total_time": 103.2637870311737
            },
            {
                "note": 83,
                "velocity": 127,
                "time": 0,
                "total_time": 103.26430320739746
            },
            {
                "note": 44,
                "velocity": 96,
                "time": 0,
                "total_time": 103.34996342658997
            },
            {
                "note": 44,
                "velocity": 0,
                "time": 0.14874975208333333,
                "total_time": 103.49876070022583
            },
            {
                "note": 47,
                "velocity": 96,
                "time": 0.0012499979166666665,
                "total_time": 103.49989414215088
            },
            {
                "note": 71,
                "velocity": 0,
                "time": 0.11999979999999999,
                "total_time": 103.61993718147278
            },
            {
                "note": 83,
                "velocity": 0,
                "time": 0,
                "total_time": 103.62010407447815
            },
            {
                "note": 47,
                "velocity": 0,
                "time": 0.02874995208333333,
                "total_time": 103.64871263504028
            },
            {
                "note": 51,
                "velocity": 96,
                "time": 0.0012499979166666665,
                "total_time": 103.64999127388
            },
            {
                "note": 51,
                "velocity": 0,
                "time": 0.14874975208333333,
                "total_time": 103.79871439933777
            },
            {
                "note": 70,
                "velocity": 112,
                "time": 0.0012499979166666665,
                "total_time": 103.80007934570312
            },
            {
                "note": 82,
                "velocity": 112,
                "time": 0,
                "total_time": 103.80043530464172
            },
            {
                "note": 56,
                "velocity": 96,
                "time": 0,
                "total_time": 103.80054473876953
            },
            {
                "note": 56,
                "velocity": 0,
                "time": 0.14874975208333333,
                "total_time": 103.94875574111938
            },
            {
                "note": 59,
                "velocity": 96,
                "time": 0.0012499979166666665,
                "total_time": 103.94993805885315
            },
            {
                "note": 59,
                "velocity": 0,
                "time": 0.14874975208333333,
                "total_time": 104.09866786003113
            },
            {
                "note": 56,
                "velocity": 96,
                "time": 0.0012499979166666665,
                "total_time": 104.09989166259766
            },
            {
                "note": 56,
                "velocity": 0,
                "time": 0.14874975208333333,
                "total_time": 104.24868416786194
            },
            {
                "note": 63,
                "velocity": 96,
                "time": 0.0012499979166666665,
                "total_time": 104.24993443489075
            },
            {
                "note": 70,
                "velocity": 0,
                "time": 0.11874980208333331,
                "total_time": 104.36865472793579
            },
            {
                "note": 82,
                "velocity": 0,
                "time": 0,
                "total_time": 104.36875247955322
            },
            {
                "note": 63,
                "velocity": 0,
                "time": 0.029999949999999997,
                "total_time": 104.39865469932556
            },
            {
                "note": 68,
                "velocity": 112,
                "time": 0.0012499979166666665,
                "total_time": 104.39989566802979
            },
            {
                "note": 80,
                "velocity": 112,
                "time": 0,
                "total_time": 104.39999413490295
            },
            {
                "note": 56,
                "velocity": 96,
                "time": 0,
                "total_time": 104.40002512931824
            },
            {
                "note": 56,
                "velocity": 0,
                "time": 0.14874975208333333,
                "total_time": 104.54869341850281
            },
            {
                "note": 63,
                "velocity": 96,
                "time": 0.0012499979166666665,
                "total_time": 104.54990124702454
            },
            {
                "note": 63,
                "velocity": 0,
                "time": 0.14874975208333333,
                "total_time": 104.69874501228333
            },
            {
                "note": 56,
                "velocity": 96,
                "time": 0.0012499979166666665,
                "total_time": 104.69996738433838
            },
            {
                "note": 56,
                "velocity": 0,
                "time": 0.14874975208333333,
                "total_time": 104.84867691993713
            },
            {
                "note": 59,
                "velocity": 96,
                "time": 0.0012499979166666665,
                "total_time": 104.8499436378479
            },
            {
                "note": 68,
                "velocity": 0,
                "time": 0.11874980208333331,
                "total_time": 104.96872973442078
            },
            {
                "note": 80,
                "velocity": 0,
                "time": 0,
                "total_time": 104.96909642219543
            },
            {
                "note": 59,
                "velocity": 0,
                "time": 0.029999949999999997,
                "total_time": 104.99872303009033
            },
            {
                "note": 73,
                "velocity": 112,
                "time": 0.0012499979166666665,
                "total_time": 105.00006127357483
            },
            {
                "note": 85,
                "velocity": 112,
                "time": 0,
                "total_time": 105.0009412765503
            },
            {
                "note": 56,
                "velocity": 96,
                "time": 0,
                "total_time": 105.00130987167358
            },
            {
                "note": 56,
                "velocity": 0,
                "time": 0.14874975208333333,
                "total_time": 105.14870476722717
            },
            {
                "note": 51,
                "velocity": 96,
                "time": 0.0012499979166666665,
                "total_time": 105.1499297618866
            },
            {
                "note": 51,
                "velocity": 0,
                "time": 0.14874975208333333,
                "total_time": 105.29865860939026
            },
            {
                "note": 47,
                "velocity": 96,
                "time": 0.0012499979166666665,
                "total_time": 105.29990649223328
            },
            {
                "note": 47,
                "velocity": 0,
                "time": 0.14874975208333333,
                "total_time": 105.44865393638611
            },
            {
                "note": 44,
                "velocity": 96,
                "time": 0.0012499979166666665,
                "total_time": 105.44988703727722
            },
            {
                "note": 73,
                "velocity": 0,
                "time": 0.11874980208333331,
                "total_time": 105.56868529319763
            },
            {
                "note": 85,
                "velocity": 0,
                "time": 0,
                "total_time": 105.56877493858337
            },
            {
                "note": 44,
                "velocity": 0,
                "time": 0.022499962499999998,
                "total_time": 105.59115171432495
            },
            {
                "note": 40,
                "velocity": 0,
                "time": 0.007499987499999999,
                "total_time": 105.59866285324097
            },
            {
                "note": 75,
                "velocity": 127,
                "time": 0.0012499979166666665,
                "total_time": 105.59988975524902
            },
            {
                "note": 78,
                "velocity": 127,
                "time": 0,
                "total_time": 105.59994959831238
            },
            {
                "note": 87,
                "velocity": 127,
                "time": 0,
                "total_time": 105.59997463226318
            },
            {
                "note": 39,
                "velocity": 112,
                "time": 0,
                "total_time": 105.60000681877136
            },
            {
                "note": 42,
                "velocity": 96,
                "time": 0,
                "total_time": 105.75004363059998
            },
            {
                "note": 75,
                "velocity": 0,
                "time": 0.048749918749999996,
                "total_time": 105.79872918128967
            },
            {
                "note": 78,
                "velocity": 0,
                "time": 0,
                "total_time": 105.79924511909485
            },
            {
                "note": 87,
                "velocity": 0,
                "time": 0,
                "total_time": 105.79956269264221
            },
            {
                "note": 42,
                "velocity": 0,
                "time": 0.09999983333333332,
                "total_time": 105.89867830276489
            },
            {
                "note": 70,
                "velocity": 112,
                "time": 0.0012499979166666665,
                "total_time": 105.89996528625488
            },
            {
                "note": 78,
                "velocity": 112,
                "time": 0,
                "total_time": 105.90035629272461
            },
            {
                "note": 82,
                "velocity": 112,
                "time": 0,
                "total_time": 105.90047883987427
            },
            {
                "note": 46,
                "velocity": 96,
                "time": 0,
                "total_time": 105.90058135986328
            },
            {
                "note": 46,
                "velocity": 0,
                "time": 0.14874975208333333,
                "total_time": 106.04869771003723
            },
            {
                "note": 51,
                "velocity": 96,
                "time": 0.0012499979166666665,
                "total_time": 106.04989671707153
            },
            {
                "note": 70,
                "velocity": 0,
                "time": 0.14874975208333333,
                "total_time": 106.19868922233582
            },
            {
                "note": 78,
                "velocity": 0,
                "time": 0,
                "total_time": 106.19897747039795
            },
            {
                "note": 82,
                "velocity": 0,
                "time": 0,
                "total_time": 106.1990966796875
            },
            {
                "note": 51,
                "velocity": 0,
                "time": 0,
                "total_time": 106.19917416572571
            },
            {
                "note": 75,
                "velocity": 112,
                "time": 0.0012499979166666665,
                "total_time": 106.19990372657776
            },
            {
                "note": 82,
                "velocity": 112,
                "time": 0,
                "total_time": 106.20003199577332
            },
            {
                "note": 87,
                "velocity": 112,
                "time": 0,
                "total_time": 106.20011711120605
            },
            {
                "note": 54,
                "velocity": 96,
                "time": 0,
                "total_time": 106.20017576217651
            },
            {
                "note": 54,
                "velocity": 0,
                "time": 0.14874975208333333,
                "total_time": 106.34869885444641
            },
            {
                "note": 58,
                "velocity": 96,
                "time": 0.0012499979166666665,
                "total_time": 106.34990119934082
            },
            {
                "note": 75,
                "velocity": 0,
                "time": 0.14874975208333333,
                "total_time": 106.49866509437561
            },
            {
                "note": 82,
                "velocity": 0,
                "time": 0,
                "total_time": 106.49882650375366
            },
            {
                "note": 87,
                "velocity": 0,
                "time": 0,
                "total_time": 106.49884843826294
            },
            {
                "note": 58,
                "velocity": 0,
                "time": 0,
                "total_time": 106.49886298179626
            },
            {
                "note": 77,
                "velocity": 112,
                "time": 0.0012499979166666665,
                "total_time": 106.4998927116394
            },
            {
                "note": 82,
                "velocity": 112,
                "time": 0,
                "total_time": 106.49995875358582
            },
            {
                "note": 87,
                "velocity": 112,
                "time": 0,
                "total_time": 106.49998044967651
            },
            {
                "note": 89,
                "velocity": 112,
                "time": 0,
                "total_time": 106.49999809265137
            },
            {
                "note": 63,
                "velocity": 96,
                "time": 0,
                "total_time": 106.50001502037048
            },
            {
                "note": 63,
                "velocity": 0,
                "time": 0.14874975208333333,
                "total_time": 106.64870190620422
            },
            {
                "note": 58,
                "velocity": 96,
                "time": 0.0012499979166666665,
                "total_time": 106.649893283844
            },
            {
                "note": 77,
                "velocity": 0,
                "time": 0.14874975208333333,
                "total_time": 106.79869771003723
            },
            {
                "note": 82,
                "velocity": 0,
                "time": 0,
                "total_time": 106.79904294013977
            },
            {
                "note": 87,
                "velocity": 0,
                "time": 0,
                "total_time": 106.7993414402008
            },
            {
                "note": 89,
                "velocity": 0,
                "time": 0,
                "total_time": 106.79942393302917
            },
            {
                "note": 58,
                "velocity": 0,
                "time": 0,
                "total_time": 106.7995011806488
            },
            {
                "note": 78,
                "velocity": 112,
                "time": 0.0012499979166666665,
                "total_time": 106.7999370098114
            },
            {
                "note": 82,
                "velocity": 112,
                "time": 0,
                "total_time": 106.80015182495117
            },
            {
                "note": 90,
                "velocity": 112,
                "time": 0,
                "total_time": 106.80027985572815
            },
            {
                "note": 66,
                "velocity": 96,
                "time": 0,
                "total_time": 106.80034756660461
            },
            {
                "note": 66,
                "velocity": 0,
                "time": 0.14874975208333333,
                "total_time": 106.94869875907898
            },
            {
                "note": 58,
                "velocity": 96,
                "time": 0.0012499979166666665,
                "total_time": 106.94988799095154
            },
            {
                "note": 78,
                "velocity": 0,
                "time": 0.14874975208333333,
                "total_time": 107.09865927696228
            },
            {
                "note": 82,
                "velocity": 0,
                "time": 0,
                "total_time": 107.0988495349884
            },
            {
                "note": 90,
                "velocity": 0,
                "time": 0,
                "total_time": 107.09886980056763
            },
            {
                "note": 58,
                "velocity": 0,
                "time": 0,
                "total_time": 107.09888219833374
            },
            {
                "note": 80,
                "velocity": 112,
                "time": 0.0012499979166666665,
                "total_time": 107.09988951683044
            },
            {
                "note": 82,
                "velocity": 112,
                "time": 0,
                "total_time": 107.09994506835938
            },
            {
                "note": 87,
                "velocity": 112,
                "time": 0,
                "total_time": 107.09995913505554
            },
            {
                "note": 92,
                "velocity": 112,
                "time": 0,
                "total_time": 107.09997010231018
            },
            {
                "note": 63,
                "velocity": 96,
                "time": 0,
                "total_time": 107.09997940063477
            },
            {
                "note": 63,
                "velocity": 0,
                "time": 0.14874975208333333,
                "total_time": 107.24868321418762
            },
            {
                "note": 58,
                "velocity": 96,
                "time": 0.0012499979166666665,
                "total_time": 107.249920129776
            },
            {
                "note": 80,
                "velocity": 0,
                "time": 0.14874975208333333,
                "total_time": 107.39868831634521
            },
            {
                "note": 82,
                "velocity": 0,
                "time": 0,
                "total_time": 107.39897918701172
            },
            {
                "note": 87,
                "velocity": 0,
                "time": 0,
                "total_time": 107.3990535736084
            },
            {
                "note": 92,
                "velocity": 0,
                "time": 0,
                "total_time": 107.39909934997559
            },
            {
                "note": 58,
                "velocity": 0,
                "time": 0,
                "total_time": 107.39914202690125
            },
            {
                "note": 82,
                "velocity": 112,
                "time": 0.0012499979166666665,
                "total_time": 107.399893283844
            },
            {
                "note": 87,
                "velocity": 112,
                "time": 0,
                "total_time": 107.40004825592041
            },
            {
                "note": 94,
                "velocity": 112,
                "time": 0,
                "total_time": 107.40015029907227
            },
            {
                "note": 54,
                "velocity": 96,
                "time": 0,
                "total_time": 107.40022993087769
            },
            {
                "note": 54,
                "velocity": 0,
                "time": 0.14874975208333333,
                "total_time": 107.54868578910828
            },
            {
                "note": 51,
                "velocity": 96,
                "time": 0.0012499979166666665,
                "total_time": 107.54995083808899
            },
            {
                "note": 82,
                "velocity": 0,
                "time": 0.14874975208333333,
                "total_time": 107.69876408576965
            },
            {
                "note": 87,
                "velocity": 0,
                "time": 0,
                "total_time": 107.69913268089294
            },
            {
                "note": 94,
                "velocity": 0,
                "time": 0,
                "total_time": 107.69923424720764
            },
            {
                "note": 51,
                "velocity": 0,
                "time": 0,
                "total_time": 107.69931197166443
            },
            {
                "note": 87,
                "velocity": 112,
                "time": 0.0012499979166666665,
                "total_time": 107.69993829727173
            },
            {
                "note": 90,
                "velocity": 112,
                "time": 0,
                "total_time": 107.70017957687378
            },
            {
                "note": 99,
                "velocity": 112,
                "time": 0,
                "total_time": 107.7002580165863
            },
            {
                "note": 46,
                "velocity": 96,
                "time": 0,
                "total_time": 107.7003288269043
            },
            {
                "note": 46,
                "velocity": 0,
                "time": 0.14874975208333333,
                "total_time": 107.84868860244751
            },
            {
                "note": 42,
                "velocity": 96,
                "time": 0.0012499979166666665,
                "total_time": 107.84990763664246
            },
            {
                "note": 87,
                "velocity": 0,
                "time": 0.13374977708333333,
                "total_time": 107.98365187644958
            },
            {
                "note": 90,
                "velocity": 0,
                "time": 0,
                "total_time": 107.9837703704834
            },
            {
                "note": 99,
                "velocity": 0,
                "time": 0,
                "total_time": 107.98382639884949
            },
            {
                "note": 42,
                "velocity": 0,
                "time": 0.007499987499999999,
                "total_time": 107.99115109443665
            },
            {
                "note": 39,
                "velocity": 0,
                "time": 0.007499987499999999,
                "total_time": 107.99866461753845
            },
            {
                "note": 85,
                "velocity": 127,
                "time": 0.0012499979166666665,
                "total_time": 107.99988150596619
            },
            {
                "note": 89,
                "velocity": 127,
                "time": 0,
                "total_time": 107.99993896484375
            },
            {
                "note": 97,
                "velocity": 127,
                "time": 0,
                "total_time": 107.99995493888855
            },
            {
                "note": 34,
                "velocity": 112,
                "time": 0,
                "total_time": 107.99997305870056
            },
            {
                "note": 37,
                "velocity": 96,
                "time": 0,
                "total_time": 108.15017056465149
            },
            {
                "note": 37,
                "velocity": 0,
                "time": 0.14874975208333333,
                "total_time": 108.29872298240662
            },
            {
                "note": 41,
                "velocity": 96,
                "time": 0.0012499979166666665,
                "total_time": 108.29993295669556
            },
            {
                "note": 41,
                "velocity": 0,
                "time": 0.14874975208333333,
                "total_time": 108.44866967201233
            },
            {
                "note": 44,
                "velocity": 96,
                "time": 0.0012499979166666665,
                "total_time": 108.44991993904114
            },
            {
                "note": 44,
                "velocity": 0,
                "time": 0.14874975208333333,
                "total_time": 108.59868693351746
            },
            {
                "note": 49,
                "velocity": 96,
                "time": 0.0012499979166666665,
                "total_time": 108.59993243217468
            },
            {
                "note": 85,
                "velocity": 0,
                "time": 0.0012499979166666665,
                "total_time": 108.60117030143738
            },
            {
                "note": 89,
                "velocity": 0,
                "time": 0,
                "total_time": 108.6012020111084
            },
            {
                "note": 97,
                "velocity": 0,
                "time": 0,
                "total_time": 108.60122418403625
            },
            {
                "note": 49,
                "velocity": 0,
                "time": 0.14749975416666664,
                "total_time": 108.74870038032532
            },
            {
                "note": 53,
                "velocity": 96,
                "time": 0.0012499979166666665,
                "total_time": 108.74989914894104
            },
            {
                "note": 53,
                "velocity": 0,
                "time": 0.14874975208333333,
                "total_time": 108.8987045288086
            },
            {
                "note": 92,
                "velocity": 112,
                "time": 0.0012499979166666665,
                "total_time": 108.89994931221008
            },
            {
                "note": 56,
                "velocity": 96,
                "time": 0,
                "total_time": 108.90025877952576
            },
            {
                "note": 92,
                "velocity": 0,
                "time": 0.062499895833333326,
                "total_time": 108.96244192123413
            },
            {
                "note": 82,
                "velocity": 112,
                "time": 0.0012499979166666665,
                "total_time": 108.9636800289154
            },
            {
                "note": 94,
                "velocity": 112,
                "time": 0,
                "total_time": 108.96393728256226
            },
            {
                "note": 56,
                "velocity": 0,
                "time": 0.08499985833333332,
                "total_time": 109.04868912696838
            },
            {
                "note": 53,
                "velocity": 96,
                "time": 0.0012499979166666665,
                "total_time": 109.04990124702454
            },
            {
                "note": 82,
                "velocity": 0,
                "time": 0.134999775,
                "total_time": 109.1849057674408
            },
            {
                "note": 94,
                "velocity": 0,
                "time": 0,
                "total_time": 109.18508338928223
            },
            {
                "note": 53,
                "velocity": 0,
                "time": 0.013749977083333332,
                "total_time": 109.19885921478271
            },
            {
                "note": 80,
                "velocity": 112,
                "time": 0.0012499979166666665,
                "total_time": 109.19996690750122
            },
            {
                "note": 85,
                "velocity": 112,
                "time": 0,
                "total_time": 109.20031070709229
            },
            {
                "note": 92,
                "velocity": 112,
                "time": 0,
                "total_time": 109.20042300224304
            },
            {
                "note": 61,
                "velocity": 96,
                "time": 0,
                "total_time": 109.20049834251404
            },
            {
                "note": 61,
                "velocity": 0,
                "time": 0.14874975208333333,
                "total_time": 109.34868168830872
            },
            {
                "note": 53,
                "velocity": 96,
                "time": 0.0012499979166666665,
                "total_time": 109.34992218017578
            },
            {
                "note": 53,
                "velocity": 0,
                "time": 0.14874975208333333,
                "total_time": 109.49870562553406
            },
            {
                "note": 56,
                "velocity": 96,
                "time": 0.0012499979166666665,
                "total_time": 109.49989080429077
            },
            {
                "note": 56,
                "velocity": 0,
                "time": 0.14874975208333333,
                "total_time": 109.6486508846283
            },
            {
                "note": 53,
                "velocity": 96,
                "time": 0.0012499979166666665,
                "total_time": 109.64989399909973
            },
            {
                "note": 80,
                "velocity": 0,
                "time": 0.14874975208333333,
                "total_time": 109.7986991405487
            },
            {
                "note": 85,
                "velocity": 0,
                "time": 0,
                "total_time": 109.79906415939331
            },
            {
                "note": 92,
                "velocity": 0,
                "time": 0,
                "total_time": 109.79910111427307
            },
            {
                "note": 53,
                "velocity": 0,
                "time": 0,
                "total_time": 109.79912519454956
            },
            {
                "note": 77,
                "velocity": 112,
                "time": 0.0012499979166666665,
                "total_time": 109.79987955093384
            },
            {
                "note": 80,
                "velocity": 112,
                "time": 0,
                "total_time": 109.79992151260376
            },
            {
                "note": 89,
                "velocity": 112,
                "time": 0,
                "total_time": 109.79994344711304
            },
            {
                "note": 49,
                "velocity": 96,
                "time": 0,
                "total_time": 109.79996395111084
            },
            {
                "note": 49,
                "velocity": 0,
                "time": 0.14874975208333333,
                "total_time": 109.9487566947937
            },
            {
                "note": 44,
                "velocity": 96,
                "time": 0.0012499979166666665,
                "total_time": 109.9499020576477
            },
            {
                "note": 77,
                "velocity": 0,
                "time": 0.14874975208333333,
                "total_time": 110.09877729415894
            },
            {
                "note": 80,
                "velocity": 0,
                "time": 0,
                "total_time": 110.09910702705383
            },
            {
                "note": 89,
                "velocity": 0,
                "time": 0,
                "total_time": 110.09924697875977
            },
            {
                "note": 44,
                "velocity": 0,
                "time": 0,
                "total_time": 110.09936809539795
            },
            {
                "note": 80,
                "velocity": 112,
                "time": 0.0012499979166666665,
                "total_time": 110.09993720054626
            },
            {
                "note": 89,
                "velocity": 112,
                "time": 0,
                "total_time": 110.10026931762695
            },
            {
                "note": 92,
                "velocity": 112,
                "time": 0,
                "total_time": 110.10041236877441
            },
            {
                "note": 41,
                "velocity": 96,
                "time": 0,
                "total_time": 110.10052752494812
            },
            {
                "note": 41,
                "velocity": 0,
                "time": 0.14874975208333333,
                "total_time": 110.24869465827942
            },
            {
                "note": 37,
                "velocity": 96,
                "time": 0.0012499979166666665,
                "total_time": 110.24989485740662
            },
            {
                "note": 80,
                "velocity": 0,
                "time": 0.13374977708333333,
                "total_time": 110.38375043869019
            },
            {
                "note": 89,
                "velocity": 0,
                "time": 0,
                "total_time": 110.3840491771698
            },
            {
                "note": 92,
                "velocity": 0,
                "time": 0,
                "total_time": 110.38414549827576
            },
            {
                "note": 37,
                "velocity": 0,
                "time": 0.007499987499999999,
                "total_time": 110.39118909835815
            },
            {
                "note": 34,
                "velocity": 0,
                "time": 0.007499987499999999,
                "total_time": 110.39869809150696
            },
            {
                "note": 91,
                "velocity": 112,
                "time": 0.0012499979166666665,
                "total_time": 110.39992165565491
            },
            {
                "note": 29,
                "velocity": 112,
                "time": 0,
                "total_time": 110.40014934539795
            },
            {
                "note": 91,
                "velocity": 0,
                "time": 0.14624975624999997,
                "total_time": 110.54866337776184
            },
            {
                "note": 92,
                "velocity": 112,
                "time": 0.0012499979166666665,
                "total_time": 110.54990100860596
            },
            {
                "note": 36,
                "velocity": 96,
                "time": 0,
                "total_time": 110.550053358078
            },
            {
                "note": 92,
                "velocity": 0,
                "time": 0.14874975208333333,
                "total_time": 110.69868326187134
            },
            {
                "note": 36,
                "velocity": 0,
                "time": 0,
                "total_time": 110.69882392883301
            },
            {
                "note": 91,
                "velocity": 112,
                "time": 0.0012499979166666665,
                "total_time": 110.69987726211548
            },
            {
                "note": 39,
                "velocity": 96,
                "time": 0,
                "total_time": 110.6999351978302
            },
            {
                "note": 91,
                "velocity": 0,
                "time": 0.14874975208333333,
                "total_time": 110.8486659526825
            },
            {
                "note": 39,
                "velocity": 0,
                "time": 0,
                "total_time": 110.84885358810425
            },
            {
                "note": 87,
                "velocity": 112,
                "time": 0.0012499979166666665,
                "total_time": 110.84991812705994
            },
            {
                "note": 43,
                "velocity": 96,
                "time": 0,
                "total_time": 110.85000109672546
            },
            {
                "note": 87,
                "velocity": 0,
                "time": 0.14124976458333333,
                "total_time": 110.99119591712952
            },
            {
                "note": 43,
                "velocity": 0,
                "time": 0.007499987499999999,
                "total_time": 110.99870824813843
            },
            {
                "note": 84,
                "velocity": 112,
                "time": 0.0012499979166666665,
                "total_time": 110.99999737739563
            },
            {
                "note": 48,
                "velocity": 96,
                "time": 0,
                "total_time": 111.00109887123108
            },
            {
                "note": 84,
                "velocity": 0,
                "time": 0.14874975208333333,
                "total_time": 111.14865827560425
            },
            {
                "note": 48,
                "velocity": 0,
                "time": 0,
                "total_time": 111.14878845214844
            },
            {
                "note": 75,
                "velocity": 112,
                "time": 0.0012499979166666665,
                "total_time": 111.1498920917511
            },
            {
                "note": 51,
                "velocity": 96,
                "time": 0,
                "total_time": 111.15000128746033
            },
            {
                "note": 75,
                "velocity": 0,
                "time": 0.14874975208333333,
                "total_time": 111.2987847328186
            },
            {
                "note": 51,
                "velocity": 0,
                "time": 0,
                "total_time": 111.29919767379761
            },
            {
                "note": 82,
                "velocity": 112,
                "time": 0.0012499979166666665,
                "total_time": 111.29997372627258
            },
            {
                "note": 55,
                "velocity": 96,
                "time": 0,
                "total_time": 111.30028486251831
            },
            {
                "note": 82,
                "velocity": 0,
                "time": 0.14874975208333333,
                "total_time": 111.44872093200684
            },
            {
                "note": 55,
                "velocity": 0,
                "time": 0,
                "total_time": 111.44891905784607
            },
            {
                "note": 80,
                "velocity": 112,
                "time": 0.0012499979166666665,
                "total_time": 111.44997811317444
            },
            {
                "note": 51,
                "velocity": 96,
                "time": 0,
                "total_time": 111.45018362998962
            },
            {
                "note": 80,
                "velocity": 0,
                "time": 0.14124976458333333,
                "total_time": 111.5912036895752
            },
            {
                "note": 51,
                "velocity": 0,
                "time": 0.007499987499999999,
                "total_time": 111.59887266159058
            },
            {
                "note": 70,
                "velocity": 127,
                "time": 0.0012499979166666665,
                "total_time": 111.59989929199219
            },
            {
                "note": 82,
                "velocity": 127,
                "time": 0,
                "total_time": 111.6000554561615
            },
            {
                "note": 60,
                "velocity": 96,
                "time": 0,
                "total_time": 111.60012722015381
            },
            {
                "note": 60,
                "velocity": 0,
                "time": 0.14874975208333333,
                "total_time": 111.74865579605103
            },
            {
                "note": 51,
                "velocity": 96,
                "time": 0.0012499979166666665,
                "total_time": 111.74996662139893
            },
            {
                "note": 51,
                "velocity": 0,
                "time": 0.14874975208333333,
                "total_time": 111.89864468574524
            },
            {
                "note": 55,
                "velocity": 96,
                "time": 0.0012499979166666665,
                "total_time": 111.89987516403198
            },
            {
                "note": 70,
                "velocity": 0,
                "time": 0.09999983333333332,
                "total_time": 112.000004529953
            },
            {
                "note": 82,
                "velocity": 0,
                "time": 0,
                "total_time": 112.00024843215942
            },
            {
                "note": 55,
                "velocity": 0,
                "time": 0.048749918749999996,
                "total_time": 112.04868865013123
            },
            {
                "note": 51,
                "velocity": 96,
                "time": 0.0012499979166666665,
                "total_time": 112.04990720748901
            },
            {
                "note": 51,
                "velocity": 0,
                "time": 0.14874975208333333,
                "total_time": 112.19868683815002
            },
            {
                "note": 75,
                "velocity": 112,
                "time": 0.0012499979166666665,
                "total_time": 112.19989275932312
            },
            {
                "note": 84,
                "velocity": 112,
                "time": 0,
                "total_time": 112.20009636878967
            },
            {
                "note": 87,
                "velocity": 112,
                "time": 0,
                "total_time": 112.2001564502716
            },
            {
                "note": 48,
                "velocity": 96,
                "time": 0,
                "total_time": 112.20017790794373
            },
            {
                "note": 48,
                "velocity": 0,
                "time": 0.14874975208333333,
                "total_time": 112.34864258766174
            },
            {
                "note": 43,
                "velocity": 96,
                "time": 0.0012499979166666665,
                "total_time": 112.34988069534302
            },
            {
                "note": 43,
                "velocity": 0,
                "time": 0.14874975208333333,
                "total_time": 112.49873971939087
            },
            {
                "note": 39,
                "velocity": 96,
                "time": 0.0012499979166666665,
                "total_time": 112.49999022483826
            },
            {
                "note": 39,
                "velocity": 0,
                "time": 0.14874975208333333,
                "total_time": 112.64869213104248
            },
            {
                "note": 43,
                "velocity": 96,
                "time": 0.0012499979166666665,
                "total_time": 112.64989614486694
            },
            {
                "note": 75,
                "velocity": 0,
                "time": 0.11874980208333331,
                "total_time": 112.7686755657196
            },
            {
                "note": 84,
                "velocity": 0,
                "time": 0,
                "total_time": 112.7689483165741
            },
            {
                "note": 87,
                "velocity": 0,
                "time": 0,
                "total_time": 112.7690532207489
            },
            {
                "note": 43,
                "velocity": 0,
                "time": 0.022499962499999998,
                "total_time": 112.79124665260315
            },
            {
                "note": 29,
                "velocity": 0,
                "time": 0.007499987499999999,
                "total_time": 112.79888248443604
            },
            {
                "note": 75,
                "velocity": 127,
                "time": 0.0012499979166666665,
                "total_time": 112.8000841140747
            },
            {
                "note": 80,
                "velocity": 127,
                "time": 0,
                "total_time": 112.80143070220947
            },
            {
                "note": 83,
                "velocity": 127,
                "time": 0,
                "total_time": 112.80262565612793
            },
            {
                "note": 87,
                "velocity": 127,
                "time": 0,
                "total_time": 112.80294156074524
            },
            {
                "note": 40,
                "velocity": 112,
                "time": 0,
                "total_time": 112.80312490463257
            },
            {
                "note": 44,
                "velocity": 96,
                "time": 0,
                "total_time": 112.95013952255249
            },
            {
                "note": 44,
                "velocity": 0,
                "time": 0.14874975208333333,
                "total_time": 113.09869527816772
            },
            {
                "note": 47,
                "velocity": 96,
                "time": 0.0012499979166666665,
                "total_time": 113.09989786148071
            },
            {
                "note": 47,
                "velocity": 0,
                "time": 0.14874975208333333,
                "total_time": 113.24867272377014
            },
            {
                "note": 51,
                "velocity": 96,
                "time": 0.0012499979166666665,
                "total_time": 113.24985575675964
            },
            {
                "note": 51,
                "velocity": 0,
                "time": 0.14874975208333333,
                "total_time": 113.39868927001953
            },
            {
                "note": 56,
                "velocity": 96,
                "time": 0.0012499979166666665,
                "total_time": 113.39993524551392
            },
            {
                "note": 56,
                "velocity": 0,
                "time": 0.14874975208333333,
                "total_time": 113.54876637458801
            },
            {
                "note": 59,
                "velocity": 96,
                "time": 0.0012499979166666665,
                "total_time": 113.54992890357971
            },
            {
                "note": 75,
                "velocity": 0,
                "time": 0.052499912499999996,
                "total_time": 113.60247421264648
            },
            {
                "note": 80,
                "velocity": 0,
                "time": 0,
                "total_time": 113.60274839401245
            },
            {
                "note": 83,
                "velocity": 0,
                "time": 0,
                "total_time": 113.60284113883972
            },
            {
                "note": 87,
                "velocity": 0,
                "time": 0,
                "total_time": 113.60287070274353
            },
            {
                "note": 59,
                "velocity": 0,
                "time": 0.09624983958333332,
                "total_time": 113.69868540763855
            },
            {
                "note": 63,
                "velocity": 96,
                "time": 0.0012499979166666665,
                "total_time": 113.69988322257996
            },
            {
                "note": 63,
                "velocity": 0,
                "time": 0.14874975208333333,
                "total_time": 113.84869027137756
            },
            {
                "note": 59,
                "velocity": 96,
                "time": 0.0012499979166666665,
                "total_time": 113.84988784790039
            },
            {
                "note": 59,
                "velocity": 0,
                "time": 0.14874975208333333,
                "total_time": 113.99868535995483
            },
            {
                "note": 78,
                "velocity": 112,
                "time": 0.0012499979166666665,
                "total_time": 113.99989628791809
            },
            {
                "note": 87,
                "velocity": 112,
                "time": 0,
                "total_time": 114.00003862380981
            },
            {
                "note": 90,
                "velocity": 112,
                "time": 0,
                "total_time": 114.00008249282837
            },
            {
                "note": 68,
                "velocity": 96,
                "time": 0,
                "total_time": 114.00011587142944
            },
            {
                "note": 68,
                "velocity": 0,
                "time": 0.14874975208333333,
                "total_time": 114.14877605438232
            },
            {
                "note": 59,
                "velocity": 96,
                "time": 0.0012499979166666665,
                "total_time": 114.14990639686584
            },
            {
                "note": 59,
                "velocity": 0,
                "time": 0.14874975208333333,
                "total_time": 114.29871487617493
            },
            {
                "note": 63,
                "velocity": 96,
                "time": 0.0012499979166666665,
                "total_time": 114.29996490478516
            },
            {
                "note": 63,
                "velocity": 0,
                "time": 0.14874975208333333,
                "total_time": 114.44867467880249
            },
            {
                "note": 59,
                "velocity": 96,
                "time": 0.0012499979166666665,
                "total_time": 114.44987106323242
            },
            {
                "note": 78,
                "velocity": 0,
                "time": 0.14874975208333333,
                "total_time": 114.59869813919067
            },
            {
                "note": 87,
                "velocity": 0,
                "time": 0,
                "total_time": 114.59912490844727
            },
            {
                "note": 90,
                "velocity": 0,
                "time": 0,
                "total_time": 114.59946131706238
            },
            {
                "note": 59,
                "velocity": 0,
                "time": 0,
                "total_time": 114.59962749481201
            },
            {
                "note": 80,
                "velocity": 112,
                "time": 0.0012499979166666665,
                "total_time": 114.60010981559753
            },
            {
                "note": 83,
                "velocity": 112,
                "time": 0,
                "total_time": 114.6003668308258
            },
            {
                "note": 92,
                "velocity": 112,
                "time": 0,
                "total_time": 114.6004707813263
            },
            {
                "note": 56,
                "velocity": 96,
                "time": 0,
                "total_time": 114.60056710243225
            },
            {
                "note": 56,
                "velocity": 0,
                "time": 0.14874975208333333,
                "total_time": 114.74866271018982
            },
            {
                "note": 51,
                "velocity": 96,
                "time": 0.0012499979166666665,
                "total_time": 114.74992179870605
            },
            {
                "note": 51,
                "velocity": 0,
                "time": 0.14874975208333333,
                "total_time": 114.89864134788513
            },
            {
                "note": 47,
                "velocity": 96,
                "time": 0.0012499979166666665,
                "total_time": 114.89987301826477
            },
            {
                "note": 47,
                "velocity": 0,
                "time": 0.14874975208333333,
                "total_time": 115.0486466884613
            },
            {
                "note": 44,
                "velocity": 96,
                "time": 0.0012499979166666665,
                "total_time": 115.04990696907043
            },
            {
                "note": 80,
                "velocity": 0,
                "time": 0.11874980208333331,
                "total_time": 115.16877245903015
            },
            {
                "note": 83,
                "velocity": 0,
                "time": 0,
                "total_time": 115.16913509368896
            },
            {
                "note": 92,
                "velocity": 0,
                "time": 0,
                "total_time": 115.16925835609436
            },
            {
                "note": 44,
                "velocity": 0,
                "time": 0.022499962499999998,
                "total_time": 115.19117283821106
            },
            {
                "note": 40,
                "velocity": 0,
                "time": 0.007499987499999999,
                "total_time": 115.19888067245483
            },
            {
                "note": 82,
                "velocity": 127,
                "time": 0.0012499979166666665,
                "total_time": 115.19992089271545
            },
            {
                "note": 87,
                "velocity": 127,
                "time": 0,
                "total_time": 115.20018935203552
            },
            {
                "note": 90,
                "velocity": 127,
                "time": 0,
                "total_time": 115.20044445991516
            },
            {
                "note": 94,
                "velocity": 127,
                "time": 0,
                "total_time": 115.20073342323303
            },
            {
                "note": 39,
                "velocity": 112,
                "time": 0,
                "total_time": 115.20096158981323
            },
            {
                "note": 42,
                "velocity": 96,
                "time": 0,
                "total_time": 115.35005760192871
            },
            {
                "note": 42,
                "velocity": 0,
                "time": 0.14874975208333333,
                "total_time": 115.49868869781494
            },
            {
                "note": 46,
                "velocity": 96,
                "time": 0.0012499979166666665,
                "total_time": 115.49990653991699
            },
            {
                "note": 46,
                "velocity": 0,
                "time": 0.14874975208333333,
                "total_time": 115.64867424964905
            },
            {
                "note": 51,
                "velocity": 96,
                "time": 0.0012499979166666665,
                "total_time": 115.64991402626038
            },
            {
                "note": 51,
                "velocity": 0,
                "time": 0.14874975208333333,
                "total_time": 115.79866600036621
            },
            {
                "note": 54,
                "velocity": 96,
                "time": 0.0012499979166666665,
                "total_time": 115.79987239837646
            },
            {
                "note": 54,
                "velocity": 0,
                "time": 0.14874975208333333,
                "total_time": 115.94866299629211
            },
            {
                "note": 58,
                "velocity": 96,
                "time": 0.0012499979166666665,
                "total_time": 115.949866771698
            },
            {
                "note": 82,
                "velocity": 0,
                "time": 0.052499912499999996,
                "total_time": 116.00238585472107
            },
            {
                "note": 87,
                "velocity": 0,
                "time": 0,
                "total_time": 116.00247955322266
            },
            {
                "note": 90,
                "velocity": 0,
                "time": 0,
                "total_time": 116.0024983882904
            },
            {
                "note": 94,
                "velocity": 0,
                "time": 0,
                "total_time": 116.00251364707947
            },
            {
                "note": 58,
                "velocity": 0,
                "time": 0.09624983958333332,
                "total_time": 116.09864854812622
            },
            {
                "note": 63,
                "velocity": 96,
                "time": 0.0012499979166666665,
                "total_time": 116.09986686706543
            },
            {
                "note": 63,
                "velocity": 0,
                "time": 0.14874975208333333,
                "total_time": 116.24867582321167
            },
            {
                "note": 58,
                "velocity": 96,
                "time": 0.0012499979166666665,
                "total_time": 116.24997472763062
            },
            {
                "note": 58,
                "velocity": 0,
                "time": 0.14874975208333333,
                "total_time": 116.39868783950806
            },
            {
                "note": 87,
                "velocity": 112,
                "time": 0.0012499979166666665,
                "total_time": 116.39991450309753
            },
            {
                "note": 66,
                "velocity": 96,
                "time": 0,
                "total_time": 116.40011429786682
            },
            {
                "note": 87,
                "velocity": 0,
                "time": 0.09874983541666665,
                "total_time": 116.49867248535156
            },
            {
                "note": 89,
                "velocity": 112,
                "time": 0.0012499979166666665,
                "total_time": 116.49989771842957
            },
            {
                "note": 66,
                "velocity": 0,
                "time": 0.048749918749999996,
                "total_time": 116.54866123199463
            },
            {
                "note": 58,
                "velocity": 96,
                "time": 0.0012499979166666665,
                "total_time": 116.54989385604858
            },
            {
                "note": 89,
                "velocity": 0,
                "time": 0.048749918749999996,
                "total_time": 116.5988712310791
            },
            {
                "note": 87,
                "velocity": 112,
                "time": 0.0012499979166666665,
                "total_time": 116.6000463962555
            },
            {
                "note": 87,
                "velocity": 0,
                "time": 0.09874983541666665,
                "total_time": 116.69877648353577
            },
            {
                "note": 58,
                "velocity": 0,
                "time": 0,
                "total_time": 116.69909000396729
            },
            {
                "note": 90,
                "velocity": 112,
                "time": 0.0012499979166666665,
                "total_time": 116.6999933719635
            },
            {
                "note": 63,
                "velocity": 96,
                "time": 0,
                "total_time": 116.70025181770325
            },
            {
                "note": 90,
                "velocity": 0,
                "time": 0.09874983541666665,
                "total_time": 116.79868578910828
            },
            {
                "note": 92,
                "velocity": 112,
                "time": 0.0012499979166666665,
                "total_time": 116.79990124702454
            },
            {
                "note": 63,
                "velocity": 0,
                "time": 0.048749918749999996,
                "total_time": 116.84866833686829
            },
            {
                "note": 58,
                "velocity": 96,
                "time": 0.0012499979166666665,
                "total_time": 116.84989738464355
            },
            {
                "note": 92,
                "velocity": 0,
                "time": 0.048749918749999996,
                "total_time": 116.89867877960205
            },
            {
                "note": 94,
                "velocity": 112,
                "time": 0.0012499979166666665,
                "total_time": 116.89987397193909
            },
            {
                "note": 94,
                "velocity": 0,
                "time": 0.09874983541666665,
                "total_time": 116.99866056442261
            },
            {
                "note": 58,
                "velocity": 0,
                "time": 0,
                "total_time": 116.99873995780945
            },
            {
                "note": 99,
                "velocity": 112,
                "time": 0.0012499979166666665,
                "total_time": 116.99986410140991
            },
            {
                "note": 54,
                "velocity": 96,
                "time": 0,
                "total_time": 116.99988293647766
            },
            {
                "note": 99,
                "velocity": 0,
                "time": 0.09874983541666665,
                "total_time": 117.09866666793823
            },
            {
                "note": 94,
                "velocity": 112,
                "time": 0.0012499979166666665,
                "total_time": 117.09986519813538
            },
            {
                "note": 54,
                "velocity": 0,
                "time": 0.048749918749999996,
                "total_time": 117.14865922927856
            },
            {
                "note": 51,
                "velocity": 96,
                "time": 0.0012499979166666665,
                "total_time": 117.14987444877625
            },
            {
                "note": 94,
                "velocity": 0,
                "time": 0.048749918749999996,
                "total_time": 117.19869184494019
            },
            {
                "note": 90,
                "velocity": 112,
                "time": 0.0012499979166666665,
                "total_time": 117.19990229606628
            },
            {
                "note": 90,
                "velocity": 0,
                "time": 0.09874983541666665,
                "total_time": 117.29865312576294
            },
            {
                "note": 51,
                "velocity": 0,
                "time": 0,
                "total_time": 117.29891586303711
            },
            {
                "note": 89,
                "velocity": 112,
                "time": 0.0012499979166666665,
                "total_time": 117.29988622665405
            },
            {
                "note": 46,
                "velocity": 96,
                "time": 0,
                "total_time": 117.2999746799469
            },
            {
                "note": 89,
                "velocity": 0,
                "time": 0.09874983541666665,
                "total_time": 117.39865803718567
            },
            {
                "note": 87,
                "velocity": 112,
                "time": 0.0012499979166666665,
                "total_time": 117.39988875389099
            },
            {
                "note": 46,
                "velocity": 0,
                "time": 0.048749918749999996,
                "total_time": 117.44867658615112
            },
            {
                "note": 42,
                "velocity": 96,
                "time": 0.0012499979166666665,
                "total_time": 117.44986891746521
            },
            {
                "note": 87,
                "velocity": 0,
                "time": 0.048749918749999996,
                "total_time": 117.49863862991333
            },
            {
                "note": 82,
                "velocity": 112,
                "time": 0.0012499979166666665,
                "total_time": 117.49987006187439
            },
            {
                "note": 42,
                "velocity": 0,
                "time": 0.09124984791666665,
                "total_time": 117.5911853313446
            },
            {
                "note": 82,
                "velocity": 0,
                "time": 0.002499995833333333,
                "total_time": 117.59372663497925
            },
            {
                "note": 39,
                "velocity": 0,
                "time": 0.004999991666666666,
                "total_time": 117.59868049621582
            },
            {
                "note": 77,
                "velocity": 112,
                "time": 0.0012499979166666665,
                "total_time": 117.59981632232666
            },
            {
                "note": 89,
                "velocity": 112,
                "time": 0,
                "total_time": 117.599924325943
            },
            {
                "note": 34,
                "velocity": 112,
                "time": 0,
                "total_time": 117.59995770454407
            },
            {
                "note": 37,
                "velocity": 96,
                "time": 0,
                "total_time": 117.7500479221344
            },
            {
                "note": 77,
                "velocity": 0,
                "time": 0.14874975208333333,
                "total_time": 117.89869046211243
            },
            {
                "note": 89,
                "velocity": 0,
                "time": 0,
                "total_time": 117.8992509841919
            },
            {
                "note": 37,
                "velocity": 0,
                "time": 0,
                "total_time": 117.8994653224945
            },
            {
                "note": 78,
                "velocity": 112,
                "time": 0.0012499979166666665,
                "total_time": 117.89990401268005
            },
            {
                "note": 80,
                "velocity": 112,
                "time": 0,
                "total_time": 117.90013360977173
            },
            {
                "note": 85,
                "velocity": 112,
                "time": 0,
                "total_time": 117.90025591850281
            },
            {
                "note": 90,
                "velocity": 112,
                "time": 0,
                "total_time": 117.90036797523499
            },
            {
                "note": 41,
                "velocity": 96,
                "time": 0,
                "total_time": 117.90047526359558
            },
            {
                "note": 41,
                "velocity": 0,
                "time": 0.14874975208333333,
                "total_time": 118.04869961738586
            },
            {
                "note": 44,
                "velocity": 96,
                "time": 0.0012499979166666665,
                "total_time": 118.04998207092285
            },
            {
                "note": 78,
                "velocity": 0,
                "time": 0.14874975208333333,
                "total_time": 118.19885659217834
            },
            {
                "note": 80,
                "velocity": 0,
                "time": 0,
                "total_time": 118.19915890693665
            },
            {
                "note": 85,
                "velocity": 0,
                "time": 0,
                "total_time": 118.19928479194641
            },
            {
                "note": 90,
                "velocity": 0,
                "time": 0,
                "total_time": 118.19944739341736
            },
            {
                "note": 44,
                "velocity": 0,
                "time": 0,
                "total_time": 118.19955396652222
            },
            {
                "note": 80,
                "velocity": 112,
                "time": 0.0012499979166666665,
                "total_time": 118.20012187957764
            },
            {
                "note": 89,
                "velocity": 112,
                "time": 0,
                "total_time": 118.200847864151
            },
            {
                "note": 92,
                "velocity": 112,
                "time": 0,
                "total_time": 118.2010395526886
            },
            {
                "note": 49,
                "velocity": 96,
                "time": 0,
                "total_time": 118.20112299919128
            },
            {
                "note": 49,
                "velocity": 0,
                "time": 0.14874975208333333,
                "total_time": 118.34862756729126
            },
            {
                "note": 53,
                "velocity": 96,
                "time": 0.0012499979166666665,
                "total_time": 118.34988641738892
            },
            {
                "note": 80,
                "velocity": 0,
                "time": 0.14874975208333333,
                "total_time": 118.49863338470459
            },
            {
                "note": 89,
                "velocity": 0,
                "time": 0,
                "total_time": 118.4987268447876
            },
            {
                "note": 92,
                "velocity": 0,
                "time": 0,
                "total_time": 118.49875497817993
            },
            {
                "note": 53,
                "velocity": 0,
                "time": 0,
                "total_time": 118.49877715110779
            },
            {
                "note": 85,
                "velocity": 112,
                "time": 0.0012499979166666665,
                "total_time": 118.49986624717712
            },
            {
                "note": 92,
                "velocity": 112,
                "time": 0,
                "total_time": 118.49990773200989
            },
            {
                "note": 97,
                "velocity": 112,
                "time": 0,
                "total_time": 118.49992871284485
            },
            {
                "note": 56,
                "velocity": 96,
                "time": 0,
                "total_time": 118.49995112419128
            },
            {
                "note": 56,
                "velocity": 0,
                "time": 0.14874975208333333,
                "total_time": 118.64869165420532
            },
            {
                "note": 53,
                "velocity": 96,
                "time": 0.0012499979166666665,
                "total_time": 118.64990878105164
            },
            {
                "note": 85,
                "velocity": 0,
                "time": 0.13374977708333333,
                "total_time": 118.78367066383362
            },
            {
                "note": 92,
                "velocity": 0,
                "time": 0,
                "total_time": 118.78393220901489
            },
            {
                "note": 97,
                "velocity": 0,
                "time": 0,
                "total_time": 118.78402829170227
            },
            {
                "note": 53,
                "velocity": 0,
                "time": 0.014999974999999999,
                "total_time": 118.79870390892029
            },
            {
                "note": 73,
                "velocity": 127,
                "time": 0.0012499979166666665,
                "total_time": 118.79988932609558
            },
            {
                "note": 77,
                "velocity": 127,
                "time": 0,
                "total_time": 118.80009365081787
            },
            {
                "note": 85,
                "velocity": 127,
                "time": 0,
                "total_time": 118.80016446113586
            },
            {
                "note": 61,
                "velocity": 96,
                "time": 0,
                "total_time": 118.80022287368774
            },
            {
                "note": 61,
                "velocity": 0,
                "time": 0.14874975208333333,
                "total_time": 118.94885873794556
            },
            {
                "note": 53,
                "velocity": 96,
                "time": 0.0012499979166666665,
                "total_time": 118.94988417625427
            },
            {
                "note": 53,
                "velocity": 0,
                "time": 0.14874975208333333,
                "total_time": 119.09862685203552
            },
            {
                "note": 56,
                "velocity": 96,
                "time": 0.0012499979166666665,
                "total_time": 119.09986591339111
            },
            {
                "note": 73,
                "velocity": 0,
                "time": 0.09999983333333332,
                "total_time": 119.19993901252747
            },
            {
                "note": 77,
                "velocity": 0,
                "time": 0,
                "total_time": 119.20020389556885
            },
            {
                "note": 85,
                "velocity": 0,
                "time": 0,
                "total_time": 119.2002203464508
            },
            {
                "note": 56,
                "velocity": 0,
                "time": 0.048749918749999996,
                "total_time": 119.24864649772644
            },
            {
                "note": 53,
                "velocity": 96,
                "time": 0.0012499979166666665,
                "total_time": 119.24993944168091
            },
            {
                "note": 53,
                "velocity": 0,
                "time": 0.14874975208333333,
                "total_time": 119.39865207672119
            },
            {
                "note": 77,
                "velocity": 112,
                "time": 0.0012499979166666665,
                "total_time": 119.39989733695984
            },
            {
                "note": 85,
                "velocity": 112,
                "time": 0,
                "total_time": 119.40007781982422
            },
            {
                "note": 89,
                "velocity": 112,
                "time": 0,
                "total_time": 119.40013670921326
            },
            {
                "note": 49,
                "velocity": 96,
                "time": 0,
                "total_time": 119.4001841545105
            },
            {
                "note": 49,
                "velocity": 0,
                "time": 0.14874975208333333,
                "total_time": 119.54888010025024
            },
            {
                "note": 44,
                "velocity": 96,
                "time": 0.0012499979166666665,
                "total_time": 119.54989862442017
            },
            {
                "note": 44,
                "velocity": 0,
                "time": 0.14874975208333333,
                "total_time": 119.69867753982544
            },
            {
                "note": 41,
                "velocity": 96,
                "time": 0.0012499979166666665,
                "total_time": 119.69991755485535
            },
            {
                "note": 41,
                "velocity": 0,
                "time": 0.14874975208333333,
                "total_time": 119.84866046905518
            },
            {
                "note": 37,
                "velocity": 96,
                "time": 0.0012499979166666665,
                "total_time": 119.84993267059326
            },
            {
                "note": 77,
                "velocity": 0,
                "time": 0.11874980208333331,
                "total_time": 119.96866011619568
            },
            {
                "note": 85,
                "velocity": 0,
                "time": 0,
                "total_time": 119.9690010547638
            },
            {
                "note": 89,
                "velocity": 0,
                "time": 0,
                "total_time": 119.96906566619873
            },
            {
                "note": 37,
                "velocity": 0,
                "time": 0.022499962499999998,
                "total_time": 119.99112677574158
            },
            {
                "note": 34,
                "velocity": 0,
                "time": 0.007499987499999999,
                "total_time": 119.99869418144226
            },
            {
                "note": 75,
                "velocity": 127,
                "time": 0.0012499979166666665,
                "total_time": 119.99984860420227
            },
            {
                "note": 84,
                "velocity": 127,
                "time": 0,
                "total_time": 119.99990272521973
            },
            {
                "note": 87,
                "velocity": 127,
                "time": 0,
                "total_time": 119.99992823600769
            },
            {
                "note": 29,
                "velocity": 112,
                "time": 0,
                "total_time": 119.99996161460876
            },
            {
                "note": 36,
                "velocity": 96,
                "time": 0,
                "total_time": 120.14998626708984
            },
            {
                "note": 36,
                "velocity": 0,
                "time": 0.14874975208333333,
                "total_time": 120.29863691329956
            },
            {
                "note": 39,
                "velocity": 96,
                "time": 0.0012499979166666665,
                "total_time": 120.29987263679504
            },
            {
                "note": 75,
                "velocity": 0,
                "time": 0.09999983333333332,
                "total_time": 120.39989495277405
            },
            {
                "note": 84,
                "velocity": 0,
                "time": 0,
                "total_time": 120.40006136894226
            },
            {
                "note": 87,
                "velocity": 0,
                "time": 0,
                "total_time": 120.40013027191162
            },
            {
                "note": 39,
                "velocity": 0,
                "time": 0.048749918749999996,
                "total_time": 120.44867849349976
            },
            {
                "note": 43,
                "velocity": 96,
                "time": 0.0012499979166666665,
                "total_time": 120.44989681243896
            },
            {
                "note": 43,
                "velocity": 0,
                "time": 0.14874975208333333,
                "total_time": 120.5986590385437
            },
            {
                "note": 77,
                "velocity": 112,
                "time": 0.0012499979166666665,
                "total_time": 120.59986805915833
            },
            {
                "note": 80,
                "velocity": 112,
                "time": 0,
                "total_time": 120.59994769096375
            },
            {
                "note": 89,
                "velocity": 112,
                "time": 0,
                "total_time": 120.59997630119324
            },
            {
                "note": 48,
                "velocity": 96,
                "time": 0,
                "total_time": 120.60000038146973
            },
            {
                "note": 48,
                "velocity": 0,
                "time": 0.14874975208333333,
                "total_time": 120.74869084358215
            },
            {
                "note": 51,
                "velocity": 96,
                "time": 0.0012499979166666665,
                "total_time": 120.74989128112793
            },
            {
                "note": 51,
                "velocity": 0,
                "time": 0.14874975208333333,
                "total_time": 120.89867377281189
            },
            {
                "note": 55,
                "velocity": 96,
                "time": 0.0012499979166666665,
                "total_time": 120.89989161491394
            },
            {
                "note": 55,
                "velocity": 0,
                "time": 0.14874975208333333,
                "total_time": 121.04862689971924
            },
            {
                "note": 51,
                "velocity": 96,
                "time": 0.0012499979166666665,
                "total_time": 121.04986643791199
            },
            {
                "note": 77,
                "velocity": 0,
                "time": 0.11874980208333331,
                "total_time": 121.1687638759613
            },
            {
                "note": 80,
                "velocity": 0,
                "time": 0,
                "total_time": 121.1690285205841
            },
            {
                "note": 89,
                "velocity": 0,
                "time": 0,
                "total_time": 121.1690559387207
            },
            {
                "note": 51,
                "velocity": 0,
                "time": 0.029999949999999997,
                "total_time": 121.19866228103638
            },
            {
                "note": 70,
                "velocity": 112,
                "time": 0.0012499979166666665,
                "total_time": 121.19986486434937
            },
            {
                "note": 75,
                "velocity": 112,
                "time": 0,
                "total_time": 121.19993495941162
            },
            {
                "note": 82,
                "velocity": 112,
                "time": 0,
                "total_time": 121.19995927810669
            },
            {
                "note": 60,
                "velocity": 96,
                "time": 0,
                "total_time": 121.19998073577881
            },
            {
                "note": 60,
                "velocity": 0,
                "time": 0.14874975208333333,
                "total_time": 121.34865665435791
            },
            {
                "note": 51,
                "velocity": 96,
                "time": 0.0012499979166666665,
                "total_time": 121.3498694896698
            },
            {
                "note": 51,
                "velocity": 0,
                "time": 0.14874975208333333,
                "total_time": 121.4986572265625
            },
            {
                "note": 55,
                "velocity": 96,
                "time": 0.0012499979166666665,
                "total_time": 121.49994373321533
            },
            {
                "note": 55,
                "velocity": 0,
                "time": 0.14874975208333333,
                "total_time": 121.64868235588074
            },
            {
                "note": 51,
                "velocity": 96,
                "time": 0.0012499979166666665,
                "total_time": 121.64988350868225
            },
            {
                "note": 70,
                "velocity": 0,
                "time": 0.11874980208333331,
                "total_time": 121.76864719390869
            },
            {
                "note": 75,
                "velocity": 0,
                "time": 0,
                "total_time": 121.76892304420471
            },
            {
                "note": 82,
                "velocity": 0,
                "time": 0,
                "total_time": 121.76901364326477
            },
            {
                "note": 51,
                "velocity": 0,
                "time": 0.029999949999999997,
                "total_time": 121.79867148399353
            },
            {
                "note": 75,
                "velocity": 112,
                "time": 0.0012499979166666665,
                "total_time": 121.799889087677
            },
            {
                "note": 79,
                "velocity": 112,
                "time": 0,
                "total_time": 121.80008149147034
            },
            {
                "note": 87,
                "velocity": 112,
                "time": 0,
                "total_time": 121.80016613006592
            },
            {
                "note": 48,
                "velocity": 96,
                "time": 0,
                "total_time": 121.80023741722107
            },
            {
                "note": 48,
                "velocity": 0,
                "time": 0.14874975208333333,
                "total_time": 121.9486436843872
            },
            {
                "note": 43,
                "velocity": 96,
                "time": 0.0012499979166666665,
                "total_time": 121.94990348815918
            },
            {
                "note": 43,
                "velocity": 0,
                "time": 0.14874975208333333,
                "total_time": 122.09866237640381
            },
            {
                "note": 39,
                "velocity": 96,
                "time": 0.0012499979166666665,
                "total_time": 122.09988474845886
            },
            {
                "note": 39,
                "velocity": 0,
                "time": 0.14874975208333333,
                "total_time": 122.24862313270569
            },
            {
                "note": 43,
                "velocity": 96,
                "time": 0.0012499979166666665,
                "total_time": 122.24986362457275
            },
            {
                "note": 75,
                "velocity": 0,
                "time": 0.11874980208333331,
                "total_time": 122.3686192035675
            },
            {
                "note": 79,
                "velocity": 0,
                "time": 0,
                "total_time": 122.3686990737915
            },
            {
                "note": 87,
                "velocity": 0,
                "time": 0,
                "total_time": 122.36871647834778
            },
            {
                "note": 43,
                "velocity": 0,
                "time": 0.022499962499999998,
                "total_time": 122.39113211631775
            },
            {
                "note": 29,
                "velocity": 0,
                "time": 0.007499987499999999,
                "total_time": 122.3986337184906
            },
            {
                "note": 80,
                "velocity": 127,
                "time": 0.0012499979166666665,
                "total_time": 122.39983868598938
            },
            {
                "note": 83,
                "velocity": 127,
                "time": 0,
                "total_time": 122.39988660812378
            },
            {
                "note": 92,
                "velocity": 127,
                "time": 0,
                "total_time": 122.39990258216858
            },
            {
                "note": 40,
                "velocity": 112,
                "time": 0,
                "total_time": 122.39992356300354
            },
            {
                "note": 44,
                "velocity": 96,
                "time": 0,
                "total_time": 122.55012536048889
            },
            {
                "note": 44,
                "velocity": 0,
                "time": 0.14874975208333333,
                "total_time": 122.6986792087555
            },
            {
                "note": 47,
                "velocity": 96,
                "time": 0.0012499979166666665,
                "total_time": 122.69986486434937
            },
            {
                "note": 80,
                "velocity": 0,
                "time": 0.09999983333333332,
                "total_time": 122.79991698265076
            },
            {
                "note": 83,
                "velocity": 0,
                "time": 0,
                "total_time": 122.80010461807251
            },
            {
                "note": 92,
                "velocity": 0,
                "time": 0,
                "total_time": 122.8001458644867
            },
            {
                "note": 47,
                "velocity": 0,
                "time": 0.048749918749999996,
                "total_time": 122.84862017631531
            },
            {
                "note": 51,
                "velocity": 96,
                "time": 0.0012499979166666665,
                "total_time": 122.84985661506653
            },
            {
                "note": 51,
                "velocity": 0,
                "time": 0.14874975208333333,
                "total_time": 122.99865937232971
            },
            {
                "note": 82,
                "velocity": 112,
                "time": 0.0012499979166666665,
                "total_time": 122.99988913536072
            },
            {
                "note": 87,
                "velocity": 112,
                "time": 0,
                "total_time": 123.000079870224
            },
            {
                "note": 94,
                "velocity": 112,
                "time": 0,
                "total_time": 123.0001277923584
            },
            {
                "note": 56,
                "velocity": 96,
                "time": 0,
                "total_time": 123.00016498565674
            },
            {
                "note": 56,
                "velocity": 0,
                "time": 0.14874975208333333,
                "total_time": 123.14867329597473
            },
            {
                "note": 59,
                "velocity": 96,
                "time": 0.0012499979166666665,
                "total_time": 123.14995670318604
            },
            {
                "note": 59,
                "velocity": 0,
                "time": 0.14874975208333333,
                "total_time": 123.29865384101868
            },
            {
                "note": 63,
                "velocity": 96,
                "time": 0.0012499979166666665,
                "total_time": 123.29984879493713
            },
            {
                "note": 63,
                "velocity": 0,
                "time": 0.14874975208333333,
                "total_time": 123.44865250587463
            },
            {
                "note": 59,
                "velocity": 96,
                "time": 0.0012499979166666665,
                "total_time": 123.44984245300293
            },
            {
                "note": 82,
                "velocity": 0,
                "time": 0.11874980208333331,
                "total_time": 123.56865954399109
            },
            {
                "note": 87,
                "velocity": 0,
                "time": 0,
                "total_time": 123.56905388832092
            },
            {
                "note": 94,
                "velocity": 0,
                "time": 0,
                "total_time": 123.56915330886841
            },
            {
                "note": 59,
                "velocity": 0,
                "time": 0.029999949999999997,
                "total_time": 123.59872841835022
            },
            {
                "note": 73,
                "velocity": 112,
                "time": 0.0012499979166666665,
                "total_time": 123.59999465942383
            },
            {
                "note": 75,
                "velocity": 112,
                "time": 0,
                "total_time": 123.60036706924438
            },
            {
                "note": 85,
                "velocity": 112,
                "time": 0,
                "total_time": 123.60055446624756
            },
            {
                "note": 68,
                "velocity": 96,
                "time": 0,
                "total_time": 123.60094738006592
            },
            {
                "note": 68,
                "velocity": 0,
                "time": 0.14874975208333333,
                "total_time": 123.74867916107178
            },
            {
                "note": 59,
                "velocity": 96,
                "time": 0.0012499979166666665,
                "total_time": 123.74986004829407
            },
            {
                "note": 59,
                "velocity": 0,
                "time": 0.14874975208333333,
                "total_time": 123.89866089820862
            },
            {
                "note": 63,
                "velocity": 96,
                "time": 0.0012499979166666665,
                "total_time": 123.89987683296204
            },
            {
                "note": 63,
                "velocity": 0,
                "time": 0.14874975208333333,
                "total_time": 124.04867506027222
            },
            {
                "note": 59,
                "velocity": 96,
                "time": 0.0012499979166666665,
                "total_time": 124.04988169670105
            },
            {
                "note": 73,
                "velocity": 0,
                "time": 0.11874980208333331,
                "total_time": 124.1686761379242
            },
            {
                "note": 75,
                "velocity": 0,
                "time": 0,
                "total_time": 124.16904306411743
            },
            {
                "note": 85,
                "velocity": 0,
                "time": 0,
                "total_time": 124.16917109489441
            },
            {
                "note": 59,
                "velocity": 0,
                "time": 0.029999949999999997,
                "total_time": 124.19868659973145
            },
            {
                "note": 85,
                "velocity": 112,
                "time": 0.0012499979166666665,
                "total_time": 124.19989347457886
            },
            {
                "note": 92,
                "velocity": 112,
                "time": 0,
                "total_time": 124.20024394989014
            },
            {
                "note": 97,
                "velocity": 112,
                "time": 0,
                "total_time": 124.2003743648529
            },
            {
                "note": 56,
                "velocity": 96,
                "time": 0,
                "total_time": 124.20047688484192
            },
            {
                "note": 56,
                "velocity": 0,
                "time": 0.14874975208333333,
                "total_time": 124.3486635684967
            },
            {
                "note": 51,
                "velocity": 96,
                "time": 0.0012499979166666665,
                "total_time": 124.34983253479004
            },
            {
                "note": 51,
                "velocity": 0,
                "time": 0.14874975208333333,
                "total_time": 124.49865007400513
            },
            {
                "note": 47,
                "velocity": 96,
                "time": 0.0012499979166666665,
                "total_time": 124.49983787536621
            },
            {
                "note": 47,
                "velocity": 0,
                "time": 0.14874975208333333,
                "total_time": 124.64875292778015
            },
            {
                "note": 44,
                "velocity": 96,
                "time": 0.0012499979166666665,
                "total_time": 124.64999794960022
            },
            {
                "note": 85,
                "velocity": 0,
                "time": 0.11874980208333331,
                "total_time": 124.76872682571411
            },
            {
                "note": 92,
                "velocity": 0,
                "time": 0,
                "total_time": 124.76901125907898
            },
            {
                "note": 97,
                "velocity": 0,
                "time": 0,
                "total_time": 124.76909756660461
            },
            {
                "note": 44,
                "velocity": 0,
                "time": 0.022499962499999998,
                "total_time": 124.79117822647095
            },
            {
                "note": 40,
                "velocity": 0,
                "time": 0.007499987499999999,
                "total_time": 124.79868507385254
            },
            {
                "note": 75,
                "velocity": 127,
                "time": 0,
                "total_time": 124.79998135566711
            },
            {
                "note": 63,
                "velocity": 112,
                "time": 0,
                "total_time": 124.8001356124878
            },
            {
                "note": 66,
                "velocity": 112,
                "time": 0,
                "total_time": 124.80024600028992
            },
            {
                "note": 39,
                "velocity": 112,
                "time": 0,
                "total_time": 124.80035376548767
            },
            {
                "note": 39,
                "velocity": 0,
                "time": 0,
                "total_time": 124.80042600631714
            },
            {
                "note": 39,
                "velocity": 112,
                "time": 0,
                "total_time": 124.80049920082092
            },
            {
                "note": 46,
                "velocity": 96,
                "time": 0,
                "total_time": 124.94998812675476
            },
            {
                "note": 46,
                "velocity": 0,
                "time": 0.14124976458333333,
                "total_time": 125.09115266799927
            },
            {
                "note": 51,
                "velocity": 96,
                "time": 0.008749985416666665,
                "total_time": 125.0998854637146
            },
            {
                "note": 51,
                "velocity": 0,
                "time": 0.14124976458333333,
                "total_time": 125.2411515712738
            },
            {
                "note": 46,
                "velocity": 96,
                "time": 0.008749985416666665,
                "total_time": 125.24982976913452
            },
            {
                "note": 46,
                "velocity": 0,
                "time": 0.14124976458333333,
                "total_time": 125.39112305641174
            },
            {
                "note": 54,
                "velocity": 96,
                "time": 0.008749985416666665,
                "total_time": 125.39984178543091
            },
            {
                "note": 75,
                "velocity": 0,
                "time": 0.0012499979166666665,
                "total_time": 125.40114235877991
            },
            {
                "note": 54,
                "velocity": 0,
                "time": 0.13999976666666664,
                "total_time": 125.54112434387207
            },
            {
                "note": 46,
                "velocity": 96,
                "time": 0.008749985416666665,
                "total_time": 125.54999160766602
            },
            {
                "note": 46,
                "velocity": 0,
                "time": 0.14124976458333333,
                "total_time": 125.69114828109741
            },
            {
                "note": 66,
                "velocity": 0,
                "time": 0.008749985416666665,
                "total_time": 125.69983696937561
            },
            {
                "note": 66,
                "velocity": 112,
                "time": 0,
                "total_time": 125.6999900341034
            },
            {
                "note": 78,
                "velocity": 112,
                "time": 0,
                "total_time": 125.70008397102356
            },
            {
                "note": 51,
                "velocity": 96,
                "time": 0,
                "total_time": 125.70013999938965
            },
            {
                "note": 51,
                "velocity": 0,
                "time": 0.14124976458333333,
                "total_time": 125.84116506576538
            },
            {
                "note": 46,
                "velocity": 96,
                "time": 0.008749985416666665,
                "total_time": 125.84990501403809
            },
            {
                "note": 39,
                "velocity": 0,
                "time": 0.08874985208333332,
                "total_time": 125.9386556148529
            },
            {
                "note": 78,
                "velocity": 0,
                "time": 0.044999924999999996,
                "total_time": 125.98366713523865
            },
            {
                "note": 46,
                "velocity": 0,
                "time": 0.007499987499999999,
                "total_time": 125.99117469787598
            },
            {
                "note": 63,
                "velocity": 0,
                "time": 0.007499987499999999,
                "total_time": 125.99869179725647
            },
            {
                "note": 66,
                "velocity": 0,
                "time": 0,
                "total_time": 125.9991466999054
            },
            {
                "note": 77,
                "velocity": 127,
                "time": 0.0012499979166666665,
                "total_time": 125.99984955787659
            },
            {
                "note": 65,
                "velocity": 112,
                "time": 0,
                "total_time": 126.0000467300415
            },
            {
                "note": 70,
                "velocity": 112,
                "time": 0,
                "total_time": 126.00019478797913
            },
            {
                "note": 34,
                "velocity": 112,
                "time": 0,
                "total_time": 126.00029039382935
            },
            {
                "note": 34,
                "velocity": 0,
                "time": 0,
                "total_time": 126.00038361549377
            },
            {
                "note": 34,
                "velocity": 112,
                "time": 0,
                "total_time": 126.00047588348389
            },
            {
                "note": 41,
                "velocity": 96,
                "time": 0,
                "total_time": 126.15008783340454
            },
            {
                "note": 41,
                "velocity": 0,
                "time": 0.14124976458333333,
                "total_time": 126.29114770889282
            },
            {
                "note": 46,
                "velocity": 96,
                "time": 0.008749985416666665,
                "total_time": 126.29983806610107
            },
            {
                "note": 46,
                "velocity": 0,
                "time": 0.14124976458333333,
                "total_time": 126.44111251831055
            },
            {
                "note": 41,
                "velocity": 96,
                "time": 0.008749985416666665,
                "total_time": 126.44988417625427
            },
            {
                "note": 41,
                "velocity": 0,
                "time": 0.14124976458333333,
                "total_time": 126.59111905097961
            },
            {
                "note": 49,
                "velocity": 96,
                "time": 0.008749985416666665,
                "total_time": 126.5998318195343
            },
            {
                "note": 77,
                "velocity": 0,
                "time": 0.0012499979166666665,
                "total_time": 126.60111260414124
            },
            {
                "note": 49,
                "velocity": 0,
                "time": 0.13999976666666664,
                "total_time": 126.74113488197327
            },
            {
                "note": 41,
                "velocity": 96,
                "time": 0.008749985416666665,
                "total_time": 126.75042533874512
            },
            {
                "note": 41,
                "velocity": 0,
                "time": 0.14124976458333333,
                "total_time": 126.89112138748169
            },
            {
                "note": 70,
                "velocity": 0,
                "time": 0.008749985416666665,
                "total_time": 126.89983868598938
            },
            {
                "note": 70,
                "velocity": 112,
                "time": 0,
                "total_time": 126.89993977546692
            },
            {
                "note": 82,
                "velocity": 112,
                "time": 0,
                "total_time": 126.89998197555542
            },
            {
                "note": 46,
                "velocity": 96,
                "time": 0,
                "total_time": 126.90000581741333
            },
            {
                "note": 46,
                "velocity": 0,
                "time": 0.14124976458333333,
                "total_time": 127.04125094413757
            },
            {
                "note": 41,
                "velocity": 96,
                "time": 0.008749985416666665,
                "total_time": 127.04988527297974
            },
            {
                "note": 34,
                "velocity": 0,
                "time": 0.08874985208333332,
                "total_time": 127.13874626159668
            },
            {
                "note": 82,
                "velocity": 0,
                "time": 0.044999924999999996,
                "total_time": 127.18364429473877
            },
            {
                "note": 41,
                "velocity": 0,
                "time": 0.007499987499999999,
                "total_time": 127.19117331504822
            },
            {
                "note": 65,
                "velocity": 0,
                "time": 0.007499987499999999,
                "total_time": 127.19864201545715
            },
            {
                "note": 70,
                "velocity": 0,
                "time": 0,
                "total_time": 127.19886565208435
            },
            {
                "note": 82,
                "velocity": 127,
                "time": 0.0012499979166666665,
                "total_time": 127.19985556602478
            },
            {
                "note": 70,
                "velocity": 112,
                "time": 0,
                "total_time": 127.19997668266296
            },
            {
                "note": 75,
                "velocity": 112,
                "time": 0,
                "total_time": 127.20003962516785
            },
            {
                "note": 35,
                "velocity": 112,
                "time": 0,
                "total_time": 127.20007658004761
            },
            {
                "note": 35,
                "velocity": 0,
                "time": 0,
                "total_time": 127.20011162757874
            },
            {
                "note": 35,
                "velocity": 112,
                "time": 0,
                "total_time": 127.20014715194702
            },
            {
                "note": 42,
                "velocity": 96,
                "time": 0,
                "total_time": 127.3500108718872
            },
            {
                "note": 42,
                "velocity": 0,
                "time": 0.14124976458333333,
                "total_time": 127.49115109443665
            },
            {
                "note": 47,
                "velocity": 96,
                "time": 0.008749985416666665,
                "total_time": 127.4998836517334
            },
            {
                "note": 47,
                "velocity": 0,
                "time": 0.14124976458333333,
                "total_time": 127.64112401008606
            },
            {
                "note": 42,
                "velocity": 96,
                "time": 0.008749985416666665,
                "total_time": 127.64986896514893
            },
            {
                "note": 42,
                "velocity": 0,
                "time": 0.14124976458333333,
                "total_time": 127.79112124443054
            },
            {
                "note": 51,
                "velocity": 96,
                "time": 0.008749985416666665,
                "total_time": 127.79982805252075
            },
            {
                "note": 82,
                "velocity": 0,
                "time": 0.0012499979166666665,
                "total_time": 127.80122566223145
            },
            {
                "note": 51,
                "velocity": 0,
                "time": 0.13999976666666664,
                "total_time": 127.94119358062744
            },
            {
                "note": 42,
                "velocity": 96,
                "time": 0.008749985416666665,
                "total_time": 127.94989490509033
            },
            {
                "note": 42,
                "velocity": 0,
                "time": 0.14124976458333333,
                "total_time": 128.0911157131195
            },
            {
                "note": 80,
                "velocity": 112,
                "time": 0.008749985416666665,
                "total_time": 128.09986686706543
            },
            {
                "note": 47,
                "velocity": 96,
                "time": 0,
                "total_time": 128.0999755859375
            },
            {
                "note": 47,
                "velocity": 0,
                "time": 0.14124976458333333,
                "total_time": 128.2412507534027
            },
            {
                "note": 80,
                "velocity": 0,
                "time": 0.007499987499999999,
                "total_time": 128.24865174293518
            },
            {
                "note": 78,
                "velocity": 112,
                "time": 0.0012499979166666665,
                "total_time": 128.2498815059662
            },
            {
                "note": 42,
                "velocity": 96,
                "time": 0,
                "total_time": 128.25012493133545
            },
            {
                "note": 35,
                "velocity": 0,
                "time": 0.08874985208333332,
                "total_time": 128.33863949775696
            },
            {
                "note": 78,
                "velocity": 0,
                "time": 0.052499912499999996,
                "total_time": 128.3911576271057
            },
            {
                "note": 42,
                "velocity": 0,
                "time": 0,
                "total_time": 128.39140605926514
            },
            {
                "note": 70,
                "velocity": 0,
                "time": 0.007499987499999999,
                "total_time": 128.39866852760315
            },
            {
                "note": 75,
                "velocity": 0,
                "time": 0,
                "total_time": 128.39907789230347
            },
            {
                "note": 77,
                "velocity": 112,
                "time": 0.0012499979166666665,
                "total_time": 128.39984679222107
            },
            {
                "note": 65,
                "velocity": 112,
                "time": 0,
                "total_time": 128.39994049072266
            },
            {
                "note": 73,
                "velocity": 112,
                "time": 0,
                "total_time": 128.3999843597412
            },
            {
                "note": 37,
                "velocity": 112,
                "time": 0,
                "total_time": 128.4000210762024
            },
            {
                "note": 37,
                "velocity": 0,
                "time": 0,
                "total_time": 128.40008354187012
            },
            {
                "note": 37,
                "velocity": 112,
                "time": 0,
                "total_time": 128.40012216567993
            },
            {
                "note": 44,
                "velocity": 96,
                "time": 0,
                "total_time": 128.55005526542664
            },
            {
                "note": 44,
                "velocity": 0,
                "time": 0.14124976458333333,
                "total_time": 128.69117093086243
            },
            {
                "note": 77,
                "velocity": 0,
                "time": 0.007499987499999999,
                "total_time": 128.69867420196533
            },
            {
                "note": 65,
                "velocity": 0,
                "time": 0,
                "total_time": 128.69898176193237
            },
            {
                "note": 73,
                "velocity": 0,
                "time": 0,
                "total_time": 128.69911408424377
            },
            {
                "note": 78,
                "velocity": 112,
                "time": 0.0012499979166666665,
                "total_time": 128.69987654685974
            },
            {
                "note": 66,
                "velocity": 112,
                "time": 0,
                "total_time": 128.70007967948914
            },
            {
                "note": 71,
                "velocity": 112,
                "time": 0,
                "total_time": 128.7001531124115
            },
            {
                "note": 49,
                "velocity": 96,
                "time": 0,
                "total_time": 128.70021033287048
            },
            {
                "note": 49,
                "velocity": 0,
                "time": 0.14124976458333333,
                "total_time": 128.84116959571838
            },
            {
                "note": 44,
                "velocity": 96,
                "time": 0.008749985416666665,
                "total_time": 128.84992814064026
            },
            {
                "note": 44,
                "velocity": 0,
                "time": 0.14124976458333333,
                "total_time": 128.99111938476562
            },
            {
                "note": 78,
                "velocity": 0,
                "time": 0.007499987499999999,
                "total_time": 128.99861860275269
            },
            {
                "note": 66,
                "velocity": 0,
                "time": 0,
                "total_time": 128.99871373176575
            },
            {
                "note": 71,
                "velocity": 0,
                "time": 0,
                "total_time": 128.99873208999634
            },
            {
                "note": 73,
                "velocity": 112,
                "time": 0.0012499979166666665,
                "total_time": 128.99985074996948
            },
            {
                "note": 61,
                "velocity": 112,
                "time": 0,
                "total_time": 128.9998915195465
            },
            {
                "note": 70,
                "velocity": 112,
                "time": 0,
                "total_time": 128.9999041557312
            },
            {
                "note": 53,
                "velocity": 96,
                "time": 0,
                "total_time": 128.99991488456726
            },
            {
                "note": 53,
                "velocity": 0,
                "time": 0.14124976458333333,
                "total_time": 129.14112901687622
            },
            {
                "note": 44,
                "velocity": 96,
                "time": 0.008749985416666665,
                "total_time": 129.14986658096313
            },
            {
                "note": 44,
                "velocity": 0,
                "time": 0.14124976458333333,
                "total_time": 129.29120683670044
            },
            {
                "note": 73,
                "velocity": 0,
                "time": 0.007499987499999999,
                "total_time": 129.29867100715637
            },
            {
                "note": 61,
                "velocity": 0,
                "time": 0,
                "total_time": 129.29898047447205
            },
            {
                "note": 70,
                "velocity": 0,
                "time": 0,
                "total_time": 129.29909944534302
            },
            {
                "note": 70,
                "velocity": 112,
                "time": 0.0012499979166666665,
                "total_time": 129.29991555213928
            },
            {
                "note": 58,
                "velocity": 112,
                "time": 0,
                "total_time": 129.30018854141235
            },
            {
                "note": 65,
                "velocity": 112,
                "time": 0,
                "total_time": 129.300306558609
            },
            {
                "note": 49,
                "velocity": 96,
                "time": 0,
                "total_time": 129.30038166046143
            },
            {
                "note": 49,
                "velocity": 0,
                "time": 0.14124976458333333,
                "total_time": 129.44115686416626
            },
            {
                "note": 44,
                "velocity": 96,
                "time": 0.008749985416666665,
                "total_time": 129.44990849494934
            },
            {
                "note": 37,
                "velocity": 0,
                "time": 0.08874985208333332,
                "total_time": 129.53863739967346
            },
            {
                "note": 70,
                "velocity": 0,
                "time": 0.044999924999999996,
                "total_time": 129.58366584777832
            },
            {
                "note": 58,
                "velocity": 0,
                "time": 0,
                "total_time": 129.58395051956177
            },
            {
                "note": 65,
                "velocity": 0,
                "time": 0,
                "total_time": 129.58406162261963
            },
            {
                "note": 44,
                "velocity": 0,
                "time": 0.007499987499999999,
                "total_time": 129.59112739562988
            },
            {
                "note": 71,
                "velocity": 127,
                "time": 0.008749985416666665,
                "total_time": 129.59985399246216
            },
            {
                "note": 59,
                "velocity": 112,
                "time": 0,
                "total_time": 129.59994387626648
            },
            {
                "note": 66,
                "velocity": 112,
                "time": 0,
                "total_time": 129.59996795654297
            },
            {
                "note": 32,
                "velocity": 112,
                "time": 0,
                "total_time": 129.59998059272766
            },
            {
                "note": 32,
                "velocity": 0,
                "time": 0,
                "total_time": 129.59999179840088
            },
            {
                "note": 32,
                "velocity": 112,
                "time": 0,
                "total_time": 129.60000252723694
            },
            {
                "note": 39,
                "velocity": 96,
                "time": 0,
                "total_time": 129.74987173080444
            },
            {
                "note": 39,
                "velocity": 0,
                "time": 0.14124976458333333,
                "total_time": 129.8911325931549
            },
            {
                "note": 44,
                "velocity": 96,
                "time": 0.008749985416666665,
                "total_time": 129.89991283416748
            },
            {
                "note": 71,
                "velocity": 0,
                "time": 0.09999983333333332,
                "total_time": 129.99983835220337
            },
            {
                "note": 44,
                "velocity": 0,
                "time": 0.041249931249999996,
                "total_time": 130.04111218452454
            },
            {
                "note": 39,
                "velocity": 96,
                "time": 0.008749985416666665,
                "total_time": 130.04982113838196
            },
            {
                "note": 39,
                "velocity": 0,
                "time": 0.14124976458333333,
                "total_time": 130.1911404132843
            },
            {
                "note": 59,
                "velocity": 0,
                "time": 0.007499987499999999,
                "total_time": 130.19863748550415
            },
            {
                "note": 66,
                "velocity": 0,
                "time": 0,
                "total_time": 130.19889521598816
            },
            {
                "note": 75,
                "velocity": 112,
                "time": 0.0012499979166666665,
                "total_time": 130.19984102249146
            },
            {
                "note": 63,
                "velocity": 112,
                "time": 0,
                "total_time": 130.19998264312744
            },
            {
                "note": 71,
                "velocity": 112,
                "time": 0,
                "total_time": 130.20004749298096
            },
            {
                "note": 47,
                "velocity": 96,
                "time": 0,
                "total_time": 130.20010828971863
            },
            {
                "note": 47,
                "velocity": 0,
                "time": 0.14124976458333333,
                "total_time": 130.3411304950714
            },
            {
                "note": 39,
                "velocity": 96,
                "time": 0.008749985416666665,
                "total_time": 130.34988713264465
            },
            {
                "note": 39,
                "velocity": 0,
                "time": 0.14124976458333333,
                "total_time": 130.49115800857544
            },
            {
                "note": 75,
                "velocity": 0,
                "time": 0.007499987499999999,
                "total_time": 130.49866795539856
            },
            {
                "note": 63,
                "velocity": 0,
                "time": 0,
                "total_time": 130.49894857406616
            },
            {
                "note": 71,
                "velocity": 0,
                "time": 0,
                "total_time": 130.4991934299469
            },
            {
                "note": 78,
                "velocity": 112,
                "time": 0.0012499979166666665,
                "total_time": 130.49984192848206
            },
            {
                "note": 66,
                "velocity": 112,
                "time": 0,
                "total_time": 130.50003242492676
            },
            {
                "note": 71,
                "velocity": 112,
                "time": 0,
                "total_time": 130.5000936985016
            },
            {
                "note": 44,
                "velocity": 96,
                "time": 0,
                "total_time": 130.50014638900757
            },
            {
                "note": 44,
                "velocity": 0,
                "time": 0.14124976458333333,
                "total_time": 130.64111065864563
            },
            {
                "note": 39,
                "velocity": 96,
                "time": 0.008749985416666665,
                "total_time": 130.6498339176178
            },
            {
                "note": 32,
                "velocity": 0,
                "time": 0.08874985208333332,
                "total_time": 130.73861002922058
            },
            {
                "note": 78,
                "velocity": 0,
                "time": 0.044999924999999996,
                "total_time": 130.78361415863037
            },
            {
                "note": 66,
                "velocity": 0,
                "time": 0,
                "total_time": 130.78370547294617
            },
            {
                "note": 71,
                "velocity": 0,
                "time": 0,
                "total_time": 130.7837336063385
            },
            {
                "note": 39,
                "velocity": 0,
                "time": 0.007499987499999999,
                "total_time": 130.79117155075073
            },
            {
                "note": 78,
                "velocity": 127,
                "time": 0.008749985416666665,
                "total_time": 130.79992508888245
            },
            {
                "note": 66,
                "velocity": 112,
                "time": 0,
                "total_time": 130.80002999305725
            },
            {
                "note": 73,
                "velocity": 112,
                "time": 0,
                "total_time": 130.80007886886597
            },
            {
                "note": 34,
                "velocity": 112,
                "time": 0,
                "total_time": 130.80010104179382
            },
            {
                "note": 34,
                "velocity": 0,
                "time": 0,
                "total_time": 130.80012226104736
            },
            {
                "note": 34,
                "velocity": 112,
                "time": 0,
                "total_time": 130.80014085769653
            },
            {
                "note": 41,
                "velocity": 96,
                "time": 0,
                "total_time": 130.95007944107056
            },
            {
                "note": 41,
                "velocity": 0,
                "time": 0.14124976458333333,
                "total_time": 131.09115600585938
            },
            {
                "note": 46,
                "velocity": 96,
                "time": 0.008749985416666665,
                "total_time": 131.09987688064575
            },
            {
                "note": 78,
                "velocity": 0,
                "time": 0.09999983333333332,
                "total_time": 131.19993448257446
            },
            {
                "note": 46,
                "velocity": 0,
                "time": 0.041249931249999996,
                "total_time": 131.24114274978638
            },
            {
                "note": 41,
                "velocity": 96,
                "time": 0.008749985416666665,
                "total_time": 131.25039291381836
            },
            {
                "note": 41,
                "velocity": 0,
                "time": 0.14124976458333333,
                "total_time": 131.39114427566528
            },
            {
                "note": 66,
                "velocity": 0,
                "time": 0.007499987499999999,
                "total_time": 131.39863419532776
            },
            {
                "note": 73,
                "velocity": 0,
                "time": 0,
                "total_time": 131.39883708953857
            },
            {
                "note": 77,
                "velocity": 112,
                "time": 0.0012499979166666665,
                "total_time": 131.39985060691833
            },
            {
                "note": 65,
                "velocity": 112,
                "time": 0,
                "total_time": 131.4000129699707
            },
            {
                "note": 70,
                "velocity": 112,
                "time": 0,
                "total_time": 131.40008401870728
            },
            {
                "note": 49,
                "velocity": 96,
                "time": 0,
                "total_time": 131.400146484375
            },
            {
                "note": 49,
                "velocity": 0,
                "time": 0.14124976458333333,
                "total_time": 131.54115891456604
            },
            {
                "note": 41,
                "velocity": 96,
                "time": 0.008749985416666665,
                "total_time": 131.5500466823578
            },
            {
                "note": 41,
                "velocity": 0,
                "time": 0.14124976458333333,
                "total_time": 131.6911120414734
            },
            {
                "note": 77,
                "velocity": 0,
                "time": 0.007499987499999999,
                "total_time": 131.69861125946045
            },
            {
                "note": 65,
                "velocity": 0,
                "time": 0,
                "total_time": 131.69871735572815
            },
            {
                "note": 70,
                "velocity": 0,
                "time": 0,
                "total_time": 131.69875264167786
            },
            {
                "note": 78,
                "velocity": 112,
                "time": 0.0012499979166666665,
                "total_time": 131.6999156475067
            },
            {
                "note": 66,
                "velocity": 112,
                "time": 0,
                "total_time": 131.70003938674927
            },
            {
                "note": 68,
                "velocity": 112,
                "time": 0,
                "total_time": 131.70007634162903
            },
            {
                "note": 46,
                "velocity": 96,
                "time": 0,
                "total_time": 131.70011138916016
            },
            {
                "note": 46,
                "velocity": 0,
                "time": 0.14124976458333333,
                "total_time": 131.84111094474792
            },
            {
                "note": 41,
                "velocity": 96,
                "time": 0.008749985416666665,
                "total_time": 131.84985518455505
            },
            {
                "note": 34,
                "velocity": 0,
                "time": 0.08874985208333332,
                "total_time": 131.93864226341248
            },
            {
                "note": 78,
                "velocity": 0,
                "time": 0.044999924999999996,
                "total_time": 131.98362565040588
            },
            {
                "note": 66,
                "velocity": 0,
                "time": 0,
                "total_time": 131.9837257862091
            },
            {
                "note": 68,
                "velocity": 0,
                "time": 0,
                "total_time": 131.98375725746155
            },
            {
                "note": 41,
                "velocity": 0,
                "time": 0.007499987499999999,
                "total_time": 131.99112343788147
            },
            {
                "note": 85,
                "velocity": 127,
                "time": 0.008749985416666665,
                "total_time": 131.99986672401428
            },
            {
                "note": 73,
                "velocity": 112,
                "time": 0,
                "total_time": 132.0000159740448
            },
            {
                "note": 78,
                "velocity": 112,
                "time": 0,
                "total_time": 132.0000455379486
            },
            {
                "note": 35,
                "velocity": 112,
                "time": 0,
                "total_time": 132.00006198883057
            },
            {
                "note": 35,
                "velocity": 0,
                "time": 0,
                "total_time": 132.0000762939453
            },
            {
                "note": 35,
                "velocity": 112,
                "time": 0,
                "total_time": 132.00009059906006
            },
            {
                "note": 42,
                "velocity": 96,
                "time": 0,
                "total_time": 132.15002942085266
            },
            {
                "note": 42,
                "velocity": 0,
                "time": 0.14124976458333333,
                "total_time": 132.29115056991577
            },
            {
                "note": 85,
                "velocity": 0,
                "time": 0.008749985416666665,
                "total_time": 132.29989194869995
            },
            {
                "note": 47,
                "velocity": 96,
                "time": 0,
                "total_time": 132.3001434803009
            },
            {
                "note": 47,
                "velocity": 0,
                "time": 0.14124976458333333,
                "total_time": 132.44115447998047
            },
            {
                "note": 73,
                "velocity": 0,
                "time": 0.007499987499999999,
                "total_time": 132.44893836975098
            },
            {
                "note": 78,
                "velocity": 0,
                "time": 0,
                "total_time": 132.4492313861847
            },
            {
                "note": 83,
                "velocity": 127,
                "time": 0.0012499979166666665,
                "total_time": 132.4499442577362
            },
            {
                "note": 71,
                "velocity": 112,
                "time": 0,
                "total_time": 132.45013093948364
            },
            {
                "note": 75,
                "velocity": 112,
                "time": 0,
                "total_time": 132.4502613544464
            },
            {
                "note": 42,
                "velocity": 96,
                "time": 0,
                "total_time": 132.45033597946167
            },
            {
                "note": 42,
                "velocity": 0,
                "time": 0.14124976458333333,
                "total_time": 132.5911169052124
            },
            {
                "note": 51,
                "velocity": 96,
                "time": 0.008749985416666665,
                "total_time": 132.59987568855286
            },
            {
                "note": 51,
                "velocity": 0,
                "time": 0.14124976458333333,
                "total_time": 132.74114441871643
            },
            {
                "note": 83,
                "velocity": 0,
                "time": 0.008749985416666665,
                "total_time": 132.7498733997345
            },
            {
                "note": 42,
                "velocity": 96,
                "time": 0,
                "total_time": 132.75035548210144
            },
            {
                "note": 42,
                "velocity": 0,
                "time": 0.14124976458333333,
                "total_time": 132.89116835594177
            },
            {
                "note": 71,
                "velocity": 0,
                "time": 0.007499987499999999,
                "total_time": 132.89861273765564
            },
            {
                "note": 75,
                "velocity": 0,
                "time": 0,
                "total_time": 132.89871072769165
            },
            {
                "note": 82,
                "velocity": 127,
                "time": 0.0012499979166666665,
                "total_time": 132.8998749256134
            },
            {
                "note": 70,
                "velocity": 112,
                "time": 0,
                "total_time": 132.89996671676636
            },
            {
                "note": 78,
                "velocity": 112,
                "time": 0,
                "total_time": 132.90000557899475
            },
            {
                "note": 47,
                "velocity": 96,
                "time": 0,
                "total_time": 132.9000267982483
            },
            {
                "note": 47,
                "velocity": 0,
                "time": 0.14124976458333333,
                "total_time": 133.0411307811737
            },
            {
                "note": 42,
                "velocity": 96,
                "time": 0.008749985416666665,
                "total_time": 133.04986834526062
            },
            {
                "note": 82,
                "velocity": 0,
                "time": 0.048749918749999996,
                "total_time": 133.09863901138306
            },
            {
                "note": 35,
                "velocity": 0,
                "time": 0.03999993333333333,
                "total_time": 133.1386513710022
            },
            {
                "note": 42,
                "velocity": 0,
                "time": 0.052499912499999996,
                "total_time": 133.19115734100342
            },
            {
                "note": 70,
                "velocity": 0,
                "time": 0.007499987499999999,
                "total_time": 133.198668718338
            },
            {
                "note": 78,
                "velocity": 0,
                "time": 0,
                "total_time": 133.19903874397278
            },
            {
                "note": 77,
                "velocity": 127,
                "time": 0.0012499979166666665,
                "total_time": 133.19986987113953
            },
            {
                "note": 80,
                "velocity": 127,
                "time": 0,
                "total_time": 133.2000229358673
            },
            {
                "note": 68,
                "velocity": 112,
                "time": 0,
                "total_time": 133.2001028060913
            },
            {
                "note": 37,
                "velocity": 112,
                "time": 0,
                "total_time": 133.20021605491638
            },
            {
                "note": 37,
                "velocity": 0,
                "time": 0,
                "total_time": 133.20028686523438
            },
            {
                "note": 37,
                "velocity": 112,
                "time": 0,
                "total_time": 133.20035123825073
            },
            {
                "note": 68,
                "velocity": 0,
                "time": 0.14624975624999997,
                "total_time": 133.3486521244049
            },
            {
                "note": 70,
                "velocity": 112,
                "time": 0.0012499979166666665,
                "total_time": 133.34988737106323
            },
            {
                "note": 44,
                "velocity": 96,
                "time": 0,
                "total_time": 133.34995555877686
            },
            {
                "note": 44,
                "velocity": 0,
                "time": 0.14124976458333333,
                "total_time": 133.49111676216125
            },
            {
                "note": 70,
                "velocity": 0,
                "time": 0.007499987499999999,
                "total_time": 133.49862122535706
            },
            {
                "note": 68,
                "velocity": 112,
                "time": 0.0012499979166666665,
                "total_time": 133.49983263015747
            },
            {
                "note": 53,
                "velocity": 96,
                "time": 0,
                "total_time": 133.49997782707214
            },
            {
                "note": 53,
                "velocity": 0,
                "time": 0.14124976458333333,
                "total_time": 133.64114141464233
            },
            {
                "note": 68,
                "velocity": 0,
                "time": 0.007499987499999999,
                "total_time": 133.64868688583374
            },
            {
                "note": 66,
                "velocity": 112,
                "time": 0.0012499979166666665,
                "total_time": 133.6499936580658
            },
            {
                "note": 44,
                "velocity": 96,
                "time": 0,
                "total_time": 133.650541305542
            },
            {
                "note": 37,
                "velocity": 0,
                "time": 0.11874980208333331,
                "total_time": 133.7686972618103
            },
            {
                "note": 44,
                "velocity": 0,
                "time": 0.022499962499999998,
                "total_time": 133.79116249084473
            },
            {
                "note": 66,
                "velocity": 0,
                "time": 0.007499987499999999,
                "total_time": 133.79867339134216
            },
            {
                "note": 65,
                "velocity": 112,
                "time": 0.0012499979166666665,
                "total_time": 133.79992246627808
            },
            {
                "note": 38,
                "velocity": 112,
                "time": 0,
                "total_time": 133.80025219917297
            },
            {
                "note": 38,
                "velocity": 0,
                "time": 0,
                "total_time": 133.80037808418274
            },
            {
                "note": 38,
                "velocity": 112,
                "time": 0,
                "total_time": 133.80046105384827
            },
            {
                "note": 65,
                "velocity": 0,
                "time": 0.14624975624999997,
                "total_time": 133.9487442970276
            },
            {
                "note": 62,
                "velocity": 112,
                "time": 0.0012499979166666665,
                "total_time": 133.94987106323242
            },
            {
                "note": 46,
                "velocity": 96,
                "time": 0,
                "total_time": 133.95012855529785
            },
            {
                "note": 77,
                "velocity": 0,
                "time": 0.052499912499999996,
                "total_time": 134.00239276885986
            },
            {
                "note": 80,
                "velocity": 0,
                "time": 0,
                "total_time": 134.00265192985535
            },
            {
                "note": 46,
                "velocity": 0,
                "time": 0.08874985208333332,
                "total_time": 134.09114003181458
            },
            {
                "note": 62,
                "velocity": 0,
                "time": 0.007499987499999999,
                "total_time": 134.09864401817322
            },
            {
                "note": 68,
                "velocity": 112,
                "time": 0.0012499979166666665,
                "total_time": 134.09984588623047
            },
            {
                "note": 50,
                "velocity": 96,
                "time": 0,
                "total_time": 134.10005950927734
            },
            {
                "note": 50,
                "velocity": 0,
                "time": 0.14124976458333333,
                "total_time": 134.24112176895142
            },
            {
                "note": 68,
                "velocity": 0,
                "time": 0.007499987499999999,
                "total_time": 134.24861478805542
            },
            {
                "note": 65,
                "velocity": 112,
                "time": 0.0012499979166666665,
                "total_time": 134.2498116493225
            },
            {
                "note": 46,
                "velocity": 96,
                "time": 0,
                "total_time": 134.2498869895935
            },
            {
                "note": 38,
                "velocity": 0,
                "time": 0.11874980208333331,
                "total_time": 134.36862969398499
            },
            {
                "note": 65,
                "velocity": 0,
                "time": 0.022499962499999998,
                "total_time": 134.39113783836365
            },
            {
                "note": 46,
                "velocity": 0,
                "time": 0,
                "total_time": 134.39131951332092
            },
            {
                "note": 78,
                "velocity": 127,
                "time": 0.008749985416666665,
                "total_time": 134.399888753891
            },
            {
                "note": 66,
                "velocity": 112,
                "time": 0,
                "total_time": 134.40016341209412
            },
            {
                "note": 75,
                "velocity": 112,
                "time": 0,
                "total_time": 134.4002923965454
            },
            {
                "note": 39,
                "velocity": 112,
                "time": 0,
                "total_time": 134.4003677368164
            },
            {
                "note": 39,
                "velocity": 0,
                "time": 0,
                "total_time": 134.40043950080872
            },
            {
                "note": 39,
                "velocity": 112,
                "time": 0,
                "total_time": 134.40054082870483
            },
            {
                "note": 46,
                "velocity": 96,
                "time": 0,
                "total_time": 134.5505018234253
            },
            {
                "note": 46,
                "velocity": 0,
                "time": 0.14124976458333333,
                "total_time": 134.69110250473022
            },
            {
                "note": 78,
                "velocity": 0,
                "time": 0.008749985416666665,
                "total_time": 134.6998996734619
            },
            {
                "note": 51,
                "velocity": 96,
                "time": 0,
                "total_time": 134.69997906684875
            },
            {
                "note": 51,
                "velocity": 0,
                "time": 0.14124976458333333,
                "total_time": 134.841148853302
            },
            {
                "note": 66,
                "velocity": 0,
                "time": 0.007499987499999999,
                "total_time": 134.8491108417511
            },
            {
                "note": 75,
                "velocity": 0,
                "time": 0,
                "total_time": 134.8495283126831
            },
            {
                "note": 77,
                "velocity": 112,
                "time": 0.0012499979166666665,
                "total_time": 134.8500337600708
            },
            {
                "note": 65,
                "velocity": 112,
                "time": 0,
                "total_time": 134.85040760040283
            },
            {
                "note": 70,
                "velocity": 112,
                "time": 0,
                "total_time": 134.85058546066284
            },
            {
                "note": 46,
                "velocity": 96,
                "time": 0,
                "total_time": 134.85069346427917
            },
            {
                "note": 46,
                "velocity": 0,
                "time": 0.14124976458333333,
                "total_time": 134.99110460281372
            },
            {
                "note": 54,
                "velocity": 96,
                "time": 0.008749985416666665,
                "total_time": 134.99983191490173
            },
            {
                "note": 54,
                "velocity": 0,
                "time": 0.14124976458333333,
                "total_time": 135.14112973213196
            },
            {
                "note": 46,
                "velocity": 96,
                "time": 0.008749985416666665,
                "total_time": 135.14993000030518
            },
            {
                "note": 46,
                "velocity": 0,
                "time": 0.14124976458333333,
                "total_time": 135.29113173484802
            },
            {
                "note": 77,
                "velocity": 0,
                "time": 0.007499987499999999,
                "total_time": 135.2986536026001
            },
            {
                "note": 65,
                "velocity": 0,
                "time": 0,
                "total_time": 135.29892706871033
            },
            {
                "note": 70,
                "velocity": 0,
                "time": 0,
                "total_time": 135.29902172088623
            },
            {
                "note": 78,
                "velocity": 112,
                "time": 0.0012499979166666665,
                "total_time": 135.2998447418213
            },
            {
                "note": 66,
                "velocity": 112,
                "time": 0,
                "total_time": 135.3000419139862
            },
            {
                "note": 70,
                "velocity": 112,
                "time": 0,
                "total_time": 135.30012607574463
            },
            {
                "note": 51,
                "velocity": 96,
                "time": 0,
                "total_time": 135.30022144317627
            },
            {
                "note": 51,
                "velocity": 0,
                "time": 0.14124976458333333,
                "total_time": 135.4411220550537
            },
            {
                "note": 46,
                "velocity": 96,
                "time": 0.008749985416666665,
                "total_time": 135.44990181922913
            },
            {
                "note": 39,
                "velocity": 0,
                "time": 0.08874985208333332,
                "total_time": 135.53862071037292
            },
            {
                "note": 78,
                "velocity": 0,
                "time": 0.044999924999999996,
                "total_time": 135.58369898796082
            },
            {
                "note": 66,
                "velocity": 0,
                "time": 0,
                "total_time": 135.58418893814087
            },
            {
                "note": 70,
                "velocity": 0,
                "time": 0,
                "total_time": 135.58434915542603
            },
            {
                "note": 46,
                "velocity": 0,
                "time": 0.007499987499999999,
                "total_time": 135.59117436408997
            },
            {
                "note": 82,
                "velocity": 127,
                "time": 0.008749985416666665,
                "total_time": 135.59987235069275
            },
            {
                "note": 70,
                "velocity": 112,
                "time": 0,
                "total_time": 135.60014510154724
            },
            {
                "note": 77,
                "velocity": 112,
                "time": 0,
                "total_time": 135.60026669502258
            },
            {
                "note": 37,
                "velocity": 112,
                "time": 0,
                "total_time": 135.60033464431763
            },
            {
                "note": 37,
                "velocity": 0,
                "time": 0,
                "total_time": 135.6003975868225
            },
            {
                "note": 37,
                "velocity": 112,
                "time": 0,
                "total_time": 135.60045862197876
            },
            {
                "note": 46,
                "velocity": 96,
                "time": 0,
                "total_time": 135.75009274482727
            },
            {
                "note": 46,
                "velocity": 0,
                "time": 0.14124976458333333,
                "total_time": 135.89110660552979
            },
            {
                "note": 49,
                "velocity": 96,
                "time": 0.008749985416666665,
                "total_time": 135.8998773097992
            },
            {
                "note": 49,
                "velocity": 0,
                "time": 0.14124976458333333,
                "total_time": 136.04113960266113
            },
            {
                "note": 46,
                "velocity": 96,
                "time": 0.008749985416666665,
                "total_time": 136.04983854293823
            },
            {
                "note": 46,
                "velocity": 0,
                "time": 0.14124976458333333,
                "total_time": 136.19125843048096
            },
            {
                "note": 53,
                "velocity": 96,
                "time": 0.008749985416666665,
                "total_time": 136.19988203048706
            },
            {
                "note": 82,
                "velocity": 0,
                "time": 0.0012499979166666665,
                "total_time": 136.2011387348175
            },
            {
                "note": 53,
                "velocity": 0,
                "time": 0.13999976666666664,
                "total_time": 136.34113478660583
            },
            {
                "note": 46,
                "velocity": 96,
                "time": 0.008749985416666665,
                "total_time": 136.34993982315063
            },
            {
                "note": 46,
                "velocity": 0,
                "time": 0.14124976458333333,
                "total_time": 136.49115443229675
            },
            {
                "note": 70,
                "velocity": 0,
                "time": 0.007499987499999999,
                "total_time": 136.49863958358765
            },
            {
                "note": 77,
                "velocity": 0,
                "time": 0,
                "total_time": 136.49912667274475
            },
            {
                "note": 77,
                "velocity": 112,
                "time": 0.0012499979166666665,
                "total_time": 136.49988055229187
            },
            {
                "note": 65,
                "velocity": 112,
                "time": 0,
                "total_time": 136.50009107589722
            },
            {
                "note": 70,
                "velocity": 112,
                "time": 0,
                "total_time": 136.5001893043518
            },
            {
                "note": 49,
                "velocity": 96,
                "time": 0,
                "total_time": 136.50028824806213
            },
            {
                "note": 49,
                "velocity": 0,
                "time": 0.14124976458333333,
                "total_time": 136.64113593101501
            },
            {
                "note": 46,
                "velocity": 96,
                "time": 0.008749985416666665,
                "total_time": 136.64986538887024
            },
            {
                "note": 37,
                "velocity": 0,
                "time": 0.08874985208333332,
                "total_time": 136.73866939544678
            },
            {
                "note": 77,
                "velocity": 0,
                "time": 0.044999924999999996,
                "total_time": 136.78369641304016
            },
            {
                "note": 65,
                "velocity": 0,
                "time": 0,
                "total_time": 136.78402495384216
            },
            {
                "note": 70,
                "velocity": 0,
                "time": 0,
                "total_time": 136.78415036201477
            },
            {
                "note": 46,
                "velocity": 0,
                "time": 0.007499987499999999,
                "total_time": 136.7911581993103
            },
            {
                "note": 75,
                "velocity": 127,
                "time": 0.008749985416666665,
                "total_time": 136.79988956451416
            },
            {
                "note": 63,
                "velocity": 112,
                "time": 0,
                "total_time": 136.80023860931396
            },
            {
                "note": 72,
                "velocity": 112,
                "time": 0,
                "total_time": 136.80045700073242
            },
            {
                "note": 36,
                "velocity": 112,
                "time": 0,
                "total_time": 136.80056166648865
            },
            {
                "note": 36,
                "velocity": 0,
                "time": 0,
                "total_time": 136.80065250396729
            },
            {
                "note": 36,
                "velocity": 112,
                "time": 0,
                "total_time": 136.8007504940033
            },
            {
                "note": 44,
                "velocity": 96,
                "time": 0,
                "total_time": 136.94988131523132
            },
            {
                "note": 44,
                "velocity": 0,
                "time": 0.14124976458333333,
                "total_time": 137.09110069274902
            },
            {
                "note": 48,
                "velocity": 96,
                "time": 0.008749985416666665,
                "total_time": 137.09986519813538
            },
            {
                "note": 48,
                "velocity": 0,
                "time": 0.14124976458333333,
                "total_time": 137.24109840393066
            },
            {
                "note": 44,
                "velocity": 96,
                "time": 0.008749985416666665,
                "total_time": 137.24983286857605
            },
            {
                "note": 44,
                "velocity": 0,
                "time": 0.14124976458333333,
                "total_time": 137.3911488056183
            },
            {
                "note": 51,
                "velocity": 96,
                "time": 0.008749985416666665,
                "total_time": 137.39989686012268
            },
            {
                "note": 51,
                "velocity": 0,
                "time": 0.14124976458333333,
                "total_time": 137.54125952720642
            },
            {
                "note": 44,
                "velocity": 96,
                "time": 0.008749985416666665,
                "total_time": 137.5499083995819
            },
            {
                "note": 75,
                "velocity": 0,
                "time": 0.052499912499999996,
                "total_time": 137.60237526893616
            },
            {
                "note": 44,
                "velocity": 0,
                "time": 0.08874985208333332,
                "total_time": 137.6911904811859
            },
            {
                "note": 48,
                "velocity": 96,
                "time": 0.008749985416666665,
                "total_time": 137.69989228248596
            },
            {
                "note": 48,
                "velocity": 0,
                "time": 0.14124976458333333,
                "total_time": 137.84114956855774
            },
            {
                "note": 44,
                "velocity": 96,
                "time": 0.008749985416666665,
                "total_time": 137.84990096092224
            },
            {
                "note": 63,
                "velocity": 0,
                "time": 0.08874985208333332,
                "total_time": 137.93863534927368
            },
            {
                "note": 72,
                "velocity": 0,
                "time": 0,
                "total_time": 137.938738822937
            },
            {
                "note": 36,
                "velocity": 0,
                "time": 0,
                "total_time": 137.93876957893372
            },
            {
                "note": 44,
                "velocity": 0,
                "time": 0.052499912499999996,
                "total_time": 137.99110293388367
            },
            {
                "note": 75,
                "velocity": 112,
                "time": 0.008749985416666665,
                "total_time": 137.999858379364
            },
            {
                "note": 63,
                "velocity": 112,
                "time": 0,
                "total_time": 138.00005865097046
            },
            {
                "note": 68,
                "velocity": 112,
                "time": 0,
                "total_time": 138.00009942054749
            },
            {
                "note": 32,
                "velocity": 112,
                "time": 0,
                "total_time": 138.0001256465912
            },
            {
                "note": 32,
                "velocity": 0,
                "time": 0,
                "total_time": 138.00014734268188
            },
            {
                "note": 32,
                "velocity": 112,
                "time": 0,
                "total_time": 138.00016856193542
            },
            {
                "note": 39,
                "velocity": 96,
                "time": 0,
                "total_time": 138.14988446235657
            },
            {
                "note": 39,
                "velocity": 0,
                "time": 0.14124976458333333,
                "total_time": 138.29110145568848
            },
            {
                "note": 75,
                "velocity": 0,
                "time": 0.007499987499999999,
                "total_time": 138.29861330986023
            },
            {
                "note": 63,
                "velocity": 0,
                "time": 0,
                "total_time": 138.298757314682
            },
            {
                "note": 68,
                "velocity": 0,
                "time": 0,
                "total_time": 138.29879188537598
            },
            {
                "note": 78,
                "velocity": 112,
                "time": 0.0012499979166666665,
                "total_time": 138.29981684684753
            },
            {
                "note": 66,
                "velocity": 112,
                "time": 0,
                "total_time": 138.299902677536
            },
            {
                "note": 72,
                "velocity": 112,
                "time": 0,
                "total_time": 138.2999346256256
            },
            {
                "note": 44,
                "velocity": 96,
                "time": 0,
                "total_time": 138.29996037483215
            },
            {
                "note": 44,
                "velocity": 0,
                "time": 0.14124976458333333,
                "total_time": 138.4411518573761
            },
            {
                "note": 48,
                "velocity": 96,
                "time": 0.008749985416666665,
                "total_time": 138.44989132881165
            },
            {
                "note": 32,
                "velocity": 0,
                "time": 0.11874980208333331,
                "total_time": 138.5686480998993
            },
            {
                "note": 48,
                "velocity": 0,
                "time": 0.022499962499999998,
                "total_time": 138.59110522270203
            },
            {
                "note": 78,
                "velocity": 0,
                "time": 0.007499987499999999,
                "total_time": 138.59862399101257
            },
            {
                "note": 66,
                "velocity": 0,
                "time": 0,
                "total_time": 138.59883666038513
            },
            {
                "note": 72,
                "velocity": 0,
                "time": 0,
                "total_time": 138.59887409210205
            },
            {
                "note": 80,
                "velocity": 112,
                "time": 0.0012499979166666665,
                "total_time": 138.59982132911682
            },
            {
                "note": 68,
                "velocity": 112,
                "time": 0,
                "total_time": 138.59989619255066
            },
            {
                "note": 75,
                "velocity": 112,
                "time": 0,
                "total_time": 138.59992289543152
            },
            {
                "note": 42,
                "velocity": 112,
                "time": 0,
                "total_time": 138.59994506835938
            },
            {
                "note": 42,
                "velocity": 0,
                "time": 0,
                "total_time": 138.59996700286865
            },
            {
                "note": 42,
                "velocity": 112,
                "time": 0,
                "total_time": 138.5999870300293
            },
            {
                "note": 48,
                "velocity": 96,
                "time": 0,
                "total_time": 138.74989295005798
            },
            {
                "note": 48,
                "velocity": 0,
                "time": 0.14124976458333333,
                "total_time": 138.89112615585327
            },
            {
                "note": 80,
                "velocity": 0,
                "time": 0.007499987499999999,
                "total_time": 138.89874505996704
            },
            {
                "note": 68,
                "velocity": 0,
                "time": 0,
                "total_time": 138.8990762233734
            },
            {
                "note": 75,
                "velocity": 0,
                "time": 0,
                "total_time": 138.8992042541504
            },
            {
                "note": 82,
                "velocity": 112,
                "time": 0.0012499979166666665,
                "total_time": 138.89991807937622
            },
            {
                "note": 70,
                "velocity": 112,
                "time": 0,
                "total_time": 138.9003324508667
            },
            {
                "note": 78,
                "velocity": 112,
                "time": 0,
                "total_time": 138.90060830116272
            },
            {
                "note": 54,
                "velocity": 96,
                "time": 0,
                "total_time": 138.900696516037
            },
            {
                "note": 54,
                "velocity": 0,
                "time": 0.14124976458333333,
                "total_time": 139.0411307811737
            },
            {
                "note": 48,
                "velocity": 96,
                "time": 0.008749985416666665,
                "total_time": 139.04986381530762
            },
            {
                "note": 42,
                "velocity": 0,
                "time": 0.11874980208333331,
                "total_time": 139.16866636276245
            },
            {
                "note": 82,
                "velocity": 0,
                "time": 0.014999974999999999,
                "total_time": 139.18364715576172
            },
            {
                "note": 70,
                "velocity": 0,
                "time": 0,
                "total_time": 139.18394494056702
            },
            {
                "note": 78,
                "velocity": 0,
                "time": 0,
                "total_time": 139.18404245376587
            },
            {
                "note": 48,
                "velocity": 0,
                "time": 0.007499987499999999,
                "total_time": 139.19111466407776
            },
            {
                "note": 83,
                "velocity": 127,
                "time": 0.008749985416666665,
                "total_time": 139.1999659538269
            },
            {
                "note": 71,
                "velocity": 112,
                "time": 0,
                "total_time": 139.20050954818726
            },
            {
                "note": 80,
                "velocity": 112,
                "time": 0,
                "total_time": 139.2007350921631
            },
            {
                "note": 40,
                "velocity": 112,
                "time": 0,
                "total_time": 139.20090436935425
            },
            {
                "note": 40,
                "velocity": 0,
                "time": 0,
                "total_time": 139.20101881027222
            },
            {
                "note": 40,
                "velocity": 112,
                "time": 0,
                "total_time": 139.2011284828186
            },
            {
                "note": 47,
                "velocity": 96,
                "time": 0,
                "total_time": 139.35000824928284
            },
            {
                "note": 47,
                "velocity": 0,
                "time": 0.14124976458333333,
                "total_time": 139.49110007286072
            },
            {
                "note": 83,
                "velocity": 0,
                "time": 0.008749985416666665,
                "total_time": 139.49986624717712
            },
            {
                "note": 52,
                "velocity": 96,
                "time": 0,
                "total_time": 139.50002932548523
            },
            {
                "note": 52,
                "velocity": 0,
                "time": 0.14124976458333333,
                "total_time": 139.64109802246094
            },
            {
                "note": 71,
                "velocity": 0,
                "time": 0.007499987499999999,
                "total_time": 139.64859914779663
            },
            {
                "note": 80,
                "velocity": 0,
                "time": 0,
                "total_time": 139.64870762825012
            },
            {
                "note": 82,
                "velocity": 112,
                "time": 0.0012499979166666665,
                "total_time": 139.64984726905823
            },
            {
                "note": 70,
                "velocity": 112,
                "time": 0,
                "total_time": 139.64994072914124
            },
            {
                "note": 78,
                "velocity": 112,
                "time": 0,
                "total_time": 139.6499571800232
            },
            {
                "note": 47,
                "velocity": 96,
                "time": 0,
                "total_time": 139.64996981620789
            },
            {
                "note": 47,
                "velocity": 0,
                "time": 0.14124976458333333,
                "total_time": 139.79111194610596
            },
            {
                "note": 56,
                "velocity": 96,
                "time": 0.008749985416666665,
                "total_time": 139.7998607158661
            },
            {
                "note": 56,
                "velocity": 0,
                "time": 0.14124976458333333,
                "total_time": 139.94113492965698
            },
            {
                "note": 47,
                "velocity": 96,
                "time": 0.008749985416666665,
                "total_time": 139.94990158081055
            },
            {
                "note": 47,
                "velocity": 0,
                "time": 0.14124976458333333,
                "total_time": 140.091135263443
            },
            {
                "note": 82,
                "velocity": 0,
                "time": 0.007499987499999999,
                "total_time": 140.09931993484497
            },
            {
                "note": 70,
                "velocity": 0,
                "time": 0,
                "total_time": 140.09959435462952
            },
            {
                "note": 78,
                "velocity": 0,
                "time": 0,
                "total_time": 140.0997121334076
            },
            {
                "note": 80,
                "velocity": 112,
                "time": 0.0012499979166666665,
                "total_time": 140.09987092018127
            },
            {
                "note": 68,
                "velocity": 112,
                "time": 0,
                "total_time": 140.10004210472107
            },
            {
                "note": 71,
                "velocity": 112,
                "time": 0,
                "total_time": 140.10013484954834
            },
            {
                "note": 52,
                "velocity": 96,
                "time": 0,
                "total_time": 140.1002345085144
            },
            {
                "note": 52,
                "velocity": 0,
                "time": 0.14124976458333333,
                "total_time": 140.2411003112793
            },
            {
                "note": 47,
                "velocity": 96,
                "time": 0.008749985416666665,
                "total_time": 140.24983620643616
            },
            {
                "note": 40,
                "velocity": 0,
                "time": 0.08874985208333332,
                "total_time": 140.33859777450562
            },
            {
                "note": 80,
                "velocity": 0,
                "time": 0.044999924999999996,
                "total_time": 140.3836808204651
            },
            {
                "note": 68,
                "velocity": 0,
                "time": 0,
                "total_time": 140.38388061523438
            },
            {
                "note": 71,
                "velocity": 0,
                "time": 0,
                "total_time": 140.38395977020264
            },
            {
                "note": 47,
                "velocity": 0,
                "time": 0.007499987499999999,
                "total_time": 140.39112973213196
            },
            {
                "note": 78,
                "velocity": 112,
                "time": 0.008749985416666665,
                "total_time": 140.3999137878418
            },
            {
                "note": 66,
                "velocity": 112,
                "time": 0,
                "total_time": 140.4004044532776
            },
            {
                "note": 70,
                "velocity": 112,
                "time": 0,
                "total_time": 140.40057158470154
            },
            {
                "note": 35,
                "velocity": 112,
                "time": 0,
                "total_time": 140.40065813064575
            },
            {
                "note": 35,
                "velocity": 0,
                "time": 0,
                "total_time": 140.40093207359314
            },
            {
                "note": 35,
                "velocity": 112,
                "time": 0,
                "total_time": 140.40102171897888
            },
            {
                "note": 42,
                "velocity": 96,
                "time": 0,
                "total_time": 140.54999446868896
            },
            {
                "note": 42,
                "velocity": 0,
                "time": 0.14124976458333333,
                "total_time": 140.69114351272583
            },
            {
                "note": 78,
                "velocity": 0,
                "time": 0.007499987499999999,
                "total_time": 140.69863605499268
            },
            {
                "note": 66,
                "velocity": 0,
                "time": 0,
                "total_time": 140.6989233493805
            },
            {
                "note": 70,
                "velocity": 0,
                "time": 0,
                "total_time": 140.6990406513214
            },
            {
                "note": 75,
                "velocity": 112,
                "time": 0.0012499979166666665,
                "total_time": 140.69985175132751
            },
            {
                "note": 63,
                "velocity": 112,
                "time": 0,
                "total_time": 140.70000958442688
            },
            {
                "note": 66,
                "velocity": 112,
                "time": 0,
                "total_time": 140.70009589195251
            },
            {
                "note": 47,
                "velocity": 96,
                "time": 0,
                "total_time": 140.70017647743225
            },
            {
                "note": 47,
                "velocity": 0,
                "time": 0.14124976458333333,
                "total_time": 140.84115147590637
            },
            {
                "note": 42,
                "velocity": 96,
                "time": 0.008749985416666665,
                "total_time": 140.84993290901184
            },
            {
                "note": 42,
                "velocity": 0,
                "time": 0.14124976458333333,
                "total_time": 140.99112820625305
            },
            {
                "note": 75,
                "velocity": 0,
                "time": 0.007499987499999999,
                "total_time": 140.9987690448761
            },
            {
                "note": 63,
                "velocity": 0,
                "time": 0,
                "total_time": 140.99996256828308
            },
            {
                "note": 66,
                "velocity": 0,
                "time": 0,
                "total_time": 141.00015711784363
            },
            {
                "note": 78,
                "velocity": 112,
                "time": 0.0012499979166666665,
                "total_time": 141.0003354549408
            },
            {
                "note": 66,
                "velocity": 112,
                "time": 0,
                "total_time": 141.00055503845215
            },
            {
                "note": 70,
                "velocity": 112,
                "time": 0,
                "total_time": 141.00068831443787
            },
            {
                "note": 51,
                "velocity": 96,
                "time": 0,
                "total_time": 141.00085878372192
            },
            {
                "note": 51,
                "velocity": 0,
                "time": 0.14124976458333333,
                "total_time": 141.14109444618225
            },
            {
                "note": 42,
                "velocity": 96,
                "time": 0.008749985416666665,
                "total_time": 141.1498363018036
            },
            {
                "note": 42,
                "velocity": 0,
                "time": 0.14124976458333333,
                "total_time": 141.2910966873169
            },
            {
                "note": 78,
                "velocity": 0,
                "time": 0.007499987499999999,
                "total_time": 141.29862308502197
            },
            {
                "note": 66,
                "velocity": 0,
                "time": 0,
                "total_time": 141.2987928390503
            },
            {
                "note": 70,
                "velocity": 0,
                "time": 0,
                "total_time": 141.29885864257812
            },
            {
                "note": 82,
                "velocity": 112,
                "time": 0.0012499979166666665,
                "total_time": 141.29982924461365
            },
            {
                "note": 70,
                "velocity": 112,
                "time": 0,
                "total_time": 141.29992961883545
            },
            {
                "note": 75,
                "velocity": 112,
                "time": 0,
                "total_time": 141.29995918273926
            },
            {
                "note": 47,
                "velocity": 96,
                "time": 0,
                "total_time": 141.2999827861786
            },
            {
                "note": 47,
                "velocity": 0,
                "time": 0.14124976458333333,
                "total_time": 141.44109225273132
            },
            {
                "note": 42,
                "velocity": 96,
                "time": 0.008749985416666665,
                "total_time": 141.44984555244446
            },
            {
                "note": 35,
                "velocity": 0,
                "time": 0.08874985208333332,
                "total_time": 141.5386402606964
            },
            {
                "note": 82,
                "velocity": 0,
                "time": 0.044999924999999996,
                "total_time": 141.58361840248108
            },
            {
                "note": 70,
                "velocity": 0,
                "time": 0,
                "total_time": 141.58386850357056
            },
            {
                "note": 75,
                "velocity": 0,
                "time": 0,
                "total_time": 141.58394742012024
            },
            {
                "note": 42,
                "velocity": 0,
                "time": 0.007499987499999999,
                "total_time": 141.59109115600586
            },
            {
                "note": 80,
                "velocity": 127,
                "time": 0.008749985416666665,
                "total_time": 141.59988713264465
            },
            {
                "note": 68,
                "velocity": 112,
                "time": 0,
                "total_time": 141.60005569458008
            },
            {
                "note": 73,
                "velocity": 112,
                "time": 0,
                "total_time": 141.6000852584839
            },
            {
                "note": 37,
                "velocity": 112,
                "time": 0,
                "total_time": 141.60010433197021
            },
            {
                "note": 37,
                "velocity": 0,
                "time": 0,
                "total_time": 141.60011672973633
            },
            {
                "note": 37,
                "velocity": 112,
                "time": 0,
                "total_time": 141.60012984275818
            },
            {
                "note": 44,
                "velocity": 96,
                "time": 0,
                "total_time": 141.75007390975952
            },
            {
                "note": 44,
                "velocity": 0,
                "time": 0.14124976458333333,
                "total_time": 141.89111065864563
            },
            {
                "note": 49,
                "velocity": 96,
                "time": 0.008749985416666665,
                "total_time": 141.89993739128113
            },
            {
                "note": 49,
                "velocity": 0,
                "time": 0.14124976458333333,
                "total_time": 142.0410931110382
            },
            {
                "note": 53,
                "velocity": 96,
                "time": 0.008749985416666665,
                "total_time": 142.04992079734802
            },
            {
                "note": 53,
                "velocity": 0,
                "time": 0.14124976458333333,
                "total_time": 142.19109320640564
            },
            {
                "note": 56,
                "velocity": 96,
                "time": 0.008749985416666665,
                "total_time": 142.19982433319092
            },
            {
                "note": 56,
                "velocity": 0,
                "time": 0.14124976458333333,
                "total_time": 142.34109592437744
            },
            {
                "note": 53,
                "velocity": 96,
                "time": 0.008749985416666665,
                "total_time": 142.34988117218018
            },
            {
                "note": 80,
                "velocity": 0,
                "time": 0.052499912499999996,
                "total_time": 142.4023847579956
            },
            {
                "note": 53,
                "velocity": 0,
                "time": 0.08874985208333332,
                "total_time": 142.4911289215088
            },
            {
                "note": 49,
                "velocity": 96,
                "time": 0.008749985416666665,
                "total_time": 142.49995708465576
            },
            {
                "note": 49,
                "velocity": 0,
                "time": 0.14874975208333333,
                "total_time": 142.64863324165344
            },
            {
                "note": 68,
                "velocity": 0,
                "time": 0.08999984999999999,
                "total_time": 142.73865056037903
            },
            {
                "note": 73,
                "velocity": 0,
                "time": 0,
                "total_time": 142.738929271698
            },
            {
                "note": 37,
                "velocity": 0,
                "time": 0,
                "total_time": 142.73903584480286
            },
            {
                "note": 65,
                "velocity": 127,
                "time": 0.06124989791666666,
                "total_time": 142.79991698265076
            },
            {
                "note": 73,
                "velocity": 127,
                "time": 0,
                "total_time": 142.80028820037842
            },
            {
                "note": 77,
                "velocity": 127,
                "time": 0,
                "total_time": 142.80038404464722
            },
            {
                "note": 37,
                "velocity": 127,
                "time": 0,
                "total_time": 142.80052089691162
            },
            {
                "note": 44,
                "velocity": 127,
                "time": 0,
                "total_time": 142.80089354515076
            },
            {
                "note": 49,
                "velocity": 127,
                "time": 0,
                "total_time": 142.8011724948883
            },
            {
                "note": 65,
                "velocity": 0,
                "time": 0.39874933541666663,
                "total_time": 143.20000076293945
            },
            {
                "note": 73,
                "velocity": 0,
                "time": 0,
                "total_time": 143.2003254890442
            },
            {
                "note": 77,
                "velocity": 0,
                "time": 0,
                "total_time": 143.2004725933075
            },
            {
                "note": 37,
                "velocity": 0,
                "time": 0,
                "total_time": 143.200581073761
            },
            {
                "note": 44,
                "velocity": 0,
                "time": 0,
                "total_time": 143.20067811012268
            },
            {
                "note": 49,
                "velocity": 0,
                "time": 0,
                "total_time": 143.2007794380188
            },
            {
                "note": 61,
                "velocity": 127,
                "time": 0.19999966666666663,
                "total_time": 143.39989709854126
            },
            {
                "note": 70,
                "velocity": 127,
                "time": 0,
                "total_time": 143.39999914169312
            },
            {
                "note": 73,
                "velocity": 127,
                "time": 0,
                "total_time": 143.40002489089966
            },
            {
                "note": 41,
                "velocity": 127,
                "time": 0,
                "total_time": 143.40004634857178
            },
            {
                "note": 49,
                "velocity": 127,
                "time": 0,
                "total_time": 143.40008449554443
            },
            {
                "note": 53,
                "velocity": 127,
                "time": 0,
                "total_time": 143.40010476112366
            },
            {
                "note": 61,
                "velocity": 0,
                "time": 0.39999933333333326,
                "total_time": 143.79985642433167
            },
            {
                "note": 70,
                "velocity": 0,
                "time": 0,
                "total_time": 143.80009984970093
            },
            {
                "note": 73,
                "velocity": 0,
                "time": 0,
                "total_time": 143.8001446723938
            },
            {
                "note": 41,
                "velocity": 0,
                "time": 0,
                "total_time": 143.80016899108887
            },
            {
                "note": 49,
                "velocity": 0,
                "time": 0,
                "total_time": 143.80019211769104
            },
            {
                "note": 53,
                "velocity": 0,
                "time": 0,
                "total_time": 143.80021286010742
            },
            {
                "note": 75,
                "velocity": 127,
                "time": 0.19999966666666663,
                "total_time": 143.99984669685364
            },
            {
                "note": 66,
                "velocity": 112,
                "time": 0,
                "total_time": 144.00001502037048
            },
            {
                "note": 39,
                "velocity": 112,
                "time": 0,
                "total_time": 144.00008869171143
            },
            {
                "note": 39,
                "velocity": 0,
                "time": 0,
                "total_time": 144.00012493133545
            },
            {
                "note": 39,
                "velocity": 112,
                "time": 0,
                "total_time": 144.00014781951904
            },
            {
                "note": 46,
                "velocity": 96,
                "time": 0,
                "total_time": 144.15001845359802
            },
            {
                "note": 46,
                "velocity": 0,
                "time": 0.14124976458333333,
                "total_time": 144.29104924201965
            },
            {
                "note": 51,
                "velocity": 96,
                "time": 0.008749985416666665,
                "total_time": 144.29989314079285
            },
            {
                "note": 51,
                "velocity": 0,
                "time": 0.14124976458333333,
                "total_time": 144.44113659858704
            },
            {
                "note": 46,
                "velocity": 96,
                "time": 0.008749985416666665,
                "total_time": 144.44989895820618
            },
            {
                "note": 46,
                "velocity": 0,
                "time": 0.14124976458333333,
                "total_time": 144.59111642837524
            },
            {
                "note": 54,
                "velocity": 96,
                "time": 0.008749985416666665,
                "total_time": 144.59999871253967
            },
            {
                "note": 75,
                "velocity": 0,
                "time": 0.0012499979166666665,
                "total_time": 144.60118198394775
            },
            {
                "note": 54,
                "velocity": 0,
                "time": 0.13999976666666664,
                "total_time": 144.74105525016785
            },
            {
                "note": 46,
                "velocity": 96,
                "time": 0.008749985416666665,
                "total_time": 144.74984121322632
            },
            {
                "note": 46,
                "velocity": 0,
                "time": 0.14124976458333333,
                "total_time": 144.89108610153198
            },
            {
                "note": 78,
                "velocity": 112,
                "time": 0.008749985416666665,
                "total_time": 144.89984679222107
            },
            {
                "note": 51,
                "velocity": 96,
                "time": 0,
                "total_time": 144.90005493164062
            },
            {
                "note": 51,
                "velocity": 0,
                "time": 0.14124976458333333,
                "total_time": 145.04118871688843
            },
            {
                "note": 46,
                "velocity": 96,
                "time": 0.008749985416666665,
                "total_time": 145.04986548423767
            },
            {
                "note": 39,
                "velocity": 0,
                "time": 0.08874985208333332,
                "total_time": 145.13864016532898
            },
            {
                "note": 78,
                "velocity": 0,
                "time": 0.044999924999999996,
                "total_time": 145.1836621761322
            },
            {
                "note": 46,
                "velocity": 0,
                "time": 0.007499987499999999,
                "total_time": 145.1911952495575
            },
            {
                "note": 66,
                "velocity": 0,
                "time": 0.007499987499999999,
                "total_time": 145.19869375228882
            },
            {
                "note": 77,
                "velocity": 127,
                "time": 0.0012499979166666665,
                "total_time": 145.19989275932312
            },
            {
                "note": 70,
                "velocity": 112,
                "time": 0,
                "total_time": 145.20035362243652
            },
            {
                "note": 34,
                "velocity": 112,
                "time": 0,
                "total_time": 145.20053601264954
            },
            {
                "note": 34,
                "velocity": 0,
                "time": 0,
                "total_time": 145.20063471794128
            },
            {
                "note": 34,
                "velocity": 112,
                "time": 0,
                "total_time": 145.20072221755981
            },
            {
                "note": 41,
                "velocity": 96,
                "time": 0,
                "total_time": 145.3500680923462
            },
            {
                "note": 41,
                "velocity": 0,
                "time": 0.14124976458333333,
                "total_time": 145.49108958244324
            },
            {
                "note": 46,
                "velocity": 96,
                "time": 0.008749985416666665,
                "total_time": 145.49984908103943
            },
            {
                "note": 46,
                "velocity": 0,
                "time": 0.14124976458333333,
                "total_time": 145.64108896255493
            },
            {
                "note": 41,
                "velocity": 96,
                "time": 0.008749985416666665,
                "total_time": 145.6498339176178
            },
            {
                "note": 41,
                "velocity": 0,
                "time": 0.14124976458333333,
                "total_time": 145.79112601280212
            },
            {
                "note": 49,
                "velocity": 96,
                "time": 0.008749985416666665,
                "total_time": 145.7999186515808
            },
            {
                "note": 77,
                "velocity": 0,
                "time": 0.0012499979166666665,
                "total_time": 145.8011119365692
            },
            {
                "note": 49,
                "velocity": 0,
                "time": 0.13999976666666664,
                "total_time": 145.94110321998596
            },
            {
                "note": 41,
                "velocity": 96,
                "time": 0.008749985416666665,
                "total_time": 145.94991159439087
            },
            {
                "note": 41,
                "velocity": 0,
                "time": 0.14124976458333333,
                "total_time": 146.09115433692932
            },
            {
                "note": 82,
                "velocity": 112,
                "time": 0.008749985416666665,
                "total_time": 146.09988927841187
            },
            {
                "note": 46,
                "velocity": 96,
                "time": 0,
                "total_time": 146.10022020339966
            },
            {
                "note": 46,
                "velocity": 0,
                "time": 0.14124976458333333,
                "total_time": 146.2411208152771
            },
            {
                "note": 41,
                "velocity": 96,
                "time": 0.008749985416666665,
                "total_time": 146.24987864494324
            },
            {
                "note": 34,
                "velocity": 0,
                "time": 0.08874985208333332,
                "total_time": 146.33863306045532
            },
            {
                "note": 82,
                "velocity": 0,
                "time": 0.044999924999999996,
                "total_time": 146.38364434242249
            },
            {
                "note": 41,
                "velocity": 0,
                "time": 0.007499987499999999,
                "total_time": 146.39108872413635
            },
            {
                "note": 70,
                "velocity": 0,
                "time": 0.007499987499999999,
                "total_time": 146.39859175682068
            },
            {
                "note": 82,
                "velocity": 127,
                "time": 0.0012499979166666665,
                "total_time": 146.39983296394348
            },
            {
                "note": 71,
                "velocity": 112,
                "time": 0,
                "total_time": 146.39999675750732
            },
            {
                "note": 75,
                "velocity": 112,
                "time": 0,
                "total_time": 146.40003991127014
            },
            {
                "note": 35,
                "velocity": 112,
                "time": 0,
                "total_time": 146.40006375312805
            },
            {
                "note": 35,
                "velocity": 0,
                "time": 0,
                "total_time": 146.40008664131165
            },
            {
                "note": 35,
                "velocity": 112,
                "time": 0,
                "total_time": 146.40010905265808
            },
            {
                "note": 42,
                "velocity": 96,
                "time": 0,
                "total_time": 146.55002689361572
            },
            {
                "note": 42,
                "velocity": 0,
                "time": 0.14124976458333333,
                "total_time": 146.69108963012695
            },
            {
                "note": 47,
                "velocity": 96,
                "time": 0.008749985416666665,
                "total_time": 146.699875831604
            },
            {
                "note": 47,
                "velocity": 0,
                "time": 0.14124976458333333,
                "total_time": 146.8411374092102
            },
            {
                "note": 42,
                "velocity": 96,
                "time": 0.008749985416666665,
                "total_time": 146.84988164901733
            },
            {
                "note": 42,
                "velocity": 0,
                "time": 0.14124976458333333,
                "total_time": 146.99112057685852
            },
            {
                "note": 51,
                "velocity": 96,
                "time": 0.008749985416666665,
                "total_time": 147.0001678466797
            },
            {
                "note": 82,
                "velocity": 0,
                "time": 0.0012499979166666665,
                "total_time": 147.00117444992065
            },
            {
                "note": 51,
                "velocity": 0,
                "time": 0.13999976666666664,
                "total_time": 147.1411120891571
            },
            {
                "note": 42,
                "velocity": 96,
                "time": 0.008749985416666665,
                "total_time": 147.14998364448547
            },
            {
                "note": 42,
                "velocity": 0,
                "time": 0.14124976458333333,
                "total_time": 147.2911217212677
            },
            {
                "note": 80,
                "velocity": 112,
                "time": 0.008749985416666665,
                "total_time": 147.2998833656311
            },
            {
                "note": 47,
                "velocity": 96,
                "time": 0,
                "total_time": 147.30018711090088
            },
            {
                "note": 47,
                "velocity": 0,
                "time": 0.14124976458333333,
                "total_time": 147.4410843849182
            },
            {
                "note": 80,
                "velocity": 0,
                "time": 0.007499987499999999,
                "total_time": 147.4486174583435
            },
            {
                "note": 78,
                "velocity": 112,
                "time": 0.0012499979166666665,
                "total_time": 147.44982266426086
            },
            {
                "note": 42,
                "velocity": 96,
                "time": 0,
                "total_time": 147.4499065876007
            },
            {
                "note": 35,
                "velocity": 0,
                "time": 0.08874985208333332,
                "total_time": 147.53858494758606
            },
            {
                "note": 78,
                "velocity": 0,
                "time": 0.052499912499999996,
                "total_time": 147.59108448028564
            },
            {
                "note": 42,
                "velocity": 0,
                "time": 0,
                "total_time": 147.5911726951599
            },
            {
                "note": 71,
                "velocity": 0,
                "time": 0.007499987499999999,
                "total_time": 147.59859538078308
            },
            {
                "note": 75,
                "velocity": 0,
                "time": 0,
                "total_time": 147.59873580932617
            },
            {
                "note": 77,
                "velocity": 112,
                "time": 0.0012499979166666665,
                "total_time": 147.599867105484
            },
            {
                "note": 73,
                "velocity": 112,
                "time": 0,
                "total_time": 147.59999680519104
            },
            {
                "note": 37,
                "velocity": 112,
                "time": 0,
                "total_time": 147.6000256538391
            },
            {
                "note": 37,
                "velocity": 0,
                "time": 0,
                "total_time": 147.60005164146423
            },
            {
                "note": 37,
                "velocity": 112,
                "time": 0,
                "total_time": 147.60007524490356
            },
            {
                "note": 44,
                "velocity": 96,
                "time": 0,
                "total_time": 147.74999904632568
            },
            {
                "note": 44,
                "velocity": 0,
                "time": 0.14124976458333333,
                "total_time": 147.89112901687622
            },
            {
                "note": 77,
                "velocity": 0,
                "time": 0.007499987499999999,
                "total_time": 147.8986337184906
            },
            {
                "note": 73,
                "velocity": 0,
                "time": 0,
                "total_time": 147.8990228176117
            },
            {
                "note": 78,
                "velocity": 112,
                "time": 0.0012499979166666665,
                "total_time": 147.8999104499817
            },
            {
                "note": 71,
                "velocity": 112,
                "time": 0,
                "total_time": 147.90027141571045
            },
            {
                "note": 49,
                "velocity": 96,
                "time": 0,
                "total_time": 147.9004020690918
            },
            {
                "note": 49,
                "velocity": 0,
                "time": 0.14124976458333333,
                "total_time": 148.041113615036
            },
            {
                "note": 44,
                "velocity": 96,
                "time": 0.008749985416666665,
                "total_time": 148.04986667633057
            },
            {
                "note": 44,
                "velocity": 0,
                "time": 0.14124976458333333,
                "total_time": 148.19109320640564
            },
            {
                "note": 78,
                "velocity": 0,
                "time": 0.007499987499999999,
                "total_time": 148.1988549232483
            },
            {
                "note": 71,
                "velocity": 0,
                "time": 0,
                "total_time": 148.19916558265686
            },
            {
                "note": 73,
                "velocity": 112,
                "time": 0.0012499979166666665,
                "total_time": 148.2004280090332
            },
            {
                "note": 70,
                "velocity": 112,
                "time": 0,
                "total_time": 148.20096850395203
            },
            {
                "note": 53,
                "velocity": 96,
                "time": 0,
                "total_time": 148.20114636421204
            },
            {
                "note": 53,
                "velocity": 0,
                "time": 0.14124976458333333,
                "total_time": 148.34113836288452
            },
            {
                "note": 44,
                "velocity": 96,
                "time": 0.008749985416666665,
                "total_time": 148.34992003440857
            },
            {
                "note": 44,
                "velocity": 0,
                "time": 0.14124976458333333,
                "total_time": 148.4910843372345
            },
            {
                "note": 73,
                "velocity": 0,
                "time": 0.007499987499999999,
                "total_time": 148.4985990524292
            },
            {
                "note": 70,
                "velocity": 0,
                "time": 0,
                "total_time": 148.49877452850342
            },
            {
                "note": 70,
                "velocity": 112,
                "time": 0.0012499979166666665,
                "total_time": 148.49981880187988
            },
            {
                "note": 65,
                "velocity": 112,
                "time": 0,
                "total_time": 148.4998779296875
            },
            {
                "note": 49,
                "velocity": 96,
                "time": 0,
                "total_time": 148.49990510940552
            },
            {
                "note": 49,
                "velocity": 0,
                "time": 0.14124976458333333,
                "total_time": 148.6410834789276
            },
            {
                "note": 44,
                "velocity": 96,
                "time": 0.008749985416666665,
                "total_time": 148.6498420238495
            },
            {
                "note": 37,
                "velocity": 0,
                "time": 0.08874985208333332,
                "total_time": 148.7386245727539
            },
            {
                "note": 70,
                "velocity": 0,
                "time": 0.044999924999999996,
                "total_time": 148.7836275100708
            },
            {
                "note": 65,
                "velocity": 0,
                "time": 0,
                "total_time": 148.78387761116028
            },
            {
                "note": 44,
                "velocity": 0,
                "time": 0.007499987499999999,
                "total_time": 148.79115533828735
            },
            {
                "note": 71,
                "velocity": 127,
                "time": 0.008749985416666665,
                "total_time": 148.79988646507263
            },
            {
                "note": 66,
                "velocity": 112,
                "time": 0,
                "total_time": 148.80018043518066
            },
            {
                "note": 32,
                "velocity": 112,
                "time": 0,
                "total_time": 148.80029845237732
            },
            {
                "note": 32,
                "velocity": 0,
                "time": 0,
                "total_time": 148.80036902427673
            },
            {
                "note": 32,
                "velocity": 112,
                "time": 0,
                "total_time": 148.80044078826904
            },
            {
                "note": 39,
                "velocity": 96,
                "time": 0,
                "total_time": 148.95008969306946
            },
            {
                "note": 39,
                "velocity": 0,
                "time": 0.14124976458333333,
                "total_time": 149.09111666679382
            },
            {
                "note": 44,
                "velocity": 96,
                "time": 0.008749985416666665,
                "total_time": 149.099853515625
            },
            {
                "note": 71,
                "velocity": 0,
                "time": 0.09999983333333332,
                "total_time": 149.19986367225647
            },
            {
                "note": 44,
                "velocity": 0,
                "time": 0.041249931249999996,
                "total_time": 149.2410819530487
            },
            {
                "note": 39,
                "velocity": 96,
                "time": 0.008749985416666665,
                "total_time": 149.24983882904053
            },
            {
                "note": 39,
                "velocity": 0,
                "time": 0.14124976458333333,
                "total_time": 149.39114570617676
            },
            {
                "note": 66,
                "velocity": 0,
                "time": 0.007499987499999999,
                "total_time": 149.39869618415833
            },
            {
                "note": 75,
                "velocity": 112,
                "time": 0.0012499979166666665,
                "total_time": 149.39989709854126
            },
            {
                "note": 71,
                "velocity": 112,
                "time": 0,
                "total_time": 149.40023684501648
            },
            {
                "note": 47,
                "velocity": 96,
                "time": 0,
                "total_time": 149.40032625198364
            },
            {
                "note": 47,
                "velocity": 0,
                "time": 0.14124976458333333,
                "total_time": 149.54117727279663
            },
            {
                "note": 39,
                "velocity": 96,
                "time": 0.008749985416666665,
                "total_time": 149.54987812042236
            },
            {
                "note": 39,
                "velocity": 0,
                "time": 0.14124976458333333,
                "total_time": 149.6911382675171
            },
            {
                "note": 75,
                "velocity": 0,
                "time": 0.007499987499999999,
                "total_time": 149.69875955581665
            },
            {
                "note": 71,
                "velocity": 0,
                "time": 0,
                "total_time": 149.69914531707764
            },
            {
                "note": 78,
                "velocity": 112,
                "time": 0.0012499979166666665,
                "total_time": 149.69987416267395
            },
            {
                "note": 71,
                "velocity": 112,
                "time": 0,
                "total_time": 149.7004747390747
            },
            {
                "note": 44,
                "velocity": 96,
                "time": 0,
                "total_time": 149.70071721076965
            },
            {
                "note": 44,
                "velocity": 0,
                "time": 0.14124976458333333,
                "total_time": 149.84112358093262
            },
            {
                "note": 39,
                "velocity": 96,
                "time": 0.008749985416666665,
                "total_time": 149.8498842716217
            },
            {
                "note": 32,
                "velocity": 0,
                "time": 0.08874985208333332,
                "total_time": 149.93859791755676
            },
            {
                "note": 78,
                "velocity": 0,
                "time": 0.044999924999999996,
                "total_time": 149.98363304138184
            },
            {
                "note": 71,
                "velocity": 0,
                "time": 0,
                "total_time": 149.9838604927063
            },
            {
                "note": 39,
                "velocity": 0,
                "time": 0.007499987499999999,
                "total_time": 149.9910786151886
            },
            {
                "note": 78,
                "velocity": 127,
                "time": 0.008749985416666665,
                "total_time": 149.9998540878296
            },
            {
                "note": 73,
                "velocity": 112,
                "time": 0,
                "total_time": 150.00006222724915
            },
            {
                "note": 34,
                "velocity": 112,
                "time": 0,
                "total_time": 150.0001244544983
            },
            {
                "note": 34,
                "velocity": 0,
                "time": 0,
                "total_time": 150.0001564025879
            },
            {
                "note": 34,
                "velocity": 112,
                "time": 0,
                "total_time": 150.0001859664917
            },
            {
                "note": 41,
                "velocity": 96,
                "time": 0,
                "total_time": 150.1498818397522
            },
            {
                "note": 41,
                "velocity": 0,
                "time": 0.14124976458333333,
                "total_time": 150.29111671447754
            },
            {
                "note": 46,
                "velocity": 96,
                "time": 0.008749985416666665,
                "total_time": 150.29988813400269
            },
            {
                "note": 78,
                "velocity": 0,
                "time": 0.09999983333333332,
                "total_time": 150.3998727798462
            },
            {
                "note": 46,
                "velocity": 0,
                "time": 0.041249931249999996,
                "total_time": 150.441153049469
            },
            {
                "note": 41,
                "velocity": 96,
                "time": 0.008749985416666665,
                "total_time": 150.4499068260193
            },
            {
                "note": 41,
                "velocity": 0,
                "time": 0.14124976458333333,
                "total_time": 150.59110260009766
            },
            {
                "note": 73,
                "velocity": 0,
                "time": 0.007499987499999999,
                "total_time": 150.59868001937866
            },
            {
                "note": 77,
                "velocity": 112,
                "time": 0.0012499979166666665,
                "total_time": 150.60000324249268
            },
            {
                "note": 70,
                "velocity": 112,
                "time": 0,
                "total_time": 150.60024237632751
            },
            {
                "note": 49,
                "velocity": 96,
                "time": 0,
                "total_time": 150.60032892227173
            },
            {
                "note": 49,
                "velocity": 0,
                "time": 0.14124976458333333,
                "total_time": 150.74108290672302
            },
            {
                "note": 41,
                "velocity": 96,
                "time": 0.008749985416666665,
                "total_time": 150.7498300075531
            },
            {
                "note": 41,
                "velocity": 0,
                "time": 0.14124976458333333,
                "total_time": 150.89107632637024
            },
            {
                "note": 77,
                "velocity": 0,
                "time": 0.007499987499999999,
                "total_time": 150.8985788822174
            },
            {
                "note": 70,
                "velocity": 0,
                "time": 0,
                "total_time": 150.89868927001953
            },
            {
                "note": 78,
                "velocity": 112,
                "time": 0.0012499979166666665,
                "total_time": 150.8998100757599
            },
            {
                "note": 68,
                "velocity": 112,
                "time": 0,
                "total_time": 150.89986896514893
            },
            {
                "note": 46,
                "velocity": 96,
                "time": 0,
                "total_time": 150.899893283844
            },
            {
                "note": 46,
                "velocity": 0,
                "time": 0.14124976458333333,
                "total_time": 151.04112100601196
            },
            {
                "note": 41,
                "velocity": 96,
                "time": 0.008749985416666665,
                "total_time": 151.04988861083984
            },
            {
                "note": 34,
                "velocity": 0,
                "time": 0.08874985208333332,
                "total_time": 151.13862562179565
            },
            {
                "note": 78,
                "velocity": 0,
                "time": 0.044999924999999996,
                "total_time": 151.18358302116394
            },
            {
                "note": 68,
                "velocity": 0,
                "time": 0,
                "total_time": 151.18370985984802
            },
            {
                "note": 41,
                "velocity": 0,
                "time": 0.007499987499999999,
                "total_time": 151.19108605384827
            },
            {
                "note": 85,
                "velocity": 127,
                "time": 0.008749985416666665,
                "total_time": 151.19984817504883
            },
            {
                "note": 78,
                "velocity": 112,
                "time": 0,
                "total_time": 151.20004892349243
            },
            {
                "note": 35,
                "velocity": 112,
                "time": 0,
                "total_time": 151.20014095306396
            },
            {
                "note": 35,
                "velocity": 0,
                "time": 0,
                "total_time": 151.20019245147705
            },
            {
                "note": 35,
                "velocity": 112,
                "time": 0,
                "total_time": 151.2002420425415
            },
            {
                "note": 42,
                "velocity": 96,
                "time": 0,
                "total_time": 151.35006046295166
            },
            {
                "note": 42,
                "velocity": 0,
                "time": 0.14124976458333333,
                "total_time": 151.49110674858093
            },
            {
                "note": 85,
                "velocity": 0,
                "time": 0.008749985416666665,
                "total_time": 151.4998791217804
            },
            {
                "note": 47,
                "velocity": 96,
                "time": 0,
                "total_time": 151.50005912780762
            },
            {
                "note": 47,
                "velocity": 0,
                "time": 0.14124976458333333,
                "total_time": 151.6411063671112
            },
            {
                "note": 78,
                "velocity": 0,
                "time": 0.007499987499999999,
                "total_time": 151.64862823486328
            },
            {
                "note": 83,
                "velocity": 127,
                "time": 0.0012499979166666665,
                "total_time": 151.6498782634735
            },
            {
                "note": 75,
                "velocity": 112,
                "time": 0,
                "total_time": 151.6502652168274
            },
            {
                "note": 42,
                "velocity": 96,
                "time": 0,
                "total_time": 151.65040349960327
            },
            {
                "note": 42,
                "velocity": 0,
                "time": 0.14124976458333333,
                "total_time": 151.7910816669464
            },
            {
                "note": 51,
                "velocity": 96,
                "time": 0.008749985416666665,
                "total_time": 151.79984068870544
            },
            {
                "note": 51,
                "velocity": 0,
                "time": 0.14124976458333333,
                "total_time": 151.941086769104
            },
            {
                "note": 83,
                "velocity": 0,
                "time": 0.008749985416666665,
                "total_time": 151.94983315467834
            },
            {
                "note": 42,
                "velocity": 96,
                "time": 0,
                "total_time": 151.94994401931763
            },
            {
                "note": 42,
                "velocity": 0,
                "time": 0.14124976458333333,
                "total_time": 152.09116053581238
            },
            {
                "note": 75,
                "velocity": 0,
                "time": 0.007499987499999999,
                "total_time": 152.0986304283142
            },
            {
                "note": 82,
                "velocity": 127,
                "time": 0.0012499979166666665,
                "total_time": 152.09985208511353
            },
            {
                "note": 78,
                "velocity": 112,
                "time": 0,
                "total_time": 152.1000280380249
            },
            {
                "note": 47,
                "velocity": 96,
                "time": 0,
                "total_time": 152.10012292861938
            },
            {
                "note": 47,
                "velocity": 0,
                "time": 0.14124976458333333,
                "total_time": 152.24110007286072
            },
            {
                "note": 42,
                "velocity": 96,
                "time": 0.008749985416666665,
                "total_time": 152.24983429908752
            },
            {
                "note": 82,
                "velocity": 0,
                "time": 0.048749918749999996,
                "total_time": 152.29865407943726
            },
            {
                "note": 35,
                "velocity": 0,
                "time": 0.03999993333333333,
                "total_time": 152.33861303329468
            },
            {
                "note": 78,
                "velocity": 0,
                "time": 0.044999924999999996,
                "total_time": 152.38367652893066
            },
            {
                "note": 42,
                "velocity": 0,
                "time": 0.007499987499999999,
                "total_time": 152.39108848571777
            },
            {
                "note": 80,
                "velocity": 127,
                "time": 0.008749985416666665,
                "total_time": 152.3999264240265
            },
            {
                "note": 77,
                "velocity": 112,
                "time": 0,
                "total_time": 152.4003460407257
            },
            {
                "note": 37,
                "velocity": 112,
                "time": 0,
                "total_time": 152.4005217552185
            },
            {
                "note": 37,
                "velocity": 0,
                "time": 0,
                "total_time": 152.40062499046326
            },
            {
                "note": 37,
                "velocity": 112,
                "time": 0,
                "total_time": 152.40072464942932
            },
            {
                "note": 80,
                "velocity": 0,
                "time": 0.09624983958333332,
                "total_time": 152.49865984916687
            },
            {
                "note": 82,
                "velocity": 112,
                "time": 0.05124991458333333,
                "total_time": 152.5499711036682
            },
            {
                "note": 44,
                "velocity": 96,
                "time": 0,
                "total_time": 152.550443649292
            },
            {
                "note": 44,
                "velocity": 0,
                "time": 0.14124976458333333,
                "total_time": 152.6910755634308
            },
            {
                "note": 82,
                "velocity": 0,
                "time": 0.007499987499999999,
                "total_time": 152.69858479499817
            },
            {
                "note": 80,
                "velocity": 112,
                "time": 0.0012499979166666665,
                "total_time": 152.6998519897461
            },
            {
                "note": 53,
                "velocity": 96,
                "time": 0,
                "total_time": 152.69989609718323
            },
            {
                "note": 53,
                "velocity": 0,
                "time": 0.14124976458333333,
                "total_time": 152.84108591079712
            },
            {
                "note": 80,
                "velocity": 0,
                "time": 0.007499987499999999,
                "total_time": 152.84860801696777
            },
            {
                "note": 78,
                "velocity": 112,
                "time": 0.0012499979166666665,
                "total_time": 152.84985756874084
            },
            {
                "note": 44,
                "velocity": 96,
                "time": 0,
                "total_time": 152.85001587867737
            },
            {
                "note": 37,
                "velocity": 0,
                "time": 0.11874980208333331,
                "total_time": 152.96859216690063
            },
            {
                "note": 44,
                "velocity": 0,
                "time": 0.022499962499999998,
                "total_time": 152.9911105632782
            },
            {
                "note": 78,
                "velocity": 0,
                "time": 0.007499987499999999,
                "total_time": 152.998633146286
            },
            {
                "note": 77,
                "velocity": 0,
                "time": 0.0012499979166666665,
                "total_time": 152.99986481666565
            },
            {
                "note": 77,
                "velocity": 112,
                "time": 0,
                "total_time": 153.000146150589
            },
            {
                "note": 38,
                "velocity": 112,
                "time": 0,
                "total_time": 153.00033116340637
            },
            {
                "note": 38,
                "velocity": 0,
                "time": 0,
                "total_time": 153.00043535232544
            },
            {
                "note": 38,
                "velocity": 112,
                "time": 0,
                "total_time": 153.00053310394287
            },
            {
                "note": 74,
                "velocity": 112,
                "time": 0.14749975416666664,
                "total_time": 153.14990377426147
            },
            {
                "note": 46,
                "velocity": 96,
                "time": 0,
                "total_time": 153.15029549598694
            },
            {
                "note": 46,
                "velocity": 0,
                "time": 0.14124976458333333,
                "total_time": 153.29110717773438
            },
            {
                "note": 74,
                "velocity": 0,
                "time": 0.007499987499999999,
                "total_time": 153.29864358901978
            },
            {
                "note": 80,
                "velocity": 112,
                "time": 0.0012499979166666665,
                "total_time": 153.29988312721252
            },
            {
                "note": 50,
                "velocity": 96,
                "time": 0,
                "total_time": 153.30013799667358
            },
            {
                "note": 50,
                "velocity": 0,
                "time": 0.14124976458333333,
                "total_time": 153.44112730026245
            },
            {
                "note": 80,
                "velocity": 0,
                "time": 0.007499987499999999,
                "total_time": 153.44886589050293
            },
            {
                "note": 77,
                "velocity": 0,
                "time": 0.0012499979166666665,
                "total_time": 153.44989323616028
            },
            {
                "note": 77,
                "velocity": 112,
                "time": 0,
                "total_time": 153.45007967948914
            },
            {
                "note": 46,
                "velocity": 96,
                "time": 0,
                "total_time": 153.45023655891418
            },
            {
                "note": 38,
                "velocity": 0,
                "time": 0.11874980208333331,
                "total_time": 153.56865000724792
            },
            {
                "note": 46,
                "velocity": 0,
                "time": 0.022499962499999998,
                "total_time": 153.59107518196106
            },
            {
                "note": 77,
                "velocity": 0,
                "time": 0.007499987499999999,
                "total_time": 153.59861397743225
            },
            {
                "note": 78,
                "velocity": 127,
                "time": 0.0012499979166666665,
                "total_time": 153.59981393814087
            },
            {
                "note": 75,
                "velocity": 112,
                "time": 0,
                "total_time": 153.59987044334412
            },
            {
                "note": 39,
                "velocity": 112,
                "time": 0,
                "total_time": 153.5999083518982
            },
            {
                "note": 39,
                "velocity": 0,
                "time": 0,
                "total_time": 153.59993028640747
            },
            {
                "note": 39,
                "velocity": 112,
                "time": 0,
                "total_time": 153.599951505661
            },
            {
                "note": 46,
                "velocity": 96,
                "time": 0,
                "total_time": 153.74988317489624
            },
            {
                "note": 46,
                "velocity": 0,
                "time": 0.14124976458333333,
                "total_time": 153.89115571975708
            },
            {
                "note": 78,
                "velocity": 0,
                "time": 0.008749985416666665,
                "total_time": 153.89994025230408
            },
            {
                "note": 51,
                "velocity": 96,
                "time": 0,
                "total_time": 153.9002046585083
            },
            {
                "note": 51,
                "velocity": 0,
                "time": 0.14124976458333333,
                "total_time": 154.04113960266113
            },
            {
                "note": 75,
                "velocity": 0,
                "time": 0.007499987499999999,
                "total_time": 154.04871916770935
            },
            {
                "note": 77,
                "velocity": 112,
                "time": 0.0012499979166666665,
                "total_time": 154.04990243911743
            },
            {
                "note": 70,
                "velocity": 112,
                "time": 0,
                "total_time": 154.05121898651123
            },
            {
                "note": 46,
                "velocity": 96,
                "time": 0,
                "total_time": 154.0514838695526
            },
            {
                "note": 46,
                "velocity": 0,
                "time": 0.14124976458333333,
                "total_time": 154.19109773635864
            },
            {
                "note": 54,
                "velocity": 96,
                "time": 0.008749985416666665,
                "total_time": 154.1999261379242
            },
            {
                "note": 54,
                "velocity": 0,
                "time": 0.14124976458333333,
                "total_time": 154.34107422828674
            },
            {
                "note": 46,
                "velocity": 96,
                "time": 0.008749985416666665,
                "total_time": 154.34983038902283
            },
            {
                "note": 46,
                "velocity": 0,
                "time": 0.14124976458333333,
                "total_time": 154.49108695983887
            },
            {
                "note": 77,
                "velocity": 0,
                "time": 0.007499987499999999,
                "total_time": 154.4986491203308
            },
            {
                "note": 70,
                "velocity": 0,
                "time": 0,
                "total_time": 154.49899005889893
            },
            {
                "note": 78,
                "velocity": 112,
                "time": 0.0012499979166666665,
                "total_time": 154.49984550476074
            },
            {
                "note": 70,
                "velocity": 112,
                "time": 0,
                "total_time": 154.5000102519989
            },
            {
                "note": 51,
                "velocity": 96,
                "time": 0,
                "total_time": 154.50008726119995
            },
            {
                "note": 51,
                "velocity": 0,
                "time": 0.14124976458333333,
                "total_time": 154.64109635353088
            },
            {
                "note": 46,
                "velocity": 96,
                "time": 0.008749985416666665,
                "total_time": 154.64990377426147
            },
            {
                "note": 39,
                "velocity": 0,
                "time": 0.08874985208333332,
                "total_time": 154.73857498168945
            },
            {
                "note": 78,
                "velocity": 0,
                "time": 0.044999924999999996,
                "total_time": 154.78362703323364
            },
            {
                "note": 70,
                "velocity": 0,
                "time": 0,
                "total_time": 154.78399300575256
            },
            {
                "note": 46,
                "velocity": 0,
                "time": 0.007499987499999999,
                "total_time": 154.7911262512207
            },
            {
                "note": 82,
                "velocity": 127,
                "time": 0.008749985416666665,
                "total_time": 154.7999243736267
            },
            {
                "note": 77,
                "velocity": 112,
                "time": 0,
                "total_time": 154.80025100708008
            },
            {
                "note": 37,
                "velocity": 112,
                "time": 0,
                "total_time": 154.80038499832153
            },
            {
                "note": 37,
                "velocity": 0,
                "time": 0,
                "total_time": 154.80047273635864
            },
            {
                "note": 37,
                "velocity": 112,
                "time": 0,
                "total_time": 154.80055475234985
            },
            {
                "note": 46,
                "velocity": 96,
                "time": 0,
                "total_time": 154.95007395744324
            },
            {
                "note": 46,
                "velocity": 0,
                "time": 0.14124976458333333,
                "total_time": 155.0910942554474
            },
            {
                "note": 49,
                "velocity": 96,
                "time": 0.008749985416666665,
                "total_time": 155.09986019134521
            },
            {
                "note": 49,
                "velocity": 0,
                "time": 0.14124976458333333,
                "total_time": 155.24115324020386
            },
            {
                "note": 46,
                "velocity": 96,
                "time": 0.008749985416666665,
                "total_time": 155.2498333454132
            },
            {
                "note": 46,
                "velocity": 0,
                "time": 0.14124976458333333,
                "total_time": 155.39110159873962
            },
            {
                "note": 53,
                "velocity": 96,
                "time": 0.008749985416666665,
                "total_time": 155.39983224868774
            },
            {
                "note": 82,
                "velocity": 0,
                "time": 0.0012499979166666665,
                "total_time": 155.4010705947876
            },
            {
                "note": 53,
                "velocity": 0,
                "time": 0.13999976666666664,
                "total_time": 155.54111337661743
            },
            {
                "note": 46,
                "velocity": 96,
                "time": 0.008749985416666665,
                "total_time": 155.54983186721802
            },
            {
                "note": 46,
                "velocity": 0,
                "time": 0.14124976458333333,
                "total_time": 155.6911976337433
            },
            {
                "note": 77,
                "velocity": 0,
                "time": 0.007499987499999999,
                "total_time": 155.69861769676208
            },
            {
                "note": 77,
                "velocity": 112,
                "time": 0.0012499979166666665,
                "total_time": 155.69989728927612
            },
            {
                "note": 70,
                "velocity": 112,
                "time": 0,
                "total_time": 155.70015048980713
            },
            {
                "note": 49,
                "velocity": 96,
                "time": 0,
                "total_time": 155.70025205612183
            },
            {
                "note": 49,
                "velocity": 0,
                "time": 0.14124976458333333,
                "total_time": 155.84123182296753
            },
            {
                "note": 46,
                "velocity": 96,
                "time": 0.008749985416666665,
                "total_time": 155.8499312400818
            },
            {
                "note": 37,
                "velocity": 0,
                "time": 0.08874985208333332,
                "total_time": 155.9386110305786
            },
            {
                "note": 77,
                "velocity": 0,
                "time": 0.044999924999999996,
                "total_time": 155.9835708141327
            },
            {
                "note": 70,
                "velocity": 0,
                "time": 0,
                "total_time": 155.98366904258728
            },
            {
                "note": 46,
                "velocity": 0,
                "time": 0.007499987499999999,
                "total_time": 155.99110746383667
            },
            {
                "note": 75,
                "velocity": 127,
                "time": 0.008749985416666665,
                "total_time": 155.99986100196838
            },
            {
                "note": 72,
                "velocity": 112,
                "time": 0,
                "total_time": 155.99997973442078
            },
            {
                "note": 36,
                "velocity": 112,
                "time": 0,
                "total_time": 156.0000183582306
            },
            {
                "note": 36,
                "velocity": 0,
                "time": 0,
                "total_time": 156.0000400543213
            },
            {
                "note": 36,
                "velocity": 112,
                "time": 0,
                "total_time": 156.00005984306335
            },
            {
                "note": 44,
                "velocity": 96,
                "time": 0,
                "total_time": 156.14987349510193
            },
            {
                "note": 44,
                "velocity": 0,
                "time": 0.14124976458333333,
                "total_time": 156.29111886024475
            },
            {
                "note": 48,
                "velocity": 96,
                "time": 0.008749985416666665,
                "total_time": 156.29996132850647
            },
            {
                "note": 48,
                "velocity": 0,
                "time": 0.14124976458333333,
                "total_time": 156.4410903453827
            },
            {
                "note": 44,
                "velocity": 96,
                "time": 0.008749985416666665,
                "total_time": 156.44990754127502
            },
            {
                "note": 44,
                "velocity": 0,
                "time": 0.14124976458333333,
                "total_time": 156.59107065200806
            },
            {
                "note": 51,
                "velocity": 96,
                "time": 0.008749985416666665,
                "total_time": 156.59986209869385
            },
            {
                "note": 51,
                "velocity": 0,
                "time": 0.14124976458333333,
                "total_time": 156.74112200737
            },
            {
                "note": 44,
                "velocity": 96,
                "time": 0.008749985416666665,
                "total_time": 156.7498812675476
            },
            {
                "note": 75,
                "velocity": 0,
                "time": 0.052499912499999996,
                "total_time": 156.80232954025269
            },
            {
                "note": 44,
                "velocity": 0,
                "time": 0.08874985208333332,
                "total_time": 156.89109301567078
            },
            {
                "note": 48,
                "velocity": 96,
                "time": 0.008749985416666665,
                "total_time": 156.89986610412598
            },
            {
                "note": 48,
                "velocity": 0,
                "time": 0.14124976458333333,
                "total_time": 157.04107213020325
            },
            {
                "note": 44,
                "velocity": 96,
                "time": 0.008749985416666665,
                "total_time": 157.04985690116882
            },
            {
                "note": 72,
                "velocity": 0,
                "time": 0.08874985208333332,
                "total_time": 157.1385679244995
            },
            {
                "note": 36,
                "velocity": 0,
                "time": 0,
                "total_time": 157.1386902332306
            },
            {
                "note": 44,
                "velocity": 0,
                "time": 0.052499912499999996,
                "total_time": 157.19106793403625
            },
            {
                "note": 75,
                "velocity": 112,
                "time": 0.008749985416666665,
                "total_time": 157.19985222816467
            },
            {
                "note": 68,
                "velocity": 112,
                "time": 0,
                "total_time": 157.20000386238098
            },
            {
                "note": 32,
                "velocity": 112,
                "time": 0,
                "total_time": 157.20003414154053
            },
            {
                "note": 32,
                "velocity": 0,
                "time": 0,
                "total_time": 157.20006108283997
            },
            {
                "note": 32,
                "velocity": 112,
                "time": 0,
                "total_time": 157.20008063316345
            },
            {
                "note": 39,
                "velocity": 96,
                "time": 0,
                "total_time": 157.350004196167
            },
            {
                "note": 39,
                "velocity": 0,
                "time": 0.14124976458333333,
                "total_time": 157.4911105632782
            },
            {
                "note": 75,
                "velocity": 0,
                "time": 0.007499987499999999,
                "total_time": 157.49861550331116
            },
            {
                "note": 68,
                "velocity": 0,
                "time": 0,
                "total_time": 157.4989070892334
            },
            {
                "note": 78,
                "velocity": 112,
                "time": 0.0012499979166666665,
                "total_time": 157.49984216690063
            },
            {
                "note": 72,
                "velocity": 112,
                "time": 0,
                "total_time": 157.50000381469727
            },
            {
                "note": 44,
                "velocity": 96,
                "time": 0,
                "total_time": 157.50008702278137
            },
            {
                "note": 44,
                "velocity": 0,
                "time": 0.14124976458333333,
                "total_time": 157.64110040664673
            },
            {
                "note": 48,
                "velocity": 96,
                "time": 0.008749985416666665,
                "total_time": 157.6498417854309
            },
            {
                "note": 32,
                "velocity": 0,
                "time": 0.11874980208333331,
                "total_time": 157.7686150074005
            },
            {
                "note": 48,
                "velocity": 0,
                "time": 0.022499962499999998,
                "total_time": 157.79111242294312
            },
            {
                "note": 78,
                "velocity": 0,
                "time": 0.007499987499999999,
                "total_time": 157.79867148399353
            },
            {
                "note": 72,
                "velocity": 0,
                "time": 0,
                "total_time": 157.79912877082825
            },
            {
                "note": 80,
                "velocity": 112,
                "time": 0.0012499979166666665,
                "total_time": 157.7998926639557
            },
            {
                "note": 75,
                "velocity": 112,
                "time": 0,
                "total_time": 157.80021047592163
            },
            {
                "note": 42,
                "velocity": 112,
                "time": 0,
                "total_time": 157.80033564567566
            },
            {
                "note": 42,
                "velocity": 0,
                "time": 0,
                "total_time": 157.80044221878052
            },
            {
                "note": 42,
                "velocity": 112,
                "time": 0,
                "total_time": 157.80053877830505
            },
            {
                "note": 48,
                "velocity": 96,
                "time": 0,
                "total_time": 157.9499170780182
            },
            {
                "note": 48,
                "velocity": 0,
                "time": 0.14124976458333333,
                "total_time": 158.09106469154358
            },
            {
                "note": 80,
                "velocity": 0,
                "time": 0.007499987499999999,
                "total_time": 158.09856843948364
            },
            {
                "note": 75,
                "velocity": 0,
                "time": 0,
                "total_time": 158.09867358207703
            },
            {
                "note": 82,
                "velocity": 112,
                "time": 0.0012499979166666665,
                "total_time": 158.09982442855835
            },
            {
                "note": 78,
                "velocity": 112,
                "time": 0,
                "total_time": 158.09996151924133
            },
            {
                "note": 54,
                "velocity": 96,
                "time": 0,
                "total_time": 158.09999084472656
            },
            {
                "note": 54,
                "velocity": 0,
                "time": 0.14124976458333333,
                "total_time": 158.24110984802246
            },
            {
                "note": 48,
                "velocity": 96,
                "time": 0.008749985416666665,
                "total_time": 158.24996519088745
            },
            {
                "note": 42,
                "velocity": 0,
                "time": 0.11874980208333331,
                "total_time": 158.36865735054016
            },
            {
                "note": 82,
                "velocity": 0,
                "time": 0.014999974999999999,
                "total_time": 158.38366031646729
            },
            {
                "note": 78,
                "velocity": 0,
                "time": 0,
                "total_time": 158.3840730190277
            },
            {
                "note": 48,
                "velocity": 0,
                "time": 0.007499987499999999,
                "total_time": 158.39112377166748
            },
            {
                "note": 83,
                "velocity": 127,
                "time": 0.008749985416666665,
                "total_time": 158.39986753463745
            },
            {
                "note": 80,
                "velocity": 112,
                "time": 0,
                "total_time": 158.40001344680786
            },
            {
                "note": 40,
                "velocity": 112,
                "time": 0,
                "total_time": 158.40003561973572
            },
            {
                "note": 40,
                "velocity": 0,
                "time": 0,
                "total_time": 158.4000494480133
            },
            {
                "note": 40,
                "velocity": 112,
                "time": 0,
                "total_time": 158.4000608921051
            },
            {
                "note": 47,
                "velocity": 96,
                "time": 0,
                "total_time": 158.55002689361572
            },
            {
                "note": 47,
                "velocity": 0,
                "time": 0.14124976458333333,
                "total_time": 158.69109725952148
            },
            {
                "note": 83,
                "velocity": 0,
                "time": 0.008749985416666665,
                "total_time": 158.699875831604
            },
            {
                "note": 52,
                "velocity": 96,
                "time": 0,
                "total_time": 158.70008420944214
            },
            {
                "note": 52,
                "velocity": 0,
                "time": 0.14124976458333333,
                "total_time": 158.84109115600586
            },
            {
                "note": 80,
                "velocity": 0,
                "time": 0.007499987499999999,
                "total_time": 158.84867191314697
            },
            {
                "note": 82,
                "velocity": 112,
                "time": 0.0012499979166666665,
                "total_time": 158.84982657432556
            },
            {
                "note": 78,
                "velocity": 112,
                "time": 0,
                "total_time": 158.84998989105225
            },
            {
                "note": 47,
                "velocity": 96,
                "time": 0,
                "total_time": 158.8500452041626
            },
            {
                "note": 47,
                "velocity": 0,
                "time": 0.14124976458333333,
                "total_time": 158.99106335639954
            },
            {
                "note": 56,
                "velocity": 96,
                "time": 0.008749985416666665,
                "total_time": 158.99984002113342
            },
            {
                "note": 56,
                "velocity": 0,
                "time": 0.14124976458333333,
                "total_time": 159.14106559753418
            },
            {
                "note": 47,
                "velocity": 96,
                "time": 0.008749985416666665,
                "total_time": 159.14990973472595
            },
            {
                "note": 47,
                "velocity": 0,
                "time": 0.14124976458333333,
                "total_time": 159.29108667373657
            },
            {
                "note": 82,
                "velocity": 0,
                "time": 0.007499987499999999,
                "total_time": 159.2986135482788
            },
            {
                "note": 78,
                "velocity": 0,
                "time": 0,
                "total_time": 159.29889965057373
            },
            {
                "note": 80,
                "velocity": 112,
                "time": 0.0012499979166666665,
                "total_time": 159.29985404014587
            },
            {
                "note": 71,
                "velocity": 112,
                "time": 0,
                "total_time": 159.3000659942627
            },
            {
                "note": 52,
                "velocity": 96,
                "time": 0,
                "total_time": 159.30015325546265
            },
            {
                "note": 52,
                "velocity": 0,
                "time": 0.14124976458333333,
                "total_time": 159.4411153793335
            },
            {
                "note": 47,
                "velocity": 96,
                "time": 0.008749985416666665,
                "total_time": 159.4499442577362
            },
            {
                "note": 40,
                "velocity": 0,
                "time": 0.08874985208333332,
                "total_time": 159.53857040405273
            },
            {
                "note": 80,
                "velocity": 0,
                "time": 0.044999924999999996,
                "total_time": 159.5836160182953
            },
            {
                "note": 71,
                "velocity": 0,
                "time": 0,
                "total_time": 159.58387756347656
            },
            {
                "note": 47,
                "velocity": 0,
                "time": 0.007499987499999999,
                "total_time": 159.591068983078
            },
            {
                "note": 78,
                "velocity": 112,
                "time": 0.008749985416666665,
                "total_time": 159.59981989860535
            },
            {
                "note": 70,
                "velocity": 112,
                "time": 0,
                "total_time": 159.59993529319763
            },
            {
                "note": 35,
                "velocity": 112,
                "time": 0,
                "total_time": 159.59996366500854
            },
            {
                "note": 35,
                "velocity": 0,
                "time": 0,
                "total_time": 159.5999882221222
            },
            {
                "note": 35,
                "velocity": 112,
                "time": 0,
                "total_time": 159.60000848770142
            },
            {
                "note": 42,
                "velocity": 96,
                "time": 0,
                "total_time": 159.75006914138794
            },
            {
                "note": 42,
                "velocity": 0,
                "time": 0.14124976458333333,
                "total_time": 159.8911247253418
            },
            {
                "note": 78,
                "velocity": 0,
                "time": 0.007499987499999999,
                "total_time": 159.8986177444458
            },
            {
                "note": 70,
                "velocity": 0,
                "time": 0,
                "total_time": 159.8989679813385
            },
            {
                "note": 75,
                "velocity": 112,
                "time": 0.0012499979166666665,
                "total_time": 159.8998532295227
            },
            {
                "note": 66,
                "velocity": 112,
                "time": 0,
                "total_time": 159.90006399154663
            },
            {
                "note": 47,
                "velocity": 96,
                "time": 0,
                "total_time": 159.90018391609192
            },
            {
                "note": 47,
                "velocity": 0,
                "time": 0.14124976458333333,
                "total_time": 160.04109239578247
            },
            {
                "note": 42,
                "velocity": 96,
                "time": 0.008749985416666665,
                "total_time": 160.0498492717743
            },
            {
                "note": 42,
                "velocity": 0,
                "time": 0.14124976458333333,
                "total_time": 160.19111323356628
            },
            {
                "note": 75,
                "velocity": 0,
                "time": 0.007499987499999999,
                "total_time": 160.19861006736755
            },
            {
                "note": 66,
                "velocity": 0,
                "time": 0,
                "total_time": 160.19898653030396
            },
            {
                "note": 78,
                "velocity": 112,
                "time": 0.0012499979166666665,
                "total_time": 160.19991254806519
            },
            {
                "note": 70,
                "velocity": 112,
                "time": 0,
                "total_time": 160.20021200180054
            },
            {
                "note": 51,
                "velocity": 96,
                "time": 0,
                "total_time": 160.20035648345947
            },
            {
                "note": 51,
                "velocity": 0,
                "time": 0.14124976458333333,
                "total_time": 160.34110140800476
            },
            {
                "note": 42,
                "velocity": 96,
                "time": 0.008749985416666665,
                "total_time": 160.34986686706543
            },
            {
                "note": 42,
                "velocity": 0,
                "time": 0.14124976458333333,
                "total_time": 160.49109601974487
            },
            {
                "note": 78,
                "velocity": 0,
                "time": 0.007499987499999999,
                "total_time": 160.4986023902893
            },
            {
                "note": 70,
                "velocity": 0,
                "time": 0,
                "total_time": 160.4988706111908
            },
            {
                "note": 82,
                "velocity": 112,
                "time": 0.0012499979166666665,
                "total_time": 160.49985337257385
            },
            {
                "note": 75,
                "velocity": 112,
                "time": 0,
                "total_time": 160.49996852874756
            },
            {
                "note": 47,
                "velocity": 96,
                "time": 0,
                "total_time": 160.50001668930054
            },
            {
                "note": 47,
                "velocity": 0,
                "time": 0.14124976458333333,
                "total_time": 160.64107179641724
            },
            {
                "note": 42,
                "velocity": 96,
                "time": 0.008749985416666665,
                "total_time": 160.6499364376068
            },
            {
                "note": 35,
                "velocity": 0,
                "time": 0.08874985208333332,
                "total_time": 160.73862838745117
            },
            {
                "note": 82,
                "velocity": 0,
                "time": 0.044999924999999996,
                "total_time": 160.78370785713196
            },
            {
                "note": 75,
                "velocity": 0,
                "time": 0,
                "total_time": 160.78420162200928
            },
            {
                "note": 42,
                "velocity": 0,
                "time": 0.007499987499999999,
                "total_time": 160.79118657112122
            },
            {
                "note": 80,
                "velocity": 127,
                "time": 0,
                "total_time": 160.7999768257141
            },
            {
                "note": 73,
                "velocity": 112,
                "time": 0,
                "total_time": 160.80018734931946
            },
            {
                "note": 37,
                "velocity": 112,
                "time": 0,
                "total_time": 160.8003122806549
            },
            {
                "note": 37,
                "velocity": 0,
                "time": 0,
                "total_time": 160.8003969192505
            },
            {
                "note": 37,
                "velocity": 112,
                "time": 0,
                "total_time": 160.80047464370728
            },
            {
                "note": 44,
                "velocity": 110,
                "time": 0,
                "total_time": 160.95052647590637
            },
            {
                "note": 44,
                "velocity": 0,
                "time": 0.06624988958333332,
                "total_time": 161.09115743637085
            },
            {
                "note": 49,
                "velocity": 108,
                "time": 0,
                "total_time": 161.100013256073
            },
            {
                "note": 49,
                "velocity": 0,
                "time": 0.06624988958333332,
                "total_time": 161.24110960960388
            },
            {
                "note": 53,
                "velocity": 106,
                "time": 0,
                "total_time": 161.25011014938354
            },
            {
                "note": 53,
                "velocity": 0,
                "time": 0.06624988958333332,
                "total_time": 161.39105820655823
            },
            {
                "note": 56,
                "velocity": 104,
                "time": 0,
                "total_time": 161.39989852905273
            },
            {
                "note": 56,
                "velocity": 0,
                "time": 0.06624988958333332,
                "total_time": 161.54109382629395
            },
            {
                "note": 53,
                "velocity": 102,
                "time": 0,
                "total_time": 161.5500762462616
            },
            {
                "note": 80,
                "velocity": 0,
                "time": 0.052499912499999996,
                "total_time": 161.60235023498535
            },
            {
                "note": 53,
                "velocity": 0,
                "time": 0.06624988958333332,
                "total_time": 161.69107961654663
            },
            {
                "note": 49,
                "velocity": 100,
                "time": 0,
                "total_time": 161.70011043548584
            },
            {
                "note": 49,
                "velocity": 0,
                "time": 0.07374987708333332,
                "total_time": 161.84895753860474
            },
            {
                "note": 73,
                "velocity": 0,
                "time": 0.013749977083333332,
                "total_time": 161.93861269950867
            },
            {
                "note": 37,
                "velocity": 0,
                "time": 0,
                "total_time": 161.93891429901123
            },
            {
                "note": 65,
                "velocity": 115,
                "time": 0,
                "total_time": 162.00010347366333
            },
            {
                "note": 73,
                "velocity": 115,
                "time": 0,
                "total_time": 162.00036811828613
            },
            {
                "note": 77,
                "velocity": 115,
                "time": 0,
                "total_time": 162.00048446655273
            },
            {
                "note": 37,
                "velocity": 115,
                "time": 0,
                "total_time": 162.0006401538849
            },
            {
                "note": 44,
                "velocity": 115,
                "time": 0,
                "total_time": 162.00078988075256
            },
            {
                "note": 49,
                "velocity": 115,
                "time": 0,
                "total_time": 162.0009458065033
            },
            {
                "note": 65,
                "velocity": 0,
                "time": 0.02499995833333333,
                "total_time": 162.39985060691833
            },
            {
                "note": 73,
                "velocity": 0,
                "time": 0,
                "total_time": 162.40004181861877
            },
            {
                "note": 77,
                "velocity": 0,
                "time": 0,
                "total_time": 162.4000861644745
            },
            {
                "note": 37,
                "velocity": 0,
                "time": 0,
                "total_time": 162.40011382102966
            },
            {
                "note": 44,
                "velocity": 0,
                "time": 0,
                "total_time": 162.4001350402832
            },
            {
                "note": 49,
                "velocity": 0,
                "time": 0,
                "total_time": 162.40015625953674
            },
            {
                "note": 61,
                "velocity": 105,
                "time": 0,
                "total_time": 162.59992241859436
            },
            {
                "note": 70,
                "velocity": 105,
                "time": 0,
                "total_time": 162.60002517700195
            },
            {
                "note": 73,
                "velocity": 105,
                "time": 0,
                "total_time": 162.60005736351013
            },
            {
                "note": 41,
                "velocity": 105,
                "time": 0,
                "total_time": 162.60011076927185
            },
            {
                "note": 49,
                "velocity": 105,
                "time": 0,
                "total_time": 162.60013222694397
            },
            {
                "note": 53,
                "velocity": 105,
                "time": 0,
                "total_time": 162.60015320777893
            },
            {
                "note": 61,
                "velocity": 0,
                "time": 0.02499995833333333,
                "total_time": 162.99988985061646
            },
            {
                "note": 70,
                "velocity": 0,
                "time": 0,
                "total_time": 163.00018787384033
            },
            {
                "note": 73,
                "velocity": 0,
                "time": 0,
                "total_time": 163.00031995773315
            },
            {
                "note": 41,
                "velocity": 0,
                "time": 0,
                "total_time": 163.0004267692566
            },
            {
                "note": 49,
                "velocity": 0,
                "time": 0,
                "total_time": 163.0005247592926
            },
            {
                "note": 53,
                "velocity": 0,
                "time": 0,
                "total_time": 163.0006184577942
            },
            {
                "note": 78,
                "velocity": 80,
                "time": 0,
                "total_time": 163.19988489151
            },
            {
                "note": 83,
                "velocity": 80,
                "time": 0,
                "total_time": 163.19992971420288
            },
            {
                "note": 87,
                "velocity": 80,
                "time": 0,
                "total_time": 163.199942111969
            },
            {
                "note": 75,
                "velocity": 96,
                "time": 0,
                "total_time": 163.1999523639679
            },
            {
                "note": 39,
                "velocity": 96,
                "time": 0,
                "total_time": 163.19997835159302
            },
            {
                "note": 51,
                "velocity": 96,
                "time": 0,
                "total_time": 163.19998836517334
            },
            {
                "note": 75,
                "velocity": 0,
                "time": 0.19624967291666665,
                "total_time": 163.39858722686768
            },
            {
                "note": 75,
                "velocity": 80,
                "time": 0.10124983124999999,
                "total_time": 163.49986505508423
            },
            {
                "note": 75,
                "velocity": 0,
                "time": 0.2987495020833333,
                "total_time": 163.7985920906067
            },
            {
                "note": 75,
                "velocity": 80,
                "time": 0.0012499979166666665,
                "total_time": 163.7999656200409
            },
            {
                "note": 75,
                "velocity": 0,
                "time": 0.2987495020833333,
                "total_time": 164.0985836982727
            },
            {
                "note": 75,
                "velocity": 80,
                "time": 0.0012499979166666665,
                "total_time": 164.09996914863586
            },
            {
                "note": 78,
                "velocity": 0,
                "time": 0.2987495020833333,
                "total_time": 164.3986268043518
            },
            {
                "note": 83,
                "velocity": 0,
                "time": 0,
                "total_time": 164.39879631996155
            },
            {
                "note": 87,
                "velocity": 0,
                "time": 0,
                "total_time": 164.39882612228394
            },
            {
                "note": 75,
                "velocity": 0,
                "time": 0,
                "total_time": 164.39883756637573
            },
            {
                "note": 77,
                "velocity": 80,
                "time": 0.0012499979166666665,
                "total_time": 164.3997848033905
            },
            {
                "note": 82,
                "velocity": 80,
                "time": 0,
                "total_time": 164.3998110294342
            },
            {
                "note": 85,
                "velocity": 80,
                "time": 0,
                "total_time": 164.39982414245605
            },
            {
                "note": 73,
                "velocity": 96,
                "time": 0,
                "total_time": 164.39983654022217
            },
            {
                "note": 73,
                "velocity": 0,
                "time": 0.19874966874999997,
                "total_time": 164.59859538078308
            },
            {
                "note": 73,
                "velocity": 80,
                "time": 0.10124983124999999,
                "total_time": 164.6998472213745
            },
            {
                "note": 73,
                "velocity": 0,
                "time": 0.2987495020833333,
                "total_time": 164.99859023094177
            },
            {
                "note": 73,
                "velocity": 80,
                "time": 0.0012499979166666665,
                "total_time": 164.99982619285583
            },
            {
                "note": 73,
                "velocity": 0,
                "time": 0.2987495020833333,
                "total_time": 165.29859900474548
            },
            {
                "note": 73,
                "velocity": 80,
                "time": 0.0012499979166666665,
                "total_time": 165.29984140396118
            },
            {
                "note": 77,
                "velocity": 0,
                "time": 0.2987495020833333,
                "total_time": 165.59859585762024
            },
            {
                "note": 82,
                "velocity": 0,
                "time": 0,
                "total_time": 165.59891533851624
            },
            {
                "note": 85,
                "velocity": 0,
                "time": 0,
                "total_time": 165.5990424156189
            },
            {
                "note": 73,
                "velocity": 0,
                "time": 0,
                "total_time": 165.59914565086365
            },
            {
                "note": 73,
                "velocity": 80,
                "time": 0.0012499979166666665,
                "total_time": 165.5998306274414
            },
            {
                "note": 77,
                "velocity": 80,
                "time": 0,
                "total_time": 165.59997487068176
            },
            {
                "note": 82,
                "velocity": 80,
                "time": 0,
                "total_time": 165.60006666183472
            },
            {
                "note": 70,
                "velocity": 96,
                "time": 0,
                "total_time": 165.60015296936035
            },
            {
                "note": 70,
                "velocity": 0,
                "time": 0.19624967291666665,
                "total_time": 165.79855918884277
            },
            {
                "note": 70,
                "velocity": 80,
                "time": 0.10124983124999999,
                "total_time": 165.89982199668884
            },
            {
                "note": 70,
                "velocity": 0,
                "time": 0.2987495020833333,
                "total_time": 166.19861721992493
            },
            {
                "note": 70,
                "velocity": 80,
                "time": 0.0012499979166666665,
                "total_time": 166.19984221458435
            },
            {
                "note": 70,
                "velocity": 0,
                "time": 0.2987495020833333,
                "total_time": 166.49861693382263
            },
            {
                "note": 70,
                "velocity": 80,
                "time": 0.0012499979166666665,
                "total_time": 166.49986338615417
            },
            {
                "note": 39,
                "velocity": 0,
                "time": 0.016249972916666664,
                "total_time": 166.51612305641174
            },
            {
                "note": 51,
                "velocity": 0,
                "time": 0,
                "total_time": 166.51644015312195
            },
            {
                "note": 73,
                "velocity": 0,
                "time": 0.28249952916666665,
                "total_time": 166.79860591888428
            },
            {
                "note": 77,
                "velocity": 0,
                "time": 0,
                "total_time": 166.7989101409912
            },
            {
                "note": 82,
                "velocity": 0,
                "time": 0,
                "total_time": 166.7990279197693
            },
            {
                "note": 70,
                "velocity": 0,
                "time": 0,
                "total_time": 166.7991168498993
            },
            {
                "note": 75,
                "velocity": 80,
                "time": 0.0012499979166666665,
                "total_time": 166.79988932609558
            },
            {
                "note": 78,
                "velocity": 80,
                "time": 0,
                "total_time": 166.80005717277527
            },
            {
                "note": 82,
                "velocity": 80,
                "time": 0,
                "total_time": 166.8001503944397
            },
            {
                "note": 70,
                "velocity": 80,
                "time": 0,
                "total_time": 166.80023002624512
            },
            {
                "note": 39,
                "velocity": 80,
                "time": 0.599999,
                "total_time": 167.39990234375
            },
            {
                "note": 39,
                "velocity": 0,
                "time": 0.13999976666666664,
                "total_time": 167.53986740112305
            },
            {
                "note": 39,
                "velocity": 80,
                "time": 0.009999983333333332,
                "total_time": 167.54987788200378
            },
            {
                "note": 39,
                "velocity": 0,
                "time": 0.13999976666666664,
                "total_time": 167.68980932235718
            },
            {
                "note": 39,
                "velocity": 80,
                "time": 0.009999983333333332,
                "total_time": 167.6998586654663
            },
            {
                "note": 39,
                "velocity": 0,
                "time": 0.13999976666666664,
                "total_time": 167.8398048877716
            },
            {
                "note": 39,
                "velocity": 80,
                "time": 0.009999983333333332,
                "total_time": 167.84982180595398
            },
            {
                "note": 75,
                "velocity": 0,
                "time": 0.08874985208333332,
                "total_time": 167.93860340118408
            },
            {
                "note": 78,
                "velocity": 0,
                "time": 0,
                "total_time": 167.93871450424194
            },
            {
                "note": 82,
                "velocity": 0,
                "time": 0,
                "total_time": 167.93874645233154
            },
            {
                "note": 70,
                "velocity": 0,
                "time": 0,
                "total_time": 167.93877243995667
            },
            {
                "note": 39,
                "velocity": 0,
                "time": 0.05124991458333333,
                "total_time": 167.98985719680786
            },
            {
                "note": 75,
                "velocity": 80,
                "time": 0.009999983333333332,
                "total_time": 167.9998779296875
            },
            {
                "note": 77,
                "velocity": 80,
                "time": 0,
                "total_time": 168.0001368522644
            },
            {
                "note": 82,
                "velocity": 80,
                "time": 0,
                "total_time": 168.00024604797363
            },
            {
                "note": 70,
                "velocity": 96,
                "time": 0,
                "total_time": 168.00033116340637
            },
            {
                "note": 51,
                "velocity": 96,
                "time": 0,
                "total_time": 168.00044107437134
            },
            {
                "note": 39,
                "velocity": 96,
                "time": 0,
                "total_time": 168.0005054473877
            },
            {
                "note": 70,
                "velocity": 0,
                "time": 0.19624967291666665,
                "total_time": 168.19861125946045
            },
            {
                "note": 70,
                "velocity": 80,
                "time": 0.10124983124999999,
                "total_time": 168.29986119270325
            },
            {
                "note": 70,
                "velocity": 0,
                "time": 0.2987495020833333,
                "total_time": 168.59855461120605
            },
            {
                "note": 70,
                "velocity": 80,
                "time": 0.0012499979166666665,
                "total_time": 168.59979581832886
            },
            {
                "note": 51,
                "velocity": 0,
                "time": 0.20249966249999998,
                "total_time": 168.80233764648438
            },
            {
                "note": 70,
                "velocity": 0,
                "time": 0.09624983958333332,
                "total_time": 168.89873933792114
            },
            {
                "note": 70,
                "velocity": 80,
                "time": 0.0012499979166666665,
                "total_time": 168.89992356300354
            },
            {
                "note": 75,
                "velocity": 0,
                "time": 0.2987495020833333,
                "total_time": 169.1985981464386
            },
            {
                "note": 77,
                "velocity": 0,
                "time": 0,
                "total_time": 169.19893336296082
            },
            {
                "note": 82,
                "velocity": 0,
                "time": 0,
                "total_time": 169.19906735420227
            },
            {
                "note": 70,
                "velocity": 0,
                "time": 0,
                "total_time": 169.19917249679565
            },
            {
                "note": 75,
                "velocity": 80,
                "time": 0.0012499979166666665,
                "total_time": 169.1998484134674
            },
            {
                "note": 77,
                "velocity": 80,
                "time": 0,
                "total_time": 169.2000024318695
            },
            {
                "note": 80,
                "velocity": 80,
                "time": 0,
                "total_time": 169.2001006603241
            },
            {
                "note": 68,
                "velocity": 96,
                "time": 0,
                "total_time": 169.20019721984863
            },
            {
                "note": 49,
                "velocity": 80,
                "time": 0,
                "total_time": 169.20034170150757
            },
            {
                "note": 68,
                "velocity": 0,
                "time": 0.19874966874999997,
                "total_time": 169.39860272407532
            },
            {
                "note": 68,
                "velocity": 80,
                "time": 0.10124983124999999,
                "total_time": 169.4998619556427
            },
            {
                "note": 68,
                "velocity": 0,
                "time": 0.2987495020833333,
                "total_time": 169.79860162734985
            },
            {
                "note": 68,
                "velocity": 80,
                "time": 0.0012499979166666665,
                "total_time": 169.79981803894043
            },
            {
                "note": 68,
                "velocity": 0,
                "time": 0.2987495020833333,
                "total_time": 170.09854531288147
            },
            {
                "note": 68,
                "velocity": 80,
                "time": 0.0012499979166666665,
                "total_time": 170.09984040260315
            },
            {
                "note": 49,
                "velocity": 0,
                "time": 0.2387496020833333,
                "total_time": 170.33858633041382
            },
            {
                "note": 75,
                "velocity": 0,
                "time": 0.059999899999999995,
                "total_time": 170.39859247207642
            },
            {
                "note": 77,
                "velocity": 0,
                "time": 0,
                "total_time": 170.39907264709473
            },
            {
                "note": 80,
                "velocity": 0,
                "time": 0,
                "total_time": 170.39928078651428
            },
            {
                "note": 68,
                "velocity": 0,
                "time": 0,
                "total_time": 170.39942526817322
            },
            {
                "note": 70,
                "velocity": 80,
                "time": 0.0012499979166666665,
                "total_time": 170.40027856826782
            },
            {
                "note": 75,
                "velocity": 80,
                "time": 0,
                "total_time": 170.40051531791687
            },
            {
                "note": 78,
                "velocity": 80,
                "time": 0,
                "total_time": 170.40063405036926
            },
            {
                "note": 66,
                "velocity": 96,
                "time": 0,
                "total_time": 170.40071511268616
            },
            {
                "note": 46,
                "velocity": 80,
                "time": 0,
                "total_time": 170.40089321136475
            },
            {
                "note": 66,
                "velocity": 0,
                "time": 0.19624967291666665,
                "total_time": 170.59866046905518
            },
            {
                "note": 66,
                "velocity": 80,
                "time": 0.10124983124999999,
                "total_time": 170.69993615150452
            },
            {
                "note": 66,
                "velocity": 0,
                "time": 0.2987495020833333,
                "total_time": 170.9985706806183
            },
            {
                "note": 66,
                "velocity": 80,
                "time": 0.0012499979166666665,
                "total_time": 170.9997751712799
            },
            {
                "note": 66,
                "velocity": 0,
                "time": 0.2987495020833333,
                "total_time": 171.29865646362305
            },
            {
                "note": 66,
                "velocity": 80,
                "time": 0.0012499979166666665,
                "total_time": 171.29981875419617
            },
            {
                "note": 39,
                "velocity": 0,
                "time": 0.016249972916666664,
                "total_time": 171.3160789012909
            },
            {
                "note": 46,
                "velocity": 0,
                "time": 0.22249962916666663,
                "total_time": 171.53857564926147
            },
            {
                "note": 70,
                "velocity": 0,
                "time": 0.059999899999999995,
                "total_time": 171.59869384765625
            },
            {
                "note": 75,
                "velocity": 0,
                "time": 0,
                "total_time": 171.59908294677734
            },
            {
                "note": 78,
                "velocity": 0,
                "time": 0,
                "total_time": 171.5991723537445
            },
            {
                "note": 66,
                "velocity": 0,
                "time": 0,
                "total_time": 171.59923791885376
            },
            {
                "note": 70,
                "velocity": 80,
                "time": 0.0012499979166666665,
                "total_time": 171.59988451004028
            },
            {
                "note": 75,
                "velocity": 80,
                "time": 0,
                "total_time": 171.60019850730896
            },
            {
                "note": 78,
                "velocity": 80,
                "time": 0,
                "total_time": 171.6003155708313
            },
            {
                "note": 66,
                "velocity": 80,
                "time": 0,
                "total_time": 171.60040283203125
            },
            {
                "note": 42,
                "velocity": 80,
                "time": 0,
                "total_time": 171.60046815872192
            },
            {
                "note": 39,
                "velocity": 80,
                "time": 0.599999,
                "total_time": 172.19988656044006
            },
            {
                "note": 39,
                "velocity": 0,
                "time": 0.13999976666666664,
                "total_time": 172.3399167060852
            },
            {
                "note": 39,
                "velocity": 80,
                "time": 0.009999983333333332,
                "total_time": 172.34987497329712
            },
            {
                "note": 39,
                "velocity": 0,
                "time": 0.13999976666666664,
                "total_time": 172.48991084098816
            },
            {
                "note": 39,
                "velocity": 80,
                "time": 0.009999983333333332,
                "total_time": 172.49990797042847
            },
            {
                "note": 39,
                "velocity": 0,
                "time": 0.13999976666666664,
                "total_time": 172.6399142742157
            },
            {
                "note": 39,
                "velocity": 80,
                "time": 0.009999983333333332,
                "total_time": 172.64990305900574
            },
            {
                "note": 70,
                "velocity": 0,
                "time": 0.08874985208333332,
                "total_time": 172.73854613304138
            },
            {
                "note": 75,
                "velocity": 0,
                "time": 0,
                "total_time": 172.7386429309845
            },
            {
                "note": 78,
                "velocity": 0,
                "time": 0,
                "total_time": 172.73867416381836
            },
            {
                "note": 66,
                "velocity": 0,
                "time": 0,
                "total_time": 172.7386999130249
            },
            {
                "note": 42,
                "velocity": 0,
                "time": 0,
                "total_time": 172.73872566223145
            },
            {
                "note": 39,
                "velocity": 0,
                "time": 0.05124991458333333,
                "total_time": 172.78983974456787
            },
            {
                "note": 76,
                "velocity": 80,
                "time": 0.009999983333333332,
                "total_time": 172.79982089996338
            },
            {
                "note": 78,
                "velocity": 80,
                "time": 0,
                "total_time": 172.80002570152283
            },
            {
                "note": 82,
                "velocity": 80,
                "time": 0,
                "total_time": 172.8000464439392
            },
            {
                "note": 70,
                "velocity": 96,
                "time": 0,
                "total_time": 172.8000602722168
            },
            {
                "note": 46,
                "velocity": 96,
                "time": 0,
                "total_time": 172.80008101463318
            },
            {
                "note": 40,
                "velocity": 96,
                "time": 0,
                "total_time": 172.80009126663208
            },
            {
                "note": 70,
                "velocity": 0,
                "time": 0.19624967291666665,
                "total_time": 172.99854183197021
            },
            {
                "note": 70,
                "velocity": 80,
                "time": 0.10124983124999999,
                "total_time": 173.09983730316162
            },
            {
                "note": 70,
                "velocity": 0,
                "time": 0.2987495020833333,
                "total_time": 173.39858436584473
            },
            {
                "note": 70,
                "velocity": 80,
                "time": 0.0012499979166666665,
                "total_time": 173.39982080459595
            },
            {
                "note": 46,
                "velocity": 0,
                "time": 0.20249966249999998,
                "total_time": 173.60229086875916
            },
            {
                "note": 70,
                "velocity": 0,
                "time": 0.09624983958333332,
                "total_time": 173.69857048988342
            },
            {
                "note": 70,
                "velocity": 80,
                "time": 0.0012499979166666665,
                "total_time": 173.6998233795166
            },
            {
                "note": 76,
                "velocity": 0,
                "time": 0.2987495020833333,
                "total_time": 173.99874210357666
            },
            {
                "note": 78,
                "velocity": 0,
                "time": 0,
                "total_time": 173.99945998191833
            },
            {
                "note": 82,
                "velocity": 0,
                "time": 0,
                "total_time": 173.99966144561768
            },
            {
                "note": 70,
                "velocity": 0,
                "time": 0,
                "total_time": 173.9997913837433
            },
            {
                "note": 76,
                "velocity": 80,
                "time": 0.0012499979166666665,
                "total_time": 173.999933719635
            },
            {
                "note": 80,
                "velocity": 80,
                "time": 0,
                "total_time": 174.00003004074097
            },
            {
                "note": 83,
                "velocity": 80,
                "time": 0,
                "total_time": 174.00011134147644
            },
            {
                "note": 71,
                "velocity": 96,
                "time": 0,
                "total_time": 174.00018787384033
            },
            {
                "note": 47,
                "velocity": 80,
                "time": 0,
                "total_time": 174.0003137588501
            },
            {
                "note": 71,
                "velocity": 0,
                "time": 0.19874966874999997,
                "total_time": 174.1985948085785
            },
            {
                "note": 71,
                "velocity": 80,
                "time": 0.10124983124999999,
                "total_time": 174.29991602897644
            },
            {
                "note": 40,
                "velocity": 0,
                "time": 0.10624982291666665,
                "total_time": 174.40610146522522
            },
            {
                "note": 47,
                "velocity": 0,
                "time": 0.16249972916666663,
                "total_time": 174.56858086585999
            },
            {
                "note": 71,
                "velocity": 0,
                "time": 0.029999949999999997,
                "total_time": 174.59858989715576
            },
            {
                "note": 71,
                "velocity": 80,
                "time": 0.0012499979166666665,
                "total_time": 174.59979343414307
            },
            {
                "note": 51,
                "velocity": 80,
                "time": 0,
                "total_time": 174.59991550445557
            },
            {
                "note": 71,
                "velocity": 0,
                "time": 0.2987495020833333,
                "total_time": 174.89855575561523
            },
            {
                "note": 71,
                "velocity": 80,
                "time": 0.0012499979166666665,
                "total_time": 174.89981961250305
            },
            {
                "note": 51,
                "velocity": 0,
                "time": 0.2687495520833333,
                "total_time": 175.1685950756073
            },
            {
                "note": 76,
                "velocity": 0,
                "time": 0.029999949999999997,
                "total_time": 175.19859504699707
            },
            {
                "note": 80,
                "velocity": 0,
                "time": 0,
                "total_time": 175.19896531105042
            },
            {
                "note": 83,
                "velocity": 0,
                "time": 0,
                "total_time": 175.19914293289185
            },
            {
                "note": 71,
                "velocity": 0,
                "time": 0,
                "total_time": 175.19926238059998
            },
            {
                "note": 78,
                "velocity": 80,
                "time": 0.0012499979166666665,
                "total_time": 175.19985795021057
            },
            {
                "note": 82,
                "velocity": 80,
                "time": 0,
                "total_time": 175.20008087158203
            },
            {
                "note": 85,
                "velocity": 80,
                "time": 0,
                "total_time": 175.20018696784973
            },
            {
                "note": 73,
                "velocity": 96,
                "time": 0,
                "total_time": 175.20028853416443
            },
            {
                "note": 49,
                "velocity": 96,
                "time": 0,
                "total_time": 175.2004270553589
            },
            {
                "note": 39,
                "velocity": 96,
                "time": 0,
                "total_time": 175.20051908493042
            },
            {
                "note": 73,
                "velocity": 0,
                "time": 0.19624967291666665,
                "total_time": 175.39854669570923
            },
            {
                "note": 73,
                "velocity": 80,
                "time": 0.10124983124999999,
                "total_time": 175.4998815059662
            },
            {
                "note": 73,
                "velocity": 0,
                "time": 0.2987495020833333,
                "total_time": 175.79857635498047
            },
            {
                "note": 73,
                "velocity": 80,
                "time": 0.0012499979166666665,
                "total_time": 175.79983735084534
            },
            {
                "note": 49,
                "velocity": 0,
                "time": 0.20249966249999998,
                "total_time": 176.00232672691345
            },
            {
                "note": 73,
                "velocity": 0,
                "time": 0.09624983958333332,
                "total_time": 176.0985939502716
            },
            {
                "note": 73,
                "velocity": 80,
                "time": 0.0012499979166666665,
                "total_time": 176.09981966018677
            },
            {
                "note": 78,
                "velocity": 0,
                "time": 0.2987495020833333,
                "total_time": 176.39855027198792
            },
            {
                "note": 82,
                "velocity": 0,
                "time": 0,
                "total_time": 176.3986783027649
            },
            {
                "note": 85,
                "velocity": 0,
                "time": 0,
                "total_time": 176.39871644973755
            },
            {
                "note": 73,
                "velocity": 0,
                "time": 0,
                "total_time": 176.3987410068512
            },
            {
                "note": 82,
                "velocity": 80,
                "time": 0.0012499979166666665,
                "total_time": 176.3997769355774
            },
            {
                "note": 85,
                "velocity": 80,
                "time": 0,
                "total_time": 176.39991402626038
            },
            {
                "note": 90,
                "velocity": 80,
                "time": 0,
                "total_time": 176.39994549751282
            },
            {
                "note": 78,
                "velocity": 96,
                "time": 0,
                "total_time": 176.39996242523193
            },
            {
                "note": 42,
                "velocity": 80,
                "time": 0,
                "total_time": 176.39999151229858
            },
            {
                "note": 78,
                "velocity": 0,
                "time": 0.19874966874999997,
                "total_time": 176.5985643863678
            },
            {
                "note": 78,
                "velocity": 80,
                "time": 0.10124983124999999,
                "total_time": 176.699933052063
            },
            {
                "note": 39,
                "velocity": 0,
                "time": 0.10624982291666665,
                "total_time": 176.80606770515442
            },
            {
                "note": 78,
                "velocity": 0,
                "time": 0.19249967916666663,
                "total_time": 176.99859285354614
            },
            {
                "note": 78,
                "velocity": 80,
                "time": 0.0012499979166666665,
                "total_time": 176.99982905387878
            },
            {
                "note": 78,
                "velocity": 0,
                "time": 0.2987495020833333,
                "total_time": 177.29856491088867
            },
            {
                "note": 78,
                "velocity": 80,
                "time": 0.0012499979166666665,
                "total_time": 177.2997932434082
            },
            {
                "note": 42,
                "velocity": 0,
                "time": 0.2387496020833333,
                "total_time": 177.53858947753906
            },
            {
                "note": 82,
                "velocity": 0,
                "time": 0.059999899999999995,
                "total_time": 177.59856247901917
            },
            {
                "note": 85,
                "velocity": 0,
                "time": 0,
                "total_time": 177.59877586364746
            },
            {
                "note": 90,
                "velocity": 0,
                "time": 0,
                "total_time": 177.59887409210205
            },
            {
                "note": 78,
                "velocity": 0,
                "time": 0,
                "total_time": 177.5989212989807
            },
            {
                "note": 80,
                "velocity": 80,
                "time": 0.0012499979166666665,
                "total_time": 177.59979510307312
            },
            {
                "note": 82,
                "velocity": 80,
                "time": 0,
                "total_time": 177.5998339653015
            },
            {
                "note": 87,
                "velocity": 80,
                "time": 0,
                "total_time": 177.5998523235321
            },
            {
                "note": 75,
                "velocity": 96,
                "time": 0,
                "total_time": 177.59986877441406
            },
            {
                "note": 32,
                "velocity": 96,
                "time": 0,
                "total_time": 177.59989666938782
            },
            {
                "note": 39,
                "velocity": 96,
                "time": 0,
                "total_time": 177.59991359710693
            },
            {
                "note": 44,
                "velocity": 96,
                "time": 0,
                "total_time": 177.5999310016632
            },
            {
                "note": 75,
                "velocity": 0,
                "time": 0.19624967291666665,
                "total_time": 177.7986068725586
            },
            {
                "note": 75,
                "velocity": 80,
                "time": 0.10124983124999999,
                "total_time": 177.89985013008118
            },
            {
                "note": 75,
                "velocity": 0,
                "time": 0.2837495270833333,
                "total_time": 178.18353700637817
            },
            {
                "note": 75,
                "velocity": 80,
                "time": 0.016249972916666664,
                "total_time": 178.19985151290894
            },
            {
                "note": 75,
                "velocity": 0,
                "time": 0.2837495270833333,
                "total_time": 178.4835352897644
            },
            {
                "note": 75,
                "velocity": 80,
                "time": 0.016249972916666664,
                "total_time": 178.49993252754211
            },
            {
                "note": 32,
                "velocity": 0,
                "time": 0.7062488229166666,
                "total_time": 179.20603132247925
            },
            {
                "note": 39,
                "velocity": 0,
                "time": 0,
                "total_time": 179.2061140537262
            },
            {
                "note": 44,
                "velocity": 0,
                "time": 0,
                "total_time": 179.20613551139832
            },
            {
                "note": 80,
                "velocity": 0,
                "time": 0.10249982916666665,
                "total_time": 179.3085687160492
            },
            {
                "note": 82,
                "velocity": 0,
                "time": 0,
                "total_time": 179.3088390827179
            },
            {
                "note": 87,
                "velocity": 0,
                "time": 0,
                "total_time": 179.30898332595825
            },
            {
                "note": 66,
                "velocity": 80,
                "time": 0.09124984791666665,
                "total_time": 179.39985513687134
            },
            {
                "note": 78,
                "velocity": 80,
                "time": 0,
                "total_time": 179.40016961097717
            },
            {
                "note": 66,
                "velocity": 0,
                "time": 0.2987495020833333,
                "total_time": 179.69863367080688
            },
            {
                "note": 78,
                "velocity": 0,
                "time": 0,
                "total_time": 179.69918131828308
            },
            {
                "note": 68,
                "velocity": 80,
                "time": 0.0012499979166666665,
                "total_time": 179.6997926235199
            },
            {
                "note": 80,
                "velocity": 80,
                "time": 0,
                "total_time": 179.69994258880615
            },
            {
                "note": 75,
                "velocity": 0,
                "time": 0.2237496270833333,
                "total_time": 179.9235486984253
            },
            {
                "note": 68,
                "velocity": 0,
                "time": 0.074999875,
                "total_time": 179.99855780601501
            },
            {
                "note": 80,
                "velocity": 0,
                "time": 0,
                "total_time": 179.99862957000732
            },
            {
                "note": 70,
                "velocity": 96,
                "time": 0.0012499979166666665,
                "total_time": 179.99989366531372
            },
            {
                "note": 75,
                "velocity": 96,
                "time": 0,
                "total_time": 179.99995875358582
            },
            {
                "note": 78,
                "velocity": 96,
                "time": 0,
                "total_time": 179.99997353553772
            },
            {
                "note": 82,
                "velocity": 96,
                "time": 0,
                "total_time": 179.99998450279236
            },
            {
                "note": 34,
                "velocity": 96,
                "time": 0,
                "total_time": 179.9999942779541
            },
            {
                "note": 46,
                "velocity": 96,
                "time": 0,
                "total_time": 180.00000405311584
            },
            {
                "note": 34,
                "velocity": 0,
                "time": 0.39749933749999994,
                "total_time": 180.399836063385
            },
            {
                "note": 46,
                "velocity": 0,
                "time": 0,
                "total_time": 180.40005040168762
            },
            {
                "note": 37,
                "velocity": 96,
                "time": 0.19999966666666663,
                "total_time": 180.59978127479553
            },
            {
                "note": 49,
                "velocity": 96,
                "time": 0,
                "total_time": 180.59991240501404
            },
            {
                "note": 37,
                "velocity": 0,
                "time": 0.39749933749999994,
                "total_time": 180.99985098838806
            },
            {
                "note": 49,
                "velocity": 0,
                "time": 0,
                "total_time": 181.00014925003052
            },
            {
                "note": 32,
                "velocity": 96,
                "time": 0.19999966666666663,
                "total_time": 181.19983959197998
            },
            {
                "note": 44,
                "velocity": 96,
                "time": 0,
                "total_time": 181.2003378868103
            },
            {
                "note": 32,
                "velocity": 0,
                "time": 0.39749933749999994,
                "total_time": 181.59986686706543
            },
            {
                "note": 44,
                "velocity": 0,
                "time": 0,
                "total_time": 181.60005402565002
            },
            {
                "note": 70,
                "velocity": 0,
                "time": 0.006249989583333332,
                "total_time": 181.60602927207947
            },
            {
                "note": 75,
                "velocity": 0,
                "time": 0,
                "total_time": 181.60611653327942
            },
            {
                "note": 78,
                "velocity": 0,
                "time": 0,
                "total_time": 181.60614657402039
            },
            {
                "note": 82,
                "velocity": 0,
                "time": 0,
                "total_time": 181.6061680316925
            },
            {
                "note": 34,
                "velocity": 96,
                "time": 0.1937496770833333,
                "total_time": 181.79985427856445
            },
            {
                "note": 46,
                "velocity": 96,
                "time": 0,
                "total_time": 181.8001618385315
            },
            {
                "note": 34,
                "velocity": 0,
                "time": 0.39749933749999994,
                "total_time": 182.19985961914062
            },
            {
                "note": 46,
                "velocity": 0,
                "time": 0,
                "total_time": 182.20018100738525
            },
            {
                "note": 80,
                "velocity": 80,
                "time": 0.19999966666666663,
                "total_time": 182.39986205101013
            },
            {
                "note": 83,
                "velocity": 80,
                "time": 0,
                "total_time": 182.40003609657288
            },
            {
                "note": 87,
                "velocity": 80,
                "time": 0,
                "total_time": 182.40006613731384
            },
            {
                "note": 75,
                "velocity": 96,
                "time": 0,
                "total_time": 182.4000895023346
            },
            {
                "note": 35,
                "velocity": 96,
                "time": 0,
                "total_time": 182.4001202583313
            },
            {
                "note": 39,
                "velocity": 96,
                "time": 0,
                "total_time": 182.40014052391052
            },
            {
                "note": 47,
                "velocity": 96,
                "time": 0,
                "total_time": 182.40016078948975
            },
            {
                "note": 75,
                "velocity": 0,
                "time": 0.19624967291666665,
                "total_time": 182.59854173660278
            },
            {
                "note": 75,
                "velocity": 80,
                "time": 0.10124983124999999,
                "total_time": 182.69978761672974
            },
            {
                "note": 75,
                "velocity": 0,
                "time": 0.2987495020833333,
                "total_time": 182.99857783317566
            },
            {
                "note": 75,
                "velocity": 80,
                "time": 0.0012499979166666665,
                "total_time": 183.00007271766663
            },
            {
                "note": 35,
                "velocity": 0,
                "time": 0.20249966249999998,
                "total_time": 183.2023162841797
            },
            {
                "note": 39,
                "velocity": 0,
                "time": 0,
                "total_time": 183.20241832733154
            },
            {
                "note": 47,
                "velocity": 0,
                "time": 0,
                "total_time": 183.2024393081665
            },
            {
                "note": 75,
                "velocity": 0,
                "time": 0.09624983958333332,
                "total_time": 183.2985246181488
            },
            {
                "note": 75,
                "velocity": 80,
                "time": 0.0012499979166666665,
                "total_time": 183.2997589111328
            },
            {
                "note": 80,
                "velocity": 0,
                "time": 0.2987495020833333,
                "total_time": 183.59856820106506
            },
            {
                "note": 83,
                "velocity": 0,
                "time": 0,
                "total_time": 183.5989043712616
            },
            {
                "note": 87,
                "velocity": 0,
                "time": 0,
                "total_time": 183.59894633293152
            },
            {
                "note": 75,
                "velocity": 0,
                "time": 0,
                "total_time": 183.59897017478943
            },
            {
                "note": 77,
                "velocity": 80,
                "time": 0.0012499979166666665,
                "total_time": 183.5997588634491
            },
            {
                "note": 82,
                "velocity": 80,
                "time": 0,
                "total_time": 183.59983491897583
            },
            {
                "note": 85,
                "velocity": 80,
                "time": 0,
                "total_time": 183.59985852241516
            },
            {
                "note": 73,
                "velocity": 96,
                "time": 0,
                "total_time": 183.59987902641296
            },
            {
                "note": 37,
                "velocity": 80,
                "time": 0,
                "total_time": 183.59990978240967
            },
            {
                "note": 39,
                "velocity": 80,
                "time": 0,
                "total_time": 183.59993958473206
            },
            {
                "note": 49,
                "velocity": 80,
                "time": 0,
                "total_time": 183.59995818138123
            },
            {
                "note": 73,
                "velocity": 0,
                "time": 0.19624967291666665,
                "total_time": 183.79857468605042
            },
            {
                "note": 73,
                "velocity": 80,
                "time": 0.10124983124999999,
                "total_time": 183.89983654022217
            },
            {
                "note": 73,
                "velocity": 0,
                "time": 0.2987495020833333,
                "total_time": 184.19855642318726
            },
            {
                "note": 73,
                "velocity": 80,
                "time": 0.0012499979166666665,
                "total_time": 184.19977116584778
            },
            {
                "note": 73,
                "velocity": 0,
                "time": 0.2987495020833333,
                "total_time": 184.4985818862915
            },
            {
                "note": 73,
                "velocity": 80,
                "time": 0.0012499979166666665,
                "total_time": 184.49982237815857
            },
            {
                "note": 37,
                "velocity": 0,
                "time": 0.2387496020833333,
                "total_time": 184.73852062225342
            },
            {
                "note": 39,
                "velocity": 0,
                "time": 0,
                "total_time": 184.73860883712769
            },
            {
                "note": 49,
                "velocity": 0,
                "time": 0,
                "total_time": 184.7386350631714
            },
            {
                "note": 77,
                "velocity": 0,
                "time": 0.059999899999999995,
                "total_time": 184.79852414131165
            },
            {
                "note": 82,
                "velocity": 0,
                "time": 0,
                "total_time": 184.7986249923706
            },
            {
                "note": 85,
                "velocity": 0,
                "time": 0,
                "total_time": 184.7986545562744
            },
            {
                "note": 73,
                "velocity": 0,
                "time": 0,
                "total_time": 184.79867887496948
            },
            {
                "note": 75,
                "velocity": 80,
                "time": 0.0012499979166666665,
                "total_time": 184.79975986480713
            },
            {
                "note": 77,
                "velocity": 80,
                "time": 0,
                "total_time": 184.79983711242676
            },
            {
                "note": 82,
                "velocity": 80,
                "time": 0,
                "total_time": 184.79986143112183
            },
            {
                "note": 70,
                "velocity": 96,
                "time": 0,
                "total_time": 184.79988312721252
            },
            {
                "note": 39,
                "velocity": 96,
                "time": 0,
                "total_time": 184.7999165058136
            },
            {
                "note": 51,
                "velocity": 96,
                "time": 0,
                "total_time": 184.79993629455566
            },
            {
                "note": 46,
                "velocity": 80,
                "time": 0,
                "total_time": 184.79995703697205
            },
            {
                "note": 70,
                "velocity": 0,
                "time": 0.19624967291666665,
                "total_time": 184.99854493141174
            },
            {
                "note": 70,
                "velocity": 80,
                "time": 0.10124983124999999,
                "total_time": 185.0998215675354
            },
            {
                "note": 70,
                "velocity": 0,
                "time": 0.2987495020833333,
                "total_time": 185.3985240459442
            },
            {
                "note": 70,
                "velocity": 80,
                "time": 0.0012499979166666665,
                "total_time": 185.39976930618286
            },
            {
                "note": 70,
                "velocity": 0,
                "time": 0.2987495020833333,
                "total_time": 185.69867944717407
            },
            {
                "note": 70,
                "velocity": 80,
                "time": 0.0012499979166666665,
                "total_time": 185.69982433319092
            },
            {
                "note": 78,
                "velocity": 80,
                "time": 0.2999995,
                "total_time": 185.99977493286133
            },
            {
                "note": 39,
                "velocity": 0,
                "time": 0.4062493229166666,
                "total_time": 186.4060742855072
            },
            {
                "note": 51,
                "velocity": 0,
                "time": 0,
                "total_time": 186.4063584804535
            },
            {
                "note": 46,
                "velocity": 0,
                "time": 0.10249982916666665,
                "total_time": 186.50863480567932
            },
            {
                "note": 46,
                "velocity": 80,
                "time": 0.09124984791666665,
                "total_time": 186.59985256195068
            },
            {
                "note": 58,
                "velocity": 80,
                "time": 0,
                "total_time": 186.6000828742981
            },
            {
                "note": 70,
                "velocity": 0,
                "time": 0.5387491020833333,
                "total_time": 187.13852214813232
            },
            {
                "note": 78,
                "velocity": 0,
                "time": 0,
                "total_time": 187.13864374160767
            },
            {
                "note": 46,
                "velocity": 0,
                "time": 0.029999949999999997,
                "total_time": 187.1685597896576
            },
            {
                "note": 58,
                "velocity": 0,
                "time": 0,
                "total_time": 187.16873383522034
            },
            {
                "note": 75,
                "velocity": 0,
                "time": 0.029999949999999997,
                "total_time": 187.19857549667358
            },
            {
                "note": 77,
                "velocity": 0,
                "time": 0,
                "total_time": 187.1989290714264
            },
            {
                "note": 82,
                "velocity": 0,
                "time": 0,
                "total_time": 187.19910955429077
            },
            {
                "note": 82,
                "velocity": 96,
                "time": 0.0012499979166666665,
                "total_time": 187.19975519180298
            },
            {
                "note": 70,
                "velocity": 80,
                "time": 0,
                "total_time": 187.200097322464
            },
            {
                "note": 73,
                "velocity": 80,
                "time": 0,
                "total_time": 187.20025634765625
            },
            {
                "note": 77,
                "velocity": 80,
                "time": 0,
                "total_time": 187.20034837722778
            },
            {
                "note": 46,
                "velocity": 80,
                "time": 0,
                "total_time": 187.20043444633484
            },
            {
                "note": 37,
                "velocity": 96,
                "time": 0,
                "total_time": 187.2005181312561
            },
            {
                "note": 49,
                "velocity": 96,
                "time": 0,
                "total_time": 187.20064043998718
            },
            {
                "note": 82,
                "velocity": 0,
                "time": 0.19624967291666665,
                "total_time": 187.39857292175293
            },
            {
                "note": 82,
                "velocity": 80,
                "time": 0.10124983124999999,
                "total_time": 187.49983549118042
            },
            {
                "note": 82,
                "velocity": 0,
                "time": 0.2987495020833333,
                "total_time": 187.79853105545044
            },
            {
                "note": 82,
                "velocity": 80,
                "time": 0.0012499979166666665,
                "total_time": 187.79976105690002
            },
            {
                "note": 82,
                "velocity": 0,
                "time": 0.2987495020833333,
                "total_time": 188.09853506088257
            },
            {
                "note": 82,
                "velocity": 80,
                "time": 0.0012499979166666665,
                "total_time": 188.09978890419006
            },
            {
                "note": 46,
                "velocity": 0,
                "time": 0.2387496020833333,
                "total_time": 188.33854699134827
            },
            {
                "note": 70,
                "velocity": 0,
                "time": 0.059999899999999995,
                "total_time": 188.39854860305786
            },
            {
                "note": 73,
                "velocity": 0,
                "time": 0,
                "total_time": 188.39874958992004
            },
            {
                "note": 77,
                "velocity": 0,
                "time": 0,
                "total_time": 188.3987910747528
            },
            {
                "note": 82,
                "velocity": 0,
                "time": 0,
                "total_time": 188.39882922172546
            },
            {
                "note": 80,
                "velocity": 96,
                "time": 0.0012499979166666665,
                "total_time": 188.39975690841675
            },
            {
                "note": 68,
                "velocity": 80,
                "time": 0,
                "total_time": 188.39988160133362
            },
            {
                "note": 72,
                "velocity": 80,
                "time": 0,
                "total_time": 188.39991998672485
            },
            {
                "note": 75,
                "velocity": 80,
                "time": 0,
                "total_time": 188.3999433517456
            },
            {
                "note": 32,
                "velocity": 80,
                "time": 0,
                "total_time": 188.39996457099915
            },
            {
                "note": 44,
                "velocity": 80,
                "time": 0,
                "total_time": 188.39998507499695
            },
            {
                "note": 80,
                "velocity": 0,
                "time": 0.19624967291666665,
                "total_time": 188.5985448360443
            },
            {
                "note": 80,
                "velocity": 80,
                "time": 0.10124983124999999,
                "total_time": 188.69982528686523
            },
            {
                "note": 37,
                "velocity": 0,
                "time": 0.10624982291666665,
                "total_time": 188.8060338497162
            },
            {
                "note": 49,
                "velocity": 0,
                "time": 0,
                "total_time": 188.80615663528442
            },
            {
                "note": 80,
                "velocity": 0,
                "time": 0.19249967916666663,
                "total_time": 188.99854254722595
            },
            {
                "note": 80,
                "velocity": 80,
                "time": 0.0012499979166666665,
                "total_time": 188.99975776672363
            },
            {
                "note": 80,
                "velocity": 0,
                "time": 0.2987495020833333,
                "total_time": 189.29854345321655
            },
            {
                "note": 80,
                "velocity": 80,
                "time": 0.0012499979166666665,
                "total_time": 189.29976606369019
            },
            {
                "note": 32,
                "velocity": 0,
                "time": 0.2387496020833333,
                "total_time": 189.5385344028473
            },
            {
                "note": 44,
                "velocity": 0,
                "time": 0,
                "total_time": 189.53865480422974
            },
            {
                "note": 68,
                "velocity": 0,
                "time": 0.059999899999999995,
                "total_time": 189.5985450744629
            },
            {
                "note": 72,
                "velocity": 0,
                "time": 0,
                "total_time": 189.59882950782776
            },
            {
                "note": 75,
                "velocity": 0,
                "time": 0,
                "total_time": 189.59889459609985
            },
            {
                "note": 80,
                "velocity": 0,
                "time": 0,
                "total_time": 189.5989224910736
            },
            {
                "note": 75,
                "velocity": 96,
                "time": 0.0012499979166666665,
                "total_time": 189.59976029396057
            },
            {
                "note": 63,
                "velocity": 80,
                "time": 0,
                "total_time": 189.5998706817627
            },
            {
                "note": 68,
                "velocity": 80,
                "time": 0,
                "total_time": 189.59990882873535
            },
            {
                "note": 72,
                "velocity": 80,
                "time": 0,
                "total_time": 189.59993243217468
            },
            {
                "note": 36,
                "velocity": 96,
                "time": 0,
                "total_time": 189.59995293617249
            },
            {
                "note": 39,
                "velocity": 96,
                "time": 0,
                "total_time": 189.59998321533203
            },
            {
                "note": 48,
                "velocity": 96,
                "time": 0,
                "total_time": 189.600004196167
            },
            {
                "note": 75,
                "velocity": 0,
                "time": 0.19624967291666665,
                "total_time": 189.79858946800232
            },
            {
                "note": 75,
                "velocity": 80,
                "time": 0.10124983124999999,
                "total_time": 189.89982891082764
            },
            {
                "note": 75,
                "velocity": 0,
                "time": 0.2837495270833333,
                "total_time": 190.18351697921753
            },
            {
                "note": 75,
                "velocity": 80,
                "time": 0.016249972916666664,
                "total_time": 190.19977736473083
            },
            {
                "note": 75,
                "velocity": 0,
                "time": 0.2837495270833333,
                "total_time": 190.4835226535797
            },
            {
                "note": 75,
                "velocity": 80,
                "time": 0.016249972916666664,
                "total_time": 190.49978065490723
            },
            {
                "note": 36,
                "velocity": 0,
                "time": 0.7062488229166666,
                "total_time": 191.20601201057434
            },
            {
                "note": 39,
                "velocity": 0,
                "time": 0,
                "total_time": 191.2061049938202
            },
            {
                "note": 48,
                "velocity": 0,
                "time": 0,
                "total_time": 191.2061367034912
            },
            {
                "note": 63,
                "velocity": 0,
                "time": 0.6724988791666666,
                "total_time": 191.87863850593567
            },
            {
                "note": 68,
                "velocity": 0,
                "time": 0,
                "total_time": 191.87872958183289
            },
            {
                "note": 72,
                "velocity": 0,
                "time": 0,
                "total_time": 191.87875747680664
            },
            {
                "note": 75,
                "velocity": 0,
                "time": 0.044999924999999996,
                "total_time": 191.92351961135864
            },
            {
                "note": 75,
                "velocity": 96,
                "time": 0.07624987291666666,
                "total_time": 191.99983549118042
            },
            {
                "note": 63,
                "velocity": 80,
                "time": 0,
                "total_time": 192.0000762939453
            },
            {
                "note": 66,
                "velocity": 80,
                "time": 0,
                "total_time": 192.00011897087097
            },
            {
                "note": 71,
                "velocity": 80,
                "time": 0,
                "total_time": 192.000141620636
            },
            {
                "note": 35,
                "velocity": 96,
                "time": 0,
                "total_time": 192.00016260147095
            },
            {
                "note": 39,
                "velocity": 96,
                "time": 0,
                "total_time": 192.0001950263977
            },
            {
                "note": 47,
                "velocity": 96,
                "time": 0,
                "total_time": 192.00021481513977
            },
            {
                "note": 75,
                "velocity": 0,
                "time": 0.19624967291666665,
                "total_time": 192.19851446151733
            },
            {
                "note": 75,
                "velocity": 80,
                "time": 0.10124983124999999,
                "total_time": 192.29978442192078
            },
            {
                "note": 75,
                "velocity": 0,
                "time": 0.2987495020833333,
                "total_time": 192.59853219985962
            },
            {
                "note": 75,
                "velocity": 80,
                "time": 0.0012499979166666665,
                "total_time": 192.599755525589
            },
            {
                "note": 35,
                "velocity": 0,
                "time": 0.20249966249999998,
                "total_time": 192.80225563049316
            },
            {
                "note": 39,
                "velocity": 0,
                "time": 0,
                "total_time": 192.80236387252808
            },
            {
                "note": 47,
                "velocity": 0,
                "time": 0,
                "total_time": 192.80239915847778
            },
            {
                "note": 75,
                "velocity": 0,
                "time": 0.09624983958333332,
                "total_time": 192.8985414505005
            },
            {
                "note": 75,
                "velocity": 80,
                "time": 0.0012499979166666665,
                "total_time": 192.89978623390198
            },
            {
                "note": 63,
                "velocity": 0,
                "time": 0.2987495020833333,
                "total_time": 193.19855976104736
            },
            {
                "note": 66,
                "velocity": 0,
                "time": 0,
                "total_time": 193.19888973236084
            },
            {
                "note": 71,
                "velocity": 0,
                "time": 0,
                "total_time": 193.19901537895203
            },
            {
                "note": 75,
                "velocity": 0,
                "time": 0,
                "total_time": 193.19911932945251
            },
            {
                "note": 77,
                "velocity": 96,
                "time": 0.0012499979166666665,
                "total_time": 193.1997847557068
            },
            {
                "note": 65,
                "velocity": 80,
                "time": 0,
                "total_time": 193.20003008842468
            },
            {
                "note": 68,
                "velocity": 80,
                "time": 0,
                "total_time": 193.20015716552734
            },
            {
                "note": 73,
                "velocity": 80,
                "time": 0,
                "total_time": 193.20023465156555
            },
            {
                "note": 37,
                "velocity": 80,
                "time": 0,
                "total_time": 193.20031118392944
            },
            {
                "note": 41,
                "velocity": 80,
                "time": 0,
                "total_time": 193.20040035247803
            },
            {
                "note": 49,
                "velocity": 80,
                "time": 0,
                "total_time": 193.20047855377197
            },
            {
                "note": 77,
                "velocity": 0,
                "time": 0.19624967291666665,
                "total_time": 193.3985755443573
            },
            {
                "note": 77,
                "velocity": 80,
                "time": 0.10124983124999999,
                "total_time": 193.49990105628967
            },
            {
                "note": 77,
                "velocity": 0,
                "time": 0.2987495020833333,
                "total_time": 193.79855799674988
            },
            {
                "note": 77,
                "velocity": 80,
                "time": 0.0012499979166666665,
                "total_time": 193.79974246025085
            },
            {
                "note": 77,
                "velocity": 0,
                "time": 0.2987495020833333,
                "total_time": 194.0985918045044
            },
            {
                "note": 77,
                "velocity": 80,
                "time": 0.0012499979166666665,
                "total_time": 194.09977984428406
            },
            {
                "note": 37,
                "velocity": 0,
                "time": 0.2387496020833333,
                "total_time": 194.33860659599304
            },
            {
                "note": 41,
                "velocity": 0,
                "time": 0,
                "total_time": 194.3389117717743
            },
            {
                "note": 49,
                "velocity": 0,
                "time": 0,
                "total_time": 194.33902978897095
            },
            {
                "note": 65,
                "velocity": 0,
                "time": 0.059999899999999995,
                "total_time": 194.39856052398682
            },
            {
                "note": 68,
                "velocity": 0,
                "time": 0,
                "total_time": 194.39888167381287
            },
            {
                "note": 73,
                "velocity": 0,
                "time": 0,
                "total_time": 194.3990306854248
            },
            {
                "note": 77,
                "velocity": 0,
                "time": 0,
                "total_time": 194.3991494178772
            },
            {
                "note": 78,
                "velocity": 96,
                "time": 0.0012499979166666665,
                "total_time": 194.39976739883423
            },
            {
                "note": 66,
                "velocity": 80,
                "time": 0,
                "total_time": 194.40001368522644
            },
            {
                "note": 70,
                "velocity": 80,
                "time": 0,
                "total_time": 194.40013718605042
            },
            {
                "note": 75,
                "velocity": 80,
                "time": 0,
                "total_time": 194.40021419525146
            },
            {
                "note": 39,
                "velocity": 96,
                "time": 0,
                "total_time": 194.40028762817383
            },
            {
                "note": 51,
                "velocity": 96,
                "time": 0,
                "total_time": 194.400390625
            },
            {
                "note": 42,
                "velocity": 80,
                "time": 0,
                "total_time": 194.4004623889923
            },
            {
                "note": 78,
                "velocity": 0,
                "time": 0.19624967291666665,
                "total_time": 194.5986201763153
            },
            {
                "note": 78,
                "velocity": 80,
                "time": 0.10124983124999999,
                "total_time": 194.69982933998108
            },
            {
                "note": 78,
                "velocity": 0,
                "time": 0.2837495270833333,
                "total_time": 194.98350715637207
            },
            {
                "note": 78,
                "velocity": 80,
                "time": 0.016249972916666664,
                "total_time": 194.99981045722961
            },
            {
                "note": 78,
                "velocity": 0,
                "time": 0.2837495270833333,
                "total_time": 195.28355956077576
            },
            {
                "note": 78,
                "velocity": 80,
                "time": 0.016249972916666664,
                "total_time": 195.29984593391418
            },
            {
                "note": 66,
                "velocity": 0,
                "time": 0.2387496020833333,
                "total_time": 195.5385615825653
            },
            {
                "note": 70,
                "velocity": 0,
                "time": 0,
                "total_time": 195.5389096736908
            },
            {
                "note": 75,
                "velocity": 0,
                "time": 0,
                "total_time": 195.53905034065247
            },
            {
                "note": 42,
                "velocity": 0,
                "time": 0,
                "total_time": 195.5391628742218
            },
            {
                "note": 78,
                "velocity": 0,
                "time": 0.044999924999999996,
                "total_time": 195.58355164527893
            },
            {
                "note": 82,
                "velocity": 96,
                "time": 0.016249972916666664,
                "total_time": 195.59978032112122
            },
            {
                "note": 70,
                "velocity": 80,
                "time": 0,
                "total_time": 195.6000030040741
            },
            {
                "note": 75,
                "velocity": 80,
                "time": 0,
                "total_time": 195.6000406742096
            },
            {
                "note": 78,
                "velocity": 80,
                "time": 0,
                "total_time": 195.60006093978882
            },
            {
                "note": 46,
                "velocity": 80,
                "time": 0,
                "total_time": 195.60008025169373
            },
            {
                "note": 39,
                "velocity": 0,
                "time": 0.0037499937499999997,
                "total_time": 195.60351181030273
            },
            {
                "note": 51,
                "velocity": 0,
                "time": 0,
                "total_time": 195.60357022285461
            },
            {
                "note": 82,
                "velocity": 0,
                "time": 0.19499967499999998,
                "total_time": 195.79854202270508
            },
            {
                "note": 82,
                "velocity": 80,
                "time": 0.10124983124999999,
                "total_time": 195.89975833892822
            },
            {
                "note": 46,
                "velocity": 0,
                "time": 0.2687495520833333,
                "total_time": 196.16853880882263
            },
            {
                "note": 70,
                "velocity": 0,
                "time": 0.029999949999999997,
                "total_time": 196.1986358165741
            },
            {
                "note": 75,
                "velocity": 0,
                "time": 0,
                "total_time": 196.19904255867004
            },
            {
                "note": 78,
                "velocity": 0,
                "time": 0,
                "total_time": 196.19920754432678
            },
            {
                "note": 82,
                "velocity": 0,
                "time": 0,
                "total_time": 196.19931530952454
            },
            {
                "note": 80,
                "velocity": 96,
                "time": 0.0012499979166666665,
                "total_time": 196.19983863830566
            },
            {
                "note": 68,
                "velocity": 80,
                "time": 0,
                "total_time": 196.20043635368347
            },
            {
                "note": 73,
                "velocity": 80,
                "time": 0,
                "total_time": 196.20065021514893
            },
            {
                "note": 77,
                "velocity": 80,
                "time": 0,
                "total_time": 196.2007715702057
            },
            {
                "note": 37,
                "velocity": 80,
                "time": 0,
                "total_time": 196.2009255886078
            },
            {
                "note": 49,
                "velocity": 80,
                "time": 0,
                "total_time": 196.20102953910828
            },
            {
                "note": 44,
                "velocity": 80,
                "time": 0,
                "total_time": 196.20112371444702
            },
            {
                "note": 80,
                "velocity": 0,
                "time": 0.19624967291666665,
                "total_time": 196.39855456352234
            },
            {
                "note": 80,
                "velocity": 80,
                "time": 0.10124983124999999,
                "total_time": 196.49981665611267
            },
            {
                "note": 37,
                "velocity": 0,
                "time": 0.2687495520833333,
                "total_time": 196.76850628852844
            },
            {
                "note": 49,
                "velocity": 0,
                "time": 0,
                "total_time": 196.7686207294464
            },
            {
                "note": 44,
                "velocity": 0,
                "time": 0,
                "total_time": 196.7686607837677
            },
            {
                "note": 68,
                "velocity": 0,
                "time": 0.029999949999999997,
                "total_time": 196.79851174354553
            },
            {
                "note": 73,
                "velocity": 0,
                "time": 0,
                "total_time": 196.79864406585693
            },
            {
                "note": 77,
                "velocity": 0,
                "time": 0,
                "total_time": 196.7986719608307
            },
            {
                "note": 80,
                "velocity": 0,
                "time": 0,
                "total_time": 196.79869413375854
            },
            {
                "note": 80,
                "velocity": 96,
                "time": 0.0012499979166666665,
                "total_time": 196.79973721504211
            },
            {
                "note": 68,
                "velocity": 80,
                "time": 0,
                "total_time": 196.79978489875793
            },
            {
                "note": 72,
                "velocity": 80,
                "time": 0,
                "total_time": 196.7998251914978
            },
            {
                "note": 75,
                "velocity": 80,
                "time": 0,
                "total_time": 196.79984641075134
            },
            {
                "note": 36,
                "velocity": 96,
                "time": 0,
                "total_time": 196.7998673915863
            },
            {
                "note": 44,
                "velocity": 96,
                "time": 0,
                "total_time": 196.7998983860016
            },
            {
                "note": 48,
                "velocity": 96,
                "time": 0,
                "total_time": 196.7999176979065
            },
            {
                "note": 80,
                "velocity": 0,
                "time": 0.19624967291666665,
                "total_time": 196.99855542182922
            },
            {
                "note": 80,
                "velocity": 80,
                "time": 0.10124983124999999,
                "total_time": 197.09977340698242
            },
            {
                "note": 80,
                "velocity": 0,
                "time": 0.2987495020833333,
                "total_time": 197.39852261543274
            },
            {
                "note": 80,
                "velocity": 80,
                "time": 0.0012499979166666665,
                "total_time": 197.39973735809326
            },
            {
                "note": 36,
                "velocity": 0,
                "time": 0.20249966249999998,
                "total_time": 197.60226249694824
            },
            {
                "note": 44,
                "velocity": 0,
                "time": 0,
                "total_time": 197.60238528251648
            },
            {
                "note": 48,
                "velocity": 0,
                "time": 0,
                "total_time": 197.60256052017212
            },
            {
                "note": 80,
                "velocity": 0,
                "time": 0.09624983958333332,
                "total_time": 197.69854354858398
            },
            {
                "note": 80,
                "velocity": 80,
                "time": 0.0012499979166666665,
                "total_time": 197.69976592063904
            },
            {
                "note": 68,
                "velocity": 0,
                "time": 0.2987495020833333,
                "total_time": 197.99852442741394
            },
            {
                "note": 72,
                "velocity": 0,
                "time": 0,
                "total_time": 197.998717546463
            },
            {
                "note": 75,
                "velocity": 0,
                "time": 0,
                "total_time": 197.9987723827362
            },
            {
                "note": 80,
                "velocity": 0,
                "time": 0,
                "total_time": 197.9988374710083
            },
            {
                "note": 75,
                "velocity": 96,
                "time": 0.0012499979166666665,
                "total_time": 197.99975991249084
            },
            {
                "note": 63,
                "velocity": 80,
                "time": 0,
                "total_time": 197.99986934661865
            },
            {
                "note": 72,
                "velocity": 80,
                "time": 0,
                "total_time": 197.99993467330933
            },
            {
                "note": 32,
                "velocity": 80,
                "time": 0,
                "total_time": 197.99997425079346
            },
            {
                "note": 39,
                "velocity": 80,
                "time": 0,
                "total_time": 198.000013589859
            },
            {
                "note": 44,
                "velocity": 80,
                "time": 0,
                "total_time": 198.00005292892456
            },
            {
                "note": 75,
                "velocity": 0,
                "time": 0.5987490020833333,
                "total_time": 198.6010446548462
            },
            {
                "note": 75,
                "velocity": 80,
                "time": 0.2987495020833333,
                "total_time": 198.89983344078064
            },
            {
                "note": 75,
                "velocity": 0,
                "time": 0.14874975208333333,
                "total_time": 199.04855036735535
            },
            {
                "note": 77,
                "velocity": 80,
                "time": 0.0012499979166666665,
                "total_time": 199.05011320114136
            },
            {
                "note": 32,
                "velocity": 0,
                "time": 0.08874985208333332,
                "total_time": 199.1385018825531
            },
            {
                "note": 39,
                "velocity": 0,
                "time": 0,
                "total_time": 199.13860940933228
            },
            {
                "note": 44,
                "velocity": 0,
                "time": 0,
                "total_time": 199.1386420726776
            },
            {
                "note": 63,
                "velocity": 0,
                "time": 0.059999899999999995,
                "total_time": 199.19850873947144
            },
            {
                "note": 72,
                "velocity": 0,
                "time": 0,
                "total_time": 199.19862508773804
            },
            {
                "note": 77,
                "velocity": 0,
                "time": 0,
                "total_time": 199.19866061210632
            },
            {
                "note": 78,
                "velocity": 96,
                "time": 0.0012499979166666665,
                "total_time": 199.19975185394287
            },
            {
                "note": 66,
                "velocity": 80,
                "time": 0,
                "total_time": 199.19986605644226
            },
            {
                "note": 71,
                "velocity": 80,
                "time": 0,
                "total_time": 199.19990491867065
            },
            {
                "note": 75,
                "velocity": 80,
                "time": 0,
                "total_time": 199.1999273300171
            },
            {
                "note": 32,
                "velocity": 96,
                "time": 0,
                "total_time": 199.19994950294495
            },
            {
                "note": 44,
                "velocity": 96,
                "time": 0,
                "total_time": 199.19998168945312
            },
            {
                "note": 78,
                "velocity": 0,
                "time": 0.048749918749999996,
                "total_time": 199.39853072166443
            },
            {
                "note": 78,
                "velocity": 84,
                "time": 0,
                "total_time": 199.49986934661865
            },
            {
                "note": 78,
                "velocity": 0,
                "time": 0.07374987708333332,
                "total_time": 199.79854607582092
            },
            {
                "note": 78,
                "velocity": 88,
                "time": 0,
                "total_time": 199.7998993396759
            },
            {
                "note": 32,
                "velocity": 0,
                "time": 0.052499912499999996,
                "total_time": 200.00224685668945
            },
            {
                "note": 44,
                "velocity": 0,
                "time": 0,
                "total_time": 200.00234174728394
            },
            {
                "note": 78,
                "velocity": 0,
                "time": 0.07374987708333332,
                "total_time": 200.0984992980957
            },
            {
                "note": 78,
                "velocity": 92,
                "time": 0,
                "total_time": 200.09977006912231
            },
            {
                "note": 66,
                "velocity": 0,
                "time": 0.07374987708333332,
                "total_time": 200.39855527877808
            },
            {
                "note": 71,
                "velocity": 0,
                "time": 0,
                "total_time": 200.3992156982422
            },
            {
                "note": 75,
                "velocity": 0,
                "time": 0,
                "total_time": 200.39940190315247
            },
            {
                "note": 78,
                "velocity": 0,
                "time": 0,
                "total_time": 200.3994812965393
            },
            {
                "note": 80,
                "velocity": 115,
                "time": 0,
                "total_time": 200.39983677864075
            },
            {
                "note": 68,
                "velocity": 96,
                "time": 0,
                "total_time": 200.39995312690735
            },
            {
                "note": 73,
                "velocity": 96,
                "time": 0,
                "total_time": 200.40003633499146
            },
            {
                "note": 77,
                "velocity": 96,
                "time": 0,
                "total_time": 200.4000895023346
            },
            {
                "note": 34,
                "velocity": 96,
                "time": 0,
                "total_time": 200.4001727104187
            },
            {
                "note": 46,
                "velocity": 96,
                "time": 0,
                "total_time": 200.40027284622192
            },
            {
                "note": 80,
                "velocity": 0,
                "time": 0.02499995833333333,
                "total_time": 200.79986095428467
            },
            {
                "note": 68,
                "velocity": 0,
                "time": 0.07374987708333332,
                "total_time": 200.99853467941284
            },
            {
                "note": 73,
                "velocity": 0,
                "time": 0,
                "total_time": 200.998770236969
            },
            {
                "note": 77,
                "velocity": 0,
                "time": 0,
                "total_time": 200.9988374710083
            },
            {
                "note": 85,
                "velocity": 124,
                "time": 0,
                "total_time": 200.9998321533203
            },
            {
                "note": 73,
                "velocity": 104,
                "time": 0,
                "total_time": 200.9998881816864
            },
            {
                "note": 77,
                "velocity": 104,
                "time": 0,
                "total_time": 200.99994564056396
            },
            {
                "note": 80,
                "velocity": 104,
                "time": 0,
                "total_time": 200.99998235702515
            },
            {
                "note": 85,
                "velocity": 0,
                "time": 0.02499995833333333,
                "total_time": 201.39984011650085
            },
            {
                "note": 34,
                "velocity": 0,
                "time": 0.013749977083333332,
                "total_time": 201.5386233329773
            },
            {
                "note": 46,
                "velocity": 0,
                "time": 0,
                "total_time": 201.53892135620117
            },
            {
                "note": 73,
                "velocity": 0,
                "time": 0.029999949999999997,
                "total_time": 201.56854963302612
            },
            {
                "note": 77,
                "velocity": 0,
                "time": 0,
                "total_time": 201.56888151168823
            },
            {
                "note": 80,
                "velocity": 0,
                "time": 0,
                "total_time": 201.56904244422913
            },
            {
                "note": 75,
                "velocity": 127,
                "time": 0,
                "total_time": 201.59984707832336
            },
            {
                "note": 78,
                "velocity": 127,
                "time": 0,
                "total_time": 201.5999264717102
            },
            {
                "note": 82,
                "velocity": 127,
                "time": 0,
                "total_time": 201.59996438026428
            },
            {
                "note": 87,
                "velocity": 127,
                "time": 0,
                "total_time": 201.59998536109924
            },
            {
                "note": 39,
                "velocity": 112,
                "time": 0,
                "total_time": 201.60001468658447
            },
            {
                "note": 42,
                "velocity": 96,
                "time": 0,
                "total_time": 201.74998354911804
            },
            {
                "note": 42,
                "velocity": 0,
                "time": 0.14874975208333333,
                "total_time": 201.89853930473328
            },
            {
                "note": 46,
                "velocity": 96,
                "time": 0.0012499979166666665,
                "total_time": 201.89976358413696
            },
            {
                "note": 46,
                "velocity": 0,
                "time": 0.14874975208333333,
                "total_time": 202.04854798316956
            },
            {
                "note": 51,
                "velocity": 96,
                "time": 0.0012499979166666665,
                "total_time": 202.04982542991638
            },
            {
                "note": 51,
                "velocity": 0,
                "time": 0.14874975208333333,
                "total_time": 202.1985218524933
            },
            {
                "note": 54,
                "velocity": 96,
                "time": 0.0012499979166666665,
                "total_time": 202.1997287273407
            },
            {
                "note": 54,
                "velocity": 0,
                "time": 0.14874975208333333,
                "total_time": 202.34861373901367
            },
            {
                "note": 58,
                "velocity": 96,
                "time": 0.0012499979166666665,
                "total_time": 202.34976363182068
            },
            {
                "note": 58,
                "velocity": 0,
                "time": 0.14874975208333333,
                "total_time": 202.49855422973633
            },
            {
                "note": 63,
                "velocity": 96,
                "time": 0.0012499979166666665,
                "total_time": 202.49977493286133
            },
            {
                "note": 63,
                "velocity": 0,
                "time": 0.14874975208333333,
                "total_time": 202.64860010147095
            },
            {
                "note": 58,
                "velocity": 96,
                "time": 0.0012499979166666665,
                "total_time": 202.64975810050964
            },
            {
                "note": 58,
                "velocity": 0,
                "time": 0.14874975208333333,
                "total_time": 202.79854917526245
            },
            {
                "note": 66,
                "velocity": 96,
                "time": 0.0012499979166666665,
                "total_time": 202.80028223991394
            },
            {
                "note": 66,
                "velocity": 0,
                "time": 0.14874975208333333,
                "total_time": 202.94855952262878
            },
            {
                "note": 58,
                "velocity": 96,
                "time": 0.0012499979166666665,
                "total_time": 202.94985270500183
            },
            {
                "note": 75,
                "velocity": 0,
                "time": 0.054999908333333326,
                "total_time": 203.0047960281372
            },
            {
                "note": 78,
                "velocity": 0,
                "time": 0,
                "total_time": 203.00518608093262
            },
            {
                "note": 82,
                "velocity": 0,
                "time": 0,
                "total_time": 203.0052990913391
            },
            {
                "note": 87,
                "velocity": 0,
                "time": 0,
                "total_time": 203.00536727905273
            },
            {
                "note": 58,
                "velocity": 0,
                "time": 0.09374984374999999,
                "total_time": 203.09872102737427
            },
            {
                "note": 63,
                "velocity": 96,
                "time": 0.0012499979166666665,
                "total_time": 203.099858045578
            },
            {
                "note": 63,
                "velocity": 0,
                "time": 0.14874975208333333,
                "total_time": 203.24856519699097
            },
            {
                "note": 58,
                "velocity": 96,
                "time": 0.0012499979166666665,
                "total_time": 203.24974489212036
            },
            {
                "note": 58,
                "velocity": 0,
                "time": 0.14874975208333333,
                "total_time": 203.39849829673767
            },
            {
                "note": 54,
                "velocity": 96,
                "time": 0.0012499979166666665,
                "total_time": 203.39972400665283
            },
            {
                "note": 54,
                "velocity": 0,
                "time": 0.14874975208333333,
                "total_time": 203.54854130744934
            },
            {
                "note": 51,
                "velocity": 96,
                "time": 0.0012499979166666665,
                "total_time": 203.54973649978638
            },
            {
                "note": 51,
                "velocity": 0,
                "time": 0.14874975208333333,
                "total_time": 203.6986961364746
            },
            {
                "note": 78,
                "velocity": 112,
                "time": 0.0012499979166666665,
                "total_time": 203.6997935771942
            },
            {
                "note": 90,
                "velocity": 112,
                "time": 0,
                "total_time": 203.70008778572083
            },
            {
                "note": 46,
                "velocity": 96,
                "time": 0,
                "total_time": 203.7001645565033
            },
            {
                "note": 46,
                "velocity": 0,
                "time": 0.14874975208333333,
                "total_time": 203.84851670265198
            },
            {
                "note": 42,
                "velocity": 96,
                "time": 0.0012499979166666665,
                "total_time": 203.84985780715942
            },
            {
                "note": 78,
                "velocity": 0,
                "time": 0.13374977708333333,
                "total_time": 203.98353123664856
            },
            {
                "note": 90,
                "velocity": 0,
                "time": 0,
                "total_time": 203.98376417160034
            },
            {
                "note": 42,
                "velocity": 0,
                "time": 0.007499987499999999,
                "total_time": 203.9910171031952
            },
            {
                "note": 39,
                "velocity": 0,
                "time": 0.007499987499999999,
                "total_time": 203.9985327720642
            },
            {
                "note": 77,
                "velocity": 127,
                "time": 0.0012499979166666665,
                "total_time": 203.99974370002747
            },
            {
                "note": 80,
                "velocity": 127,
                "time": 0,
                "total_time": 203.9999339580536
            },
            {
                "note": 85,
                "velocity": 127,
                "time": 0,
                "total_time": 204.00000071525574
            },
            {
                "note": 89,
                "velocity": 127,
                "time": 0,
                "total_time": 204.0000638961792
            },
            {
                "note": 34,
                "velocity": 112,
                "time": 0,
                "total_time": 204.0001449584961
            },
            {
                "note": 37,
                "velocity": 96,
                "time": 0,
                "total_time": 204.15008759498596
            },
            {
                "note": 37,
                "velocity": 0,
                "time": 0.14874975208333333,
                "total_time": 204.29854679107666
            },
            {
                "note": 41,
                "velocity": 96,
                "time": 0.0012499979166666665,
                "total_time": 204.29976868629456
            },
            {
                "note": 41,
                "velocity": 0,
                "time": 0.14874975208333333,
                "total_time": 204.44850707054138
            },
            {
                "note": 44,
                "velocity": 96,
                "time": 0.0012499979166666665,
                "total_time": 204.4497354030609
            },
            {
                "note": 44,
                "velocity": 0,
                "time": 0.14874975208333333,
                "total_time": 204.59849524497986
            },
            {
                "note": 49,
                "velocity": 96,
                "time": 0.0012499979166666665,
                "total_time": 204.59973049163818
            },
            {
                "note": 49,
                "velocity": 0,
                "time": 0.14874975208333333,
                "total_time": 204.748517036438
            },
            {
                "note": 53,
                "velocity": 96,
                "time": 0.0012499979166666665,
                "total_time": 204.74973559379578
            },
            {
                "note": 53,
                "velocity": 0,
                "time": 0.14874975208333333,
                "total_time": 204.89853715896606
            },
            {
                "note": 56,
                "velocity": 96,
                "time": 0.0012499979166666665,
                "total_time": 204.89977264404297
            },
            {
                "note": 56,
                "velocity": 0,
                "time": 0.14874975208333333,
                "total_time": 205.04853081703186
            },
            {
                "note": 53,
                "velocity": 96,
                "time": 0.0012499979166666665,
                "total_time": 205.04988956451416
            },
            {
                "note": 53,
                "velocity": 0,
                "time": 0.14874975208333333,
                "total_time": 205.19850611686707
            },
            {
                "note": 61,
                "velocity": 96,
                "time": 0.0012499979166666665,
                "total_time": 205.19973158836365
            },
            {
                "note": 77,
                "velocity": 0,
                "time": 0.0037499937499999997,
                "total_time": 205.20347428321838
            },
            {
                "note": 80,
                "velocity": 0,
                "time": 0,
                "total_time": 205.20352864265442
            },
            {
                "note": 85,
                "velocity": 0,
                "time": 0,
                "total_time": 205.20355606079102
            },
            {
                "note": 89,
                "velocity": 0,
                "time": 0,
                "total_time": 205.2035837173462
            },
            {
                "note": 61,
                "velocity": 0,
                "time": 0.1449997583333333,
                "total_time": 205.34851241111755
            },
            {
                "note": 53,
                "velocity": 96,
                "time": 0.0012499979166666665,
                "total_time": 205.34972715377808
            },
            {
                "note": 53,
                "velocity": 0,
                "time": 0.14874975208333333,
                "total_time": 205.4985921382904
            },
            {
                "note": 56,
                "velocity": 96,
                "time": 0.0012499979166666665,
                "total_time": 205.49977946281433
            },
            {
                "note": 56,
                "velocity": 0,
                "time": 0.14874975208333333,
                "total_time": 205.64857387542725
            },
            {
                "note": 53,
                "velocity": 96,
                "time": 0.0012499979166666665,
                "total_time": 205.64977931976318
            },
            {
                "note": 53,
                "velocity": 0,
                "time": 0.14874975208333333,
                "total_time": 205.79852485656738
            },
            {
                "note": 70,
                "velocity": 112,
                "time": 0.0012499979166666665,
                "total_time": 205.79979276657104
            },
            {
                "note": 82,
                "velocity": 112,
                "time": 0,
                "total_time": 205.8001890182495
            },
            {
                "note": 49,
                "velocity": 96,
                "time": 0,
                "total_time": 205.80030751228333
            },
            {
                "note": 49,
                "velocity": 0,
                "time": 0.14874975208333333,
                "total_time": 205.94851326942444
            },
            {
                "note": 44,
                "velocity": 96,
                "time": 0.0012499979166666665,
                "total_time": 205.94973874092102
            },
            {
                "note": 70,
                "velocity": 0,
                "time": 0.14874975208333333,
                "total_time": 206.0985610485077
            },
            {
                "note": 82,
                "velocity": 0,
                "time": 0,
                "total_time": 206.09912300109863
            },
            {
                "note": 44,
                "velocity": 0,
                "time": 0,
                "total_time": 206.09929156303406
            },
            {
                "note": 73,
                "velocity": 112,
                "time": 0.0012499979166666665,
                "total_time": 206.0997884273529
            },
            {
                "note": 85,
                "velocity": 112,
                "time": 0,
                "total_time": 206.10013914108276
            },
            {
                "note": 41,
                "velocity": 96,
                "time": 0,
                "total_time": 206.10028100013733
            },
            {
                "note": 41,
                "velocity": 0,
                "time": 0.14874975208333333,
                "total_time": 206.24849200248718
            },
            {
                "note": 37,
                "velocity": 96,
                "time": 0.0012499979166666665,
                "total_time": 206.24972319602966
            },
            {
                "note": 73,
                "velocity": 0,
                "time": 0.13374977708333333,
                "total_time": 206.3835289478302
            },
            {
                "note": 85,
                "velocity": 0,
                "time": 0,
                "total_time": 206.38362407684326
            },
            {
                "note": 37,
                "velocity": 0,
                "time": 0.007499987499999999,
                "total_time": 206.39098858833313
            },
            {
                "note": 34,
                "velocity": 0,
                "time": 0.007499987499999999,
                "total_time": 206.3984887599945
            },
            {
                "note": 75,
                "velocity": 127,
                "time": 0.0012499979166666665,
                "total_time": 206.3997631072998
            },
            {
                "note": 79,
                "velocity": 127,
                "time": 0,
                "total_time": 206.39983701705933
            },
            {
                "note": 84,
                "velocity": 127,
                "time": 0,
                "total_time": 206.39986276626587
            },
            {
                "note": 87,
                "velocity": 127,
                "time": 0,
                "total_time": 206.399884223938
            },
            {
                "note": 29,
                "velocity": 112,
                "time": 0,
                "total_time": 206.39991521835327
            },
            {
                "note": 36,
                "velocity": 96,
                "time": 0,
                "total_time": 206.5498526096344
            },
            {
                "note": 36,
                "velocity": 0,
                "time": 0.14874975208333333,
                "total_time": 206.6987383365631
            },
            {
                "note": 39,
                "velocity": 96,
                "time": 0.0012499979166666665,
                "total_time": 206.69977140426636
            },
            {
                "note": 39,
                "velocity": 0,
                "time": 0.14874975208333333,
                "total_time": 206.84852170944214
            },
            {
                "note": 43,
                "velocity": 96,
                "time": 0.0012499979166666665,
                "total_time": 206.8497428894043
            },
            {
                "note": 43,
                "velocity": 0,
                "time": 0.14874975208333333,
                "total_time": 206.99854278564453
            },
            {
                "note": 48,
                "velocity": 96,
                "time": 0.0012499979166666665,
                "total_time": 206.9997570514679
            },
            {
                "note": 48,
                "velocity": 0,
                "time": 0.14874975208333333,
                "total_time": 207.1485493183136
            },
            {
                "note": 51,
                "velocity": 96,
                "time": 0.0012499979166666665,
                "total_time": 207.14974427223206
            },
            {
                "note": 51,
                "velocity": 0,
                "time": 0.14874975208333333,
                "total_time": 207.29864048957825
            },
            {
                "note": 55,
                "velocity": 96,
                "time": 0.0012499979166666665,
                "total_time": 207.2997853755951
            },
            {
                "note": 55,
                "velocity": 0,
                "time": 0.14874975208333333,
                "total_time": 207.4484944343567
            },
            {
                "note": 51,
                "velocity": 96,
                "time": 0.0012499979166666665,
                "total_time": 207.44975638389587
            },
            {
                "note": 75,
                "velocity": 0,
                "time": 0.052499912499999996,
                "total_time": 207.50226616859436
            },
            {
                "note": 79,
                "velocity": 0,
                "time": 0,
                "total_time": 207.50236582756042
            },
            {
                "note": 84,
                "velocity": 0,
                "time": 0,
                "total_time": 207.5023980140686
            },
            {
                "note": 87,
                "velocity": 0,
                "time": 0,
                "total_time": 207.50242495536804
            },
            {
                "note": 51,
                "velocity": 0,
                "time": 0.09624983958333332,
                "total_time": 207.59859609603882
            },
            {
                "note": 60,
                "velocity": 96,
                "time": 0,
                "total_time": 207.59982562065125
            },
            {
                "note": 60,
                "velocity": 0,
                "time": 0.14874975208333333,
                "total_time": 207.74850988388062
            },
            {
                "note": 51,
                "velocity": 96,
                "time": 0.0012499979166666665,
                "total_time": 207.74977803230286
            },
            {
                "note": 51,
                "velocity": 0,
                "time": 0.14874975208333333,
                "total_time": 207.89875602722168
            },
            {
                "note": 73,
                "velocity": 112,
                "time": 0.0012499979166666665,
                "total_time": 207.89975666999817
            },
            {
                "note": 85,
                "velocity": 112,
                "time": 0,
                "total_time": 207.89997124671936
            },
            {
                "note": 55,
                "velocity": 96,
                "time": 0,
                "total_time": 207.90004134178162
            },
            {
                "note": 55,
                "velocity": 0,
                "time": 0.14874975208333333,
                "total_time": 208.04856324195862
            },
            {
                "note": 51,
                "velocity": 96,
                "time": 0.0012499979166666665,
                "total_time": 208.04974269866943
            },
            {
                "note": 73,
                "velocity": 0,
                "time": 0.14874975208333333,
                "total_time": 208.19854044914246
            },
            {
                "note": 85,
                "velocity": 0,
                "time": 0,
                "total_time": 208.19884157180786
            },
            {
                "note": 51,
                "velocity": 0,
                "time": 0,
                "total_time": 208.19893074035645
            },
            {
                "note": 75,
                "velocity": 112,
                "time": 0.0012499979166666665,
                "total_time": 208.19974184036255
            },
            {
                "note": 87,
                "velocity": 112,
                "time": 0,
                "total_time": 208.19986987113953
            },
            {
                "note": 48,
                "velocity": 96,
                "time": 0,
                "total_time": 208.1999454498291
            },
            {
                "note": 48,
                "velocity": 0,
                "time": 0.14874975208333333,
                "total_time": 208.34859466552734
            },
            {
                "note": 43,
                "velocity": 96,
                "time": 0.0012499979166666665,
                "total_time": 208.34974455833435
            },
            {
                "note": 75,
                "velocity": 0,
                "time": 0.14874975208333333,
                "total_time": 208.49848008155823
            },
            {
                "note": 87,
                "velocity": 0,
                "time": 0,
                "total_time": 208.4985854625702
            },
            {
                "note": 43,
                "velocity": 0,
                "time": 0,
                "total_time": 208.498615026474
            },
            {
                "note": 82,
                "velocity": 112,
                "time": 0.0012499979166666665,
                "total_time": 208.4997239112854
            },
            {
                "note": 94,
                "velocity": 112,
                "time": 0,
                "total_time": 208.49979448318481
            },
            {
                "note": 39,
                "velocity": 96,
                "time": 0,
                "total_time": 208.49982738494873
            },
            {
                "note": 39,
                "velocity": 0,
                "time": 0.14874975208333333,
                "total_time": 208.64851665496826
            },
            {
                "note": 43,
                "velocity": 96,
                "time": 0.0012499979166666665,
                "total_time": 208.64974117279053
            },
            {
                "note": 82,
                "velocity": 0,
                "time": 0.13374977708333333,
                "total_time": 208.78350019454956
            },
            {
                "note": 94,
                "velocity": 0,
                "time": 0,
                "total_time": 208.78366422653198
            },
            {
                "note": 43,
                "velocity": 0,
                "time": 0.007499987499999999,
                "total_time": 208.7910099029541
            },
            {
                "note": 29,
                "velocity": 0,
                "time": 0.007499987499999999,
                "total_time": 208.79853582382202
            },
            {
                "note": 80,
                "velocity": 127,
                "time": 0.0012499979166666665,
                "total_time": 208.79974913597107
            },
            {
                "note": 83,
                "velocity": 127,
                "time": 0,
                "total_time": 208.80015468597412
            },
            {
                "note": 87,
                "velocity": 127,
                "time": 0,
                "total_time": 208.80031204223633
            },
            {
                "note": 92,
                "velocity": 127,
                "time": 0,
                "total_time": 208.80039191246033
            },
            {
                "note": 40,
                "velocity": 112,
                "time": 0,
                "total_time": 208.80050897598267
            },
            {
                "note": 44,
                "velocity": 96,
                "time": 0,
                "total_time": 208.94993782043457
            },
            {
                "note": 44,
                "velocity": 0,
                "time": 0.14874975208333333,
                "total_time": 209.09855389595032
            },
            {
                "note": 47,
                "velocity": 96,
                "time": 0.0012499979166666665,
                "total_time": 209.09982824325562
            },
            {
                "note": 47,
                "velocity": 0,
                "time": 0.14874975208333333,
                "total_time": 209.2485179901123
            },
            {
                "note": 51,
                "velocity": 96,
                "time": 0.0012499979166666665,
                "total_time": 209.24986052513123
            },
            {
                "note": 51,
                "velocity": 0,
                "time": 0.14874975208333333,
                "total_time": 209.39849877357483
            },
            {
                "note": 56,
                "velocity": 96,
                "time": 0.0012499979166666665,
                "total_time": 209.39972138404846
            },
            {
                "note": 56,
                "velocity": 0,
                "time": 0.14874975208333333,
                "total_time": 209.54854702949524
            },
            {
                "note": 59,
                "velocity": 96,
                "time": 0.0012499979166666665,
                "total_time": 209.54985976219177
            },
            {
                "note": 80,
                "velocity": 0,
                "time": 0.052499912499999996,
                "total_time": 209.60229468345642
            },
            {
                "note": 83,
                "velocity": 0,
                "time": 0,
                "total_time": 209.60247325897217
            },
            {
                "note": 87,
                "velocity": 0,
                "time": 0,
                "total_time": 209.60251474380493
            },
            {
                "note": 92,
                "velocity": 0,
                "time": 0,
                "total_time": 209.60254502296448
            },
            {
                "note": 59,
                "velocity": 0,
                "time": 0.09624983958333332,
                "total_time": 209.69855880737305
            },
            {
                "note": 63,
                "velocity": 96,
                "time": 0.0012499979166666665,
                "total_time": 209.69972157478333
            },
            {
                "note": 63,
                "velocity": 0,
                "time": 0.14874975208333333,
                "total_time": 209.84848165512085
            },
            {
                "note": 59,
                "velocity": 96,
                "time": 0.0012499979166666665,
                "total_time": 209.84972476959229
            },
            {
                "note": 59,
                "velocity": 0,
                "time": 0.14874975208333333,
                "total_time": 209.99850010871887
            },
            {
                "note": 83,
                "velocity": 112,
                "time": 0.0012499979166666665,
                "total_time": 209.99973678588867
            },
            {
                "note": 95,
                "velocity": 112,
                "time": 0,
                "total_time": 209.9999029636383
            },
            {
                "note": 68,
                "velocity": 96,
                "time": 0,
                "total_time": 209.99993801116943
            },
            {
                "note": 68,
                "velocity": 0,
                "time": 0.14874975208333333,
                "total_time": 210.14852595329285
            },
            {
                "note": 59,
                "velocity": 96,
                "time": 0.0012499979166666665,
                "total_time": 210.1498339176178
            },
            {
                "note": 83,
                "velocity": 0,
                "time": 0.14874975208333333,
                "total_time": 210.2985396385193
            },
            {
                "note": 95,
                "velocity": 0,
                "time": 0,
                "total_time": 210.2994191646576
            },
            {
                "note": 59,
                "velocity": 0,
                "time": 0,
                "total_time": 210.2995822429657
            },
            {
                "note": 82,
                "velocity": 112,
                "time": 0.0012499979166666665,
                "total_time": 210.29968643188477
            },
            {
                "note": 94,
                "velocity": 112,
                "time": 0,
                "total_time": 210.29984760284424
            },
            {
                "note": 63,
                "velocity": 96,
                "time": 0,
                "total_time": 210.2999725341797
            },
            {
                "note": 63,
                "velocity": 0,
                "time": 0.14874975208333333,
                "total_time": 210.44855213165283
            },
            {
                "note": 59,
                "velocity": 96,
                "time": 0.0012499979166666665,
                "total_time": 210.4497447013855
            },
            {
                "note": 82,
                "velocity": 0,
                "time": 0.14874975208333333,
                "total_time": 210.5985357761383
            },
            {
                "note": 94,
                "velocity": 0,
                "time": 0,
                "total_time": 210.59872269630432
            },
            {
                "note": 59,
                "velocity": 0,
                "time": 0,
                "total_time": 210.59875583648682
            },
            {
                "note": 80,
                "velocity": 112,
                "time": 0.0012499979166666665,
                "total_time": 210.59975266456604
            },
            {
                "note": 92,
                "velocity": 112,
                "time": 0,
                "total_time": 210.5998249053955
            },
            {
                "note": 56,
                "velocity": 96,
                "time": 0,
                "total_time": 210.59985256195068
            },
            {
                "note": 56,
                "velocity": 0,
                "time": 0.14874975208333333,
                "total_time": 210.74851751327515
            },
            {
                "note": 51,
                "velocity": 96,
                "time": 0.0012499979166666665,
                "total_time": 210.7497570514679
            },
            {
                "note": 80,
                "velocity": 0,
                "time": 0.14874975208333333,
                "total_time": 210.89858865737915
            },
            {
                "note": 92,
                "velocity": 0,
                "time": 0,
                "total_time": 210.89903283119202
            },
            {
                "note": 51,
                "velocity": 0,
                "time": 0,
                "total_time": 210.8990993499756
            },
            {
                "note": 76,
                "velocity": 112,
                "time": 0.0012499979166666665,
                "total_time": 210.89972162246704
            },
            {
                "note": 88,
                "velocity": 112,
                "time": 0,
                "total_time": 210.89982986450195
            },
            {
                "note": 47,
                "velocity": 96,
                "time": 0,
                "total_time": 210.89987587928772
            },
            {
                "note": 47,
                "velocity": 0,
                "time": 0.14874975208333333,
                "total_time": 211.04853296279907
            },
            {
                "note": 44,
                "velocity": 96,
                "time": 0.0012499979166666665,
                "total_time": 211.04973530769348
            },
            {
                "note": 76,
                "velocity": 0,
                "time": 0.13374977708333333,
                "total_time": 211.1834967136383
            },
            {
                "note": 88,
                "velocity": 0,
                "time": 0,
                "total_time": 211.18369221687317
            },
            {
                "note": 44,
                "velocity": 0,
                "time": 0.007499987499999999,
                "total_time": 211.19102883338928
            },
            {
                "note": 40,
                "velocity": 0,
                "time": 0.007499987499999999,
                "total_time": 211.2001347541809
            },
            {
                "note": 75,
                "velocity": 127,
                "time": 0.0012499979166666665,
                "total_time": 211.2005650997162
            },
            {
                "note": 78,
                "velocity": 127,
                "time": 0,
                "total_time": 211.2007873058319
            },
            {
                "note": 87,
                "velocity": 127,
                "time": 0,
                "total_time": 211.20098233222961
            },
            {
                "note": 39,
                "velocity": 112,
                "time": 0,
                "total_time": 211.20114469528198
            },
            {
                "note": 42,
                "velocity": 96,
                "time": 0,
                "total_time": 211.34993481636047
            },
            {
                "note": 42,
                "velocity": 0,
                "time": 0.14874975208333333,
                "total_time": 211.49857687950134
            },
            {
                "note": 46,
                "velocity": 96,
                "time": 0.0012499979166666665,
                "total_time": 211.49974656105042
            },
            {
                "note": 75,
                "velocity": 0,
                "time": 0.09999983333333332,
                "total_time": 211.59985446929932
            },
            {
                "note": 78,
                "velocity": 0,
                "time": 0,
                "total_time": 211.59998774528503
            },
            {
                "note": 87,
                "velocity": 0,
                "time": 0,
                "total_time": 211.60000252723694
            },
            {
                "note": 46,
                "velocity": 0,
                "time": 0.048749918749999996,
                "total_time": 211.64854526519775
            },
            {
                "note": 51,
                "velocity": 96,
                "time": 0.0012499979166666665,
                "total_time": 211.64973258972168
            },
            {
                "note": 51,
                "velocity": 0,
                "time": 0.14874975208333333,
                "total_time": 211.79852318763733
            },
            {
                "note": 75,
                "velocity": 112,
                "time": 0.0012499979166666665,
                "total_time": 211.79973530769348
            },
            {
                "note": 82,
                "velocity": 112,
                "time": 0,
                "total_time": 211.79988431930542
            },
            {
                "note": 87,
                "velocity": 112,
                "time": 0,
                "total_time": 211.79994559288025
            },
            {
                "note": 54,
                "velocity": 96,
                "time": 0,
                "total_time": 211.79999661445618
            },
            {
                "note": 54,
                "velocity": 0,
                "time": 0.14874975208333333,
                "total_time": 211.94849848747253
            },
            {
                "note": 58,
                "velocity": 96,
                "time": 0.0012499979166666665,
                "total_time": 211.94973945617676
            },
            {
                "note": 58,
                "velocity": 0,
                "time": 0.14874975208333333,
                "total_time": 212.09850597381592
            },
            {
                "note": 54,
                "velocity": 96,
                "time": 0.0012499979166666665,
                "total_time": 212.09974002838135
            },
            {
                "note": 75,
                "velocity": 0,
                "time": 0.14874975208333333,
                "total_time": 212.2485158443451
            },
            {
                "note": 82,
                "velocity": 0,
                "time": 0,
                "total_time": 212.24876976013184
            },
            {
                "note": 87,
                "velocity": 0,
                "time": 0,
                "total_time": 212.24887108802795
            },
            {
                "note": 54,
                "velocity": 0,
                "time": 0,
                "total_time": 212.24891829490662
            },
            {
                "note": 77,
                "velocity": 112,
                "time": 0.0012499979166666665,
                "total_time": 212.24973559379578
            },
            {
                "note": 89,
                "velocity": 112,
                "time": 0,
                "total_time": 212.2498369216919
            },
            {
                "note": 63,
                "velocity": 96,
                "time": 0,
                "total_time": 212.24989366531372
            },
            {
                "note": 77,
                "velocity": 0,
                "time": 0.14124976458333333,
                "total_time": 212.39099025726318
            },
            {
                "note": 89,
                "velocity": 0,
                "time": 0,
                "total_time": 212.39115238189697
            },
            {
                "note": 63,
                "velocity": 0,
                "time": 0.007499987499999999,
                "total_time": 212.39887309074402
            },
            {
                "note": 78,
                "velocity": 112,
                "time": 0.0012499979166666665,
                "total_time": 212.39986729621887
            },
            {
                "note": 87,
                "velocity": 112,
                "time": 0,
                "total_time": 212.40014386177063
            },
            {
                "note": 90,
                "velocity": 112,
                "time": 0,
                "total_time": 212.40030670166016
            },
            {
                "note": 54,
                "velocity": 96,
                "time": 0,
                "total_time": 212.40038108825684
            },
            {
                "note": 54,
                "velocity": 0,
                "time": 0.14874975208333333,
                "total_time": 212.54852890968323
            },
            {
                "note": 63,
                "velocity": 96,
                "time": 0.0012499979166666665,
                "total_time": 212.5497510433197
            },
            {
                "note": 63,
                "velocity": 0,
                "time": 0.14874975208333333,
                "total_time": 212.69849276542664
            },
            {
                "note": 54,
                "velocity": 96,
                "time": 0.0012499979166666665,
                "total_time": 212.69971013069153
            },
            {
                "note": 54,
                "velocity": 0,
                "time": 0.14874975208333333,
                "total_time": 212.84852123260498
            },
            {
                "note": 58,
                "velocity": 96,
                "time": 0.0012499979166666665,
                "total_time": 212.84974718093872
            },
            {
                "note": 78,
                "velocity": 0,
                "time": 0.14874975208333333,
                "total_time": 212.99849772453308
            },
            {
                "note": 87,
                "velocity": 0,
                "time": 0,
                "total_time": 212.9986560344696
            },
            {
                "note": 90,
                "velocity": 0,
                "time": 0,
                "total_time": 212.9987165927887
            },
            {
                "note": 58,
                "velocity": 0,
                "time": 0,
                "total_time": 212.99876856803894
            },
            {
                "note": 92,
                "velocity": 112,
                "time": 0.0012499979166666665,
                "total_time": 212.9997215270996
            },
            {
                "note": 54,
                "velocity": 96,
                "time": 0,
                "total_time": 212.99986124038696
            },
            {
                "note": 92,
                "velocity": 0,
                "time": 0.062499895833333326,
                "total_time": 213.06226301193237
            },
            {
                "note": 82,
                "velocity": 112,
                "time": 0.0012499979166666665,
                "total_time": 213.06357502937317
            },
            {
                "note": 94,
                "velocity": 112,
                "time": 0,
                "total_time": 213.06391620635986
            },
            {
                "note": 54,
                "velocity": 0,
                "time": 0.08499985833333332,
                "total_time": 213.14853930473328
            },
            {
                "note": 51,
                "velocity": 96,
                "time": 0.0012499979166666665,
                "total_time": 213.1497528553009
            },
            {
                "note": 51,
                "velocity": 0,
                "time": 0.14874975208333333,
                "total_time": 213.2986831665039
            },
            {
                "note": 46,
                "velocity": 96,
                "time": 0.0012499979166666665,
                "total_time": 213.29977536201477
            },
            {
                "note": 46,
                "velocity": 0,
                "time": 0.14874975208333333,
                "total_time": 213.44850039482117
            },
            {
                "note": 42,
                "velocity": 96,
                "time": 0.0012499979166666665,
                "total_time": 213.4497344493866
            },
            {
                "note": 82,
                "velocity": 0,
                "time": 0.11999979999999999,
                "total_time": 213.56975841522217
            },
            {
                "note": 94,
                "velocity": 0,
                "time": 0,
                "total_time": 213.56997394561768
            },
            {
                "note": 42,
                "velocity": 0,
                "time": 0.02124996458333333,
                "total_time": 213.59097027778625
            },
            {
                "note": 39,
                "velocity": 0,
                "time": 0.007499987499999999,
                "total_time": 213.59879112243652
            },
            {
                "note": 80,
                "velocity": 127,
                "time": 0.0012499979166666665,
                "total_time": 213.59991669654846
            },
            {
                "note": 85,
                "velocity": 127,
                "time": 0,
                "total_time": 213.6002082824707
            },
            {
                "note": 89,
                "velocity": 127,
                "time": 0,
                "total_time": 213.60030889511108
            },
            {
                "note": 92,
                "velocity": 127,
                "time": 0,
                "total_time": 213.60038828849792
            },
            {
                "note": 34,
                "velocity": 112,
                "time": 0,
                "total_time": 213.6004798412323
            },
            {
                "note": 37,
                "velocity": 96,
                "time": 0,
                "total_time": 213.74979186058044
            },
            {
                "note": 37,
                "velocity": 0,
                "time": 0.14874975208333333,
                "total_time": 213.8986234664917
            },
            {
                "note": 41,
                "velocity": 96,
                "time": 0.0012499979166666665,
                "total_time": 213.89982295036316
            },
            {
                "note": 41,
                "velocity": 0,
                "time": 0.14874975208333333,
                "total_time": 214.04851984977722
            },
            {
                "note": 44,
                "velocity": 96,
                "time": 0.0012499979166666665,
                "total_time": 214.04972195625305
            },
            {
                "note": 44,
                "velocity": 0,
                "time": 0.14874975208333333,
                "total_time": 214.19850540161133
            },
            {
                "note": 49,
                "velocity": 96,
                "time": 0.0012499979166666665,
                "total_time": 214.19973349571228
            },
            {
                "note": 80,
                "velocity": 0,
                "time": 0.10124983124999999,
                "total_time": 214.3010950088501
            },
            {
                "note": 85,
                "velocity": 0,
                "time": 0,
                "total_time": 214.30130195617676
            },
            {
                "note": 89,
                "velocity": 0,
                "time": 0,
                "total_time": 214.3013677597046
            },
            {
                "note": 92,
                "velocity": 0,
                "time": 0,
                "total_time": 214.3014166355133
            },
            {
                "note": 49,
                "velocity": 0,
                "time": 0.04749992083333333,
                "total_time": 214.34852504730225
            },
            {
                "note": 53,
                "velocity": 96,
                "time": 0.0012499979166666665,
                "total_time": 214.3497223854065
            },
            {
                "note": 53,
                "velocity": 0,
                "time": 0.14874975208333333,
                "total_time": 214.49851036071777
            },
            {
                "note": 56,
                "velocity": 96,
                "time": 0.0012499979166666665,
                "total_time": 214.49986171722412
            },
            {
                "note": 56,
                "velocity": 0,
                "time": 0.14874975208333333,
                "total_time": 214.64849138259888
            },
            {
                "note": 90,
                "velocity": 112,
                "time": 0.0012499979166666665,
                "total_time": 214.64973068237305
            },
            {
                "note": 53,
                "velocity": 96,
                "time": 0,
                "total_time": 214.6497712135315
            },
            {
                "note": 90,
                "velocity": 0,
                "time": 0.07374987708333332,
                "total_time": 214.72346830368042
            },
            {
                "note": 89,
                "velocity": 112,
                "time": 0.0012499979166666665,
                "total_time": 214.72472286224365
            },
            {
                "note": 89,
                "velocity": 0,
                "time": 0.06999988333333332,
                "total_time": 214.7947165966034
            },
            {
                "note": 53,
                "velocity": 0,
                "time": 0.0037499937499999997,
                "total_time": 214.7984869480133
            },
            {
                "note": 73,
                "velocity": 112,
                "time": 0.0012499979166666665,
                "total_time": 214.7997007369995
            },
            {
                "note": 85,
                "velocity": 112,
                "time": 0,
                "total_time": 214.79972434043884
            },
            {
                "note": 61,
                "velocity": 96,
                "time": 0,
                "total_time": 214.79973816871643
            },
            {
                "note": 61,
                "velocity": 0,
                "time": 0.14874975208333333,
                "total_time": 214.94847416877747
            },
            {
                "note": 53,
                "velocity": 96,
                "time": 0.0012499979166666665,
                "total_time": 214.94972848892212
            },
            {
                "note": 53,
                "velocity": 0,
                "time": 0.14874975208333333,
                "total_time": 215.0984706878662
            },
            {
                "note": 56,
                "velocity": 96,
                "time": 0.0012499979166666665,
                "total_time": 215.09972429275513
            },
            {
                "note": 56,
                "velocity": 0,
                "time": 0.14874975208333333,
                "total_time": 215.24849843978882
            },
            {
                "note": 53,
                "velocity": 96,
                "time": 0.0012499979166666665,
                "total_time": 215.24973058700562
            },
            {
                "note": 73,
                "velocity": 0,
                "time": 0.14874975208333333,
                "total_time": 215.39851784706116
            },
            {
                "note": 85,
                "velocity": 0,
                "time": 0,
                "total_time": 215.39899802207947
            },
            {
                "note": 53,
                "velocity": 0,
                "time": 0,
                "total_time": 215.3992235660553
            },
            {
                "note": 70,
                "velocity": 112,
                "time": 0.0012499979166666665,
                "total_time": 215.39967918395996
            },
            {
                "note": 82,
                "velocity": 112,
                "time": 0,
                "total_time": 215.39996433258057
            },
            {
                "note": 49,
                "velocity": 96,
                "time": 0,
                "total_time": 215.40007901191711
            },
            {
                "note": 49,
                "velocity": 0,
                "time": 0.14874975208333333,
                "total_time": 215.5485134124756
            },
            {
                "note": 44,
                "velocity": 96,
                "time": 0.0012499979166666665,
                "total_time": 215.5497705936432
            },
            {
                "note": 70,
                "velocity": 0,
                "time": 0.14874975208333333,
                "total_time": 215.69849348068237
            },
            {
                "note": 82,
                "velocity": 0,
                "time": 0,
                "total_time": 215.69871997833252
            },
            {
                "note": 44,
                "velocity": 0,
                "time": 0,
                "total_time": 215.69876766204834
            },
            {
                "note": 73,
                "velocity": 112,
                "time": 0.0012499979166666665,
                "total_time": 215.69975090026855
            },
            {
                "note": 85,
                "velocity": 112,
                "time": 0,
                "total_time": 215.70001602172852
            },
            {
                "note": 41,
                "velocity": 96,
                "time": 0,
                "total_time": 215.7000572681427
            },
            {
                "note": 41,
                "velocity": 0,
                "time": 0.14874975208333333,
                "total_time": 215.84849190711975
            },
            {
                "note": 37,
                "velocity": 96,
                "time": 0.0012499979166666665,
                "total_time": 215.84970808029175
            },
            {
                "note": 73,
                "velocity": 0,
                "time": 0.13374977708333333,
                "total_time": 215.98351907730103
            },
            {
                "note": 85,
                "velocity": 0,
                "time": 0,
                "total_time": 215.98359990119934
            },
            {
                "note": 37,
                "velocity": 0,
                "time": 0.007499987499999999,
                "total_time": 215.99096775054932
            },
            {
                "note": 34,
                "velocity": 0,
                "time": 0.007499987499999999,
                "total_time": 215.99850845336914
            },
            {
                "note": 75,
                "velocity": 127,
                "time": 0.0012499979166666665,
                "total_time": 215.99971222877502
            },
            {
                "note": 87,
                "velocity": 127,
                "time": 0,
                "total_time": 215.99979043006897
            },
            {
                "note": 29,
                "velocity": 112,
                "time": 0,
                "total_time": 215.99983739852905
            },
            {
                "note": 36,
                "velocity": 96,
                "time": 0,
                "total_time": 216.1498441696167
            },
            {
                "note": 36,
                "velocity": 0,
                "time": 0.14874975208333333,
                "total_time": 216.298565864563
            },
            {
                "note": 39,
                "velocity": 96,
                "time": 0.0012499979166666665,
                "total_time": 216.29977464675903
            },
            {
                "note": 39,
                "velocity": 0,
                "time": 0.14874975208333333,
                "total_time": 216.44851994514465
            },
            {
                "note": 43,
                "velocity": 96,
                "time": 0.0012499979166666665,
                "total_time": 216.4497308731079
            },
            {
                "note": 75,
                "velocity": 0,
                "time": 0.09999983333333332,
                "total_time": 216.54973936080933
            },
            {
                "note": 87,
                "velocity": 0,
                "time": 0,
                "total_time": 216.54994583129883
            },
            {
                "note": 43,
                "velocity": 0,
                "time": 0.048749918749999996,
                "total_time": 216.5985369682312
            },
            {
                "note": 48,
                "velocity": 96,
                "time": 0,
                "total_time": 216.59996604919434
            },
            {
                "note": 48,
                "velocity": 0,
                "time": 0.14874975208333333,
                "total_time": 216.74850034713745
            },
            {
                "note": 85,
                "velocity": 112,
                "time": 0.0012499979166666665,
                "total_time": 216.74970817565918
            },
            {
                "note": 51,
                "velocity": 96,
                "time": 0,
                "total_time": 216.7497775554657
            },
            {
                "note": 85,
                "velocity": 0,
                "time": 0.14874975208333333,
                "total_time": 216.89850091934204
            },
            {
                "note": 51,
                "velocity": 0,
                "time": 0,
                "total_time": 216.8985891342163
            },
            {
                "note": 84,
                "velocity": 112,
                "time": 0.0012499979166666665,
                "total_time": 216.89974069595337
            },
            {
                "note": 55,
                "velocity": 96,
                "time": 0,
                "total_time": 216.89981055259705
            },
            {
                "note": 84,
                "velocity": 0,
                "time": 0.14874975208333333,
                "total_time": 217.04851269721985
            },
            {
                "note": 55,
                "velocity": 0,
                "time": 0,
                "total_time": 217.04886269569397
            },
            {
                "note": 75,
                "velocity": 112,
                "time": 0.0012499979166666665,
                "total_time": 217.0497226715088
            },
            {
                "note": 51,
                "velocity": 96,
                "time": 0,
                "total_time": 217.04988765716553
            },
            {
                "note": 75,
                "velocity": 0,
                "time": 0.14124976458333333,
                "total_time": 217.19100499153137
            },
            {
                "note": 51,
                "velocity": 0,
                "time": 0.007499987499999999,
                "total_time": 217.19872379302979
            },
            {
                "note": 80,
                "velocity": 112,
                "time": 0.0012499979166666665,
                "total_time": 217.19977688789368
            },
            {
                "note": 60,
                "velocity": 96,
                "time": 0,
                "total_time": 217.20049691200256
            },
            {
                "note": 80,
                "velocity": 0,
                "time": 0.062499895833333326,
                "total_time": 217.26224303245544
            },
            {
                "note": 70,
                "velocity": 112,
                "time": 0.0012499979166666665,
                "total_time": 217.26347470283508
            },
            {
                "note": 82,
                "velocity": 112,
                "time": 0,
                "total_time": 217.26358222961426
            },
            {
                "note": 60,
                "velocity": 0,
                "time": 0.08499985833333332,
                "total_time": 217.34856724739075
            },
            {
                "note": 51,
                "velocity": 96,
                "time": 0.0012499979166666665,
                "total_time": 217.3497350215912
            },
            {
                "note": 51,
                "velocity": 0,
                "time": 0.14874975208333333,
                "total_time": 217.49854183197021
            },
            {
                "note": 55,
                "velocity": 96,
                "time": 0.0012499979166666665,
                "total_time": 217.4998655319214
            },
            {
                "note": 55,
                "velocity": 0,
                "time": 0.14874975208333333,
                "total_time": 217.64849591255188
            },
            {
                "note": 51,
                "velocity": 96,
                "time": 0.0012499979166666665,
                "total_time": 217.64972138404846
            },
            {
                "note": 70,
                "velocity": 0,
                "time": 0.14749975416666664,
                "total_time": 217.79723620414734
            },
            {
                "note": 82,
                "velocity": 0,
                "time": 0,
                "total_time": 217.79742288589478
            },
            {
                "note": 51,
                "velocity": 0,
                "time": 0.0012499979166666665,
                "total_time": 217.798485994339
            },
            {
                "note": 68,
                "velocity": 112,
                "time": 0.0012499979166666665,
                "total_time": 217.79973435401917
            },
            {
                "note": 80,
                "velocity": 112,
                "time": 0,
                "total_time": 217.79989743232727
            },
            {
                "note": 48,
                "velocity": 96,
                "time": 0,
                "total_time": 217.79992723464966
            },
            {
                "note": 48,
                "velocity": 0,
                "time": 0.14874975208333333,
                "total_time": 217.9485321044922
            },
            {
                "note": 43,
                "velocity": 96,
                "time": 0.0012499979166666665,
                "total_time": 217.94975590705872
            },
            {
                "note": 43,
                "velocity": 0,
                "time": 0.14874975208333333,
                "total_time": 218.09852743148804
            },
            {
                "note": 39,
                "velocity": 96,
                "time": 0.0012499979166666665,
                "total_time": 218.09983229637146
            },
            {
                "note": 39,
                "velocity": 0,
                "time": 0.14874975208333333,
                "total_time": 218.24853682518005
            },
            {
                "note": 43,
                "velocity": 96,
                "time": 0.0012499979166666665,
                "total_time": 218.24973440170288
            },
            {
                "note": 68,
                "velocity": 0,
                "time": 0.11874980208333331,
                "total_time": 218.3685073852539
            },
            {
                "note": 80,
                "velocity": 0,
                "time": 0,
                "total_time": 218.3687400817871
            },
            {
                "note": 43,
                "velocity": 0,
                "time": 0.022499962499999998,
                "total_time": 218.39101433753967
            },
            {
                "note": 29,
                "velocity": 0,
                "time": 0.007499987499999999,
                "total_time": 218.39850878715515
            },
            {
                "note": 82,
                "velocity": 127,
                "time": 0.0012499979166666665,
                "total_time": 218.39978551864624
            },
            {
                "note": 40,
                "velocity": 112,
                "time": 0,
                "total_time": 218.40008091926575
            },
            {
                "note": 82,
                "velocity": 0,
                "time": 0.059999899999999995,
                "total_time": 218.46226143836975
            },
            {
                "note": 71,
                "velocity": 127,
                "time": 0.0012499979166666665,
                "total_time": 218.46353268623352
            },
            {
                "note": 83,
                "velocity": 127,
                "time": 0,
                "total_time": 218.4639835357666
            },
            {
                "note": 44,
                "velocity": 96,
                "time": 0,
                "total_time": 218.55006051063538
            },
            {
                "note": 44,
                "velocity": 0,
                "time": 0.14874975208333333,
                "total_time": 218.6985125541687
            },
            {
                "note": 47,
                "velocity": 96,
                "time": 0.0012499979166666665,
                "total_time": 218.69972610473633
            },
            {
                "note": 71,
                "velocity": 0,
                "time": 0.11999979999999999,
                "total_time": 218.81975102424622
            },
            {
                "note": 83,
                "velocity": 0,
                "time": 0,
                "total_time": 218.81998229026794
            },
            {
                "note": 47,
                "velocity": 0,
                "time": 0.02874995208333333,
                "total_time": 218.84866380691528
            },
            {
                "note": 51,
                "velocity": 96,
                "time": 0.0012499979166666665,
                "total_time": 218.84977340698242
            },
            {
                "note": 51,
                "velocity": 0,
                "time": 0.14874975208333333,
                "total_time": 218.9984850883484
            },
            {
                "note": 70,
                "velocity": 112,
                "time": 0.0012499979166666665,
                "total_time": 218.9997067451477
            },
            {
                "note": 82,
                "velocity": 112,
                "time": 0,
                "total_time": 218.9997901916504
            },
            {
                "note": 56,
                "velocity": 96,
                "time": 0,
                "total_time": 218.99983096122742
            },
            {
                "note": 56,
                "velocity": 0,
                "time": 0.14874975208333333,
                "total_time": 219.1485013961792
            },
            {
                "note": 59,
                "velocity": 96,
                "time": 0.0012499979166666665,
                "total_time": 219.1497461795807
            },
            {
                "note": 59,
                "velocity": 0,
                "time": 0.14874975208333333,
                "total_time": 219.2984974384308
            },
            {
                "note": 56,
                "velocity": 96,
                "time": 0.0012499979166666665,
                "total_time": 219.299724817276
            },
            {
                "note": 56,
                "velocity": 0,
                "time": 0.14874975208333333,
                "total_time": 219.44851922988892
            },
            {
                "note": 63,
                "velocity": 96,
                "time": 0.0012499979166666665,
                "total_time": 219.44976568222046
            },
            {
                "note": 70,
                "velocity": 0,
                "time": 0.11874980208333331,
                "total_time": 219.56849575042725
            },
            {
                "note": 82,
                "velocity": 0,
                "time": 0,
                "total_time": 219.56868624687195
            },
            {
                "note": 63,
                "velocity": 0,
                "time": 0.029999949999999997,
                "total_time": 219.5985345840454
            },
            {
                "note": 68,
                "velocity": 112,
                "time": 0.0012499979166666665,
                "total_time": 219.5997486114502
            },
            {
                "note": 80,
                "velocity": 112,
                "time": 0,
                "total_time": 219.60009217262268
            },
            {
                "note": 56,
                "velocity": 96,
                "time": 0,
                "total_time": 219.60017490386963
            },
            {
                "note": 56,
                "velocity": 0,
                "time": 0.14874975208333333,
                "total_time": 219.74853587150574
            },
            {
                "note": 63,
                "velocity": 96,
                "time": 0.0012499979166666665,
                "total_time": 219.74978852272034
            },
            {
                "note": 63,
                "velocity": 0,
                "time": 0.14874975208333333,
                "total_time": 219.8984968662262
            },
            {
                "note": 56,
                "velocity": 96,
                "time": 0.0012499979166666665,
                "total_time": 219.8996922969818
            },
            {
                "note": 56,
                "velocity": 0,
                "time": 0.14874975208333333,
                "total_time": 220.04846262931824
            },
            {
                "note": 59,
                "velocity": 96,
                "time": 0.0012499979166666665,
                "total_time": 220.04969954490662
            },
            {
                "note": 68,
                "velocity": 0,
                "time": 0.11874980208333331,
                "total_time": 220.1684799194336
            },
            {
                "note": 80,
                "velocity": 0,
                "time": 0,
                "total_time": 220.1686658859253
            },
            {
                "note": 59,
                "velocity": 0,
                "time": 0.029999949999999997,
                "total_time": 220.19850945472717
            },
            {
                "note": 73,
                "velocity": 112,
                "time": 0.0012499979166666665,
                "total_time": 220.19971776008606
            },
            {
                "note": 85,
                "velocity": 112,
                "time": 0,
                "total_time": 220.19990015029907
            },
            {
                "note": 56,
                "velocity": 96,
                "time": 0,
                "total_time": 220.1999535560608
            },
            {
                "note": 56,
                "velocity": 0,
                "time": 0.14874975208333333,
                "total_time": 220.34850883483887
            },
            {
                "note": 51,
                "velocity": 96,
                "time": 0.0012499979166666665,
                "total_time": 220.34970879554749
            },
            {
                "note": 51,
                "velocity": 0,
                "time": 0.14874975208333333,
                "total_time": 220.49845838546753
            },
            {
                "note": 47,
                "velocity": 96,
                "time": 0.0012499979166666665,
                "total_time": 220.49969291687012
            },
            {
                "note": 47,
                "velocity": 0,
                "time": 0.14874975208333333,
                "total_time": 220.64853143692017
            },
            {
                "note": 44,
                "velocity": 96,
                "time": 0.0012499979166666665,
                "total_time": 220.6497130393982
            },
            {
                "note": 73,
                "velocity": 0,
                "time": 0.11874980208333331,
                "total_time": 220.76851511001587
            },
            {
                "note": 85,
                "velocity": 0,
                "time": 0,
                "total_time": 220.7687873840332
            },
            {
                "note": 44,
                "velocity": 0,
                "time": 0.022499962499999998,
                "total_time": 220.79097652435303
            },
            {
                "note": 40,
                "velocity": 0,
                "time": 0.007499987499999999,
                "total_time": 220.79853558540344
            },
            {
                "note": 75,
                "velocity": 127,
                "time": 0.0012499979166666665,
                "total_time": 220.79976630210876
            },
            {
                "note": 78,
                "velocity": 127,
                "time": 0,
                "total_time": 220.80012559890747
            },
            {
                "note": 87,
                "velocity": 127,
                "time": 0,
                "total_time": 220.8002519607544
            },
            {
                "note": 39,
                "velocity": 112,
                "time": 0,
                "total_time": 220.800372838974
            },
            {
                "note": 42,
                "velocity": 96,
                "time": 0,
                "total_time": 220.94992780685425
            },
            {
                "note": 75,
                "velocity": 0,
                "time": 0.048749918749999996,
                "total_time": 220.99845504760742
            },
            {
                "note": 78,
                "velocity": 0,
                "time": 0,
                "total_time": 220.99858474731445
            },
            {
                "note": 87,
                "velocity": 0,
                "time": 0,
                "total_time": 220.99862957000732
            },
            {
                "note": 42,
                "velocity": 0,
                "time": 0.09999983333333332,
                "total_time": 221.0984926223755
            },
            {
                "note": 70,
                "velocity": 112,
                "time": 0.0012499979166666665,
                "total_time": 221.09970808029175
            },
            {
                "note": 78,
                "velocity": 112,
                "time": 0,
                "total_time": 221.09980750083923
            },
            {
                "note": 82,
                "velocity": 112,
                "time": 0,
                "total_time": 221.0998387336731
            },
            {
                "note": 46,
                "velocity": 96,
                "time": 0,
                "total_time": 221.09986519813538
            },
            {
                "note": 46,
                "velocity": 0,
                "time": 0.14874975208333333,
                "total_time": 221.24850511550903
            },
            {
                "note": 51,
                "velocity": 96,
                "time": 0.0012499979166666665,
                "total_time": 221.24970245361328
            },
            {
                "note": 70,
                "velocity": 0,
                "time": 0.14874975208333333,
                "total_time": 221.39850783348083
            },
            {
                "note": 78,
                "velocity": 0,
                "time": 0,
                "total_time": 221.39874291419983
            },
            {
                "note": 82,
                "velocity": 0,
                "time": 0,
                "total_time": 221.3988697528839
            },
            {
                "note": 51,
                "velocity": 0,
                "time": 0,
                "total_time": 221.39894104003906
            },
            {
                "note": 75,
                "velocity": 112,
                "time": 0.0012499979166666665,
                "total_time": 221.39972472190857
            },
            {
                "note": 82,
                "velocity": 112,
                "time": 0,
                "total_time": 221.399973154068
            },
            {
                "note": 87,
                "velocity": 112,
                "time": 0,
                "total_time": 221.40004992485046
            },
            {
                "note": 54,
                "velocity": 96,
                "time": 0,
                "total_time": 221.40011382102966
            },
            {
                "note": 54,
                "velocity": 0,
                "time": 0.14874975208333333,
                "total_time": 221.54852271080017
            },
            {
                "note": 58,
                "velocity": 96,
                "time": 0.0012499979166666665,
                "total_time": 221.54993891716003
            },
            {
                "note": 75,
                "velocity": 0,
                "time": 0.14874975208333333,
                "total_time": 221.69850206375122
            },
            {
                "note": 82,
                "velocity": 0,
                "time": 0,
                "total_time": 221.69874548912048
            },
            {
                "note": 87,
                "velocity": 0,
                "time": 0,
                "total_time": 221.6988980770111
            },
            {
                "note": 58,
                "velocity": 0,
                "time": 0,
                "total_time": 221.69897365570068
            },
            {
                "note": 77,
                "velocity": 112,
                "time": 0.0012499979166666665,
                "total_time": 221.69973015785217
            },
            {
                "note": 82,
                "velocity": 112,
                "time": 0,
                "total_time": 221.69993925094604
            },
            {
                "note": 87,
                "velocity": 112,
                "time": 0,
                "total_time": 221.70001101493835
            },
            {
                "note": 89,
                "velocity": 112,
                "time": 0,
                "total_time": 221.7000720500946
            },
            {
                "note": 63,
                "velocity": 96,
                "time": 0,
                "total_time": 221.700129032135
            },
            {
                "note": 63,
                "velocity": 0,
                "time": 0.14874975208333333,
                "total_time": 221.8485143184662
            },
            {
                "note": 58,
                "velocity": 96,
                "time": 0.0012499979166666665,
                "total_time": 221.8497486114502
            },
            {
                "note": 77,
                "velocity": 0,
                "time": 0.14874975208333333,
                "total_time": 221.99850392341614
            },
            {
                "note": 82,
                "velocity": 0,
                "time": 0,
                "total_time": 221.9987277984619
            },
            {
                "note": 87,
                "velocity": 0,
                "time": 0,
                "total_time": 221.99876499176025
            },
            {
                "note": 89,
                "velocity": 0,
                "time": 0,
                "total_time": 221.99878859519958
            },
            {
                "note": 58,
                "velocity": 0,
                "time": 0,
                "total_time": 221.99883198738098
            },
            {
                "note": 78,
                "velocity": 112,
                "time": 0.0012499979166666665,
                "total_time": 221.99969840049744
            },
            {
                "note": 82,
                "velocity": 112,
                "time": 0,
                "total_time": 221.99976086616516
            },
            {
                "note": 90,
                "velocity": 112,
                "time": 0,
                "total_time": 221.99978232383728
            },
            {
                "note": 66,
                "velocity": 96,
                "time": 0,
                "total_time": 221.99981689453125
            },
            {
                "note": 66,
                "velocity": 0,
                "time": 0.14874975208333333,
                "total_time": 222.14850878715515
            },
            {
                "note": 58,
                "velocity": 96,
                "time": 0.0012499979166666665,
                "total_time": 222.14970183372498
            },
            {
                "note": 78,
                "velocity": 0,
                "time": 0.14874975208333333,
                "total_time": 222.2984902858734
            },
            {
                "note": 82,
                "velocity": 0,
                "time": 0,
                "total_time": 222.29872727394104
            },
            {
                "note": 90,
                "velocity": 0,
                "time": 0,
                "total_time": 222.2988498210907
            },
            {
                "note": 58,
                "velocity": 0,
                "time": 0,
                "total_time": 222.29892301559448
            },
            {
                "note": 80,
                "velocity": 112,
                "time": 0.0012499979166666665,
                "total_time": 222.2997064590454
            },
            {
                "note": 82,
                "velocity": 112,
                "time": 0,
                "total_time": 222.2998502254486
            },
            {
                "note": 87,
                "velocity": 112,
                "time": 0,
                "total_time": 222.29991173744202
            },
            {
                "note": 92,
                "velocity": 112,
                "time": 0,
                "total_time": 222.29996800422668
            },
            {
                "note": 63,
                "velocity": 96,
                "time": 0,
                "total_time": 222.30002355575562
            },
            {
                "note": 63,
                "velocity": 0,
                "time": 0.14874975208333333,
                "total_time": 222.44857692718506
            },
            {
                "note": 58,
                "velocity": 96,
                "time": 0.0012499979166666665,
                "total_time": 222.44973301887512
            },
            {
                "note": 80,
                "velocity": 0,
                "time": 0.14874975208333333,
                "total_time": 222.5984833240509
            },
            {
                "note": 82,
                "velocity": 0,
                "time": 0,
                "total_time": 222.59865522384644
            },
            {
                "note": 87,
                "velocity": 0,
                "time": 0,
                "total_time": 222.59872961044312
            },
            {
                "note": 92,
                "velocity": 0,
                "time": 0,
                "total_time": 222.59878206253052
            },
            {
                "note": 58,
                "velocity": 0,
                "time": 0,
                "total_time": 222.5988564491272
            },
            {
                "note": 82,
                "velocity": 112,
                "time": 0.0012499979166666665,
                "total_time": 222.59972977638245
            },
            {
                "note": 87,
                "velocity": 112,
                "time": 0,
                "total_time": 222.59993839263916
            },
            {
                "note": 94,
                "velocity": 112,
                "time": 0,
                "total_time": 222.6000051498413
            },
            {
                "note": 54,
                "velocity": 96,
                "time": 0,
                "total_time": 222.60006523132324
            },
            {
                "note": 54,
                "velocity": 0,
                "time": 0.14874975208333333,
                "total_time": 222.74946522712708
            },
            {
                "note": 51,
                "velocity": 96,
                "time": 0.0012499979166666665,
                "total_time": 222.74987769126892
            },
            {
                "note": 82,
                "velocity": 0,
                "time": 0.14874975208333333,
                "total_time": 222.89848136901855
            },
            {
                "note": 87,
                "velocity": 0,
                "time": 0,
                "total_time": 222.89865064620972
            },
            {
                "note": 94,
                "velocity": 0,
                "time": 0,
                "total_time": 222.89872908592224
            },
            {
                "note": 51,
                "velocity": 0,
                "time": 0,
                "total_time": 222.89878797531128
            },
            {
                "note": 87,
                "velocity": 112,
                "time": 0.0012499979166666665,
                "total_time": 222.8997585773468
            },
            {
                "note": 90,
                "velocity": 112,
                "time": 0,
                "total_time": 222.90002727508545
            },
            {
                "note": 99,
                "velocity": 112,
                "time": 0,
                "total_time": 222.90008807182312
            },
            {
                "note": 46,
                "velocity": 96,
                "time": 0,
                "total_time": 222.900132894516
            },
            {
                "note": 46,
                "velocity": 0,
                "time": 0.14874975208333333,
                "total_time": 223.04846286773682
            },
            {
                "note": 42,
                "velocity": 96,
                "time": 0.0012499979166666665,
                "total_time": 223.04973125457764
            },
            {
                "note": 87,
                "velocity": 0,
                "time": 0.13374977708333333,
                "total_time": 223.18364572525024
            },
            {
                "note": 90,
                "velocity": 0,
                "time": 0,
                "total_time": 223.18403697013855
            },
            {
                "note": 99,
                "velocity": 0,
                "time": 0,
                "total_time": 223.18415808677673
            },
            {
                "note": 42,
                "velocity": 0,
                "time": 0.007499987499999999,
                "total_time": 223.19099974632263
            },
            {
                "note": 39,
                "velocity": 0,
                "time": 0.007499987499999999,
                "total_time": 223.1985640525818
            },
            {
                "note": 85,
                "velocity": 127,
                "time": 0.0012499979166666665,
                "total_time": 223.19971585273743
            },
            {
                "note": 89,
                "velocity": 127,
                "time": 0,
                "total_time": 223.19987273216248
            },
            {
                "note": 97,
                "velocity": 127,
                "time": 0,
                "total_time": 223.19991207122803
            },
            {
                "note": 34,
                "velocity": 112,
                "time": 0,
                "total_time": 223.1999592781067
            },
            {
                "note": 37,
                "velocity": 96,
                "time": 0,
                "total_time": 223.34982705116272
            },
            {
                "note": 37,
                "velocity": 0,
                "time": 0.14874975208333333,
                "total_time": 223.49858808517456
            },
            {
                "note": 41,
                "velocity": 96,
                "time": 0.0012499979166666665,
                "total_time": 223.4997169971466
            },
            {
                "note": 41,
                "velocity": 0,
                "time": 0.14874975208333333,
                "total_time": 223.64900374412537
            },
            {
                "note": 44,
                "velocity": 96,
                "time": 0.0012499979166666665,
                "total_time": 223.649760723114
            },
            {
                "note": 44,
                "velocity": 0,
                "time": 0.14874975208333333,
                "total_time": 223.798508644104
            },
            {
                "note": 49,
                "velocity": 96,
                "time": 0.0012499979166666665,
                "total_time": 223.79973030090332
            },
            {
                "note": 85,
                "velocity": 0,
                "time": 0.0012499979166666665,
                "total_time": 223.80096554756165
            },
            {
                "note": 89,
                "velocity": 0,
                "time": 0,
                "total_time": 223.80110263824463
            },
            {
                "note": 97,
                "velocity": 0,
                "time": 0,
                "total_time": 223.80117464065552
            },
            {
                "note": 49,
                "velocity": 0,
                "time": 0.14749975416666664,
                "total_time": 223.9484589099884
            },
            {
                "note": 53,
                "velocity": 96,
                "time": 0.0012499979166666665,
                "total_time": 223.94972777366638
            },
            {
                "note": 53,
                "velocity": 0,
                "time": 0.14874975208333333,
                "total_time": 224.09851717948914
            },
            {
                "note": 92,
                "velocity": 112,
                "time": 0.0012499979166666665,
                "total_time": 224.09973335266113
            },
            {
                "note": 56,
                "velocity": 96,
                "time": 0,
                "total_time": 224.0999813079834
            },
            {
                "note": 92,
                "velocity": 0,
                "time": 0.062499895833333326,
                "total_time": 224.16231083869934
            },
            {
                "note": 82,
                "velocity": 112,
                "time": 0.0012499979166666665,
                "total_time": 224.1635115146637
            },
            {
                "note": 94,
                "velocity": 112,
                "time": 0,
                "total_time": 224.16391158103943
            },
            {
                "note": 56,
                "velocity": 0,
                "time": 0.08499985833333332,
                "total_time": 224.2486493587494
            },
            {
                "note": 53,
                "velocity": 96,
                "time": 0.0012499979166666665,
                "total_time": 224.24986720085144
            },
            {
                "note": 82,
                "velocity": 0,
                "time": 0.134999775,
                "total_time": 224.38473796844482
            },
            {
                "note": 94,
                "velocity": 0,
                "time": 0,
                "total_time": 224.3850016593933
            },
            {
                "note": 53,
                "velocity": 0,
                "time": 0.013749977083333332,
                "total_time": 224.3985514640808
            },
            {
                "note": 80,
                "velocity": 112,
                "time": 0.0012499979166666665,
                "total_time": 224.39973330497742
            },
            {
                "note": 85,
                "velocity": 112,
                "time": 0,
                "total_time": 224.39998364448547
            },
            {
                "note": 92,
                "velocity": 112,
                "time": 0,
                "total_time": 224.40006709098816
            },
            {
                "note": 61,
                "velocity": 96,
                "time": 0,
                "total_time": 224.400137424469
            },
            {
                "note": 61,
                "velocity": 0,
                "time": 0.14874975208333333,
                "total_time": 224.54852056503296
            },
            {
                "note": 53,
                "velocity": 96,
                "time": 0.0012499979166666665,
                "total_time": 224.54978799819946
            },
            {
                "note": 53,
                "velocity": 0,
                "time": 0.14874975208333333,
                "total_time": 224.6985170841217
            },
            {
                "note": 56,
                "velocity": 96,
                "time": 0.0012499979166666665,
                "total_time": 224.69970512390137
            },
            {
                "note": 56,
                "velocity": 0,
                "time": 0.14874975208333333,
                "total_time": 224.8484923839569
            },
            {
                "note": 53,
                "velocity": 96,
                "time": 0.0012499979166666665,
                "total_time": 224.84970021247864
            },
            {
                "note": 80,
                "velocity": 0,
                "time": 0.14874975208333333,
                "total_time": 224.99847078323364
            },
            {
                "note": 85,
                "velocity": 0,
                "time": 0,
                "total_time": 224.99864315986633
            },
            {
                "note": 92,
                "velocity": 0,
                "time": 0,
                "total_time": 224.99869656562805
            },
            {
                "note": 53,
                "velocity": 0,
                "time": 0,
                "total_time": 224.9987382888794
            },
            {
                "note": 77,
                "velocity": 112,
                "time": 0.0012499979166666665,
                "total_time": 224.9997148513794
            },
            {
                "note": 80,
                "velocity": 112,
                "time": 0,
                "total_time": 224.99978280067444
            },
            {
                "note": 89,
                "velocity": 112,
                "time": 0,
                "total_time": 224.9998414516449
            },
            {
                "note": 49,
                "velocity": 96,
                "time": 0,
                "total_time": 224.9998779296875
            },
            {
                "note": 49,
                "velocity": 0,
                "time": 0.14874975208333333,
                "total_time": 225.14852452278137
            },
            {
                "note": 44,
                "velocity": 96,
                "time": 0.0012499979166666665,
                "total_time": 225.14973735809326
            },
            {
                "note": 77,
                "velocity": 0,
                "time": 0.14874975208333333,
                "total_time": 225.29849648475647
            },
            {
                "note": 80,
                "velocity": 0,
                "time": 0,
                "total_time": 225.29867315292358
            },
            {
                "note": 89,
                "velocity": 0,
                "time": 0,
                "total_time": 225.29870319366455
            },
            {
                "note": 44,
                "velocity": 0,
                "time": 0,
                "total_time": 225.29872584342957
            },
            {
                "note": 80,
                "velocity": 112,
                "time": 0.0012499979166666665,
                "total_time": 225.2997214794159
            },
            {
                "note": 89,
                "velocity": 112,
                "time": 0,
                "total_time": 225.29977250099182
            },
            {
                "note": 92,
                "velocity": 112,
                "time": 0,
                "total_time": 225.2997932434082
            },
            {
                "note": 41,
                "velocity": 96,
                "time": 0,
                "total_time": 225.2998321056366
            },
            {
                "note": 41,
                "velocity": 0,
                "time": 0.14874975208333333,
                "total_time": 225.44888973236084
            },
            {
                "note": 37,
                "velocity": 96,
                "time": 0.0012499979166666665,
                "total_time": 225.44986295700073
            },
            {
                "note": 80,
                "velocity": 0,
                "time": 0.13374977708333333,
                "total_time": 225.5834596157074
            },
            {
                "note": 89,
                "velocity": 0,
                "time": 0,
                "total_time": 225.5835645198822
            },
            {
                "note": 92,
                "velocity": 0,
                "time": 0,
                "total_time": 225.58359670639038
            },
            {
                "note": 37,
                "velocity": 0,
                "time": 0.007499987499999999,
                "total_time": 225.59095978736877
            },
            {
                "note": 34,
                "velocity": 0,
                "time": 0.007499987499999999,
                "total_time": 225.59845519065857
            },
            {
                "note": 91,
                "velocity": 112,
                "time": 0.0012499979166666665,
                "total_time": 225.59969544410706
            },
            {
                "note": 29,
                "velocity": 112,
                "time": 0,
                "total_time": 225.59979510307312
            },
            {
                "note": 91,
                "velocity": 0,
                "time": 0.14624975624999997,
                "total_time": 225.74845337867737
            },
            {
                "note": 92,
                "velocity": 112,
                "time": 0.0012499979166666665,
                "total_time": 225.74969267845154
            },
            {
                "note": 36,
                "velocity": 96,
                "time": 0,
                "total_time": 225.74982166290283
            },
            {
                "note": 92,
                "velocity": 0,
                "time": 0.14874975208333333,
                "total_time": 225.8984637260437
            },
            {
                "note": 36,
                "velocity": 0,
                "time": 0,
                "total_time": 225.89859580993652
            },
            {
                "note": 91,
                "velocity": 112,
                "time": 0.0012499979166666665,
                "total_time": 225.89972066879272
            },
            {
                "note": 39,
                "velocity": 96,
                "time": 0,
                "total_time": 225.89978981018066
            },
            {
                "note": 91,
                "velocity": 0,
                "time": 0.14874975208333333,
                "total_time": 226.0485119819641
            },
            {
                "note": 39,
                "velocity": 0,
                "time": 0,
                "total_time": 226.0489423274994
            },
            {
                "note": 87,
                "velocity": 112,
                "time": 0.0012499979166666665,
                "total_time": 226.04974341392517
            },
            {
                "note": 43,
                "velocity": 96,
                "time": 0,
                "total_time": 226.05012321472168
            },
            {
                "note": 87,
                "velocity": 0,
                "time": 0.14124976458333333,
                "total_time": 226.1909534931183
            },
            {
                "note": 43,
                "velocity": 0,
                "time": 0.007499987499999999,
                "total_time": 226.19848585128784
            },
            {
                "note": 84,
                "velocity": 112,
                "time": 0.0012499979166666665,
                "total_time": 226.19975018501282
            },
            {
                "note": 48,
                "velocity": 96,
                "time": 0,
                "total_time": 226.19983911514282
            },
            {
                "note": 84,
                "velocity": 0,
                "time": 0.14874975208333333,
                "total_time": 226.34845757484436
            },
            {
                "note": 48,
                "velocity": 0,
                "time": 0,
                "total_time": 226.34856033325195
            },
            {
                "note": 75,
                "velocity": 112,
                "time": 0.0012499979166666665,
                "total_time": 226.34970140457153
            },
            {
                "note": 51,
                "velocity": 96,
                "time": 0,
                "total_time": 226.34984183311462
            },
            {
                "note": 75,
                "velocity": 0,
                "time": 0.14874975208333333,
                "total_time": 226.49848628044128
            },
            {
                "note": 51,
                "velocity": 0,
                "time": 0,
                "total_time": 226.4985809326172
            },
            {
                "note": 82,
                "velocity": 112,
                "time": 0.0012499979166666665,
                "total_time": 226.49970889091492
            },
            {
                "note": 55,
                "velocity": 96,
                "time": 0,
                "total_time": 226.4997570514679
            },
            {
                "note": 82,
                "velocity": 0,
                "time": 0.14874975208333333,
                "total_time": 226.64846324920654
            },
            {
                "note": 55,
                "velocity": 0,
                "time": 0,
                "total_time": 226.64856600761414
            },
            {
                "note": 80,
                "velocity": 112,
                "time": 0.0012499979166666665,
                "total_time": 226.6496982574463
            },
            {
                "note": 51,
                "velocity": 96,
                "time": 0,
                "total_time": 226.6497893333435
            },
            {
                "note": 80,
                "velocity": 0,
                "time": 0.14124976458333333,
                "total_time": 226.79097986221313
            },
            {
                "note": 51,
                "velocity": 0,
                "time": 0.007499987499999999,
                "total_time": 226.7984983921051
            },
            {
                "note": 70,
                "velocity": 127,
                "time": 0.0012499979166666665,
                "total_time": 226.79972672462463
            },
            {
                "note": 82,
                "velocity": 127,
                "time": 0,
                "total_time": 226.80001091957092
            },
            {
                "note": 60,
                "velocity": 96,
                "time": 0,
                "total_time": 226.80009651184082
            },
            {
                "note": 60,
                "velocity": 0,
                "time": 0.14874975208333333,
                "total_time": 226.94850206375122
            },
            {
                "note": 51,
                "velocity": 96,
                "time": 0.0012499979166666665,
                "total_time": 226.94973278045654
            },
            {
                "note": 51,
                "velocity": 0,
                "time": 0.14874975208333333,
                "total_time": 227.09846115112305
            },
            {
                "note": 55,
                "velocity": 96,
                "time": 0.0012499979166666665,
                "total_time": 227.09970021247864
            },
            {
                "note": 70,
                "velocity": 0,
                "time": 0.09999983333333332,
                "total_time": 227.19969391822815
            },
            {
                "note": 82,
                "velocity": 0,
                "time": 0,
                "total_time": 227.19976663589478
            },
            {
                "note": 55,
                "velocity": 0,
                "time": 0.048749918749999996,
                "total_time": 227.24847221374512
            },
            {
                "note": 51,
                "velocity": 96,
                "time": 0.0012499979166666665,
                "total_time": 227.24968099594116
            },
            {
                "note": 51,
                "velocity": 0,
                "time": 0.14874975208333333,
                "total_time": 227.39844799041748
            },
            {
                "note": 75,
                "velocity": 112,
                "time": 0.0012499979166666665,
                "total_time": 227.3996937274933
            },
            {
                "note": 84,
                "velocity": 112,
                "time": 0,
                "total_time": 227.39977097511292
            },
            {
                "note": 87,
                "velocity": 112,
                "time": 0,
                "total_time": 227.39980792999268
            },
            {
                "note": 48,
                "velocity": 96,
                "time": 0,
                "total_time": 227.39982771873474
            },
            {
                "note": 48,
                "velocity": 0,
                "time": 0.14874975208333333,
                "total_time": 227.54853987693787
            },
            {
                "note": 43,
                "velocity": 96,
                "time": 0.0012499979166666665,
                "total_time": 227.54991126060486
            },
            {
                "note": 43,
                "velocity": 0,
                "time": 0.14874975208333333,
                "total_time": 227.69846653938293
            },
            {
                "note": 39,
                "velocity": 96,
                "time": 0.0012499979166666665,
                "total_time": 227.69971871376038
            },
            {
                "note": 39,
                "velocity": 0,
                "time": 0.14874975208333333,
                "total_time": 227.84854555130005
            },
            {
                "note": 43,
                "velocity": 96,
                "time": 0.0012499979166666665,
                "total_time": 227.8497395515442
            },
            {
                "note": 75,
                "velocity": 0,
                "time": 0.11874980208333331,
                "total_time": 227.96850609779358
            },
            {
                "note": 84,
                "velocity": 0,
                "time": 0,
                "total_time": 227.96874737739563
            },
            {
                "note": 87,
                "velocity": 0,
                "time": 0,
                "total_time": 227.96889066696167
            },
            {
                "note": 43,
                "velocity": 0,
                "time": 0.022499962499999998,
                "total_time": 227.99100637435913
            },
            {
                "note": 29,
                "velocity": 0,
                "time": 0.007499987499999999,
                "total_time": 227.99849653244019
            },
            {
                "note": 75,
                "velocity": 127,
                "time": 0.0012499979166666665,
                "total_time": 227.99968767166138
            },
            {
                "note": 80,
                "velocity": 127,
                "time": 0,
                "total_time": 227.99975776672363
            },
            {
                "note": 83,
                "velocity": 127,
                "time": 0,
                "total_time": 227.9997913837433
            },
            {
                "note": 87,
                "velocity": 127,
                "time": 0,
                "total_time": 227.9998321533203
            },
            {
                "note": 40,
                "velocity": 112,
                "time": 0,
                "total_time": 227.99987483024597
            },
            {
                "note": 44,
                "velocity": 96,
                "time": 0,
                "total_time": 228.14986515045166
            },
            {
                "note": 44,
                "velocity": 0,
                "time": 0.14874975208333333,
                "total_time": 228.298481464386
            },
            {
                "note": 47,
                "velocity": 96,
                "time": 0.0012499979166666665,
                "total_time": 228.29967737197876
            },
            {
                "note": 47,
                "velocity": 0,
                "time": 0.14874975208333333,
                "total_time": 228.4485638141632
            },
            {
                "note": 51,
                "velocity": 96,
                "time": 0.0012499979166666665,
                "total_time": 228.4497320652008
            },
            {
                "note": 51,
                "velocity": 0,
                "time": 0.14874975208333333,
                "total_time": 228.59848928451538
            },
            {
                "note": 56,
                "velocity": 96,
                "time": 0.0012499979166666665,
                "total_time": 228.59969186782837
            },
            {
                "note": 56,
                "velocity": 0,
                "time": 0.14874975208333333,
                "total_time": 228.74852061271667
            },
            {
                "note": 59,
                "velocity": 96,
                "time": 0.0012499979166666665,
                "total_time": 228.74971318244934
            },
            {
                "note": 75,
                "velocity": 0,
                "time": 0.052499912499999996,
                "total_time": 228.80226135253906
            },
            {
                "note": 80,
                "velocity": 0,
                "time": 0,
                "total_time": 228.8025975227356
            },
            {
                "note": 83,
                "velocity": 0,
                "time": 0,
                "total_time": 228.8027205467224
            },
            {
                "note": 87,
                "velocity": 0,
                "time": 0,
                "total_time": 228.80285477638245
            },
            {
                "note": 59,
                "velocity": 0,
                "time": 0.09624983958333332,
                "total_time": 228.898579120636
            },
            {
                "note": 63,
                "velocity": 96,
                "time": 0.0012499979166666665,
                "total_time": 228.89972138404846
            },
            {
                "note": 63,
                "velocity": 0,
                "time": 0.14874975208333333,
                "total_time": 229.04850316047668
            },
            {
                "note": 59,
                "velocity": 96,
                "time": 0.0012499979166666665,
                "total_time": 229.0497488975525
            },
            {
                "note": 59,
                "velocity": 0,
                "time": 0.14874975208333333,
                "total_time": 229.19845151901245
            },
            {
                "note": 78,
                "velocity": 112,
                "time": 0.0012499979166666665,
                "total_time": 229.19969201087952
            },
            {
                "note": 87,
                "velocity": 112,
                "time": 0,
                "total_time": 229.19976663589478
            },
            {
                "note": 90,
                "velocity": 112,
                "time": 0,
                "total_time": 229.19979429244995
            },
            {
                "note": 68,
                "velocity": 96,
                "time": 0,
                "total_time": 229.1998312473297
            },
            {
                "note": 68,
                "velocity": 0,
                "time": 0.14874975208333333,
                "total_time": 229.3485472202301
            },
            {
                "note": 59,
                "velocity": 96,
                "time": 0.0012499979166666665,
                "total_time": 229.34975004196167
            },
            {
                "note": 59,
                "velocity": 0,
                "time": 0.14874975208333333,
                "total_time": 229.4984531402588
            },
            {
                "note": 63,
                "velocity": 96,
                "time": 0.0012499979166666665,
                "total_time": 229.49971795082092
            },
            {
                "note": 63,
                "velocity": 0,
                "time": 0.14874975208333333,
                "total_time": 229.6484978199005
            },
            {
                "note": 59,
                "velocity": 96,
                "time": 0.0012499979166666665,
                "total_time": 229.64974331855774
            },
            {
                "note": 78,
                "velocity": 0,
                "time": 0.14874975208333333,
                "total_time": 229.7984516620636
            },
            {
                "note": 87,
                "velocity": 0,
                "time": 0,
                "total_time": 229.79855489730835
            },
            {
                "note": 90,
                "velocity": 0,
                "time": 0,
                "total_time": 229.79859280586243
            },
            {
                "note": 59,
                "velocity": 0,
                "time": 0,
                "total_time": 229.79861760139465
            },
            {
                "note": 80,
                "velocity": 112,
                "time": 0.0012499979166666665,
                "total_time": 229.79968547821045
            },
            {
                "note": 83,
                "velocity": 112,
                "time": 0,
                "total_time": 229.79974174499512
            },
            {
                "note": 92,
                "velocity": 112,
                "time": 0,
                "total_time": 229.7997646331787
            },
            {
                "note": 56,
                "velocity": 96,
                "time": 0,
                "total_time": 229.7997851371765
            },
            {
                "note": 56,
                "velocity": 0,
                "time": 0.14874975208333333,
                "total_time": 229.9484887123108
            },
            {
                "note": 51,
                "velocity": 96,
                "time": 0.0012499979166666665,
                "total_time": 229.94991421699524
            },
            {
                "note": 51,
                "velocity": 0,
                "time": 0.14874975208333333,
                "total_time": 230.09844827651978
            },
            {
                "note": 47,
                "velocity": 96,
                "time": 0.0012499979166666665,
                "total_time": 230.0996870994568
            },
            {
                "note": 47,
                "velocity": 0,
                "time": 0.14874975208333333,
                "total_time": 230.24862575531006
            },
            {
                "note": 44,
                "velocity": 96,
                "time": 0.0012499979166666665,
                "total_time": 230.24979424476624
            },
            {
                "note": 80,
                "velocity": 0,
                "time": 0.11874980208333331,
                "total_time": 230.3684902191162
            },
            {
                "note": 83,
                "velocity": 0,
                "time": 0,
                "total_time": 230.36872172355652
            },
            {
                "note": 92,
                "velocity": 0,
                "time": 0,
                "total_time": 230.36883020401
            },
            {
                "note": 44,
                "velocity": 0,
                "time": 0.022499962499999998,
                "total_time": 230.39099144935608
            },
            {
                "note": 40,
                "velocity": 0,
                "time": 0.007499987499999999,
                "total_time": 230.398499250412
            },
            {
                "note": 82,
                "velocity": 127,
                "time": 0.0012499979166666665,
                "total_time": 230.399733543396
            },
            {
                "note": 87,
                "velocity": 127,
                "time": 0,
                "total_time": 230.3999993801117
            },
            {
                "note": 90,
                "velocity": 127,
                "time": 0,
                "total_time": 230.4000825881958
            },
            {
                "note": 94,
                "velocity": 127,
                "time": 0,
                "total_time": 230.40015268325806
            },
            {
                "note": 39,
                "velocity": 112,
                "time": 0,
                "total_time": 230.4002525806427
            },
            {
                "note": 42,
                "velocity": 96,
                "time": 0,
                "total_time": 230.54990482330322
            },
            {
                "note": 42,
                "velocity": 0,
                "time": 0.14874975208333333,
                "total_time": 230.69849348068237
            },
            {
                "note": 46,
                "velocity": 96,
                "time": 0.0012499979166666665,
                "total_time": 230.69971561431885
            },
            {
                "note": 46,
                "velocity": 0,
                "time": 0.14874975208333333,
                "total_time": 230.8484525680542
            },
            {
                "note": 51,
                "velocity": 96,
                "time": 0.0012499979166666665,
                "total_time": 230.84971261024475
            },
            {
                "note": 51,
                "velocity": 0,
                "time": 0.14874975208333333,
                "total_time": 230.99844527244568
            },
            {
                "note": 54,
                "velocity": 96,
                "time": 0.0012499979166666665,
                "total_time": 230.99966406822205
            },
            {
                "note": 54,
                "velocity": 0,
                "time": 0.14874975208333333,
                "total_time": 231.14844465255737
            },
            {
                "note": 58,
                "velocity": 96,
                "time": 0.0012499979166666665,
                "total_time": 231.1496925354004
            },
            {
                "note": 82,
                "velocity": 0,
                "time": 0.052499912499999996,
                "total_time": 231.20222878456116
            },
            {
                "note": 87,
                "velocity": 0,
                "time": 0,
                "total_time": 231.20233416557312
            },
            {
                "note": 90,
                "velocity": 0,
                "time": 0,
                "total_time": 231.20236563682556
            },
            {
                "note": 94,
                "velocity": 0,
                "time": 0,
                "total_time": 231.20239067077637
            },
            {
                "note": 58,
                "velocity": 0,
                "time": 0.09624983958333332,
                "total_time": 231.29848980903625
            },
            {
                "note": 63,
                "velocity": 96,
                "time": 0.0012499979166666665,
                "total_time": 231.29972910881042
            },
            {
                "note": 63,
                "velocity": 0,
                "time": 0.14874975208333333,
                "total_time": 231.44850087165833
            },
            {
                "note": 58,
                "velocity": 96,
                "time": 0.0012499979166666665,
                "total_time": 231.4498770236969
            },
            {
                "note": 58,
                "velocity": 0,
                "time": 0.14874975208333333,
                "total_time": 231.59844851493835
            },
            {
                "note": 87,
                "velocity": 112,
                "time": 0.0012499979166666665,
                "total_time": 231.59968900680542
            },
            {
                "note": 66,
                "velocity": 96,
                "time": 0,
                "total_time": 231.59982228279114
            },
            {
                "note": 87,
                "velocity": 0,
                "time": 0.09874983541666665,
                "total_time": 231.69854068756104
            },
            {
                "note": 89,
                "velocity": 112,
                "time": 0.0012499979166666665,
                "total_time": 231.69970965385437
            },
            {
                "note": 66,
                "velocity": 0,
                "time": 0.048749918749999996,
                "total_time": 231.7484827041626
            },
            {
                "note": 58,
                "velocity": 96,
                "time": 0.0012499979166666665,
                "total_time": 231.7497148513794
            },
            {
                "note": 89,
                "velocity": 0,
                "time": 0.048749918749999996,
                "total_time": 231.79849815368652
            },
            {
                "note": 87,
                "velocity": 112,
                "time": 0.0012499979166666665,
                "total_time": 231.79972958564758
            },
            {
                "note": 87,
                "velocity": 0,
                "time": 0.09874983541666665,
                "total_time": 231.89850187301636
            },
            {
                "note": 58,
                "velocity": 0,
                "time": 0,
                "total_time": 231.89886140823364
            },
            {
                "note": 90,
                "velocity": 112,
                "time": 0.0012499979166666665,
                "total_time": 231.89971017837524
            },
            {
                "note": 63,
                "velocity": 96,
                "time": 0,
                "total_time": 231.899915933609
            },
            {
                "note": 90,
                "velocity": 0,
                "time": 0.09874983541666665,
                "total_time": 231.9985523223877
            },
            {
                "note": 92,
                "velocity": 112,
                "time": 0.0012499979166666665,
                "total_time": 231.99970412254333
            },
            {
                "note": 63,
                "velocity": 0,
                "time": 0.048749918749999996,
                "total_time": 232.0485019683838
            },
            {
                "note": 58,
                "velocity": 96,
                "time": 0.0012499979166666665,
                "total_time": 232.0497374534607
            },
            {
                "note": 92,
                "velocity": 0,
                "time": 0.048749918749999996,
                "total_time": 232.0986030101776
            },
            {
                "note": 94,
                "velocity": 112,
                "time": 0.0012499979166666665,
                "total_time": 232.09974122047424
            },
            {
                "note": 94,
                "velocity": 0,
                "time": 0.09874983541666665,
                "total_time": 232.19849681854248
            },
            {
                "note": 58,
                "velocity": 0,
                "time": 0,
                "total_time": 232.19876670837402
            },
            {
                "note": 99,
                "velocity": 112,
                "time": 0.0012499979166666665,
                "total_time": 232.19971418380737
            },
            {
                "note": 54,
                "velocity": 96,
                "time": 0,
                "total_time": 232.2000904083252
            },
            {
                "note": 99,
                "velocity": 0,
                "time": 0.09874983541666665,
                "total_time": 232.2984755039215
            },
            {
                "note": 94,
                "velocity": 112,
                "time": 0.0012499979166666665,
                "total_time": 232.29968857765198
            },
            {
                "note": 54,
                "velocity": 0,
                "time": 0.048749918749999996,
                "total_time": 232.34848952293396
            },
            {
                "note": 51,
                "velocity": 96,
                "time": 0.0012499979166666665,
                "total_time": 232.34976744651794
            },
            {
                "note": 94,
                "velocity": 0,
                "time": 0.048749918749999996,
                "total_time": 232.39848160743713
            },
            {
                "note": 90,
                "velocity": 112,
                "time": 0.0012499979166666665,
                "total_time": 232.3997106552124
            },
            {
                "note": 90,
                "velocity": 0,
                "time": 0.09874983541666665,
                "total_time": 232.49856615066528
            },
            {
                "note": 51,
                "velocity": 0,
                "time": 0,
                "total_time": 232.49866223335266
            },
            {
                "note": 89,
                "velocity": 112,
                "time": 0.0012499979166666665,
                "total_time": 232.49968838691711
            },
            {
                "note": 46,
                "velocity": 96,
                "time": 0,
                "total_time": 232.4997682571411
            },
            {
                "note": 89,
                "velocity": 0,
                "time": 0.09874983541666665,
                "total_time": 232.59844517707825
            },
            {
                "note": 87,
                "velocity": 112,
                "time": 0.0012499979166666665,
                "total_time": 232.59968280792236
            },
            {
                "note": 46,
                "velocity": 0,
                "time": 0.048749918749999996,
                "total_time": 232.6484453678131
            },
            {
                "note": 42,
                "velocity": 96,
                "time": 0.0012499979166666665,
                "total_time": 232.64968037605286
            },
            {
                "note": 87,
                "velocity": 0,
                "time": 0.048749918749999996,
                "total_time": 232.69847011566162
            },
            {
                "note": 82,
                "velocity": 112,
                "time": 0.0012499979166666665,
                "total_time": 232.69968509674072
            },
            {
                "note": 42,
                "velocity": 0,
                "time": 0.09124984791666665,
                "total_time": 232.79099202156067
            },
            {
                "note": 82,
                "velocity": 0,
                "time": 0.002499995833333333,
                "total_time": 232.79346227645874
            },
            {
                "note": 39,
                "velocity": 0,
                "time": 0.004999991666666666,
                "total_time": 232.79847621917725
            },
            {
                "note": 77,
                "velocity": 112,
                "time": 0.0012499979166666665,
                "total_time": 232.79971051216125
            },
            {
                "note": 89,
                "velocity": 112,
                "time": 0,
                "total_time": 232.79989624023438
            },
            {
                "note": 34,
                "velocity": 112,
                "time": 0,
                "total_time": 232.80009841918945
            },
            {
                "note": 37,
                "velocity": 96,
                "time": 0,
                "total_time": 232.9498598575592
            },
            {
                "note": 77,
                "velocity": 0,
                "time": 0.14874975208333333,
                "total_time": 233.0984628200531
            },
            {
                "note": 89,
                "velocity": 0,
                "time": 0,
                "total_time": 233.0986351966858
            },
            {
                "note": 37,
                "velocity": 0,
                "time": 0,
                "total_time": 233.09868931770325
            },
            {
                "note": 78,
                "velocity": 112,
                "time": 0.0012499979166666665,
                "total_time": 233.0996994972229
            },
            {
                "note": 80,
                "velocity": 112,
                "time": 0,
                "total_time": 233.09978032112122
            },
            {
                "note": 85,
                "velocity": 112,
                "time": 0,
                "total_time": 233.09984016418457
            },
            {
                "note": 90,
                "velocity": 112,
                "time": 0,
                "total_time": 233.09988021850586
            },
            {
                "note": 41,
                "velocity": 96,
                "time": 0,
                "total_time": 233.0999174118042
            },
            {
                "note": 41,
                "velocity": 0,
                "time": 0.14874975208333333,
                "total_time": 233.24850034713745
            },
            {
                "note": 44,
                "velocity": 96,
                "time": 0.0012499979166666665,
                "total_time": 233.24983382225037
            },
            {
                "note": 78,
                "velocity": 0,
                "time": 0.14874975208333333,
                "total_time": 233.398508310318
            },
            {
                "note": 80,
                "velocity": 0,
                "time": 0,
                "total_time": 233.39883160591125
            },
            {
                "note": 85,
                "velocity": 0,
                "time": 0,
                "total_time": 233.39893507957458
            },
            {
                "note": 90,
                "velocity": 0,
                "time": 0,
                "total_time": 233.39902186393738
            },
            {
                "note": 44,
                "velocity": 0,
                "time": 0,
                "total_time": 233.3991014957428
            },
            {
                "note": 80,
                "velocity": 112,
                "time": 0.0012499979166666665,
                "total_time": 233.39969658851624
            },
            {
                "note": 89,
                "velocity": 112,
                "time": 0,
                "total_time": 233.39984965324402
            },
            {
                "note": 92,
                "velocity": 112,
                "time": 0,
                "total_time": 233.3998920917511
            },
            {
                "note": 49,
                "velocity": 96,
                "time": 0,
                "total_time": 233.39993166923523
            },
            {
                "note": 49,
                "velocity": 0,
                "time": 0.14874975208333333,
                "total_time": 233.54849410057068
            },
            {
                "note": 53,
                "velocity": 96,
                "time": 0.0012499979166666665,
                "total_time": 233.54982686042786
            },
            {
                "note": 80,
                "velocity": 0,
                "time": 0.14874975208333333,
                "total_time": 233.69849395751953
            },
            {
                "note": 89,
                "velocity": 0,
                "time": 0,
                "total_time": 233.69863080978394
            },
            {
                "note": 92,
                "velocity": 0,
                "time": 0,
                "total_time": 233.69875860214233
            },
            {
                "note": 53,
                "velocity": 0,
                "time": 0,
                "total_time": 233.69898557662964
            },
            {
                "note": 85,
                "velocity": 112,
                "time": 0.0012499979166666665,
                "total_time": 233.6996898651123
            },
            {
                "note": 92,
                "velocity": 112,
                "time": 0,
                "total_time": 233.6997721195221
            },
            {
                "note": 97,
                "velocity": 112,
                "time": 0,
                "total_time": 233.6998109817505
            },
            {
                "note": 56,
                "velocity": 96,
                "time": 0,
                "total_time": 233.69983339309692
            },
            {
                "note": 56,
                "velocity": 0,
                "time": 0.14874975208333333,
                "total_time": 233.8485050201416
            },
            {
                "note": 53,
                "velocity": 96,
                "time": 0.0012499979166666665,
                "total_time": 233.84976625442505
            },
            {
                "note": 85,
                "velocity": 0,
                "time": 0.13374977708333333,
                "total_time": 233.98346543312073
            },
            {
                "note": 92,
                "velocity": 0,
                "time": 0,
                "total_time": 233.9836769104004
            },
            {
                "note": 97,
                "velocity": 0,
                "time": 0,
                "total_time": 233.98375916481018
            },
            {
                "note": 53,
                "velocity": 0,
                "time": 0.014999974999999999,
                "total_time": 233.9985535144806
            },
            {
                "note": 73,
                "velocity": 127,
                "time": 0.0012499979166666665,
                "total_time": 234.000097990036
            },
            {
                "note": 77,
                "velocity": 127,
                "time": 0,
                "total_time": 234.00059723854065
            },
            {
                "note": 85,
                "velocity": 127,
                "time": 0,
                "total_time": 234.00075268745422
            },
            {
                "note": 61,
                "velocity": 96,
                "time": 0,
                "total_time": 234.00088715553284
            },
            {
                "note": 61,
                "velocity": 0,
                "time": 0.14874975208333333,
                "total_time": 234.14852643013
            },
            {
                "note": 53,
                "velocity": 96,
                "time": 0.0012499979166666665,
                "total_time": 234.1497073173523
            },
            {
                "note": 53,
                "velocity": 0,
                "time": 0.14874975208333333,
                "total_time": 234.2984974384308
            },
            {
                "note": 56,
                "velocity": 96,
                "time": 0.0012499979166666665,
                "total_time": 234.29984641075134
            },
            {
                "note": 73,
                "velocity": 0,
                "time": 0.09999983333333332,
                "total_time": 234.3997926712036
            },
            {
                "note": 77,
                "velocity": 0,
                "time": 0,
                "total_time": 234.40017652511597
            },
            {
                "note": 85,
                "velocity": 0,
                "time": 0,
                "total_time": 234.40024662017822
            },
            {
                "note": 56,
                "velocity": 0,
                "time": 0.048749918749999996,
                "total_time": 234.44850492477417
            },
            {
                "note": 53,
                "velocity": 96,
                "time": 0.0012499979166666665,
                "total_time": 234.44971656799316
            },
            {
                "note": 53,
                "velocity": 0,
                "time": 0.14874975208333333,
                "total_time": 234.5984935760498
            },
            {
                "note": 77,
                "velocity": 112,
                "time": 0.0012499979166666665,
                "total_time": 234.5997109413147
            },
            {
                "note": 85,
                "velocity": 112,
                "time": 0,
                "total_time": 234.60012030601501
            },
            {
                "note": 89,
                "velocity": 112,
                "time": 0,
                "total_time": 234.6002116203308
            },
            {
                "note": 49,
                "velocity": 96,
                "time": 0,
                "total_time": 234.60028672218323
            },
            {
                "note": 49,
                "velocity": 0,
                "time": 0.14874975208333333,
                "total_time": 234.74856162071228
            },
            {
                "note": 44,
                "velocity": 96,
                "time": 0.0012499979166666665,
                "total_time": 234.74990320205688
            },
            {
                "note": 44,
                "velocity": 0,
                "time": 0.14874975208333333,
                "total_time": 234.89859247207642
            },
            {
                "note": 41,
                "velocity": 96,
                "time": 0.0012499979166666665,
                "total_time": 234.8997495174408
            },
            {
                "note": 41,
                "velocity": 0,
                "time": 0.14874975208333333,
                "total_time": 235.04847693443298
            },
            {
                "note": 37,
                "velocity": 96,
                "time": 0.0012499979166666665,
                "total_time": 235.04971861839294
            },
            {
                "note": 77,
                "velocity": 0,
                "time": 0.11874980208333331,
                "total_time": 235.16855120658875
            },
            {
                "note": 85,
                "velocity": 0,
                "time": 0,
                "total_time": 235.16886711120605
            },
            {
                "note": 89,
                "velocity": 0,
                "time": 0,
                "total_time": 235.16900777816772
            },
            {
                "note": 37,
                "velocity": 0,
                "time": 0.022499962499999998,
                "total_time": 235.19101285934448
            },
            {
                "note": 34,
                "velocity": 0,
                "time": 0.007499987499999999,
                "total_time": 235.19871377944946
            },
            {
                "note": 75,
                "velocity": 127,
                "time": 0.0012499979166666665,
                "total_time": 235.1996328830719
            },
            {
                "note": 84,
                "velocity": 127,
                "time": 0,
                "total_time": 235.20042824745178
            },
            {
                "note": 87,
                "velocity": 127,
                "time": 0,
                "total_time": 235.20205116271973
            },
            {
                "note": 29,
                "velocity": 112,
                "time": 0,
                "total_time": 235.2022647857666
            },
            {
                "note": 36,
                "velocity": 96,
                "time": 0,
                "total_time": 235.34984874725342
            },
            {
                "note": 36,
                "velocity": 0,
                "time": 0.14874975208333333,
                "total_time": 235.49845933914185
            },
            {
                "note": 39,
                "velocity": 96,
                "time": 0.0012499979166666665,
                "total_time": 235.49968242645264
            },
            {
                "note": 75,
                "velocity": 0,
                "time": 0.09999983333333332,
                "total_time": 235.59973669052124
            },
            {
                "note": 84,
                "velocity": 0,
                "time": 0,
                "total_time": 235.60004806518555
            },
            {
                "note": 87,
                "velocity": 0,
                "time": 0,
                "total_time": 235.60018038749695
            },
            {
                "note": 39,
                "velocity": 0,
                "time": 0.048749918749999996,
                "total_time": 235.6484570503235
            },
            {
                "note": 43,
                "velocity": 96,
                "time": 0.0012499979166666665,
                "total_time": 235.64969301223755
            },
            {
                "note": 43,
                "velocity": 0,
                "time": 0.14874975208333333,
                "total_time": 235.79856133460999
            },
            {
                "note": 77,
                "velocity": 112,
                "time": 0.0012499979166666665,
                "total_time": 235.80009841918945
            },
            {
                "note": 80,
                "velocity": 112,
                "time": 0,
                "total_time": 235.80050897598267
            },
            {
                "note": 89,
                "velocity": 112,
                "time": 0,
                "total_time": 235.80071234703064
            },
            {
                "note": 48,
                "velocity": 96,
                "time": 0,
                "total_time": 235.80078864097595
            },
            {
                "note": 48,
                "velocity": 0,
                "time": 0.14874975208333333,
                "total_time": 235.94843125343323
            },
            {
                "note": 51,
                "velocity": 96,
                "time": 0.0012499979166666665,
                "total_time": 235.94970154762268
            },
            {
                "note": 51,
                "velocity": 0,
                "time": 0.14874975208333333,
                "total_time": 236.09846591949463
            },
            {
                "note": 55,
                "velocity": 96,
                "time": 0.0012499979166666665,
                "total_time": 236.0996880531311
            },
            {
                "note": 55,
                "velocity": 0,
                "time": 0.14874975208333333,
                "total_time": 236.24848651885986
            },
            {
                "note": 51,
                "velocity": 96,
                "time": 0.0012499979166666665,
                "total_time": 236.24967503547668
            },
            {
                "note": 77,
                "velocity": 0,
                "time": 0.11874980208333331,
                "total_time": 236.36847114562988
            },
            {
                "note": 80,
                "velocity": 0,
                "time": 0,
                "total_time": 236.36855387687683
            },
            {
                "note": 89,
                "velocity": 0,
                "time": 0,
                "total_time": 236.3685736656189
            },
            {
                "note": 51,
                "velocity": 0,
                "time": 0.029999949999999997,
                "total_time": 236.39846849441528
            },
            {
                "note": 70,
                "velocity": 112,
                "time": 0.0012499979166666665,
                "total_time": 236.39967966079712
            },
            {
                "note": 75,
                "velocity": 112,
                "time": 0,
                "total_time": 236.39975357055664
            },
            {
                "note": 82,
                "velocity": 112,
                "time": 0,
                "total_time": 236.3997700214386
            },
            {
                "note": 60,
                "velocity": 96,
                "time": 0,
                "total_time": 236.39978313446045
            },
            {
                "note": 60,
                "velocity": 0,
                "time": 0.14874975208333333,
                "total_time": 236.5484893321991
            },
            {
                "note": 51,
                "velocity": 96,
                "time": 0.0012499979166666665,
                "total_time": 236.54968118667603
            },
            {
                "note": 51,
                "velocity": 0,
                "time": 0.14874975208333333,
                "total_time": 236.69847536087036
            },
            {
                "note": 55,
                "velocity": 96,
                "time": 0.0012499979166666665,
                "total_time": 236.69972562789917
            },
            {
                "note": 55,
                "velocity": 0,
                "time": 0.14874975208333333,
                "total_time": 236.84847354888916
            },
            {
                "note": 51,
                "velocity": 96,
                "time": 0.0012499979166666665,
                "total_time": 236.84967017173767
            },
            {
                "note": 70,
                "velocity": 0,
                "time": 0.11874980208333331,
                "total_time": 236.96855449676514
            },
            {
                "note": 75,
                "velocity": 0,
                "time": 0,
                "total_time": 236.96865010261536
            },
            {
                "note": 82,
                "velocity": 0,
                "time": 0,
                "total_time": 236.96866822242737
            },
            {
                "note": 51,
                "velocity": 0,
                "time": 0.029999949999999997,
                "total_time": 236.99846076965332
            },
            {
                "note": 75,
                "velocity": 112,
                "time": 0.0012499979166666665,
                "total_time": 236.99972701072693
            },
            {
                "note": 79,
                "velocity": 112,
                "time": 0,
                "total_time": 236.99997210502625
            },
            {
                "note": 87,
                "velocity": 112,
                "time": 0,
                "total_time": 237.00001549720764
            },
            {
                "note": 48,
                "velocity": 96,
                "time": 0,
                "total_time": 237.00003862380981
            },
            {
                "note": 48,
                "velocity": 0,
                "time": 0.14874975208333333,
                "total_time": 237.1484832763672
            },
            {
                "note": 43,
                "velocity": 96,
                "time": 0.0012499979166666665,
                "total_time": 237.14970874786377
            },
            {
                "note": 43,
                "velocity": 0,
                "time": 0.14874975208333333,
                "total_time": 237.29848861694336
            },
            {
                "note": 39,
                "velocity": 96,
                "time": 0.0012499979166666665,
                "total_time": 237.2997100353241
            },
            {
                "note": 39,
                "velocity": 0,
                "time": 0.14874975208333333,
                "total_time": 237.4485445022583
            },
            {
                "note": 43,
                "velocity": 96,
                "time": 0.0012499979166666665,
                "total_time": 237.44970417022705
            },
            {
                "note": 75,
                "velocity": 0,
                "time": 0.11874980208333331,
                "total_time": 237.5684940814972
            },
            {
                "note": 79,
                "velocity": 0,
                "time": 0,
                "total_time": 237.56869292259216
            },
            {
                "note": 87,
                "velocity": 0,
                "time": 0,
                "total_time": 237.56875443458557
            },
            {
                "note": 43,
                "velocity": 0,
                "time": 0.022499962499999998,
                "total_time": 237.59096717834473
            },
            {
                "note": 29,
                "velocity": 0,
                "time": 0.007499987499999999,
                "total_time": 237.5985016822815
            },
            {
                "note": 80,
                "velocity": 127,
                "time": 0.0012499979166666665,
                "total_time": 237.59970617294312
            },
            {
                "note": 83,
                "velocity": 127,
                "time": 0,
                "total_time": 237.5999801158905
            },
            {
                "note": 92,
                "velocity": 127,
                "time": 0,
                "total_time": 237.60008931159973
            },
            {
                "note": 40,
                "velocity": 112,
                "time": 0,
                "total_time": 237.60022282600403
            },
            {
                "note": 44,
                "velocity": 96,
                "time": 0,
                "total_time": 237.7497317790985
            },
            {
                "note": 44,
                "velocity": 0,
                "time": 0.14874975208333333,
                "total_time": 237.89845943450928
            },
            {
                "note": 47,
                "velocity": 96,
                "time": 0.0012499979166666665,
                "total_time": 237.89970779418945
            },
            {
                "note": 80,
                "velocity": 0,
                "time": 0.09999983333333332,
                "total_time": 237.99971294403076
            },
            {
                "note": 83,
                "velocity": 0,
                "time": 0,
                "total_time": 237.99996328353882
            },
            {
                "note": 92,
                "velocity": 0,
                "time": 0,
                "total_time": 238.0000560283661
            },
            {
                "note": 47,
                "velocity": 0,
                "time": 0.048749918749999996,
                "total_time": 238.0484757423401
            },
            {
                "note": 51,
                "velocity": 96,
                "time": 0.0012499979166666665,
                "total_time": 238.04968881607056
            },
            {
                "note": 51,
                "velocity": 0,
                "time": 0.14874975208333333,
                "total_time": 238.1984670162201
            },
            {
                "note": 82,
                "velocity": 112,
                "time": 0.0012499979166666665,
                "total_time": 238.19979047775269
            },
            {
                "note": 87,
                "velocity": 112,
                "time": 0,
                "total_time": 238.20020866394043
            },
            {
                "note": 94,
                "velocity": 112,
                "time": 0,
                "total_time": 238.2004952430725
            },
            {
                "note": 56,
                "velocity": 96,
                "time": 0,
                "total_time": 238.20061564445496
            },
            {
                "note": 56,
                "velocity": 0,
                "time": 0.14874975208333333,
                "total_time": 238.34848308563232
            },
            {
                "note": 59,
                "velocity": 96,
                "time": 0.0012499979166666665,
                "total_time": 238.34979581832886
            },
            {
                "note": 59,
                "velocity": 0,
                "time": 0.14874975208333333,
                "total_time": 238.49848747253418
            },
            {
                "note": 63,
                "velocity": 96,
                "time": 0.0012499979166666665,
                "total_time": 238.49967050552368
            },
            {
                "note": 63,
                "velocity": 0,
                "time": 0.14874975208333333,
                "total_time": 238.64846444129944
            },
            {
                "note": 59,
                "velocity": 96,
                "time": 0.0012499979166666665,
                "total_time": 238.6496946811676
            },
            {
                "note": 82,
                "velocity": 0,
                "time": 0.11874980208333331,
                "total_time": 238.76852226257324
            },
            {
                "note": 87,
                "velocity": 0,
                "time": 0,
                "total_time": 238.76859855651855
            },
            {
                "note": 94,
                "velocity": 0,
                "time": 0,
                "total_time": 238.76861453056335
            },
            {
                "note": 59,
                "velocity": 0,
                "time": 0.029999949999999997,
                "total_time": 238.7984504699707
            },
            {
                "note": 73,
                "velocity": 112,
                "time": 0.0012499979166666665,
                "total_time": 238.7996804714203
            },
            {
                "note": 75,
                "velocity": 112,
                "time": 0,
                "total_time": 238.79979538917542
            },
            {
                "note": 85,
                "velocity": 112,
                "time": 0,
                "total_time": 238.7998285293579
            },
            {
                "note": 68,
                "velocity": 96,
                "time": 0,
                "total_time": 238.79984784126282
            },
            {
                "note": 68,
                "velocity": 0,
                "time": 0.14874975208333333,
                "total_time": 238.9484441280365
            },
            {
                "note": 59,
                "velocity": 96,
                "time": 0.0012499979166666665,
                "total_time": 238.94969034194946
            },
            {
                "note": 59,
                "velocity": 0,
                "time": 0.14874975208333333,
                "total_time": 239.09850025177002
            },
            {
                "note": 63,
                "velocity": 96,
                "time": 0.0012499979166666665,
                "total_time": 239.09971594810486
            },
            {
                "note": 63,
                "velocity": 0,
                "time": 0.14874975208333333,
                "total_time": 239.24850177764893
            },
            {
                "note": 59,
                "velocity": 96,
                "time": 0.0012499979166666665,
                "total_time": 239.24969935417175
            },
            {
                "note": 73,
                "velocity": 0,
                "time": 0.11874980208333331,
                "total_time": 239.36848044395447
            },
            {
                "note": 75,
                "velocity": 0,
                "time": 0,
                "total_time": 239.36875653266907
            },
            {
                "note": 85,
                "velocity": 0,
                "time": 0,
                "total_time": 239.36895656585693
            },
            {
                "note": 59,
                "velocity": 0,
                "time": 0.029999949999999997,
                "total_time": 239.39855337142944
            },
            {
                "note": 85,
                "velocity": 112,
                "time": 0.0012499979166666665,
                "total_time": 239.39972162246704
            },
            {
                "note": 92,
                "velocity": 112,
                "time": 0,
                "total_time": 239.4000997543335
            },
            {
                "note": 97,
                "velocity": 112,
                "time": 0,
                "total_time": 239.40023589134216
            },
            {
                "note": 56,
                "velocity": 96,
                "time": 0,
                "total_time": 239.4003541469574
            },
            {
                "note": 56,
                "velocity": 0,
                "time": 0.14874975208333333,
                "total_time": 239.54848718643188
            },
            {
                "note": 51,
                "velocity": 96,
                "time": 0.0012499979166666665,
                "total_time": 239.54970860481262
            },
            {
                "note": 51,
                "velocity": 0,
                "time": 0.14874975208333333,
                "total_time": 239.69842648506165
            },
            {
                "note": 47,
                "velocity": 96,
                "time": 0.0012499979166666665,
                "total_time": 239.69968271255493
            },
            {
                "note": 47,
                "velocity": 0,
                "time": 0.14874975208333333,
                "total_time": 239.8484241962433
            },
            {
                "note": 44,
                "velocity": 96,
                "time": 0.0012499979166666665,
                "total_time": 239.84968996047974
            },
            {
                "note": 85,
                "velocity": 0,
                "time": 0.11874980208333331,
                "total_time": 239.96846556663513
            },
            {
                "note": 92,
                "velocity": 0,
                "time": 0,
                "total_time": 239.96873021125793
            },
            {
                "note": 97,
                "velocity": 0,
                "time": 0,
                "total_time": 239.96884036064148
            },
            {
                "note": 44,
                "velocity": 0,
                "time": 0.022499962499999998,
                "total_time": 239.9909691810608
            },
            {
                "note": 40,
                "velocity": 0,
                "time": 0.007499987499999999,
                "total_time": 239.99851608276367
            },
            {
                "note": 75,
                "velocity": 127,
                "time": 0,
                "total_time": 239.99985814094543
            },
            {
                "note": 63,
                "velocity": 112,
                "time": 0,
                "total_time": 240.00068354606628
            },
            {
                "note": 66,
                "velocity": 112,
                "time": 0,
                "total_time": 240.00226187705994
            },
            {
                "note": 39,
                "velocity": 112,
                "time": 0,
                "total_time": 240.00244665145874
            },
            {
                "note": 39,
                "velocity": 0,
                "time": 0,
                "total_time": 240.00257754325867
            },
            {
                "note": 39,
                "velocity": 112,
                "time": 0,
                "total_time": 240.00269889831543
            },
            {
                "note": 46,
                "velocity": 96,
                "time": 0,
                "total_time": 240.1498658657074
            },
            {
                "note": 46,
                "velocity": 0,
                "time": 0.14124976458333333,
                "total_time": 240.29125261306763
            },
            {
                "note": 51,
                "velocity": 96,
                "time": 0.008749985416666665,
                "total_time": 240.29990935325623
            },
            {
                "note": 51,
                "velocity": 0,
                "time": 0.14124976458333333,
                "total_time": 240.4409728050232
            },
            {
                "note": 46,
                "velocity": 96,
                "time": 0.008749985416666665,
                "total_time": 240.44974660873413
            },
            {
                "note": 46,
                "velocity": 0,
                "time": 0.14124976458333333,
                "total_time": 240.59093141555786
            },
            {
                "note": 54,
                "velocity": 96,
                "time": 0.008749985416666665,
                "total_time": 240.5997314453125
            },
            {
                "note": 75,
                "velocity": 0,
                "time": 0.0012499979166666665,
                "total_time": 240.60091948509216
            },
            {
                "note": 54,
                "velocity": 0,
                "time": 0.13999976666666664,
                "total_time": 240.74092721939087
            },
            {
                "note": 46,
                "velocity": 96,
                "time": 0.008749985416666665,
                "total_time": 240.7496874332428
            },
            {
                "note": 46,
                "velocity": 0,
                "time": 0.14124976458333333,
                "total_time": 240.89096331596375
            },
            {
                "note": 66,
                "velocity": 0,
                "time": 0.008749985416666665,
                "total_time": 240.89972472190857
            },
            {
                "note": 66,
                "velocity": 112,
                "time": 0,
                "total_time": 240.9000256061554
            },
            {
                "note": 78,
                "velocity": 112,
                "time": 0,
                "total_time": 240.90017318725586
            },
            {
                "note": 51,
                "velocity": 96,
                "time": 0,
                "total_time": 240.9002547264099
            },
            {
                "note": 51,
                "velocity": 0,
                "time": 0.14124976458333333,
                "total_time": 241.04096341133118
            },
            {
                "note": 46,
                "velocity": 96,
                "time": 0.008749985416666665,
                "total_time": 241.04973316192627
            },
            {
                "note": 39,
                "velocity": 0,
                "time": 0.08874985208333332,
                "total_time": 241.13848161697388
            },
            {
                "note": 78,
                "velocity": 0,
                "time": 0.044999924999999996,
                "total_time": 241.18346762657166
            },
            {
                "note": 46,
                "velocity": 0,
                "time": 0.007499987499999999,
                "total_time": 241.19095492362976
            },
            {
                "note": 63,
                "velocity": 0,
                "time": 0.007499987499999999,
                "total_time": 241.1988968849182
            },
            {
                "note": 66,
                "velocity": 0,
                "time": 0,
                "total_time": 241.19920182228088
            },
            {
                "note": 77,
                "velocity": 127,
                "time": 0.0012499979166666665,
                "total_time": 241.1999592781067
            },
            {
                "note": 65,
                "velocity": 112,
                "time": 0,
                "total_time": 241.20019459724426
            },
            {
                "note": 70,
                "velocity": 112,
                "time": 0,
                "total_time": 241.2003345489502
            },
            {
                "note": 34,
                "velocity": 112,
                "time": 0,
                "total_time": 241.20041251182556
            },
            {
                "note": 34,
                "velocity": 0,
                "time": 0,
                "total_time": 241.20048904418945
            },
            {
                "note": 34,
                "velocity": 112,
                "time": 0,
                "total_time": 241.20071029663086
            },
            {
                "note": 41,
                "velocity": 96,
                "time": 0,
                "total_time": 241.34984016418457
            },
            {
                "note": 41,
                "velocity": 0,
                "time": 0.14124976458333333,
                "total_time": 241.4910068511963
            },
            {
                "note": 46,
                "velocity": 96,
                "time": 0.008749985416666665,
                "total_time": 241.49976682662964
            },
            {
                "note": 46,
                "velocity": 0,
                "time": 0.14124976458333333,
                "total_time": 241.64092636108398
            },
            {
                "note": 41,
                "velocity": 96,
                "time": 0.008749985416666665,
                "total_time": 241.64973521232605
            },
            {
                "note": 41,
                "velocity": 0,
                "time": 0.14124976458333333,
                "total_time": 241.7909276485443
            },
            {
                "note": 49,
                "velocity": 96,
                "time": 0.008749985416666665,
                "total_time": 241.79970574378967
            },
            {
                "note": 77,
                "velocity": 0,
                "time": 0.0012499979166666665,
                "total_time": 241.80093002319336
            },
            {
                "note": 49,
                "velocity": 0,
                "time": 0.13999976666666664,
                "total_time": 241.9409487247467
            },
            {
                "note": 41,
                "velocity": 96,
                "time": 0.008749985416666665,
                "total_time": 241.94977402687073
            },
            {
                "note": 41,
                "velocity": 0,
                "time": 0.14124976458333333,
                "total_time": 242.09097695350647
            },
            {
                "note": 70,
                "velocity": 0,
                "time": 0.008749985416666665,
                "total_time": 242.0997474193573
            },
            {
                "note": 70,
                "velocity": 112,
                "time": 0,
                "total_time": 242.1000533103943
            },
            {
                "note": 82,
                "velocity": 112,
                "time": 0,
                "total_time": 242.100177526474
            },
            {
                "note": 46,
                "velocity": 96,
                "time": 0,
                "total_time": 242.10024881362915
            },
            {
                "note": 46,
                "velocity": 0,
                "time": 0.14124976458333333,
                "total_time": 242.2409234046936
            },
            {
                "note": 41,
                "velocity": 96,
                "time": 0.008749985416666665,
                "total_time": 242.24975323677063
            },
            {
                "note": 34,
                "velocity": 0,
                "time": 0.08874985208333332,
                "total_time": 242.33844709396362
            },
            {
                "note": 82,
                "velocity": 0,
                "time": 0.044999924999999996,
                "total_time": 242.38347148895264
            },
            {
                "note": 41,
                "velocity": 0,
                "time": 0.007499987499999999,
                "total_time": 242.39092254638672
            },
            {
                "note": 65,
                "velocity": 0,
                "time": 0.007499987499999999,
                "total_time": 242.39842414855957
            },
            {
                "note": 70,
                "velocity": 0,
                "time": 0,
                "total_time": 242.39853835105896
            },
            {
                "note": 82,
                "velocity": 127,
                "time": 0.0012499979166666665,
                "total_time": 242.3996798992157
            },
            {
                "note": 70,
                "velocity": 112,
                "time": 0,
                "total_time": 242.39978885650635
            },
            {
                "note": 75,
                "velocity": 112,
                "time": 0,
                "total_time": 242.39984321594238
            },
            {
                "note": 35,
                "velocity": 112,
                "time": 0,
                "total_time": 242.3998682498932
            },
            {
                "note": 35,
                "velocity": 0,
                "time": 0,
                "total_time": 242.3998908996582
            },
            {
                "note": 35,
                "velocity": 112,
                "time": 0,
                "total_time": 242.39991283416748
            },
            {
                "note": 42,
                "velocity": 96,
                "time": 0,
                "total_time": 242.5498878955841
            },
            {
                "note": 42,
                "velocity": 0,
                "time": 0.14124976458333333,
                "total_time": 242.69095492362976
            },
            {
                "note": 47,
                "velocity": 96,
                "time": 0.008749985416666665,
                "total_time": 242.69974541664124
            },
            {
                "note": 47,
                "velocity": 0,
                "time": 0.14124976458333333,
                "total_time": 242.84099435806274
            },
            {
                "note": 42,
                "velocity": 96,
                "time": 0.008749985416666665,
                "total_time": 242.84986019134521
            },
            {
                "note": 42,
                "velocity": 0,
                "time": 0.14124976458333333,
                "total_time": 242.99095153808594
            },
            {
                "note": 51,
                "velocity": 96,
                "time": 0.008749985416666665,
                "total_time": 242.9998641014099
            },
            {
                "note": 82,
                "velocity": 0,
                "time": 0.0012499979166666665,
                "total_time": 243.00097060203552
            },
            {
                "note": 51,
                "velocity": 0,
                "time": 0.13999976666666664,
                "total_time": 243.14092803001404
            },
            {
                "note": 42,
                "velocity": 96,
                "time": 0.008749985416666665,
                "total_time": 243.14997720718384
            },
            {
                "note": 42,
                "velocity": 0,
                "time": 0.14124976458333333,
                "total_time": 243.29093670845032
            },
            {
                "note": 80,
                "velocity": 112,
                "time": 0.008749985416666665,
                "total_time": 243.2996950149536
            },
            {
                "note": 47,
                "velocity": 96,
                "time": 0,
                "total_time": 243.29994130134583
            },
            {
                "note": 47,
                "velocity": 0,
                "time": 0.14124976458333333,
                "total_time": 243.44103980064392
            },
            {
                "note": 80,
                "velocity": 0,
                "time": 0.007499987499999999,
                "total_time": 243.4484887123108
            },
            {
                "note": 78,
                "velocity": 112,
                "time": 0.0012499979166666665,
                "total_time": 243.44968795776367
            },
            {
                "note": 42,
                "velocity": 96,
                "time": 0,
                "total_time": 243.44996619224548
            },
            {
                "note": 35,
                "velocity": 0,
                "time": 0.08874985208333332,
                "total_time": 243.5384566783905
            },
            {
                "note": 78,
                "velocity": 0,
                "time": 0.052499912499999996,
                "total_time": 243.59092926979065
            },
            {
                "note": 42,
                "velocity": 0,
                "time": 0,
                "total_time": 243.591064453125
            },
            {
                "note": 70,
                "velocity": 0,
                "time": 0.007499987499999999,
                "total_time": 243.59852647781372
            },
            {
                "note": 75,
                "velocity": 0,
                "time": 0,
                "total_time": 243.59878993034363
            },
            {
                "note": 77,
                "velocity": 112,
                "time": 0.0012499979166666665,
                "total_time": 243.59969639778137
            },
            {
                "note": 65,
                "velocity": 112,
                "time": 0,
                "total_time": 243.59985446929932
            },
            {
                "note": 73,
                "velocity": 112,
                "time": 0,
                "total_time": 243.59992694854736
            },
            {
                "note": 37,
                "velocity": 112,
                "time": 0,
                "total_time": 243.59999346733093
            },
            {
                "note": 37,
                "velocity": 0,
                "time": 0,
                "total_time": 243.60005640983582
            },
            {
                "note": 37,
                "velocity": 112,
                "time": 0,
                "total_time": 243.60012245178223
            },
            {
                "note": 44,
                "velocity": 96,
                "time": 0,
                "total_time": 243.74990439414978
            },
            {
                "note": 44,
                "velocity": 0,
                "time": 0.14124976458333333,
                "total_time": 243.890958070755
            },
            {
                "note": 77,
                "velocity": 0,
                "time": 0.007499987499999999,
                "total_time": 243.8985047340393
            },
            {
                "note": 65,
                "velocity": 0,
                "time": 0,
                "total_time": 243.8988814353943
            },
            {
                "note": 73,
                "velocity": 0,
                "time": 0,
                "total_time": 243.899005651474
            },
            {
                "note": 78,
                "velocity": 112,
                "time": 0.0012499979166666665,
                "total_time": 243.8996934890747
            },
            {
                "note": 66,
                "velocity": 112,
                "time": 0,
                "total_time": 243.8999514579773
            },
            {
                "note": 71,
                "velocity": 112,
                "time": 0,
                "total_time": 243.9000449180603
            },
            {
                "note": 49,
                "velocity": 96,
                "time": 0,
                "total_time": 243.90012860298157
            },
            {
                "note": 49,
                "velocity": 0,
                "time": 0.14124976458333333,
                "total_time": 244.04087662696838
            },
            {
                "note": 44,
                "velocity": 96,
                "time": 0.008749985416666665,
                "total_time": 244.04970693588257
            },
            {
                "note": 44,
                "velocity": 0,
                "time": 0.14124976458333333,
                "total_time": 244.1909339427948
            },
            {
                "note": 78,
                "velocity": 0,
                "time": 0.007499987499999999,
                "total_time": 244.19847345352173
            },
            {
                "note": 66,
                "velocity": 0,
                "time": 0,
                "total_time": 244.19873213768005
            },
            {
                "note": 71,
                "velocity": 0,
                "time": 0,
                "total_time": 244.19935774803162
            },
            {
                "note": 73,
                "velocity": 112,
                "time": 0.0012499979166666665,
                "total_time": 244.19962358474731
            },
            {
                "note": 61,
                "velocity": 112,
                "time": 0,
                "total_time": 244.19982242584229
            },
            {
                "note": 70,
                "velocity": 112,
                "time": 0,
                "total_time": 244.19992518424988
            },
            {
                "note": 53,
                "velocity": 96,
                "time": 0,
                "total_time": 244.20001411437988
            },
            {
                "note": 53,
                "velocity": 0,
                "time": 0.14124976458333333,
                "total_time": 244.3410177230835
            },
            {
                "note": 44,
                "velocity": 96,
                "time": 0.008749985416666665,
                "total_time": 244.34971570968628
            },
            {
                "note": 44,
                "velocity": 0,
                "time": 0.14124976458333333,
                "total_time": 244.49098944664001
            },
            {
                "note": 73,
                "velocity": 0,
                "time": 0.007499987499999999,
                "total_time": 244.49848461151123
            },
            {
                "note": 61,
                "velocity": 0,
                "time": 0,
                "total_time": 244.49914860725403
            },
            {
                "note": 70,
                "velocity": 0,
                "time": 0,
                "total_time": 244.499431848526
            },
            {
                "note": 70,
                "velocity": 112,
                "time": 0.0012499979166666665,
                "total_time": 244.4996840953827
            },
            {
                "note": 58,
                "velocity": 112,
                "time": 0,
                "total_time": 244.50002455711365
            },
            {
                "note": 65,
                "velocity": 112,
                "time": 0,
                "total_time": 244.50016975402832
            },
            {
                "note": 49,
                "velocity": 96,
                "time": 0,
                "total_time": 244.5002462863922
            },
            {
                "note": 49,
                "velocity": 0,
                "time": 0.14124976458333333,
                "total_time": 244.641051530838
            },
            {
                "note": 44,
                "velocity": 96,
                "time": 0.008749985416666665,
                "total_time": 244.64972734451294
            },
            {
                "note": 37,
                "velocity": 0,
                "time": 0.08874985208333332,
                "total_time": 244.73846054077148
            },
            {
                "note": 70,
                "velocity": 0,
                "time": 0.044999924999999996,
                "total_time": 244.78345823287964
            },
            {
                "note": 58,
                "velocity": 0,
                "time": 0,
                "total_time": 244.78371119499207
            },
            {
                "note": 65,
                "velocity": 0,
                "time": 0,
                "total_time": 244.78378081321716
            },
            {
                "note": 44,
                "velocity": 0,
                "time": 0.007499987499999999,
                "total_time": 244.79097485542297
            },
            {
                "note": 71,
                "velocity": 127,
                "time": 0.008749985416666665,
                "total_time": 244.79985570907593
            },
            {
                "note": 59,
                "velocity": 112,
                "time": 0,
                "total_time": 244.80021715164185
            },
            {
                "note": 66,
                "velocity": 112,
                "time": 0,
                "total_time": 244.80041527748108
            },
            {
                "note": 32,
                "velocity": 112,
                "time": 0,
                "total_time": 244.80052304267883
            },
            {
                "note": 32,
                "velocity": 0,
                "time": 0,
                "total_time": 244.80062055587769
            },
            {
                "note": 32,
                "velocity": 112,
                "time": 0,
                "total_time": 244.800714969635
            },
            {
                "note": 39,
                "velocity": 96,
                "time": 0,
                "total_time": 244.94986081123352
            },
            {
                "note": 39,
                "velocity": 0,
                "time": 0.14124976458333333,
                "total_time": 245.09092497825623
            },
            {
                "note": 44,
                "velocity": 96,
                "time": 0.008749985416666665,
                "total_time": 245.0997440814972
            },
            {
                "note": 71,
                "velocity": 0,
                "time": 0.09999983333333332,
                "total_time": 245.19971323013306
            },
            {
                "note": 44,
                "velocity": 0,
                "time": 0.041249931249999996,
                "total_time": 245.2409691810608
            },
            {
                "note": 39,
                "velocity": 96,
                "time": 0.008749985416666665,
                "total_time": 245.24977087974548
            },
            {
                "note": 39,
                "velocity": 0,
                "time": 0.14124976458333333,
                "total_time": 245.39095664024353
            },
            {
                "note": 59,
                "velocity": 0,
                "time": 0.007499987499999999,
                "total_time": 245.39848136901855
            },
            {
                "note": 66,
                "velocity": 0,
                "time": 0,
                "total_time": 245.39899230003357
            },
            {
                "note": 75,
                "velocity": 112,
                "time": 0.0012499979166666665,
                "total_time": 245.39973950386047
            },
            {
                "note": 63,
                "velocity": 112,
                "time": 0,
                "total_time": 245.4000015258789
            },
            {
                "note": 71,
                "velocity": 112,
                "time": 0,
                "total_time": 245.40012121200562
            },
            {
                "note": 47,
                "velocity": 96,
                "time": 0,
                "total_time": 245.4002242088318
            },
            {
                "note": 47,
                "velocity": 0,
                "time": 0.14124976458333333,
                "total_time": 245.54094862937927
            },
            {
                "note": 39,
                "velocity": 96,
                "time": 0.008749985416666665,
                "total_time": 245.54973030090332
            },
            {
                "note": 39,
                "velocity": 0,
                "time": 0.14124976458333333,
                "total_time": 245.6909499168396
            },
            {
                "note": 75,
                "velocity": 0,
                "time": 0.007499987499999999,
                "total_time": 245.69846630096436
            },
            {
                "note": 63,
                "velocity": 0,
                "time": 0,
                "total_time": 245.69888424873352
            },
            {
                "note": 71,
                "velocity": 0,
                "time": 0,
                "total_time": 245.69903874397278
            },
            {
                "note": 78,
                "velocity": 112,
                "time": 0.0012499979166666665,
                "total_time": 245.6998565196991
            },
            {
                "note": 66,
                "velocity": 112,
                "time": 0,
                "total_time": 245.7001495361328
            },
            {
                "note": 71,
                "velocity": 112,
                "time": 0,
                "total_time": 245.700297832489
            },
            {
                "note": 44,
                "velocity": 96,
                "time": 0,
                "total_time": 245.70041847229004
            },
            {
                "note": 44,
                "velocity": 0,
                "time": 0.14124976458333333,
                "total_time": 245.84091329574585
            },
            {
                "note": 39,
                "velocity": 96,
                "time": 0.008749985416666665,
                "total_time": 245.84976053237915
            },
            {
                "note": 32,
                "velocity": 0,
                "time": 0.08874985208333332,
                "total_time": 245.9384298324585
            },
            {
                "note": 78,
                "velocity": 0,
                "time": 0.044999924999999996,
                "total_time": 245.98345375061035
            },
            {
                "note": 66,
                "velocity": 0,
                "time": 0,
                "total_time": 245.98374462127686
            },
            {
                "note": 71,
                "velocity": 0,
                "time": 0,
                "total_time": 245.98379039764404
            },
            {
                "note": 39,
                "velocity": 0,
                "time": 0.007499987499999999,
                "total_time": 245.99097228050232
            },
            {
                "note": 78,
                "velocity": 127,
                "time": 0.008749985416666665,
                "total_time": 245.99995851516724
            },
            {
                "note": 66,
                "velocity": 112,
                "time": 0,
                "total_time": 246.00034594535828
            },
            {
                "note": 73,
                "velocity": 112,
                "time": 0,
                "total_time": 246.00054121017456
            },
            {
                "note": 34,
                "velocity": 112,
                "time": 0,
                "total_time": 246.00064206123352
            },
            {
                "note": 34,
                "velocity": 0,
                "time": 0,
                "total_time": 246.00074553489685
            },
            {
                "note": 34,
                "velocity": 112,
                "time": 0,
                "total_time": 246.0009229183197
            },
            {
                "note": 41,
                "velocity": 96,
                "time": 0,
                "total_time": 246.14985156059265
            },
            {
                "note": 41,
                "velocity": 0,
                "time": 0.14124976458333333,
                "total_time": 246.29094672203064
            },
            {
                "note": 46,
                "velocity": 96,
                "time": 0.008749985416666665,
                "total_time": 246.2997350692749
            },
            {
                "note": 78,
                "velocity": 0,
                "time": 0.09999983333333332,
                "total_time": 246.3996820449829
            },
            {
                "note": 46,
                "velocity": 0,
                "time": 0.041249931249999996,
                "total_time": 246.44092917442322
            },
            {
                "note": 41,
                "velocity": 96,
                "time": 0.008749985416666665,
                "total_time": 246.44970440864563
            },
            {
                "note": 41,
                "velocity": 0,
                "time": 0.14124976458333333,
                "total_time": 246.59092545509338
            },
            {
                "note": 66,
                "velocity": 0,
                "time": 0.007499987499999999,
                "total_time": 246.59859824180603
            },
            {
                "note": 73,
                "velocity": 0,
                "time": 0,
                "total_time": 246.59897208213806
            },
            {
                "note": 77,
                "velocity": 112,
                "time": 0.0012499979166666665,
                "total_time": 246.6004204750061
            },
            {
                "note": 65,
                "velocity": 112,
                "time": 0,
                "total_time": 246.6007182598114
            },
            {
                "note": 70,
                "velocity": 112,
                "time": 0,
                "total_time": 246.60085606575012
            },
            {
                "note": 49,
                "velocity": 96,
                "time": 0,
                "total_time": 246.60093665122986
            },
            {
                "note": 49,
                "velocity": 0,
                "time": 0.14124976458333333,
                "total_time": 246.74091935157776
            },
            {
                "note": 41,
                "velocity": 96,
                "time": 0.008749985416666665,
                "total_time": 246.7497103214264
            },
            {
                "note": 41,
                "velocity": 0,
                "time": 0.14124976458333333,
                "total_time": 246.8909215927124
            },
            {
                "note": 77,
                "velocity": 0,
                "time": 0.007499987499999999,
                "total_time": 246.89842104911804
            },
            {
                "note": 65,
                "velocity": 0,
                "time": 0,
                "total_time": 246.89853358268738
            },
            {
                "note": 70,
                "velocity": 0,
                "time": 0,
                "total_time": 246.89857149124146
            },
            {
                "note": 78,
                "velocity": 112,
                "time": 0.0012499979166666665,
                "total_time": 246.89970588684082
            },
            {
                "note": 66,
                "velocity": 112,
                "time": 0,
                "total_time": 246.89999222755432
            },
            {
                "note": 68,
                "velocity": 112,
                "time": 0,
                "total_time": 246.9000506401062
            },
            {
                "note": 46,
                "velocity": 96,
                "time": 0,
                "total_time": 246.90007758140564
            },
            {
                "note": 46,
                "velocity": 0,
                "time": 0.14124976458333333,
                "total_time": 247.04092121124268
            },
            {
                "note": 41,
                "velocity": 96,
                "time": 0.008749985416666665,
                "total_time": 247.0497124195099
            },
            {
                "note": 34,
                "velocity": 0,
                "time": 0.08874985208333332,
                "total_time": 247.1384789943695
            },
            {
                "note": 78,
                "velocity": 0,
                "time": 0.044999924999999996,
                "total_time": 247.1834478378296
            },
            {
                "note": 66,
                "velocity": 0,
                "time": 0,
                "total_time": 247.18369054794312
            },
            {
                "note": 68,
                "velocity": 0,
                "time": 0,
                "total_time": 247.1838345527649
            },
            {
                "note": 41,
                "velocity": 0,
                "time": 0.007499987499999999,
                "total_time": 247.19097685813904
            },
            {
                "note": 85,
                "velocity": 127,
                "time": 0.008749985416666665,
                "total_time": 247.19971656799316
            },
            {
                "note": 73,
                "velocity": 112,
                "time": 0,
                "total_time": 247.20008158683777
            },
            {
                "note": 78,
                "velocity": 112,
                "time": 0,
                "total_time": 247.2002329826355
            },
            {
                "note": 35,
                "velocity": 112,
                "time": 0,
                "total_time": 247.20032238960266
            },
            {
                "note": 35,
                "velocity": 0,
                "time": 0,
                "total_time": 247.2004063129425
            },
            {
                "note": 35,
                "velocity": 112,
                "time": 0,
                "total_time": 247.20048809051514
            },
            {
                "note": 42,
                "velocity": 96,
                "time": 0,
                "total_time": 247.34974837303162
            },
            {
                "note": 42,
                "velocity": 0,
                "time": 0.14124976458333333,
                "total_time": 247.49091410636902
            },
            {
                "note": 85,
                "velocity": 0,
                "time": 0.008749985416666665,
                "total_time": 247.49968218803406
            },
            {
                "note": 47,
                "velocity": 96,
                "time": 0,
                "total_time": 247.49988460540771
            },
            {
                "note": 47,
                "velocity": 0,
                "time": 0.14124976458333333,
                "total_time": 247.64091658592224
            },
            {
                "note": 73,
                "velocity": 0,
                "time": 0.007499987499999999,
                "total_time": 247.6484570503235
            },
            {
                "note": 78,
                "velocity": 0,
                "time": 0,
                "total_time": 247.6486999988556
            },
            {
                "note": 83,
                "velocity": 127,
                "time": 0.0012499979166666665,
                "total_time": 247.64966344833374
            },
            {
                "note": 71,
                "velocity": 112,
                "time": 0,
                "total_time": 247.64976525306702
            },
            {
                "note": 75,
                "velocity": 112,
                "time": 0,
                "total_time": 247.6498212814331
            },
            {
                "note": 42,
                "velocity": 96,
                "time": 0,
                "total_time": 247.64985132217407
            },
            {
                "note": 42,
                "velocity": 0,
                "time": 0.14124976458333333,
                "total_time": 247.79095721244812
            },
            {
                "note": 51,
                "velocity": 96,
                "time": 0.008749985416666665,
                "total_time": 247.79976201057434
            },
            {
                "note": 51,
                "velocity": 0,
                "time": 0.14124976458333333,
                "total_time": 247.9409635066986
            },
            {
                "note": 83,
                "velocity": 0,
                "time": 0.008749985416666665,
                "total_time": 247.94968104362488
            },
            {
                "note": 42,
                "velocity": 96,
                "time": 0,
                "total_time": 247.94983005523682
            },
            {
                "note": 42,
                "velocity": 0,
                "time": 0.14124976458333333,
                "total_time": 248.09092020988464
            },
            {
                "note": 71,
                "velocity": 0,
                "time": 0.007499987499999999,
                "total_time": 248.09843564033508
            },
            {
                "note": 75,
                "velocity": 0,
                "time": 0,
                "total_time": 248.0986111164093
            },
            {
                "note": 82,
                "velocity": 127,
                "time": 0.0012499979166666665,
                "total_time": 248.09966468811035
            },
            {
                "note": 70,
                "velocity": 112,
                "time": 0,
                "total_time": 248.0997793674469
            },
            {
                "note": 78,
                "velocity": 112,
                "time": 0,
                "total_time": 248.0998306274414
            },
            {
                "note": 47,
                "velocity": 96,
                "time": 0,
                "total_time": 248.09985160827637
            },
            {
                "note": 47,
                "velocity": 0,
                "time": 0.14124976458333333,
                "total_time": 248.24093317985535
            },
            {
                "note": 42,
                "velocity": 96,
                "time": 0.008749985416666665,
                "total_time": 248.249685049057
            },
            {
                "note": 82,
                "velocity": 0,
                "time": 0.048749918749999996,
                "total_time": 248.29854321479797
            },
            {
                "note": 35,
                "velocity": 0,
                "time": 0.03999993333333333,
                "total_time": 248.33842945098877
            },
            {
                "note": 42,
                "velocity": 0,
                "time": 0.052499912499999996,
                "total_time": 248.39091658592224
            },
            {
                "note": 70,
                "velocity": 0,
                "time": 0.007499987499999999,
                "total_time": 248.39843273162842
            },
            {
                "note": 78,
                "velocity": 0,
                "time": 0,
                "total_time": 248.39858961105347
            },
            {
                "note": 77,
                "velocity": 127,
                "time": 0.0012499979166666665,
                "total_time": 248.39967727661133
            },
            {
                "note": 80,
                "velocity": 127,
                "time": 0,
                "total_time": 248.39981484413147
            },
            {
                "note": 68,
                "velocity": 112,
                "time": 0,
                "total_time": 248.39985704421997
            },
            {
                "note": 37,
                "velocity": 112,
                "time": 0,
                "total_time": 248.39989399909973
            },
            {
                "note": 37,
                "velocity": 0,
                "time": 0,
                "total_time": 248.39991664886475
            },
            {
                "note": 37,
                "velocity": 112,
                "time": 0,
                "total_time": 248.39993739128113
            },
            {
                "note": 68,
                "velocity": 0,
                "time": 0.14624975624999997,
                "total_time": 248.5484402179718
            },
            {
                "note": 70,
                "velocity": 112,
                "time": 0.0012499979166666665,
                "total_time": 248.54968094825745
            },
            {
                "note": 44,
                "velocity": 96,
                "time": 0,
                "total_time": 248.54989767074585
            },
            {
                "note": 44,
                "velocity": 0,
                "time": 0.14124976458333333,
                "total_time": 248.69102835655212
            },
            {
                "note": 70,
                "velocity": 0,
                "time": 0.007499987499999999,
                "total_time": 248.69854187965393
            },
            {
                "note": 68,
                "velocity": 112,
                "time": 0.0012499979166666665,
                "total_time": 248.69967794418335
            },
            {
                "note": 53,
                "velocity": 96,
                "time": 0,
                "total_time": 248.69990396499634
            },
            {
                "note": 53,
                "velocity": 0,
                "time": 0.14124976458333333,
                "total_time": 248.8409459590912
            },
            {
                "note": 68,
                "velocity": 0,
                "time": 0.007499987499999999,
                "total_time": 248.848464012146
            },
            {
                "note": 66,
                "velocity": 112,
                "time": 0.0012499979166666665,
                "total_time": 248.84966778755188
            },
            {
                "note": 44,
                "velocity": 96,
                "time": 0,
                "total_time": 248.8498616218567
            },
            {
                "note": 37,
                "velocity": 0,
                "time": 0.11874980208333331,
                "total_time": 248.96844816207886
            },
            {
                "note": 44,
                "velocity": 0,
                "time": 0.022499962499999998,
                "total_time": 248.99094247817993
            },
            {
                "note": 66,
                "velocity": 0,
                "time": 0.007499987499999999,
                "total_time": 248.99847412109375
            },
            {
                "note": 65,
                "velocity": 112,
                "time": 0.0012499979166666665,
                "total_time": 248.9998424053192
            },
            {
                "note": 38,
                "velocity": 112,
                "time": 0,
                "total_time": 249.00014805793762
            },
            {
                "note": 38,
                "velocity": 0,
                "time": 0,
                "total_time": 249.00025820732117
            },
            {
                "note": 38,
                "velocity": 112,
                "time": 0,
                "total_time": 249.0003321170807
            },
            {
                "note": 65,
                "velocity": 0,
                "time": 0.14624975624999997,
                "total_time": 249.14852809906006
            },
            {
                "note": 62,
                "velocity": 112,
                "time": 0.0012499979166666665,
                "total_time": 249.1497106552124
            },
            {
                "note": 46,
                "velocity": 96,
                "time": 0,
                "total_time": 249.150395154953
            },
            {
                "note": 77,
                "velocity": 0,
                "time": 0.052499912499999996,
                "total_time": 249.2021963596344
            },
            {
                "note": 80,
                "velocity": 0,
                "time": 0,
                "total_time": 249.20239973068237
            },
            {
                "note": 46,
                "velocity": 0,
                "time": 0.08874985208333332,
                "total_time": 249.2909164428711
            },
            {
                "note": 62,
                "velocity": 0,
                "time": 0.007499987499999999,
                "total_time": 249.29841589927673
            },
            {
                "note": 68,
                "velocity": 112,
                "time": 0.0012499979166666665,
                "total_time": 249.2996699810028
            },
            {
                "note": 50,
                "velocity": 96,
                "time": 0,
                "total_time": 249.2998366355896
            },
            {
                "note": 50,
                "velocity": 0,
                "time": 0.14124976458333333,
                "total_time": 249.44094491004944
            },
            {
                "note": 68,
                "velocity": 0,
                "time": 0.007499987499999999,
                "total_time": 249.44842910766602
            },
            {
                "note": 65,
                "velocity": 112,
                "time": 0.0012499979166666665,
                "total_time": 249.4497151374817
            },
            {
                "note": 46,
                "velocity": 96,
                "time": 0,
                "total_time": 249.44985604286194
            },
            {
                "note": 38,
                "velocity": 0,
                "time": 0.11874980208333331,
                "total_time": 249.5684142112732
            },
            {
                "note": 65,
                "velocity": 0,
                "time": 0.022499962499999998,
                "total_time": 249.59091567993164
            },
            {
                "note": 46,
                "velocity": 0,
                "time": 0,
                "total_time": 249.59101843833923
            },
            {
                "note": 78,
                "velocity": 127,
                "time": 0.008749985416666665,
                "total_time": 249.59970092773438
            },
            {
                "note": 66,
                "velocity": 112,
                "time": 0,
                "total_time": 249.60000586509705
            },
            {
                "note": 75,
                "velocity": 112,
                "time": 0,
                "total_time": 249.60006427764893
            },
            {
                "note": 39,
                "velocity": 112,
                "time": 0,
                "total_time": 249.60009217262268
            },
            {
                "note": 39,
                "velocity": 0,
                "time": 0,
                "total_time": 249.60011506080627
            },
            {
                "note": 39,
                "velocity": 112,
                "time": 0,
                "total_time": 249.60013914108276
            },
            {
                "note": 46,
                "velocity": 96,
                "time": 0,
                "total_time": 249.74986028671265
            },
            {
                "note": 46,
                "velocity": 0,
                "time": 0.14124976458333333,
                "total_time": 249.89092874526978
            },
            {
                "note": 78,
                "velocity": 0,
                "time": 0.008749985416666665,
                "total_time": 249.89970588684082
            },
            {
                "note": 51,
                "velocity": 96,
                "time": 0,
                "total_time": 249.89994168281555
            },
            {
                "note": 51,
                "velocity": 0,
                "time": 0.14124976458333333,
                "total_time": 250.0409824848175
            },
            {
                "note": 66,
                "velocity": 0,
                "time": 0.007499987499999999,
                "total_time": 250.04851984977722
            },
            {
                "note": 75,
                "velocity": 0,
                "time": 0,
                "total_time": 250.04877400398254
            },
            {
                "note": 77,
                "velocity": 112,
                "time": 0.0012499979166666665,
                "total_time": 250.04970622062683
            },
            {
                "note": 65,
                "velocity": 112,
                "time": 0,
                "total_time": 250.05000162124634
            },
            {
                "note": 70,
                "velocity": 112,
                "time": 0,
                "total_time": 250.05009698867798
            },
            {
                "note": 46,
                "velocity": 96,
                "time": 0,
                "total_time": 250.05018019676208
            },
            {
                "note": 46,
                "velocity": 0,
                "time": 0.14124976458333333,
                "total_time": 250.19092988967896
            },
            {
                "note": 54,
                "velocity": 96,
                "time": 0.008749985416666665,
                "total_time": 250.199693441391
            },
            {
                "note": 54,
                "velocity": 0,
                "time": 0.14124976458333333,
                "total_time": 250.34092497825623
            },
            {
                "note": 46,
                "velocity": 96,
                "time": 0.008749985416666665,
                "total_time": 250.34969639778137
            },
            {
                "note": 46,
                "velocity": 0,
                "time": 0.14124976458333333,
                "total_time": 250.49093413352966
            },
            {
                "note": 77,
                "velocity": 0,
                "time": 0.007499987499999999,
                "total_time": 250.49845695495605
            },
            {
                "note": 65,
                "velocity": 0,
                "time": 0,
                "total_time": 250.49875164031982
            },
            {
                "note": 70,
                "velocity": 0,
                "time": 0,
                "total_time": 250.49886965751648
            },
            {
                "note": 78,
                "velocity": 112,
                "time": 0.0012499979166666665,
                "total_time": 250.49967288970947
            },
            {
                "note": 66,
                "velocity": 112,
                "time": 0,
                "total_time": 250.50004029273987
            },
            {
                "note": 70,
                "velocity": 112,
                "time": 0,
                "total_time": 250.50022387504578
            },
            {
                "note": 51,
                "velocity": 96,
                "time": 0,
                "total_time": 250.5003354549408
            },
            {
                "note": 51,
                "velocity": 0,
                "time": 0.14124976458333333,
                "total_time": 250.64101314544678
            },
            {
                "note": 46,
                "velocity": 96,
                "time": 0.008749985416666665,
                "total_time": 250.6497642993927
            },
            {
                "note": 39,
                "velocity": 0,
                "time": 0.08874985208333332,
                "total_time": 250.73853707313538
            },
            {
                "note": 78,
                "velocity": 0,
                "time": 0.044999924999999996,
                "total_time": 250.783531665802
            },
            {
                "note": 66,
                "velocity": 0,
                "time": 0,
                "total_time": 250.7842652797699
            },
            {
                "note": 70,
                "velocity": 0,
                "time": 0,
                "total_time": 250.78451442718506
            },
            {
                "note": 46,
                "velocity": 0,
                "time": 0.007499987499999999,
                "total_time": 250.79093503952026
            },
            {
                "note": 82,
                "velocity": 127,
                "time": 0.008749985416666665,
                "total_time": 250.79969191551208
            },
            {
                "note": 70,
                "velocity": 112,
                "time": 0,
                "total_time": 250.79994082450867
            },
            {
                "note": 77,
                "velocity": 112,
                "time": 0,
                "total_time": 250.80005645751953
            },
            {
                "note": 37,
                "velocity": 112,
                "time": 0,
                "total_time": 250.80012369155884
            },
            {
                "note": 37,
                "velocity": 0,
                "time": 0,
                "total_time": 250.80018520355225
            },
            {
                "note": 37,
                "velocity": 112,
                "time": 0,
                "total_time": 250.80024528503418
            },
            {
                "note": 46,
                "velocity": 96,
                "time": 0,
                "total_time": 250.94989657402039
            },
            {
                "note": 46,
                "velocity": 0,
                "time": 0.14124976458333333,
                "total_time": 251.090913772583
            },
            {
                "note": 49,
                "velocity": 96,
                "time": 0.008749985416666665,
                "total_time": 251.09966897964478
            },
            {
                "note": 49,
                "velocity": 0,
                "time": 0.14124976458333333,
                "total_time": 251.2409839630127
            },
            {
                "note": 46,
                "velocity": 96,
                "time": 0.008749985416666665,
                "total_time": 251.2497067451477
            },
            {
                "note": 46,
                "velocity": 0,
                "time": 0.14124976458333333,
                "total_time": 251.39101219177246
            },
            {
                "note": 53,
                "velocity": 96,
                "time": 0.008749985416666665,
                "total_time": 251.3997197151184
            },
            {
                "note": 82,
                "velocity": 0,
                "time": 0.0012499979166666665,
                "total_time": 251.40093731880188
            },
            {
                "note": 53,
                "velocity": 0,
                "time": 0.13999976666666664,
                "total_time": 251.54092502593994
            },
            {
                "note": 46,
                "velocity": 96,
                "time": 0.008749985416666665,
                "total_time": 251.54971408843994
            },
            {
                "note": 46,
                "velocity": 0,
                "time": 0.14124976458333333,
                "total_time": 251.6909375190735
            },
            {
                "note": 70,
                "velocity": 0,
                "time": 0.007499987499999999,
                "total_time": 251.6984579563141
            },
            {
                "note": 77,
                "velocity": 0,
                "time": 0,
                "total_time": 251.69875049591064
            },
            {
                "note": 77,
                "velocity": 112,
                "time": 0.0012499979166666665,
                "total_time": 251.69974327087402
            },
            {
                "note": 65,
                "velocity": 112,
                "time": 0,
                "total_time": 251.7000286579132
            },
            {
                "note": 70,
                "velocity": 112,
                "time": 0,
                "total_time": 251.70013284683228
            },
            {
                "note": 49,
                "velocity": 96,
                "time": 0,
                "total_time": 251.7002170085907
            },
            {
                "note": 49,
                "velocity": 0,
                "time": 0.14124976458333333,
                "total_time": 251.8410153388977
            },
            {
                "note": 46,
                "velocity": 96,
                "time": 0.008749985416666665,
                "total_time": 251.8497154712677
            },
            {
                "note": 37,
                "velocity": 0,
                "time": 0.08874985208333332,
                "total_time": 251.93843340873718
            },
            {
                "note": 77,
                "velocity": 0,
                "time": 0.044999924999999996,
                "total_time": 251.9834418296814
            },
            {
                "note": 65,
                "velocity": 0,
                "time": 0,
                "total_time": 251.98362684249878
            },
            {
                "note": 70,
                "velocity": 0,
                "time": 0,
                "total_time": 251.98368525505066
            },
            {
                "note": 46,
                "velocity": 0,
                "time": 0.007499987499999999,
                "total_time": 251.99091958999634
            },
            {
                "note": 75,
                "velocity": 127,
                "time": 0.008749985416666665,
                "total_time": 251.99967169761658
            },
            {
                "note": 63,
                "velocity": 112,
                "time": 0,
                "total_time": 251.99985241889954
            },
            {
                "note": 72,
                "velocity": 112,
                "time": 0,
                "total_time": 251.99990439414978
            },
            {
                "note": 36,
                "velocity": 112,
                "time": 0,
                "total_time": 251.9999294281006
            },
            {
                "note": 36,
                "velocity": 0,
                "time": 0,
                "total_time": 251.99995160102844
            },
            {
                "note": 36,
                "velocity": 112,
                "time": 0,
                "total_time": 251.9999737739563
            },
            {
                "note": 44,
                "velocity": 96,
                "time": 0,
                "total_time": 252.14977598190308
            },
            {
                "note": 44,
                "velocity": 0,
                "time": 0.14124976458333333,
                "total_time": 252.29091358184814
            },
            {
                "note": 48,
                "velocity": 96,
                "time": 0.008749985416666665,
                "total_time": 252.29972529411316
            },
            {
                "note": 48,
                "velocity": 0,
                "time": 0.14124976458333333,
                "total_time": 252.44098114967346
            },
            {
                "note": 44,
                "velocity": 96,
                "time": 0.008749985416666665,
                "total_time": 252.44969868659973
            },
            {
                "note": 44,
                "velocity": 0,
                "time": 0.14124976458333333,
                "total_time": 252.59091997146606
            },
            {
                "note": 51,
                "velocity": 96,
                "time": 0.008749985416666665,
                "total_time": 252.5997154712677
            },
            {
                "note": 51,
                "velocity": 0,
                "time": 0.14124976458333333,
                "total_time": 252.74090695381165
            },
            {
                "note": 44,
                "velocity": 96,
                "time": 0.008749985416666665,
                "total_time": 252.74969100952148
            },
            {
                "note": 75,
                "velocity": 0,
                "time": 0.052499912499999996,
                "total_time": 252.80217051506042
            },
            {
                "note": 44,
                "velocity": 0,
                "time": 0.08874985208333332,
                "total_time": 252.8909113407135
            },
            {
                "note": 48,
                "velocity": 96,
                "time": 0.008749985416666665,
                "total_time": 252.89968371391296
            },
            {
                "note": 48,
                "velocity": 0,
                "time": 0.14124976458333333,
                "total_time": 253.04097151756287
            },
            {
                "note": 44,
                "velocity": 96,
                "time": 0.008749985416666665,
                "total_time": 253.04968881607056
            },
            {
                "note": 63,
                "velocity": 0,
                "time": 0.08874985208333332,
                "total_time": 253.1384539604187
            },
            {
                "note": 72,
                "velocity": 0,
                "time": 0,
                "total_time": 253.1387002468109
            },
            {
                "note": 36,
                "velocity": 0,
                "time": 0,
                "total_time": 253.1387586593628
            },
            {
                "note": 44,
                "velocity": 0,
                "time": 0.052499912499999996,
                "total_time": 253.19092273712158
            },
            {
                "note": 75,
                "velocity": 112,
                "time": 0.008749985416666665,
                "total_time": 253.19966220855713
            },
            {
                "note": 63,
                "velocity": 112,
                "time": 0,
                "total_time": 253.1998839378357
            },
            {
                "note": 68,
                "velocity": 112,
                "time": 0,
                "total_time": 253.19996166229248
            },
            {
                "note": 32,
                "velocity": 112,
                "time": 0,
                "total_time": 253.20004630088806
            },
            {
                "note": 32,
                "velocity": 0,
                "time": 0,
                "total_time": 253.2001292705536
            },
            {
                "note": 32,
                "velocity": 112,
                "time": 0,
                "total_time": 253.20021176338196
            },
            {
                "note": 39,
                "velocity": 96,
                "time": 0,
                "total_time": 253.3497896194458
            },
            {
                "note": 39,
                "velocity": 0,
                "time": 0.14124976458333333,
                "total_time": 253.49090552330017
            },
            {
                "note": 75,
                "velocity": 0,
                "time": 0.007499987499999999,
                "total_time": 253.4984495639801
            },
            {
                "note": 63,
                "velocity": 0,
                "time": 0,
                "total_time": 253.49868416786194
            },
            {
                "note": 68,
                "velocity": 0,
                "time": 0,
                "total_time": 253.49872612953186
            },
            {
                "note": 78,
                "velocity": 112,
                "time": 0.0012499979166666665,
                "total_time": 253.4996678829193
            },
            {
                "note": 66,
                "velocity": 112,
                "time": 0,
                "total_time": 253.49978947639465
            },
            {
                "note": 72,
                "velocity": 112,
                "time": 0,
                "total_time": 253.49986267089844
            },
            {
                "note": 44,
                "velocity": 96,
                "time": 0,
                "total_time": 253.49989891052246
            },
            {
                "note": 44,
                "velocity": 0,
                "time": 0.14124976458333333,
                "total_time": 253.64090943336487
            },
            {
                "note": 48,
                "velocity": 96,
                "time": 0.008749985416666665,
                "total_time": 253.64973282814026
            },
            {
                "note": 32,
                "velocity": 0,
                "time": 0.11874980208333331,
                "total_time": 253.76847124099731
            },
            {
                "note": 48,
                "velocity": 0,
                "time": 0.022499962499999998,
                "total_time": 253.79087352752686
            },
            {
                "note": 78,
                "velocity": 0,
                "time": 0.007499987499999999,
                "total_time": 253.7984380722046
            },
            {
                "note": 66,
                "velocity": 0,
                "time": 0,
                "total_time": 253.79863238334656
            },
            {
                "note": 72,
                "velocity": 0,
                "time": 0,
                "total_time": 253.79866695404053
            },
            {
                "note": 80,
                "velocity": 112,
                "time": 0.0012499979166666665,
                "total_time": 253.79966568946838
            },
            {
                "note": 68,
                "velocity": 112,
                "time": 0,
                "total_time": 253.79984641075134
            },
            {
                "note": 75,
                "velocity": 112,
                "time": 0,
                "total_time": 253.79989361763
            },
            {
                "note": 42,
                "velocity": 112,
                "time": 0,
                "total_time": 253.79993176460266
            },
            {
                "note": 42,
                "velocity": 0,
                "time": 0,
                "total_time": 253.79998898506165
            },
            {
                "note": 42,
                "velocity": 112,
                "time": 0,
                "total_time": 253.80004787445068
            },
            {
                "note": 48,
                "velocity": 96,
                "time": 0,
                "total_time": 253.9498507976532
            },
            {
                "note": 48,
                "velocity": 0,
                "time": 0.14124976458333333,
                "total_time": 254.0909607410431
            },
            {
                "note": 80,
                "velocity": 0,
                "time": 0.007499987499999999,
                "total_time": 254.0984537601471
            },
            {
                "note": 68,
                "velocity": 0,
                "time": 0,
                "total_time": 254.09871435165405
            },
            {
                "note": 75,
                "velocity": 0,
                "time": 0,
                "total_time": 254.09886407852173
            },
            {
                "note": 82,
                "velocity": 112,
                "time": 0.0012499979166666665,
                "total_time": 254.0996868610382
            },
            {
                "note": 70,
                "velocity": 112,
                "time": 0,
                "total_time": 254.09993839263916
            },
            {
                "note": 78,
                "velocity": 112,
                "time": 0,
                "total_time": 254.10003423690796
            },
            {
                "note": 54,
                "velocity": 96,
                "time": 0,
                "total_time": 254.1001091003418
            },
            {
                "note": 54,
                "velocity": 0,
                "time": 0.14124976458333333,
                "total_time": 254.2409267425537
            },
            {
                "note": 48,
                "velocity": 96,
                "time": 0.008749985416666665,
                "total_time": 254.2496907711029
            },
            {
                "note": 42,
                "velocity": 0,
                "time": 0.11874980208333331,
                "total_time": 254.36846041679382
            },
            {
                "note": 82,
                "velocity": 0,
                "time": 0.014999974999999999,
                "total_time": 254.38367319107056
            },
            {
                "note": 70,
                "velocity": 0,
                "time": 0,
                "total_time": 254.3840992450714
            },
            {
                "note": 78,
                "velocity": 0,
                "time": 0,
                "total_time": 254.38426327705383
            },
            {
                "note": 48,
                "velocity": 0,
                "time": 0.007499987499999999,
                "total_time": 254.39093828201294
            },
            {
                "note": 83,
                "velocity": 127,
                "time": 0.008749985416666665,
                "total_time": 254.39969778060913
            },
            {
                "note": 71,
                "velocity": 112,
                "time": 0,
                "total_time": 254.4000289440155
            },
            {
                "note": 80,
                "velocity": 112,
                "time": 0,
                "total_time": 254.40016222000122
            },
            {
                "note": 40,
                "velocity": 112,
                "time": 0,
                "total_time": 254.40023851394653
            },
            {
                "note": 40,
                "velocity": 0,
                "time": 0,
                "total_time": 254.4003038406372
            },
            {
                "note": 40,
                "velocity": 112,
                "time": 0,
                "total_time": 254.40036988258362
            },
            {
                "note": 47,
                "velocity": 96,
                "time": 0,
                "total_time": 254.54987263679504
            },
            {
                "note": 47,
                "velocity": 0,
                "time": 0.14124976458333333,
                "total_time": 254.6909055709839
            },
            {
                "note": 83,
                "velocity": 0,
                "time": 0.008749985416666665,
                "total_time": 254.69965052604675
            },
            {
                "note": 52,
                "velocity": 96,
                "time": 0,
                "total_time": 254.6997263431549
            },
            {
                "note": 52,
                "velocity": 0,
                "time": 0.14124976458333333,
                "total_time": 254.84097528457642
            },
            {
                "note": 71,
                "velocity": 0,
                "time": 0.007499987499999999,
                "total_time": 254.8484501838684
            },
            {
                "note": 80,
                "velocity": 0,
                "time": 0,
                "total_time": 254.84870743751526
            },
            {
                "note": 82,
                "velocity": 112,
                "time": 0.0012499979166666665,
                "total_time": 254.84976887702942
            },
            {
                "note": 70,
                "velocity": 112,
                "time": 0,
                "total_time": 254.850106716156
            },
            {
                "note": 78,
                "velocity": 112,
                "time": 0,
                "total_time": 254.85038924217224
            },
            {
                "note": 47,
                "velocity": 96,
                "time": 0,
                "total_time": 254.85048294067383
            },
            {
                "note": 47,
                "velocity": 0,
                "time": 0.14124976458333333,
                "total_time": 254.99100303649902
            },
            {
                "note": 56,
                "velocity": 96,
                "time": 0.008749985416666665,
                "total_time": 254.9996998310089
            },
            {
                "note": 56,
                "velocity": 0,
                "time": 0.14124976458333333,
                "total_time": 255.14091777801514
            },
            {
                "note": 47,
                "velocity": 96,
                "time": 0.008749985416666665,
                "total_time": 255.14977407455444
            },
            {
                "note": 47,
                "velocity": 0,
                "time": 0.14124976458333333,
                "total_time": 255.29097723960876
            },
            {
                "note": 82,
                "velocity": 0,
                "time": 0.007499987499999999,
                "total_time": 255.29843521118164
            },
            {
                "note": 70,
                "velocity": 0,
                "time": 0,
                "total_time": 255.29864382743835
            },
            {
                "note": 78,
                "velocity": 0,
                "time": 0,
                "total_time": 255.2987036705017
            },
            {
                "note": 80,
                "velocity": 112,
                "time": 0.0012499979166666665,
                "total_time": 255.29971647262573
            },
            {
                "note": 68,
                "velocity": 112,
                "time": 0,
                "total_time": 255.2999951839447
            },
            {
                "note": 71,
                "velocity": 112,
                "time": 0,
                "total_time": 255.30009174346924
            },
            {
                "note": 52,
                "velocity": 96,
                "time": 0,
                "total_time": 255.30016541481018
            },
            {
                "note": 52,
                "velocity": 0,
                "time": 0.14124976458333333,
                "total_time": 255.44090366363525
            },
            {
                "note": 47,
                "velocity": 96,
                "time": 0.008749985416666665,
                "total_time": 255.4496865272522
            },
            {
                "note": 40,
                "velocity": 0,
                "time": 0.08874985208333332,
                "total_time": 255.53845620155334
            },
            {
                "note": 80,
                "velocity": 0,
                "time": 0.044999924999999996,
                "total_time": 255.58343648910522
            },
            {
                "note": 68,
                "velocity": 0,
                "time": 0,
                "total_time": 255.5836684703827
            },
            {
                "note": 71,
                "velocity": 0,
                "time": 0,
                "total_time": 255.58370995521545
            },
            {
                "note": 47,
                "velocity": 0,
                "time": 0.007499987499999999,
                "total_time": 255.590913772583
            },
            {
                "note": 78,
                "velocity": 112,
                "time": 0.008749985416666665,
                "total_time": 255.59964990615845
            },
            {
                "note": 66,
                "velocity": 112,
                "time": 0,
                "total_time": 255.5997657775879
            },
            {
                "note": 70,
                "velocity": 112,
                "time": 0,
                "total_time": 255.59979557991028
            },
            {
                "note": 35,
                "velocity": 112,
                "time": 0,
                "total_time": 255.5998330116272
            },
            {
                "note": 35,
                "velocity": 0,
                "time": 0,
                "total_time": 255.59985756874084
            },
            {
                "note": 35,
                "velocity": 112,
                "time": 0,
                "total_time": 255.59988045692444
            },
            {
                "note": 42,
                "velocity": 96,
                "time": 0,
                "total_time": 255.75019550323486
            },
            {
                "note": 42,
                "velocity": 0,
                "time": 0.14124976458333333,
                "total_time": 255.891047000885
            },
            {
                "note": 78,
                "velocity": 0,
                "time": 0.007499987499999999,
                "total_time": 255.89855217933655
            },
            {
                "note": 66,
                "velocity": 0,
                "time": 0,
                "total_time": 255.8988778591156
            },
            {
                "note": 70,
                "velocity": 0,
                "time": 0,
                "total_time": 255.89893913269043
            },
            {
                "note": 75,
                "velocity": 112,
                "time": 0.0012499979166666665,
                "total_time": 255.89966940879822
            },
            {
                "note": 63,
                "velocity": 112,
                "time": 0,
                "total_time": 255.89976358413696
            },
            {
                "note": 66,
                "velocity": 112,
                "time": 0,
                "total_time": 255.89983654022217
            },
            {
                "note": 47,
                "velocity": 96,
                "time": 0,
                "total_time": 255.89988327026367
            },
            {
                "note": 47,
                "velocity": 0,
                "time": 0.14124976458333333,
                "total_time": 256.0409436225891
            },
            {
                "note": 42,
                "velocity": 96,
                "time": 0.008749985416666665,
                "total_time": 256.04968786239624
            },
            {
                "note": 42,
                "velocity": 0,
                "time": 0.14124976458333333,
                "total_time": 256.1909222602844
            },
            {
                "note": 75,
                "velocity": 0,
                "time": 0.007499987499999999,
                "total_time": 256.19844937324524
            },
            {
                "note": 63,
                "velocity": 0,
                "time": 0,
                "total_time": 256.19866585731506
            },
            {
                "note": 66,
                "velocity": 0,
                "time": 0,
                "total_time": 256.1987373828888
            },
            {
                "note": 78,
                "velocity": 112,
                "time": 0.0012499979166666665,
                "total_time": 256.1996555328369
            },
            {
                "note": 66,
                "velocity": 112,
                "time": 0,
                "total_time": 256.1998391151428
            },
            {
                "note": 70,
                "velocity": 112,
                "time": 0,
                "total_time": 256.19991087913513
            },
            {
                "note": 51,
                "velocity": 96,
                "time": 0,
                "total_time": 256.1999776363373
            },
            {
                "note": 51,
                "velocity": 0,
                "time": 0.14124976458333333,
                "total_time": 256.3408958911896
            },
            {
                "note": 42,
                "velocity": 96,
                "time": 0.008749985416666665,
                "total_time": 256.3496718406677
            },
            {
                "note": 42,
                "velocity": 0,
                "time": 0.14124976458333333,
                "total_time": 256.4909040927887
            },
            {
                "note": 78,
                "velocity": 0,
                "time": 0.007499987499999999,
                "total_time": 256.49842834472656
            },
            {
                "note": 66,
                "velocity": 0,
                "time": 0,
                "total_time": 256.4986083507538
            },
            {
                "note": 70,
                "velocity": 0,
                "time": 0,
                "total_time": 256.49864625930786
            },
            {
                "note": 82,
                "velocity": 112,
                "time": 0.0012499979166666665,
                "total_time": 256.49960708618164
            },
            {
                "note": 70,
                "velocity": 112,
                "time": 0,
                "total_time": 256.49970149993896
            },
            {
                "note": 75,
                "velocity": 112,
                "time": 0,
                "total_time": 256.4997308254242
            },
            {
                "note": 47,
                "velocity": 96,
                "time": 0,
                "total_time": 256.49975323677063
            },
            {
                "note": 47,
                "velocity": 0,
                "time": 0.14124976458333333,
                "total_time": 256.6409533023834
            },
            {
                "note": 42,
                "velocity": 96,
                "time": 0.008749985416666665,
                "total_time": 256.6499285697937
            },
            {
                "note": 35,
                "velocity": 0,
                "time": 0.08874985208333332,
                "total_time": 256.7384452819824
            },
            {
                "note": 82,
                "velocity": 0,
                "time": 0.044999924999999996,
                "total_time": 256.78389739990234
            },
            {
                "note": 70,
                "velocity": 0,
                "time": 0,
                "total_time": 256.78440523147583
            },
            {
                "note": 75,
                "velocity": 0,
                "time": 0,
                "total_time": 256.7845366001129
            },
            {
                "note": 42,
                "velocity": 0,
                "time": 0.007499987499999999,
                "total_time": 256.7909457683563
            },
            {
                "note": 80,
                "velocity": 127,
                "time": 0.008749985416666665,
                "total_time": 256.7997326850891
            },
            {
                "note": 68,
                "velocity": 112,
                "time": 0,
                "total_time": 256.800089597702
            },
            {
                "note": 73,
                "velocity": 112,
                "time": 0,
                "total_time": 256.80021834373474
            },
            {
                "note": 37,
                "velocity": 112,
                "time": 0,
                "total_time": 256.8002951145172
            },
            {
                "note": 37,
                "velocity": 0,
                "time": 0,
                "total_time": 256.80036664009094
            },
            {
                "note": 37,
                "velocity": 112,
                "time": 0,
                "total_time": 256.80043864250183
            },
            {
                "note": 44,
                "velocity": 96,
                "time": 0,
                "total_time": 256.9499821662903
            },
            {
                "note": 44,
                "velocity": 0,
                "time": 0.14124976458333333,
                "total_time": 257.09093594551086
            },
            {
                "note": 49,
                "velocity": 96,
                "time": 0.008749985416666665,
                "total_time": 257.09966945648193
            },
            {
                "note": 49,
                "velocity": 0,
                "time": 0.14124976458333333,
                "total_time": 257.24089884757996
            },
            {
                "note": 53,
                "velocity": 96,
                "time": 0.008749985416666665,
                "total_time": 257.2496783733368
            },
            {
                "note": 53,
                "velocity": 0,
                "time": 0.14124976458333333,
                "total_time": 257.3909070491791
            },
            {
                "note": 56,
                "velocity": 96,
                "time": 0.008749985416666665,
                "total_time": 257.3997254371643
            },
            {
                "note": 56,
                "velocity": 0,
                "time": 0.14124976458333333,
                "total_time": 257.5409049987793
            },
            {
                "note": 53,
                "velocity": 96,
                "time": 0.008749985416666665,
                "total_time": 257.5497043132782
            },
            {
                "note": 80,
                "velocity": 0,
                "time": 0.052499912499999996,
                "total_time": 257.60216784477234
            },
            {
                "note": 53,
                "velocity": 0,
                "time": 0.08874985208333332,
                "total_time": 257.6910264492035
            },
            {
                "note": 49,
                "velocity": 96,
                "time": 0.008749985416666665,
                "total_time": 257.6996855735779
            },
            {
                "note": 49,
                "velocity": 0,
                "time": 0.14874975208333333,
                "total_time": 257.84845423698425
            },
            {
                "note": 68,
                "velocity": 0,
                "time": 0.08999984999999999,
                "total_time": 257.9384574890137
            },
            {
                "note": 73,
                "velocity": 0,
                "time": 0,
                "total_time": 257.9387230873108
            },
            {
                "note": 37,
                "velocity": 0,
                "time": 0,
                "total_time": 257.9388585090637
            },
            {
                "note": 65,
                "velocity": 127,
                "time": 0.06124989791666666,
                "total_time": 257.99970602989197
            },
            {
                "note": 73,
                "velocity": 127,
                "time": 0,
                "total_time": 257.999902009964
            },
            {
                "note": 77,
                "velocity": 127,
                "time": 0,
                "total_time": 257.99993228912354
            },
            {
                "note": 37,
                "velocity": 127,
                "time": 0,
                "total_time": 257.9999659061432
            },
            {
                "note": 44,
                "velocity": 127,
                "time": 0,
                "total_time": 257.9999985694885
            },
            {
                "note": 49,
                "velocity": 127,
                "time": 0,
                "total_time": 258.00001883506775
            },
            {
                "note": 65,
                "velocity": 0,
                "time": 0.39874933541666663,
                "total_time": 258.3996968269348
            },
            {
                "note": 73,
                "velocity": 0,
                "time": 0,
                "total_time": 258.4000265598297
            },
            {
                "note": 77,
                "velocity": 0,
                "time": 0,
                "total_time": 258.4001579284668
            },
            {
                "note": 37,
                "velocity": 0,
                "time": 0,
                "total_time": 258.40025901794434
            },
            {
                "note": 44,
                "velocity": 0,
                "time": 0,
                "total_time": 258.40041399002075
            },
            {
                "note": 49,
                "velocity": 0,
                "time": 0,
                "total_time": 258.4005434513092
            },
            {
                "note": 61,
                "velocity": 127,
                "time": 0.19999966666666663,
                "total_time": 258.5996913909912
            },
            {
                "note": 70,
                "velocity": 127,
                "time": 0,
                "total_time": 258.59996008872986
            },
            {
                "note": 73,
                "velocity": 127,
                "time": 0,
                "total_time": 258.5999958515167
            },
            {
                "note": 41,
                "velocity": 127,
                "time": 0,
                "total_time": 258.6000189781189
            },
            {
                "note": 49,
                "velocity": 127,
                "time": 0,
                "total_time": 258.6000418663025
            },
            {
                "note": 53,
                "velocity": 127,
                "time": 0,
                "total_time": 258.60006380081177
            },
            {
                "note": 61,
                "velocity": 0,
                "time": 0.39999933333333326,
                "total_time": 258.99968552589417
            },
            {
                "note": 70,
                "velocity": 0,
                "time": 0,
                "total_time": 258.99983954429626
            },
            {
                "note": 73,
                "velocity": 0,
                "time": 0,
                "total_time": 258.99986839294434
            },
            {
                "note": 41,
                "velocity": 0,
                "time": 0,
                "total_time": 258.99989008903503
            },
            {
                "note": 49,
                "velocity": 0,
                "time": 0,
                "total_time": 258.9999108314514
            },
            {
                "note": 53,
                "velocity": 0,
                "time": 0,
                "total_time": 258.9999318122864
            },
            {
                "note": 75,
                "velocity": 127,
                "time": 0.19999966666666663,
                "total_time": 259.1996774673462
            },
            {
                "note": 66,
                "velocity": 112,
                "time": 0,
                "total_time": 259.1998598575592
            },
            {
                "note": 39,
                "velocity": 112,
                "time": 0,
                "total_time": 259.1999146938324
            },
            {
                "note": 39,
                "velocity": 0,
                "time": 0,
                "total_time": 259.1999499797821
            },
            {
                "note": 39,
                "velocity": 112,
                "time": 0,
                "total_time": 259.1999714374542
            },
            {
                "note": 46,
                "velocity": 96,
                "time": 0,
                "total_time": 259.34985184669495
            },
            {
                "note": 46,
                "velocity": 0,
                "time": 0.14124976458333333,
                "total_time": 259.4909198284149
            },
            {
                "note": 51,
                "velocity": 96,
                "time": 0.008749985416666665,
                "total_time": 259.4997615814209
            },
            {
                "note": 51,
                "velocity": 0,
                "time": 0.14124976458333333,
                "total_time": 259.6410188674927
            },
            {
                "note": 46,
                "velocity": 96,
                "time": 0.008749985416666665,
                "total_time": 259.64970779418945
            },
            {
                "note": 46,
                "velocity": 0,
                "time": 0.14124976458333333,
                "total_time": 259.79092812538147
            },
            {
                "note": 54,
                "velocity": 96,
                "time": 0.008749985416666665,
                "total_time": 259.79969000816345
            },
            {
                "note": 75,
                "velocity": 0,
                "time": 0.0012499979166666665,
                "total_time": 259.8009159564972
            },
            {
                "note": 54,
                "velocity": 0,
                "time": 0.13999976666666664,
                "total_time": 259.94089460372925
            },
            {
                "note": 46,
                "velocity": 96,
                "time": 0.008749985416666665,
                "total_time": 259.9496603012085
            },
            {
                "note": 46,
                "velocity": 0,
                "time": 0.14124976458333333,
                "total_time": 260.090918302536
            },
            {
                "note": 78,
                "velocity": 112,
                "time": 0.008749985416666665,
                "total_time": 260.09973216056824
            },
            {
                "note": 51,
                "velocity": 96,
                "time": 0,
                "total_time": 260.1001000404358
            },
            {
                "note": 51,
                "velocity": 0,
                "time": 0.14124976458333333,
                "total_time": 260.24092626571655
            },
            {
                "note": 46,
                "velocity": 96,
                "time": 0.008749985416666665,
                "total_time": 260.2496929168701
            },
            {
                "note": 39,
                "velocity": 0,
                "time": 0.08874985208333332,
                "total_time": 260.3384680747986
            },
            {
                "note": 78,
                "velocity": 0,
                "time": 0.044999924999999996,
                "total_time": 260.3834581375122
            },
            {
                "note": 46,
                "velocity": 0,
                "time": 0.007499987499999999,
                "total_time": 260.3909282684326
            },
            {
                "note": 66,
                "velocity": 0,
                "time": 0.007499987499999999,
                "total_time": 260.3984372615814
            },
            {
                "note": 77,
                "velocity": 127,
                "time": 0.0012499979166666665,
                "total_time": 260.39966893196106
            },
            {
                "note": 70,
                "velocity": 112,
                "time": 0,
                "total_time": 260.4001202583313
            },
            {
                "note": 34,
                "velocity": 112,
                "time": 0,
                "total_time": 260.40028047561646
            },
            {
                "note": 34,
                "velocity": 0,
                "time": 0,
                "total_time": 260.4003667831421
            },
            {
                "note": 34,
                "velocity": 112,
                "time": 0,
                "total_time": 260.4004466533661
            },
            {
                "note": 41,
                "velocity": 96,
                "time": 0,
                "total_time": 260.5499210357666
            },
            {
                "note": 41,
                "velocity": 0,
                "time": 0.14124976458333333,
                "total_time": 260.69090461730957
            },
            {
                "note": 46,
                "velocity": 96,
                "time": 0.008749985416666665,
                "total_time": 260.69964933395386
            },
            {
                "note": 46,
                "velocity": 0,
                "time": 0.14124976458333333,
                "total_time": 260.8408946990967
            },
            {
                "note": 41,
                "velocity": 96,
                "time": 0.008749985416666665,
                "total_time": 260.84967041015625
            },
            {
                "note": 41,
                "velocity": 0,
                "time": 0.14124976458333333,
                "total_time": 260.9909806251526
            },
            {
                "note": 49,
                "velocity": 96,
                "time": 0.008749985416666665,
                "total_time": 260.9996781349182
            },
            {
                "note": 77,
                "velocity": 0,
                "time": 0.0012499979166666665,
                "total_time": 261.0009469985962
            },
            {
                "note": 49,
                "velocity": 0,
                "time": 0.13999976666666664,
                "total_time": 261.1410496234894
            },
            {
                "note": 41,
                "velocity": 96,
                "time": 0.008749985416666665,
                "total_time": 261.1497223377228
            },
            {
                "note": 41,
                "velocity": 0,
                "time": 0.14124976458333333,
                "total_time": 261.2910273075104
            },
            {
                "note": 82,
                "velocity": 112,
                "time": 0.008749985416666665,
                "total_time": 261.2997500896454
            },
            {
                "note": 46,
                "velocity": 96,
                "time": 0,
                "total_time": 261.30012583732605
            },
            {
                "note": 46,
                "velocity": 0,
                "time": 0.14124976458333333,
                "total_time": 261.44092059135437
            },
            {
                "note": 41,
                "velocity": 96,
                "time": 0.008749985416666665,
                "total_time": 261.4496850967407
            },
            {
                "note": 34,
                "velocity": 0,
                "time": 0.08874985208333332,
                "total_time": 261.53843545913696
            },
            {
                "note": 82,
                "velocity": 0,
                "time": 0.044999924999999996,
                "total_time": 261.58388352394104
            },
            {
                "note": 41,
                "velocity": 0,
                "time": 0.007499987499999999,
                "total_time": 261.59093618392944
            },
            {
                "note": 70,
                "velocity": 0,
                "time": 0.007499987499999999,
                "total_time": 261.59841656684875
            },
            {
                "note": 82,
                "velocity": 127,
                "time": 0.0012499979166666665,
                "total_time": 261.5996527671814
            },
            {
                "note": 71,
                "velocity": 112,
                "time": 0,
                "total_time": 261.5997657775879
            },
            {
                "note": 75,
                "velocity": 112,
                "time": 0,
                "total_time": 261.599821805954
            },
            {
                "note": 35,
                "velocity": 112,
                "time": 0,
                "total_time": 261.59984946250916
            },
            {
                "note": 35,
                "velocity": 0,
                "time": 0,
                "total_time": 261.5998728275299
            },
            {
                "note": 35,
                "velocity": 112,
                "time": 0,
                "total_time": 261.5998947620392
            },
            {
                "note": 42,
                "velocity": 96,
                "time": 0,
                "total_time": 261.7497932910919
            },
            {
                "note": 42,
                "velocity": 0,
                "time": 0.14124976458333333,
                "total_time": 261.8908929824829
            },
            {
                "note": 47,
                "velocity": 96,
                "time": 0.008749985416666665,
                "total_time": 261.8996787071228
            },
            {
                "note": 47,
                "velocity": 0,
                "time": 0.14124976458333333,
                "total_time": 262.04092240333557
            },
            {
                "note": 42,
                "velocity": 96,
                "time": 0.008749985416666665,
                "total_time": 262.049765586853
            },
            {
                "note": 42,
                "velocity": 0,
                "time": 0.14124976458333333,
                "total_time": 262.19091749191284
            },
            {
                "note": 51,
                "velocity": 96,
                "time": 0.008749985416666665,
                "total_time": 262.199679851532
            },
            {
                "note": 82,
                "velocity": 0,
                "time": 0.0012499979166666665,
                "total_time": 262.2009012699127
            },
            {
                "note": 51,
                "velocity": 0,
                "time": 0.13999976666666664,
                "total_time": 262.3409512042999
            },
            {
                "note": 42,
                "velocity": 96,
                "time": 0.008749985416666665,
                "total_time": 262.34970355033875
            },
            {
                "note": 42,
                "velocity": 0,
                "time": 0.14124976458333333,
                "total_time": 262.49095582962036
            },
            {
                "note": 80,
                "velocity": 112,
                "time": 0.008749985416666665,
                "total_time": 262.4996750354767
            },
            {
                "note": 47,
                "velocity": 96,
                "time": 0,
                "total_time": 262.49984335899353
            },
            {
                "note": 47,
                "velocity": 0,
                "time": 0.14124976458333333,
                "total_time": 262.6408886909485
            },
            {
                "note": 80,
                "velocity": 0,
                "time": 0.007499987499999999,
                "total_time": 262.64839911460876
            },
            {
                "note": 78,
                "velocity": 112,
                "time": 0.0012499979166666665,
                "total_time": 262.64966106414795
            },
            {
                "note": 42,
                "velocity": 96,
                "time": 0,
                "total_time": 262.64984488487244
            },
            {
                "note": 35,
                "velocity": 0,
                "time": 0.08874985208333332,
                "total_time": 262.73839497566223
            },
            {
                "note": 78,
                "velocity": 0,
                "time": 0.052499912499999996,
                "total_time": 262.7908935546875
            },
            {
                "note": 42,
                "velocity": 0,
                "time": 0,
                "total_time": 262.7909882068634
            },
            {
                "note": 71,
                "velocity": 0,
                "time": 0.007499987499999999,
                "total_time": 262.79839634895325
            },
            {
                "note": 75,
                "velocity": 0,
                "time": 0,
                "total_time": 262.7984938621521
            },
            {
                "note": 77,
                "velocity": 112,
                "time": 0.0012499979166666665,
                "total_time": 262.7996356487274
            },
            {
                "note": 73,
                "velocity": 112,
                "time": 0,
                "total_time": 262.7997291088104
            },
            {
                "note": 37,
                "velocity": 112,
                "time": 0,
                "total_time": 262.7997543811798
            },
            {
                "note": 37,
                "velocity": 0,
                "time": 0,
                "total_time": 262.7997772693634
            },
            {
                "note": 37,
                "velocity": 112,
                "time": 0,
                "total_time": 262.79981207847595
            },
            {
                "note": 44,
                "velocity": 96,
                "time": 0,
                "total_time": 262.9497928619385
            },
            {
                "note": 44,
                "velocity": 0,
                "time": 0.14124976458333333,
                "total_time": 263.09091353416443
            },
            {
                "note": 77,
                "velocity": 0,
                "time": 0.007499987499999999,
                "total_time": 263.09843730926514
            },
            {
                "note": 73,
                "velocity": 0,
                "time": 0,
                "total_time": 263.09891653060913
            },
            {
                "note": 78,
                "velocity": 112,
                "time": 0.0012499979166666665,
                "total_time": 263.0996732711792
            },
            {
                "note": 71,
                "velocity": 112,
                "time": 0,
                "total_time": 263.10013699531555
            },
            {
                "note": 49,
                "velocity": 96,
                "time": 0,
                "total_time": 263.1002492904663
            },
            {
                "note": 49,
                "velocity": 0,
                "time": 0.14124976458333333,
                "total_time": 263.2409203052521
            },
            {
                "note": 44,
                "velocity": 96,
                "time": 0.008749985416666665,
                "total_time": 263.2496910095215
            },
            {
                "note": 44,
                "velocity": 0,
                "time": 0.14124976458333333,
                "total_time": 263.3908951282501
            },
            {
                "note": 78,
                "velocity": 0,
                "time": 0.007499987499999999,
                "total_time": 263.398396730423
            },
            {
                "note": 71,
                "velocity": 0,
                "time": 0,
                "total_time": 263.3985159397125
            },
            {
                "note": 73,
                "velocity": 112,
                "time": 0.0012499979166666665,
                "total_time": 263.39965748786926
            },
            {
                "note": 70,
                "velocity": 112,
                "time": 0,
                "total_time": 263.3998672962189
            },
            {
                "note": 53,
                "velocity": 96,
                "time": 0,
                "total_time": 263.3999218940735
            },
            {
                "note": 53,
                "velocity": 0,
                "time": 0.14124976458333333,
                "total_time": 263.54088950157166
            },
            {
                "note": 44,
                "velocity": 96,
                "time": 0.008749985416666665,
                "total_time": 263.54967761039734
            },
            {
                "note": 44,
                "velocity": 0,
                "time": 0.14124976458333333,
                "total_time": 263.6909747123718
            },
            {
                "note": 73,
                "velocity": 0,
                "time": 0.007499987499999999,
                "total_time": 263.69848227500916
            },
            {
                "note": 70,
                "velocity": 0,
                "time": 0,
                "total_time": 263.6987202167511
            },
            {
                "note": 70,
                "velocity": 112,
                "time": 0.0012499979166666665,
                "total_time": 263.6996817588806
            },
            {
                "note": 65,
                "velocity": 112,
                "time": 0,
                "total_time": 263.70000171661377
            },
            {
                "note": 49,
                "velocity": 96,
                "time": 0,
                "total_time": 263.7001132965088
            },
            {
                "note": 49,
                "velocity": 0,
                "time": 0.14124976458333333,
                "total_time": 263.8409640789032
            },
            {
                "note": 44,
                "velocity": 96,
                "time": 0.008749985416666665,
                "total_time": 263.84967160224915
            },
            {
                "note": 37,
                "velocity": 0,
                "time": 0.08874985208333332,
                "total_time": 263.93840527534485
            },
            {
                "note": 70,
                "velocity": 0,
                "time": 0.044999924999999996,
                "total_time": 263.9834349155426
            },
            {
                "note": 65,
                "velocity": 0,
                "time": 0,
                "total_time": 263.98367834091187
            },
            {
                "note": 44,
                "velocity": 0,
                "time": 0.007499987499999999,
                "total_time": 263.99092173576355
            },
            {
                "note": 71,
                "velocity": 127,
                "time": 0.008749985416666665,
                "total_time": 263.9996793270111
            },
            {
                "note": 66,
                "velocity": 112,
                "time": 0,
                "total_time": 264.00004982948303
            },
            {
                "note": 32,
                "velocity": 112,
                "time": 0,
                "total_time": 264.0002193450928
            },
            {
                "note": 32,
                "velocity": 0,
                "time": 0,
                "total_time": 264.00033140182495
            },
            {
                "note": 32,
                "velocity": 112,
                "time": 0,
                "total_time": 264.0004231929779
            },
            {
                "note": 39,
                "velocity": 96,
                "time": 0,
                "total_time": 264.1498534679413
            },
            {
                "note": 39,
                "velocity": 0,
                "time": 0.14124976458333333,
                "total_time": 264.29089093208313
            },
            {
                "note": 44,
                "velocity": 96,
                "time": 0.008749985416666665,
                "total_time": 264.29967761039734
            },
            {
                "note": 71,
                "velocity": 0,
                "time": 0.09999983333333332,
                "total_time": 264.3996980190277
            },
            {
                "note": 44,
                "velocity": 0,
                "time": 0.041249931249999996,
                "total_time": 264.440886259079
            },
            {
                "note": 39,
                "velocity": 96,
                "time": 0.008749985416666665,
                "total_time": 264.44966530799866
            },
            {
                "note": 39,
                "velocity": 0,
                "time": 0.14124976458333333,
                "total_time": 264.5909049510956
            },
            {
                "note": 66,
                "velocity": 0,
                "time": 0.007499987499999999,
                "total_time": 264.59839963912964
            },
            {
                "note": 75,
                "velocity": 112,
                "time": 0.0012499979166666665,
                "total_time": 264.59967494010925
            },
            {
                "note": 71,
                "velocity": 112,
                "time": 0,
                "total_time": 264.5999813079834
            },
            {
                "note": 47,
                "velocity": 96,
                "time": 0,
                "total_time": 264.6000792980194
            },
            {
                "note": 47,
                "velocity": 0,
                "time": 0.14124976458333333,
                "total_time": 264.74091625213623
            },
            {
                "note": 39,
                "velocity": 96,
                "time": 0.008749985416666665,
                "total_time": 264.7496781349182
            },
            {
                "note": 39,
                "velocity": 0,
                "time": 0.14124976458333333,
                "total_time": 264.89090514183044
            },
            {
                "note": 75,
                "velocity": 0,
                "time": 0.007499987499999999,
                "total_time": 264.89846086502075
            },
            {
                "note": 71,
                "velocity": 0,
                "time": 0,
                "total_time": 264.89872884750366
            },
            {
                "note": 78,
                "velocity": 112,
                "time": 0.0012499979166666665,
                "total_time": 264.8996455669403
            },
            {
                "note": 71,
                "velocity": 112,
                "time": 0,
                "total_time": 264.8999056816101
            },
            {
                "note": 44,
                "velocity": 96,
                "time": 0,
                "total_time": 264.8999705314636
            },
            {
                "note": 44,
                "velocity": 0,
                "time": 0.14124976458333333,
                "total_time": 265.0409164428711
            },
            {
                "note": 39,
                "velocity": 96,
                "time": 0.008749985416666665,
                "total_time": 265.04974722862244
            },
            {
                "note": 32,
                "velocity": 0,
                "time": 0.08874985208333332,
                "total_time": 265.1384205818176
            },
            {
                "note": 78,
                "velocity": 0,
                "time": 0.044999924999999996,
                "total_time": 265.1834547519684
            },
            {
                "note": 71,
                "velocity": 0,
                "time": 0,
                "total_time": 265.1836488246918
            },
            {
                "note": 39,
                "velocity": 0,
                "time": 0.007499987499999999,
                "total_time": 265.1908941268921
            },
            {
                "note": 78,
                "velocity": 127,
                "time": 0.008749985416666665,
                "total_time": 265.1996545791626
            },
            {
                "note": 73,
                "velocity": 112,
                "time": 0,
                "total_time": 265.1998941898346
            },
            {
                "note": 34,
                "velocity": 112,
                "time": 0,
                "total_time": 265.1999342441559
            },
            {
                "note": 34,
                "velocity": 0,
                "time": 0,
                "total_time": 265.1999509334564
            },
            {
                "note": 34,
                "velocity": 112,
                "time": 0,
                "total_time": 265.19996786117554
            },
            {
                "note": 41,
                "velocity": 96,
                "time": 0,
                "total_time": 265.3496742248535
            },
            {
                "note": 41,
                "velocity": 0,
                "time": 0.14124976458333333,
                "total_time": 265.49091601371765
            },
            {
                "note": 46,
                "velocity": 96,
                "time": 0.008749985416666665,
                "total_time": 265.4996898174286
            },
            {
                "note": 78,
                "velocity": 0,
                "time": 0.09999983333333332,
                "total_time": 265.599671125412
            },
            {
                "note": 46,
                "velocity": 0,
                "time": 0.041249931249999996,
                "total_time": 265.64090394973755
            },
            {
                "note": 41,
                "velocity": 96,
                "time": 0.008749985416666665,
                "total_time": 265.64971899986267
            },
            {
                "note": 41,
                "velocity": 0,
                "time": 0.14124976458333333,
                "total_time": 265.79090762138367
            },
            {
                "note": 73,
                "velocity": 0,
                "time": 0.007499987499999999,
                "total_time": 265.7984125614166
            },
            {
                "note": 77,
                "velocity": 112,
                "time": 0.0012499979166666665,
                "total_time": 265.799658536911
            },
            {
                "note": 70,
                "velocity": 112,
                "time": 0,
                "total_time": 265.7998423576355
            },
            {
                "note": 49,
                "velocity": 96,
                "time": 0,
                "total_time": 265.7999222278595
            },
            {
                "note": 49,
                "velocity": 0,
                "time": 0.14124976458333333,
                "total_time": 265.94088888168335
            },
            {
                "note": 41,
                "velocity": 96,
                "time": 0.008749985416666665,
                "total_time": 265.9496600627899
            },
            {
                "note": 41,
                "velocity": 0,
                "time": 0.14124976458333333,
                "total_time": 266.0908827781677
            },
            {
                "note": 77,
                "velocity": 0,
                "time": 0.007499987499999999,
                "total_time": 266.0984535217285
            },
            {
                "note": 70,
                "velocity": 0,
                "time": 0,
                "total_time": 266.0986568927765
            },
            {
                "note": 78,
                "velocity": 112,
                "time": 0.0012499979166666665,
                "total_time": 266.0996232032776
            },
            {
                "note": 68,
                "velocity": 112,
                "time": 0,
                "total_time": 266.0996744632721
            },
            {
                "note": 46,
                "velocity": 96,
                "time": 0,
                "total_time": 266.0996901988983
            },
            {
                "note": 46,
                "velocity": 0,
                "time": 0.14124976458333333,
                "total_time": 266.24088883399963
            },
            {
                "note": 41,
                "velocity": 96,
                "time": 0.008749985416666665,
                "total_time": 266.2496716976166
            },
            {
                "note": 34,
                "velocity": 0,
                "time": 0.08874985208333332,
                "total_time": 266.3384232521057
            },
            {
                "note": 78,
                "velocity": 0,
                "time": 0.044999924999999996,
                "total_time": 266.38344168663025
            },
            {
                "note": 68,
                "velocity": 0,
                "time": 0,
                "total_time": 266.3837957382202
            },
            {
                "note": 41,
                "velocity": 0,
                "time": 0.007499987499999999,
                "total_time": 266.3909125328064
            },
            {
                "note": 85,
                "velocity": 127,
                "time": 0.008749985416666665,
                "total_time": 266.39968061447144
            },
            {
                "note": 78,
                "velocity": 112,
                "time": 0,
                "total_time": 266.39994168281555
            },
            {
                "note": 35,
                "velocity": 112,
                "time": 0,
                "total_time": 266.4000380039215
            },
            {
                "note": 35,
                "velocity": 0,
                "time": 0,
                "total_time": 266.40009021759033
            },
            {
                "note": 35,
                "velocity": 112,
                "time": 0,
                "total_time": 266.40013885498047
            },
            {
                "note": 42,
                "velocity": 96,
                "time": 0,
                "total_time": 266.5500249862671
            },
            {
                "note": 42,
                "velocity": 0,
                "time": 0.14124976458333333,
                "total_time": 266.69088077545166
            },
            {
                "note": 85,
                "velocity": 0,
                "time": 0.008749985416666665,
                "total_time": 266.69965839385986
            },
            {
                "note": 47,
                "velocity": 96,
                "time": 0,
                "total_time": 266.6997616291046
            },
            {
                "note": 47,
                "velocity": 0,
                "time": 0.14124976458333333,
                "total_time": 266.84093594551086
            },
            {
                "note": 78,
                "velocity": 0,
                "time": 0.007499987499999999,
                "total_time": 266.8484420776367
            },
            {
                "note": 83,
                "velocity": 127,
                "time": 0.0012499979166666665,
                "total_time": 266.84965348243713
            },
            {
                "note": 75,
                "velocity": 112,
                "time": 0,
                "total_time": 266.8497908115387
            },
            {
                "note": 42,
                "velocity": 96,
                "time": 0,
                "total_time": 266.84986662864685
            },
            {
                "note": 42,
                "velocity": 0,
                "time": 0.14124976458333333,
                "total_time": 266.99087619781494
            },
            {
                "note": 51,
                "velocity": 96,
                "time": 0.008749985416666665,
                "total_time": 266.9996256828308
            },
            {
                "note": 51,
                "velocity": 0,
                "time": 0.14124976458333333,
                "total_time": 267.1409683227539
            },
            {
                "note": 83,
                "velocity": 0,
                "time": 0.008749985416666665,
                "total_time": 267.1497600078583
            },
            {
                "note": 42,
                "velocity": 96,
                "time": 0,
                "total_time": 267.1499607563019
            },
            {
                "note": 42,
                "velocity": 0,
                "time": 0.14124976458333333,
                "total_time": 267.2908980846405
            },
            {
                "note": 75,
                "velocity": 0,
                "time": 0.007499987499999999,
                "total_time": 267.29857659339905
            },
            {
                "note": 82,
                "velocity": 127,
                "time": 0.0012499979166666665,
                "total_time": 267.2996950149536
            },
            {
                "note": 78,
                "velocity": 112,
                "time": 0,
                "total_time": 267.300035238266
            },
            {
                "note": 47,
                "velocity": 96,
                "time": 0,
                "total_time": 267.30023884773254
            },
            {
                "note": 47,
                "velocity": 0,
                "time": 0.14124976458333333,
                "total_time": 267.44092559814453
            },
            {
                "note": 42,
                "velocity": 96,
                "time": 0.008749985416666665,
                "total_time": 267.449729681015
            },
            {
                "note": 82,
                "velocity": 0,
                "time": 0.048749918749999996,
                "total_time": 267.4984188079834
            },
            {
                "note": 35,
                "velocity": 0,
                "time": 0.03999993333333333,
                "total_time": 267.5384268760681
            },
            {
                "note": 78,
                "velocity": 0,
                "time": 0.044999924999999996,
                "total_time": 267.5834469795227
            },
            {
                "note": 42,
                "velocity": 0,
                "time": 0.007499987499999999,
                "total_time": 267.59088706970215
            },
            {
                "note": 80,
                "velocity": 127,
                "time": 0.008749985416666665,
                "total_time": 267.5996618270874
            },
            {
                "note": 77,
                "velocity": 112,
                "time": 0,
                "total_time": 267.59992837905884
            },
            {
                "note": 37,
                "velocity": 112,
                "time": 0,
                "total_time": 267.5999779701233
            },
            {
                "note": 37,
                "velocity": 0,
                "time": 0,
                "total_time": 267.600004196167
            },
            {
                "note": 37,
                "velocity": 112,
                "time": 0,
                "total_time": 267.6000247001648
            },
            {
                "note": 80,
                "velocity": 0,
                "time": 0.09624983958333332,
                "total_time": 267.6984112262726
            },
            {
                "note": 82,
                "velocity": 112,
                "time": 0.05124991458333333,
                "total_time": 267.7496497631073
            },
            {
                "note": 44,
                "velocity": 96,
                "time": 0,
                "total_time": 267.74998569488525
            },
            {
                "note": 44,
                "velocity": 0,
                "time": 0.14124976458333333,
                "total_time": 267.89088129997253
            },
            {
                "note": 82,
                "velocity": 0,
                "time": 0.007499987499999999,
                "total_time": 267.89838910102844
            },
            {
                "note": 80,
                "velocity": 112,
                "time": 0.0012499979166666665,
                "total_time": 267.89966583251953
            },
            {
                "note": 53,
                "velocity": 96,
                "time": 0,
                "total_time": 267.899950504303
            },
            {
                "note": 53,
                "velocity": 0,
                "time": 0.14124976458333333,
                "total_time": 268.0408821105957
            },
            {
                "note": 80,
                "velocity": 0,
                "time": 0.007499987499999999,
                "total_time": 268.04841661453247
            },
            {
                "note": 78,
                "velocity": 112,
                "time": 0.0012499979166666665,
                "total_time": 268.0496299266815
            },
            {
                "note": 44,
                "velocity": 96,
                "time": 0,
                "total_time": 268.0497953891754
            },
            {
                "note": 37,
                "velocity": 0,
                "time": 0.11874980208333331,
                "total_time": 268.1683826446533
            },
            {
                "note": 44,
                "velocity": 0,
                "time": 0.022499962499999998,
                "total_time": 268.19086742401123
            },
            {
                "note": 78,
                "velocity": 0,
                "time": 0.007499987499999999,
                "total_time": 268.19840908050537
            },
            {
                "note": 77,
                "velocity": 0,
                "time": 0.0012499979166666665,
                "total_time": 268.1996343135834
            },
            {
                "note": 77,
                "velocity": 112,
                "time": 0,
                "total_time": 268.1997652053833
            },
            {
                "note": 38,
                "velocity": 112,
                "time": 0,
                "total_time": 268.19982838630676
            },
            {
                "note": 38,
                "velocity": 0,
                "time": 0,
                "total_time": 268.1998555660248
            },
            {
                "note": 38,
                "velocity": 112,
                "time": 0,
                "total_time": 268.19987964630127
            },
            {
                "note": 74,
                "velocity": 112,
                "time": 0.14749975416666664,
                "total_time": 268.3496673107147
            },
            {
                "note": 46,
                "velocity": 96,
                "time": 0,
                "total_time": 268.34998297691345
            },
            {
                "note": 46,
                "velocity": 0,
                "time": 0.14124976458333333,
                "total_time": 268.4909267425537
            },
            {
                "note": 74,
                "velocity": 0,
                "time": 0.007499987499999999,
                "total_time": 268.49848794937134
            },
            {
                "note": 80,
                "velocity": 112,
                "time": 0.0012499979166666665,
                "total_time": 268.5000605583191
            },
            {
                "note": 50,
                "velocity": 96,
                "time": 0,
                "total_time": 268.50224804878235
            },
            {
                "note": 50,
                "velocity": 0,
                "time": 0.14124976458333333,
                "total_time": 268.6408886909485
            },
            {
                "note": 80,
                "velocity": 0,
                "time": 0.007499987499999999,
                "total_time": 268.64839220046997
            },
            {
                "note": 77,
                "velocity": 0,
                "time": 0.0012499979166666665,
                "total_time": 268.64965772628784
            },
            {
                "note": 77,
                "velocity": 112,
                "time": 0,
                "total_time": 268.6498990058899
            },
            {
                "note": 46,
                "velocity": 96,
                "time": 0,
                "total_time": 268.6499619483948
            },
            {
                "note": 38,
                "velocity": 0,
                "time": 0.11874980208333331,
                "total_time": 268.76843333244324
            },
            {
                "note": 46,
                "velocity": 0,
                "time": 0.022499962499999998,
                "total_time": 268.79088306427
            },
            {
                "note": 77,
                "velocity": 0,
                "time": 0.007499987499999999,
                "total_time": 268.7983899116516
            },
            {
                "note": 78,
                "velocity": 127,
                "time": 0.0012499979166666665,
                "total_time": 268.7996621131897
            },
            {
                "note": 75,
                "velocity": 112,
                "time": 0,
                "total_time": 268.799738407135
            },
            {
                "note": 39,
                "velocity": 112,
                "time": 0,
                "total_time": 268.79978036880493
            },
            {
                "note": 39,
                "velocity": 0,
                "time": 0,
                "total_time": 268.7998194694519
            },
            {
                "note": 39,
                "velocity": 112,
                "time": 0,
                "total_time": 268.7998445034027
            },
            {
                "note": 46,
                "velocity": 96,
                "time": 0,
                "total_time": 268.9498841762543
            },
            {
                "note": 46,
                "velocity": 0,
                "time": 0.14124976458333333,
                "total_time": 269.09091997146606
            },
            {
                "note": 78,
                "velocity": 0,
                "time": 0.008749985416666665,
                "total_time": 269.0996661186218
            },
            {
                "note": 51,
                "velocity": 96,
                "time": 0,
                "total_time": 269.0999777317047
            },
            {
                "note": 51,
                "velocity": 0,
                "time": 0.14124976458333333,
                "total_time": 269.2408800125122
            },
            {
                "note": 75,
                "velocity": 0,
                "time": 0.007499987499999999,
                "total_time": 269.2483985424042
            },
            {
                "note": 77,
                "velocity": 112,
                "time": 0.0012499979166666665,
                "total_time": 269.24964690208435
            },
            {
                "note": 70,
                "velocity": 112,
                "time": 0,
                "total_time": 269.2497811317444
            },
            {
                "note": 46,
                "velocity": 96,
                "time": 0,
                "total_time": 269.2498276233673
            },
            {
                "note": 46,
                "velocity": 0,
                "time": 0.14124976458333333,
                "total_time": 269.3908898830414
            },
            {
                "note": 54,
                "velocity": 96,
                "time": 0.008749985416666665,
                "total_time": 269.3996891975403
            },
            {
                "note": 54,
                "velocity": 0,
                "time": 0.14124976458333333,
                "total_time": 269.54092288017273
            },
            {
                "note": 46,
                "velocity": 96,
                "time": 0.008749985416666665,
                "total_time": 269.5496838092804
            },
            {
                "note": 46,
                "velocity": 0,
                "time": 0.14124976458333333,
                "total_time": 269.69090700149536
            },
            {
                "note": 77,
                "velocity": 0,
                "time": 0.007499987499999999,
                "total_time": 269.69838309288025
            },
            {
                "note": 70,
                "velocity": 0,
                "time": 0,
                "total_time": 269.6984922885895
            },
            {
                "note": 78,
                "velocity": 112,
                "time": 0.0012499979166666665,
                "total_time": 269.699649810791
            },
            {
                "note": 70,
                "velocity": 112,
                "time": 0,
                "total_time": 269.6998372077942
            },
            {
                "note": 51,
                "velocity": 96,
                "time": 0,
                "total_time": 269.6998653411865
            },
            {
                "note": 51,
                "velocity": 0,
                "time": 0.14124976458333333,
                "total_time": 269.8408770561218
            },
            {
                "note": 46,
                "velocity": 96,
                "time": 0.008749985416666665,
                "total_time": 269.84968757629395
            },
            {
                "note": 39,
                "velocity": 0,
                "time": 0.08874985208333332,
                "total_time": 269.93841910362244
            },
            {
                "note": 78,
                "velocity": 0,
                "time": 0.044999924999999996,
                "total_time": 269.98359274864197
            },
            {
                "note": 70,
                "velocity": 0,
                "time": 0,
                "total_time": 269.9839942455292
            },
            {
                "note": 46,
                "velocity": 0,
                "time": 0.007499987499999999,
                "total_time": 269.990895986557
            },
            {
                "note": 82,
                "velocity": 127,
                "time": 0.008749985416666665,
                "total_time": 269.9996829032898
            },
            {
                "note": 77,
                "velocity": 112,
                "time": 0,
                "total_time": 270.00011110305786
            },
            {
                "note": 37,
                "velocity": 112,
                "time": 0,
                "total_time": 270.0002808570862
            },
            {
                "note": 37,
                "velocity": 0,
                "time": 0,
                "total_time": 270.00037574768066
            },
            {
                "note": 37,
                "velocity": 112,
                "time": 0,
                "total_time": 270.00046849250793
            },
            {
                "note": 46,
                "velocity": 96,
                "time": 0,
                "total_time": 270.14978432655334
            },
            {
                "note": 46,
                "velocity": 0,
                "time": 0.14124976458333333,
                "total_time": 270.2909014225006
            },
            {
                "note": 49,
                "velocity": 96,
                "time": 0.008749985416666665,
                "total_time": 270.2996861934662
            },
            {
                "note": 49,
                "velocity": 0,
                "time": 0.14124976458333333,
                "total_time": 270.44087529182434
            },
            {
                "note": 46,
                "velocity": 96,
                "time": 0.008749985416666665,
                "total_time": 270.4496626853943
            },
            {
                "note": 46,
                "velocity": 0,
                "time": 0.14124976458333333,
                "total_time": 270.5908749103546
            },
            {
                "note": 53,
                "velocity": 96,
                "time": 0.008749985416666665,
                "total_time": 270.5996308326721
            },
            {
                "note": 82,
                "velocity": 0,
                "time": 0.0012499979166666665,
                "total_time": 270.60086154937744
            },
            {
                "note": 53,
                "velocity": 0,
                "time": 0.13999976666666664,
                "total_time": 270.7409107685089
            },
            {
                "note": 46,
                "velocity": 96,
                "time": 0.008749985416666665,
                "total_time": 270.74968361854553
            },
            {
                "note": 46,
                "velocity": 0,
                "time": 0.14124976458333333,
                "total_time": 270.8908746242523
            },
            {
                "note": 77,
                "velocity": 0,
                "time": 0.007499987499999999,
                "total_time": 270.8985552787781
            },
            {
                "note": 77,
                "velocity": 112,
                "time": 0.0012499979166666665,
                "total_time": 270.899671792984
            },
            {
                "note": 70,
                "velocity": 112,
                "time": 0,
                "total_time": 270.8999602794647
            },
            {
                "note": 49,
                "velocity": 96,
                "time": 0,
                "total_time": 270.9000506401062
            },
            {
                "note": 49,
                "velocity": 0,
                "time": 0.14124976458333333,
                "total_time": 271.0409154891968
            },
            {
                "note": 46,
                "velocity": 96,
                "time": 0.008749985416666665,
                "total_time": 271.04992270469666
            },
            {
                "note": 37,
                "velocity": 0,
                "time": 0.08874985208333332,
                "total_time": 271.13839960098267
            },
            {
                "note": 77,
                "velocity": 0,
                "time": 0.044999924999999996,
                "total_time": 271.1833989620209
            },
            {
                "note": 70,
                "velocity": 0,
                "time": 0,
                "total_time": 271.18357253074646
            },
            {
                "note": 46,
                "velocity": 0,
                "time": 0.007499987499999999,
                "total_time": 271.1909136772156
            },
            {
                "note": 75,
                "velocity": 127,
                "time": 0.008749985416666665,
                "total_time": 271.19968366622925
            },
            {
                "note": 72,
                "velocity": 112,
                "time": 0,
                "total_time": 271.1999418735504
            },
            {
                "note": 36,
                "velocity": 112,
                "time": 0,
                "total_time": 271.1999888420105
            },
            {
                "note": 36,
                "velocity": 0,
                "time": 0,
                "total_time": 271.20001244544983
            },
            {
                "note": 36,
                "velocity": 112,
                "time": 0,
                "total_time": 271.200035572052
            },
            {
                "note": 44,
                "velocity": 96,
                "time": 0,
                "total_time": 271.3496723175049
            },
            {
                "note": 44,
                "velocity": 0,
                "time": 0.14124976458333333,
                "total_time": 271.4909110069275
            },
            {
                "note": 48,
                "velocity": 96,
                "time": 0.008749985416666665,
                "total_time": 271.4996955394745
            },
            {
                "note": 48,
                "velocity": 0,
                "time": 0.14124976458333333,
                "total_time": 271.6409022808075
            },
            {
                "note": 44,
                "velocity": 96,
                "time": 0.008749985416666665,
                "total_time": 271.64973878860474
            },
            {
                "note": 44,
                "velocity": 0,
                "time": 0.14124976458333333,
                "total_time": 271.79090905189514
            },
            {
                "note": 51,
                "velocity": 96,
                "time": 0.008749985416666665,
                "total_time": 271.79970479011536
            },
            {
                "note": 51,
                "velocity": 0,
                "time": 0.14124976458333333,
                "total_time": 271.9409008026123
            },
            {
                "note": 44,
                "velocity": 96,
                "time": 0.008749985416666665,
                "total_time": 271.94971442222595
            },
            {
                "note": 75,
                "velocity": 0,
                "time": 0.052499912499999996,
                "total_time": 272.00215220451355
            },
            {
                "note": 44,
                "velocity": 0,
                "time": 0.08874985208333332,
                "total_time": 272.09090089797974
            },
            {
                "note": 48,
                "velocity": 96,
                "time": 0.008749985416666665,
                "total_time": 272.0998749732971
            },
            {
                "note": 48,
                "velocity": 0,
                "time": 0.14124976458333333,
                "total_time": 272.2408757209778
            },
            {
                "note": 44,
                "velocity": 96,
                "time": 0.008749985416666665,
                "total_time": 272.2496440410614
            },
            {
                "note": 72,
                "velocity": 0,
                "time": 0.08874985208333332,
                "total_time": 272.3383777141571
            },
            {
                "note": 36,
                "velocity": 0,
                "time": 0,
                "total_time": 272.33847427368164
            },
            {
                "note": 44,
                "velocity": 0,
                "time": 0.052499912499999996,
                "total_time": 272.3909156322479
            },
            {
                "note": 75,
                "velocity": 112,
                "time": 0.008749985416666665,
                "total_time": 272.3996796607971
            },
            {
                "note": 68,
                "velocity": 112,
                "time": 0,
                "total_time": 272.39994263648987
            },
            {
                "note": 32,
                "velocity": 112,
                "time": 0,
                "total_time": 272.3999743461609
            },
            {
                "note": 32,
                "velocity": 0,
                "time": 0,
                "total_time": 272.3999967575073
            },
            {
                "note": 32,
                "velocity": 112,
                "time": 0,
                "total_time": 272.40001916885376
            },
            {
                "note": 39,
                "velocity": 96,
                "time": 0,
                "total_time": 272.5498549938202
            },
            {
                "note": 39,
                "velocity": 0,
                "time": 0.14124976458333333,
                "total_time": 272.69095849990845
            },
            {
                "note": 75,
                "velocity": 0,
                "time": 0.007499987499999999,
                "total_time": 272.69850182533264
            },
            {
                "note": 68,
                "velocity": 0,
                "time": 0,
                "total_time": 272.69888401031494
            },
            {
                "note": 78,
                "velocity": 112,
                "time": 0.0012499979166666665,
                "total_time": 272.69965720176697
            },
            {
                "note": 72,
                "velocity": 112,
                "time": 0,
                "total_time": 272.6999750137329
            },
            {
                "note": 44,
                "velocity": 96,
                "time": 0,
                "total_time": 272.7001054286957
            },
            {
                "note": 44,
                "velocity": 0,
                "time": 0.14124976458333333,
                "total_time": 272.8408601284027
            },
            {
                "note": 48,
                "velocity": 96,
                "time": 0.008749985416666665,
                "total_time": 272.8496630191803
            },
            {
                "note": 32,
                "velocity": 0,
                "time": 0.11874980208333331,
                "total_time": 272.9683885574341
            },
            {
                "note": 48,
                "velocity": 0,
                "time": 0.022499962499999998,
                "total_time": 272.99089002609253
            },
            {
                "note": 78,
                "velocity": 0,
                "time": 0.007499987499999999,
                "total_time": 272.9986689090729
            },
            {
                "note": 72,
                "velocity": 0,
                "time": 0,
                "total_time": 272.99898314476013
            },
            {
                "note": 80,
                "velocity": 112,
                "time": 0.0012499979166666665,
                "total_time": 272.9996213912964
            },
            {
                "note": 75,
                "velocity": 112,
                "time": 0,
                "total_time": 272.99970626831055
            },
            {
                "note": 42,
                "velocity": 112,
                "time": 0,
                "total_time": 272.99973320961
            },
            {
                "note": 42,
                "velocity": 0,
                "time": 0,
                "total_time": 272.9997570514679
            },
            {
                "note": 42,
                "velocity": 112,
                "time": 0,
                "total_time": 272.99977850914
            },
            {
                "note": 48,
                "velocity": 96,
                "time": 0,
                "total_time": 273.14969539642334
            },
            {
                "note": 48,
                "velocity": 0,
                "time": 0.14124976458333333,
                "total_time": 273.2908754348755
            },
            {
                "note": 80,
                "velocity": 0,
                "time": 0.007499987499999999,
                "total_time": 273.2983820438385
            },
            {
                "note": 75,
                "velocity": 0,
                "time": 0,
                "total_time": 273.29848766326904
            },
            {
                "note": 82,
                "velocity": 112,
                "time": 0.0012499979166666665,
                "total_time": 273.29961919784546
            },
            {
                "note": 78,
                "velocity": 112,
                "time": 0,
                "total_time": 273.29976201057434
            },
            {
                "note": 54,
                "velocity": 96,
                "time": 0,
                "total_time": 273.2998208999634
            },
            {
                "note": 54,
                "velocity": 0,
                "time": 0.14124976458333333,
                "total_time": 273.4408767223358
            },
            {
                "note": 48,
                "velocity": 96,
                "time": 0.008749985416666665,
                "total_time": 273.44969511032104
            },
            {
                "note": 42,
                "velocity": 0,
                "time": 0.11874980208333331,
                "total_time": 273.56839394569397
            },
            {
                "note": 82,
                "velocity": 0,
                "time": 0.014999974999999999,
                "total_time": 273.5834023952484
            },
            {
                "note": 78,
                "velocity": 0,
                "time": 0,
                "total_time": 273.58359718322754
            },
            {
                "note": 48,
                "velocity": 0,
                "time": 0.007499987499999999,
                "total_time": 273.5909342765808
            },
            {
                "note": 83,
                "velocity": 127,
                "time": 0.008749985416666665,
                "total_time": 273.5996997356415
            },
            {
                "note": 80,
                "velocity": 112,
                "time": 0,
                "total_time": 273.60013484954834
            },
            {
                "note": 40,
                "velocity": 112,
                "time": 0,
                "total_time": 273.60028862953186
            },
            {
                "note": 40,
                "velocity": 0,
                "time": 0,
                "total_time": 273.60037994384766
            },
            {
                "note": 40,
                "velocity": 112,
                "time": 0,
                "total_time": 273.60046458244324
            },
            {
                "note": 47,
                "velocity": 96,
                "time": 0,
                "total_time": 273.74988198280334
            },
            {
                "note": 47,
                "velocity": 0,
                "time": 0.14124976458333333,
                "total_time": 273.8908450603485
            },
            {
                "note": 83,
                "velocity": 0,
                "time": 0.008749985416666665,
                "total_time": 273.89965653419495
            },
            {
                "note": 52,
                "velocity": 96,
                "time": 0,
                "total_time": 273.8998908996582
            },
            {
                "note": 52,
                "velocity": 0,
                "time": 0.14124976458333333,
                "total_time": 274.04090642929077
            },
            {
                "note": 80,
                "velocity": 0,
                "time": 0.007499987499999999,
                "total_time": 274.0484068393707
            },
            {
                "note": 82,
                "velocity": 112,
                "time": 0.0012499979166666665,
                "total_time": 274.049640417099
            },
            {
                "note": 78,
                "velocity": 112,
                "time": 0,
                "total_time": 274.0497534275055
            },
            {
                "note": 47,
                "velocity": 96,
                "time": 0,
                "total_time": 274.0497839450836
            },
            {
                "note": 47,
                "velocity": 0,
                "time": 0.14124976458333333,
                "total_time": 274.1908736228943
            },
            {
                "note": 56,
                "velocity": 96,
                "time": 0.008749985416666665,
                "total_time": 274.1997082233429
            },
            {
                "note": 56,
                "velocity": 0,
                "time": 0.14124976458333333,
                "total_time": 274.34088158607483
            },
            {
                "note": 47,
                "velocity": 96,
                "time": 0.008749985416666665,
                "total_time": 274.3496856689453
            },
            {
                "note": 47,
                "velocity": 0,
                "time": 0.14124976458333333,
                "total_time": 274.4908719062805
            },
            {
                "note": 82,
                "velocity": 0,
                "time": 0.007499987499999999,
                "total_time": 274.4983866214752
            },
            {
                "note": 78,
                "velocity": 0,
                "time": 0,
                "total_time": 274.4985361099243
            },
            {
                "note": 80,
                "velocity": 112,
                "time": 0.0012499979166666665,
                "total_time": 274.49964714050293
            },
            {
                "note": 71,
                "velocity": 112,
                "time": 0,
                "total_time": 274.49988198280334
            },
            {
                "note": 52,
                "velocity": 96,
                "time": 0,
                "total_time": 274.4999167919159
            },
            {
                "note": 52,
                "velocity": 0,
                "time": 0.14124976458333333,
                "total_time": 274.6409695148468
            },
            {
                "note": 47,
                "velocity": 96,
                "time": 0.008749985416666665,
                "total_time": 274.6496379375458
            },
            {
                "note": 40,
                "velocity": 0,
                "time": 0.08874985208333332,
                "total_time": 274.73840045928955
            },
            {
                "note": 80,
                "velocity": 0,
                "time": 0.044999924999999996,
                "total_time": 274.78341484069824
            },
            {
                "note": 71,
                "velocity": 0,
                "time": 0,
                "total_time": 274.78374338150024
            },
            {
                "note": 47,
                "velocity": 0,
                "time": 0.007499987499999999,
                "total_time": 274.7909700870514
            },
            {
                "note": 78,
                "velocity": 112,
                "time": 0.008749985416666665,
                "total_time": 274.79967069625854
            },
            {
                "note": 70,
                "velocity": 112,
                "time": 0,
                "total_time": 274.8000123500824
            },
            {
                "note": 35,
                "velocity": 112,
                "time": 0,
                "total_time": 274.8001322746277
            },
            {
                "note": 35,
                "velocity": 0,
                "time": 0,
                "total_time": 274.8002300262451
            },
            {
                "note": 35,
                "velocity": 112,
                "time": 0,
                "total_time": 274.8003206253052
            },
            {
                "note": 42,
                "velocity": 96,
                "time": 0,
                "total_time": 274.9497215747833
            },
            {
                "note": 42,
                "velocity": 0,
                "time": 0.14124976458333333,
                "total_time": 275.0909252166748
            },
            {
                "note": 78,
                "velocity": 0,
                "time": 0.007499987499999999,
                "total_time": 275.09838795661926
            },
            {
                "note": 70,
                "velocity": 0,
                "time": 0,
                "total_time": 275.0984981060028
            },
            {
                "note": 75,
                "velocity": 112,
                "time": 0.0012499979166666665,
                "total_time": 275.09963297843933
            },
            {
                "note": 66,
                "velocity": 112,
                "time": 0,
                "total_time": 275.0998315811157
            },
            {
                "note": 47,
                "velocity": 96,
                "time": 0,
                "total_time": 275.0999023914337
            },
            {
                "note": 47,
                "velocity": 0,
                "time": 0.14124976458333333,
                "total_time": 275.24089097976685
            },
            {
                "note": 42,
                "velocity": 96,
                "time": 0.008749985416666665,
                "total_time": 275.249728679657
            },
            {
                "note": 42,
                "velocity": 0,
                "time": 0.14124976458333333,
                "total_time": 275.39087677001953
            },
            {
                "note": 75,
                "velocity": 0,
                "time": 0.007499987499999999,
                "total_time": 275.39862966537476
            },
            {
                "note": 66,
                "velocity": 0,
                "time": 0,
                "total_time": 275.39904379844666
            },
            {
                "note": 78,
                "velocity": 112,
                "time": 0.0012499979166666665,
                "total_time": 275.3996162414551
            },
            {
                "note": 70,
                "velocity": 112,
                "time": 0,
                "total_time": 275.3999922275543
            },
            {
                "note": 51,
                "velocity": 96,
                "time": 0,
                "total_time": 275.4001681804657
            },
            {
                "note": 51,
                "velocity": 0,
                "time": 0.14124976458333333,
                "total_time": 275.5409004688263
            },
            {
                "note": 42,
                "velocity": 96,
                "time": 0.008749985416666665,
                "total_time": 275.5496802330017
            },
            {
                "note": 42,
                "velocity": 0,
                "time": 0.14124976458333333,
                "total_time": 275.6908338069916
            },
            {
                "note": 78,
                "velocity": 0,
                "time": 0.007499987499999999,
                "total_time": 275.69885087013245
            },
            {
                "note": 70,
                "velocity": 0,
                "time": 0,
                "total_time": 275.69900822639465
            },
            {
                "note": 82,
                "velocity": 112,
                "time": 0.0012499979166666665,
                "total_time": 275.69962763786316
            },
            {
                "note": 75,
                "velocity": 112,
                "time": 0,
                "total_time": 275.699759721756
            },
            {
                "note": 47,
                "velocity": 96,
                "time": 0,
                "total_time": 275.69979524612427
            },
            {
                "note": 47,
                "velocity": 0,
                "time": 0.14124976458333333,
                "total_time": 275.8408739566803
            },
            {
                "note": 42,
                "velocity": 96,
                "time": 0.008749985416666665,
                "total_time": 275.8496437072754
            },
            {
                "note": 35,
                "velocity": 0,
                "time": 0.08874985208333332,
                "total_time": 275.93841791152954
            },
            {
                "note": 82,
                "velocity": 0,
                "time": 0.044999924999999996,
                "total_time": 275.98340368270874
            },
            {
                "note": 75,
                "velocity": 0,
                "time": 0,
                "total_time": 275.98370885849
            },
            {
                "note": 42,
                "velocity": 0,
                "time": 0.007499987499999999,
                "total_time": 275.99084067344666
            },
            {
                "note": 80,
                "velocity": 127,
                "time": 0,
                "total_time": 275.9999785423279
            },
            {
                "note": 73,
                "velocity": 112,
                "time": 0,
                "total_time": 276.00064992904663
            },
            {
                "note": 37,
                "velocity": 112,
                "time": 0,
                "total_time": 276.00096917152405
            },
            {
                "note": 37,
                "velocity": 0,
                "time": 0,
                "total_time": 276.00111174583435
            },
            {
                "note": 37,
                "velocity": 112,
                "time": 0,
                "total_time": 276.0012307167053
            },
            {
                "note": 44,
                "velocity": 96,
                "time": 0,
                "total_time": 276.16299510002136
            },
            {
                "note": 44,
                "velocity": 0,
                "time": 0.15353286458333332,
                "total_time": 276.3162360191345
            },
            {
                "note": 49,
                "velocity": 96,
                "time": 0.009510885416666665,
                "total_time": 276.32573890686035
            },
            {
                "note": 49,
                "velocity": 0,
                "time": 0.15353286458333332,
                "total_time": 276.47928619384766
            },
            {
                "note": 53,
                "velocity": 96,
                "time": 0.009510885416666665,
                "total_time": 276.4889187812805
            },
            {
                "note": 53,
                "velocity": 0,
                "time": 0.15353286458333332,
                "total_time": 276.642290353775
            },
            {
                "note": 56,
                "velocity": 96,
                "time": 0,
                "total_time": 276.65189123153687
            },
            {
                "note": 56,
                "velocity": 0,
                "time": 0.16051108541666667,
                "total_time": 276.8123195171356
            },
            {
                "note": 53,
                "velocity": 96,
                "time": 0.009943164583333334,
                "total_time": 276.8222601413727
            },
            {
                "note": 80,
                "velocity": 0,
                "time": 0.059658987499999996,
                "total_time": 276.8819992542267
            },
            {
                "note": 53,
                "velocity": 0,
                "time": 0.10085209791666666,
                "total_time": 276.9828758239746
            },
            {
                "note": 49,
                "velocity": 96,
                "time": 0.009943164583333334,
                "total_time": 276.99287462234497
            },
            {
                "note": 49,
                "velocity": 0,
                "time": 0.16903379791666667,
                "total_time": 277.16178607940674
            },
            {
                "note": 73,
                "velocity": 0,
                "time": 0.10227254999999999,
                "total_time": 277.26403856277466
            },
            {
                "note": 37,
                "velocity": 0,
                "time": 0,
                "total_time": 277.26423597335815
            },
            {
                "note": 65,
                "velocity": 127,
                "time": 0,
                "total_time": 277.3337399959564
            },
            {
                "note": 73,
                "velocity": 127,
                "time": 0,
                "total_time": 277.3341951370239
            },
            {
                "note": 77,
                "velocity": 127,
                "time": 0,
                "total_time": 277.3344073295593
            },
            {
                "note": 37,
                "velocity": 127,
                "time": 0,
                "total_time": 277.33457827568054
            },
            {
                "note": 44,
                "velocity": 127,
                "time": 0,
                "total_time": 277.33473539352417
            },
            {
                "note": 49,
                "velocity": 127,
                "time": 0,
                "total_time": 277.33488845825195
            },
            {
                "note": 65,
                "velocity": 0,
                "time": 0.47470257083333334,
                "total_time": 277.8098521232605
            },
            {
                "note": 73,
                "velocity": 0,
                "time": 0,
                "total_time": 277.81006383895874
            },
            {
                "note": 77,
                "velocity": 0,
                "time": 0,
                "total_time": 277.8101541996002
            },
            {
                "note": 37,
                "velocity": 0,
                "time": 0,
                "total_time": 277.8102262020111
            },
            {
                "note": 44,
                "velocity": 0,
                "time": 0,
                "total_time": 277.81029200553894
            },
            {
                "note": 49,
                "velocity": 0,
                "time": 0,
                "total_time": 277.8103542327881
            },
            {
                "note": 61,
                "velocity": 127,
                "time": 0,
                "total_time": 278.04808616638184
            },
            {
                "note": 70,
                "velocity": 127,
                "time": 0,
                "total_time": 278.0483396053314
            },
            {
                "note": 73,
                "velocity": 127,
                "time": 0,
                "total_time": 278.04846119880676
            },
            {
                "note": 41,
                "velocity": 127,
                "time": 0,
                "total_time": 278.0485475063324
            },
            {
                "note": 49,
                "velocity": 127,
                "time": 0,
                "total_time": 278.0486273765564
            },
            {
                "note": 53,
                "velocity": 127,
                "time": 0,
                "total_time": 278.04870343208313
            },
            {
                "note": 61,
                "velocity": 0,
                "time": 0.5000013333333333,
                "total_time": 278.5479052066803
            },
            {
                "note": 70,
                "velocity": 0,
                "time": 0,
                "total_time": 278.5480513572693
            },
            {
                "note": 73,
                "velocity": 0,
                "time": 0,
                "total_time": 278.54808592796326
            },
            {
                "note": 41,
                "velocity": 0,
                "time": 0,
                "total_time": 278.54810881614685
            },
            {
                "note": 49,
                "velocity": 0,
                "time": 0,
                "total_time": 278.54812932014465
            },
            {
                "note": 53,
                "velocity": 0,
                "time": 0,
                "total_time": 278.5481493473053
            },
            {
                "note": 63,
                "velocity": 127,
                "time": 0,
                "total_time": 278.7981667518616
            },
            {
                "note": 66,
                "velocity": 127,
                "time": 0,
                "total_time": 278.79841899871826
            },
            {
                "note": 75,
                "velocity": 127,
                "time": 0,
                "total_time": 278.79855155944824
            },
            {
                "note": 39,
                "velocity": 127,
                "time": 0,
                "total_time": 278.7986364364624
            },
            {
                "note": 46,
                "velocity": 127,
                "time": 0,
                "total_time": 278.798712015152
            },
            {
                "note": 51,
                "velocity": 127,
                "time": 0,
                "total_time": 278.798791885376
            },
            {
                "note": 63,
                "velocity": 0,
                "time": 0.5263146666666666,
                "total_time": 279.32422137260437
            },
            {
                "note": 66,
                "velocity": 0,
                "time": 0,
                "total_time": 279.32432198524475
            },
            {
                "note": 75,
                "velocity": 0,
                "time": 0,
                "total_time": 279.3243553638458
            },
            {
                "note": 39,
                "velocity": 0,
                "time": 0,
                "total_time": 279.3243827819824
            },
            {
                "note": 46,
                "velocity": 0,
                "time": 0,
                "total_time": 279.3244071006775
            },
            {
                "note": 51,
                "velocity": 0,
                "time": 0,
                "total_time": 279.32442903518677
            }
        ]
    },
    "program_change": {
        "0": [
            {
                "channel": 0,
                "time": 0
            }
        ]
    },
    "set_tempo": []
}