{
	"ticks_per_beat": 96,
	"notes": {
		"0": [
			{
				"note": 61,
				"velocity": 100,
				"time": 0,
				"elapsed": 0.008107423782348633
			},
			{
				"note": 65,
				"velocity": 100,
				"time": 0,
				"elapsed": 0.2311718463897705
			},
			{
				"note": 64,
				"velocity": 100,
				"time": 0,
				"elapsed": 0.23126959800720215
			},
			{
				"note": 64,
				"velocity": 100,
				"time": 0.230769,
				"elapsed": 0.6925339698791504
			},
			{
				"note": 65,
				"velocity": 100,
				"time": 0,
				"elapsed": 0.6927876472473145
			},
			{
				"note": 61,
				"velocity": 100,
				"time": 0,
				"elapsed": 0.923241138458252
			},
			{
				"note": 63,
				"velocity": 100,
				"time": 0,
				"elapsed": 1.1539802551269531
			},
			{
				"note": 65,
				"velocity": 100,
				"time": 0,
				"elapsed": 1.1540086269378662
			},
			{
				"note": 63,
				"velocity": 100,
				"time": 0.230769,
				"elapsed": 1.6155726909637451
			},
			{
				"note": 65,
				"velocity": 100,
				"time": 0,
				"elapsed": 1.6157314777374268
			},
			{
				"note": 61,
				"velocity": 100,
				"time": 0,
				"elapsed": 1.8464951515197754
			},
			{
				"note": 65,
				"velocity": 100,
				"time": 0,
				"elapsed": 2.077347993850708
			},
			{
				"note": 62,
				"velocity": 100,
				"time": 0,
				"elapsed": 2.077446937561035
			},
			{
				"note": 62,
				"velocity": 100,
				"time": 0.230769,
				"elapsed": 2.538712978363037
			},
			{
				"note": 65,
				"velocity": 100,
				"time": 0,
				"elapsed": 2.538944721221924
			},
			{
				"note": 61,
				"velocity": 100,
				"time": 0,
				"elapsed": 2.7694947719573975
			},
			{
				"note": 62,
				"velocity": 100,
				"time": 0,
				"elapsed": 3.0003790855407715
			},
			{
				"note": 64,
				"velocity": 100,
				"time": 0,
				"elapsed": 3.0004703998565674
			},
			{
				"note": 62,
				"velocity": 100,
				"time": 0.230769,
				"elapsed": 3.4616127014160156
			},
			{
				"note": 64,
				"velocity": 100,
				"time": 0,
				"elapsed": 3.4617066383361816
			},
			{
				"note": 60,
				"velocity": 100,
				"time": 0,
				"elapsed": 3.692720413208008
			},
			{
				"note": 65,
				"velocity": 100,
				"time": 0,
				"elapsed": 3.92350172996521
			},
			{
				"note": 64,
				"velocity": 100,
				"time": 0,
				"elapsed": 3.923705577850342
			},
			{
				"note": 65,
				"velocity": 100,
				"time": 0.230769,
				"elapsed": 4.384902238845825
			},
			{
				"note": 64,
				"velocity": 100,
				"time": 0,
				"elapsed": 4.385150194168091
			},
			{
				"note": 60,
				"velocity": 100,
				"time": 0,
				"elapsed": 4.615893602371216
			},
			{
				"note": 64,
				"velocity": 100,
				"time": 0,
				"elapsed": 4.846359014511108
			},
			{
				"note": 63,
				"velocity": 100,
				"time": 0,
				"elapsed": 4.8464086055755615
			},
			{
				"note": 64,
				"velocity": 100,
				"time": 0.230769,
				"elapsed": 5.307926416397095
			},
			{
				"note": 63,
				"velocity": 100,
				"time": 0,
				"elapsed": 5.30814266204834
			},
			{
				"note": 60,
				"velocity": 100,
				"time": 0,
				"elapsed": 5.5390965938568115
			},
			{
				"note": 63,
				"velocity": 100,
				"time": 0,
				"elapsed": 5.769440174102783
			},
			{
				"note": 62,
				"velocity": 100,
				"time": 0,
				"elapsed": 5.769492864608765
			},
			{
				"note": 62,
				"velocity": 100,
				"time": 0.230769,
				"elapsed": 6.231033563613892
			},
			{
				"note": 63,
				"velocity": 100,
				"time": 0,
				"elapsed": 6.231213092803955
			},
			{
				"note": 60,
				"velocity": 100,
				"time": 0,
				"elapsed": 6.461698770523071
			},
			{
				"note": 62,
				"velocity": 100,
				"time": 0,
				"elapsed": 6.692686557769775
			},
			{
				"note": 64,
				"velocity": 100,
				"time": 0,
				"elapsed": 6.692760229110718
			},
			{
				"note": 64,
				"velocity": 100,
				"time": 0.230769,
				"elapsed": 7.154052495956421
			},
			{
				"note": 62,
				"velocity": 100,
				"time": 0,
				"elapsed": 7.154262065887451
			},
			{
				"note": 61,
				"velocity": 100,
				"time": 0.230769,
				"elapsed": 7.615575790405273
			},
			{
				"note": 62,
				"velocity": 100,
				"time": 0,
				"elapsed": 7.8464741706848145
			},
			{
				"note": 64,
				"velocity": 100,
				"time": 0,
				"elapsed": 8.077423095703125
			},
			{
				"note": 65,
				"velocity": 100,
				"time": 0,
				"elapsed": 8.307881116867065
			},
			{
				"note": 64,
				"velocity": 100,
				"time": 0.86538375,
				"elapsed": 9.404038667678833
			},
			{
				"note": 65,
				"velocity": 100,
				"time": 0,
				"elapsed": 9.46166729927063
			},
			{
				"note": 64,
				"velocity": 100,
				"time": 0,
				"elapsed": 9.69268012046814
			},
			{
				"note": 63,
				"velocity": 100,
				"time": 0,
				"elapsed": 9.923507452011108
			},
			{
				"note": 64,
				"velocity": 100,
				"time": 0,
				"elapsed": 10.154183387756348
			},
			{
				"note": 63,
				"velocity": 100,
				"time": 0,
				"elapsed": 10.384872674942017
			},
			{
				"note": 61,
				"velocity": 100,
				"time": 0,
				"elapsed": 10.615782022476196
			},
			{
				"note": 63,
				"velocity": 100,
				"time": 0,
				"elapsed": 10.846593618392944
			},
			{
				"note": 62,
				"velocity": 100,
				"time": 0,
				"elapsed": 11.077129364013672
			},
			{
				"note": 60,
				"velocity": 100,
				"time": 0,
				"elapsed": 11.307943105697632
			},
			{
				"note": 65,
				"velocity": 100,
				"time": 0,
				"elapsed": 11.5388765335083
			},
			{
				"note": 60,
				"velocity": 100,
				"time": 0,
				"elapsed": 11.76938772201538
			},
			{
				"note": 62,
				"velocity": 100,
				"time": 0,
				"elapsed": 12.000496625900269
			},
			{
				"note": 65,
				"velocity": 100,
				"time": 0,
				"elapsed": 12.231277704238892
			},
			{
				"note": 64,
				"velocity": 100,
				"time": 0,
				"elapsed": 12.461974859237671
			},
			{
				"note": 62,
				"velocity": 100,
				"time": 0,
				"elapsed": 12.692478895187378
			},
			{
				"note": 65,
				"velocity": 100,
				"time": 0,
				"elapsed": 12.923299789428711
			},
			{
				"note": 63,
				"velocity": 100,
				"time": 0,
				"elapsed": 13.269546031951904
			},
			{
				"note": 62,
				"velocity": 100,
				"time": 0,
				"elapsed": 13.615894317626953
			},
			{
				"note": 63,
				"velocity": 100,
				"time": 0,
				"elapsed": 13.846292972564697
			},
			{
				"note": 62,
				"velocity": 100,
				"time": 0,
				"elapsed": 14.077059507369995
			},
			{
				"note": 61,
				"velocity": 100,
				"time": 0,
				"elapsed": 14.308113813400269
			},
			{
				"note": 60,
				"velocity": 100,
				"time": 0,
				"elapsed": 14.538681745529175
			},
			{
				"note": 61,
				"velocity": 100,
				"time": 0.230769,
				"elapsed": 15.000108242034912
			},
			{
				"note": 63,
				"velocity": 100,
				"time": 0,
				"elapsed": 15.230881452560425
			},
			{
				"note": 64,
				"velocity": 100,
				"time": 0,
				"elapsed": 15.461728572845459
			},
			{
				"note": 65,
				"velocity": 100,
				"time": 0,
				"elapsed": 15.692677974700928
			},
			{
				"note": 64,
				"velocity": 100,
				"time": 0.692307,
				"elapsed": 16.615483045578003
			},
			{
				"note": 63,
				"velocity": 100,
				"time": 0,
				"elapsed": 16.67343235015869
			},
			{
				"note": 64,
				"velocity": 100,
				"time": 0,
				"elapsed": 16.730900526046753
			},
			{
				"note": 63,
				"velocity": 100,
				"time": 0,
				"elapsed": 16.78861165046692
			},
			{
				"note": 64,
				"velocity": 100,
				"time": 0,
				"elapsed": 16.846280574798584
			},
			{
				"note": 62,
				"velocity": 100,
				"time": 0,
				"elapsed": 17.07714009284973
			},
			{
				"note": 61,
				"velocity": 100,
				"time": 0,
				"elapsed": 17.307817697525024
			},
			{
				"note": 65,
				"velocity": 100,
				"time": 0,
				"elapsed": 17.5391788482666
			},
			{
				"note": 64,
				"velocity": 100,
				"time": 0,
				"elapsed": 17.88473391532898
			},
			{
				"note": 63,
				"velocity": 100,
				"time": 0,
				"elapsed": 18.2313129901886
			},
			{
				"note": 63,
				"velocity": 100,
				"time": 0.461538,
				"elapsed": 18.92326307296753
			},
			{
				"note": 64,
				"velocity": 100,
				"time": 0,
				"elapsed": 19.153974056243896
			},
			{
				"note": 60,
				"velocity": 100,
				"time": 0,
				"elapsed": 19.3851375579834
			},
			{
				"note": 62,
				"velocity": 100,
				"time": 0.1153845,
				"elapsed": 19.73091149330139
			},
			{
				"note": 63,
				"velocity": 100,
				"time": 0.1153845,
				"elapsed": 20.07701015472412
			},
			{
				"note": 64,
				"velocity": 100,
				"time": 0,
				"elapsed": 20.308177947998047
			},
			{
				"note": 61,
				"velocity": 100,
				"time": 0,
				"elapsed": 20.538941621780396
			},
			{
				"note": 62,
				"velocity": 100,
				"time": 0,
				"elapsed": 20.769466161727905
			},
			{
				"note": 64,
				"velocity": 100,
				"time": 0,
				"elapsed": 21.000378131866455
			},
			{
				"note": 63,
				"velocity": 100,
				"time": 0,
				"elapsed": 21.23104429244995
			},
			{
				"note": 62,
				"velocity": 100,
				"time": 0,
				"elapsed": 21.46189594268799
			},
			{
				"note": 61,
				"velocity": 100,
				"time": 0,
				"elapsed": 21.692476511001587
			},
			{
				"note": 60,
				"velocity": 100,
				"time": 0,
				"elapsed": 21.923357725143433
			},
			{
				"note": 63,
				"velocity": 100,
				"time": 0,
				"elapsed": 22.154097080230713
			},
			{
				"note": 65,
				"velocity": 100,
				"time": 0,
				"elapsed": 22.385061264038086
			},
			{
				"note": 64,
				"velocity": 100,
				"time": 0,
				"elapsed": 22.38517737388611
			},
			{
				"note": 62,
				"velocity": 100,
				"time": 0,
				"elapsed": 22.615956783294678
			},
			{
				"note": 65,
				"velocity": 100,
				"time": 0,
				"elapsed": 22.846690893173218
			},
			{
				"note": 63,
				"velocity": 100,
				"time": 0,
				"elapsed": 22.84681510925293
			},
			{
				"note": 61,
				"velocity": 100,
				"time": 0,
				"elapsed": 23.077064514160156
			},
			{
				"note": 62,
				"velocity": 100,
				"time": 0,
				"elapsed": 23.307790279388428
			},
			{
				"note": 65,
				"velocity": 100,
				"time": 0,
				"elapsed": 23.3078293800354
			},
			{
				"note": 60,
				"velocity": 100,
				"time": 0,
				"elapsed": 23.53897714614868
			},
			{
				"note": 64,
				"velocity": 100,
				"time": 0,
				"elapsed": 23.76970076560974
			},
			{
				"note": 62,
				"velocity": 100,
				"time": 0,
				"elapsed": 23.77009105682373
			},
			{
				"note": 64,
				"velocity": 100,
				"time": 0.230769,
				"elapsed": 24.230962991714478
			},
			{
				"note": 65,
				"velocity": 100,
				"time": 0,
				"elapsed": 24.461841106414795
			},
			{
				"note": 64,
				"velocity": 100,
				"time": 0,
				"elapsed": 24.692721128463745
			},
			{
				"note": 63,
				"velocity": 100,
				"time": 0,
				"elapsed": 24.923545837402344
			},
			{
				"note": 62,
				"velocity": 100,
				"time": 0.1153845,
				"elapsed": 25.269553899765015
			},
			{
				"note": 61,
				"velocity": 100,
				"time": 0.1153845,
				"elapsed": 25.61550259590149
			},
			{
				"note": 60,
				"velocity": 100,
				"time": 0,
				"elapsed": 25.846656799316406
			},
			{
				"note": 62,
				"velocity": 100,
				"time": 0.17307675,
				"elapsed": 26.71164560317993
			},
			{
				"note": 63,
				"velocity": 100,
				"time": 0,
				"elapsed": 26.76943039894104
			},
			{
				"note": 62,
				"velocity": 100,
				"time": 0,
				"elapsed": 27.0001163482666
			},
			{
				"note": 60,
				"velocity": 100,
				"time": 0,
				"elapsed": 27.231016159057617
			},
			{
				"note": 61,
				"velocity": 100,
				"time": 0,
				"elapsed": 27.462113618850708
			},
			{
				"note": 60,
				"velocity": 100,
				"time": 0,
				"elapsed": 27.692694425582886
			},
			{
				"note": 61,
				"velocity": 100,
				"time": 0,
				"elapsed": 27.92346167564392
			},
			{
				"note": 63,
				"velocity": 100,
				"time": 0,
				"elapsed": 28.154290437698364
			},
			{
				"note": 64,
				"velocity": 100,
				"time": 0,
				"elapsed": 28.384721755981445
			},
			{
				"note": 65,
				"velocity": 100,
				"time": 0,
				"elapsed": 28.61581516265869
			},
			{
				"note": 62,
				"velocity": 100,
				"time": 0.1153845,
				"elapsed": 28.96174907684326
			},
			{
				"note": 61,
				"velocity": 100,
				"time": 0.1153845,
				"elapsed": 29.307762622833252
			},
			{
				"note": 64,
				"velocity": 100,
				"time": 0.17307675,
				"elapsed": 29.48094868659973
			},
			{
				"note": 65,
				"velocity": 100,
				"time": 0,
				"elapsed": 29.538706064224243
			},
			{
				"note": 64,
				"velocity": 100,
				"time": 0,
				"elapsed": 29.769620418548584
			},
			{
				"note": 63,
				"velocity": 100,
				"time": 0,
				"elapsed": 30.000447273254395
			},
			{
				"note": 61,
				"velocity": 100,
				"time": 0,
				"elapsed": 30.230990409851074
			},
			{
				"note": 62,
				"velocity": 100,
				"time": 0,
				"elapsed": 30.461947679519653
			},
			{
				"note": 61,
				"velocity": 100,
				"time": 0,
				"elapsed": 30.6926212310791
			},
			{
				"note": 60,
				"velocity": 100,
				"time": 0,
				"elapsed": 30.923475742340088
			},
			{
				"note": 61,
				"velocity": 100,
				"time": 0,
				"elapsed": 31.15404176712036
			},
			{
				"note": 60,
				"velocity": 100,
				"time": 0,
				"elapsed": 31.38507056236267
			},
			{
				"note": 63,
				"velocity": 100,
				"time": 0,
				"elapsed": 31.615734577178955
			},
			{
				"note": 64,
				"velocity": 100,
				"time": 0,
				"elapsed": 31.84654974937439
			},
			{
				"note": 63,
				"velocity": 100,
				"time": 0,
				"elapsed": 32.0771484375
			},
			{
				"note": 65,
				"velocity": 100,
				"time": 0,
				"elapsed": 32.30780863761902
			},
			{
				"note": 64,
				"velocity": 100,
				"time": 0.1153845,
				"elapsed": 32.65388560295105
			},
			{
				"note": 60,
				"velocity": 100,
				"time": 0.1153845,
				"elapsed": 33.000088930130005
			},
			{
				"note": 63,
				"velocity": 100,
				"time": 0,
				"elapsed": 33.23093891143799
			},
			{
				"note": 63,
				"velocity": 100,
				"time": 0.17307675,
				"elapsed": 34.096193075180054
			},
			{
				"note": 64,
				"velocity": 100,
				"time": 0,
				"elapsed": 34.15400815010071
			},
			{
				"note": 63,
				"velocity": 100,
				"time": 0,
				"elapsed": 34.38497591018677
			},
			{
				"note": 64,
				"velocity": 100,
				"time": 0,
				"elapsed": 34.615485429763794
			},
			{
				"note": 65,
				"velocity": 100,
				"time": 0,
				"elapsed": 34.84628129005432
			},
			{
				"note": 64,
				"velocity": 100,
				"time": 0,
				"elapsed": 35.0770366191864
			},
			{
				"note": 63,
				"velocity": 100,
				"time": 0,
				"elapsed": 35.30805730819702
			},
			{
				"note": 62,
				"velocity": 100,
				"time": 0,
				"elapsed": 35.53859066963196
			},
			{
				"note": 61,
				"velocity": 100,
				"time": 0,
				"elapsed": 35.76934242248535
			},
			{
				"note": 63,
				"velocity": 100,
				"time": 0,
				"elapsed": 36.00025677680969
			},
			{
				"note": 62,
				"velocity": 100,
				"time": 0.1153845,
				"elapsed": 36.34620189666748
			},
			{
				"note": 61,
				"velocity": 100,
				"time": 0.1153845,
				"elapsed": 36.692381620407104
			},
			{
				"note": 60,
				"velocity": 100,
				"time": 0,
				"elapsed": 36.92318820953369
			},
			{
				"note": 61,
				"velocity": 100,
				"time": 0,
				"elapsed": 37.15394377708435
			},
			{
				"note": 62,
				"velocity": 100,
				"time": 0,
				"elapsed": 37.38473320007324
			},
			{
				"note": 64,
				"velocity": 100,
				"time": 0,
				"elapsed": 37.61557340621948
			},
			{
				"note": 60,
				"velocity": 100,
				"time": 0,
				"elapsed": 37.84625744819641
			},
			{
				"note": 61,
				"velocity": 100,
				"time": 0,
				"elapsed": 38.07715392112732
			},
			{
				"note": 62,
				"velocity": 100,
				"time": 0,
				"elapsed": 38.30786466598511
			},
			{
				"note": 65,
				"velocity": 100,
				"time": 0,
				"elapsed": 38.53864121437073
			},
			{
				"note": 62,
				"velocity": 100,
				"time": 0,
				"elapsed": 38.76933670043945
			},
			{
				"note": 63,
				"velocity": 100,
				"time": 0,
				"elapsed": 40.15414047241211
			},
			{
				"note": 64,
				"velocity": 100,
				"time": 0,
				"elapsed": 40.3848979473114
			},
			{
				"note": 64,
				"velocity": 100,
				"time": 0.05769225,
				"elapsed": 41.480809926986694
			},
			{
				"note": 65,
				"velocity": 100,
				"time": 0,
				"elapsed": 41.53856563568115
			},
			{
				"note": 64,
				"velocity": 100,
				"time": 0,
				"elapsed": 41.7693235874176
			},
			{
				"note": 62,
				"velocity": 100,
				"time": 0,
				"elapsed": 42.000346422195435
			},
			{
				"note": 61,
				"velocity": 100,
				"time": 0,
				"elapsed": 42.23107028007507
			},
			{
				"note": 62,
				"velocity": 100,
				"time": 0,
				"elapsed": 42.46177530288696
			},
			{
				"note": 63,
				"velocity": 100,
				"time": 0,
				"elapsed": 43.846391439437866
			},
			{
				"note": 64,
				"velocity": 100,
				"time": 0,
				"elapsed": 44.07716703414917
			},
			{
				"note": 63,
				"velocity": 100,
				"time": 0.05769225,
				"elapsed": 45.1731116771698
			},
			{
				"note": 64,
				"velocity": 100,
				"time": 0,
				"elapsed": 45.23092031478882
			},
			{
				"note": 63,
				"velocity": 100,
				"time": 0,
				"elapsed": 45.46179223060608
			},
			{
				"note": 61,
				"velocity": 100,
				"time": 0,
				"elapsed": 45.69249415397644
			},
			{
				"note": 62,
				"velocity": 100,
				"time": 0,
				"elapsed": 45.92321538925171
			},
			{
				"note": 62,
				"velocity": 100,
				"time": 0,
				"elapsed": 46.15399670600891
			},
			{
				"note": 61,
				"velocity": 100,
				"time": 0,
				"elapsed": 47.53906297683716
			},
			{
				"note": 63,
				"velocity": 100,
				"time": 0,
				"elapsed": 47.76947617530823
			},
			{
				"note": 63,
				"velocity": 100,
				"time": 0.05769225,
				"elapsed": 48.86542081832886
			},
			{
				"note": 64,
				"velocity": 100,
				"time": 0,
				"elapsed": 48.92320680618286
			},
			{
				"note": 63,
				"velocity": 100,
				"time": 0,
				"elapsed": 49.153966665267944
			},
			{
				"note": 62,
				"velocity": 100,
				"time": 0,
				"elapsed": 49.384870290756226
			},
			{
				"note": 61,
				"velocity": 100,
				"time": 0,
				"elapsed": 49.61550450325012
			},
			{
				"note": 62,
				"velocity": 100,
				"time": 0,
				"elapsed": 49.84636187553406
			},
			{
				"note": 61,
				"velocity": 100,
				"time": 0,
				"elapsed": 51.230875968933105
			},
			{
				"note": 60,
				"velocity": 100,
				"time": 0,
				"elapsed": 51.461684703826904
			},
			{
				"note": 62,
				"velocity": 100,
				"time": 0.05769225,
				"elapsed": 52.557719469070435
			},
			{
				"note": 63,
				"velocity": 100,
				"time": 0,
				"elapsed": 52.61562132835388
			},
			{
				"note": 62,
				"velocity": 100,
				"time": 0,
				"elapsed": 52.846343994140625
			},
			{
				"note": 60,
				"velocity": 100,
				"time": 0,
				"elapsed": 53.077025175094604
			},
			{
				"note": 61,
				"velocity": 100,
				"time": 0,
				"elapsed": 53.30779790878296
			},
			{
				"note": 61,
				"velocity": 100,
				"time": 0.230769,
				"elapsed": 53.76932096481323
			},
			{
				"note": 62,
				"velocity": 100,
				"time": 0,
				"elapsed": 54.000258445739746
			},
			{
				"note": 64,
				"velocity": 100,
				"time": 0,
				"elapsed": 54.2309045791626
			},
			{
				"note": 65,
				"velocity": 100,
				"time": 0,
				"elapsed": 54.461753845214844
			},
			{
				"note": 64,
				"velocity": 100,
				"time": 0.86538375,
				"elapsed": 55.55775761604309
			},
			{
				"note": 65,
				"velocity": 100,
				"time": 0,
				"elapsed": 55.61557984352112
			},
			{
				"note": 64,
				"velocity": 100,
				"time": 0,
				"elapsed": 55.84628939628601
			},
			{
				"note": 63,
				"velocity": 100,
				"time": 0,
				"elapsed": 56.077106952667236
			},
			{
				"note": 64,
				"velocity": 100,
				"time": 0,
				"elapsed": 56.307945728302
			},
			{
				"note": 63,
				"velocity": 100,
				"time": 0,
				"elapsed": 56.53859257698059
			},
			{
				"note": 61,
				"velocity": 100,
				"time": 0,
				"elapsed": 56.76948428153992
			},
			{
				"note": 63,
				"velocity": 100,
				"time": 0,
				"elapsed": 57.00026297569275
			},
			{
				"note": 62,
				"velocity": 100,
				"time": 0,
				"elapsed": 57.231022357940674
			},
			{
				"note": 60,
				"velocity": 100,
				"time": 0,
				"elapsed": 57.46167325973511
			},
			{
				"note": 65,
				"velocity": 100,
				"time": 0,
				"elapsed": 57.692466259002686
			},
			{
				"note": 60,
				"velocity": 100,
				"time": 0,
				"elapsed": 57.92336630821228
			},
			{
				"note": 62,
				"velocity": 100,
				"time": 0,
				"elapsed": 58.15419864654541
			},
			{
				"note": 65,
				"velocity": 100,
				"time": 0,
				"elapsed": 58.384748697280884
			},
			{
				"note": 64,
				"velocity": 100,
				"time": 0,
				"elapsed": 58.615480184555054
			},
			{
				"note": 62,
				"velocity": 100,
				"time": 0,
				"elapsed": 58.84634232521057
			},
			{
				"note": 65,
				"velocity": 100,
				"time": 0,
				"elapsed": 59.07715106010437
			},
			{
				"note": 63,
				"velocity": 100,
				"time": 0,
				"elapsed": 59.42328882217407
			},
			{
				"note": 62,
				"velocity": 100,
				"time": 0,
				"elapsed": 59.7694935798645
			},
			{
				"note": 63,
				"velocity": 100,
				"time": 0,
				"elapsed": 60.00027346611023
			},
			{
				"note": 62,
				"velocity": 100,
				"time": 0,
				"elapsed": 60.230865716934204
			},
			{
				"note": 61,
				"velocity": 100,
				"time": 0,
				"elapsed": 60.461745738983154
			},
			{
				"note": 60,
				"velocity": 100,
				"time": 0,
				"elapsed": 60.69247555732727
			},
			{
				"note": 61,
				"velocity": 100,
				"time": 0.230769,
				"elapsed": 61.15386772155762
			},
			{
				"note": 63,
				"velocity": 100,
				"time": 0,
				"elapsed": 61.384995222091675
			},
			{
				"note": 64,
				"velocity": 100,
				"time": 0,
				"elapsed": 61.61548113822937
			},
			{
				"note": 65,
				"velocity": 100,
				"time": 0,
				"elapsed": 61.846271991729736
			},
			{
				"note": 64,
				"velocity": 100,
				"time": 0.692307,
				"elapsed": 62.769251108169556
			},
			{
				"note": 63,
				"velocity": 100,
				"time": 0,
				"elapsed": 62.827035903930664
			},
			{
				"note": 64,
				"velocity": 100,
				"time": 0,
				"elapsed": 62.88476252555847
			},
			{
				"note": 63,
				"velocity": 100,
				"time": 0,
				"elapsed": 62.942413091659546
			},
			{
				"note": 64,
				"velocity": 100,
				"time": 0,
				"elapsed": 63.000184059143066
			},
			{
				"note": 62,
				"velocity": 100,
				"time": 0,
				"elapsed": 63.23096442222595
			},
			{
				"note": 61,
				"velocity": 100,
				"time": 0,
				"elapsed": 63.4617395401001
			},
			{
				"note": 65,
				"velocity": 100,
				"time": 0,
				"elapsed": 63.69243025779724
			},
			{
				"note": 64,
				"velocity": 100,
				"time": 0,
				"elapsed": 64.0387852191925
			},
			{
				"note": 63,
				"velocity": 100,
				"time": 0,
				"elapsed": 64.3848602771759
			},
			{
				"note": 63,
				"velocity": 100,
				"time": 0.461538,
				"elapsed": 65.07701969146729
			},
			{
				"note": 64,
				"velocity": 100,
				"time": 0,
				"elapsed": 65.30795645713806
			},
			{
				"note": 60,
				"velocity": 100,
				"time": 0,
				"elapsed": 65.53855514526367
			},
			{
				"note": 62,
				"velocity": 100,
				"time": 0.1153845,
				"elapsed": 65.88464641571045
			},
			{
				"note": 63,
				"velocity": 100,
				"time": 0.1153845,
				"elapsed": 66.23081731796265
			},
			{
				"note": 64,
				"velocity": 100,
				"time": 0,
				"elapsed": 66.46164989471436
			},
			{
				"note": 61,
				"velocity": 100,
				"time": 0,
				"elapsed": 66.69259285926819
			},
			{
				"note": 62,
				"velocity": 100,
				"time": 0,
				"elapsed": 66.92333793640137
			},
			{
				"note": 64,
				"velocity": 100,
				"time": 0,
				"elapsed": 67.15393686294556
			},
			{
				"note": 63,
				"velocity": 100,
				"time": 0,
				"elapsed": 67.38493084907532
			},
			{
				"note": 62,
				"velocity": 100,
				"time": 0,
				"elapsed": 67.61566042900085
			},
			{
				"note": 61,
				"velocity": 100,
				"time": 0,
				"elapsed": 67.84637522697449
			},
			{
				"note": 60,
				"velocity": 100,
				"time": 0,
				"elapsed": 68.07706427574158
			},
			{
				"note": 61,
				"velocity": 100,
				"time": 0,
				"elapsed": 68.30778646469116
			},
			{
				"note": 64,
				"velocity": 100,
				"time": 0,
				"elapsed": 68.30783009529114
			},
			{
				"note": 64,
				"velocity": 100,
				"time": 0.1153845,
				"elapsed": 68.53885388374329
			},
			{
				"note": 61,
				"velocity": 100,
				"time": 0,
				"elapsed": 68.53912425041199
			},
			{
				"note": 61,
				"velocity": 100,
				"time": 0.3461535,
				"elapsed": 69.00001740455627
			},
			{
				"note": 64,
				"velocity": 100,
				"time": 0,
				"elapsed": 69.00010776519775
			},
			{
				"note": 61,
				"velocity": 100,
				"time": 0.1153845,
				"elapsed": 69.23087334632874
			},
			{
				"note": 64,
				"velocity": 100,
				"time": 0,
				"elapsed": 69.23094892501831
			},
			{
				"note": 61,
				"velocity": 100,
				"time": 0.3461535,
				"elapsed": 69.69236636161804
			},
			{
				"note": 64,
				"velocity": 100,
				"time": 0,
				"elapsed": 69.69258689880371
			},
			{
				"note": 60,
				"velocity": 100,
				"time": 0,
				"elapsed": 70.15423965454102
			},
			{
				"note": 62,
				"velocity": 100,
				"time": 0,
				"elapsed": 70.3851158618927
			},
			{
				"note": 63,
				"velocity": 100,
				"time": 0,
				"elapsed": 70.61547899246216
			},
			{
				"note": 64,
				"velocity": 100,
				"time": 0,
				"elapsed": 70.8462963104248
			},
			{
				"note": 65,
				"velocity": 100,
				"time": 0,
				"elapsed": 71.07711982727051
			},
			{
				"note": 64,
				"velocity": 100,
				"time": 0,
				"elapsed": 71.3078761100769
			},
			{
				"note": 60,
				"velocity": 100,
				"time": 0,
				"elapsed": 71.53857183456421
			},
			{
				"note": 65,
				"velocity": 100,
				"time": 0,
				"elapsed": 71.53862047195435
			},
			{
				"note": 65,
				"velocity": 100,
				"time": 0.1153845,
				"elapsed": 71.76928877830505
			},
			{
				"note": 60,
				"velocity": 100,
				"time": 0,
				"elapsed": 71.76952862739563
			},
			{
				"note": 60,
				"velocity": 100,
				"time": 0.3461535,
				"elapsed": 72.23087501525879
			},
			{
				"note": 65,
				"velocity": 100,
				"time": 0,
				"elapsed": 72.23112392425537
			},
			{
				"note": 60,
				"velocity": 100,
				"time": 0.1153845,
				"elapsed": 72.46158576011658
			},
			{
				"note": 65,
				"velocity": 100,
				"time": 0,
				"elapsed": 72.46171140670776
			},
			{
				"note": 64,
				"velocity": 100,
				"time": 0.3461535,
				"elapsed": 72.92315220832825
			},
			{
				"note": 60,
				"velocity": 100,
				"time": 0,
				"elapsed": 72.92346143722534
			},
			{
				"note": 60,
				"velocity": 100,
				"time": 0,
				"elapsed": 73.38491582870483
			},
			{
				"note": 61,
				"velocity": 100,
				"time": 0,
				"elapsed": 73.61561298370361
			},
			{
				"note": 63,
				"velocity": 100,
				"time": 0,
				"elapsed": 73.84627485275269
			},
			{
				"note": 64,
				"velocity": 100,
				"time": 0,
				"elapsed": 74.07714605331421
			},
			{
				"note": 65,
				"velocity": 100,
				"time": 0,
				"elapsed": 74.30779647827148
			},
			{
				"note": 64,
				"velocity": 100,
				"time": 0,
				"elapsed": 74.53862357139587
			},
			{
				"note": 62,
				"velocity": 100,
				"time": 0,
				"elapsed": 74.76943588256836
			},
			{
				"note": 65,
				"velocity": 100,
				"time": 0,
				"elapsed": 74.76955342292786
			},
			{
				"note": 62,
				"velocity": 100,
				"time": 0.1153845,
				"elapsed": 75.00002789497375
			},
			{
				"note": 65,
				"velocity": 100,
				"time": 0,
				"elapsed": 75.00016188621521
			},
			{
				"note": 65,
				"velocity": 100,
				"time": 0.3461535,
				"elapsed": 75.46159195899963
			},
			{
				"note": 62,
				"velocity": 100,
				"time": 0,
				"elapsed": 75.46184372901917
			},
			{
				"note": 65,
				"velocity": 100,
				"time": 0.1153845,
				"elapsed": 75.69235634803772
			},
			{
				"note": 62,
				"velocity": 100,
				"time": 0,
				"elapsed": 75.69265818595886
			},
			{
				"note": 64,
				"velocity": 100,
				"time": 0.3461535,
				"elapsed": 76.15397691726685
			},
			{
				"note": 62,
				"velocity": 100,
				"time": 0,
				"elapsed": 76.15430068969727
			},
			{
				"note": 60,
				"velocity": 100,
				"time": 0,
				"elapsed": 76.61568117141724
			},
			{
				"note": 61,
				"velocity": 100,
				"time": 0,
				"elapsed": 76.84621858596802
			},
			{
				"note": 62,
				"velocity": 100,
				"time": 0,
				"elapsed": 77.07701325416565
			},
			{
				"note": 63,
				"velocity": 100,
				"time": 0,
				"elapsed": 77.30804467201233
			},
			{
				"note": 65,
				"velocity": 100,
				"time": 0,
				"elapsed": 77.53895735740662
			},
			{
				"note": 63,
				"velocity": 100,
				"time": 0,
				"elapsed": 77.76940321922302
			},
			{
				"note": 64,
				"velocity": 100,
				"time": 0,
				"elapsed": 78.00035119056702
			},
			{
				"note": 61,
				"velocity": 100,
				"time": 0,
				"elapsed": 78.00046634674072
			},
			{
				"note": 61,
				"velocity": 100,
				"time": 0.1153845,
				"elapsed": 78.2308247089386
			},
			{
				"note": 64,
				"velocity": 100,
				"time": 0,
				"elapsed": 78.23103833198547
			},
			{
				"note": 64,
				"velocity": 100,
				"time": 0.3461535,
				"elapsed": 78.69231343269348
			},
			{
				"note": 61,
				"velocity": 100,
				"time": 0,
				"elapsed": 78.69241309165955
			},
			{
				"note": 61,
				"velocity": 100,
				"time": 0.1153845,
				"elapsed": 78.92314124107361
			},
			{
				"note": 64,
				"velocity": 100,
				"time": 0,
				"elapsed": 78.92345213890076
			},
			{
				"note": 63,
				"velocity": 100,
				"time": 0.3461535,
				"elapsed": 79.38476252555847
			},
			{
				"note": 61,
				"velocity": 100,
				"time": 0,
				"elapsed": 79.3850564956665
			},
			{
				"note": 60,
				"velocity": 100,
				"time": 0,
				"elapsed": 79.84625124931335
			},
			{
				"note": 61,
				"velocity": 100,
				"time": 0,
				"elapsed": 80.07710790634155
			},
			{
				"note": 63,
				"velocity": 100,
				"time": 0,
				"elapsed": 80.30806565284729
			},
			{
				"note": 64,
				"velocity": 100,
				"time": 0,
				"elapsed": 80.53861093521118
			},
			{
				"note": 65,
				"velocity": 100,
				"time": 0,
				"elapsed": 80.76951599121094
			},
			{
				"note": 63,
				"velocity": 100,
				"time": 0,
				"elapsed": 81.00011372566223
			},
			{
				"note": 61,
				"velocity": 100,
				"time": 0,
				"elapsed": 81.23085904121399
			},
			{
				"note": 64,
				"velocity": 100,
				"time": 0,
				"elapsed": 81.23090624809265
			},
			{
				"note": 64,
				"velocity": 100,
				"time": 0.1153845,
				"elapsed": 81.46157050132751
			},
			{
				"note": 61,
				"velocity": 100,
				"time": 0,
				"elapsed": 81.46181106567383
			},
			{
				"note": 61,
				"velocity": 100,
				"time": 0.3461535,
				"elapsed": 81.92313933372498
			},
			{
				"note": 64,
				"velocity": 100,
				"time": 0,
				"elapsed": 81.92329430580139
			},
			{
				"note": 61,
				"velocity": 100,
				"time": 0.1153845,
				"elapsed": 82.15396451950073
			},
			{
				"note": 64,
				"velocity": 100,
				"time": 0,
				"elapsed": 82.1544542312622
			},
			{
				"note": 61,
				"velocity": 100,
				"time": 0.3461535,
				"elapsed": 82.61545538902283
			},
			{
				"note": 64,
				"velocity": 100,
				"time": 0,
				"elapsed": 82.6157398223877
			},
			{
				"note": 60,
				"velocity": 100,
				"time": 0,
				"elapsed": 83.07699608802795
			},
			{
				"note": 62,
				"velocity": 100,
				"time": 0,
				"elapsed": 83.30789804458618
			},
			{
				"note": 63,
				"velocity": 100,
				"time": 0,
				"elapsed": 83.53891110420227
			},
			{
				"note": 64,
				"velocity": 100,
				"time": 0,
				"elapsed": 83.76949167251587
			},
			{
				"note": 65,
				"velocity": 100,
				"time": 0,
				"elapsed": 84.00006318092346
			},
			{
				"note": 64,
				"velocity": 100,
				"time": 0,
				"elapsed": 84.23086977005005
			},
			{
				"note": 60,
				"velocity": 100,
				"time": 0,
				"elapsed": 84.46171736717224
			},
			{
				"note": 65,
				"velocity": 100,
				"time": 0,
				"elapsed": 84.46179938316345
			},
			{
				"note": 65,
				"velocity": 100,
				"time": 0.1153845,
				"elapsed": 84.69236946105957
			},
			{
				"note": 60,
				"velocity": 100,
				"time": 0,
				"elapsed": 84.69267702102661
			},
			{
				"note": 60,
				"velocity": 100,
				"time": 0.3461535,
				"elapsed": 85.15387463569641
			},
			{
				"note": 65,
				"velocity": 100,
				"time": 0,
				"elapsed": 85.1539855003357
			},
			{
				"note": 60,
				"velocity": 100,
				"time": 0.1153845,
				"elapsed": 85.38484382629395
			},
			{
				"note": 65,
				"velocity": 100,
				"time": 0,
				"elapsed": 85.38523697853088
			},
			{
				"note": 64,
				"velocity": 100,
				"time": 0.3461535,
				"elapsed": 85.84617638587952
			},
			{
				"note": 60,
				"velocity": 100,
				"time": 0,
				"elapsed": 85.84627723693848
			},
			{
				"note": 60,
				"velocity": 100,
				"time": 0,
				"elapsed": 86.30784749984741
			},
			{
				"note": 61,
				"velocity": 100,
				"time": 0,
				"elapsed": 86.53855276107788
			},
			{
				"note": 63,
				"velocity": 100,
				"time": 0,
				"elapsed": 86.76948928833008
			},
			{
				"note": 64,
				"velocity": 100,
				"time": 0,
				"elapsed": 87.00036334991455
			},
			{
				"note": 65,
				"velocity": 100,
				"time": 0,
				"elapsed": 87.23084163665771
			},
			{
				"note": 64,
				"velocity": 100,
				"time": 0,
				"elapsed": 87.4616186618805
			},
			{
				"note": 62,
				"velocity": 100,
				"time": 0,
				"elapsed": 87.69269442558289
			},
			{
				"note": 65,
				"velocity": 100,
				"time": 0,
				"elapsed": 87.6927969455719
			},
			{
				"note": 62,
				"velocity": 100,
				"time": 0.1153845,
				"elapsed": 87.92312908172607
			},
			{
				"note": 65,
				"velocity": 100,
				"time": 0,
				"elapsed": 87.92403817176819
			},
			{
				"note": 65,
				"velocity": 100,
				"time": 0.3461535,
				"elapsed": 88.38489317893982
			},
			{
				"note": 62,
				"velocity": 100,
				"time": 0,
				"elapsed": 88.38519525527954
			},
			{
				"note": 65,
				"velocity": 100,
				"time": 0.1153845,
				"elapsed": 88.61554884910583
			},
			{
				"note": 62,
				"velocity": 100,
				"time": 0,
				"elapsed": 88.61580991744995
			},
			{
				"note": 64,
				"velocity": 100,
				"time": 0.3461535,
				"elapsed": 89.0770173072815
			},
			{
				"note": 62,
				"velocity": 100,
				"time": 0,
				"elapsed": 89.07720899581909
			},
			{
				"note": 60,
				"velocity": 100,
				"time": 0,
				"elapsed": 89.53910398483276
			},
			{
				"note": 61,
				"velocity": 100,
				"time": 0,
				"elapsed": 89.76957201957703
			},
			{
				"note": 62,
				"velocity": 100,
				"time": 0,
				"elapsed": 90.00024080276489
			},
			{
				"note": 63,
				"velocity": 100,
				"time": 0,
				"elapsed": 90.2308599948883
			},
			{
				"note": 65,
				"velocity": 100,
				"time": 0,
				"elapsed": 90.46175074577332
			},
			{
				"note": 63,
				"velocity": 100,
				"time": 0,
				"elapsed": 90.69256830215454
			},
			{
				"note": 64,
				"velocity": 100,
				"time": 0,
				"elapsed": 90.92333841323853
			},
			{
				"note": 61,
				"velocity": 100,
				"time": 0,
				"elapsed": 90.92345643043518
			},
			{
				"note": 61,
				"velocity": 100,
				"time": 0.1153845,
				"elapsed": 91.15393090248108
			},
			{
				"note": 64,
				"velocity": 100,
				"time": 0,
				"elapsed": 91.15439367294312
			},
			{
				"note": 64,
				"velocity": 100,
				"time": 0.3461535,
				"elapsed": 91.61547517776489
			},
			{
				"note": 61,
				"velocity": 100,
				"time": 0,
				"elapsed": 91.61555290222168
			},
			{
				"note": 61,
				"velocity": 100,
				"time": 0.1153845,
				"elapsed": 91.84614706039429
			},
			{
				"note": 64,
				"velocity": 100,
				"time": 0,
				"elapsed": 91.84623885154724
			},
			{
				"note": 63,
				"velocity": 100,
				"time": 0.3461535,
				"elapsed": 92.30769658088684
			},
			{
				"note": 61,
				"velocity": 100,
				"time": 0,
				"elapsed": 92.30788040161133
			},
			{
				"note": 60,
				"velocity": 100,
				"time": 0,
				"elapsed": 92.76938986778259
			},
			{
				"note": 61,
				"velocity": 100,
				"time": 0,
				"elapsed": 93.00020551681519
			},
			{
				"note": 63,
				"velocity": 100,
				"time": 0,
				"elapsed": 93.2309091091156
			},
			{
				"note": 64,
				"velocity": 100,
				"time": 0,
				"elapsed": 93.46168518066406
			},
			{
				"note": 65,
				"velocity": 100,
				"time": 0,
				"elapsed": 93.6927080154419
			},
			{
				"note": 62,
				"velocity": 100,
				"time": 0,
				"elapsed": 93.92331290245056
			},
			{
				"note": 63,
				"velocity": 100,
				"time": 0,
				"elapsed": 94.15420126914978
			},
			{
				"note": 65,
				"velocity": 100,
				"time": 0,
				"elapsed": 94.38482427597046
			},
			{
				"note": 64,
				"velocity": 100,
				"time": 0,
				"elapsed": 94.38487911224365
			},
			{
				"note": 62,
				"velocity": 100,
				"time": 0,
				"elapsed": 94.61555552482605
			},
			{
				"note": 65,
				"velocity": 100,
				"time": 0,
				"elapsed": 94.84632968902588
			},
			{
				"note": 63,
				"velocity": 100,
				"time": 0,
				"elapsed": 94.84642386436462
			},
			{
				"note": 61,
				"velocity": 100,
				"time": 0,
				"elapsed": 95.07723355293274
			},
			{
				"note": 62,
				"velocity": 100,
				"time": 0,
				"elapsed": 95.3078396320343
			},
			{
				"note": 65,
				"velocity": 100,
				"time": 0,
				"elapsed": 95.30789184570312
			},
			{
				"note": 60,
				"velocity": 100,
				"time": 0,
				"elapsed": 95.53859281539917
			},
			{
				"note": 64,
				"velocity": 100,
				"time": 0,
				"elapsed": 95.769460439682
			},
			{
				"note": 62,
				"velocity": 100,
				"time": 0,
				"elapsed": 95.76958394050598
			},
			{
				"note": 61,
				"velocity": 100,
				"time": 0,
				"elapsed": 96.00027298927307
			},
			{
				"note": 60,
				"velocity": 100,
				"time": 0,
				"elapsed": 96.00038003921509
			},
			{
				"note": 63,
				"velocity": 100,
				"time": 0,
				"elapsed": 96.00045204162598
			},
			{
				"note": 63,
				"velocity": 100,
				"time": 0,
				"elapsed": 96.4618194103241
			},
			{
				"note": 64,
				"velocity": 100,
				"time": 0,
				"elapsed": 96.46187496185303
			},
			{
				"note": 61,
				"velocity": 100,
				"time": 0,
				"elapsed": 96.46191167831421
			}
		]
	},
	"program_change": {},
	"set_tempo": []
}
